<?xml version="1.0" encoding="utf-8"?>
<!-- Generator: Adobe Illustrator 24.1.1, SVG Export Plug-In . SVG Version: 6.00 Build 0)  -->
<svg version="1.1" id="Layer_1" opacity="0.2" xmlns="http://www.w3.org/2000/svg" xmlns:xlink="http://www.w3.org/1999/xlink"
	 x="0px" y="0px" viewBox="0 0 1964.6 339.4" style="enable-background:new 0 0 1964.6 339.4;" xml:space="preserve">
<style type="text/css">
	.st0{clip-path:url(#SVGID_2_);}
	.st1{fill:#1E4FED;}
	.st2{clip-path:url(#SVGID_4_);}
	.st3{clip-path:url(#SVGID_6_);}
	.st4{clip-path:url(#SVGID_8_);}
	.st5{clip-path:url(#SVGID_10_);}
	.st6{clip-path:url(#SVGID_12_);}
	.st7{clip-path:url(#SVGID_14_);}
	.st8{clip-path:url(#SVGID_16_);}
</style>
<g>
	<defs>
		<path id="SVGID_1_" d="M172.6,14h-60.8L13.5,282h69L98,232h88.6l15.6,50.1h69.4L172.6,14z M113.5,182.1l28.7-93l28.9,93H113.5z"/>
	</defs>
	<clipPath id="SVGID_2_">
		<use xlink:href="#SVGID_1_"  style="overflow:visible;"/>
	</clipPath>
	<g class="st0">
		
			<rect x="32.3" y="349" transform="matrix(0.9063 -0.4226 0.4226 0.9063 -124.8432 137.5831)" class="st1" width="431.1" height="2.7"/>
		
			<rect x="29.8" y="344.8" transform="matrix(0.9063 -0.4226 0.4226 0.9063 -123.318 136.131)" class="st1" width="431.1" height="2.7"/>
		
			<rect x="27.3" y="340.7" transform="matrix(0.9063 -0.4226 0.4226 0.9063 -121.7927 134.6789)" class="st1" width="431.1" height="2.7"/>
		
			<rect x="24.8" y="336.5" transform="matrix(0.9063 -0.4226 0.4226 0.9063 -120.2675 133.2268)" class="st1" width="431.1" height="2.7"/>
		
			<rect x="22.3" y="332.3" transform="matrix(0.9063 -0.4226 0.4226 0.9063 -118.7423 131.7747)" class="st1" width="431.1" height="2.7"/>
		
			<rect x="19.8" y="328.2" transform="matrix(0.9063 -0.4226 0.4226 0.9063 -117.217 130.3226)" class="st1" width="431.1" height="2.7"/>
		
			<rect x="17.2" y="324" transform="matrix(0.9063 -0.4226 0.4226 0.9063 -115.6918 128.8705)" class="st1" width="431.1" height="2.7"/>
		
			<rect x="14.7" y="319.9" transform="matrix(0.9063 -0.4226 0.4226 0.9063 -114.1666 127.4184)" class="st1" width="431.1" height="2.7"/>
		
			<rect x="12.2" y="315.7" transform="matrix(0.9063 -0.4226 0.4226 0.9063 -112.6414 125.9663)" class="st1" width="431.1" height="2.7"/>
		
			<rect x="9.7" y="311.5" transform="matrix(0.9063 -0.4226 0.4226 0.9063 -111.1161 124.5142)" class="st1" width="431.1" height="2.7"/>
		
			<rect x="7.2" y="307.4" transform="matrix(0.9063 -0.4226 0.4226 0.9063 -109.5909 123.0621)" class="st1" width="431.1" height="2.7"/>
		
			<rect x="4.7" y="303.2" transform="matrix(0.9063 -0.4226 0.4226 0.9063 -108.0657 121.6101)" class="st1" width="431.1" height="2.7"/>
		
			<rect x="2.2" y="299" transform="matrix(0.9063 -0.4226 0.4226 0.9063 -106.5405 120.158)" class="st1" width="431.1" height="2.7"/>
		
			<rect x="-0.3" y="294.9" transform="matrix(0.9063 -0.4226 0.4226 0.9063 -105.0152 118.7059)" class="st1" width="431.1" height="2.7"/>
		
			<rect x="-2.9" y="290.7" transform="matrix(0.9063 -0.4226 0.4226 0.9063 -103.49 117.2538)" class="st1" width="431.1" height="2.7"/>
		
			<rect x="-5.4" y="286.5" transform="matrix(0.9063 -0.4226 0.4226 0.9063 -101.9648 115.8017)" class="st1" width="431.1" height="2.7"/>
		
			<rect x="-7.9" y="282.4" transform="matrix(0.9063 -0.4226 0.4226 0.9063 -100.4396 114.3496)" class="st1" width="431.1" height="2.7"/>
		
			<rect x="-10.4" y="278.2" transform="matrix(0.9063 -0.4226 0.4226 0.9063 -98.9143 112.8975)" class="st1" width="431.1" height="2.7"/>
		
			<rect x="-12.9" y="274" transform="matrix(0.9063 -0.4226 0.4226 0.9063 -97.3891 111.4454)" class="st1" width="431.1" height="2.7"/>
		
			<rect x="-15.4" y="269.9" transform="matrix(0.9063 -0.4226 0.4226 0.9063 -95.8639 109.9933)" class="st1" width="431.1" height="2.7"/>
		
			<rect x="-17.9" y="265.7" transform="matrix(0.9063 -0.4226 0.4226 0.9063 -94.3387 108.5412)" class="st1" width="431.1" height="2.7"/>
		
			<rect x="-20.4" y="261.5" transform="matrix(0.9063 -0.4226 0.4226 0.9063 -92.8134 107.0891)" class="st1" width="431.1" height="2.7"/>
		
			<rect x="-23" y="257.4" transform="matrix(0.9063 -0.4226 0.4226 0.9063 -91.2882 105.637)" class="st1" width="431.1" height="2.7"/>
		
			<rect x="-25.5" y="253.2" transform="matrix(0.9063 -0.4226 0.4226 0.9063 -89.763 104.1849)" class="st1" width="431.1" height="2.7"/>
		
			<rect x="-28" y="249" transform="matrix(0.9063 -0.4226 0.4226 0.9063 -88.2377 102.7328)" class="st1" width="431.1" height="2.7"/>
		
			<rect x="-30.5" y="244.9" transform="matrix(0.9063 -0.4226 0.4226 0.9063 -86.7125 101.2807)" class="st1" width="431.1" height="2.7"/>
		
			<rect x="-33" y="240.7" transform="matrix(0.9063 -0.4226 0.4226 0.9063 -85.1873 99.8286)" class="st1" width="431.1" height="2.7"/>
		
			<rect x="-35.5" y="236.5" transform="matrix(0.9063 -0.4226 0.4226 0.9063 -83.6621 98.3765)" class="st1" width="431.1" height="2.7"/>
		
			<rect x="-38" y="232.4" transform="matrix(0.9063 -0.4226 0.4226 0.9063 -82.1368 96.9244)" class="st1" width="431.1" height="2.7"/>
		
			<rect x="-40.5" y="228.2" transform="matrix(0.9063 -0.4226 0.4226 0.9063 -80.6116 95.4723)" class="st1" width="431.1" height="2.7"/>
		
			<rect x="-43.1" y="224" transform="matrix(0.9063 -0.4226 0.4226 0.9063 -79.0864 94.0202)" class="st1" width="431.1" height="2.7"/>
		
			<rect x="-45.6" y="219.9" transform="matrix(0.9063 -0.4226 0.4226 0.9063 -77.5612 92.5681)" class="st1" width="431.1" height="2.7"/>
		
			<rect x="-48.1" y="215.7" transform="matrix(0.9063 -0.4226 0.4226 0.9063 -76.0359 91.1161)" class="st1" width="431.1" height="2.7"/>
		
			<rect x="-50.6" y="211.5" transform="matrix(0.9063 -0.4226 0.4226 0.9063 -74.5107 89.664)" class="st1" width="431.1" height="2.7"/>
		
			<rect x="-53.1" y="207.4" transform="matrix(0.9063 -0.4226 0.4226 0.9063 -72.9855 88.2119)" class="st1" width="431.1" height="2.7"/>
		
			<rect x="-55.6" y="203.2" transform="matrix(0.9063 -0.4226 0.4226 0.9063 -71.4603 86.7598)" class="st1" width="431.1" height="2.7"/>
		
			<rect x="-58.1" y="199" transform="matrix(0.9063 -0.4226 0.4226 0.9063 -69.935 85.3077)" class="st1" width="431.1" height="2.7"/>
		
			<rect x="-60.6" y="194.9" transform="matrix(0.9063 -0.4226 0.4226 0.9063 -68.4098 83.8556)" class="st1" width="431.1" height="2.7"/>
		
			<rect x="-63.2" y="190.7" transform="matrix(0.9063 -0.4226 0.4226 0.9063 -66.8846 82.4035)" class="st1" width="431.1" height="2.7"/>
		
			<rect x="-65.7" y="186.5" transform="matrix(0.9063 -0.4226 0.4226 0.9063 -65.3594 80.9514)" class="st1" width="431.1" height="2.7"/>
		
			<rect x="-68.2" y="182.4" transform="matrix(0.9063 -0.4226 0.4226 0.9063 -63.8341 79.4993)" class="st1" width="431.1" height="2.7"/>
		
			<rect x="-70.7" y="178.2" transform="matrix(0.9063 -0.4226 0.4226 0.9063 -62.3089 78.0472)" class="st1" width="431.1" height="2.7"/>
		
			<rect x="-73.2" y="174" transform="matrix(0.9063 -0.4226 0.4226 0.9063 -60.7837 76.5951)" class="st1" width="431.1" height="2.7"/>
		
			<rect x="-75.7" y="169.9" transform="matrix(0.9063 -0.4226 0.4226 0.9063 -59.2584 75.143)" class="st1" width="431.1" height="2.7"/>
		
			<rect x="-78.2" y="165.7" transform="matrix(0.9063 -0.4226 0.4226 0.9063 -57.7332 73.6909)" class="st1" width="431.1" height="2.7"/>
		
			<rect x="-80.7" y="161.5" transform="matrix(0.9063 -0.4226 0.4226 0.9063 -56.208 72.2388)" class="st1" width="431.1" height="2.7"/>
		
			<rect x="-83.3" y="157.4" transform="matrix(0.9063 -0.4226 0.4226 0.9063 -54.6828 70.7867)" class="st1" width="431.1" height="2.7"/>
		
			<rect x="-85.8" y="153.2" transform="matrix(0.9063 -0.4226 0.4226 0.9063 -53.1575 69.3346)" class="st1" width="431.1" height="2.7"/>
		
			<rect x="-88.3" y="149" transform="matrix(0.9063 -0.4226 0.4226 0.9063 -51.6323 67.8825)" class="st1" width="431.1" height="2.7"/>
		
			<rect x="-90.8" y="144.9" transform="matrix(0.9063 -0.4226 0.4226 0.9063 -50.1071 66.4304)" class="st1" width="431.1" height="2.7"/>
		
			<rect x="-93.3" y="140.7" transform="matrix(0.9063 -0.4226 0.4226 0.9063 -48.5819 64.9783)" class="st1" width="431.1" height="2.7"/>
		
			<rect x="-95.8" y="136.5" transform="matrix(0.9063 -0.4226 0.4226 0.9063 -47.0566 63.5262)" class="st1" width="431.1" height="2.7"/>
		
			<rect x="-98.3" y="132.4" transform="matrix(0.9063 -0.4226 0.4226 0.9063 -45.5314 62.0741)" class="st1" width="431.1" height="2.7"/>
		
			<rect x="-100.8" y="128.2" transform="matrix(0.9063 -0.4226 0.4226 0.9063 -44.0062 60.622)" class="st1" width="431.1" height="2.7"/>
		
			<rect x="-103.3" y="124.1" transform="matrix(0.9063 -0.4226 0.4226 0.9063 -42.481 59.1699)" class="st1" width="431.1" height="2.7"/>
		
			<rect x="-105.9" y="119.9" transform="matrix(0.9063 -0.4226 0.4226 0.9063 -40.9557 57.7179)" class="st1" width="431.1" height="2.7"/>
		
			<rect x="-108.4" y="115.7" transform="matrix(0.9063 -0.4226 0.4226 0.9063 -39.4305 56.2658)" class="st1" width="431.1" height="2.7"/>
		
			<rect x="-110.9" y="111.6" transform="matrix(0.9063 -0.4226 0.4226 0.9063 -37.9053 54.8137)" class="st1" width="431.1" height="2.7"/>
		
			<rect x="-113.4" y="107.4" transform="matrix(0.9063 -0.4226 0.4226 0.9063 -36.3801 53.3616)" class="st1" width="431.1" height="2.7"/>
		
			<rect x="-115.9" y="103.2" transform="matrix(0.9063 -0.4226 0.4226 0.9063 -34.8548 51.9095)" class="st1" width="431.1" height="2.7"/>
		
			<rect x="-118.4" y="99.1" transform="matrix(0.9063 -0.4226 0.4226 0.9063 -33.3296 50.4574)" class="st1" width="431.1" height="2.7"/>
		
			<rect x="-120.9" y="94.9" transform="matrix(0.9063 -0.4226 0.4226 0.9063 -31.8044 49.0053)" class="st1" width="431.1" height="2.7"/>
		
			<rect x="-123.4" y="90.7" transform="matrix(0.9063 -0.4226 0.4226 0.9063 -30.2792 47.5532)" class="st1" width="431.1" height="2.7"/>
		
			<rect x="-126" y="86.6" transform="matrix(0.9063 -0.4226 0.4226 0.9063 -28.7539 46.1011)" class="st1" width="431.1" height="2.7"/>
		
			<rect x="-128.5" y="82.4" transform="matrix(0.9063 -0.4226 0.4226 0.9063 -27.2287 44.649)" class="st1" width="431.1" height="2.7"/>
		
			<rect x="-131" y="78.2" transform="matrix(0.9063 -0.4226 0.4226 0.9063 -25.7035 43.1969)" class="st1" width="431.1" height="2.7"/>
		
			<rect x="-133.5" y="74.1" transform="matrix(0.9063 -0.4226 0.4226 0.9063 -24.1782 41.7448)" class="st1" width="431.1" height="2.7"/>
		
			<rect x="-136" y="69.9" transform="matrix(0.9063 -0.4226 0.4226 0.9063 -22.653 40.2927)" class="st1" width="431.1" height="2.7"/>
		
			<rect x="-138.5" y="65.7" transform="matrix(0.9063 -0.4226 0.4226 0.9063 -21.1278 38.8406)" class="st1" width="431.1" height="2.7"/>
		
			<rect x="-141" y="61.6" transform="matrix(0.9063 -0.4226 0.4226 0.9063 -19.6026 37.3885)" class="st1" width="431.1" height="2.7"/>
		
			<rect x="-143.5" y="57.4" transform="matrix(0.9063 -0.4226 0.4226 0.9063 -18.0773 35.9364)" class="st1" width="431.1" height="2.7"/>
		
			<rect x="-146.1" y="53.2" transform="matrix(0.9063 -0.4226 0.4226 0.9063 -16.5521 34.4843)" class="st1" width="431.1" height="2.7"/>
		
			<rect x="-148.6" y="49.1" transform="matrix(0.9063 -0.4226 0.4226 0.9063 -15.0269 33.0322)" class="st1" width="431.1" height="2.7"/>
		
			<rect x="-151.1" y="44.9" transform="matrix(0.9063 -0.4226 0.4226 0.9063 -13.5017 31.5801)" class="st1" width="431.1" height="2.7"/>
		
			<rect x="-153.6" y="40.7" transform="matrix(0.9063 -0.4226 0.4226 0.9063 -11.9764 30.128)" class="st1" width="431.1" height="2.7"/>
		
			<rect x="-156.1" y="36.6" transform="matrix(0.9063 -0.4226 0.4226 0.9063 -10.4512 28.6759)" class="st1" width="431.1" height="2.7"/>
		
			<rect x="-158.6" y="32.4" transform="matrix(0.9063 -0.4226 0.4226 0.9063 -8.926 27.2238)" class="st1" width="431.1" height="2.7"/>
		
			<rect x="-161.1" y="28.2" transform="matrix(0.9063 -0.4226 0.4226 0.9063 -7.4008 25.7718)" class="st1" width="431.1" height="2.7"/>
		
			<rect x="-163.6" y="24.1" transform="matrix(0.9063 -0.4226 0.4226 0.9063 -5.8755 24.3197)" class="st1" width="431.1" height="2.7"/>
		
			<rect x="-166.2" y="19.9" transform="matrix(0.9063 -0.4226 0.4226 0.9063 -4.3503 22.8676)" class="st1" width="431.1" height="2.7"/>
		
			<rect x="-168.7" y="15.7" transform="matrix(0.9063 -0.4226 0.4226 0.9063 -2.8251 21.4155)" class="st1" width="431.1" height="2.7"/>
		
			<rect x="-171.2" y="11.6" transform="matrix(0.9063 -0.4226 0.4226 0.9063 -1.2999 19.9634)" class="st1" width="431.1" height="2.7"/>
	</g>
</g>
<g>
	<defs>
		<path id="SVGID_3_" d="M427.4,224.6c-7.9,7-19.2,10.5-34.1,10.5c-17.6,0-29.9-6.1-37.1-18.4c-7.2-12.3-10.8-32.7-10.8-61.3v-19
			c0.4-26.4,4.3-45.6,11.8-57.6c7.5-12,19.3-18,35.4-18c15.8,0,27.6,3.6,35.4,10.7c7.7,7.1,11.8,18.8,12.3,35.2h64.4
			C502,76.5,490.8,52.9,471,35.8c-19.8-17.1-45.9-25.7-78.4-25.7c-22.6,0-42.5,5.4-59.7,16.1c-17.2,10.7-30.4,26-39.5,45.7
			c-9.1,19.7-13.7,42.7-13.7,69v13.3c0,41.9,10.1,74.3,30.4,97.2c20.3,23,48,34.4,83.2,34.4c21.4,0,40.4-3.9,57-11.8
			c16.6-7.9,29.6-18.9,38.8-33.2c9.2-14.3,14.2-30.8,15.1-49.4h-64.3C439.4,206.5,435.2,217.6,427.4,224.6z"/>
	</defs>
	<clipPath id="SVGID_4_">
		<use xlink:href="#SVGID_3_"  style="overflow:visible;"/>
	</clipPath>
	<g class="st2">
		
			<rect x="278.4" y="310.7" transform="matrix(0.9063 -0.4226 0.4226 0.9063 -85.6088 238.0019)" class="st1" width="431.1" height="2.7"/>
		
			<rect x="275.9" y="306.6" transform="matrix(0.9063 -0.4226 0.4226 0.9063 -84.0835 236.5498)" class="st1" width="431.1" height="2.7"/>
		
			<rect x="273.4" y="302.4" transform="matrix(0.9063 -0.4226 0.4226 0.9063 -82.5583 235.0977)" class="st1" width="431.1" height="2.7"/>
		
			<rect x="270.9" y="298.2" transform="matrix(0.9063 -0.4226 0.4226 0.9063 -81.0331 233.6456)" class="st1" width="431.1" height="2.7"/>
		
			<rect x="268.4" y="294.1" transform="matrix(0.9063 -0.4226 0.4226 0.9063 -79.5079 232.1935)" class="st1" width="431.1" height="2.7"/>
		
			<rect x="265.9" y="289.9" transform="matrix(0.9063 -0.4226 0.4226 0.9063 -77.9826 230.7414)" class="st1" width="431.1" height="2.7"/>
		
			<rect x="263.3" y="285.7" transform="matrix(0.9063 -0.4226 0.4226 0.9063 -76.4574 229.2894)" class="st1" width="431.1" height="2.7"/>
		
			<rect x="260.8" y="281.6" transform="matrix(0.9063 -0.4226 0.4226 0.9063 -74.9322 227.8372)" class="st1" width="431.1" height="2.7"/>
		
			<rect x="258.3" y="277.4" transform="matrix(0.9063 -0.4226 0.4226 0.9063 -73.407 226.3852)" class="st1" width="431.1" height="2.7"/>
		
			<rect x="255.8" y="273.2" transform="matrix(0.9063 -0.4226 0.4226 0.9063 -71.8817 224.9331)" class="st1" width="431.1" height="2.7"/>
		
			<rect x="253.3" y="269.1" transform="matrix(0.9063 -0.4226 0.4226 0.9063 -70.3565 223.481)" class="st1" width="431.1" height="2.7"/>
		
			<rect x="250.8" y="264.9" transform="matrix(0.9063 -0.4226 0.4226 0.9063 -68.8313 222.0289)" class="st1" width="431.1" height="2.7"/>
		
			<rect x="248.3" y="260.7" transform="matrix(0.9063 -0.4226 0.4226 0.9063 -67.3061 220.5768)" class="st1" width="431.1" height="2.7"/>
		
			<rect x="245.8" y="256.6" transform="matrix(0.9063 -0.4226 0.4226 0.9063 -65.7808 219.1247)" class="st1" width="431.1" height="2.7"/>
		
			<rect x="243.2" y="252.4" transform="matrix(0.9063 -0.4226 0.4226 0.9063 -64.2556 217.6726)" class="st1" width="431.1" height="2.7"/>
		
			<rect x="240.7" y="248.2" transform="matrix(0.9063 -0.4226 0.4226 0.9063 -62.7304 216.2205)" class="st1" width="431.1" height="2.7"/>
		
			<rect x="238.2" y="244.1" transform="matrix(0.9063 -0.4226 0.4226 0.9063 -61.2051 214.7684)" class="st1" width="431.1" height="2.7"/>
		
			<rect x="235.7" y="239.9" transform="matrix(0.9063 -0.4226 0.4226 0.9063 -59.6799 213.3163)" class="st1" width="431.1" height="2.7"/>
		
			<rect x="233.2" y="235.7" transform="matrix(0.9063 -0.4226 0.4226 0.9063 -58.1547 211.8642)" class="st1" width="431.1" height="2.7"/>
		
			<rect x="230.7" y="231.6" transform="matrix(0.9063 -0.4226 0.4226 0.9063 -56.6295 210.4121)" class="st1" width="431.1" height="2.7"/>
		
			<rect x="228.2" y="227.4" transform="matrix(0.9063 -0.4226 0.4226 0.9063 -55.1042 208.96)" class="st1" width="431.1" height="2.7"/>
		
			<rect x="225.7" y="223.2" transform="matrix(0.9063 -0.4226 0.4226 0.9063 -53.579 207.5079)" class="st1" width="431.1" height="2.7"/>
		
			<rect x="223.1" y="219.1" transform="matrix(0.9063 -0.4226 0.4226 0.9063 -52.0538 206.0558)" class="st1" width="431.1" height="2.7"/>
		
			<rect x="220.6" y="214.9" transform="matrix(0.9063 -0.4226 0.4226 0.9063 -50.5286 204.6037)" class="st1" width="431.1" height="2.7"/>
		
			<rect x="218.1" y="210.8" transform="matrix(0.9063 -0.4226 0.4226 0.9063 -49.0033 203.1516)" class="st1" width="431.1" height="2.7"/>
		
			<rect x="215.6" y="206.6" transform="matrix(0.9063 -0.4226 0.4226 0.9063 -47.4781 201.6995)" class="st1" width="431.1" height="2.7"/>
		
			<rect x="213.1" y="202.4" transform="matrix(0.9063 -0.4226 0.4226 0.9063 -45.9529 200.2474)" class="st1" width="431.1" height="2.7"/>
		
			<rect x="210.6" y="198.3" transform="matrix(0.9063 -0.4226 0.4226 0.9063 -44.4277 198.7953)" class="st1" width="431.1" height="2.7"/>
		
			<rect x="208.1" y="194.1" transform="matrix(0.9063 -0.4226 0.4226 0.9063 -42.9024 197.3432)" class="st1" width="431.1" height="2.7"/>
		
			<rect x="205.6" y="189.9" transform="matrix(0.9063 -0.4226 0.4226 0.9063 -41.3772 195.8911)" class="st1" width="431.1" height="2.7"/>
		
			<rect x="203" y="185.8" transform="matrix(0.9063 -0.4226 0.4226 0.9063 -39.852 194.4391)" class="st1" width="431.1" height="2.7"/>
		
			<rect x="200.5" y="181.6" transform="matrix(0.9063 -0.4226 0.4226 0.9063 -38.3268 192.987)" class="st1" width="431.1" height="2.7"/>
		
			<rect x="198" y="177.4" transform="matrix(0.9063 -0.4226 0.4226 0.9063 -36.8015 191.5349)" class="st1" width="431.1" height="2.7"/>
		
			<rect x="195.5" y="173.3" transform="matrix(0.9063 -0.4226 0.4226 0.9063 -35.2763 190.0828)" class="st1" width="431.1" height="2.7"/>
		
			<rect x="193" y="169.1" transform="matrix(0.9063 -0.4226 0.4226 0.9063 -33.7511 188.6307)" class="st1" width="431.1" height="2.7"/>
		
			<rect x="190.5" y="164.9" transform="matrix(0.9063 -0.4226 0.4226 0.9063 -32.2258 187.1786)" class="st1" width="431.1" height="2.7"/>
		
			<rect x="188" y="160.8" transform="matrix(0.9063 -0.4226 0.4226 0.9063 -30.7006 185.7265)" class="st1" width="431.1" height="2.7"/>
		
			<rect x="185.5" y="156.6" transform="matrix(0.9063 -0.4226 0.4226 0.9063 -29.1754 184.2744)" class="st1" width="431.1" height="2.7"/>
		
			<rect x="182.9" y="152.4" transform="matrix(0.9063 -0.4226 0.4226 0.9063 -27.6502 182.8223)" class="st1" width="431.1" height="2.7"/>
		
			<rect x="180.4" y="148.3" transform="matrix(0.9063 -0.4226 0.4226 0.9063 -26.1249 181.3702)" class="st1" width="431.1" height="2.7"/>
		
			<rect x="177.9" y="144.1" transform="matrix(0.9063 -0.4226 0.4226 0.9063 -24.5997 179.9181)" class="st1" width="431.1" height="2.7"/>
		
			<rect x="175.4" y="139.9" transform="matrix(0.9063 -0.4226 0.4226 0.9063 -23.0745 178.466)" class="st1" width="431.1" height="2.7"/>
		
			<rect x="172.9" y="135.8" transform="matrix(0.9063 -0.4226 0.4226 0.9063 -21.5493 177.0139)" class="st1" width="431.1" height="2.7"/>
		
			<rect x="170.4" y="131.6" transform="matrix(0.9063 -0.4226 0.4226 0.9063 -20.024 175.5618)" class="st1" width="431.1" height="2.7"/>
		
			<rect x="167.9" y="127.4" transform="matrix(0.9063 -0.4226 0.4226 0.9063 -18.4988 174.1097)" class="st1" width="431.1" height="2.7"/>
		
			<rect x="165.4" y="123.3" transform="matrix(0.9063 -0.4226 0.4226 0.9063 -16.9736 172.6576)" class="st1" width="431.1" height="2.7"/>
		
			<rect x="162.8" y="119.1" transform="matrix(0.9063 -0.4226 0.4226 0.9063 -15.4484 171.2055)" class="st1" width="431.1" height="2.7"/>
		
			<rect x="160.3" y="114.9" transform="matrix(0.9063 -0.4226 0.4226 0.9063 -13.9231 169.7534)" class="st1" width="431.1" height="2.7"/>
		
			<rect x="157.8" y="110.8" transform="matrix(0.9063 -0.4226 0.4226 0.9063 -12.3979 168.3013)" class="st1" width="431.1" height="2.7"/>
		
			<rect x="155.3" y="106.6" transform="matrix(0.9063 -0.4226 0.4226 0.9063 -10.8727 166.8492)" class="st1" width="431.1" height="2.7"/>
		
			<rect x="152.8" y="102.4" transform="matrix(0.9063 -0.4226 0.4226 0.9063 -9.3475 165.3971)" class="st1" width="431.1" height="2.7"/>
		
			<rect x="150.3" y="98.3" transform="matrix(0.9063 -0.4226 0.4226 0.9063 -7.8222 163.9451)" class="st1" width="431.1" height="2.7"/>
		
			<rect x="147.8" y="94.1" transform="matrix(0.9063 -0.4226 0.4226 0.9063 -6.297 162.493)" class="st1" width="431.1" height="2.7"/>
		
			<rect x="145.3" y="89.9" transform="matrix(0.9063 -0.4226 0.4226 0.9063 -4.7718 161.0409)" class="st1" width="431.1" height="2.7"/>
		
			<rect x="142.7" y="85.8" transform="matrix(0.9063 -0.4226 0.4226 0.9063 -3.2466 159.5888)" class="st1" width="431.1" height="2.7"/>
		
			<rect x="140.2" y="81.6" transform="matrix(0.9063 -0.4226 0.4226 0.9063 -1.7213 158.1367)" class="st1" width="431.1" height="2.7"/>
		
			<rect x="137.7" y="77.4" transform="matrix(0.9063 -0.4226 0.4226 0.9063 -0.1961 156.6846)" class="st1" width="431.1" height="2.7"/>
		
			<rect x="135.2" y="73.3" transform="matrix(0.9063 -0.4226 0.4226 0.9063 1.3291 155.2325)" class="st1" width="431.1" height="2.7"/>
		
			<rect x="132.7" y="69.1" transform="matrix(0.9063 -0.4226 0.4226 0.9063 2.8544 153.7804)" class="st1" width="431.1" height="2.7"/>
		
			<rect x="130.2" y="64.9" transform="matrix(0.9063 -0.4226 0.4226 0.9063 4.3796 152.3283)" class="st1" width="431.1" height="2.7"/>
		
			<rect x="127.7" y="60.8" transform="matrix(0.9063 -0.4226 0.4226 0.9063 5.9048 150.8762)" class="st1" width="431.1" height="2.7"/>
		
			<rect x="125.2" y="56.6" transform="matrix(0.9063 -0.4226 0.4226 0.9063 7.43 149.4241)" class="st1" width="431.1" height="2.7"/>
		
			<rect x="122.6" y="52.4" transform="matrix(0.9063 -0.4226 0.4226 0.9063 8.9553 147.972)" class="st1" width="431.1" height="2.7"/>
		
			<rect x="120.1" y="48.3" transform="matrix(0.9063 -0.4226 0.4226 0.9063 10.4805 146.5199)" class="st1" width="431.1" height="2.7"/>
		
			<rect x="117.6" y="44.1" transform="matrix(0.9063 -0.4226 0.4226 0.9063 12.0057 145.0678)" class="st1" width="431.1" height="2.7"/>
		
			<rect x="115.1" y="39.9" transform="matrix(0.9063 -0.4226 0.4226 0.9063 13.5309 143.6157)" class="st1" width="431.1" height="2.7"/>
		
			<rect x="112.6" y="35.8" transform="matrix(0.9063 -0.4226 0.4226 0.9063 15.0562 142.1636)" class="st1" width="431.1" height="2.7"/>
		
			<rect x="110.1" y="31.6" transform="matrix(0.9063 -0.4226 0.4226 0.9063 16.5814 140.7115)" class="st1" width="431.1" height="2.7"/>
		
			<rect x="107.6" y="27.4" transform="matrix(0.9063 -0.4226 0.4226 0.9063 18.1066 139.2594)" class="st1" width="431.1" height="2.7"/>
		
			<rect x="105.1" y="23.3" transform="matrix(0.9063 -0.4226 0.4226 0.9063 19.6318 137.8073)" class="st1" width="431.1" height="2.7"/>
		
			<rect x="102.5" y="19.1" transform="matrix(0.9063 -0.4226 0.4226 0.9063 21.1571 136.3552)" class="st1" width="431.1" height="2.7"/>
		
			<rect x="100" y="15" transform="matrix(0.9063 -0.4226 0.4226 0.9063 22.6823 134.9031)" class="st1" width="431.1" height="2.7"/>
		
			<rect x="97.5" y="10.8" transform="matrix(0.9063 -0.4226 0.4226 0.9063 24.2075 133.451)" class="st1" width="431.1" height="2.7"/>
		
			<rect x="95" y="6.6" transform="matrix(0.9063 -0.4226 0.4226 0.9063 25.7327 131.9989)" class="st1" width="431.1" height="2.7"/>
		
			<rect x="92.5" y="2.5" transform="matrix(0.9063 -0.4226 0.4226 0.9063 27.258 130.5469)" class="st1" width="431.1" height="2.7"/>
		
			<rect x="90" y="-1.7" transform="matrix(0.9063 -0.4226 0.4226 0.9063 28.7832 129.0948)" class="st1" width="431.1" height="2.7"/>
		
			<rect x="87.5" y="-5.9" transform="matrix(0.9063 -0.4226 0.4226 0.9063 30.3084 127.6427)" class="st1" width="431.1" height="2.7"/>
		
			<rect x="85" y="-10" transform="matrix(0.9063 -0.4226 0.4226 0.9063 31.8337 126.1906)" class="st1" width="431.1" height="2.7"/>
		
			<rect x="82.5" y="-14.2" transform="matrix(0.9063 -0.4226 0.4226 0.9063 33.3589 124.7385)" class="st1" width="431.1" height="2.7"/>
		
			<rect x="79.9" y="-18.4" transform="matrix(0.9063 -0.4226 0.4226 0.9063 34.8841 123.2864)" class="st1" width="431.1" height="2.7"/>
		
			<rect x="77.4" y="-22.5" transform="matrix(0.9063 -0.4226 0.4226 0.9063 36.4093 121.8343)" class="st1" width="431.1" height="2.7"/>
		
			<rect x="74.9" y="-26.7" transform="matrix(0.9063 -0.4226 0.4226 0.9063 37.9346 120.3822)" class="st1" width="431.1" height="2.7"/>
	</g>
</g>
<g>
	<defs>
		<path id="SVGID_5_" d="M674.8,224.6c-7.9,7-19.2,10.5-34.1,10.5c-17.6,0-29.9-6.1-37.1-18.4c-7.2-12.3-10.8-32.7-10.8-61.3v-19
			c0.4-26.4,4.3-45.6,11.8-57.6c7.5-12,19.3-18,35.4-18c15.8,0,27.6,3.6,35.4,10.7c7.7,7.1,11.8,18.8,12.3,35.2h64.4
			c-2.7-30.1-13.9-53.7-33.7-70.8c-19.8-17.1-45.9-25.7-78.4-25.7c-22.6,0-42.5,5.4-59.7,16.1c-17.2,10.7-30.4,26-39.5,45.7
			c-9.1,19.7-13.7,42.7-13.7,69v13.3c0,41.9,10.1,74.3,30.4,97.2c20.3,23,48,34.4,83.2,34.4c21.4,0,40.4-3.9,57-11.8
			c16.6-7.9,29.6-18.9,38.8-33.2c9.2-14.3,14.2-30.8,15.1-49.4h-64.3C686.9,206.5,682.7,217.6,674.8,224.6z"/>
	</defs>
	<clipPath id="SVGID_6_">
		<use xlink:href="#SVGID_5_"  style="overflow:visible;"/>
	</clipPath>
	<g class="st3">
		
			<rect x="532.4" y="304.9" transform="matrix(0.9063 -0.4226 0.4226 0.9063 -59.3419 344.7731)" class="st1" width="431.1" height="2.7"/>
		
			<rect x="529.8" y="300.7" transform="matrix(0.9063 -0.4226 0.4226 0.9063 -57.8167 343.321)" class="st1" width="431.1" height="2.7"/>
		
			<rect x="527.3" y="296.5" transform="matrix(0.9063 -0.4226 0.4226 0.9063 -56.2914 341.8689)" class="st1" width="431.1" height="2.7"/>
		
			<rect x="524.8" y="292.4" transform="matrix(0.9063 -0.4226 0.4226 0.9063 -54.7662 340.4168)" class="st1" width="431.1" height="2.7"/>
		
			<rect x="522.3" y="288.2" transform="matrix(0.9063 -0.4226 0.4226 0.9063 -53.241 338.9647)" class="st1" width="431.1" height="2.7"/>
		
			<rect x="519.8" y="284" transform="matrix(0.9063 -0.4226 0.4226 0.9063 -51.7158 337.5126)" class="st1" width="431.1" height="2.7"/>
		
			<rect x="517.3" y="279.9" transform="matrix(0.9063 -0.4226 0.4226 0.9063 -50.1905 336.0605)" class="st1" width="431.1" height="2.7"/>
		
			<rect x="514.8" y="275.7" transform="matrix(0.9063 -0.4226 0.4226 0.9063 -48.6653 334.6084)" class="st1" width="431.1" height="2.7"/>
		
			<rect x="512.3" y="271.6" transform="matrix(0.9063 -0.4226 0.4226 0.9063 -47.1401 333.1563)" class="st1" width="431.1" height="2.7"/>
		
			<rect x="509.7" y="267.4" transform="matrix(0.9063 -0.4226 0.4226 0.9063 -45.6149 331.7042)" class="st1" width="431.1" height="2.7"/>
		
			<rect x="507.2" y="263.2" transform="matrix(0.9063 -0.4226 0.4226 0.9063 -44.0896 330.2521)" class="st1" width="431.1" height="2.7"/>
		
			<rect x="504.7" y="259.1" transform="matrix(0.9063 -0.4226 0.4226 0.9063 -42.5644 328.8)" class="st1" width="431.1" height="2.7"/>
		
			<rect x="502.2" y="254.9" transform="matrix(0.9063 -0.4226 0.4226 0.9063 -41.0392 327.3479)" class="st1" width="431.1" height="2.7"/>
		
			<rect x="499.7" y="250.7" transform="matrix(0.9063 -0.4226 0.4226 0.9063 -39.5139 325.8958)" class="st1" width="431.1" height="2.7"/>
		
			<rect x="497.2" y="246.6" transform="matrix(0.9063 -0.4226 0.4226 0.9063 -37.9887 324.4437)" class="st1" width="431.1" height="2.7"/>
		
			<rect x="494.7" y="242.4" transform="matrix(0.9063 -0.4226 0.4226 0.9063 -36.4635 322.9916)" class="st1" width="431.1" height="2.7"/>
		
			<rect x="492.2" y="238.2" transform="matrix(0.9063 -0.4226 0.4226 0.9063 -34.9383 321.5396)" class="st1" width="431.1" height="2.7"/>
		
			<rect x="489.6" y="234.1" transform="matrix(0.9063 -0.4226 0.4226 0.9063 -33.413 320.0875)" class="st1" width="431.1" height="2.7"/>
		
			<rect x="487.1" y="229.9" transform="matrix(0.9063 -0.4226 0.4226 0.9063 -31.8878 318.6353)" class="st1" width="431.1" height="2.7"/>
		
			<rect x="484.6" y="225.7" transform="matrix(0.9063 -0.4226 0.4226 0.9063 -30.3626 317.1833)" class="st1" width="431.1" height="2.7"/>
		
			<rect x="482.1" y="221.6" transform="matrix(0.9063 -0.4226 0.4226 0.9063 -28.8374 315.7312)" class="st1" width="431.1" height="2.7"/>
		
			<rect x="479.6" y="217.4" transform="matrix(0.9063 -0.4226 0.4226 0.9063 -27.3121 314.2791)" class="st1" width="431.1" height="2.7"/>
		
			<rect x="477.1" y="213.2" transform="matrix(0.9063 -0.4226 0.4226 0.9063 -25.7869 312.827)" class="st1" width="431.1" height="2.7"/>
		
			<rect x="474.6" y="209.1" transform="matrix(0.9063 -0.4226 0.4226 0.9063 -24.2617 311.3749)" class="st1" width="431.1" height="2.7"/>
		
			<rect x="472.1" y="204.9" transform="matrix(0.9063 -0.4226 0.4226 0.9063 -22.7365 309.9228)" class="st1" width="431.1" height="2.7"/>
		
			<rect x="469.5" y="200.7" transform="matrix(0.9063 -0.4226 0.4226 0.9063 -21.2112 308.4707)" class="st1" width="431.1" height="2.7"/>
		
			<rect x="467" y="196.6" transform="matrix(0.9063 -0.4226 0.4226 0.9063 -19.686 307.0186)" class="st1" width="431.1" height="2.7"/>
		
			<rect x="464.5" y="192.4" transform="matrix(0.9063 -0.4226 0.4226 0.9063 -18.1608 305.5665)" class="st1" width="431.1" height="2.7"/>
		
			<rect x="462" y="188.2" transform="matrix(0.9063 -0.4226 0.4226 0.9063 -16.6356 304.1144)" class="st1" width="431.1" height="2.7"/>
		
			<rect x="459.5" y="184.1" transform="matrix(0.9063 -0.4226 0.4226 0.9063 -15.1103 302.6623)" class="st1" width="431.1" height="2.7"/>
		
			<rect x="457" y="179.9" transform="matrix(0.9063 -0.4226 0.4226 0.9063 -13.5851 301.2102)" class="st1" width="431.1" height="2.7"/>
		
			<rect x="454.5" y="175.7" transform="matrix(0.9063 -0.4226 0.4226 0.9063 -12.0599 299.7581)" class="st1" width="431.1" height="2.7"/>
		
			<rect x="452" y="171.6" transform="matrix(0.9063 -0.4226 0.4226 0.9063 -10.5346 298.306)" class="st1" width="431.1" height="2.7"/>
		
			<rect x="449.4" y="167.4" transform="matrix(0.9063 -0.4226 0.4226 0.9063 -9.0094 296.8539)" class="st1" width="431.1" height="2.7"/>
		
			<rect x="446.9" y="163.2" transform="matrix(0.9063 -0.4226 0.4226 0.9063 -7.4842 295.4018)" class="st1" width="431.1" height="2.7"/>
		
			<rect x="444.4" y="159.1" transform="matrix(0.9063 -0.4226 0.4226 0.9063 -5.959 293.9497)" class="st1" width="431.1" height="2.7"/>
		
			<rect x="441.9" y="154.9" transform="matrix(0.9063 -0.4226 0.4226 0.9063 -4.4337 292.4977)" class="st1" width="431.1" height="2.7"/>
		
			<rect x="439.4" y="150.7" transform="matrix(0.9063 -0.4226 0.4226 0.9063 -2.9085 291.0455)" class="st1" width="431.1" height="2.7"/>
		
			<rect x="436.9" y="146.6" transform="matrix(0.9063 -0.4226 0.4226 0.9063 -1.3833 289.5934)" class="st1" width="431.1" height="2.7"/>
		
			<rect x="434.4" y="142.4" transform="matrix(0.9063 -0.4226 0.4226 0.9063 0.1419 288.1414)" class="st1" width="431.1" height="2.7"/>
		
			<rect x="431.9" y="138.2" transform="matrix(0.9063 -0.4226 0.4226 0.9063 1.6672 286.6893)" class="st1" width="431.1" height="2.7"/>
		
			<rect x="429.3" y="134.1" transform="matrix(0.9063 -0.4226 0.4226 0.9063 3.1924 285.2372)" class="st1" width="431.1" height="2.7"/>
		
			<rect x="426.8" y="129.9" transform="matrix(0.9063 -0.4226 0.4226 0.9063 4.7176 283.7851)" class="st1" width="431.1" height="2.7"/>
		
			<rect x="424.3" y="125.7" transform="matrix(0.9063 -0.4226 0.4226 0.9063 6.2428 282.333)" class="st1" width="431.1" height="2.7"/>
		
			<rect x="421.8" y="121.6" transform="matrix(0.9063 -0.4226 0.4226 0.9063 7.7681 280.8809)" class="st1" width="431.1" height="2.7"/>
		
			<rect x="419.3" y="117.4" transform="matrix(0.9063 -0.4226 0.4226 0.9063 9.2933 279.4288)" class="st1" width="431.1" height="2.7"/>
		
			<rect x="416.8" y="113.2" transform="matrix(0.9063 -0.4226 0.4226 0.9063 10.8185 277.9767)" class="st1" width="431.1" height="2.7"/>
		
			<rect x="414.3" y="109.1" transform="matrix(0.9063 -0.4226 0.4226 0.9063 12.3437 276.5246)" class="st1" width="431.1" height="2.7"/>
		
			<rect x="411.8" y="104.9" transform="matrix(0.9063 -0.4226 0.4226 0.9063 13.869 275.0725)" class="st1" width="431.1" height="2.7"/>
		
			<rect x="409.3" y="100.7" transform="matrix(0.9063 -0.4226 0.4226 0.9063 15.3942 273.6204)" class="st1" width="431.1" height="2.7"/>
		
			<rect x="406.7" y="96.6" transform="matrix(0.9063 -0.4226 0.4226 0.9063 16.9194 272.1683)" class="st1" width="431.1" height="2.7"/>
		
			<rect x="404.2" y="92.4" transform="matrix(0.9063 -0.4226 0.4226 0.9063 18.4446 270.7162)" class="st1" width="431.1" height="2.7"/>
		
			<rect x="401.7" y="88.2" transform="matrix(0.9063 -0.4226 0.4226 0.9063 19.9699 269.2641)" class="st1" width="431.1" height="2.7"/>
		
			<rect x="399.2" y="84.1" transform="matrix(0.9063 -0.4226 0.4226 0.9063 21.4951 267.812)" class="st1" width="431.1" height="2.7"/>
		
			<rect x="396.7" y="79.9" transform="matrix(0.9063 -0.4226 0.4226 0.9063 23.0203 266.3599)" class="st1" width="431.1" height="2.7"/>
		
			<rect x="394.2" y="75.8" transform="matrix(0.9063 -0.4226 0.4226 0.9063 24.5456 264.9078)" class="st1" width="431.1" height="2.7"/>
		
			<rect x="391.7" y="71.6" transform="matrix(0.9063 -0.4226 0.4226 0.9063 26.0708 263.4557)" class="st1" width="431.1" height="2.7"/>
		
			<rect x="389.2" y="67.4" transform="matrix(0.9063 -0.4226 0.4226 0.9063 27.596 262.0036)" class="st1" width="431.1" height="2.7"/>
		
			<rect x="386.6" y="63.3" transform="matrix(0.9063 -0.4226 0.4226 0.9063 29.1212 260.5515)" class="st1" width="431.1" height="2.7"/>
		
			<rect x="384.1" y="59.1" transform="matrix(0.9063 -0.4226 0.4226 0.9063 30.6465 259.0995)" class="st1" width="431.1" height="2.7"/>
		
			<rect x="381.6" y="54.9" transform="matrix(0.9063 -0.4226 0.4226 0.9063 32.1717 257.6473)" class="st1" width="431.1" height="2.7"/>
		
			<rect x="379.1" y="50.8" transform="matrix(0.9063 -0.4226 0.4226 0.9063 33.6969 256.1953)" class="st1" width="431.1" height="2.7"/>
		
			<rect x="376.6" y="46.6" transform="matrix(0.9063 -0.4226 0.4226 0.9063 35.2221 254.7432)" class="st1" width="431.1" height="2.7"/>
		
			<rect x="374.1" y="42.4" transform="matrix(0.9063 -0.4226 0.4226 0.9063 36.7474 253.2911)" class="st1" width="431.1" height="2.7"/>
		
			<rect x="371.6" y="38.3" transform="matrix(0.9063 -0.4226 0.4226 0.9063 38.2726 251.839)" class="st1" width="431.1" height="2.7"/>
		
			<rect x="369.1" y="34.1" transform="matrix(0.9063 -0.4226 0.4226 0.9063 39.7978 250.3869)" class="st1" width="431.1" height="2.7"/>
		
			<rect x="366.5" y="29.9" transform="matrix(0.9063 -0.4226 0.4226 0.9063 41.323 248.9348)" class="st1" width="431.1" height="2.7"/>
		
			<rect x="364" y="25.8" transform="matrix(0.9063 -0.4226 0.4226 0.9063 42.8483 247.4827)" class="st1" width="431.1" height="2.7"/>
		
			<rect x="361.5" y="21.6" transform="matrix(0.9063 -0.4226 0.4226 0.9063 44.3735 246.0306)" class="st1" width="431.1" height="2.7"/>
		
			<rect x="359" y="17.4" transform="matrix(0.9063 -0.4226 0.4226 0.9063 45.8987 244.5785)" class="st1" width="431.1" height="2.7"/>
		
			<rect x="356.5" y="13.3" transform="matrix(0.9063 -0.4226 0.4226 0.9063 47.4239 243.1264)" class="st1" width="431.1" height="2.7"/>
		
			<rect x="354" y="9.1" transform="matrix(0.9063 -0.4226 0.4226 0.9063 48.9492 241.6743)" class="st1" width="431.1" height="2.7"/>
		
			<rect x="351.5" y="4.9" transform="matrix(0.9063 -0.4226 0.4226 0.9063 50.4744 240.2222)" class="st1" width="431.1" height="2.7"/>
		
			<rect x="349" y="0.8" transform="matrix(0.9063 -0.4226 0.4226 0.9063 51.9996 238.7701)" class="st1" width="431.1" height="2.7"/>
		
			<rect x="346.4" y="-3.4" transform="matrix(0.9063 -0.4226 0.4226 0.9063 53.5249 237.318)" class="st1" width="431.1" height="2.7"/>
		
			<rect x="343.9" y="-7.6" transform="matrix(0.9063 -0.4226 0.4226 0.9063 55.0501 235.8659)" class="st1" width="431.1" height="2.7"/>
		
			<rect x="341.4" y="-11.7" transform="matrix(0.9063 -0.4226 0.4226 0.9063 56.5753 234.4138)" class="st1" width="431.1" height="2.7"/>
		
			<rect x="338.9" y="-15.9" transform="matrix(0.9063 -0.4226 0.4226 0.9063 58.1005 232.9617)" class="st1" width="431.1" height="2.7"/>
		
			<rect x="336.4" y="-20.1" transform="matrix(0.9063 -0.4226 0.4226 0.9063 59.6258 231.5096)" class="st1" width="431.1" height="2.7"/>
		
			<rect x="333.9" y="-24.2" transform="matrix(0.9063 -0.4226 0.4226 0.9063 61.151 230.0575)" class="st1" width="431.1" height="2.7"/>
		
			<rect x="331.4" y="-28.4" transform="matrix(0.9063 -0.4226 0.4226 0.9063 62.6762 228.6054)" class="st1" width="431.1" height="2.7"/>
		
			<rect x="328.9" y="-32.6" transform="matrix(0.9063 -0.4226 0.4226 0.9063 64.2014 227.1534)" class="st1" width="431.1" height="2.7"/>
	</g>
</g>
<g>
	<defs>
		<path id="SVGID_7_" d="M997.2,218.4c8.2-18.5,12.3-40.1,12.3-64.9v-12.3c-0.1-25.8-5.1-48.6-15-68.6
			c-9.9-19.9-23.7-35.3-41.5-46.1c-17.8-10.8-38.1-16.2-60.8-16.2c-23.1,0-43.5,5.5-61.4,16.4c-17.9,10.9-31.6,26.4-41.2,46.4
			c-9.6,20-14.5,43.2-14.5,69.6v14.2c0.4,25.5,5.5,48.1,15.4,67.8c9.9,19.6,23.7,34.7,41.3,45.3c17.7,10.6,37.9,15.8,60.8,15.8
			c5.4,0,10.8-0.4,16.2-1.1l57.6,46.4l40-33.9l-43.3-34.2C977.7,251.7,989,236.9,997.2,218.4z M943.8,154.6
			c-0.1,26-4.6,46-13.3,59.8c-8.8,13.9-21.4,20.8-37.8,20.8c-17.2,0-30.1-7-38.8-21.1c-8.7-14.1-13.1-34.3-13.1-60.7v-12.3
			c0.1-26.3,4.5-46.2,13.1-59.8c8.6-13.6,21.4-20.4,38.5-20.4c16.6,0,29.3,6.9,38.2,20.7c8.9,13.8,13.3,34,13.3,60.7V154.6z"/>
	</defs>
	<clipPath id="SVGID_8_">
		<use xlink:href="#SVGID_7_"  style="overflow:visible;"/>
	</clipPath>
	<g class="st4">
		
			<rect x="778.6" y="302.9" transform="matrix(0.9063 -0.4226 0.4226 0.9063 -35.456 448.649)" class="st1" width="431.1" height="2.7"/>
		
			<rect x="776.1" y="298.8" transform="matrix(0.9063 -0.4226 0.4226 0.9063 -33.9308 447.1969)" class="st1" width="431.1" height="2.7"/>
		
			<rect x="773.6" y="294.6" transform="matrix(0.9063 -0.4226 0.4226 0.9063 -32.4056 445.7448)" class="st1" width="431.1" height="2.7"/>
		
			<rect x="771" y="290.4" transform="matrix(0.9063 -0.4226 0.4226 0.9063 -30.8804 444.2927)" class="st1" width="431.1" height="2.7"/>
		
			<rect x="768.5" y="286.3" transform="matrix(0.9063 -0.4226 0.4226 0.9063 -29.3551 442.8406)" class="st1" width="431.1" height="2.7"/>
		
			<rect x="766" y="282.1" transform="matrix(0.9063 -0.4226 0.4226 0.9063 -27.8299 441.3885)" class="st1" width="431.1" height="2.7"/>
		
			<rect x="763.5" y="278" transform="matrix(0.9063 -0.4226 0.4226 0.9063 -26.3047 439.9364)" class="st1" width="431.1" height="2.7"/>
		
			<rect x="761" y="273.8" transform="matrix(0.9063 -0.4226 0.4226 0.9063 -24.7794 438.4843)" class="st1" width="431.1" height="2.7"/>
		
			<rect x="758.5" y="269.6" transform="matrix(0.9063 -0.4226 0.4226 0.9063 -23.2542 437.0322)" class="st1" width="431.1" height="2.7"/>
		
			<rect x="756" y="265.5" transform="matrix(0.9063 -0.4226 0.4226 0.9063 -21.729 435.5801)" class="st1" width="431.1" height="2.7"/>
		
			<rect x="753.5" y="261.3" transform="matrix(0.9063 -0.4226 0.4226 0.9063 -20.2038 434.1281)" class="st1" width="431.1" height="2.7"/>
		
			<rect x="750.9" y="257.1" transform="matrix(0.9063 -0.4226 0.4226 0.9063 -18.6785 432.6759)" class="st1" width="431.1" height="2.7"/>
		
			<rect x="748.4" y="253" transform="matrix(0.9063 -0.4226 0.4226 0.9063 -17.1533 431.2238)" class="st1" width="431.1" height="2.7"/>
		
			<rect x="745.9" y="248.8" transform="matrix(0.9063 -0.4226 0.4226 0.9063 -15.6281 429.7718)" class="st1" width="431.1" height="2.7"/>
		
			<rect x="743.4" y="244.6" transform="matrix(0.9063 -0.4226 0.4226 0.9063 -14.1029 428.3197)" class="st1" width="431.1" height="2.7"/>
		
			<rect x="740.9" y="240.5" transform="matrix(0.9063 -0.4226 0.4226 0.9063 -12.5776 426.8676)" class="st1" width="431.1" height="2.7"/>
		
			<rect x="738.4" y="236.3" transform="matrix(0.9063 -0.4226 0.4226 0.9063 -11.0524 425.4155)" class="st1" width="431.1" height="2.7"/>
		
			<rect x="735.9" y="232.1" transform="matrix(0.9063 -0.4226 0.4226 0.9063 -9.5272 423.9634)" class="st1" width="431.1" height="2.7"/>
		
			<rect x="733.4" y="228" transform="matrix(0.9063 -0.4226 0.4226 0.9063 -8.002 422.5113)" class="st1" width="431.1" height="2.7"/>
		
			<rect x="730.8" y="223.8" transform="matrix(0.9063 -0.4226 0.4226 0.9063 -6.4767 421.0592)" class="st1" width="431.1" height="2.7"/>
		
			<rect x="728.3" y="219.6" transform="matrix(0.9063 -0.4226 0.4226 0.9063 -4.9515 419.6071)" class="st1" width="431.1" height="2.7"/>
		
			<rect x="725.8" y="215.5" transform="matrix(0.9063 -0.4226 0.4226 0.9063 -3.4263 418.155)" class="st1" width="431.1" height="2.7"/>
		
			<rect x="723.3" y="211.3" transform="matrix(0.9063 -0.4226 0.4226 0.9063 -1.9011 416.7029)" class="st1" width="431.1" height="2.7"/>
		
			<rect x="720.8" y="207.1" transform="matrix(0.9063 -0.4226 0.4226 0.9063 -0.3758 415.2508)" class="st1" width="431.1" height="2.7"/>
		
			<rect x="718.3" y="203" transform="matrix(0.9063 -0.4226 0.4226 0.9063 1.1494 413.7987)" class="st1" width="431.1" height="2.7"/>
		
			<rect x="715.8" y="198.8" transform="matrix(0.9063 -0.4226 0.4226 0.9063 2.6746 412.3466)" class="st1" width="431.1" height="2.7"/>
		
			<rect x="713.3" y="194.6" transform="matrix(0.9063 -0.4226 0.4226 0.9063 4.1998 410.8945)" class="st1" width="431.1" height="2.7"/>
		
			<rect x="710.7" y="190.5" transform="matrix(0.9063 -0.4226 0.4226 0.9063 5.7251 409.4424)" class="st1" width="431.1" height="2.7"/>
		
			<rect x="708.2" y="186.3" transform="matrix(0.9063 -0.4226 0.4226 0.9063 7.2503 407.9903)" class="st1" width="431.1" height="2.7"/>
		
			<rect x="705.7" y="182.1" transform="matrix(0.9063 -0.4226 0.4226 0.9063 8.7755 406.5382)" class="st1" width="431.1" height="2.7"/>
		
			<rect x="703.2" y="178" transform="matrix(0.9063 -0.4226 0.4226 0.9063 10.3008 405.0861)" class="st1" width="431.1" height="2.7"/>
		
			<rect x="700.7" y="173.8" transform="matrix(0.9063 -0.4226 0.4226 0.9063 11.826 403.634)" class="st1" width="431.1" height="2.7"/>
		
			<rect x="698.2" y="169.6" transform="matrix(0.9063 -0.4226 0.4226 0.9063 13.3512 402.1819)" class="st1" width="431.1" height="2.7"/>
		
			<rect x="695.7" y="165.5" transform="matrix(0.9063 -0.4226 0.4226 0.9063 14.8764 400.7299)" class="st1" width="431.1" height="2.7"/>
		
			<rect x="693.2" y="161.3" transform="matrix(0.9063 -0.4226 0.4226 0.9063 16.4017 399.2777)" class="st1" width="431.1" height="2.7"/>
		
			<rect x="690.6" y="157.1" transform="matrix(0.9063 -0.4226 0.4226 0.9063 17.9269 397.8257)" class="st1" width="431.1" height="2.7"/>
		
			<rect x="688.1" y="153" transform="matrix(0.9063 -0.4226 0.4226 0.9063 19.4521 396.3736)" class="st1" width="431.1" height="2.7"/>
		
			<rect x="685.6" y="148.8" transform="matrix(0.9063 -0.4226 0.4226 0.9063 20.9773 394.9215)" class="st1" width="431.1" height="2.7"/>
		
			<rect x="683.1" y="144.6" transform="matrix(0.9063 -0.4226 0.4226 0.9063 22.5026 393.4694)" class="st1" width="431.1" height="2.7"/>
		
			<rect x="680.6" y="140.5" transform="matrix(0.9063 -0.4226 0.4226 0.9063 24.0278 392.0173)" class="st1" width="431.1" height="2.7"/>
		
			<rect x="678.1" y="136.3" transform="matrix(0.9063 -0.4226 0.4226 0.9063 25.553 390.5652)" class="st1" width="431.1" height="2.7"/>
		
			<rect x="675.6" y="132.1" transform="matrix(0.9063 -0.4226 0.4226 0.9063 27.0782 389.1131)" class="st1" width="431.1" height="2.7"/>
		
			<rect x="673.1" y="128" transform="matrix(0.9063 -0.4226 0.4226 0.9063 28.6035 387.661)" class="st1" width="431.1" height="2.7"/>
		
			<rect x="670.5" y="123.8" transform="matrix(0.9063 -0.4226 0.4226 0.9063 30.1287 386.2089)" class="st1" width="431.1" height="2.7"/>
		
			<rect x="668" y="119.6" transform="matrix(0.9063 -0.4226 0.4226 0.9063 31.6539 384.7568)" class="st1" width="431.1" height="2.7"/>
		
			<rect x="665.5" y="115.5" transform="matrix(0.9063 -0.4226 0.4226 0.9063 33.1791 383.3047)" class="st1" width="431.1" height="2.7"/>
		
			<rect x="663" y="111.3" transform="matrix(0.9063 -0.4226 0.4226 0.9063 34.7044 381.8526)" class="st1" width="431.1" height="2.7"/>
		
			<rect x="660.5" y="107.1" transform="matrix(0.9063 -0.4226 0.4226 0.9063 36.2296 380.4005)" class="st1" width="431.1" height="2.7"/>
		
			<rect x="658" y="103" transform="matrix(0.9063 -0.4226 0.4226 0.9063 37.7548 378.9484)" class="st1" width="431.1" height="2.7"/>
		
			<rect x="655.5" y="98.8" transform="matrix(0.9063 -0.4226 0.4226 0.9063 39.2801 377.4963)" class="st1" width="431.1" height="2.7"/>
		
			<rect x="653" y="94.6" transform="matrix(0.9063 -0.4226 0.4226 0.9063 40.8053 376.0442)" class="st1" width="431.1" height="2.7"/>
		
			<rect x="650.4" y="90.5" transform="matrix(0.9063 -0.4226 0.4226 0.9063 42.3305 374.5921)" class="st1" width="431.1" height="2.7"/>
		
			<rect x="647.9" y="86.3" transform="matrix(0.9063 -0.4226 0.4226 0.9063 43.8557 373.14)" class="st1" width="431.1" height="2.7"/>
		
			<rect x="645.4" y="82.1" transform="matrix(0.9063 -0.4226 0.4226 0.9063 45.381 371.6879)" class="st1" width="431.1" height="2.7"/>
		
			<rect x="642.9" y="78" transform="matrix(0.9063 -0.4226 0.4226 0.9063 46.9062 370.2358)" class="st1" width="431.1" height="2.7"/>
		
			<rect x="640.4" y="73.8" transform="matrix(0.9063 -0.4226 0.4226 0.9063 48.4314 368.7838)" class="st1" width="431.1" height="2.7"/>
		
			<rect x="637.9" y="69.7" transform="matrix(0.9063 -0.4226 0.4226 0.9063 49.9566 367.3317)" class="st1" width="431.1" height="2.7"/>
		
			<rect x="635.4" y="65.5" transform="matrix(0.9063 -0.4226 0.4226 0.9063 51.4819 365.8795)" class="st1" width="431.1" height="2.7"/>
		
			<rect x="632.9" y="61.3" transform="matrix(0.9063 -0.4226 0.4226 0.9063 53.0071 364.4275)" class="st1" width="431.1" height="2.7"/>
		
			<rect x="630.3" y="57.2" transform="matrix(0.9063 -0.4226 0.4226 0.9063 54.5323 362.9754)" class="st1" width="431.1" height="2.7"/>
		
			<rect x="627.8" y="53" transform="matrix(0.9063 -0.4226 0.4226 0.9063 56.0575 361.5233)" class="st1" width="431.1" height="2.7"/>
		
			<rect x="625.3" y="48.8" transform="matrix(0.9063 -0.4226 0.4226 0.9063 57.5828 360.0712)" class="st1" width="431.1" height="2.7"/>
		
			<rect x="622.8" y="44.7" transform="matrix(0.9063 -0.4226 0.4226 0.9063 59.108 358.6191)" class="st1" width="431.1" height="2.7"/>
		
			<rect x="620.3" y="40.5" transform="matrix(0.9063 -0.4226 0.4226 0.9063 60.6332 357.167)" class="st1" width="431.1" height="2.7"/>
		
			<rect x="617.8" y="36.3" transform="matrix(0.9063 -0.4226 0.4226 0.9063 62.1584 355.7149)" class="st1" width="431.1" height="2.7"/>
		
			<rect x="615.3" y="32.2" transform="matrix(0.9063 -0.4226 0.4226 0.9063 63.6837 354.2628)" class="st1" width="431.1" height="2.7"/>
		
			<rect x="612.8" y="28" transform="matrix(0.9063 -0.4226 0.4226 0.9063 65.2089 352.8107)" class="st1" width="431.1" height="2.7"/>
		
			<rect x="610.2" y="23.8" transform="matrix(0.9063 -0.4226 0.4226 0.9063 66.7341 351.3586)" class="st1" width="431.1" height="2.7"/>
		
			<rect x="607.7" y="19.7" transform="matrix(0.9063 -0.4226 0.4226 0.9063 68.2594 349.9065)" class="st1" width="431.1" height="2.7"/>
		
			<rect x="605.2" y="15.5" transform="matrix(0.9063 -0.4226 0.4226 0.9063 69.7846 348.4544)" class="st1" width="431.1" height="2.7"/>
		
			<rect x="602.7" y="11.3" transform="matrix(0.9063 -0.4226 0.4226 0.9063 71.3098 347.0023)" class="st1" width="431.1" height="2.7"/>
		
			<rect x="600.2" y="7.2" transform="matrix(0.9063 -0.4226 0.4226 0.9063 72.835 345.5502)" class="st1" width="431.1" height="2.7"/>
		
			<rect x="597.7" y="3" transform="matrix(0.9063 -0.4226 0.4226 0.9063 74.3603 344.0981)" class="st1" width="431.1" height="2.7"/>
		
			<rect x="595.2" y="-1.2" transform="matrix(0.9063 -0.4226 0.4226 0.9063 75.8855 342.646)" class="st1" width="431.1" height="2.7"/>
		
			<rect x="592.7" y="-5.3" transform="matrix(0.9063 -0.4226 0.4226 0.9063 77.4107 341.1939)" class="st1" width="431.1" height="2.7"/>
		
			<rect x="590.1" y="-9.5" transform="matrix(0.9063 -0.4226 0.4226 0.9063 78.9359 339.7419)" class="st1" width="431.1" height="2.7"/>
		
			<rect x="587.6" y="-13.7" transform="matrix(0.9063 -0.4226 0.4226 0.9063 80.4612 338.2897)" class="st1" width="431.1" height="2.7"/>
		
			<rect x="585.1" y="-17.8" transform="matrix(0.9063 -0.4226 0.4226 0.9063 81.9864 336.8376)" class="st1" width="431.1" height="2.7"/>
		
			<rect x="582.6" y="-22" transform="matrix(0.9063 -0.4226 0.4226 0.9063 83.5116 335.3856)" class="st1" width="431.1" height="2.7"/>
		
			<rect x="580.1" y="-26.2" transform="matrix(0.9063 -0.4226 0.4226 0.9063 85.0368 333.9335)" class="st1" width="431.1" height="2.7"/>
		
			<rect x="577.6" y="-30.3" transform="matrix(0.9063 -0.4226 0.4226 0.9063 86.5621 332.4814)" class="st1" width="431.1" height="2.7"/>
		
			<rect x="575.1" y="-34.5" transform="matrix(0.9063 -0.4226 0.4226 0.9063 88.0873 331.0293)" class="st1" width="431.1" height="2.7"/>
	</g>
</g>
<g>
	<defs>
		<path id="SVGID_9_" d="M1202.7,171c16.1-7.6,27.9-17.5,35.4-29.8s11.3-27.7,11.3-46.3c0-25.7-9-45.7-26.9-59.8
			C1204.7,21,1179.8,14,1148,14h-105.5V282h64.6v-94.8h35l47.3,94.8h69.2v-2.8L1202.7,171z M1175.7,127.8
			c-6.2,6.5-15.4,9.7-27.7,9.7h-40.9V63.7h40.9c12.2,0,21.4,3.3,27.6,9.9c6.3,6.6,9.4,15.7,9.4,27.2
			C1185,112.3,1181.9,121.4,1175.7,127.8z"/>
	</defs>
	<clipPath id="SVGID_10_">
		<use xlink:href="#SVGID_9_"  style="overflow:visible;"/>
	</clipPath>
	<g class="st5">
		
			<rect x="1007" y="310.7" transform="matrix(0.9063 -0.4226 0.4226 0.9063 -17.3451 545.9196)" class="st1" width="431.1" height="2.7"/>
		
			<rect x="1004.5" y="306.6" transform="matrix(0.9063 -0.4226 0.4226 0.9063 -15.8198 544.4675)" class="st1" width="431.1" height="2.7"/>
		
			<rect x="1002" y="302.4" transform="matrix(0.9063 -0.4226 0.4226 0.9063 -14.2946 543.0154)" class="st1" width="431.1" height="2.7"/>
		
			<rect x="999.5" y="298.2" transform="matrix(0.9063 -0.4226 0.4226 0.9063 -12.7694 541.5633)" class="st1" width="431.1" height="2.7"/>
		
			<rect x="997" y="294.1" transform="matrix(0.9063 -0.4226 0.4226 0.9063 -11.2442 540.1112)" class="st1" width="431.1" height="2.7"/>
		
			<rect x="994.4" y="289.9" transform="matrix(0.9063 -0.4226 0.4226 0.9063 -9.7189 538.6591)" class="st1" width="431.1" height="2.7"/>
		
			<rect x="991.9" y="285.7" transform="matrix(0.9063 -0.4226 0.4226 0.9063 -8.1937 537.207)" class="st1" width="431.1" height="2.7"/>
		
			<rect x="989.4" y="281.6" transform="matrix(0.9063 -0.4226 0.4226 0.9063 -6.6685 535.7549)" class="st1" width="431.1" height="2.7"/>
		
			<rect x="986.9" y="277.4" transform="matrix(0.9063 -0.4226 0.4226 0.9063 -5.1433 534.3028)" class="st1" width="431.1" height="2.7"/>
		
			<rect x="984.4" y="273.2" transform="matrix(0.9063 -0.4226 0.4226 0.9063 -3.618 532.8507)" class="st1" width="431.1" height="2.7"/>
		
			<rect x="981.9" y="269.1" transform="matrix(0.9063 -0.4226 0.4226 0.9063 -2.0928 531.3986)" class="st1" width="431.1" height="2.7"/>
		
			<rect x="979.4" y="264.9" transform="matrix(0.9063 -0.4226 0.4226 0.9063 -0.5676 529.9465)" class="st1" width="431.1" height="2.7"/>
		
			<rect x="976.9" y="260.7" transform="matrix(0.9063 -0.4226 0.4226 0.9063 0.9576 528.4944)" class="st1" width="431.1" height="2.7"/>
		
			<rect x="974.4" y="256.6" transform="matrix(0.9063 -0.4226 0.4226 0.9063 2.4829 527.0424)" class="st1" width="431.1" height="2.7"/>
		
			<rect x="971.8" y="252.4" transform="matrix(0.9063 -0.4226 0.4226 0.9063 4.0081 525.5903)" class="st1" width="431.1" height="2.7"/>
		
			<rect x="969.3" y="248.2" transform="matrix(0.9063 -0.4226 0.4226 0.9063 5.5333 524.1381)" class="st1" width="431.1" height="2.7"/>
		
			<rect x="966.8" y="244.1" transform="matrix(0.9063 -0.4226 0.4226 0.9063 7.0586 522.686)" class="st1" width="431.1" height="2.7"/>
		
			<rect x="964.3" y="239.9" transform="matrix(0.9063 -0.4226 0.4226 0.9063 8.5838 521.2339)" class="st1" width="431.1" height="2.7"/>
		
			<rect x="961.8" y="235.7" transform="matrix(0.9063 -0.4226 0.4226 0.9063 10.109 519.7819)" class="st1" width="431.1" height="2.7"/>
		
			<rect x="959.3" y="231.6" transform="matrix(0.9063 -0.4226 0.4226 0.9063 11.6342 518.3298)" class="st1" width="431.1" height="2.7"/>
		
			<rect x="956.8" y="227.4" transform="matrix(0.9063 -0.4226 0.4226 0.9063 13.1595 516.8777)" class="st1" width="431.1" height="2.7"/>
		
			<rect x="954.3" y="223.2" transform="matrix(0.9063 -0.4226 0.4226 0.9063 14.6847 515.4256)" class="st1" width="431.1" height="2.7"/>
		
			<rect x="951.7" y="219.1" transform="matrix(0.9063 -0.4226 0.4226 0.9063 16.2099 513.9734)" class="st1" width="431.1" height="2.7"/>
		
			<rect x="949.2" y="214.9" transform="matrix(0.9063 -0.4226 0.4226 0.9063 17.7351 512.5214)" class="st1" width="431.1" height="2.7"/>
		
			<rect x="946.7" y="210.8" transform="matrix(0.9063 -0.4226 0.4226 0.9063 19.2604 511.0693)" class="st1" width="431.1" height="2.7"/>
		
			<rect x="944.2" y="206.6" transform="matrix(0.9063 -0.4226 0.4226 0.9063 20.7856 509.6172)" class="st1" width="431.1" height="2.7"/>
		
			<rect x="941.7" y="202.4" transform="matrix(0.9063 -0.4226 0.4226 0.9063 22.3108 508.1651)" class="st1" width="431.1" height="2.7"/>
		
			<rect x="939.2" y="198.3" transform="matrix(0.9063 -0.4226 0.4226 0.9063 23.836 506.713)" class="st1" width="431.1" height="2.7"/>
		
			<rect x="936.7" y="194.1" transform="matrix(0.9063 -0.4226 0.4226 0.9063 25.3613 505.2609)" class="st1" width="431.1" height="2.7"/>
		
			<rect x="934.2" y="189.9" transform="matrix(0.9063 -0.4226 0.4226 0.9063 26.8865 503.8088)" class="st1" width="431.1" height="2.7"/>
		
			<rect x="931.6" y="185.8" transform="matrix(0.9063 -0.4226 0.4226 0.9063 28.4117 502.3567)" class="st1" width="431.1" height="2.7"/>
		
			<rect x="929.1" y="181.6" transform="matrix(0.9063 -0.4226 0.4226 0.9063 29.9369 500.9046)" class="st1" width="431.1" height="2.7"/>
		
			<rect x="926.6" y="177.4" transform="matrix(0.9063 -0.4226 0.4226 0.9063 31.4622 499.4525)" class="st1" width="431.1" height="2.7"/>
		
			<rect x="924.1" y="173.3" transform="matrix(0.9063 -0.4226 0.4226 0.9063 32.9874 498.0004)" class="st1" width="431.1" height="2.7"/>
		
			<rect x="921.6" y="169.1" transform="matrix(0.9063 -0.4226 0.4226 0.9063 34.5126 496.5483)" class="st1" width="431.1" height="2.7"/>
		
			<rect x="919.1" y="164.9" transform="matrix(0.9063 -0.4226 0.4226 0.9063 36.0379 495.0963)" class="st1" width="431.1" height="2.7"/>
		
			<rect x="916.6" y="160.8" transform="matrix(0.9063 -0.4226 0.4226 0.9063 37.5631 493.6441)" class="st1" width="431.1" height="2.7"/>
		
			<rect x="914.1" y="156.6" transform="matrix(0.9063 -0.4226 0.4226 0.9063 39.0883 492.192)" class="st1" width="431.1" height="2.7"/>
		
			<rect x="911.5" y="152.4" transform="matrix(0.9063 -0.4226 0.4226 0.9063 40.6135 490.74)" class="st1" width="431.1" height="2.7"/>
		
			<rect x="909" y="148.3" transform="matrix(0.9063 -0.4226 0.4226 0.9063 42.1388 489.2879)" class="st1" width="431.1" height="2.7"/>
		
			<rect x="906.5" y="144.1" transform="matrix(0.9063 -0.4226 0.4226 0.9063 43.664 487.8358)" class="st1" width="431.1" height="2.7"/>
		
			<rect x="904" y="139.9" transform="matrix(0.9063 -0.4226 0.4226 0.9063 45.1892 486.3837)" class="st1" width="431.1" height="2.7"/>
		
			<rect x="901.5" y="135.8" transform="matrix(0.9063 -0.4226 0.4226 0.9063 46.7144 484.9316)" class="st1" width="431.1" height="2.7"/>
		
			<rect x="899" y="131.6" transform="matrix(0.9063 -0.4226 0.4226 0.9063 48.2397 483.4795)" class="st1" width="431.1" height="2.7"/>
		
			<rect x="896.5" y="127.4" transform="matrix(0.9063 -0.4226 0.4226 0.9063 49.7649 482.0274)" class="st1" width="431.1" height="2.7"/>
		
			<rect x="894" y="123.3" transform="matrix(0.9063 -0.4226 0.4226 0.9063 51.2901 480.5753)" class="st1" width="431.1" height="2.7"/>
		
			<rect x="891.4" y="119.1" transform="matrix(0.9063 -0.4226 0.4226 0.9063 52.8153 479.1232)" class="st1" width="431.1" height="2.7"/>
		
			<rect x="888.9" y="114.9" transform="matrix(0.9063 -0.4226 0.4226 0.9063 54.3406 477.6711)" class="st1" width="431.1" height="2.7"/>
		
			<rect x="886.4" y="110.8" transform="matrix(0.9063 -0.4226 0.4226 0.9063 55.8658 476.219)" class="st1" width="431.1" height="2.7"/>
		
			<rect x="883.9" y="106.6" transform="matrix(0.9063 -0.4226 0.4226 0.9063 57.391 474.7669)" class="st1" width="431.1" height="2.7"/>
		
			<rect x="881.4" y="102.4" transform="matrix(0.9063 -0.4226 0.4226 0.9063 58.9162 473.3148)" class="st1" width="431.1" height="2.7"/>
		
			<rect x="878.9" y="98.3" transform="matrix(0.9063 -0.4226 0.4226 0.9063 60.4415 471.8627)" class="st1" width="431.1" height="2.7"/>
		
			<rect x="876.4" y="94.1" transform="matrix(0.9063 -0.4226 0.4226 0.9063 61.9667 470.4106)" class="st1" width="431.1" height="2.7"/>
		
			<rect x="873.9" y="89.9" transform="matrix(0.9063 -0.4226 0.4226 0.9063 63.4919 468.9585)" class="st1" width="431.1" height="2.7"/>
		
			<rect x="871.3" y="85.8" transform="matrix(0.9063 -0.4226 0.4226 0.9063 65.0172 467.5064)" class="st1" width="431.1" height="2.7"/>
		
			<rect x="868.8" y="81.6" transform="matrix(0.9063 -0.4226 0.4226 0.9063 66.5424 466.0543)" class="st1" width="431.1" height="2.7"/>
		
			<rect x="866.3" y="77.4" transform="matrix(0.9063 -0.4226 0.4226 0.9063 68.0676 464.6022)" class="st1" width="431.1" height="2.7"/>
		
			<rect x="863.8" y="73.3" transform="matrix(0.9063 -0.4226 0.4226 0.9063 69.5928 463.1501)" class="st1" width="431.1" height="2.7"/>
		
			<rect x="861.3" y="69.1" transform="matrix(0.9063 -0.4226 0.4226 0.9063 71.1181 461.698)" class="st1" width="431.1" height="2.7"/>
		
			<rect x="858.8" y="64.9" transform="matrix(0.9063 -0.4226 0.4226 0.9063 72.6433 460.2459)" class="st1" width="431.1" height="2.7"/>
		
			<rect x="856.3" y="60.8" transform="matrix(0.9063 -0.4226 0.4226 0.9063 74.1685 458.7939)" class="st1" width="431.1" height="2.7"/>
		
			<rect x="853.8" y="56.6" transform="matrix(0.9063 -0.4226 0.4226 0.9063 75.6937 457.3418)" class="st1" width="431.1" height="2.7"/>
		
			<rect x="851.2" y="52.4" transform="matrix(0.9063 -0.4226 0.4226 0.9063 77.219 455.8896)" class="st1" width="431.1" height="2.7"/>
		
			<rect x="848.7" y="48.3" transform="matrix(0.9063 -0.4226 0.4226 0.9063 78.7442 454.4376)" class="st1" width="431.1" height="2.7"/>
		
			<rect x="846.2" y="44.1" transform="matrix(0.9063 -0.4226 0.4226 0.9063 80.2694 452.9855)" class="st1" width="431.1" height="2.7"/>
		
			<rect x="843.7" y="39.9" transform="matrix(0.9063 -0.4226 0.4226 0.9063 81.7946 451.5334)" class="st1" width="431.1" height="2.7"/>
		
			<rect x="841.2" y="35.8" transform="matrix(0.9063 -0.4226 0.4226 0.9063 83.3199 450.0813)" class="st1" width="431.1" height="2.7"/>
		
			<rect x="838.7" y="31.6" transform="matrix(0.9063 -0.4226 0.4226 0.9063 84.8451 448.6292)" class="st1" width="431.1" height="2.7"/>
		
			<rect x="836.2" y="27.4" transform="matrix(0.9063 -0.4226 0.4226 0.9063 86.3703 447.1771)" class="st1" width="431.1" height="2.7"/>
		
			<rect x="833.7" y="23.3" transform="matrix(0.9063 -0.4226 0.4226 0.9063 87.8955 445.725)" class="st1" width="431.1" height="2.7"/>
		
			<rect x="831.1" y="19.1" transform="matrix(0.9063 -0.4226 0.4226 0.9063 89.4208 444.2729)" class="st1" width="431.1" height="2.7"/>
		
			<rect x="828.6" y="15" transform="matrix(0.9063 -0.4226 0.4226 0.9063 90.946 442.8208)" class="st1" width="431.1" height="2.7"/>
		
			<rect x="826.1" y="10.8" transform="matrix(0.9063 -0.4226 0.4226 0.9063 92.4712 441.3687)" class="st1" width="431.1" height="2.7"/>
		
			<rect x="823.6" y="6.6" transform="matrix(0.9063 -0.4226 0.4226 0.9063 93.9965 439.9166)" class="st1" width="431.1" height="2.7"/>
		
			<rect x="821.1" y="2.5" transform="matrix(0.9063 -0.4226 0.4226 0.9063 95.5217 438.4645)" class="st1" width="431.1" height="2.7"/>
		
			<rect x="818.6" y="-1.7" transform="matrix(0.9063 -0.4226 0.4226 0.9063 97.0469 437.0124)" class="st1" width="431.1" height="2.7"/>
		
			<rect x="816.1" y="-5.9" transform="matrix(0.9063 -0.4226 0.4226 0.9063 98.5721 435.5603)" class="st1" width="431.1" height="2.7"/>
		
			<rect x="813.6" y="-10" transform="matrix(0.9063 -0.4226 0.4226 0.9063 100.0974 434.1082)" class="st1" width="431.1" height="2.7"/>
		
			<rect x="811" y="-14.2" transform="matrix(0.9063 -0.4226 0.4226 0.9063 101.6226 432.6561)" class="st1" width="431.1" height="2.7"/>
		
			<rect x="808.5" y="-18.4" transform="matrix(0.9063 -0.4226 0.4226 0.9063 103.1478 431.204)" class="st1" width="431.1" height="2.7"/>
		
			<rect x="806" y="-22.5" transform="matrix(0.9063 -0.4226 0.4226 0.9063 104.673 429.752)" class="st1" width="431.1" height="2.7"/>
		
			<rect x="803.5" y="-26.7" transform="matrix(0.9063 -0.4226 0.4226 0.9063 106.1983 428.2998)" class="st1" width="431.1" height="2.7"/>
	</g>
</g>
<g>
	<defs>
		<path id="SVGID_11_" d="M1426.8,14H1366L1267.7,282h69l15.5-50.1h88.6l15.7,50.1h69.4L1426.8,14z M1367.7,182.1l28.7-93l28.9,93
			H1367.7z"/>
	</defs>
	<clipPath id="SVGID_12_">
		<use xlink:href="#SVGID_11_"  style="overflow:visible;"/>
	</clipPath>
	<g class="st6">
		
			<rect x="1283" y="315.5" transform="matrix(0.9063 -0.4226 0.4226 0.9063 6.5106 662.9883)" class="st1" width="431.1" height="2.7"/>
		
			<rect x="1280.5" y="311.3" transform="matrix(0.9063 -0.4226 0.4226 0.9063 8.0358 661.5363)" class="st1" width="431.1" height="2.7"/>
		
			<rect x="1277.9" y="307.1" transform="matrix(0.9063 -0.4226 0.4226 0.9063 9.5611 660.0842)" class="st1" width="431.1" height="2.7"/>
		
			<rect x="1275.4" y="303" transform="matrix(0.9063 -0.4226 0.4226 0.9063 11.0863 658.6321)" class="st1" width="431.1" height="2.7"/>
		
			<rect x="1272.9" y="298.8" transform="matrix(0.9063 -0.4226 0.4226 0.9063 12.6115 657.18)" class="st1" width="431.1" height="2.7"/>
		
			<rect x="1270.4" y="294.6" transform="matrix(0.9063 -0.4226 0.4226 0.9063 14.1368 655.7279)" class="st1" width="431.1" height="2.7"/>
		
			<rect x="1267.9" y="290.5" transform="matrix(0.9063 -0.4226 0.4226 0.9063 15.662 654.2758)" class="st1" width="431.1" height="2.7"/>
		
			<rect x="1265.4" y="286.3" transform="matrix(0.9063 -0.4226 0.4226 0.9063 17.1872 652.8237)" class="st1" width="431.1" height="2.7"/>
		
			<rect x="1262.9" y="282.1" transform="matrix(0.9063 -0.4226 0.4226 0.9063 18.7124 651.3716)" class="st1" width="431.1" height="2.7"/>
		
			<rect x="1260.4" y="278" transform="matrix(0.9063 -0.4226 0.4226 0.9063 20.2377 649.9195)" class="st1" width="431.1" height="2.7"/>
		
			<rect x="1257.8" y="273.8" transform="matrix(0.9063 -0.4226 0.4226 0.9063 21.7629 648.4674)" class="st1" width="431.1" height="2.7"/>
		
			<rect x="1255.3" y="269.6" transform="matrix(0.9063 -0.4226 0.4226 0.9063 23.2881 647.0153)" class="st1" width="431.1" height="2.7"/>
		
			<rect x="1252.8" y="265.5" transform="matrix(0.9063 -0.4226 0.4226 0.9063 24.8133 645.5632)" class="st1" width="431.1" height="2.7"/>
		
			<rect x="1250.3" y="261.3" transform="matrix(0.9063 -0.4226 0.4226 0.9063 26.3386 644.1111)" class="st1" width="431.1" height="2.7"/>
		
			<rect x="1247.8" y="257.1" transform="matrix(0.9063 -0.4226 0.4226 0.9063 27.8638 642.6591)" class="st1" width="431.1" height="2.7"/>
		
			<rect x="1245.3" y="253" transform="matrix(0.9063 -0.4226 0.4226 0.9063 29.389 641.2069)" class="st1" width="431.1" height="2.7"/>
		
			<rect x="1242.8" y="248.8" transform="matrix(0.9063 -0.4226 0.4226 0.9063 30.9142 639.7548)" class="st1" width="431.1" height="2.7"/>
		
			<rect x="1240.3" y="244.6" transform="matrix(0.9063 -0.4226 0.4226 0.9063 32.4395 638.3027)" class="st1" width="431.1" height="2.7"/>
		
			<rect x="1237.7" y="240.5" transform="matrix(0.9063 -0.4226 0.4226 0.9063 33.9647 636.8506)" class="st1" width="431.1" height="2.7"/>
		
			<rect x="1235.2" y="236.3" transform="matrix(0.9063 -0.4226 0.4226 0.9063 35.4899 635.3986)" class="st1" width="431.1" height="2.7"/>
		
			<rect x="1232.7" y="232.1" transform="matrix(0.9063 -0.4226 0.4226 0.9063 37.0151 633.9465)" class="st1" width="431.1" height="2.7"/>
		
			<rect x="1230.2" y="228" transform="matrix(0.9063 -0.4226 0.4226 0.9063 38.5404 632.4944)" class="st1" width="431.1" height="2.7"/>
		
			<rect x="1227.7" y="223.8" transform="matrix(0.9063 -0.4226 0.4226 0.9063 40.0656 631.0423)" class="st1" width="431.1" height="2.7"/>
		
			<rect x="1225.2" y="219.6" transform="matrix(0.9063 -0.4226 0.4226 0.9063 41.5908 629.5901)" class="st1" width="431.1" height="2.7"/>
		
			<rect x="1222.7" y="215.5" transform="matrix(0.9063 -0.4226 0.4226 0.9063 43.116 628.1381)" class="st1" width="431.1" height="2.7"/>
		
			<rect x="1220.2" y="211.3" transform="matrix(0.9063 -0.4226 0.4226 0.9063 44.6413 626.686)" class="st1" width="431.1" height="2.7"/>
		
			<rect x="1217.6" y="207.2" transform="matrix(0.9063 -0.4226 0.4226 0.9063 46.1665 625.2339)" class="st1" width="431.1" height="2.7"/>
		
			<rect x="1215.1" y="203" transform="matrix(0.9063 -0.4226 0.4226 0.9063 47.6917 623.7818)" class="st1" width="431.1" height="2.7"/>
		
			<rect x="1212.6" y="198.8" transform="matrix(0.9063 -0.4226 0.4226 0.9063 49.217 622.3297)" class="st1" width="431.1" height="2.7"/>
		
			<rect x="1210.1" y="194.7" transform="matrix(0.9063 -0.4226 0.4226 0.9063 50.7422 620.8776)" class="st1" width="431.1" height="2.7"/>
		
			<rect x="1207.6" y="190.5" transform="matrix(0.9063 -0.4226 0.4226 0.9063 52.2674 619.4255)" class="st1" width="431.1" height="2.7"/>
		
			<rect x="1205.1" y="186.3" transform="matrix(0.9063 -0.4226 0.4226 0.9063 53.7926 617.9734)" class="st1" width="431.1" height="2.7"/>
		
			<rect x="1202.6" y="182.2" transform="matrix(0.9063 -0.4226 0.4226 0.9063 55.3179 616.5213)" class="st1" width="431.1" height="2.7"/>
		
			<rect x="1200.1" y="178" transform="matrix(0.9063 -0.4226 0.4226 0.9063 56.8431 615.0692)" class="st1" width="431.1" height="2.7"/>
		
			<rect x="1197.6" y="173.8" transform="matrix(0.9063 -0.4226 0.4226 0.9063 58.3683 613.6171)" class="st1" width="431.1" height="2.7"/>
		
			<rect x="1195" y="169.7" transform="matrix(0.9063 -0.4226 0.4226 0.9063 59.8935 612.165)" class="st1" width="431.1" height="2.7"/>
		
			<rect x="1192.5" y="165.5" transform="matrix(0.9063 -0.4226 0.4226 0.9063 61.4188 610.713)" class="st1" width="431.1" height="2.7"/>
		
			<rect x="1190" y="161.3" transform="matrix(0.9063 -0.4226 0.4226 0.9063 62.944 609.2609)" class="st1" width="431.1" height="2.7"/>
		
			<rect x="1187.5" y="157.2" transform="matrix(0.9063 -0.4226 0.4226 0.9063 64.4692 607.8087)" class="st1" width="431.1" height="2.7"/>
		
			<rect x="1185" y="153" transform="matrix(0.9063 -0.4226 0.4226 0.9063 65.9944 606.3566)" class="st1" width="431.1" height="2.7"/>
		
			<rect x="1182.5" y="148.8" transform="matrix(0.9063 -0.4226 0.4226 0.9063 67.5197 604.9045)" class="st1" width="431.1" height="2.7"/>
		
			<rect x="1180" y="144.7" transform="matrix(0.9063 -0.4226 0.4226 0.9063 69.0449 603.4525)" class="st1" width="431.1" height="2.7"/>
		
			<rect x="1177.5" y="140.5" transform="matrix(0.9063 -0.4226 0.4226 0.9063 70.5701 602.0004)" class="st1" width="431.1" height="2.7"/>
		
			<rect x="1174.9" y="136.3" transform="matrix(0.9063 -0.4226 0.4226 0.9063 72.0953 600.5483)" class="st1" width="431.1" height="2.7"/>
		
			<rect x="1172.4" y="132.2" transform="matrix(0.9063 -0.4226 0.4226 0.9063 73.6206 599.0962)" class="st1" width="431.1" height="2.7"/>
		
			<rect x="1169.9" y="128" transform="matrix(0.9063 -0.4226 0.4226 0.9063 75.1458 597.644)" class="st1" width="431.1" height="2.7"/>
		
			<rect x="1167.4" y="123.8" transform="matrix(0.9063 -0.4226 0.4226 0.9063 76.671 596.192)" class="st1" width="431.1" height="2.7"/>
		
			<rect x="1164.9" y="119.7" transform="matrix(0.9063 -0.4226 0.4226 0.9063 78.1963 594.7399)" class="st1" width="431.1" height="2.7"/>
		
			<rect x="1162.4" y="115.5" transform="matrix(0.9063 -0.4226 0.4226 0.9063 79.7215 593.2878)" class="st1" width="431.1" height="2.7"/>
		
			<rect x="1159.9" y="111.3" transform="matrix(0.9063 -0.4226 0.4226 0.9063 81.2467 591.8357)" class="st1" width="431.1" height="2.7"/>
		
			<rect x="1157.4" y="107.2" transform="matrix(0.9063 -0.4226 0.4226 0.9063 82.7719 590.3836)" class="st1" width="431.1" height="2.7"/>
		
			<rect x="1154.8" y="103" transform="matrix(0.9063 -0.4226 0.4226 0.9063 84.2972 588.9315)" class="st1" width="431.1" height="2.7"/>
		
			<rect x="1152.3" y="98.8" transform="matrix(0.9063 -0.4226 0.4226 0.9063 85.8224 587.4794)" class="st1" width="431.1" height="2.7"/>
		
			<rect x="1149.8" y="94.7" transform="matrix(0.9063 -0.4226 0.4226 0.9063 87.3476 586.0273)" class="st1" width="431.1" height="2.7"/>
		
			<rect x="1147.3" y="90.5" transform="matrix(0.9063 -0.4226 0.4226 0.9063 88.8728 584.5752)" class="st1" width="431.1" height="2.7"/>
		
			<rect x="1144.8" y="86.3" transform="matrix(0.9063 -0.4226 0.4226 0.9063 90.3981 583.1231)" class="st1" width="431.1" height="2.7"/>
		
			<rect x="1142.3" y="82.2" transform="matrix(0.9063 -0.4226 0.4226 0.9063 91.9233 581.671)" class="st1" width="431.1" height="2.7"/>
		
			<rect x="1139.8" y="78" transform="matrix(0.9063 -0.4226 0.4226 0.9063 93.4485 580.2189)" class="st1" width="431.1" height="2.7"/>
		
			<rect x="1137.3" y="73.8" transform="matrix(0.9063 -0.4226 0.4226 0.9063 94.9737 578.7668)" class="st1" width="431.1" height="2.7"/>
		
			<rect x="1134.7" y="69.7" transform="matrix(0.9063 -0.4226 0.4226 0.9063 96.499 577.3148)" class="st1" width="431.1" height="2.7"/>
		
			<rect x="1132.2" y="65.5" transform="matrix(0.9063 -0.4226 0.4226 0.9063 98.0242 575.8626)" class="st1" width="431.1" height="2.7"/>
		
			<rect x="1129.7" y="61.3" transform="matrix(0.9063 -0.4226 0.4226 0.9063 99.5494 574.4105)" class="st1" width="431.1" height="2.7"/>
		
			<rect x="1127.2" y="57.2" transform="matrix(0.9063 -0.4226 0.4226 0.9063 101.0746 572.9584)" class="st1" width="431.1" height="2.7"/>
		
			<rect x="1124.7" y="53" transform="matrix(0.9063 -0.4226 0.4226 0.9063 102.5999 571.5063)" class="st1" width="431.1" height="2.7"/>
		
			<rect x="1122.2" y="48.8" transform="matrix(0.9063 -0.4226 0.4226 0.9063 104.1251 570.0543)" class="st1" width="431.1" height="2.7"/>
		
			<rect x="1119.7" y="44.7" transform="matrix(0.9063 -0.4226 0.4226 0.9063 105.6503 568.6022)" class="st1" width="431.1" height="2.7"/>
		
			<rect x="1117.2" y="40.5" transform="matrix(0.9063 -0.4226 0.4226 0.9063 107.1756 567.1501)" class="st1" width="431.1" height="2.7"/>
		
			<rect x="1114.6" y="36.3" transform="matrix(0.9063 -0.4226 0.4226 0.9063 108.7008 565.698)" class="st1" width="431.1" height="2.7"/>
		
			<rect x="1112.1" y="32.2" transform="matrix(0.9063 -0.4226 0.4226 0.9063 110.226 564.2458)" class="st1" width="431.1" height="2.7"/>
		
			<rect x="1109.6" y="28" transform="matrix(0.9063 -0.4226 0.4226 0.9063 111.7512 562.7938)" class="st1" width="431.1" height="2.7"/>
		
			<rect x="1107.1" y="23.8" transform="matrix(0.9063 -0.4226 0.4226 0.9063 113.2765 561.3417)" class="st1" width="431.1" height="2.7"/>
		
			<rect x="1104.6" y="19.7" transform="matrix(0.9063 -0.4226 0.4226 0.9063 114.8017 559.8896)" class="st1" width="431.1" height="2.7"/>
		
			<rect x="1102.1" y="15.5" transform="matrix(0.9063 -0.4226 0.4226 0.9063 116.3269 558.4375)" class="st1" width="431.1" height="2.7"/>
		
			<rect x="1099.6" y="11.3" transform="matrix(0.9063 -0.4226 0.4226 0.9063 117.8521 556.9854)" class="st1" width="431.1" height="2.7"/>
		
			<rect x="1097.1" y="7.2" transform="matrix(0.9063 -0.4226 0.4226 0.9063 119.3774 555.5333)" class="st1" width="431.1" height="2.7"/>
		
			<rect x="1094.5" y="3" transform="matrix(0.9063 -0.4226 0.4226 0.9063 120.9026 554.0812)" class="st1" width="431.1" height="2.7"/>
		
			<rect x="1092" y="-1.1" transform="matrix(0.9063 -0.4226 0.4226 0.9063 122.4278 552.6291)" class="st1" width="431.1" height="2.7"/>
		
			<rect x="1089.5" y="-5.3" transform="matrix(0.9063 -0.4226 0.4226 0.9063 123.953 551.177)" class="st1" width="431.1" height="2.7"/>
		
			<rect x="1087" y="-9.5" transform="matrix(0.9063 -0.4226 0.4226 0.9063 125.4783 549.7249)" class="st1" width="431.1" height="2.7"/>
		
			<rect x="1084.5" y="-13.6" transform="matrix(0.9063 -0.4226 0.4226 0.9063 127.0035 548.2728)" class="st1" width="431.1" height="2.7"/>
		
			<rect x="1082" y="-17.8" transform="matrix(0.9063 -0.4226 0.4226 0.9063 128.5287 546.8207)" class="st1" width="431.1" height="2.7"/>
		
			<rect x="1079.5" y="-22" transform="matrix(0.9063 -0.4226 0.4226 0.9063 130.0539 545.3687)" class="st1" width="431.1" height="2.7"/>
	</g>
</g>
<g>
	<defs>
		<polygon id="SVGID_13_" points="1509.6,14 1509.6,63.9 1588.6,63.9 1588.6,282 1653.3,282 1653.3,63.9 1733.7,63.9 1733.7,14 		
			"/>
	</defs>
	<clipPath id="SVGID_14_">
		<use xlink:href="#SVGID_13_"  style="overflow:visible;"/>
	</clipPath>
	<g class="st7">
		
			<rect x="1514.6" y="282.4" transform="matrix(0.9063 -0.4226 0.4226 0.9063 42.1614 757.7646)" class="st1" width="431.1" height="2.7"/>
		
			<rect x="1512" y="278.3" transform="matrix(0.9063 -0.4226 0.4226 0.9063 43.6867 756.3126)" class="st1" width="431.1" height="2.7"/>
		
			<rect x="1509.5" y="274.1" transform="matrix(0.9063 -0.4226 0.4226 0.9063 45.2119 754.8604)" class="st1" width="431.1" height="2.7"/>
		
			<rect x="1507" y="270" transform="matrix(0.9063 -0.4226 0.4226 0.9063 46.7371 753.4083)" class="st1" width="431.1" height="2.7"/>
		
			<rect x="1504.5" y="265.8" transform="matrix(0.9063 -0.4226 0.4226 0.9063 48.2623 751.9562)" class="st1" width="431.1" height="2.7"/>
		
			<rect x="1502" y="261.6" transform="matrix(0.9063 -0.4226 0.4226 0.9063 49.7876 750.5042)" class="st1" width="431.1" height="2.7"/>
		
			<rect x="1499.5" y="257.5" transform="matrix(0.9063 -0.4226 0.4226 0.9063 51.3128 749.0521)" class="st1" width="431.1" height="2.7"/>
		
			<rect x="1497" y="253.3" transform="matrix(0.9063 -0.4226 0.4226 0.9063 52.838 747.6)" class="st1" width="431.1" height="2.7"/>
		
			<rect x="1494.5" y="249.1" transform="matrix(0.9063 -0.4226 0.4226 0.9063 54.3632 746.1479)" class="st1" width="431.1" height="2.7"/>
		
			<rect x="1491.9" y="245" transform="matrix(0.9063 -0.4226 0.4226 0.9063 55.8885 744.6957)" class="st1" width="431.1" height="2.7"/>
		
			<rect x="1489.4" y="240.8" transform="matrix(0.9063 -0.4226 0.4226 0.9063 57.4137 743.2437)" class="st1" width="431.1" height="2.7"/>
		
			<rect x="1486.9" y="236.6" transform="matrix(0.9063 -0.4226 0.4226 0.9063 58.9389 741.7916)" class="st1" width="431.1" height="2.7"/>
		
			<rect x="1484.4" y="232.5" transform="matrix(0.9063 -0.4226 0.4226 0.9063 60.4641 740.3395)" class="st1" width="431.1" height="2.7"/>
		
			<rect x="1481.9" y="228.3" transform="matrix(0.9063 -0.4226 0.4226 0.9063 61.9894 738.8874)" class="st1" width="431.1" height="2.7"/>
		
			<rect x="1479.4" y="224.1" transform="matrix(0.9063 -0.4226 0.4226 0.9063 63.5146 737.4353)" class="st1" width="431.1" height="2.7"/>
		
			<rect x="1476.9" y="220" transform="matrix(0.9063 -0.4226 0.4226 0.9063 65.0398 735.9832)" class="st1" width="431.1" height="2.7"/>
		
			<rect x="1474.4" y="215.8" transform="matrix(0.9063 -0.4226 0.4226 0.9063 66.5651 734.5311)" class="st1" width="431.1" height="2.7"/>
		
			<rect x="1471.8" y="211.6" transform="matrix(0.9063 -0.4226 0.4226 0.9063 68.0903 733.079)" class="st1" width="431.1" height="2.7"/>
		
			<rect x="1469.3" y="207.5" transform="matrix(0.9063 -0.4226 0.4226 0.9063 69.6155 731.6269)" class="st1" width="431.1" height="2.7"/>
		
			<rect x="1466.8" y="203.3" transform="matrix(0.9063 -0.4226 0.4226 0.9063 71.1407 730.1748)" class="st1" width="431.1" height="2.7"/>
		
			<rect x="1464.3" y="199.1" transform="matrix(0.9063 -0.4226 0.4226 0.9063 72.666 728.7227)" class="st1" width="431.1" height="2.7"/>
		
			<rect x="1461.8" y="195" transform="matrix(0.9063 -0.4226 0.4226 0.9063 74.1912 727.2706)" class="st1" width="431.1" height="2.7"/>
		
			<rect x="1459.3" y="190.8" transform="matrix(0.9063 -0.4226 0.4226 0.9063 75.7164 725.8185)" class="st1" width="431.1" height="2.7"/>
		
			<rect x="1456.8" y="186.6" transform="matrix(0.9063 -0.4226 0.4226 0.9063 77.2416 724.3665)" class="st1" width="431.1" height="2.7"/>
		
			<rect x="1454.3" y="182.5" transform="matrix(0.9063 -0.4226 0.4226 0.9063 78.7669 722.9143)" class="st1" width="431.1" height="2.7"/>
		
			<rect x="1451.7" y="178.3" transform="matrix(0.9063 -0.4226 0.4226 0.9063 80.2921 721.4622)" class="st1" width="431.1" height="2.7"/>
		
			<rect x="1449.2" y="174.1" transform="matrix(0.9063 -0.4226 0.4226 0.9063 81.8173 720.0101)" class="st1" width="431.1" height="2.7"/>
		
			<rect x="1446.7" y="170" transform="matrix(0.9063 -0.4226 0.4226 0.9063 83.3425 718.558)" class="st1" width="431.1" height="2.7"/>
		
			<rect x="1444.2" y="165.8" transform="matrix(0.9063 -0.4226 0.4226 0.9063 84.8678 717.106)" class="st1" width="431.1" height="2.7"/>
		
			<rect x="1441.7" y="161.6" transform="matrix(0.9063 -0.4226 0.4226 0.9063 86.393 715.6539)" class="st1" width="431.1" height="2.7"/>
		
			<rect x="1439.2" y="157.5" transform="matrix(0.9063 -0.4226 0.4226 0.9063 87.9182 714.2018)" class="st1" width="431.1" height="2.7"/>
		
			<rect x="1436.7" y="153.3" transform="matrix(0.9063 -0.4226 0.4226 0.9063 89.4435 712.7497)" class="st1" width="431.1" height="2.7"/>
		
			<rect x="1434.2" y="149.1" transform="matrix(0.9063 -0.4226 0.4226 0.9063 90.9687 711.2975)" class="st1" width="431.1" height="2.7"/>
		
			<rect x="1431.6" y="145" transform="matrix(0.9063 -0.4226 0.4226 0.9063 92.4939 709.8455)" class="st1" width="431.1" height="2.7"/>
		
			<rect x="1429.1" y="140.8" transform="matrix(0.9063 -0.4226 0.4226 0.9063 94.0191 708.3934)" class="st1" width="431.1" height="2.7"/>
		
			<rect x="1426.6" y="136.6" transform="matrix(0.9063 -0.4226 0.4226 0.9063 95.5443 706.9413)" class="st1" width="431.1" height="2.7"/>
		
			<rect x="1424.1" y="132.5" transform="matrix(0.9063 -0.4226 0.4226 0.9063 97.0696 705.4892)" class="st1" width="431.1" height="2.7"/>
		
			<rect x="1421.6" y="128.3" transform="matrix(0.9063 -0.4226 0.4226 0.9063 98.5948 704.0371)" class="st1" width="431.1" height="2.7"/>
		
			<rect x="1419.1" y="124.1" transform="matrix(0.9063 -0.4226 0.4226 0.9063 100.12 702.585)" class="st1" width="431.1" height="2.7"/>
		
			<rect x="1416.6" y="120" transform="matrix(0.9063 -0.4226 0.4226 0.9063 101.6453 701.1329)" class="st1" width="431.1" height="2.7"/>
		
			<rect x="1414.1" y="115.8" transform="matrix(0.9063 -0.4226 0.4226 0.9063 103.1705 699.6808)" class="st1" width="431.1" height="2.7"/>
		
			<rect x="1411.5" y="111.6" transform="matrix(0.9063 -0.4226 0.4226 0.9063 104.6957 698.2287)" class="st1" width="431.1" height="2.7"/>
		
			<rect x="1409" y="107.5" transform="matrix(0.9063 -0.4226 0.4226 0.9063 106.2209 696.7766)" class="st1" width="431.1" height="2.7"/>
		
			<rect x="1406.5" y="103.3" transform="matrix(0.9063 -0.4226 0.4226 0.9063 107.7462 695.3245)" class="st1" width="431.1" height="2.7"/>
		
			<rect x="1404" y="99.1" transform="matrix(0.9063 -0.4226 0.4226 0.9063 109.2714 693.8724)" class="st1" width="431.1" height="2.7"/>
		
			<rect x="1401.5" y="95" transform="matrix(0.9063 -0.4226 0.4226 0.9063 110.7966 692.4203)" class="st1" width="431.1" height="2.7"/>
		
			<rect x="1399" y="90.8" transform="matrix(0.9063 -0.4226 0.4226 0.9063 112.3218 690.9683)" class="st1" width="431.1" height="2.7"/>
		
			<rect x="1396.5" y="86.6" transform="matrix(0.9063 -0.4226 0.4226 0.9063 113.8471 689.5161)" class="st1" width="431.1" height="2.7"/>
		
			<rect x="1394" y="82.5" transform="matrix(0.9063 -0.4226 0.4226 0.9063 115.3723 688.064)" class="st1" width="431.1" height="2.7"/>
		
			<rect x="1391.4" y="78.3" transform="matrix(0.9063 -0.4226 0.4226 0.9063 116.8975 686.6119)" class="st1" width="431.1" height="2.7"/>
		
			<rect x="1388.9" y="74.2" transform="matrix(0.9063 -0.4226 0.4226 0.9063 118.4227 685.1599)" class="st1" width="431.1" height="2.7"/>
		
			<rect x="1386.4" y="70" transform="matrix(0.9063 -0.4226 0.4226 0.9063 119.948 683.7078)" class="st1" width="431.1" height="2.7"/>
		
			<rect x="1383.9" y="65.8" transform="matrix(0.9063 -0.4226 0.4226 0.9063 121.4732 682.2557)" class="st1" width="431.1" height="2.7"/>
		
			<rect x="1381.4" y="61.7" transform="matrix(0.9063 -0.4226 0.4226 0.9063 122.9984 680.8036)" class="st1" width="431.1" height="2.7"/>
		
			<rect x="1378.9" y="57.5" transform="matrix(0.9063 -0.4226 0.4226 0.9063 124.5237 679.3515)" class="st1" width="431.1" height="2.7"/>
		
			<rect x="1376.4" y="53.3" transform="matrix(0.9063 -0.4226 0.4226 0.9063 126.0489 677.8994)" class="st1" width="431.1" height="2.7"/>
		
			<rect x="1373.9" y="49.2" transform="matrix(0.9063 -0.4226 0.4226 0.9063 127.5741 676.4473)" class="st1" width="431.1" height="2.7"/>
		
			<rect x="1371.3" y="45" transform="matrix(0.9063 -0.4226 0.4226 0.9063 129.0993 674.9952)" class="st1" width="431.1" height="2.7"/>
		
			<rect x="1368.8" y="40.8" transform="matrix(0.9063 -0.4226 0.4226 0.9063 130.6246 673.5431)" class="st1" width="431.1" height="2.7"/>
		
			<rect x="1366.3" y="36.7" transform="matrix(0.9063 -0.4226 0.4226 0.9063 132.1498 672.091)" class="st1" width="431.1" height="2.7"/>
		
			<rect x="1363.8" y="32.5" transform="matrix(0.9063 -0.4226 0.4226 0.9063 133.675 670.6389)" class="st1" width="431.1" height="2.7"/>
		
			<rect x="1361.3" y="28.3" transform="matrix(0.9063 -0.4226 0.4226 0.9063 135.2002 669.1868)" class="st1" width="431.1" height="2.7"/>
		
			<rect x="1358.8" y="24.2" transform="matrix(0.9063 -0.4226 0.4226 0.9063 136.7255 667.7347)" class="st1" width="431.1" height="2.7"/>
		
			<rect x="1356.3" y="20" transform="matrix(0.9063 -0.4226 0.4226 0.9063 138.2507 666.2826)" class="st1" width="431.1" height="2.7"/>
		
			<rect x="1353.8" y="15.8" transform="matrix(0.9063 -0.4226 0.4226 0.9063 139.7759 664.8305)" class="st1" width="431.1" height="2.7"/>
		
			<rect x="1351.2" y="11.7" transform="matrix(0.9063 -0.4226 0.4226 0.9063 141.3011 663.3784)" class="st1" width="431.1" height="2.7"/>
		
			<rect x="1348.7" y="7.5" transform="matrix(0.9063 -0.4226 0.4226 0.9063 142.8264 661.9263)" class="st1" width="431.1" height="2.7"/>
		
			<rect x="1346.2" y="3.3" transform="matrix(0.9063 -0.4226 0.4226 0.9063 144.3516 660.4742)" class="st1" width="431.1" height="2.7"/>
		
			<rect x="1343.7" y="-0.8" transform="matrix(0.9063 -0.4226 0.4226 0.9063 145.8768 659.0222)" class="st1" width="431.1" height="2.7"/>
		
			<rect x="1341.2" y="-5" transform="matrix(0.9063 -0.4226 0.4226 0.9063 147.402 657.5701)" class="st1" width="431.1" height="2.7"/>
		
			<rect x="1338.7" y="-9.2" transform="matrix(0.9063 -0.4226 0.4226 0.9063 148.9273 656.1179)" class="st1" width="431.1" height="2.7"/>
		
			<rect x="1336.2" y="-13.3" transform="matrix(0.9063 -0.4226 0.4226 0.9063 150.4525 654.6658)" class="st1" width="431.1" height="2.7"/>
		
			<rect x="1333.7" y="-17.5" transform="matrix(0.9063 -0.4226 0.4226 0.9063 151.9777 653.2137)" class="st1" width="431.1" height="2.7"/>
		
			<rect x="1331.1" y="-21.7" transform="matrix(0.9063 -0.4226 0.4226 0.9063 153.5029 651.7617)" class="st1" width="431.1" height="2.7"/>
		
			<rect x="1328.6" y="-25.8" transform="matrix(0.9063 -0.4226 0.4226 0.9063 155.0282 650.3096)" class="st1" width="431.1" height="2.7"/>
		
			<rect x="1326.1" y="-30" transform="matrix(0.9063 -0.4226 0.4226 0.9063 156.5534 648.8575)" class="st1" width="431.1" height="2.7"/>
		
			<rect x="1323.6" y="-34.2" transform="matrix(0.9063 -0.4226 0.4226 0.9063 158.0786 647.4054)" class="st1" width="431.1" height="2.7"/>
		
			<rect x="1321.1" y="-38.3" transform="matrix(0.9063 -0.4226 0.4226 0.9063 159.6039 645.9533)" class="st1" width="431.1" height="2.7"/>
		
			<rect x="1318.6" y="-42.5" transform="matrix(0.9063 -0.4226 0.4226 0.9063 161.1291 644.5012)" class="st1" width="431.1" height="2.7"/>
		
			<rect x="1316.1" y="-46.7" transform="matrix(0.9063 -0.4226 0.4226 0.9063 162.6543 643.0491)" class="st1" width="431.1" height="2.7"/>
		
			<rect x="1313.6" y="-50.8" transform="matrix(0.9063 -0.4226 0.4226 0.9063 164.1795 641.597)" class="st1" width="431.1" height="2.7"/>
		
			<rect x="1311" y="-55" transform="matrix(0.9063 -0.4226 0.4226 0.9063 165.7048 640.1449)" class="st1" width="431.1" height="2.7"/>
	</g>
</g>
<g>
	<defs>
		<polygon id="SVGID_15_" points="1946,63.9 1946,14 1761,14 1761,282 1945.6,282 1945.6,232.3 1825.6,232.3 1825.6,168.2 
			1927.2,168.2 1927.2,120.4 1825.6,120.4 1825.6,63.9 		"/>
	</defs>
	<clipPath id="SVGID_16_">
		<use xlink:href="#SVGID_15_"  style="overflow:visible;"/>
	</clipPath>
	<g class="st8">
		
			<rect x="1710.5" y="295.3" transform="matrix(0.9063 -0.4226 0.4226 0.9063 55.0849 841.7729)" class="st1" width="431.1" height="2.7"/>
		
			<rect x="1708" y="291.1" transform="matrix(0.9063 -0.4226 0.4226 0.9063 56.6101 840.3208)" class="st1" width="431.1" height="2.7"/>
		
			<rect x="1705.5" y="287" transform="matrix(0.9063 -0.4226 0.4226 0.9063 58.1353 838.8687)" class="st1" width="431.1" height="2.7"/>
		
			<rect x="1702.9" y="282.8" transform="matrix(0.9063 -0.4226 0.4226 0.9063 59.6606 837.4166)" class="st1" width="431.1" height="2.7"/>
		
			<rect x="1700.4" y="278.6" transform="matrix(0.9063 -0.4226 0.4226 0.9063 61.1858 835.9645)" class="st1" width="431.1" height="2.7"/>
		
			<rect x="1697.9" y="274.5" transform="matrix(0.9063 -0.4226 0.4226 0.9063 62.711 834.5124)" class="st1" width="431.1" height="2.7"/>
		
			<rect x="1695.4" y="270.3" transform="matrix(0.9063 -0.4226 0.4226 0.9063 64.2363 833.0603)" class="st1" width="431.1" height="2.7"/>
		
			<rect x="1692.9" y="266.1" transform="matrix(0.9063 -0.4226 0.4226 0.9063 65.7615 831.6082)" class="st1" width="431.1" height="2.7"/>
		
			<rect x="1690.4" y="262" transform="matrix(0.9063 -0.4226 0.4226 0.9063 67.2867 830.1561)" class="st1" width="431.1" height="2.7"/>
		
			<rect x="1687.9" y="257.8" transform="matrix(0.9063 -0.4226 0.4226 0.9063 68.8119 828.704)" class="st1" width="431.1" height="2.7"/>
		
			<rect x="1685.4" y="253.6" transform="matrix(0.9063 -0.4226 0.4226 0.9063 70.3372 827.252)" class="st1" width="431.1" height="2.7"/>
		
			<rect x="1682.8" y="249.5" transform="matrix(0.9063 -0.4226 0.4226 0.9063 71.8624 825.7998)" class="st1" width="431.1" height="2.7"/>
		
			<rect x="1680.3" y="245.3" transform="matrix(0.9063 -0.4226 0.4226 0.9063 73.3876 824.3477)" class="st1" width="431.1" height="2.7"/>
		
			<rect x="1677.8" y="241.1" transform="matrix(0.9063 -0.4226 0.4226 0.9063 74.9128 822.8956)" class="st1" width="431.1" height="2.7"/>
		
			<rect x="1675.3" y="237" transform="matrix(0.9063 -0.4226 0.4226 0.9063 76.4381 821.4435)" class="st1" width="431.1" height="2.7"/>
		
			<rect x="1672.8" y="232.8" transform="matrix(0.9063 -0.4226 0.4226 0.9063 77.9633 819.9915)" class="st1" width="431.1" height="2.7"/>
		
			<rect x="1670.3" y="228.7" transform="matrix(0.9063 -0.4226 0.4226 0.9063 79.4885 818.5394)" class="st1" width="431.1" height="2.7"/>
		
			<rect x="1667.8" y="224.5" transform="matrix(0.9063 -0.4226 0.4226 0.9063 81.0137 817.0873)" class="st1" width="431.1" height="2.7"/>
		
			<rect x="1665.3" y="220.3" transform="matrix(0.9063 -0.4226 0.4226 0.9063 82.539 815.6352)" class="st1" width="431.1" height="2.7"/>
		
			<rect x="1662.7" y="216.2" transform="matrix(0.9063 -0.4226 0.4226 0.9063 84.0642 814.183)" class="st1" width="431.1" height="2.7"/>
		
			<rect x="1660.2" y="212" transform="matrix(0.9063 -0.4226 0.4226 0.9063 85.5894 812.731)" class="st1" width="431.1" height="2.7"/>
		
			<rect x="1657.7" y="207.8" transform="matrix(0.9063 -0.4226 0.4226 0.9063 87.1146 811.2789)" class="st1" width="431.1" height="2.7"/>
		
			<rect x="1655.2" y="203.7" transform="matrix(0.9063 -0.4226 0.4226 0.9063 88.6399 809.8268)" class="st1" width="431.1" height="2.7"/>
		
			<rect x="1652.7" y="199.5" transform="matrix(0.9063 -0.4226 0.4226 0.9063 90.1651 808.3747)" class="st1" width="431.1" height="2.7"/>
		
			<rect x="1650.2" y="195.3" transform="matrix(0.9063 -0.4226 0.4226 0.9063 91.6903 806.9226)" class="st1" width="431.1" height="2.7"/>
		
			<rect x="1647.7" y="191.2" transform="matrix(0.9063 -0.4226 0.4226 0.9063 93.2156 805.4705)" class="st1" width="431.1" height="2.7"/>
		
			<rect x="1645.2" y="187" transform="matrix(0.9063 -0.4226 0.4226 0.9063 94.7408 804.0184)" class="st1" width="431.1" height="2.7"/>
		
			<rect x="1642.6" y="182.8" transform="matrix(0.9063 -0.4226 0.4226 0.9063 96.266 802.5663)" class="st1" width="431.1" height="2.7"/>
		
			<rect x="1640.1" y="178.7" transform="matrix(0.9063 -0.4226 0.4226 0.9063 97.7912 801.1142)" class="st1" width="431.1" height="2.7"/>
		
			<rect x="1637.6" y="174.5" transform="matrix(0.9063 -0.4226 0.4226 0.9063 99.3165 799.6621)" class="st1" width="431.1" height="2.7"/>
		
			<rect x="1635.1" y="170.3" transform="matrix(0.9063 -0.4226 0.4226 0.9063 100.8417 798.21)" class="st1" width="431.1" height="2.7"/>
		
			<rect x="1632.6" y="166.2" transform="matrix(0.9063 -0.4226 0.4226 0.9063 102.3669 796.7579)" class="st1" width="431.1" height="2.7"/>
		
			<rect x="1630.1" y="162" transform="matrix(0.9063 -0.4226 0.4226 0.9063 103.8921 795.3058)" class="st1" width="431.1" height="2.7"/>
		
			<rect x="1627.6" y="157.8" transform="matrix(0.9063 -0.4226 0.4226 0.9063 105.4174 793.8538)" class="st1" width="431.1" height="2.7"/>
		
			<rect x="1625.1" y="153.7" transform="matrix(0.9063 -0.4226 0.4226 0.9063 106.9426 792.4016)" class="st1" width="431.1" height="2.7"/>
		
			<rect x="1622.5" y="149.5" transform="matrix(0.9063 -0.4226 0.4226 0.9063 108.4678 790.9495)" class="st1" width="431.1" height="2.7"/>
		
			<rect x="1620" y="145.3" transform="matrix(0.9063 -0.4226 0.4226 0.9063 109.993 789.4974)" class="st1" width="431.1" height="2.7"/>
		
			<rect x="1617.5" y="141.2" transform="matrix(0.9063 -0.4226 0.4226 0.9063 111.5183 788.0453)" class="st1" width="431.1" height="2.7"/>
		
			<rect x="1615" y="137" transform="matrix(0.9063 -0.4226 0.4226 0.9063 113.0435 786.5933)" class="st1" width="431.1" height="2.7"/>
		
			<rect x="1612.5" y="132.8" transform="matrix(0.9063 -0.4226 0.4226 0.9063 114.5687 785.1412)" class="st1" width="431.1" height="2.7"/>
		
			<rect x="1610" y="128.7" transform="matrix(0.9063 -0.4226 0.4226 0.9063 116.0939 783.6891)" class="st1" width="431.1" height="2.7"/>
		
			<rect x="1607.5" y="124.5" transform="matrix(0.9063 -0.4226 0.4226 0.9063 117.6192 782.237)" class="st1" width="431.1" height="2.7"/>
		
			<rect x="1605" y="120.3" transform="matrix(0.9063 -0.4226 0.4226 0.9063 119.1444 780.7849)" class="st1" width="431.1" height="2.7"/>
		
			<rect x="1602.4" y="116.2" transform="matrix(0.9063 -0.4226 0.4226 0.9063 120.6696 779.3328)" class="st1" width="431.1" height="2.7"/>
		
			<rect x="1599.9" y="112" transform="matrix(0.9063 -0.4226 0.4226 0.9063 122.1949 777.8807)" class="st1" width="431.1" height="2.7"/>
		
			<rect x="1597.4" y="107.8" transform="matrix(0.9063 -0.4226 0.4226 0.9063 123.7201 776.4286)" class="st1" width="431.1" height="2.7"/>
		
			<rect x="1594.9" y="103.7" transform="matrix(0.9063 -0.4226 0.4226 0.9063 125.2453 774.9765)" class="st1" width="431.1" height="2.7"/>
		
			<rect x="1592.4" y="99.5" transform="matrix(0.9063 -0.4226 0.4226 0.9063 126.7705 773.5244)" class="st1" width="431.1" height="2.7"/>
		
			<rect x="1589.9" y="95.3" transform="matrix(0.9063 -0.4226 0.4226 0.9063 128.2958 772.0723)" class="st1" width="431.1" height="2.7"/>
		
			<rect x="1587.4" y="91.2" transform="matrix(0.9063 -0.4226 0.4226 0.9063 129.821 770.6202)" class="st1" width="431.1" height="2.7"/>
		
			<rect x="1584.9" y="87" transform="matrix(0.9063 -0.4226 0.4226 0.9063 131.3462 769.1681)" class="st1" width="431.1" height="2.7"/>
		
			<rect x="1582.3" y="82.8" transform="matrix(0.9063 -0.4226 0.4226 0.9063 132.8714 767.716)" class="st1" width="431.1" height="2.7"/>
		
			<rect x="1579.8" y="78.7" transform="matrix(0.9063 -0.4226 0.4226 0.9063 134.3967 766.2639)" class="st1" width="431.1" height="2.7"/>
		
			<rect x="1577.3" y="74.5" transform="matrix(0.9063 -0.4226 0.4226 0.9063 135.9219 764.8118)" class="st1" width="431.1" height="2.7"/>
		
			<rect x="1574.8" y="70.3" transform="matrix(0.9063 -0.4226 0.4226 0.9063 137.4471 763.3597)" class="st1" width="431.1" height="2.7"/>
		
			<rect x="1572.3" y="66.2" transform="matrix(0.9063 -0.4226 0.4226 0.9063 138.9723 761.9077)" class="st1" width="431.1" height="2.7"/>
		
			<rect x="1569.8" y="62" transform="matrix(0.9063 -0.4226 0.4226 0.9063 140.4976 760.4556)" class="st1" width="431.1" height="2.7"/>
		
			<rect x="1567.3" y="57.8" transform="matrix(0.9063 -0.4226 0.4226 0.9063 142.0228 759.0034)" class="st1" width="431.1" height="2.7"/>
		
			<rect x="1564.8" y="53.7" transform="matrix(0.9063 -0.4226 0.4226 0.9063 143.548 757.5513)" class="st1" width="431.1" height="2.7"/>
		
			<rect x="1562.3" y="49.5" transform="matrix(0.9063 -0.4226 0.4226 0.9063 145.0732 756.0992)" class="st1" width="431.1" height="2.7"/>
		
			<rect x="1559.7" y="45.3" transform="matrix(0.9063 -0.4226 0.4226 0.9063 146.5985 754.6472)" class="st1" width="431.1" height="2.7"/>
		
			<rect x="1557.2" y="41.2" transform="matrix(0.9063 -0.4226 0.4226 0.9063 148.1237 753.1951)" class="st1" width="431.1" height="2.7"/>
		
			<rect x="1554.7" y="37" transform="matrix(0.9063 -0.4226 0.4226 0.9063 149.6489 751.743)" class="st1" width="431.1" height="2.7"/>
		
			<rect x="1552.2" y="32.8" transform="matrix(0.9063 -0.4226 0.4226 0.9063 151.1741 750.2909)" class="st1" width="431.1" height="2.7"/>
		
			<rect x="1549.7" y="28.7" transform="matrix(0.9063 -0.4226 0.4226 0.9063 152.6994 748.8387)" class="st1" width="431.1" height="2.7"/>
		
			<rect x="1547.2" y="24.5" transform="matrix(0.9063 -0.4226 0.4226 0.9063 154.2246 747.3867)" class="st1" width="431.1" height="2.7"/>
		
			<rect x="1544.7" y="20.4" transform="matrix(0.9063 -0.4226 0.4226 0.9063 155.7498 745.9346)" class="st1" width="431.1" height="2.7"/>
		
			<rect x="1542.2" y="16.2" transform="matrix(0.9063 -0.4226 0.4226 0.9063 157.2751 744.4825)" class="st1" width="431.1" height="2.7"/>
		
			<rect x="1539.6" y="12" transform="matrix(0.9063 -0.4226 0.4226 0.9063 158.8003 743.0304)" class="st1" width="431.1" height="2.7"/>
		
			<rect x="1537.1" y="7.9" transform="matrix(0.9063 -0.4226 0.4226 0.9063 160.3255 741.5783)" class="st1" width="431.1" height="2.7"/>
		
			<rect x="1534.6" y="3.7" transform="matrix(0.9063 -0.4226 0.4226 0.9063 161.8507 740.1262)" class="st1" width="431.1" height="2.7"/>
		
			<rect x="1532.1" y="-0.5" transform="matrix(0.9063 -0.4226 0.4226 0.9063 163.376 738.6741)" class="st1" width="431.1" height="2.7"/>
		
			<rect x="1529.6" y="-4.6" transform="matrix(0.9063 -0.4226 0.4226 0.9063 164.9012 737.222)" class="st1" width="431.1" height="2.7"/>
		
			<rect x="1527.1" y="-8.8" transform="matrix(0.9063 -0.4226 0.4226 0.9063 166.4264 735.7699)" class="st1" width="431.1" height="2.7"/>
		
			<rect x="1524.6" y="-13" transform="matrix(0.9063 -0.4226 0.4226 0.9063 167.9516 734.3178)" class="st1" width="431.1" height="2.7"/>
		
			<rect x="1522.1" y="-17.1" transform="matrix(0.9063 -0.4226 0.4226 0.9063 169.4769 732.8657)" class="st1" width="431.1" height="2.7"/>
		
			<rect x="1519.5" y="-21.3" transform="matrix(0.9063 -0.4226 0.4226 0.9063 171.0021 731.4136)" class="st1" width="431.1" height="2.7"/>
		
			<rect x="1517" y="-25.5" transform="matrix(0.9063 -0.4226 0.4226 0.9063 172.5273 729.9615)" class="st1" width="431.1" height="2.7"/>
		
			<rect x="1514.5" y="-29.6" transform="matrix(0.9063 -0.4226 0.4226 0.9063 174.0525 728.5095)" class="st1" width="431.1" height="2.7"/>
		
			<rect x="1512" y="-33.8" transform="matrix(0.9063 -0.4226 0.4226 0.9063 175.5778 727.0574)" class="st1" width="431.1" height="2.7"/>
		
			<rect x="1509.5" y="-38" transform="matrix(0.9063 -0.4226 0.4226 0.9063 177.103 725.6052)" class="st1" width="431.1" height="2.7"/>
		
			<rect x="1507" y="-42.1" transform="matrix(0.9063 -0.4226 0.4226 0.9063 178.6282 724.1531)" class="st1" width="431.1" height="2.7"/>
	</g>
</g>
</svg>
