<?xml version="1.0" encoding="utf-8"?>
<!-- Generator: Adobe Illustrator 24.1.1, SVG Export Plug-In . SVG Version: 6.00 Build 0)  -->
<svg version="1.1" id="Layer_1" xmlns="http://www.w3.org/2000/svg" xmlns:xlink="http://www.w3.org/1999/xlink" x="0px" y="0px"
	 viewBox="0 0 1855.3 346" style="enable-background:new 0 0 1855.3 346;" xml:space="preserve">
<style type="text/css">
	.st0{fill:#C6C6C6;}
	.st1{opacity:0.3;fill:#DEDEFF;}
</style>
<g>
	<path class="st0" d="M1763.5,346c-0.1,0-0.2,0-0.2,0c-0.2-0.1-21.1-6.8-55.7-31c-31.9-22.3-82.4-64.6-141.8-139.2c0,0,0,0,0,0
		c-25-32-30.9-71.6-31.4-99.2c-0.5-29.9,4.9-52.5,4.9-52.8c0.1-0.3,0.3-0.6,0.7-0.6c0.3,0,0.6,0.1,0.8,0.4
		c29.3,63.3,26.6,145.8,26.4,151.4c32.8,41.1,83.8,98.4,141.3,138.7c34.4,24.1,55.1,30.7,55.3,30.8c0.4,0.1,0.6,0.6,0.5,1
		C1764.1,345.7,1763.8,346,1763.5,346z M1540.3,26.4c-1.3,6.4-4.9,25.9-4.4,50.2c0.5,26.9,6.1,65.2,29.7,96.5
		C1566,159.5,1566.7,85.1,1540.3,26.4z"/>
	<path class="st0" d="M1680.1,293.9c-0.1,0-0.3,0-0.4-0.1c-0.2-0.1-0.3-0.3-0.4-0.6c0-0.2-2.8-23.3,3.2-54.2
		c5.5-28.5,19.9-69.8,57-104.3c0.2-0.2,0.6-0.3,0.9-0.1c0.3,0.2,0.5,0.5,0.4,0.8c0,0.4-5,36.8-12.6,75.4
		c-8.2,41.5-27.9,75.6-47.8,83C1680.3,293.9,1680.2,293.9,1680.1,293.9z M1739,137.4c-35.6,33.9-49.5,74.1-54.9,101.9
		c-5.3,27.1-3.7,48-3.3,52.7c19.1-7.9,37.9-41.1,45.9-81.5C1733.3,177.3,1737.8,145.8,1739,137.4z"/>
	<path class="st0" d="M1541.4,314c-18.8,0-30.8-3.3-31-3.4c-0.3-0.1-0.5-0.3-0.5-0.6c-0.1-0.3,0.1-0.6,0.3-0.8
		c12.7-9.3,41.3-23.7,80.1-33.7c39.5-10.3,64.2-5.4,64.4-5.4c0.3,0.1,0.5,0.2,0.6,0.5c0.1,0.2,0.1,0.5-0.1,0.7
		c-0.5,0.7-11.8,17.1-59.3,33.4C1575,312,1556.1,314,1541.4,314z M1512.4,309.5c7.6,1.8,41.4,8.1,82.9-6.2
		c40.5-13.9,54.5-28.1,57.8-31.9c-5.5-0.8-28.4-3.3-62.5,5.5C1553.4,286.7,1525.7,300.3,1512.4,309.5z"/>
	<path class="st0" d="M1509.9,225.9c-38.7,0-51.8-12.5-52.4-13.1c-0.2-0.2-0.3-0.4-0.2-0.7c0-0.3,0.2-0.5,0.4-0.6
		c0.4-0.2,42.9-18.8,86.6-15.6c19.1,1.4,32.7,5.6,40.7,8.9c8.7,3.6,12.9,6.8,13,6.9c0.2,0.2,0.3,0.4,0.3,0.7c0,0.3-0.2,0.5-0.5,0.6
		c-0.7,0.3-17.5,7.3-70,11.9C1521.3,225.7,1515.3,225.9,1509.9,225.9z M1459.5,212.5c1.8,1.4,6.1,4.3,14,6.8
		c9.8,3.2,27.2,6.6,54.3,4.2c44.1-3.8,63.2-9.5,68.2-11.3c-4.4-2.9-21-12.5-51.7-14.7C1504.9,194.6,1466.5,209.6,1459.5,212.5z"/>
	<path class="st0" d="M1622.6,240.5c-0.1,0-0.3,0-0.4-0.1c-0.2-0.1-0.3-0.3-0.3-0.5c-0.1-0.5-10.2-48.6,3.9-91.4
		c14-42.7,41-77.5,41.2-77.8c0.2-0.2,0.5-0.4,0.8-0.3c0.3,0.1,0.5,0.3,0.6,0.7c0,0.2,2.3,20.5-6.6,58.7c-2.8,12.2-5.1,24.7-7.4,36.7
		c-6.9,37.5-12.9,69.9-31.6,74C1622.7,240.4,1622.6,240.5,1622.6,240.5z M1666.9,73.2c-5.4,7.3-27.5,38.5-39.8,75.7
		c-12.9,39.4-5.2,83.4-4,89.8c17.1-4.7,22.9-36.2,29.7-72.6c2.2-12,4.5-24.5,7.4-36.7C1667.4,98.3,1667.2,79.2,1666.9,73.2z"/>
	<path class="st0" d="M1680.1,293.9c-0.1,0-0.2,0-0.3-0.1c-0.4-0.2-0.5-0.7-0.4-1c0.1-0.3,13.7-28.1,29.9-78.7
		c16.2-50.7,29.9-78.8,30.1-79.1c0.2-0.4,0.7-0.5,1-0.4c0.4,0.2,0.5,0.7,0.4,1c-0.1,0.3-13.8,28.3-30,78.9
		c-16.2,50.7-29.8,78.6-30,78.9C1680.7,293.7,1680.4,293.9,1680.1,293.9z"/>
	<path class="st0" d="M1504,216.1c-27.8,0-45.9-3-46.1-3c-0.4-0.1-0.7-0.5-0.6-0.9c0.1-0.4,0.5-0.7,0.9-0.6
		c0.3,0.1,31.4,5.2,74.7,1.9c43.5-3.3,64.5-1.7,64.7-1.7c0.4,0,0.7,0.4,0.7,0.8c0,0.4-0.4,0.7-0.8,0.7c-0.2,0-21.1-1.6-64.5,1.7
		C1522.5,215.8,1512.8,216.1,1504,216.1z"/>
	<path class="st0" d="M1622.6,240.5c-0.2,0-0.4-0.1-0.6-0.3c-0.3-0.3-0.2-0.8,0.1-1.1c0.2-0.1,11.3-10.8,17.6-65.3
		c6.3-55.3,27-102.6,27.2-103.1c0.2-0.4,0.6-0.6,1-0.4c0.4,0.2,0.6,0.6,0.4,1c-0.2,0.5-20.8,47.6-27.1,102.6
		c-6.3,55.4-17.6,65.8-18.1,66.3C1622.9,240.4,1622.8,240.5,1622.6,240.5z"/>
	<path class="st0" d="M1566.3,174.4c-0.3,0-0.6-0.2-0.7-0.5c-0.2-0.4-15.7-42.3-15.7-74.9c0-32.4-10.6-74.5-10.7-74.9
		c-0.1-0.4,0.1-0.8,0.6-0.9c0.4-0.1,0.8,0.1,0.9,0.6c0.1,0.4,10.7,42.7,10.7,75.3c0,32.3,15.4,73.9,15.6,74.3c0.2,0.4-0.1,0.8-0.5,1
		C1566.5,174.4,1566.4,174.4,1566.3,174.4z"/>
	<path class="st0" d="M1510.6,310.7c-0.4,0-0.8-0.3-0.8-0.8c0-0.4,0.3-0.8,0.8-0.8c0.3,0,32.8-0.7,68.6-9.4
		c22.9-5.6,42.5-15,56.8-21.8c8.1-3.9,14.5-6.9,18.4-7.7c0.4-0.1,0.8,0.2,0.9,0.6c0.1,0.4-0.2,0.8-0.6,0.9c-3.7,0.8-10,3.8-18,7.6
		c-14.4,6.9-34.1,16.3-57.1,21.9C1543.6,310,1511,310.7,1510.6,310.7C1510.6,310.7,1510.6,310.7,1510.6,310.7z"/>
</g>
<path class="st0" d="M251,373.9l-0.3-1.5c18.5-3.3,35.7-10.8,49.6-21.6c15.1-11.7,25.6-26.9,30.4-43.9c7.6-27.5,2.5-54.5-14.6-76
	c-18.5-23.4-48.3-36.5-79.7-35.2c-2.9,0.1-5.9,0.3-8.8,0.5c-7.3,0.5-14.8,1-22.2,0.4c-30.2-2.5-34.9-22-39.9-42.6
	c-1.7-7.2-3.5-14.6-6.4-21.7c-5.8-14.5-17.7-27.5-32.6-35.8c-25.2-13.8-59.7-17.2-90.1-8.7c-8.6,2.4-16.2,6.4-23.1,12.2
	c-1,0.8-1.9,1.9-2.9,3c-2.1,2.3-4.2,4.7-6.8,5.5L2.9,107c2.3-0.7,4.3-2.9,6.2-5.1c1.1-1.2,2.1-2.3,3.1-3.2
	c7.1-5.9,14.8-10,23.7-12.5c30.8-8.6,65.8-5.2,91.3,8.8c15.3,8.4,27.4,21.7,33.3,36.5c2.9,7.3,4.7,14.7,6.4,22
	c5,21,9.4,39.1,38.5,41.5c7.3,0.6,14.8,0.1,22-0.4c2.9-0.2,5.9-0.4,8.9-0.5c31.8-1.3,62.1,12,80.9,35.8
	c17.4,21.9,22.6,49.3,14.9,77.3c-4.8,17.3-15.5,32.8-30.9,44.7C287.1,362.9,269.7,370.5,251,373.9z"/>
<path class="st1" d="M0,148.6c7.1-3.9,10.2-38.6,95-38.6c44.1,0,64,16,75.3,57.2c2.4,8.9,6.4,18,14,23c16.9,11.1,39,3.6,56.1-2.4
	c20.6-7.3,43.9-6.9,64.2,1.4c35.1,14.4,59.2,52.4,56.4,90.4c-2.8,37.8-32.1,67.2-66,80.6H0V148.6z"/>
</svg>
