<svg xmlns="http://www.w3.org/2000/svg" width="262.442" height="261.221" viewBox="0 0 262.442 261.221">
  <g>
    <g opacity=".17">
      <path fill="rgb(255,255,255)" fill-rule="evenodd" d="M131.22012916 137.48723454c3.6247765 0 6.57133026-2.94001813 6.57133026-6.55675403 0-3.6153224-2.94655405-6.55534024-6.57133026-6.55534024-3.62335957 0-6.56991332 2.94001814-6.56991332 6.55534024 0 3.61673619 2.94655375 6.55675403 6.56991332 6.55675403z"/>
    </g>
    <g opacity=".17">
      <path fill="rgb(255,255,255)" fill-rule="evenodd" d="M135.8650841 109.92524937c1.24245232-1.23828258 1.92637532-2.88458392 1.92637532-4.6360765 0-1.7515036-.6839233-3.39780494-1.92637532-4.63466272-2.47921455-2.47655387-6.81070607-2.47655387-9.28992091 0-1.24103538 1.23685778-1.92494735 2.88315913-1.92494735 4.63466271 0 1.75149259.68391226 3.39779393 1.92494735 4.63607651 1.28092932 1.27807702 2.9622283 1.91641443 4.64496597 1.91641443 1.68272664-3e-7 3.36545358-.6383374 4.64495494-1.91641443z"/>
    </g>
    <g opacity=".17">
      <path fill="rgb(255,255,255)" fill-rule="evenodd" d="M109.14373926 124.38225297c1.6813097 0 3.36403665-.63833712 4.64496597-1.91642543 1.24102436-1.23684678 1.92494735-2.88314813 1.92494735-4.63465171 0-1.75150359-.68392328-3.39780494-1.92494735-4.63607651-2.56470384-2.55617634-6.73234587-2.55332674-9.29134887 0-1.24103539 1.23827157-1.92494736 2.88457292-1.92494736 4.6360765 0 1.7515036.68391226 3.39780494 1.92494736 4.63465172 1.28092932 1.27808831 2.96365596 1.91642543 4.6463829 1.91642543z"/>
    </g>
    <g opacity=".17">
      <path fill="rgb(255,255,255)" fill-rule="evenodd" d="M104.49735636 148.63315766c1.24102436 1.23970738 2.89098557 1.92210232 4.6463829 1.92210232 1.75396936 0 3.40393058-.68239523 4.64496597-1.92210232 1.24102436-1.23684678 1.92494735-2.88314813 1.92494735-4.63465171 0-1.75150359-.68392328-3.39780494-1.92494735-4.63466272-2.48348742-2.48224205-6.80928913-2.47655386-9.29134887 0-1.24103539 1.23685778-1.92494736 2.88315913-1.92494736 4.63466272 0 1.75150358.68391197 3.39780493 1.92494736 4.63465171z"/>
    </g>
    <g opacity=".17">
      <path fill="rgb(255,255,255)" fill-rule="evenodd" d="M126.57516319 161.20645087c1.23960742 1.23969638 2.88956864 1.92210233 4.64496597 1.92210233 1.7553863 0 3.40534752-.68240624 4.64495494-1.92210233 1.24245232-1.23685778 1.92637532-2.88315913 1.92637532-4.63466271 0-1.75150359-.6839233-3.39780494-1.92637532-4.63465171-2.47921455-2.47940346-6.81070607-2.47940346-9.28992091 0-1.24103538 1.23684677-1.92494735 2.88314812-1.92494735 4.6346517 0 1.7515036.68391197 3.39780494 1.92494735 4.63466272z"/>
    </g>
    <g opacity=".17">
      <path fill="rgb(255,255,255)" fill-rule="evenodd" d="M148.58031066 148.63315766c1.2395964 1.23970738 2.88955761 1.92210232 4.64495494 1.92210232 1.75539733 0 3.40535854-.68239523 4.64496596-1.92210232 1.24245233-1.23684678 1.92637532-2.88314813 1.92637532-4.63465171 0-1.75150359-.68392328-3.39780494-1.92637532-4.63466272-2.47921455-2.47939245-6.81071709-2.47939245-9.2899209 0-1.24246335 1.23685778-1.92637532 2.88315913-1.92637532 4.63466272 0 1.75150358.68391197 3.39780493 1.92637532 4.63465171z"/>
    </g>
    <g opacity=".17">
      <path fill="rgb(255,255,255)" fill-rule="evenodd" d="M153.2252656 124.38651636c1.75539733 0 3.40535854-.68240624 4.64496596-1.92068853 1.24245233-1.23684678 1.92637532-2.88314813 1.92637532-4.63465171 0-1.75150359-.68392328-3.39780494-1.92637532-4.63607651-2.559003-2.55617634-6.7309179-2.55617634-9.2899209 0-1.24246335 1.23827157-1.92637532 2.88457292-1.92637532 4.6360765 0 1.7515036.68391226 3.39780494 1.92637532 4.63465172 1.2395961 1.23828229 2.88955761 1.92068853 4.64495494 1.92068853z"/>
    </g>
    <g opacity=".17">
      <path fill="rgb(255,255,255)" fill-rule="evenodd" d="M103.62108 94.18305548c1.01306096.5843057 2.1358306.88143434 3.27427478.88143434.57135838 0 1.14556166-.07534808 1.7112195-.22604395 1.69555627-.4535127 3.1132702-1.53824952 3.98953553-3.05518267.87770432-1.51549734 1.11137929-3.2826404.65684737-4.97443539-.4545209-1.69037047-1.54166918-3.10493968-3.06196357-3.97926132-3.13606221-1.8112122-7.16264678-.73216327-8.97361258 2.39835647-1.81238273 3.13053075-.7337799 7.14818372 2.40369897 8.95513252z"/>
    </g>
    <g opacity=".17">
      <path fill="rgb(255,255,255)" fill-rule="evenodd" d="M127.934453 87.44716493c1.03300807.59283247 2.16005058.87574614 3.27427478.87574614 2.27260417 0 4.48537832-1.17714917 5.7021827-3.27695222 1.80953783-3.12910594.73236296-7.14675892-2.4051162-8.95370772-3.13463424-1.81121218-7.16407474-.73216326-8.9750295 2.39836198-1.81239377 3.13052525-.73379093 7.14817822 2.40368822 8.95655182z"/>
    </g>
    <g opacity=".17">
      <path fill="rgb(255,255,255)" fill-rule="evenodd" d="M85.48721364 111.88289404c1.0315801.59568207 2.16005058.87717094 3.27427478.87717094 2.2711762 0 4.48395035-1.17572438 5.6993378-3.27553842 1.81238273-3.13051945.73377989-7.14817272-2.40369926-8.95512152-1.52172207-.88002054-3.2970665-1.10748928-4.98549399-.65539038-1.69555628.4535127-3.1132702 1.53824952-3.98953553 3.05517166-1.8109655 3.13053045-.73237398 7.14675892 2.4051162 8.95370772z"/>
    </g>
    <g opacity=".17">
      <path fill="rgb(255,255,255)" fill-rule="evenodd" d="M84.6308844 137.20290708c1.69555627-.4520989 3.1132702-1.53824952 3.99096349-3.05660746 1.80953783-3.13051945.72951805-7.14817272-2.40654416-8.95369672-3.1403348-1.8083736-7.16264678-.73073846-8.97360707 2.39978128-1.81238825 3.13053074-.73379092 7.14818372 2.40369375 8.95654631 1.01306095.5828919 2.1358306.88144534 3.27427478.88144534.57135837-3e-7 1.14556166-.07677288 1.7112192-.22746875z"/>
    </g>
    <g opacity=".17">
      <path fill="rgb(255,255,255)" fill-rule="evenodd" d="M85.48721364 160.65198833c1.0315801.59426828 2.16005058.87575744 3.27427478.87575744 2.2711762 0 4.48395035-1.17429958 5.6993378-3.27553843 1.81238273-3.13053074.73377989-7.14817271-2.40369926-8.9565463-1.52172207-.87574615-3.2970665-1.1060645-4.98549399-.6539656-1.69555628.4549375-3.1132702 1.53824952-3.98953553 3.05659646-1.8109655 3.13051945-.73094602 7.14533384 2.4051162 8.95369643z"/>
    </g>
    <g opacity=".17">
      <path fill="rgb(255,255,255)" fill-rule="evenodd" d="M103.74076239 178.62480027c1.011633.5828809 2.13440263.88142333 3.27284681.88142333.57135838 0 1.1455727-.07676158 1.7126585-.22745774 1.6941283-.4549375 3.1118312-1.53826052 3.98810756-3.05659646 1.81239376-3.12768115.73379092-7.14533413-2.40369926-8.95370772-3.13747886-1.805524-7.16406372-.73357706-8.97502951 2.39979228-.87769301 1.51549734-1.11136827 3.2840652-.65684738 4.97584918.4545206 1.69180628 1.54166918 3.10495098 3.06196328 3.98069713z"/>
    </g>
    <g opacity=".17">
      <path fill="rgb(255,255,255)" fill-rule="evenodd" d="M127.934453 185.66492116c1.0315801.59425727 2.16005058.87574614 3.27427478.87574614 2.27260417 0 4.48537832-1.17428858 5.7021827-3.27552742 1.80953783-3.13053074.73236296-7.14818372-2.4051162-8.95655731-3.13463424-1.8083516-7.16407474-.73072747-8.9750295 2.39980328-1.81239377 3.13050873-.73379093 7.148162 2.40368822 8.9565353z"/>
    </g>
    <g opacity=".17">
      <path fill="rgb(255,255,255)" fill-rule="evenodd" d="M152.48150097 178.62480027c1.011633.5828809 2.13440264.88142333 3.27427478.88142333.56993042 0 1.14556166-.07676158 1.71264717-.22745774 1.69555628-.4549375 3.11184224-1.53826052 3.98953553-3.05659646.87770432-1.51550835 1.10852337-3.28122661.65543044-4.9730216-.45594886-1.69178398-1.5416802-3.10492868-3.06340256-3.98068612-3.13747887-1.8083626-7.16121881-.73357706-8.97360155 2.39979228-1.80953755 3.13051974-.73236267 7.14817271 2.4051162 8.95654631z"/>
    </g>
    <g opacity=".17">
      <path fill="rgb(255,255,255)" fill-rule="evenodd" d="M179.82977295 158.9317637c.877693-1.51549735 1.10851233-3.2840652.6554194-4.97586019-.45594885-1.69178398-1.54165815-3.10492868-3.06339153-3.98068612-3.14032376-1.8112122-7.16121881-.73073847-8.97360155 2.39979227-1.80953783 3.13051946-.73236296 7.14817272 2.4051162 8.95654632 1.03159113.59425727 2.16005058.87574614 3.27427478.87574614 2.2711762 0 4.4853673-1.17429958 5.7021827-3.27553842z"/>
    </g>
    <g opacity=".17">
      <path fill="rgb(255,255,255)" fill-rule="evenodd" d="M185.66875127 134.14629962c.877693-1.51549735 1.11136827-3.2826404.65541941-4.9730106-.45309292-1.69179527-1.53882456-3.10635348-3.0605356-3.98068612-1.51887745-.87574614-3.291377-1.11032788-4.98408837-.65539038-1.69554496.4535127-3.1118312 1.53824951-3.9895242 3.05517166-.87769301 1.51693314-1.11136828 3.2826514-.65541942 4.9744464.45309293 1.69320877 1.53880222 3.10635347 3.0605356 3.98209962 1.011633.5828919 2.13440264.88144534 3.27426376.88144534.56994144 0 1.14271676-.07677288 1.70980256-.22746875 1.69556701-.4549372 3.11185326-1.53824952 3.98954626-3.05660717z"/>
    </g>
    <g opacity=".17">
      <path fill="rgb(255,255,255)" fill-rule="evenodd" d="M177.42180082 100.52940504c-1.51887745-.87717094-3.28566513-1.10748928-4.98406602-.65539038-1.69555628.4535127-3.11184223 1.53824952-3.98953553 3.05517166-1.80953783 3.12910595-.73236296 7.14675892 2.4051162 8.95370772 1.03159113.59568207 2.16005058.87859574 3.27427478.87859574 2.2711762-.0014248 4.4853673-1.17714918 5.7021827-3.27696322.877693-1.51692214 1.10851233-3.2840652.6554194-4.9744354-.45594885-1.69179526-1.54165815-3.10635347-3.06339153-3.98068612z"/>
    </g>
    <g opacity=".17">
      <path fill="rgb(255,255,255)" fill-rule="evenodd" d="M150.07638507 85.22792296c-1.80953784 3.13053075-.73236296 7.14818372 2.4051162 8.95513252 1.01163298.5843057 2.13440263.88143434 3.27427477.88143434.56993042 0 1.14556166-.07534808 1.71264717-.22604395 1.69555628-.4535127 3.11184224-1.53824952 3.98953553-3.05518267.87770432-1.51549734 1.10852337-3.2826404.65543044-4.97443539-.45594886-1.69037047-1.5416802-3.10493968-3.06340256-3.97926132-3.13747916-1.8112119-7.1612191-.73216327-8.97360155 2.39835647z"/>
    </g>
    <g opacity=".17">
      <path fill="rgb(255,255,255)" fill-rule="evenodd" d="M200.16500077 126.2958178c-2.5618366 2.55617633-2.5618366 6.71314909 0 9.26931442 1.23961844 1.23970738 2.88957966 1.92210232 4.64496596 1.92210232 1.75540836 0 3.40534752-.68239523 4.64496597-1.92210232 1.24245232-1.23685778 1.9263643-2.88314812 1.9263643-4.63465171s-.68391227-3.39780493-1.9263643-4.63466271c-2.47921455-2.47655387-6.8107171-2.47655387-9.28993193 0z"/>
    </g>
    <g opacity=".17">
      <path fill="rgb(255,255,255)" fill-rule="evenodd" d="M168.2971684 201.15832964c1.75539732 0 3.40534751-.68241724 4.64495493-1.92211333 1.24245233-1.23684677 1.92638635-2.88314812 1.92638635-4.6346407 0-1.7515146-.68393431-3.39781594-1.92638635-4.63466272-2.47921455-2.47941446-6.81070606-2.47941446-9.2899209 0-1.24245233 1.23684678-1.92637532 2.88314813-1.92637532 4.63466271 0 1.75149259.68392328 3.39779394 1.92637532 4.63464071 1.23960742 1.23969638 2.88956864 1.92211333 4.64496596 1.92211333z"/>
    </g>
    <g opacity=".17">
      <path fill="rgb(255,255,255)" fill-rule="evenodd" d="M118.12304135 209.79357034c1.68273768 0 3.36403665-.6397399 4.64496597-1.91641442 1.24103539-1.23684678 1.92494736-2.88314813 1.92494736-4.63466272 0-1.75149258-.68391226-3.39779393-1.92494736-4.6346407-2.47921455-2.47941447-6.80928913-2.47941447-9.29134887 0-2.5618479 2.55615403-2.5618479 6.71312708 0 9.26930342 1.28092961 1.27667451 2.96365626 1.91641442 4.6463829 1.91641442z"/>
    </g>
    <g opacity=".17">
      <path fill="rgb(255,255,255)" fill-rule="evenodd" d="M57.65592299 151.01873497c-2.559003 2.55616533-2.559003 6.71598769 0 9.27215302 1.28092932 1.27666322 2.96365625 1.91641442 4.64638841 1.91641442 1.68272665 0 3.36403113-.6397509 4.64496046-1.91641442 2.56042545-2.55616533 2.56042545-6.71598769 0-9.27215302-2.56185342-2.55332674-6.72949574-2.55332674-9.29134887 0z"/>
    </g>
    <g opacity=".17">
      <path fill="rgb(255,255,255)" fill-rule="evenodd" d="M113.47665845 53.9837996c-2.56041994 2.55617084-2.56041994 6.7145684 0 9.27073923 1.24103539 1.23827707 2.8909966 1.92067752 4.6463829 1.92067752 1.75539733 0 3.40535855-.68240074 4.64496597-1.92067752 2.5618479-2.55617084 2.5618479-6.7145684 0-9.27073923-2.47921455-2.47655386-6.80928913-2.47655386-9.29134887 0z"/>
    </g>
    <g opacity=".17">
      <path fill="rgb(255,255,255)" fill-rule="evenodd" d="M168.2971684 73.81473116c1.75539732 0 3.40534751-.68240624 4.64495493-1.92068303 1.24245233-1.23827707 1.92638635-2.88457842 1.92638635-4.63465721 0-1.75150359-.68393431-3.39779943-1.92638635-4.63607651-2.559003-2.55617083-6.7309179-2.55617083-9.2899209 0-1.24245233 1.23827708-1.92637532 2.88457292-1.92637532 4.6360765 0 1.7500788.68392328 3.39638015 1.92637532 4.63465722 1.23960742 1.23827679 2.88956864 1.92068303 4.64496596 1.92068303z"/>
    </g>
    <g opacity=".17">
      <path fill="rgb(255,255,255)" fill-rule="evenodd" d="M187.29590945 89.63795553c1.68414358 0 3.36545329-.63832612 4.64779984-1.91641443 2.56185893-2.55474053 2.56185893-6.71456289 0-9.27073372-2.56754845-2.55617084-6.73090687-2.55048265-9.2927658 0-2.56185894 2.55617083-2.56185894 6.71599319 0 9.27073372 1.28234654 1.27808831 2.96365625 1.91641443 4.64496596 1.91641443z"/>
    </g>
    <g opacity=".17">
      <path fill="rgb(255,255,255)" fill-rule="evenodd" d="M195.97029385 101.57148683c-2.56183659 2.55475153-2.56183659 6.71457389 0 9.27073922 1.27951268 1.27808802 2.96365626 1.91641443 4.64496597 1.91641443 1.68414358 0 3.3654533-.63832612 4.64779984-1.91641443 2.56185893-2.55616533 2.56185893-6.71598769 0-9.27073922-2.48490436-2.47655387-6.81355097-2.47655387-9.2927658 0z"/>
    </g>
    <g opacity=".17">
      <path fill="rgb(255,255,255)" fill-rule="evenodd" d="M195.97029385 160.29088799c1.27951268 1.27666322 2.96365626 1.91641442 4.64496597 1.91641442 1.68414358 0 3.3654533-.6397509 4.64779984-1.91641442 2.559003-2.55616533 2.559003-6.71598769 0-9.27215302-2.56183659-2.55048815-6.73090687-2.55617634-9.2927658 0-2.55900272 2.55616533-2.55900272 6.71598769 0 9.27215302z"/>
    </g>
    <g opacity=".17">
      <path fill="rgb(255,255,255)" fill-rule="evenodd" d="M187.29590945 184.26883001c1.68414358 0 3.36830922-.6397399 4.64779984-1.91641442 2.559003-2.55615404 2.559003-6.71597669 0-9.27215302-2.56754845-2.55616533-6.73661873-2.55047715-9.2927658 0-2.55900301 2.55617633-2.55900301 6.71599869 0 9.27215302 1.28234654 1.27667452 2.96365625 1.91641442 4.64496596 1.91641442z"/>
    </g>
    <g opacity=".17">
      <path fill="rgb(255,255,255)" fill-rule="evenodd" d="M143.7130711 209.79357034c1.6813097 0 3.3654646-.6397399 4.64496596-1.91641442 2.56184791-2.55617634 2.56184791-6.7131491 0-9.26930343-2.47921455-2.47941446-6.80786145-2.47941446-9.29277683 0-2.5618479 2.55615404-2.5618479 6.7131271 0 9.26930343 1.28235729 1.27667451 2.96365597 1.91641442 4.64781087 1.91641442z"/>
    </g>
    <g opacity=".17">
      <path fill="rgb(255,255,255)" fill-rule="evenodd" d="M75.15146635 184.26883001c1.68272664 0 3.36403113-.6397399 4.64495494-1.91641442 2.56043096-2.55615404 2.56043096-6.71597669 0-9.27215302-2.56184791-2.55332674-6.72948994-2.55332674-9.29134336 0-2.5589975 2.55617633-2.5589975 6.71599869 0 9.27215302 1.28092961 1.27667452 2.96365626 1.91641442 4.64638842 1.91641442z"/>
    </g>
    <g opacity=".17">
      <path fill="rgb(255,255,255)" fill-rule="evenodd" d="M57.62885259 137.42183804c1.68272664 0 3.3654588-.6397509 4.6463829-1.91641442 2.56185342-2.55616533 2.56185342-6.71456289 0-9.27073922-2.56469803-2.55759013-6.73234035-2.55616534-9.29134335 0-2.56185342 2.55617633-2.56185342 6.71457389 0 9.27073922 1.2809241 1.27666351 2.96365625 1.91641442 4.64496045 1.91641442z"/>
    </g>
    <g opacity=".17">
      <path fill="rgb(255,255,255)" fill-rule="evenodd" d="M57.65592299 109.92524937c1.28092932 1.27807702 2.96365625 1.91641443 4.64638841 1.91641443 1.68272665 0 3.36403113-.63833712 4.64496046-1.91641443 1.24102987-1.23828258 1.92494735-2.88458392 1.92494735-4.6360765 0-1.7515036-.68391777-3.39638015-1.92494735-4.63466272-2.48206497-2.47655387-6.80928362-2.47655387-9.29134887 0-2.56042546 2.55475153-2.56042546 6.71456289 0 9.27073922z"/>
    </g>
    <g opacity=".17">
      <path fill="rgb(255,255,255)" fill-rule="evenodd" d="M70.50507822 87.7215411c1.24103538 1.23828258 2.89099109 1.92068853 4.64638842 1.92068853 1.75539732 0 3.40535303-.68240624 4.64495494-1.92068853 1.24103538-1.23685778 1.92495838-2.88314812 1.92495838-4.63465171s-.68392329-3.39780494-1.92495838-4.63608201c-2.56184791-2.55617084-6.72948994-2.55617084-9.29134336 0-2.56042546 2.55617083-2.56042546 6.71599348 0 9.27073372z"/>
    </g>
    <g opacity=".17">
      <path fill="rgb(255,255,255)" fill-rule="evenodd" d="M89.96689113 62.6233144c-2.56184791 2.55617084-2.56184791 6.7145629 0 9.27073373 1.28092932 1.27808252 2.96365625 1.91641443 4.6463829 1.91641443 1.6813097 0 3.36403664-.63833162 4.64496597-1.91641443 2.5618479-2.55617083 2.5618479-6.71456289 0-9.27073372-2.56470355-2.55617083-6.73234587-2.55332674-9.29134887 0z"/>
    </g>
    <g opacity=".17">
      <path fill="rgb(255,255,255)" fill-rule="evenodd" d="M94.1430789 201.15832964c1.75539732 0 3.40535854-.68241724 4.64496596-1.92211333 1.24102436-1.23684677 1.92494735-2.88314812 1.92494735-4.6346407 0-1.7515146-.68392328-3.39781594-1.92494735-4.63466272-2.47921455-2.47941446-6.80928913-2.47941446-9.29134887 0-2.5618479 2.55617633-2.5618479 6.7131491 0 9.26930342 1.24103538 1.23969638 2.8909966 1.92211333 4.6463829 1.92211333z"/>
    </g>
    <g opacity=".17">
      <path fill="rgb(255,255,255)" fill-rule="evenodd" d="M143.7130711 65.17521635c1.75539733 0 3.40535854-.68240074 4.64496596-1.92067752 2.559003-2.55617084 2.559003-6.7145684 0-9.27073923-2.47921455-2.47655386-6.80786145-2.47655386-9.29277683 0-2.559003 2.55617084-2.559003 6.7145684 0 9.27073923 1.24245203 1.23827678 2.89241354 1.92067752 4.64781087 1.92067752z"/>
    </g>
    <g opacity=".17">
      <path fill="rgb(255,255,255)" fill-rule="evenodd" d="M86.85933279 35.38546244c-2.56185894 2.55617083-2.56185894 6.71456839 0 9.27073372 1.2809183 1.27808802 2.96365626 1.91641992 4.64495494 1.91641992 1.68272664 0 3.3654646-.6383316 4.6463829-1.91641992 2.56185893-2.55616533 2.56185893-6.7145629 0-9.27073372-2.56041994-2.55474604-6.72806197-2.55759013-9.29133784 0z"/>
    </g>
    <g opacity=".17">
      <path fill="rgb(255,255,255)" fill-rule="evenodd" d="M63.49774622 49.0178962c-2.56185342 2.55616534-2.56185342 6.7145629 0 9.27073373 1.23960742 1.23827707 2.88956312 1.92068302 4.64496045 1.92068302s3.40535303-.68240624 4.6463829-1.92068302c2.56043097-2.55617084 2.56043097-6.7145684 0-9.27073373-2.48205974-2.47655936-6.81213432-2.47655936-9.29134335 0z"/>
    </g>
    <g opacity=".17">
      <path fill="rgb(255,255,255)" fill-rule="evenodd" d="M56.51035552 73.08683129c0-1.75149809-.68391777-3.39779944-1.92494735-4.63607651-2.56328139-2.55617084-6.7309179-2.55332674-9.29134887 0-1.24102988 1.23827707-1.92494736 2.88457842-1.92494736 4.6360765 0 1.7515036.68391777 3.39779944 1.92494736 4.63465722 1.28092932 1.27808802 2.96365625 1.91641442 4.64638841 1.91641442 1.6813042 0 3.36403114-.6383261 4.64496046-1.91641442 1.24102987-1.23685778 1.92494735-2.88315363 1.92494735-4.63465721z"/>
    </g>
    <g opacity=".17">
      <path fill="rgb(255,255,255)" fill-rule="evenodd" d="M38.25822922 103.68267696c1.68272665 0 3.3654588-.63833712 4.6463829-1.91641443 2.56185342-2.55617633 2.56185342-6.71456289 0-9.27073922-2.56042545-2.55475154-6.72806748-2.55759013-9.29134335 0-2.56185342 2.55617633-2.56185342 6.71456289 0 9.27073922 1.2809238 1.27807731 2.96365626 1.91641443 4.64496045 1.91641443z"/>
    </g>
    <g opacity=".17">
      <path fill="rgb(255,255,255)" fill-rule="evenodd" d="M27.7728735 119.02396477c-1.24103248 1.23684678-1.92495287 2.88314813-1.92495287 4.63465172 0 1.75150358.68392039 3.39780493 1.92495287 4.6360765 1.28092381 1.27666323 2.96365336 1.91641443 4.64495755 1.91641443 1.68272955 0 3.36546171-.63975091 4.64638552-1.91641443 1.24102987-1.23827157 1.92495287-2.88457292 1.92495287-4.6360765 0-1.75150359-.68392329-3.39780494-1.92495287-4.63465172-2.56042517-2.55475153-6.7280672-2.55760084-9.29134307 0z"/>
    </g>
    <g opacity=".17">
      <path fill="rgb(255,255,255)" fill-rule="evenodd" d="M38.92932287 145.1898698c-2.56469803-2.55617633-6.73234035-2.55332673-9.29134335 0-2.56042546 2.55616534-2.56042546 6.7159877 0 9.27215302 1.2809267 1.27666323 2.96365626 1.91641443 4.64496045 1.91641443 1.68273216 0 3.3654588-.63975091 4.6463829-1.91641443 2.56043097-2.55616533 2.56043097-6.71598768 0-9.27215302z"/>
    </g>
    <g opacity=".17">
      <path fill="rgb(255,255,255)" fill-rule="evenodd" d="M37.99321098 170.72312562c-1.24102987 1.23685778-1.92495287 2.88315913-1.92495287 4.63465171 0 1.7515146.68392329 3.39781594 1.92495287 4.63466272 1.24102987 1.23969637 2.89098558 1.92211332 4.64496045 1.92211332 1.75539182 0 3.40535304-.68241724 4.6463829-1.92211332 1.24102988-1.23684678 1.92495288-2.88314813 1.92495288-4.63466272 0-1.75149258-.68392329-3.39779393-1.92495287-4.6346517-2.48205946-2.47939246-6.80928361-2.47939246-9.29134336 0z"/>
    </g>
    <g opacity=".17">
      <path fill="rgb(255,255,255)" fill-rule="evenodd" d="M63.67869762 202.83306064c2.56185342-2.55617634 2.56185342-6.7131491 0-9.26932543-2.56185342-2.55332674-6.72948994-2.55332674-9.29134336 0-1.24102987 1.23686878-1.92495287 2.88317013-1.92495287 4.63466271 0 1.75151459.6839233 3.39779393 1.92495287 4.63466272 1.23960742 1.23969637 2.88956313 1.92209132 4.64496046 1.92209132 1.75539732 0 3.40535332-.68239524 4.6463829-1.92209132z"/>
    </g>
    <g opacity=".17">
      <path fill="rgb(255,255,255)" fill-rule="evenodd" d="M84.4698801 210.26273352c-2.48205945-2.47941446-6.81212851-2.47941446-9.29134336 0-1.24102987 1.23684677-1.92495286 2.88314812-1.92495286 4.6346407 0 1.7515146.68392328 3.39781594 1.92495286 4.63466272 1.23960742 1.23969637 2.88956313 1.92211332 4.64496046 1.92211332 1.75539732 0 3.40535854-.68241724 4.6463829-1.92211332 2.56185864-2.55617633 2.56185864-6.71314938 0-9.26930342z"/>
    </g>
    <g opacity=".17">
      <path fill="rgb(255,255,255)" fill-rule="evenodd" d="M99.70848802 220.8541938c-2.56043097 2.55617633-2.56043097 6.71599869 0 9.27215302 1.28092932 1.27667452 2.96365626 1.91641442 4.64495494 1.91641442 1.68273767 0 3.3654646-.6397399 4.64639393-1.91641442 2.56041994-2.55615404 2.56041994-6.71597669 0-9.27215302-2.56470384-2.55617634-6.73234587-2.55617634-9.29134887 0z"/>
    </g>
    <g opacity=".17">
      <path fill="rgb(255,255,255)" fill-rule="evenodd" d="M126.57516319 224.64721691c-2.56043097 2.55617634-2.56043097 6.7159987 0 9.27215302 1.28092932 1.27667452 2.9622283 1.91643643 4.64496597 1.91643643 1.68272664 0 3.36545329-.63976191 4.64495494-1.91643643 2.5618479-2.55615404 2.5618479-6.71597668 0-9.27215302-2.559003-2.55332674-6.728073-2.55332674-9.28992091 0z"/>
    </g>
    <g opacity=".17">
      <path fill="rgb(255,255,255)" fill-rule="evenodd" d="M153.44183836 220.8541938c-2.5618479 2.55617633-2.5618479 6.71599869 0 9.27215302 1.27950136 1.27667452 2.96365626 1.91641442 4.64496597 1.91641442 1.68129868 0 3.36545329-.6397399 4.64495494-1.91641442 2.559003-2.55615404 2.559003-6.71597669 0-9.27215302-2.559003-2.55332674-6.7309179-2.55332674-9.2899209 0z"/>
    </g>
    <g opacity=".17">
      <path fill="rgb(255,255,255)" fill-rule="evenodd" d="M177.78087033 210.26273352c-2.56185893 2.55615404-2.56185893 6.71312709 0 9.26930342 1.24245233 1.23969637 2.89241355 1.92211332 4.64779985 1.92211332 1.75540835 0 3.40534752-.68241724 4.64496596-1.92211332 2.56185894-2.55617633 2.56185894-6.7131491 0-9.26930342-2.47921484-2.47941475-6.80786145-2.47941475-9.2927658 0z"/>
    </g>
    <g opacity=".17">
      <path fill="rgb(255,255,255)" fill-rule="evenodd" d="M198.5577897 192.77897633c-1.24245232 1.23686878-1.92636429 2.88314812-1.92636429 4.63466271 0 1.75149258.68391226 3.39779393 1.9263643 4.6374903 1.27951267 1.27667452 2.96365625 1.91641443 4.64496596 1.91641443 1.68130971 0 3.3654533-.6397399 4.64496597-1.91641442 1.24245232-1.23969638 1.9263643-2.88599773 1.9263643-4.6374903 0-1.7515146-.68391227-3.39779394-1.9263643-4.63466272-2.56471487-2.55332674-6.73092922-2.55332674-9.28993193 0z"/>
    </g>
    <g opacity=".17">
      <path fill="rgb(255,255,255)" fill-rule="evenodd" d="M218.82748667 182.93814608c1.6813097 0 3.3654533-.6397399 4.64496597-1.91641442 2.56185893-2.55615404 2.56185893-6.71597668 0-9.27215302-2.559003-2.55332674-6.73092893-2.55332674-9.28990988 0-2.56185894 2.55617634-2.56185894 6.71599869 0 9.27215302 1.27949062 1.27667452 2.9636342 1.91641442 4.64494391 1.91641442z"/>
    </g>
    <g opacity=".17">
      <path fill="rgb(255,255,255)" fill-rule="evenodd" d="M232.93336256 146.10827128c-2.559003-2.55332674-6.73092893-2.55332674-9.28993193 0-2.56185893 2.55616533-2.56185893 6.71598769 0 9.27215302 1.27951267 1.27666323 2.96365626 1.91641443 4.64496596 1.91641443 1.68130971 0 3.3654533-.63975091 4.64496597-1.91641443 2.56183659-2.55616533 2.56183659-6.71598769 0-9.27215302z"/>
    </g>
    <g opacity=".17">
      <path fill="rgb(255,255,255)" fill-rule="evenodd" d="M225.37603623 119.02396477c-2.56185893 2.55474054-2.56185893 6.7145629 0 9.27072822 1.27949033 1.27808803 2.96365626 1.91641443 4.64496597 1.91641443 1.68414358 0 3.36545329-.63832611 4.64779984-1.91641443 2.56185893-2.55616533 2.56185893-6.71598768 0-9.27072822-2.48490465-2.47656486-6.81355126-2.47656486-9.29276581 0z"/>
    </g>
    <g opacity=".17">
      <path fill="rgb(255,255,255)" fill-rule="evenodd" d="M220.02149903 92.4955236c-2.559003 2.55617633-2.559003 6.71456289 0 9.27073922 1.28234626 1.27807702 2.96365626 1.91641443 4.64496597 1.91641443 1.68414358 0 3.36830922-.63833712 4.64779984-1.91641443 2.559003-2.55617633 2.559003-6.71456289 0-9.27073922-2.56469281-2.55758984-6.72805095-2.55475154-9.2927658 0z"/>
    </g>
    <g opacity=".17">
      <path fill="rgb(255,255,255)" fill-rule="evenodd" d="M212.29605064 79.64216602c1.7553863 0 3.40534752-.68239523 4.64779984-1.92067752 2.56185893-2.55474604 2.56185893-6.71456289 0-9.27073372-2.56183659-2.55474604-6.73090687-2.55474604-9.2927658 0-2.5618366 2.55617083-2.5618366 6.71598768 0 9.27073372 1.23961844 1.23828229 2.88957966 1.92067752 4.64496596 1.92067752z"/>
    </g>
    <g opacity=".17">
      <path fill="rgb(255,255,255)" fill-rule="evenodd" d="M193.13772165 60.20931295c1.75540835 0 3.40536957-.68240624 4.64496597-1.92068302 1.24245232-1.23827708 1.92638634-2.88457843 1.92638634-4.63465722 0-1.75150358-.68393431-3.39779943-1.92638634-4.6360765-2.47921455-2.47655937-6.8107171-2.47655937-9.28990988 0-1.24247438 1.23827707-1.92638635 2.88457292-1.92638635 4.6360765 0 1.7500788.68391226 3.39638014 1.92638635 4.63465722 1.2395964 1.23827678 2.88955761 1.92068302 4.64494391 1.92068302z"/>
    </g>
    <g opacity=".17">
      <path fill="rgb(255,255,255)" fill-rule="evenodd" d="M170.74503445 46.5726158c1.68415462 0 3.3682982-.63833162 4.64781087-1.91641993 2.559003-2.55616533 2.559003-6.71456289 0-9.27073372-2.56754845-2.55759013-6.7309179-2.55474604-9.29277683 0-2.559003 2.55617083-2.559003 6.71456839 0 9.27073372 1.28235757 1.27808831 2.96365626 1.91641992 4.64496596 1.91641992z"/>
    </g>
    <g opacity=".17">
      <path fill="rgb(255,255,255)" fill-rule="evenodd" d="M145.2376491 39.13015303c1.68129867 0 3.36545329-.63833161 4.64495493-1.91641992 1.24245233-1.23827708 1.92637532-2.88457293 1.92637532-4.63607651 0-1.75150359-.68392328-3.39779944-1.92637532-4.63465722-2.47921455-2.47655675-6.81070606-2.47655675-9.2899209 0-1.24245233 1.23685778-1.92637532 2.88315363-1.92637532 4.63465722 0 1.75150358.68392328 3.39779943 1.92637532 4.6360765 1.27950135 1.27808832 2.96365626 1.91641993 4.64496596 1.91641993z"/>
    </g>
    <g opacity=".17">
      <path fill="rgb(255,255,255)" fill-rule="evenodd" d="M117.59158823 39.13015303c1.68272665 0 3.3654533-.6397564 4.6463829-1.91641992 1.24102436-1.23827708 1.92494736-2.88457293 1.92494736-4.63607651 0-1.75150359-.68392329-3.39779944-1.92494736-4.63465722-2.56185893-2.55617083-6.72950096-2.55617083-9.29134887 0-1.24103538 1.23685778-1.92494735 2.88315363-1.92494735 4.63465722 0 1.75150358.68391226 3.39779943 1.92494735 4.6360765 1.28092932 1.27666352 2.96365597 1.91641993 4.64496597 1.91641993z"/>
    </g>
    <g opacity=".17">
      <path fill="rgb(255,255,255)" fill-rule="evenodd" d="M89.71612497 19.57218386c1.68272665 0 3.36403664-.63833162 4.64495494-1.91641703 1.24103539-1.23827708 1.92495838-2.88457553 1.92495838-4.63607912 0-1.75150098-.68392329-3.39637753-1.92495838-4.63465577-2.48205945-2.4765553-6.81070606-2.4765553-9.2899209 0-1.24102436 1.23685634-1.92494736 2.88315508-1.92494736 4.63465577 0 1.75150359.68392329 3.39780233 1.92494735 4.63607912 1.28092933 1.27808541 2.96223932 1.91641703 4.64496597 1.91641703z"/>
    </g>
    <g opacity=".17">
      <path fill="rgb(255,255,255)" fill-rule="evenodd" d="M64.87271027 31.42467918c1.75539733 0 3.40535303-.68240334 4.6463829-1.92068042 2.56043097-2.55474864 2.56043097-6.71456579 0-9.27073633-2.5618479-2.55617083-6.72948993-2.55617083-9.29134335 0-1.24102987 1.23827708-1.92495287 2.88457553-1.92495287 4.63607912 0 1.75150098.68392329 3.39779943 1.92495287 4.6346572 1.23960713 1.23827709 2.88956283 1.92068043 4.64496045 1.92068043z"/>
    </g>
    <g opacity=".17">
      <path fill="rgb(255,255,255)" fill-rule="evenodd" d="M42.63817143 49.37047005c1.68272665 0 3.36545881-.6397564 4.6463829-1.91641992 1.24102988-1.23827708 1.92495288-2.88457293 1.92495288-4.63607651 0-1.75150359-.68392329-3.39779943-1.92495287-4.63465721-2.56042546-2.55474604-6.72806749-2.55759013-9.29134336 0-1.24102987 1.23685778-1.92495287 2.88315362-1.92495287 4.6346572 0 1.7515036.68392329 3.39779944 1.92495287 4.63607652 1.2809241 1.27666351 2.96365626 1.91641992 4.64496045 1.91641992z"/>
    </g>
    <g opacity=".17">
      <path fill="rgb(255,255,255)" fill-rule="evenodd" d="M24.9232046 71.00265672c1.75539472 0 3.40535304-.68240074 4.64495756-1.92067753 2.56185342-2.55617083 2.56185342-6.71456839 0-9.27073922-2.47920904-2.47655386-6.809281-2.47655386-9.29134336 0-2.56042807 2.55617083-2.56042807 6.71456839 0 9.27073922 1.24102987 1.23827679 2.89098848 1.92067753 4.6463858 1.92067753z"/>
    </g>
    <g opacity=".17">
      <path fill="rgb(255,255,255)" fill-rule="evenodd" d="M13.04720769 96.4221893c1.68272954 0 3.3654588-.6383371 4.64638551-1.91641441 2.56042807-2.55617634 2.56042807-6.7145739 0-9.27073923-2.48206235-2.47655386-6.81213403-2.47655386-9.29134452 0-2.56185196 2.55616533-2.56185196 6.71456289 0 9.27073923 1.28092526 1.2780773 2.96222975 1.91641442 4.644959 1.91641442z"/>
    </g>
    <g opacity=".17">
      <path fill="rgb(255,255,255)" fill-rule="evenodd" d="M7.20681242 123.49654424c1.68272955 0 3.3654588-.63832611 4.64638552-1.91641442 2.56042806-2.55616534 2.56042806-6.7145629 0-9.27073923-2.48206236-2.47655386-6.81213403-2.47655386-9.29134597 0C0 114.86556693 0 119.0239645 2.56185197 121.58012982c1.2809267 1.2780883 2.9622309 1.91641442 4.64496045 1.91641442z"/>
    </g>
    <g opacity=".17">
      <path fill="rgb(255,255,255)" fill-rule="evenodd" d="M11.85319823 149.16202915c2.56185052-2.55617634 2.56185052-6.7131491 0-9.26931443-2.56185342-2.55332674-6.729494-2.55332674-9.29134597 0-1.24103103 1.23685778-1.9249517 2.88314813-1.9249517 4.63465171 0 1.75150359.68392038 3.39780494 1.9249517 4.63466272 1.23960597 1.23969637 2.88956458 1.92210232 4.64496045 1.92210232 1.75539588 0 3.40535274-.68240595 4.64638552-1.92210232z"/>
    </g>
    <g opacity=".17">
      <path fill="rgb(255,255,255)" fill-rule="evenodd" d="M112.94662226 250.03263746c-2.56043097 2.55615404-2.56043097 6.71597668 0 9.27215302 1.28092932 1.27665222 2.96365626 1.91641442 4.64496597 1.91641442 1.68272665 0 3.3654533-.63976191 4.6463829-1.91641442 2.56041994-2.55617634 2.56041994-6.7159987 0-9.27215302-2.56327587-2.55617634-6.7309179-2.55332674-9.29134887 0z"/>
    </g>
    <g opacity=".17">
      <path fill="rgb(255,255,255)" fill-rule="evenodd" d="M140.59268313 250.03263746c-2.5618479 2.55615404-2.5618479 6.71597668 0 9.27215302 1.27950135 1.27665222 2.96365626 1.91641442 4.64496596 1.91641442 1.68129868 0 3.3654533-.63976191 4.64495494-1.91641442 2.5618479-2.55617634 2.5618479-6.7159987 0-9.27215302-2.559003-2.55332674-6.7309179-2.55332674-9.2899209 0z"/>
    </g>
    <g opacity=".17">
      <path fill="rgb(255,255,255)" fill-rule="evenodd" d="M168.68187453 243.02947242c-2.56185893 2.55900364-2.56185893 6.71882628 0 9.27215302 1.28234626 1.27665222 2.96365626 1.91641442 4.64781087 1.91641442 1.68130971 0 3.3654533-.6397619 4.64494392-1.91641442 2.56185893-2.55332674 2.56185893-6.7131491 0-9.27215302-2.56183688-2.55617604-6.73090717-2.55049915-9.29275479 0z"/>
    </g>
    <g opacity=".17">
      <path fill="rgb(255,255,255)" fill-rule="evenodd" d="M192.7159775 231.37459169c-2.559003 2.55615404-2.559003 6.71597668 0 9.27215302 1.28234626 1.27665222 2.96365626 1.91641442 4.64496597 1.91641442 1.68414358 0 3.36830922-.63976191 4.64779984-1.91641442 2.559003-2.55617634 2.559003-6.7159987 0-9.27215302-2.56754874-2.55617634-6.73661873-2.55049915-9.2927658 0z"/>
    </g>
    <g opacity=".17">
      <path fill="rgb(255,255,255)" fill-rule="evenodd" d="M215.06023605 213.64630177c-2.56185893 2.55332674-2.56185893 6.7131491 0 9.27217502 1.28234626 1.27665222 2.96365626 1.91641442 4.64494392 1.91641442 1.68416563 0 3.36830922-.6397619 4.6478219-1.91641442 2.56185893-2.55902593 2.56185893-6.71884828 0-9.27217502-2.56754875-2.55615433-6.73092923-2.55047715-9.29276582 0z"/>
    </g>
    <g opacity=".17">
      <path fill="rgb(255,255,255)" fill-rule="evenodd" d="M232.87066558 192.77897633c-2.56185893 2.55332674-2.56185893 6.71314909 0 9.27215302 1.28234626 1.27667451 2.96365626 1.91641442 4.64494391 1.91641442 1.68416564 0 3.36830923-.6397399 4.6478219-1.91641442 2.56185893-2.55900364 2.56185893-6.71882628 0-9.27215302-2.56754874-2.55617605-6.73092922-2.55047715-9.2927658 0z"/>
    </g>
    <g opacity=".17">
      <path fill="rgb(255,255,255)" fill-rule="evenodd" d="M244.74807073 167.254247c-1.24245232 1.23685778-1.9263643 2.88315913-1.9263643 4.63465171 0 1.75151459.68391227 3.39781594 1.9263643 4.63466272 1.23961845 1.23969637 2.88957967 1.92209132 4.64496597 1.92209132 1.75540835 0 3.40534752-.68239524 4.64496596-1.92209132 1.24245233-1.23684678 1.9263643-2.88314813 1.9263643-4.63466272 0-1.75149258-.68391226-3.39779393-1.9263643-4.63465171-2.47921455-2.47940346-6.81071709-2.47940346-9.28993193 0z"/>
    </g>
    <g opacity=".17">
      <path fill="rgb(255,255,255)" fill-rule="evenodd" d="M259.87981487 140.28224471c-2.56469252-2.55616533-6.728073-2.56185323-9.29276581 0-2.56185894 2.55617634-2.56185894 6.7131491 0 9.26931443 1.28234626 1.27951282 2.96365626 1.91642542 4.64496596 1.91642542 1.68414359 0 3.3654533-.63691231 4.64779985-1.91642542 2.56185893-2.55616534 2.56185893-6.7131381 0-9.26931443z"/>
    </g>
    <g opacity=".17">
      <path fill="rgb(255,255,255)" fill-rule="evenodd" d="M250.58704935 112.30939088c-2.559003 2.55617634-2.559003 6.7145739 0 9.27073923 1.28234626 1.27666322 2.96365626 1.91498962 4.64496596 1.91498962 1.68414359 0 3.3654533-.63832611 4.64779985-1.91498962 2.559003-2.55616534 2.559003-6.7145629 0-9.27073923-2.56469281-2.55758984-6.7280733-2.55474053-9.29276581 0z"/>
    </g>
    <g opacity=".17">
      <path fill="rgb(255,255,255)" fill-rule="evenodd" d="M244.74807073 94.50577489c1.27951268 1.27807702 2.96365626 1.91641442 4.64496597 1.91641442 1.6813097 0 3.36545329-.63833711 4.64496596-1.91641442 1.24245233-1.23828258 1.9263643-2.88458393 1.9263643-4.63607651 0-1.7500898-.68391226-3.39638014-1.9263643-4.63466272-2.47921455-2.47655386-6.81071709-2.47655386-9.28993193 0-1.24245232 1.23828258-1.9263643 2.88457293-1.9263643 4.63466272 0 1.75149258.68391227 3.39779422 1.9263643 4.6360765z"/>
    </g>
    <g opacity=".17">
      <path fill="rgb(255,255,255)" fill-rule="evenodd" d="M236.34725582 70.99839333c1.68414358 0 3.36545329-.63833162 4.64779984-1.91641443 2.559003-2.55617083 2.559003-6.71456839 0-9.27073922-2.56754845-2.55900914-6.7365964-2.55332674-9.29276581 0-2.559003 2.55617083-2.559003 6.71456839 0 9.27073922 1.28234626 1.27808281 2.96365597 1.91641443 4.64496597 1.91641443z"/>
    </g>
    <g opacity=".17">
      <path fill="rgb(255,255,255)" fill-rule="evenodd" d="M219.70517968 50.06850998c1.68416563 0 3.36547563-.63833161 4.6478219-1.91641442 2.56185892-2.55475154 2.56185892-6.7145684 0-9.27073923-2.56754846-2.55474604-6.73092894-2.55190194-9.29276582 0-2.56185893 2.55617083-2.56185893 6.71598769 0 9.27073923 1.28234655 1.2780828 2.96365626 1.91641442 4.64494392 1.91641442z"/>
    </g>
    <g opacity=".17">
      <path fill="rgb(255,255,255)" fill-rule="evenodd" d="M197.36094347 31.42041318c1.68414358 0 3.3654533-.63833161 4.64779984-1.91641442 2.56185893-2.55474864 2.56185893-6.71456579 0-9.27073633-2.56754845-2.55474864-6.73090687-2.55190455-9.2927658 0-2.56185894 2.55617083-2.56185894 6.71598769 0 9.27073633 1.28234625 1.27808252 2.96365596 1.91641442 4.64496596 1.91641442z"/>
    </g>
    <g opacity=".17">
      <path fill="rgb(255,255,255)" fill-rule="evenodd" d="M172.07297577 19.57218386c1.68130971 0 3.3654533-.63833162 4.64496597-1.91641703 1.24245232-1.23827708 1.9263643-2.88457553 1.9263643-4.63607912 0-1.75150098-.68391227-3.39779943-1.9263643-4.63465577-2.47921455-2.4765553-6.8107171-2.4765553-9.2899209 0-1.24246336 1.23685634-1.92638635 2.88315508-1.92638635 4.63465577 0 1.75150359.68392328 3.39780233 1.92638634 4.63607912 1.27950136 1.27808541 2.96364495 1.91641703 4.64495494 1.91641703z"/>
    </g>
    <g opacity=".17">
      <path fill="rgb(255,255,255)" fill-rule="evenodd" d="M145.2376491 13.74474349c1.68129867 0 3.36545329-.63833161 4.64495493-1.91641703 1.24245233-1.23827708 1.92637532-2.88457698 1.92637532-4.63607912 0-1.75150213-.68392328-3.39780088-1.92637532-4.63465721-2.47921455-2.47655531-6.81070606-2.47655531-9.2899209 0-1.24245233 1.23685633-1.92637532 2.88315508-1.92637532 4.63465721 0 1.75150214.68392328 3.39780233 1.92637532 4.63607912 1.27950135 1.27808542 2.96365626 1.91641703 4.64496596 1.91641703z"/>
    </g>
    <g opacity=".17">
      <path fill="rgb(255,255,255)" fill-rule="evenodd" d="M117.59158823 13.74474349c1.68272665 0 3.3654533-.6397538 4.6463829-1.91641703 1.24102436-1.23827708 1.92494736-2.88457698 1.92494736-4.63607912 0-1.75150213-.68392329-3.39780088-1.92494736-4.63465721-2.56185893-2.5547472-6.72950096-2.55759013-9.29134887 0-1.24103538 1.23685633-1.92494735 2.88315508-1.92494735 4.63465721 0 1.75150214.68391226 3.39780233 1.92494735 4.63607912 1.28092932 1.27666322 2.96365597 1.91641703 4.64496597 1.91641703z"/>
    </g>
    <g opacity=".17">
      <path fill="rgb(255,255,255)" fill-rule="evenodd" d="M85.071159 244.2066106c-1.24102435 1.23684677-1.92494735 2.88314812-1.92494735 4.63466271 0 1.75149258.68392329 3.39779393 1.92494735 4.63466271 1.23960743 1.23969638 2.88956864 1.92209132 4.64496597 1.92209132 1.75539733 0 3.40534752-.68239523 4.64495494-1.92209132 1.24103539-1.23686878 1.92495838-2.88317013 1.92495838-4.63466271 0-1.75151459-.68392329-3.39781594-1.92495838-4.63466271-2.47920381-2.47939246-6.81070635-2.47939246-9.2899209 0z"/>
    </g>
    <g opacity=".17">
      <path fill="rgb(255,255,255)" fill-rule="evenodd" d="M60.22774982 231.37459169c-2.56042546 2.55615404-2.56042546 6.71597668 0 9.27215302 1.2809238 1.27665222 2.9622338 1.91641442 4.64496045 1.91641442 1.68273216 0 3.3654588-.63976191 4.6463829-1.91641442 2.559003-2.55617634 2.559003-6.7159987 0-9.27215302-2.5618479-2.55332674-6.72949022-2.55332674-9.29134335 0z"/>
    </g>
    <g opacity=".17">
      <path fill="rgb(255,255,255)" fill-rule="evenodd" d="M37.99321098 214.70687233c-2.56043097 2.55617634-2.56043097 6.7159987 0 9.27215302 1.28092381 1.27667452 2.96365626 1.91643643 4.64496045 1.91643643 1.68272665 0 3.36545881-.63976191 4.6463829-1.91643643 2.56042546-2.55615404 2.56042546-6.71597668 0-9.27215302-2.56470383-2.55615404-6.73234035-2.55332645-9.29134335 0z"/>
    </g>
    <g opacity=".17">
      <path fill="rgb(255,255,255)" fill-rule="evenodd" d="M20.27681909 192.77897633c-2.56042807 2.55332674-2.56042807 6.71314909 0 9.27215302 1.2809267 1.27667451 2.96365626 1.91641442 4.64638551 1.91641442 1.68272926 0 3.36403375-.6397399 4.64495756-1.91641442 1.24103248-1.23969638 1.92495286-2.88599773 1.92495286-4.6374903 0-1.7515146-.68392038-3.39779394-1.92495286-4.63466272-2.56185052-2.55332674-6.72949255-2.55332674-9.29134307 0z"/>
    </g>
    <g opacity=".17">
      <path fill="rgb(255,255,255)" fill-rule="evenodd" d="M17.6935935 167.254247c-2.48206236-2.47940346-6.81213404-2.47940346-9.29134453 0-1.24103103 1.23685778-1.9249517 2.88315913-1.9249517 4.63465171 0 1.75151459.68392038 3.39781594 1.9249517 4.63466272 1.23960597 1.23969637 2.88956458 1.92209132 4.644959 1.92209132 1.75539733 0 3.40535594-.68239524 4.64638552-1.92209132 2.56185313-2.55617634 2.56185313-6.7131491 0-9.26931443z"/>
    </g>
  </g>
</svg>
