<?xml version="1.0" encoding="utf-8"?>
<!-- Generator: Adobe Illustrator 24.1.1, SVG Export Plug-In . SVG Version: 6.00 Build 0)  -->
<svg version="1.1" id="Layer_1" xmlns="http://www.w3.org/2000/svg" xmlns:xlink="http://www.w3.org/1999/xlink" x="0px" y="0px"
	 viewBox="0 0 735 424.3" style="enable-background:new 0 0 735 424.3;" xml:space="preserve">
<style type="text/css">
	.st0{fill:#2252EE;}
	.st1{fill:none;stroke:#939393;stroke-miterlimit:10;}
	.st2{fill:#FFFFFF;}
	.st3{fill:#29266E;}
	.st4{fill:#1A4AE8;}
	.st5{fill:#7F7F7F;}
</style>
<g>
	<path d="M359,97.4l1.7-9.2h2.7l-2.9,13h-2.7l-2.1-8.7l-2.1,8.7H351l-2.9-13h2.7l1.8,9.2l2.1-9.2h2.3L359,97.4z"/>
	<path d="M375,97.4l1.7-9.2h2.7l-2.9,13h-2.7l-2.1-8.7l-2.1,8.7h-2.7l-2.9-13h2.7l1.8,9.2l2.1-9.2h2.3L375,97.4z"/>
	<path d="M391,97.4l1.7-9.2h2.7l-2.9,13h-2.7l-2.1-8.7l-2.1,8.7h-2.7l-2.9-13h2.7l1.8,9.2l2.1-9.2h2.3L391,97.4z"/>
</g>
<g>
	<path d="M417,32.1c-0.1,1.2-0.6,2.2-1.3,2.8s-1.8,1-3.1,1c-0.9,0-1.7-0.2-2.4-0.6c-0.7-0.4-1.2-1-1.6-1.8c-0.4-0.8-0.6-1.7-0.6-2.8
		v-1.1c0-1.1,0.2-2,0.6-2.8s0.9-1.4,1.6-1.9s1.5-0.7,2.5-0.7c1.3,0,2.3,0.3,3,1s1.2,1.6,1.3,2.9h-2c-0.1-0.8-0.3-1.4-0.7-1.8
		c-0.4-0.4-0.9-0.5-1.7-0.5c-0.9,0-1.5,0.3-2,0.9c-0.5,0.6-0.7,1.5-0.7,2.8v1c0,1.2,0.2,2.2,0.7,2.8s1.1,1,1.9,1
		c0.8,0,1.4-0.2,1.7-0.5c0.4-0.3,0.6-0.9,0.7-1.7H417z"/>
	<path d="M420.6,35.8h-1.9v-12h1.9V35.8z"/>
	<path d="M422.3,31.5c0-0.8,0.2-1.6,0.5-2.2c0.3-0.7,0.8-1.2,1.4-1.5c0.6-0.4,1.3-0.5,2-0.5c1.1,0,2.1,0.4,2.8,1.1
		c0.7,0.7,1.1,1.7,1.2,2.9l0,0.4c0,0.8-0.2,1.6-0.5,2.2c-0.3,0.7-0.8,1.2-1.4,1.5c-0.6,0.4-1.3,0.5-2.1,0.5c-1.2,0-2.1-0.4-2.9-1.2
		C422.6,34,422.3,33,422.3,31.5L422.3,31.5z M424.2,31.7c0,0.9,0.2,1.5,0.5,2c0.4,0.5,0.9,0.7,1.5,0.7s1.1-0.2,1.5-0.7
		c0.4-0.5,0.5-1.2,0.5-2.2c0-0.9-0.2-1.5-0.5-2c-0.4-0.5-0.9-0.7-1.5-0.7c-0.6,0-1.1,0.2-1.5,0.7C424.3,30,424.2,30.7,424.2,31.7z"
		/>
	<path d="M436.8,35c-0.6,0.7-1.3,1-2.4,1c-0.9,0-1.6-0.3-2.1-0.8s-0.7-1.3-0.7-2.3v-5.5h1.9v5.4c0,1.1,0.4,1.6,1.3,1.6
		c0.9,0,1.5-0.3,1.9-1v-6.1h1.9v8.4h-1.8L436.8,35z"/>
	<path d="M440.2,31.6c0-1.3,0.3-2.3,0.9-3.1c0.6-0.8,1.4-1.2,2.4-1.2c0.9,0,1.6,0.3,2.2,0.9v-4.3h1.9v12h-1.7l-0.1-0.9
		c-0.6,0.7-1.3,1-2.3,1c-1,0-1.8-0.4-2.4-1.2C440.5,34,440.2,32.9,440.2,31.6z M442.1,31.7c0,0.9,0.2,1.5,0.5,2s0.8,0.7,1.4,0.7
		c0.8,0,1.3-0.3,1.7-1v-3.6c-0.3-0.7-0.9-1-1.7-1c-0.6,0-1.1,0.2-1.4,0.7S442.1,30.7,442.1,31.7z"/>
	<path d="M461,31.7c0,1.3-0.3,2.4-0.9,3.1s-1.4,1.2-2.4,1.2c-1,0-1.8-0.4-2.3-1.1l-0.1,0.9h-1.7v-12h1.9v4.4c0.5-0.6,1.3-1,2.2-1
		c1,0,1.8,0.4,2.4,1.1c0.6,0.8,0.9,1.8,0.9,3.2V31.7z M459.1,31.5c0-0.9-0.2-1.6-0.5-2.1c-0.3-0.5-0.8-0.7-1.4-0.7
		c-0.8,0-1.4,0.4-1.7,1.1v3.5c0.3,0.7,0.9,1.1,1.7,1.1c0.6,0,1-0.2,1.4-0.7c0.3-0.4,0.5-1.1,0.5-2V31.5z"/>
	<path d="M467.6,35.8c-0.1-0.2-0.2-0.4-0.2-0.8c-0.6,0.6-1.3,0.9-2.2,0.9c-0.8,0-1.5-0.2-2.1-0.7c-0.5-0.5-0.8-1.1-0.8-1.8
		c0-0.9,0.3-1.6,1-2.1c0.7-0.5,1.6-0.7,2.9-0.7h1.2v-0.6c0-0.4-0.1-0.8-0.4-1c-0.2-0.3-0.6-0.4-1.1-0.4c-0.4,0-0.8,0.1-1.1,0.3
		s-0.4,0.5-0.4,0.8h-1.9c0-0.5,0.2-0.9,0.5-1.3c0.3-0.4,0.7-0.7,1.3-0.9c0.5-0.2,1.1-0.3,1.8-0.3c1,0,1.8,0.2,2.4,0.7
		c0.6,0.5,0.9,1.2,0.9,2.1v3.8c0,0.8,0.1,1.4,0.3,1.8v0.1H467.6z M465.5,34.5c0.4,0,0.7-0.1,1.1-0.3s0.6-0.4,0.7-0.7v-1.6h-1
		c-0.7,0-1.2,0.1-1.6,0.4c-0.4,0.2-0.5,0.6-0.5,1c0,0.4,0.1,0.7,0.4,0.9C464.8,34.4,465.1,34.5,465.5,34.5z"/>
	<path d="M476,33.5c0-0.3-0.1-0.6-0.4-0.8s-0.7-0.3-1.4-0.5s-1.2-0.3-1.6-0.5c-0.9-0.5-1.4-1.1-1.4-2c0-0.7,0.3-1.3,0.9-1.8
		c0.6-0.5,1.4-0.7,2.3-0.7c1,0,1.8,0.2,2.4,0.7c0.6,0.5,0.9,1.1,0.9,1.9h-1.9c0-0.4-0.1-0.7-0.4-0.9s-0.6-0.4-1.1-0.4
		c-0.4,0-0.8,0.1-1,0.3c-0.3,0.2-0.4,0.5-0.4,0.8c0,0.3,0.1,0.5,0.4,0.7s0.7,0.3,1.5,0.5c0.7,0.2,1.3,0.4,1.8,0.6
		c0.4,0.2,0.7,0.5,0.9,0.8c0.2,0.3,0.3,0.7,0.3,1.2c0,0.8-0.3,1.4-0.9,1.8c-0.6,0.5-1.5,0.7-2.5,0.7c-0.7,0-1.3-0.1-1.8-0.4
		c-0.5-0.3-1-0.6-1.3-1s-0.5-0.9-0.5-1.4h1.8c0,0.4,0.2,0.8,0.5,1c0.3,0.2,0.7,0.4,1.2,0.4c0.5,0,0.9-0.1,1.1-0.3
		C475.8,34.1,476,33.9,476,33.5z"/>
	<path d="M483.2,36c-1.2,0-2.2-0.4-2.9-1.1s-1.1-1.8-1.1-3v-0.2c0-0.8,0.2-1.6,0.5-2.3s0.8-1.2,1.4-1.5s1.2-0.6,2-0.6
		c1.1,0,2,0.4,2.7,1.1c0.6,0.7,0.9,1.8,0.9,3.1v0.8h-5.5c0.1,0.7,0.3,1.2,0.7,1.7s0.9,0.6,1.5,0.6c0.9,0,1.6-0.4,2.1-1.1l1,1
		c-0.3,0.5-0.8,0.9-1.4,1.2C484.5,35.9,483.9,36,483.2,36z M483,28.8c-0.5,0-0.9,0.2-1.3,0.5c-0.3,0.4-0.5,0.9-0.6,1.5h3.6v-0.1
		c0-0.6-0.2-1.1-0.5-1.4C483.9,28.9,483.5,28.8,483,28.8z"/>
	<path d="M487.7,31.6c0-1.3,0.3-2.3,0.9-3.1c0.6-0.8,1.4-1.2,2.4-1.2c0.9,0,1.6,0.3,2.2,0.9v-4.3h1.9v12h-1.7l-0.1-0.9
		c-0.6,0.7-1.3,1-2.3,1c-1,0-1.8-0.4-2.4-1.2C488,34,487.7,32.9,487.7,31.6z M489.6,31.7c0,0.9,0.2,1.5,0.5,2s0.8,0.7,1.4,0.7
		c0.8,0,1.3-0.3,1.7-1v-3.6c-0.3-0.7-0.9-1-1.7-1c-0.6,0-1.1,0.2-1.4,0.7S489.6,30.7,489.6,31.7z"/>
	<path d="M507.9,30.8h-4.7v3.5h5.5v1.6h-7.4V24.5h7.4v1.6h-5.4v3.1h4.7V30.8z"/>
	<path d="M514.4,31.5h-2.2v4.4h-2V24.5h4c1.3,0,2.3,0.3,3,0.9c0.7,0.6,1.1,1.4,1.1,2.6c0,0.8-0.2,1.4-0.6,1.9
		c-0.4,0.5-0.9,0.9-1.5,1.2l2.6,4.7v0.1h-2.1L514.4,31.5z M512.2,29.9h2c0.7,0,1.2-0.2,1.6-0.5c0.4-0.3,0.6-0.8,0.6-1.4
		c0-0.6-0.2-1.1-0.5-1.4c-0.3-0.3-0.9-0.5-1.5-0.5h-2.1V29.9z"/>
	<path d="M522.2,31.6v4.2h-2V24.5h4.3c1.3,0,2.3,0.3,3,1c0.7,0.7,1.1,1.5,1.1,2.6c0,1.1-0.4,2-1.1,2.6c-0.7,0.6-1.8,0.9-3.1,0.9
		H522.2z M522.2,30h2.4c0.7,0,1.2-0.2,1.6-0.5c0.4-0.3,0.6-0.8,0.6-1.4c0-0.6-0.2-1.1-0.6-1.5c-0.4-0.4-0.9-0.6-1.5-0.6h-2.4V30z"/>
</g>
<g id="left_side">
	<polygon class="st0" points="19.7,147.1 86,215.3 216.4,215.3 287.4,147.5 	"/>
	<path class="st1" d="M281.4,410.7H24.3c-10.3,0-18.6-8.3-18.6-18.6V165.2c0-10.3,8.3-18.6,18.6-18.6h257.1
		c10.3,0,18.6,8.3,18.6,18.6v226.9C300.1,402.4,291.7,410.7,281.4,410.7z"/>
	<g>
		<path class="st2" d="M90.3,173.8h-5.2l-1,3H81l5.3-14.4h2.7l5.4,14.4h-3.1L90.3,173.8z M85.9,171.4h3.6l-1.8-5.4L85.9,171.4z"/>
		<path class="st2" d="M106.6,172.6l1.9-10.2h3l-3.2,14.4h-3l-2.3-9.6l-2.3,9.6h-3l-3.2-14.4h3l1.9,10.2l2.4-10.2h2.5L106.6,172.6z"
			/>
		<path class="st2" d="M120.5,173c0-0.6-0.2-1-0.6-1.3c-0.4-0.3-1.1-0.6-2.1-0.9c-1-0.3-1.8-0.7-2.4-1c-1.6-0.9-2.4-2.1-2.4-3.6
			c0-0.8,0.2-1.5,0.7-2.1s1.1-1.1,1.9-1.4s1.7-0.5,2.8-0.5c1,0,1.9,0.2,2.7,0.6c0.8,0.4,1.4,0.9,1.9,1.6s0.7,1.4,0.7,2.3h-3
			c0-0.7-0.2-1.2-0.6-1.5s-1-0.5-1.7-0.5c-0.7,0-1.3,0.2-1.7,0.5s-0.6,0.7-0.6,1.2c0,0.5,0.2,0.9,0.7,1.2s1.2,0.6,2.1,0.9
			c1.7,0.5,2.9,1.1,3.7,1.9s1.2,1.7,1.2,2.8c0,1.2-0.5,2.2-1.4,2.9c-0.9,0.7-2.2,1.1-3.8,1.1c-1.1,0-2.1-0.2-3-0.6
			c-0.9-0.4-1.6-1-2.1-1.7c-0.5-0.7-0.7-1.5-0.7-2.4h3c0,1.6,0.9,2.4,2.8,2.4c0.7,0,1.3-0.1,1.6-0.4
			C120.4,173.9,120.5,173.5,120.5,173z"/>
		<path class="st2" d="M139.2,170.9h-5.7v5.9h-3v-14.4h9.4v2.4h-6.4v3.7h5.7V170.9z"/>
		<path class="st2" d="M147.2,168.8c-0.4-0.1-0.7-0.1-1-0.1c-1.1,0-1.8,0.4-2.1,1.1v7h-2.9v-10.7h2.7l0.1,1.3c0.6-1,1.4-1.5,2.4-1.5
			c0.3,0,0.6,0,0.9,0.1L147.2,168.8z"/>
		<path class="st2" d="M154.4,176.8c-0.1-0.3-0.2-0.6-0.3-1c-0.7,0.8-1.6,1.2-2.7,1.2c-1,0-1.9-0.3-2.6-0.9c-0.7-0.6-1-1.4-1-2.3
			c0-1.1,0.4-2,1.3-2.6c0.8-0.6,2.1-0.9,3.6-0.9h1.3v-0.6c0-0.5-0.1-0.9-0.4-1.2s-0.7-0.4-1.2-0.4c-0.5,0-0.9,0.1-1.1,0.3
			s-0.4,0.5-0.4,0.9h-2.9c0-0.6,0.2-1.2,0.6-1.7s0.9-0.9,1.6-1.2c0.7-0.3,1.5-0.4,2.3-0.4c1.3,0,2.4,0.3,3.1,1
			c0.8,0.7,1.2,1.6,1.2,2.8v4.6c0,1,0.1,1.8,0.4,2.3v0.2H154.4z M152.1,174.8c0.4,0,0.8-0.1,1.2-0.3c0.4-0.2,0.6-0.4,0.8-0.8v-1.8
			H153c-1.4,0-2.2,0.5-2.3,1.5l0,0.2c0,0.4,0.1,0.6,0.4,0.9C151.3,174.7,151.6,174.8,152.1,174.8z"/>
		<path class="st2" d="M161.7,166.1l0.1,1.2c0.8-1,1.8-1.4,3.1-1.4c1.1,0,2,0.3,2.5,1c0.6,0.7,0.8,1.7,0.8,3v6.9h-2.9V170
			c0-0.6-0.1-1-0.4-1.3c-0.3-0.3-0.7-0.4-1.3-0.4c-0.8,0-1.4,0.3-1.8,1v7.5H159v-10.7H161.7z"/>
		<path class="st2" d="M174.3,172.5l-1,1v3.3h-2.9v-15.2h2.9v8.4l0.6-0.7l2.7-3.2h3.4l-3.9,4.5l4.2,6.2H177L174.3,172.5z"/>
		<path class="st2" d="M182,176.8v-8.6h-1.6v-2.1h1.6v-0.9c0-1.2,0.3-2.1,1-2.8c0.7-0.7,1.6-1,2.9-1c0.4,0,0.9,0.1,1.5,0.2l0,2.2
			c-0.2-0.1-0.5-0.1-0.9-0.1c-1.1,0-1.6,0.5-1.6,1.5v0.9h2.1v2.1h-2.1v8.6H182z"/>
		<path class="st2" d="M194.8,175.7c-0.7,0.9-1.7,1.3-2.9,1.3c-1.1,0-2-0.3-2.6-1c-0.6-0.7-0.9-1.6-0.9-2.9v-7h2.9v6.9
			c0,1.1,0.5,1.7,1.5,1.7c1,0,1.6-0.3,2-1v-7.6h2.9v10.7h-2.7L194.8,175.7z"/>
		<path class="st2" d="M205.7,168.8c-0.4-0.1-0.7-0.1-1-0.1c-1.1,0-1.8,0.4-2.1,1.1v7h-2.9v-10.7h2.7l0.1,1.3c0.6-1,1.4-1.5,2.4-1.5
			c0.3,0,0.6,0,0.9,0.1L205.7,168.8z"/>
		<path class="st2" d="M211,163.5v2.6h1.8v2.1H211v5.3c0,0.4,0.1,0.7,0.2,0.8s0.4,0.3,0.9,0.3c0.3,0,0.6,0,0.8-0.1v2.2
			c-0.6,0.2-1.1,0.3-1.7,0.3c-2,0-3-1-3.1-3v-5.8h-1.6v-2.1h1.6v-2.6H211z"/>
		<path class="st2" d="M215.2,180.4l-1.5-0.8l0.4-0.6c0.4-0.8,0.7-1.6,0.7-2.4v-2.2h2.4l0,2c0,0.7-0.2,1.5-0.6,2.2
			C216.2,179.3,215.7,179.9,215.2,180.4z"/>
		<path class="st2" d="M121.3,199.2c-0.5,0.6-1.3,1.1-2.3,1.5c-1,0.4-2.1,0.5-3.2,0.5c-1.2,0-2.3-0.3-3.3-0.8
			c-0.9-0.5-1.7-1.3-2.2-2.4c-0.5-1-0.8-2.2-0.8-3.6v-1c0-1.4,0.2-2.7,0.7-3.7c0.5-1,1.2-1.9,2.1-2.4s2-0.8,3.2-0.8
			c1.7,0,3,0.4,4,1.2s1.5,2,1.7,3.5h-2.9c-0.1-0.8-0.4-1.4-0.9-1.8c-0.5-0.4-1.1-0.6-1.9-0.6c-1,0-1.8,0.4-2.3,1.1
			c-0.5,0.8-0.8,1.9-0.8,3.4v0.9c0,1.5,0.3,2.6,0.9,3.4s1.4,1.2,2.5,1.2c1.1,0,1.9-0.2,2.4-0.7v-2.5h-2.7v-2.2h5.7V199.2z"/>
		<path class="st2" d="M128.5,201.2c-1.6,0-2.8-0.5-3.8-1.4s-1.5-2.2-1.5-3.8v-0.3c0-1.1,0.2-2,0.6-2.9c0.4-0.8,1-1.5,1.8-2
			c0.8-0.5,1.6-0.7,2.6-0.7c1.5,0,2.6,0.5,3.4,1.4c0.8,0.9,1.3,2.2,1.3,3.9v1.2H126c0.1,0.7,0.4,1.3,0.8,1.7
			c0.5,0.4,1.1,0.6,1.8,0.6c1.1,0,2-0.4,2.6-1.2l1.4,1.6c-0.4,0.6-1,1.1-1.7,1.4C130.2,201.1,129.3,201.2,128.5,201.2z M128.1,192.5
			c-0.6,0-1,0.2-1.4,0.6c-0.4,0.4-0.6,0.9-0.7,1.6h4v-0.2c0-0.6-0.2-1.1-0.5-1.5C129.2,192.6,128.7,192.5,128.1,192.5z"/>
		<path class="st2" d="M140.5,193c-0.4-0.1-0.7-0.1-1-0.1c-1.1,0-1.8,0.4-2.1,1.1v7h-2.9v-10.7h2.7l0.1,1.3c0.6-1,1.4-1.5,2.4-1.5
			c0.3,0,0.6,0,0.9,0.1L140.5,193z"/>
		<path class="st2" d="M144.5,190.4l0.1,1.2c0.8-0.9,1.8-1.4,3.1-1.4c1.4,0,2.3,0.5,2.8,1.6c0.8-1.1,1.8-1.6,3.2-1.6
			c1.2,0,2,0.3,2.6,1c0.6,0.7,0.8,1.7,0.8,3v6.8h-2.9v-6.8c0-0.6-0.1-1-0.4-1.3s-0.7-0.4-1.3-0.4c-0.9,0-1.4,0.4-1.8,1.2l0,7.3h-2.9
			v-6.8c0-0.6-0.1-1.1-0.4-1.3c-0.2-0.3-0.7-0.4-1.2-0.4c-0.8,0-1.4,0.3-1.8,1v7.5h-2.9v-10.7H144.5z"/>
		<path class="st2" d="M165.5,201c-0.1-0.3-0.2-0.6-0.3-1c-0.7,0.8-1.6,1.2-2.7,1.2c-1,0-1.9-0.3-2.6-0.9c-0.7-0.6-1-1.4-1-2.3
			c0-1.1,0.4-2,1.3-2.6c0.8-0.6,2.1-0.9,3.6-0.9h1.3v-0.6c0-0.5-0.1-0.9-0.4-1.2s-0.7-0.4-1.2-0.4c-0.5,0-0.9,0.1-1.1,0.3
			s-0.4,0.5-0.4,0.9h-2.9c0-0.6,0.2-1.2,0.6-1.7s0.9-0.9,1.6-1.2c0.7-0.3,1.5-0.4,2.3-0.4c1.3,0,2.4,0.3,3.1,1
			c0.8,0.7,1.2,1.6,1.2,2.8v4.6c0,1,0.1,1.8,0.4,2.3v0.2H165.5z M163.2,199c0.4,0,0.8-0.1,1.2-0.3c0.4-0.2,0.6-0.4,0.8-0.8v-1.8H164
			c-1.4,0-2.2,0.5-2.3,1.5l0,0.2c0,0.4,0.1,0.6,0.4,0.9C162.4,198.9,162.7,199,163.2,199z"/>
		<path class="st2" d="M172.8,190.4l0.1,1.2c0.8-1,1.8-1.4,3.1-1.4c1.1,0,2,0.3,2.5,1c0.6,0.7,0.8,1.7,0.8,3v6.9h-2.9v-6.8
			c0-0.6-0.1-1-0.4-1.3c-0.3-0.3-0.7-0.4-1.3-0.4c-0.8,0-1.4,0.3-1.8,1v7.5h-2.9v-10.7H172.8z"/>
		<path class="st2" d="M185.5,197l2-6.6h3.1l-4.3,12.3l-0.2,0.6c-0.6,1.4-1.7,2.1-3.2,2.1c-0.4,0-0.8-0.1-1.3-0.2V203l0.4,0
			c0.5,0,0.9-0.1,1.2-0.2c0.3-0.2,0.5-0.4,0.6-0.8l0.3-0.9l-3.7-10.7h3.1L185.5,197z"/>
	</g>
	<g>
		<g>
			<path class="st3" d="M242,250c-6.3-0.9-14.7-1.4-23.6-1.4c-8.9,0-17.3,0.5-23.6,1.4c-9.4,1.3-10.7,2.9-10.7,4.4v14.9
				c0,0.7,0.3,1.5,1.9,2.3c-1.3,0.6-1.9,1.4-1.9,2.3v14.9c0,0.7,0.3,1.5,1.9,2.3c-1.3,0.6-1.9,1.4-1.9,2.3v14.9
				c0,1.4,1.3,3.1,10.7,4.4c6.3,0.9,14.7,1.4,23.6,1.4c8.9,0,17.3-0.5,23.6-1.4c9.4-1.3,10.7-2.9,10.7-4.4v-14.9
				c0-0.9-0.6-1.7-1.9-2.3c1.6-0.8,1.9-1.6,1.9-2.3v-14.9c0-0.9-0.6-1.7-1.9-2.3c1.6-0.8,1.9-1.6,1.9-2.3v-14.9
				C252.7,252.9,251.5,251.3,242,250L242,250z M250.4,259.9c-0.2,0.2-1.5,1.1-7,2l0.4,2.3c2.6-0.4,4.6-0.9,6.1-1.4
				c0.2-0.1,0.4-0.1,0.6-0.2v2c-0.2,0.2-1.5,1.1-7,2l0.4,2.3c2.6-0.4,4.6-0.9,6.1-1.4c0.2-0.1,0.4-0.1,0.6-0.2v2
				c-0.3,0.3-2,1.4-9.8,2.4c-6.1,0.8-14,1.2-22.2,1.2c-8.2,0-16.1-0.4-22.2-1.2c-7.8-1-9.5-2.1-9.8-2.4v-12.3
				c1.6,0.7,4.2,1.3,8.4,1.9c6.3,0.9,14.7,1.4,23.6,1.4c8.9,0,17.3-0.5,23.6-1.4c4.3-0.6,6.8-1.2,8.4-1.9L250.4,259.9z M196.2,252.1
				c6.1-0.8,14-1.2,22.2-1.2c8.2,0,16.1,0.4,22.2,1.2c6.7,0.8,8.9,1.8,9.6,2.2c-0.7,0.4-2.9,1.4-9.6,2.2c-6.1,0.8-14,1.2-22.2,1.2
				c-8.2,0-16.1-0.4-22.2-1.2c-6.7-0.8-8.9-1.8-9.6-2.2C187.3,253.9,189.5,252.9,196.2,252.1L196.2,252.1z M250.4,279.3
				c-0.2,0.2-1.5,1.1-7,2l0.4,2.3c2.6-0.4,4.6-0.9,6.1-1.4c0.2-0.1,0.4-0.1,0.6-0.2v2c-0.2,0.2-1.5,1.1-7,2l0.4,2.3
				c2.6-0.4,4.6-0.9,6.1-1.4c0.2-0.1,0.4-0.1,0.6-0.2v2c-0.3,0.3-2,1.4-9.8,2.4c-6.1,0.8-14,1.2-22.2,1.2c-8.2,0-16.1-0.4-22.2-1.2
				c-7.8-1-9.5-2.1-9.8-2.4v-12.3c1.6,0.7,4.2,1.3,8.4,1.9c6.3,0.9,14.7,1.3,23.6,1.3c8.9,0,17.3-0.5,23.6-1.4
				c4.3-0.6,6.8-1.2,8.4-1.9L250.4,279.3z M240.6,310.3c-6.1,0.8-14,1.2-22.2,1.2c-8.2,0-16.1-0.4-22.2-1.2c-7.8-1-9.5-2.1-9.8-2.4
				v-12.3c1.6,0.7,4.2,1.3,8.4,1.9c6.3,0.9,14.7,1.4,23.6,1.4c8.9,0,17.3-0.5,23.6-1.4c4.3-0.6,6.8-1.2,8.4-1.9v3.1
				c-0.2,0.2-1.5,1.1-7,2l0.4,2.3c2.6-0.4,4.6-0.9,6.1-1.4c0.2-0.1,0.4-0.1,0.6-0.2v2c-0.2,0.2-1.5,1.1-7,2l0.4,2.3
				c2.6-0.4,4.6-0.9,6.1-1.4c0.2-0.1,0.4-0.1,0.6-0.2v2C250.2,308.2,248.5,309.3,240.6,310.3L240.6,310.3z M250.2,293.2
				c-0.7,0.4-2.8,1.4-9.6,2.2c-6.1,0.8-14,1.2-22.2,1.2c-8.2,0-16.1-0.4-22.2-1.2c-6.8-0.8-8.9-1.8-9.6-2.2c0.4-0.2,1.2-0.6,3.1-1.1
				c1.4,0.3,3,0.6,5.1,0.9c6.3,0.9,14.7,1.4,23.6,1.4c8.9,0,17.3-0.5,23.6-1.4c2.1-0.3,3.8-0.6,5.1-0.9
				C249,292.6,249.9,293,250.2,293.2L250.2,293.2z M250.2,273.8c-0.7,0.4-2.8,1.4-9.6,2.2c-6.1,0.8-14,1.2-22.2,1.2
				c-8.2,0-16.1-0.4-22.2-1.2c-6.8-0.8-8.9-1.8-9.6-2.2c0.4-0.2,1.2-0.6,3.1-1.1c1.4,0.3,3,0.6,5.1,0.9c6.3,0.9,14.7,1.4,23.6,1.4
				c8.9,0,17.3-0.5,23.6-1.4c2.1-0.3,3.8-0.6,5.1-0.9C249,273.1,249.9,273.5,250.2,273.8L250.2,273.8z"/>
			<path class="st3" d="M238.9,306l0.2,2.3c0.8-0.1,1.6-0.2,2.3-0.3l-0.3-2.3C240.4,305.8,239.7,305.9,238.9,306L238.9,306z"/>
			<path class="st3" d="M238.9,301.4l0.2,2.3c0.8-0.1,1.6-0.2,2.3-0.3l-0.3-2.3C240.4,301.2,239.7,301.3,238.9,301.4L238.9,301.4z"
				/>
			<path class="st3" d="M238.9,286.5l0.2,2.3c0.8-0.1,1.6-0.2,2.3-0.3l-0.3-2.3C240.4,286.3,239.7,286.4,238.9,286.5L238.9,286.5z"
				/>
			<path class="st3" d="M238.9,281.9l0.2,2.3c0.8-0.1,1.6-0.2,2.3-0.3l-0.3-2.3C240.4,281.8,239.7,281.9,238.9,281.9L238.9,281.9z"
				/>
			<path class="st3" d="M238.9,267.1l0.2,2.3c0.8-0.1,1.6-0.2,2.3-0.3l-0.3-2.3C240.4,266.9,239.7,267,238.9,267.1L238.9,267.1z"/>
			<path class="st3" d="M238.9,262.5l0.2,2.3c0.8-0.1,1.6-0.2,2.3-0.3l-0.3-2.3C240.4,262.3,239.7,262.4,238.9,262.5L238.9,262.5z"
				/>
			<path class="st3" d="M210.5,262.2c-1.9-0.1-3.9-0.2-5.7-0.3v0c-0.3,0-0.6,0.1-0.9,0.3c-0.2,0.2-0.4,0.5-0.4,0.8v5.7
				c0,0.6,0.5,1.1,1.1,1.1c1.8,0.1,3.8,0.2,5.8,0.3c0,0,0,0,0,0c0.6,0,1.1-0.5,1.1-1.1v-5.7C211.6,262.7,211.1,262.2,210.5,262.2
				L210.5,262.2z M209.3,267.9c-1.2,0-2.3-0.1-3.4-0.2v-3.4c1.1,0.1,2.3,0.1,3.4,0.2V267.9z"/>
			<path class="st3" d="M220.7,262.3L220.7,262.3c-0.7,0-1.5,0-2.3,0c-1.1,0-2.3,0-3.4,0h0c-0.3,0-0.6,0.1-0.8,0.3
				c-0.2,0.2-0.3,0.5-0.3,0.8v5.7c0,0.6,0.5,1.1,1.1,1.1c1.1,0,2.3,0,3.4,0c0.7,0,1.5,0,2.3,0c0.6,0,1.1-0.5,1.1-1.1v-5.7
				C221.9,262.8,221.3,262.3,220.7,262.3L220.7,262.3z M219.6,268.1c-0.4,0-0.8,0-1.1,0c-0.8,0-1.5,0-2.3,0v-3.4c0.8,0,1.5,0,2.3,0
				c0.4,0,0.8,0,1.1,0V268.1z"/>
			<path class="st3" d="M230.9,262c-1.8,0.1-3.7,0.2-5.7,0.2c-0.6,0-1.1,0.5-1.1,1.1v5.7c0,0.6,0.5,1.1,1.1,1.1c0,0,0,0,0,0
				c2-0.1,3.9-0.1,5.8-0.3h0c0.6,0,1.1-0.5,1.1-1.1v-5.7c0-0.3-0.1-0.6-0.4-0.8C231.6,262.1,231.3,262,230.9,262L230.9,262z
				 M229.9,267.8c-1.1,0.1-2.3,0.1-3.4,0.2v-3.4c1.2,0,2.3-0.1,3.4-0.1V267.8z"/>
			<path class="st3" d="M210.5,281.6c-1.9-0.1-3.9-0.2-5.7-0.3c-0.3,0-0.6,0.1-0.9,0.3c-0.2,0.2-0.4,0.5-0.4,0.8v5.7
				c0,0.6,0.5,1.1,1.1,1.1c1.8,0.1,3.8,0.2,5.8,0.3c0,0,0,0,0,0c0.6,0,1.1-0.5,1.1-1.1v-5.7C211.6,282.2,211.1,281.7,210.5,281.6
				L210.5,281.6z M209.3,287.3c-1.2,0-2.3-0.1-3.4-0.2v-3.4c1.1,0.1,2.3,0.1,3.4,0.2V287.3z"/>
			<path class="st3" d="M220.7,281.8L220.7,281.8c-0.7,0-1.5,0-2.3,0c-1.1,0-2.3,0-3.4,0h0c-0.3,0-0.6,0.1-0.8,0.3
				c-0.2,0.2-0.3,0.5-0.3,0.8v5.7v0c0,0.6,0.5,1.1,1.1,1.1c1.1,0,2.3,0,3.4,0c0.7,0,1.5,0,2.3,0c0.6,0,1.1-0.5,1.1-1.1v-5.7
				C221.9,282.3,221.3,281.8,220.7,281.8L220.7,281.8z M219.6,287.5c-0.4,0-0.8,0-1.1,0c-0.8,0-1.5,0-2.3,0v-3.4c0.8,0,1.5,0,2.3,0
				c0.4,0,0.8,0,1.1,0V287.5z"/>
			<path class="st3" d="M230.9,281.4c-1.8,0.1-3.7,0.2-5.7,0.2c-0.6,0-1.1,0.5-1.1,1.1v5.7c0,0.6,0.5,1.1,1.1,1.1c0,0,0,0,0,0
				c2-0.1,3.9-0.1,5.8-0.3l0,0c0.6,0,1.1-0.5,1.1-1.1v-5.7c0-0.3-0.1-0.6-0.4-0.8C231.6,281.5,231.3,281.4,230.9,281.4L230.9,281.4z
				 M229.9,287.2c-1.1,0.1-2.3,0.1-3.4,0.2v-3.4c1.2,0,2.3-0.1,3.4-0.1V287.2z"/>
			<path class="st3" d="M210.5,301.1c-1.9-0.1-3.9-0.2-5.7-0.3v0c-0.3,0-0.6,0.1-0.9,0.3c-0.2,0.2-0.4,0.5-0.4,0.8v5.7
				c0,0.6,0.5,1.1,1.1,1.1c1.8,0.1,3.8,0.2,5.8,0.3c0,0,0,0,0,0c0.6,0,1.1-0.5,1.1-1.1v-5.7C211.6,301.6,211.1,301.1,210.5,301.1
				L210.5,301.1z M209.3,306.8c-1.2,0-2.3-0.1-3.4-0.2v-3.4c1.1,0.1,2.3,0.1,3.4,0.2V306.8z"/>
			<path class="st3" d="M220.7,301.2L220.7,301.2c-0.7,0-1.5,0-2.3,0c-1.1,0-2.3,0-3.4,0h0c-0.3,0-0.6,0.1-0.8,0.3
				c-0.2,0.2-0.3,0.5-0.3,0.8v5.7c0,0.6,0.5,1.1,1.1,1.1c1.1,0,2.3,0,3.4,0c0.7,0,1.5,0,2.3,0c0.6,0,1.1-0.5,1.1-1.1v-5.7
				C221.9,301.7,221.3,301.2,220.7,301.2L220.7,301.2z M219.6,306.9c-0.4,0-0.8,0-1.1,0c-0.8,0-1.5,0-2.3,0v-3.4c0.8,0,1.5,0,2.3,0
				c0.4,0,0.8,0,1.1,0V306.9z"/>
			<path class="st3" d="M230.9,300.9c-1.8,0.1-3.7,0.2-5.7,0.2c-0.6,0-1.1,0.5-1.1,1.1v5.7c0,0.6,0.5,1.1,1.1,1.1c0,0,0,0,0,0
				c2-0.1,3.9-0.1,5.8-0.3h0c0.6,0,1.1-0.5,1.1-1.1V302c0-0.3-0.1-0.6-0.4-0.8C231.6,301,231.3,300.9,230.9,300.9L230.9,300.9z
				 M229.9,306.6c-1.1,0.1-2.3,0.1-3.4,0.2v-3.4c1.2,0,2.3-0.1,3.4-0.1V306.6z"/>
		</g>
	</g>
	<g>
		<g>
			<path class="st4" d="M101.3,335.5c-0.4,0-0.7,0.3-0.7,0.7c0,0.7-0.3,1.3-0.7,1.8c-0.5,0.5-1.1,0.7-1.8,0.7H57.2v-49.9l40.1,0.4h0
				v0c0.4,0,0.7-0.3,0.7-0.7c0-0.4-0.3-0.7-0.7-0.7l-55.1-0.5V283c0-0.7,0.3-1.3,0.7-1.8c0.5-0.5,1.1-0.7,1.8-0.7h3.2
				c0.4,0,0.7-0.3,0.7-0.7c0-0.4-0.3-0.7-0.7-0.7h-3.2c-1,0-2,0.4-2.8,1.1C41.4,281,41,282,41,283v53.1c0,1,0.4,2,1.1,2.8
				c0.7,0.7,1.7,1.1,2.8,1.1H98c1,0,2-0.4,2.8-1.1c0.7-0.7,1.1-1.7,1.1-2.8C101.9,335.8,101.6,335.5,101.3,335.5L101.3,335.5z
				 M42.3,336.1l0-47.5l13.5,0.1v49.9h-11c-0.7,0-1.3-0.3-1.8-0.7C42.6,337.5,42.3,336.8,42.3,336.1L42.3,336.1z"/>
			<path class="st4" d="M98,279.1H52c-0.4,0-0.7,0.3-0.7,0.7c0,0.4,0.3,0.7,0.7,0.7h46c0.7,0,1.3,0.3,1.8,0.7
				c0.5,0.5,0.7,1.1,0.7,1.8v49.3c0,0.4,0.3,0.7,0.7,0.7c0.4,0,0.7-0.3,0.7-0.7V283c0-1-0.4-2-1.1-2.8
				C100.1,279.5,99.1,279.1,98,279.1L98,279.1z"/>
			<path class="st4" d="M49.1,291.1c-1,0-2,0.4-2.8,1.1c-0.7,0.7-1.1,1.7-1.2,2.8c0,1,0.4,2,1.1,2.8c0.7,0.7,1.7,1.1,2.8,1.1
				c1,0,2-0.4,2.8-1.1C52.6,297,53,296,53,295c0-1-0.4-2-1.2-2.8C51.1,291.5,50.2,291.1,49.1,291.1L49.1,291.1z M49.1,297.6
				c-0.7,0-1.3-0.3-1.8-0.7c-0.5-0.5-0.7-1.1-0.7-1.8c0-0.7,0.3-1.3,0.7-1.8c0.5-0.5,1.1-0.7,1.8-0.7c0.7,0,1.3,0.3,1.8,0.7
				c0.5,0.5,0.7,1.1,0.7,1.8c0,0.7-0.3,1.3-0.7,1.8C50.4,297.3,49.8,297.6,49.1,297.6L49.1,297.6z"/>
			<path class="st4" d="M49.1,303.3h-3.2c-0.4,0-0.7,0.3-0.7,0.7c0,0.4,0.3,0.7,0.7,0.7h3.2c0.4,0,0.7-0.3,0.7-0.7
				C49.8,303.6,49.5,303.3,49.1,303.3z"/>
			<path class="st4" d="M49.1,307.4h-3.2c-0.4,0-0.7,0.3-0.7,0.7c0,0.4,0.3,0.7,0.7,0.7h3.2c0.4,0,0.7-0.3,0.7-0.7
				C49.8,307.7,49.5,307.4,49.1,307.4z"/>
			<path class="st4" d="M49.1,311.6h-3.2c-0.4,0-0.7,0.3-0.7,0.7c0,0.4,0.3,0.7,0.7,0.7h3.2c0.4,0,0.7-0.3,0.7-0.7
				C49.8,311.9,49.5,311.6,49.1,311.6z"/>
			<path class="st4" d="M49.1,315.7h-3.2c-0.4,0-0.7,0.3-0.7,0.7c0,0.4,0.3,0.7,0.7,0.7h3.2c0.4,0,0.7-0.3,0.7-0.7
				C49.8,316,49.5,315.7,49.1,315.7z"/>
			<path class="st4" d="M49.1,319.8h-3.2c-0.4,0-0.7,0.3-0.7,0.7s0.3,0.7,0.7,0.7h3.2c0.4,0,0.7-0.3,0.7-0.7S49.5,319.8,49.1,319.8z
				"/>
			<path class="st4" d="M49.1,323.9h-3.2c-0.4,0-0.7,0.3-0.7,0.7c0,0.4,0.3,0.7,0.7,0.7h3.2c0.4,0,0.7-0.3,0.7-0.7
				C49.8,324.2,49.5,323.9,49.1,323.9z"/>
			<path class="st4" d="M65.1,291.2c-0.1-0.1-0.3-0.2-0.5-0.2c-0.2,0-0.3,0.1-0.5,0.2l-3.6,4.3c-0.2,0.3-0.2,0.6,0,0.9l3.6,4.3
				c0.2,0.3,0.7,0.3,1,0.1s0.3-0.7,0.1-1L62,296l3.2-3.8C65.4,291.9,65.4,291.5,65.1,291.2L65.1,291.2z"/>
			<path class="st4" d="M74.3,300.8c0.1,0.1,0.3,0.2,0.5,0.2c0.2,0,0.3-0.1,0.5-0.2l3.6-4.3h0c0.2-0.3,0.2-0.6,0-0.9l-3.6-4.3h0
				c-0.2-0.3-0.7-0.3-1-0.1c-0.3,0.2-0.3,0.7-0.1,1l3.2,3.8l-3.2,3.8C74,300.2,74.1,300.6,74.3,300.8L74.3,300.8z"/>
			<path class="st4" d="M68.2,301c0.3,0,0.5-0.2,0.6-0.4l3.1-8.6c0.1-0.4-0.1-0.7-0.4-0.9c-0.4-0.1-0.7,0.1-0.9,0.4l-3.1,8.6
				c-0.1,0.2,0,0.4,0.1,0.6C67.7,300.9,67.9,301,68.2,301L68.2,301z"/>
			<path class="st4" d="M61.1,305.9h21c0.4,0,0.7-0.3,0.7-0.7c0-0.4-0.3-0.7-0.7-0.7h-21c-0.4,0-0.7,0.3-0.7,0.7
				C60.4,305.6,60.7,305.9,61.1,305.9z"/>
			<path class="st4" d="M88.8,310.9c0-0.4-0.3-0.7-0.7-0.7H71.5c-0.4,0-0.7,0.3-0.7,0.7c0,0.4,0.3,0.7,0.7,0.7h16.7
				C88.5,311.6,88.8,311.3,88.8,310.9z"/>
			<path class="st4" d="M61.1,311.6H67c0.4,0,0.7-0.3,0.7-0.7c0-0.4-0.3-0.7-0.7-0.7h-5.9c-0.4,0-0.7,0.3-0.7,0.7
				C60.4,311.3,60.7,311.6,61.1,311.6z"/>
			<path class="st4" d="M61.1,317.2h10.5c0.4,0,0.7-0.3,0.7-0.7c0-0.4-0.3-0.7-0.7-0.7H61.1c-0.4,0-0.7,0.3-0.7,0.7
				C60.4,316.9,60.7,317.2,61.1,317.2z"/>
			<path class="st4" d="M95.4,322.1c0-0.2-0.1-0.4-0.2-0.5c-0.1-0.1-0.3-0.2-0.5-0.2H81.6c-0.4,0-0.7,0.3-0.7,0.7
				c0,0.4,0.3,0.7,0.7,0.7h13.1C95.1,322.8,95.4,322.5,95.4,322.1L95.4,322.1z"/>
			<path class="st4" d="M70.6,321.4c-0.4,0-0.7,0.3-0.7,0.7c0,0.4,0.3,0.7,0.7,0.7H77h0c0.4,0,0.7-0.3,0.7-0.7
				c0-0.4-0.3-0.7-0.7-0.7H70.6z"/>
			<path class="st4" d="M61.1,322.8h5.2c0.4,0,0.7-0.3,0.7-0.7c0-0.4-0.3-0.7-0.7-0.7h-5.2c-0.4,0-0.7,0.3-0.7,0.7
				C60.4,322.5,60.7,322.8,61.1,322.8z"/>
			<path class="st4" d="M87.5,327.1c-0.4,0-0.7,0.3-0.7,0.7c0,0.4,0.3,0.7,0.7,0.7h3c0.4,0,0.7-0.3,0.7-0.7c0-0.4-0.3-0.7-0.7-0.7
				H87.5z"/>
			<path class="st4" d="M84,327.1H61.1c-0.4,0-0.7,0.3-0.7,0.7c0,0.4,0.3,0.7,0.7,0.7H84c0.4,0,0.7-0.3,0.7-0.7
				C84.7,327.4,84.4,327.1,84,327.1z"/>
			<path class="st4" d="M84,332.7H61.1c-0.4,0-0.7,0.3-0.7,0.7c0,0.4,0.3,0.7,0.7,0.7H84c0.4,0,0.7-0.3,0.7-0.7
				C84.7,333,84.4,332.7,84,332.7z"/>
		</g>
	</g>
	<g>
		<path d="M30.3,362.5c-1.3-0.4-2.3-0.9-2.9-1.4s-0.9-1.3-0.9-2.1c0-0.9,0.4-1.7,1.1-2.3s1.7-0.9,2.9-0.9c0.8,0,1.5,0.2,2.2,0.5
			c0.6,0.3,1.1,0.7,1.5,1.3c0.3,0.6,0.5,1.2,0.5,1.8h-1.6c0-0.7-0.2-1.3-0.7-1.7c-0.5-0.4-1.1-0.6-1.9-0.6c-0.8,0-1.4,0.2-1.8,0.5
			S28,358.4,28,359c0,0.5,0.2,0.9,0.6,1.2c0.4,0.3,1.1,0.6,2.1,0.9c1,0.3,1.8,0.6,2.3,0.9c0.6,0.3,1,0.7,1.2,1.2
			c0.3,0.4,0.4,1,0.4,1.6c0,1-0.4,1.7-1.1,2.3c-0.7,0.6-1.7,0.9-3,0.9c-0.8,0-1.6-0.2-2.3-0.5s-1.2-0.7-1.6-1.3
			c-0.4-0.5-0.6-1.2-0.6-1.8h1.6c0,0.7,0.3,1.3,0.8,1.7c0.5,0.4,1.2,0.6,2.1,0.6c0.8,0,1.5-0.2,1.9-0.5c0.4-0.3,0.7-0.8,0.7-1.4
			c0-0.6-0.2-1-0.6-1.3C32.1,363.1,31.4,362.8,30.3,362.5z"/>
		<path d="M36,363.3c0-0.9,0.2-1.6,0.5-2.3s0.8-1.2,1.4-1.6c0.6-0.4,1.3-0.6,2.1-0.6c1.2,0,2.2,0.4,2.9,1.2s1.1,1.9,1.1,3.3v0.1
			c0,0.9-0.2,1.6-0.5,2.3s-0.8,1.2-1.4,1.6s-1.3,0.6-2.1,0.6c-1.2,0-2.2-0.4-2.9-1.2c-0.7-0.8-1.1-1.9-1.1-3.3V363.3z M37.6,363.5
			c0,1,0.2,1.8,0.7,2.3c0.5,0.6,1.1,0.9,1.8,0.9c0.8,0,1.4-0.3,1.8-0.9c0.4-0.6,0.7-1.4,0.7-2.5c0-1-0.2-1.7-0.7-2.3
			c-0.5-0.6-1.1-0.9-1.8-0.9c-0.7,0-1.3,0.3-1.8,0.9C37.8,361.5,37.6,362.4,37.6,363.5z"/>
		<path d="M51.4,366.9c-0.6,0.7-1.4,1-2.6,1c-0.9,0-1.7-0.3-2.1-0.8c-0.5-0.5-0.7-1.3-0.7-2.4V359h1.5v5.7c0,1.3,0.5,2,1.6,2
			c1.1,0,1.9-0.4,2.3-1.3V359h1.5v8.8h-1.4L51.4,366.9z"/>
		<path d="M59.4,360.3c-0.2,0-0.5-0.1-0.7-0.1c-1,0-1.7,0.4-2,1.3v6.2h-1.5V359h1.5l0,1c0.5-0.8,1.2-1.2,2.1-1.2
			c0.3,0,0.5,0,0.7,0.1V360.3z"/>
		<path d="M64.1,366.7c0.5,0,1-0.2,1.4-0.5s0.6-0.7,0.7-1.2h1.4c0,0.5-0.2,1-0.5,1.4c-0.3,0.5-0.7,0.8-1.3,1.1
			c-0.5,0.3-1.1,0.4-1.7,0.4c-1.2,0-2.1-0.4-2.9-1.2c-0.7-0.8-1.1-1.9-1.1-3.3v-0.3c0-0.9,0.2-1.6,0.5-2.3c0.3-0.7,0.8-1.2,1.4-1.6
			c0.6-0.4,1.3-0.6,2.1-0.6c1,0,1.8,0.3,2.5,0.9c0.7,0.6,1,1.4,1,2.3h-1.4c0-0.6-0.3-1-0.6-1.4c-0.4-0.4-0.9-0.5-1.4-0.5
			c-0.8,0-1.4,0.3-1.8,0.8c-0.4,0.5-0.6,1.3-0.6,2.4v0.3c0,1,0.2,1.8,0.6,2.3S63.3,366.7,64.1,366.7z"/>
		<path d="M72.9,368c-1.2,0-2.2-0.4-2.9-1.2c-0.7-0.8-1.1-1.8-1.1-3.1v-0.3c0-0.9,0.2-1.7,0.5-2.3c0.3-0.7,0.8-1.2,1.4-1.6
			c0.6-0.4,1.2-0.6,1.9-0.6c1.1,0,2,0.4,2.7,1.1s1,1.8,1,3.2v0.6h-6c0,0.9,0.3,1.6,0.8,2.1s1.1,0.8,1.8,0.8c0.5,0,1-0.1,1.3-0.3
			c0.4-0.2,0.7-0.5,1-0.9l0.9,0.7C75.5,367.4,74.4,368,72.9,368z M72.8,360.1c-0.6,0-1.1,0.2-1.5,0.7s-0.7,1.1-0.8,1.9h4.4v-0.1
			c0-0.8-0.2-1.4-0.6-1.8C73.9,360.3,73.4,360.1,72.8,360.1z"/>
		<path d="M85.8,366.7c0.5,0,1-0.2,1.4-0.5s0.6-0.7,0.7-1.2h1.4c0,0.5-0.2,1-0.5,1.4c-0.3,0.5-0.7,0.8-1.3,1.1
			c-0.5,0.3-1.1,0.4-1.7,0.4c-1.2,0-2.1-0.4-2.9-1.2c-0.7-0.8-1.1-1.9-1.1-3.3v-0.3c0-0.9,0.2-1.6,0.5-2.3c0.3-0.7,0.8-1.2,1.4-1.6
			c0.6-0.4,1.3-0.6,2.1-0.6c1,0,1.8,0.3,2.5,0.9c0.7,0.6,1,1.4,1,2.3h-1.4c0-0.6-0.3-1-0.6-1.4c-0.4-0.4-0.9-0.5-1.4-0.5
			c-0.8,0-1.4,0.3-1.8,0.8c-0.4,0.5-0.6,1.3-0.6,2.4v0.3c0,1,0.2,1.8,0.6,2.3S85,366.7,85.8,366.7z"/>
		<path d="M90.5,363.3c0-0.9,0.2-1.6,0.5-2.3s0.8-1.2,1.4-1.6c0.6-0.4,1.3-0.6,2.1-0.6c1.2,0,2.2,0.4,2.9,1.2s1.1,1.9,1.1,3.3v0.1
			c0,0.9-0.2,1.6-0.5,2.3s-0.8,1.2-1.4,1.6s-1.3,0.6-2.1,0.6c-1.2,0-2.2-0.4-2.9-1.2c-0.7-0.8-1.1-1.9-1.1-3.3V363.3z M92,363.5
			c0,1,0.2,1.8,0.7,2.3c0.5,0.6,1.1,0.9,1.8,0.9c0.8,0,1.4-0.3,1.8-0.9c0.4-0.6,0.7-1.4,0.7-2.5c0-1-0.2-1.7-0.7-2.3
			c-0.5-0.6-1.1-0.9-1.8-0.9c-0.7,0-1.3,0.3-1.8,0.9C92.3,361.5,92,362.4,92,363.5z"/>
		<path d="M100.1,363.3c0-1.3,0.3-2.4,1-3.3c0.6-0.8,1.5-1.2,2.5-1.2c1,0,1.8,0.4,2.4,1.1v-4.6h1.5v12.5h-1.4l-0.1-0.9
			c-0.6,0.7-1.4,1.1-2.5,1.1c-1,0-1.8-0.4-2.5-1.3c-0.6-0.8-1-1.9-1-3.3V363.3z M101.6,363.5c0,1,0.2,1.8,0.6,2.3s1,0.8,1.7,0.8
			c1,0,1.6-0.4,2.1-1.3v-4c-0.4-0.8-1.1-1.2-2.1-1.2c-0.7,0-1.3,0.3-1.7,0.9S101.6,362.4,101.6,363.5z"/>
		<path d="M113.5,368c-1.2,0-2.2-0.4-2.9-1.2c-0.7-0.8-1.1-1.8-1.1-3.1v-0.3c0-0.9,0.2-1.7,0.5-2.3c0.3-0.7,0.8-1.2,1.4-1.6
			c0.6-0.4,1.2-0.6,1.9-0.6c1.1,0,2,0.4,2.7,1.1s1,1.8,1,3.2v0.6h-6c0,0.9,0.3,1.6,0.8,2.1s1.1,0.8,1.8,0.8c0.5,0,1-0.1,1.3-0.3
			c0.4-0.2,0.7-0.5,1-0.9l0.9,0.7C116,367.4,114.9,368,113.5,368z M113.3,360.1c-0.6,0-1.1,0.2-1.5,0.7s-0.7,1.1-0.8,1.9h4.4v-0.1
			c0-0.8-0.2-1.4-0.6-1.8C114.4,360.3,113.9,360.1,113.3,360.1z"/>
		<path d="M58.5,386.7c0.5,0,1-0.2,1.4-0.5s0.6-0.7,0.7-1.2H62c0,0.5-0.2,1-0.5,1.4c-0.3,0.5-0.7,0.8-1.3,1.1
			c-0.5,0.3-1.1,0.4-1.7,0.4c-1.2,0-2.1-0.4-2.9-1.2c-0.7-0.8-1.1-1.9-1.1-3.3v-0.3c0-0.9,0.2-1.6,0.5-2.3c0.3-0.7,0.8-1.2,1.4-1.6
			c0.6-0.4,1.3-0.6,2.1-0.6c1,0,1.8,0.3,2.5,0.9c0.7,0.6,1,1.4,1,2.3h-1.4c0-0.6-0.3-1-0.6-1.4c-0.4-0.4-0.9-0.5-1.4-0.5
			c-0.8,0-1.4,0.3-1.8,0.8c-0.4,0.5-0.6,1.3-0.6,2.4v0.3c0,1,0.2,1.8,0.6,2.3S57.7,386.7,58.5,386.7z"/>
		<path d="M63.3,383.3c0-0.9,0.2-1.6,0.5-2.3s0.8-1.2,1.4-1.6c0.6-0.4,1.3-0.6,2.1-0.6c1.2,0,2.2,0.4,2.9,1.2s1.1,1.9,1.1,3.3v0.1
			c0,0.9-0.2,1.6-0.5,2.3s-0.8,1.2-1.4,1.6s-1.3,0.6-2.1,0.6c-1.2,0-2.2-0.4-2.9-1.2c-0.7-0.8-1.1-1.9-1.1-3.3V383.3z M64.8,383.5
			c0,1,0.2,1.8,0.7,2.3c0.5,0.6,1.1,0.9,1.8,0.9c0.8,0,1.4-0.3,1.8-0.9c0.4-0.6,0.7-1.4,0.7-2.5c0-1-0.2-1.7-0.7-2.3
			c-0.5-0.6-1.1-0.9-1.8-0.9c-0.7,0-1.3,0.3-1.8,0.9C65,381.5,64.8,382.4,64.8,383.5z"/>
		<path d="M80.6,383.5c0,1.3-0.3,2.4-0.9,3.2c-0.6,0.8-1.4,1.2-2.5,1.2c-1.1,0-1.9-0.3-2.5-1v4.2h-1.5V379h1.4l0.1,1
			c0.6-0.8,1.5-1.1,2.6-1.1c1.1,0,1.9,0.4,2.5,1.2s0.9,1.9,0.9,3.3V383.5z M79.1,383.3c0-1-0.2-1.8-0.6-2.3s-1-0.9-1.7-0.9
			c-0.9,0-1.6,0.4-2,1.2v4.2c0.4,0.8,1.1,1.2,2.1,1.2c0.7,0,1.3-0.3,1.7-0.9C78.8,385.3,79.1,384.4,79.1,383.3z"/>
		<path d="M85.3,385.6l2-6.6h1.6l-3.5,10.1c-0.5,1.5-1.4,2.2-2.6,2.2l-0.3,0l-0.6-0.1V390l0.4,0c0.5,0,0.9-0.1,1.2-0.3
			c0.3-0.2,0.5-0.6,0.7-1.1l0.3-0.9l-3.1-8.7h1.6L85.3,385.6z"/>
	</g>
	<g>
		<path d="M188.7,346.6v-11.9h3.4c1,0,2,0.2,2.8,0.7c0.8,0.5,1.4,1.1,1.9,2c0.4,0.8,0.7,1.8,0.7,2.9v0.8c0,1.1-0.2,2.1-0.7,3
			c-0.4,0.8-1.1,1.5-1.9,2c-0.8,0.5-1.7,0.7-2.8,0.7H188.7z M190.3,335.9v9.4h1.7c1.2,0,2.2-0.4,2.8-1.1c0.7-0.8,1-1.8,1-3.2v-0.7
			c0-1.4-0.3-2.4-1-3.2s-1.5-1.1-2.7-1.1H190.3z"/>
		<path d="M199.5,335.3c0-0.2,0.1-0.5,0.2-0.6c0.2-0.2,0.4-0.3,0.7-0.3s0.5,0.1,0.7,0.3c0.2,0.2,0.2,0.4,0.2,0.6s-0.1,0.5-0.2,0.6
			c-0.2,0.2-0.4,0.2-0.7,0.2s-0.5-0.1-0.7-0.2S199.5,335.6,199.5,335.3z M201.2,346.6h-1.5v-8.9h1.5V346.6z"/>
		<path d="M208.8,344.2c0-0.4-0.2-0.7-0.5-1c-0.3-0.2-0.8-0.4-1.6-0.6s-1.4-0.4-1.8-0.6s-0.8-0.5-1-0.8c-0.2-0.3-0.3-0.7-0.3-1.1
			c0-0.7,0.3-1.3,0.9-1.8c0.6-0.5,1.4-0.8,2.4-0.8c1,0,1.8,0.3,2.4,0.8c0.6,0.5,0.9,1.2,0.9,2h-1.5c0-0.4-0.2-0.8-0.5-1.1
			c-0.4-0.3-0.8-0.5-1.3-0.5c-0.6,0-1,0.1-1.3,0.4c-0.3,0.2-0.5,0.6-0.5,0.9c0,0.4,0.1,0.6,0.4,0.8c0.3,0.2,0.8,0.4,1.6,0.5
			c0.8,0.2,1.4,0.4,1.8,0.6c0.5,0.2,0.8,0.5,1,0.8s0.3,0.7,0.3,1.2c0,0.8-0.3,1.4-1,1.9c-0.6,0.5-1.5,0.7-2.5,0.7
			c-0.7,0-1.3-0.1-1.9-0.4c-0.5-0.3-1-0.6-1.3-1.1s-0.5-0.9-0.5-1.5h1.5c0,0.5,0.2,0.9,0.6,1.2c0.4,0.3,0.9,0.4,1.5,0.4
			c0.6,0,1-0.1,1.4-0.3C208.6,344.9,208.8,344.6,208.8,344.2z"/>
		<path d="M217.8,346.6c-0.1-0.2-0.2-0.5-0.2-0.9c-0.7,0.7-1.5,1.1-2.5,1.1c-0.9,0-1.6-0.2-2.2-0.7s-0.8-1.1-0.8-1.9
			c0-0.9,0.4-1.6,1.1-2.2c0.7-0.5,1.7-0.8,3-0.8h1.5v-0.7c0-0.5-0.2-1-0.5-1.3c-0.3-0.3-0.8-0.5-1.4-0.5c-0.5,0-1,0.1-1.4,0.4
			c-0.4,0.3-0.5,0.6-0.5,1h-1.5c0-0.4,0.2-0.9,0.5-1.3c0.3-0.4,0.7-0.7,1.3-1c0.5-0.2,1.1-0.4,1.8-0.4c1,0,1.8,0.3,2.4,0.8
			c0.6,0.5,0.9,1.2,0.9,2.1v4.1c0,0.8,0.1,1.5,0.3,1.9v0.1H217.8z M215.2,345.4c0.5,0,0.9-0.1,1.4-0.4c0.4-0.2,0.7-0.6,0.9-1v-1.8
			h-1.2c-1.9,0-2.8,0.5-2.8,1.6c0,0.5,0.2,0.8,0.5,1.1C214.3,345.3,214.7,345.4,215.2,345.4z"/>
		<path d="M226.6,344.2c0-0.4-0.2-0.7-0.5-1c-0.3-0.2-0.8-0.4-1.6-0.6s-1.4-0.4-1.8-0.6s-0.8-0.5-1-0.8c-0.2-0.3-0.3-0.7-0.3-1.1
			c0-0.7,0.3-1.3,0.9-1.8c0.6-0.5,1.4-0.8,2.4-0.8c1,0,1.8,0.3,2.4,0.8c0.6,0.5,0.9,1.2,0.9,2h-1.5c0-0.4-0.2-0.8-0.5-1.1
			c-0.4-0.3-0.8-0.5-1.3-0.5c-0.6,0-1,0.1-1.3,0.4c-0.3,0.2-0.5,0.6-0.5,0.9c0,0.4,0.1,0.6,0.4,0.8c0.3,0.2,0.8,0.4,1.6,0.5
			c0.8,0.2,1.4,0.4,1.8,0.6c0.5,0.2,0.8,0.5,1,0.8s0.3,0.7,0.3,1.2c0,0.8-0.3,1.4-1,1.9c-0.6,0.5-1.5,0.7-2.5,0.7
			c-0.7,0-1.3-0.1-1.9-0.4c-0.5-0.3-1-0.6-1.3-1.1s-0.5-0.9-0.5-1.5h1.5c0,0.5,0.2,0.9,0.6,1.2c0.4,0.3,0.9,0.4,1.5,0.4
			c0.6,0,1-0.1,1.4-0.3C226.4,344.9,226.6,344.6,226.6,344.2z"/>
		<path d="M232.1,335.5v2.1h1.7v1.2h-1.7v5.5c0,0.4,0.1,0.6,0.2,0.8c0.1,0.2,0.4,0.3,0.8,0.3c0.2,0,0.4,0,0.7-0.1v1.2
			c-0.4,0.1-0.8,0.2-1.2,0.2c-0.7,0-1.2-0.2-1.5-0.6s-0.5-1-0.5-1.7v-5.5H229v-1.2h1.6v-2.1H232.1z"/>
		<path d="M239.2,346.7c-1.2,0-2.2-0.4-2.9-1.2s-1.1-1.8-1.1-3.2v-0.3c0-0.9,0.2-1.7,0.5-2.4c0.3-0.7,0.8-1.2,1.4-1.6
			c0.6-0.4,1.3-0.6,2-0.6c1.2,0,2.1,0.4,2.7,1.1c0.6,0.8,1,1.8,1,3.3v0.6h-6c0,0.9,0.3,1.6,0.8,2.1c0.5,0.5,1.1,0.8,1.9,0.8
			c0.5,0,1-0.1,1.4-0.3s0.7-0.5,1-0.9l0.9,0.7C241.9,346.2,240.7,346.7,239.2,346.7z M239.1,338.8c-0.6,0-1.1,0.2-1.5,0.7
			c-0.4,0.4-0.7,1.1-0.8,1.9h4.4v-0.1c0-0.8-0.3-1.4-0.6-1.8S239.7,338.8,239.1,338.8z"/>
		<path d="M248.8,339.1c-0.2,0-0.5-0.1-0.7-0.1c-1,0-1.7,0.4-2,1.3v6.3h-1.5v-8.9h1.5l0,1c0.5-0.8,1.2-1.2,2.1-1.2
			c0.3,0,0.5,0,0.7,0.1V339.1z"/>
		<path d="M166.2,361.9h-2.8v4.8h-1.6v-11.9h4c1.3,0,2.4,0.3,3.1,0.9c0.7,0.6,1.1,1.5,1.1,2.7c0,0.7-0.2,1.4-0.6,1.9
			c-0.4,0.6-1,1-1.7,1.2l2.8,5.1v0.1h-1.7L166.2,361.9z M163.4,360.6h2.4c0.8,0,1.4-0.2,1.9-0.6c0.5-0.4,0.7-0.9,0.7-1.6
			c0-0.7-0.2-1.3-0.7-1.7c-0.4-0.4-1.1-0.6-1.9-0.6h-2.4V360.6z"/>
		<path d="M175.6,366.9c-1.2,0-2.2-0.4-2.9-1.2s-1.1-1.8-1.1-3.2v-0.3c0-0.9,0.2-1.7,0.5-2.4c0.3-0.7,0.8-1.2,1.4-1.6
			c0.6-0.4,1.3-0.6,2-0.6c1.2,0,2.1,0.4,2.7,1.1c0.6,0.8,1,1.8,1,3.3v0.6h-6c0,0.9,0.3,1.6,0.8,2.1c0.5,0.5,1.1,0.8,1.9,0.8
			c0.5,0,1-0.1,1.4-0.3s0.7-0.5,1-0.9l0.9,0.7C178.2,366.3,177.1,366.9,175.6,366.9z M175.4,358.9c-0.6,0-1.1,0.2-1.5,0.7
			c-0.4,0.4-0.7,1.1-0.8,1.9h4.4v-0.1c0-0.8-0.3-1.4-0.6-1.8S176,358.9,175.4,358.9z"/>
		<path d="M184.4,365.7c0.5,0,1-0.2,1.4-0.5c0.4-0.3,0.6-0.7,0.7-1.2h1.4c0,0.5-0.2,1-0.5,1.5c-0.3,0.5-0.8,0.8-1.3,1.1
			s-1.1,0.4-1.7,0.4c-1.2,0-2.2-0.4-2.9-1.2s-1.1-1.9-1.1-3.3v-0.3c0-0.9,0.2-1.6,0.5-2.3c0.3-0.7,0.8-1.2,1.4-1.6
			c0.6-0.4,1.3-0.6,2.1-0.6c1,0,1.8,0.3,2.5,0.9c0.7,0.6,1,1.4,1.1,2.3h-1.4c0-0.6-0.3-1-0.7-1.4c-0.4-0.4-0.9-0.6-1.4-0.6
			c-0.8,0-1.4,0.3-1.8,0.8s-0.6,1.4-0.6,2.4v0.3c0,1,0.2,1.8,0.6,2.4C183,365.4,183.6,365.7,184.4,365.7z"/>
		<path d="M189.2,362.2c0-0.9,0.2-1.7,0.5-2.3c0.3-0.7,0.8-1.2,1.4-1.6c0.6-0.4,1.3-0.6,2.1-0.6c1.2,0,2.2,0.4,2.9,1.3
			s1.1,1.9,1.1,3.3v0.1c0,0.9-0.2,1.6-0.5,2.3s-0.8,1.2-1.4,1.6c-0.6,0.4-1.3,0.6-2.1,0.6c-1.2,0-2.2-0.4-2.9-1.3s-1.1-1.9-1.1-3.3
			V362.2z M190.7,362.4c0,1,0.2,1.8,0.7,2.4c0.5,0.6,1.1,0.9,1.8,0.9c0.8,0,1.4-0.3,1.8-0.9c0.5-0.6,0.7-1.5,0.7-2.5
			c0-1-0.2-1.8-0.7-2.4c-0.5-0.6-1.1-0.9-1.8-0.9c-0.7,0-1.4,0.3-1.8,0.9S190.7,361.3,190.7,362.4z"/>
		<path d="M202,364.7l2.2-6.8h1.6l-3.2,8.9h-1.2l-3.2-8.9h1.6L202,364.7z"/>
		<path d="M210.8,366.9c-1.2,0-2.2-0.4-2.9-1.2s-1.1-1.8-1.1-3.2v-0.3c0-0.9,0.2-1.7,0.5-2.4c0.3-0.7,0.8-1.2,1.4-1.6
			c0.6-0.4,1.3-0.6,2-0.6c1.2,0,2.1,0.4,2.7,1.1c0.6,0.8,1,1.8,1,3.3v0.6h-6c0,0.9,0.3,1.6,0.8,2.1c0.5,0.5,1.1,0.8,1.9,0.8
			c0.5,0,1-0.1,1.4-0.3s0.7-0.5,1-0.9l0.9,0.7C213.4,366.3,212.3,366.9,210.8,366.9z M210.6,358.9c-0.6,0-1.1,0.2-1.5,0.7
			c-0.4,0.4-0.7,1.1-0.8,1.9h4.4v-0.1c0-0.8-0.3-1.4-0.6-1.8S211.2,358.9,210.6,358.9z"/>
		<path d="M220.3,359.2c-0.2,0-0.5-0.1-0.7-0.1c-1,0-1.7,0.4-2,1.3v6.3H216v-8.9h1.5l0,1c0.5-0.8,1.2-1.2,2.1-1.2
			c0.3,0,0.5,0,0.7,0.1V359.2z"/>
		<path d="M224.7,364.5l2.1-6.7h1.6l-3.6,10.2c-0.6,1.5-1.4,2.2-2.6,2.2l-0.3,0l-0.6-0.1V369l0.4,0c0.5,0,0.9-0.1,1.2-0.3
			c0.3-0.2,0.5-0.6,0.7-1.1l0.3-0.9l-3.2-8.8h1.7L224.7,364.5z"/>
		<path d="M237.7,361.4c-1.4-0.4-2.3-0.9-2.9-1.4c-0.6-0.6-0.9-1.3-0.9-2.1c0-0.9,0.4-1.7,1.1-2.3c0.8-0.6,1.7-0.9,2.9-0.9
			c0.8,0,1.6,0.2,2.2,0.5c0.6,0.3,1.1,0.8,1.5,1.3c0.4,0.6,0.5,1.2,0.5,1.8h-1.6c0-0.7-0.2-1.3-0.7-1.7c-0.5-0.4-1.1-0.6-1.9-0.6
			c-0.8,0-1.4,0.2-1.8,0.5c-0.4,0.3-0.7,0.8-0.7,1.4c0,0.5,0.2,0.9,0.6,1.2s1.1,0.6,2.1,0.9c1,0.3,1.8,0.6,2.3,0.9
			c0.6,0.3,1,0.7,1.2,1.2c0.3,0.4,0.4,1,0.4,1.6c0,1-0.4,1.7-1.1,2.3c-0.8,0.6-1.8,0.9-3,0.9c-0.8,0-1.6-0.2-2.3-0.5
			s-1.3-0.7-1.6-1.3s-0.6-1.2-0.6-1.9h1.6c0,0.7,0.3,1.3,0.8,1.7c0.5,0.4,1.2,0.6,2.1,0.6c0.8,0,1.5-0.2,1.9-0.5
			c0.4-0.3,0.7-0.8,0.7-1.4c0-0.6-0.2-1-0.6-1.4C239.5,362,238.8,361.7,237.7,361.4z"/>
		<path d="M247.6,366.9c-1.2,0-2.2-0.4-2.9-1.2s-1.1-1.8-1.1-3.2v-0.3c0-0.9,0.2-1.7,0.5-2.4c0.3-0.7,0.8-1.2,1.4-1.6
			c0.6-0.4,1.3-0.6,2-0.6c1.2,0,2.1,0.4,2.7,1.1c0.6,0.8,1,1.8,1,3.3v0.6h-6c0,0.9,0.3,1.6,0.8,2.1c0.5,0.5,1.1,0.8,1.9,0.8
			c0.5,0,1-0.1,1.4-0.3s0.7-0.5,1-0.9l0.9,0.7C250.2,366.3,249.1,366.9,247.6,366.9z M247.4,358.9c-0.6,0-1.1,0.2-1.5,0.7
			c-0.4,0.4-0.7,1.1-0.8,1.9h4.4v-0.1c0-0.8-0.3-1.4-0.6-1.8S248,358.9,247.4,358.9z"/>
		<path d="M257.1,359.2c-0.2,0-0.5-0.1-0.7-0.1c-1,0-1.7,0.4-2,1.3v6.3h-1.5v-8.9h1.5l0,1c0.5-0.8,1.2-1.2,2.1-1.2
			c0.3,0,0.5,0,0.7,0.1V359.2z"/>
		<path d="M261.6,364.7l2.2-6.8h1.6l-3.2,8.9H261l-3.2-8.9h1.6L261.6,364.7z"/>
		<path d="M270.4,366.9c-1.2,0-2.2-0.4-2.9-1.2s-1.1-1.8-1.1-3.2v-0.3c0-0.9,0.2-1.7,0.5-2.4c0.3-0.7,0.8-1.2,1.4-1.6
			c0.6-0.4,1.3-0.6,2-0.6c1.2,0,2.1,0.4,2.7,1.1c0.6,0.8,1,1.8,1,3.3v0.6h-6c0,0.9,0.3,1.6,0.8,2.1c0.5,0.5,1.1,0.8,1.9,0.8
			c0.5,0,1-0.1,1.4-0.3s0.7-0.5,1-0.9l0.9,0.7C273,366.3,271.8,366.9,270.4,366.9z M270.2,358.9c-0.6,0-1.1,0.2-1.5,0.7
			c-0.4,0.4-0.7,1.1-0.8,1.9h4.4v-0.1c0-0.8-0.3-1.4-0.6-1.8S270.8,358.9,270.2,358.9z"/>
		<path d="M279.9,359.2c-0.2,0-0.5-0.1-0.7-0.1c-1,0-1.7,0.4-2,1.3v6.3h-1.5v-8.9h1.5l0,1c0.5-0.8,1.2-1.2,2.1-1.2
			c0.3,0,0.5,0,0.7,0.1V359.2z"/>
	</g>
</g>
<g>
	<path class="st3" d="M189.6,35.5H136c-0.9,0-1.7,0.8-1.7,1.7v30.2c0,0.6,0.5,1,1,1h55c0.6,0,1-0.5,1-1l0-30.2
		C191.3,36.3,190.5,35.5,189.6,35.5L189.6,35.5z M189.3,66.4h-53V37.6h53L189.3,66.4L189.3,66.4z M189.5,31.5h-53.4
		c-3.2,0-5.9,2.6-5.9,5.9v33.4c0,3.2,2.6,5.9,5.9,5.9l15.8,0v5.7h-6.4c-2.8,0-5.2,1.9-5.2,4.3v2c0,1.3,1,2.3,2.3,2.3H183
		c1.3,0,2.3-1,2.3-2.3v-2c0-2.4-2.3-4.3-5.2-4.3h-6.4v-5.7h15.8c3.2,0,5.9-2.6,5.9-5.9V37.3C195.4,34.1,192.7,31.5,189.5,31.5
		L189.5,31.5z M183.2,86.6v2c0,0.1-0.1,0.3-0.3,0.3l-40.3,0c-0.1,0-0.3-0.1-0.3-0.3v-2c0-1.2,1.4-2.3,3.1-2.3h34.6
		C181.8,84.3,183.2,85.3,183.2,86.6L183.2,86.6z M171.7,82.3h-17.8v-5.7h17.8V82.3L171.7,82.3z M193.3,70.7c0,2.1-1.7,3.8-3.8,3.8
		l-53.4,0c-2.1,0-3.8-1.7-3.8-3.8l0-33.4c0-2.1,1.7-3.8,3.8-3.8h53.4c2.1,0,3.8,1.7,3.8,3.8L193.3,70.7L193.3,70.7z M151.2,57.2
		c0,0.6-0.5,1-1,1h-9.4c-0.6,0-1-0.5-1-1c0-0.6,0.5-1,1-1h9.4C150.7,56.2,151.2,56.7,151.2,57.2L151.2,57.2z M154.9,62.6V40.4
		c0-0.6,0.5-1,1-1c0.6,0,1,0.5,1,1l0,22.2c0,0.6-0.5,1-1,1C155.4,63.6,154.9,63.2,154.9,62.6L154.9,62.6z M151.2,61.4
		c0,0.6-0.5,1-1,1h-9.4c-0.6,0-1-0.5-1-1c0-0.6,0.5-1,1-1h9.4C150.7,60.4,151.2,60.8,151.2,61.4L151.2,61.4z M170.5,51.3h-2.2
		c-0.9,0-1.7,0.7-1.7,1.7v9c0,0.4,0.2,0.9,0.5,1.2c0.3,0.3,0.7,0.5,1.2,0.5h2.2c0.9,0,1.7-0.7,1.7-1.7v-9
		C172.2,52.1,171.4,51.3,170.5,51.3L170.5,51.3z M170.1,61.6h-1.5v-8.2h1.5V61.6z M181.3,63.6h2.2c0.9,0,1.7-0.7,1.7-1.7V46
		c0-0.9-0.7-1.7-1.7-1.7h-2.2c-0.9,0-1.7,0.7-1.7,1.7v16C179.7,62.9,180.4,63.6,181.3,63.6L181.3,63.6z M181.7,46.4h1.5v15.2h-1.5
		V46.4z M161.8,63.6h2.2c0.9,0,1.7-0.7,1.7-1.7v-5.4c0-0.9-0.7-1.7-1.7-1.7h-2.2c-0.9,0-1.7,0.7-1.7,1.7V62
		C160.1,62.9,160.9,63.6,161.8,63.6z M162.2,56.9h1.5v4.7h-1.5V56.9z M177,47.7h-2.2c-0.9,0-1.7,0.7-1.7,1.7V62
		c0,0.9,0.7,1.7,1.7,1.7h2.2c0.9,0,1.7-0.7,1.7-1.7V49.3C178.7,48.4,177.9,47.7,177,47.7z M176.7,61.6h-1.5V49.7h1.5V61.6z
		 M160.5,50.6c-0.3-0.5-0.1-1.1,0.4-1.4l13.9-7.6l-1.3-0.2c-0.6-0.1-0.9-0.6-0.8-1.2c0.1-0.6,0.6-0.9,1.2-0.8l4.1,0.8
		c0.6,0.1,0.9,0.6,0.8,1.2c0,0.1,0,0.1-0.1,0.2l0,0l-1.6,3.8c-0.2,0.5-0.8,0.8-1.3,0.6c-0.5-0.2-0.8-0.8-0.6-1.3l0.5-1.2L161.8,51
		C161.4,51.3,160.7,51.1,160.5,50.6L160.5,50.6z M145.5,54.1c4.1,0,7.4-3.3,7.4-7.4s-3.3-7.4-7.4-7.4c-4.1,0-7.4,3.3-7.4,7.4
		C138.1,50.8,141.4,54.1,145.5,54.1z M149,50.7l-1.8-3h1.4c0.7,0,1.5,0,2.1,0C150.5,48.9,149.9,50,149,50.7L149,50.7z M150.7,45.7
		c-1.2,0-3.1,0-4.2,0v-4.2C148.6,41.9,150.3,43.6,150.7,45.7z M144.4,41.5v5.2c0,0.2,0,0.4,0.1,0.5l2.7,4.5
		c-0.6,0.2-1.2,0.3-1.8,0.3c-2.9,0-5.3-2.4-5.3-5.3C140.1,44.1,142,41.9,144.4,41.5L144.4,41.5z"/>
</g>
<g id="right">
	<polygon class="st0" points="440.3,150.3 506.5,218.5 636.9,218.5 707.9,150.7 	"/>
	<path class="st1" d="M701.9,414H444.8c-10.3,0-18.6-8.3-18.6-18.6V168.4c0-10.3,8.3-18.6,18.6-18.6h257.1
		c10.3,0,18.6,8.3,18.6,18.6v226.9C720.6,405.6,712.2,414,701.9,414z"/>
	<g>
		<path class="st2" d="M526,188.9c0-0.7-0.2-1.2-0.7-1.5c-0.5-0.4-1.3-0.7-2.5-1.1c-1.2-0.4-2.2-0.8-2.9-1.2c-1.9-1-2.9-2.4-2.9-4.2
			c0-0.9,0.3-1.7,0.8-2.4c0.5-0.7,1.3-1.3,2.2-1.7c1-0.4,2-0.6,3.2-0.6c1.2,0,2.3,0.2,3.2,0.7c0.9,0.4,1.7,1.1,2.2,1.8
			c0.5,0.8,0.8,1.7,0.8,2.7H526c0-0.8-0.2-1.4-0.7-1.8c-0.5-0.4-1.2-0.6-2-0.6c-0.8,0-1.5,0.2-2,0.5c-0.5,0.4-0.7,0.8-0.7,1.4
			c0,0.5,0.3,1,0.8,1.4c0.6,0.4,1.4,0.7,2.4,1c2,0.6,3.4,1.3,4.3,2.2c0.9,0.9,1.4,2,1.4,3.3c0,1.5-0.6,2.6-1.7,3.4
			c-1.1,0.8-2.6,1.2-4.5,1.2c-1.3,0-2.5-0.2-3.5-0.7c-1.1-0.5-1.9-1.1-2.4-1.9c-0.6-0.8-0.8-1.8-0.8-2.9h3.5c0,1.9,1.1,2.8,3.3,2.8
			c0.8,0,1.5-0.2,1.9-0.5S526,189.5,526,188.9z"/>
		<path class="st2" d="M538.9,193.3c-0.2-0.3-0.3-0.7-0.3-1.1c-0.8,0.9-1.9,1.4-3.2,1.4c-1.2,0-2.2-0.4-3-1.1
			c-0.8-0.7-1.2-1.6-1.2-2.7c0-1.3,0.5-2.3,1.5-3.1c1-0.7,2.4-1.1,4.3-1.1h1.5v-0.7c0-0.6-0.1-1-0.4-1.4c-0.3-0.3-0.8-0.5-1.4-0.5
			c-0.6,0-1,0.1-1.3,0.4c-0.3,0.3-0.5,0.6-0.5,1.1h-3.3c0-0.7,0.2-1.4,0.7-2s1.1-1.1,1.9-1.5s1.7-0.5,2.8-0.5c1.5,0,2.8,0.4,3.7,1.2
			c0.9,0.8,1.4,1.9,1.4,3.3v5.4c0,1.2,0.2,2.1,0.5,2.7v0.2H538.9z M536.1,191c0.5,0,0.9-0.1,1.4-0.3c0.4-0.2,0.7-0.5,0.9-0.9v-2.2
			h-1.2c-1.7,0-2.6,0.6-2.7,1.7l0,0.2c0,0.4,0.1,0.8,0.4,1C535.2,190.8,535.6,191,536.1,191z"/>
		<path class="st2" d="M551.8,192c-0.8,1-2,1.5-3.4,1.5c-1.3,0-2.4-0.4-3.1-1.2c-0.7-0.8-1.1-1.9-1.1-3.4v-8.2h3.3v8.1
			c0,1.3,0.6,2,1.8,2c1.1,0,1.9-0.4,2.3-1.2v-8.9h3.4v12.5h-3.1L551.8,192z"/>
		<path class="st2" d="M557.1,187c0-2,0.4-3.5,1.3-4.7c0.9-1.2,2.1-1.7,3.6-1.7c1.2,0,2.2,0.5,3,1.4v-6.4h3.4v17.8h-3l-0.2-1.3
			c-0.8,1-1.9,1.6-3.2,1.6c-1.5,0-2.7-0.6-3.5-1.7S557.1,189,557.1,187z M560.4,187.2c0,1.2,0.2,2.1,0.6,2.7c0.4,0.6,1,0.9,1.8,0.9
			c1,0,1.8-0.4,2.2-1.3v-4.9c-0.4-0.9-1.1-1.3-2.2-1.3C561.2,183.3,560.4,184.6,560.4,187.2z"/>
		<path class="st2" d="M570.9,177.5c0-0.5,0.2-0.9,0.5-1.2c0.3-0.3,0.8-0.5,1.4-0.5c0.6,0,1,0.2,1.4,0.5c0.3,0.3,0.5,0.7,0.5,1.2
			c0,0.5-0.2,0.9-0.5,1.2c-0.3,0.3-0.8,0.5-1.4,0.5c-0.6,0-1-0.2-1.4-0.5C571.1,178.5,570.9,178.1,570.9,177.5z M574.5,193.3h-3.4
			v-12.5h3.4V193.3z"/>
		<path class="st2" d="M596.6,187.7c-0.1,1.8-0.8,3.2-2,4.3c-1.2,1-2.8,1.6-4.8,1.6c-2.2,0-3.9-0.7-5.1-2.2c-1.2-1.5-1.9-3.4-1.9-6
			v-1c0-1.6,0.3-3,0.9-4.3c0.6-1.2,1.4-2.2,2.4-2.8s2.3-1,3.7-1c1.9,0,3.5,0.5,4.7,1.6c1.2,1,1.9,2.5,2.1,4.4h-3.5
			c-0.1-1.1-0.4-1.9-0.9-2.4c-0.5-0.5-1.3-0.7-2.4-0.7c-1.2,0-2,0.4-2.6,1.2c-0.6,0.8-0.9,2.1-0.9,3.9v1.3c0,1.8,0.3,3.2,0.8,4
			c0.6,0.8,1.4,1.3,2.6,1.3c1.1,0,1.9-0.2,2.4-0.7c0.5-0.5,0.8-1.2,0.9-2.3H596.6z"/>
		<path class="st2" d="M602.2,193.3h-3.4v-17.8h3.4V193.3z"/>
		<path class="st2" d="M604.4,186.9c0-1.2,0.2-2.3,0.7-3.3c0.5-1,1.2-1.7,2.1-2.3s1.9-0.8,3.1-0.8c1.7,0,3.1,0.5,4.1,1.5
			c1.1,1,1.7,2.4,1.8,4.2l0,0.9c0,1.9-0.5,3.5-1.6,4.6s-2.5,1.7-4.3,1.7s-3.2-0.6-4.3-1.7c-1.1-1.2-1.6-2.7-1.6-4.7V186.9z
			 M607.7,187.2c0,1.2,0.2,2.1,0.7,2.7c0.4,0.6,1.1,0.9,1.9,0.9c0.8,0,1.4-0.3,1.9-0.9c0.5-0.6,0.7-1.6,0.7-3c0-1.2-0.2-2.1-0.7-2.7
			s-1.1-1-1.9-1c-0.8,0-1.4,0.3-1.9,1C608,184.8,607.7,185.8,607.7,187.2z"/>
		<path class="st2" d="M625.8,192c-0.8,1-2,1.5-3.4,1.5c-1.3,0-2.4-0.4-3.1-1.2c-0.7-0.8-1.1-1.9-1.1-3.4v-8.2h3.3v8.1
			c0,1.3,0.6,2,1.8,2c1.1,0,1.9-0.4,2.3-1.2v-8.9h3.4v12.5h-3.1L625.8,192z"/>
		<path class="st2" d="M631,187c0-2,0.4-3.5,1.3-4.7c0.9-1.2,2.1-1.7,3.6-1.7c1.2,0,2.2,0.5,3,1.4v-6.4h3.4v17.8h-3l-0.2-1.3
			c-0.8,1-1.9,1.6-3.2,1.6c-1.5,0-2.7-0.6-3.5-1.7S631,189,631,187z M634.4,187.2c0,1.2,0.2,2.1,0.6,2.7c0.4,0.6,1,0.9,1.8,0.9
			c1,0,1.8-0.4,2.2-1.3v-4.9c-0.4-0.9-1.1-1.3-2.2-1.3C635.2,183.3,634.4,184.6,634.4,187.2z"/>
	</g>
	<g>
		<g>
			<path class="st3" d="M665.6,252.8c-4.5-0.6-10.6-1-17-1c-6.4,0-12.4,0.3-17,1c-6.8,0.9-7.7,2.1-7.7,3.1v10.7
				c0,0.5,0.2,1.1,1.4,1.6c-0.9,0.5-1.4,1-1.4,1.6v10.7c0,0.5,0.2,1.1,1.4,1.6c-0.9,0.5-1.4,1-1.4,1.6v10.7c0,1,0.9,2.2,7.7,3.1
				c4.5,0.6,10.6,1,17,1s12.4-0.3,17-1c6.8-0.9,7.7-2.1,7.7-3.1v-10.7c0-0.7-0.4-1.2-1.4-1.6c1.1-0.6,1.4-1.1,1.4-1.6v-10.7
				c0-0.7-0.4-1.2-1.4-1.6c1.1-0.6,1.4-1.1,1.4-1.6V256C673.2,254.9,672.3,253.8,665.6,252.8L665.6,252.8z M671.6,260
				c-0.2,0.2-1.1,0.8-5.1,1.4l0.3,1.6c1.9-0.3,3.3-0.6,4.4-1c0.1-0.1,0.3-0.1,0.4-0.2v1.4c-0.2,0.2-1.1,0.8-5.1,1.4l0.3,1.6
				c1.9-0.3,3.3-0.6,4.4-1c0.1-0.1,0.3-0.1,0.4-0.2v1.4c-0.2,0.2-1.4,1-7.1,1.7c-4.4,0.5-10,0.9-16,0.9c-5.9,0-11.6-0.3-16-0.9
				c-5.6-0.7-6.8-1.5-7.1-1.7v-8.8c1.1,0.5,3,1,6,1.4c4.5,0.6,10.6,1,17,1c6.4,0,12.4-0.3,17-1c3.1-0.4,4.9-0.9,6-1.4L671.6,260z
				 M632.6,254.3c4.4-0.5,10-0.9,16-0.9s11.6,0.3,16,0.9c4.8,0.6,6.4,1.3,6.9,1.6c-0.5,0.3-2.1,1-6.9,1.6c-4.4,0.5-10,0.9-16,0.9
				c-5.9,0-11.6-0.3-16-0.9c-4.8-0.6-6.4-1.3-6.9-1.6C626.2,255.7,627.8,255,632.6,254.3L632.6,254.3z M671.6,273.9
				c-0.2,0.2-1.1,0.8-5.1,1.4l0.3,1.6c1.9-0.3,3.3-0.6,4.4-1c0.1-0.1,0.3-0.1,0.4-0.2v1.4c-0.2,0.2-1.1,0.8-5.1,1.4l0.3,1.6
				c1.9-0.3,3.3-0.6,4.4-1c0.1-0.1,0.3-0.1,0.4-0.2v1.4c-0.2,0.2-1.4,1-7.1,1.7c-4.4,0.6-10,0.9-16,0.9c-5.9,0-11.6-0.3-16-0.9
				c-5.6-0.7-6.8-1.5-7.1-1.7v-8.8c1.1,0.5,3,1,6,1.4c4.5,0.6,10.6,1,17,1c6.4,0,12.4-0.3,17-1c3.1-0.4,4.9-0.9,6-1.4L671.6,273.9z
				 M664.6,296.2c-4.4,0.5-10,0.9-16,0.9c-5.9,0-11.6-0.3-16-0.9c-5.6-0.7-6.8-1.5-7.1-1.7v-8.8c1.1,0.5,3,1,6,1.4
				c4.5,0.6,10.6,1,17,1c6.4,0,12.4-0.3,17-1c3.1-0.4,4.9-0.9,6-1.4v2.2c-0.2,0.2-1.1,0.8-5.1,1.4l0.3,1.6c1.9-0.3,3.3-0.6,4.4-1
				c0.1-0.1,0.3-0.1,0.4-0.2v1.4c-0.2,0.2-1.1,0.8-5.1,1.4l0.3,1.6c1.9-0.3,3.3-0.6,4.4-1c0.1-0.1,0.3-0.1,0.4-0.2v1.4
				C671.4,294.7,670.2,295.5,664.6,296.2L664.6,296.2z M671.5,283.9c-0.5,0.3-2,1-6.9,1.6c-4.4,0.5-10,0.9-16,0.9
				c-5.9,0-11.6-0.3-16-0.9c-4.9-0.6-6.4-1.3-6.9-1.6c0.3-0.2,0.9-0.5,2.2-0.8c1,0.2,2.2,0.4,3.7,0.6c4.5,0.6,10.6,1,17,1
				c6.4,0,12.4-0.3,17-1c1.5-0.2,2.7-0.4,3.7-0.6C670.6,283.4,671.2,283.7,671.5,283.9L671.5,283.9z M671.5,269.9
				c-0.5,0.3-2,1-6.9,1.6c-4.4,0.5-10,0.9-16,0.9c-5.9,0-11.6-0.3-16-0.9c-4.9-0.6-6.4-1.3-6.9-1.6c0.3-0.2,0.9-0.5,2.2-0.8
				c1,0.2,2.2,0.4,3.7,0.6c4.5,0.6,10.6,1,17,1c6.4,0,12.4-0.3,17-1c1.5-0.2,2.7-0.4,3.7-0.6C670.6,269.5,671.2,269.8,671.5,269.9
				L671.5,269.9z"/>
			<path class="st3" d="M663.3,293.1l0.2,1.6c0.6-0.1,1.1-0.1,1.7-0.2l-0.2-1.6C664.4,292.9,663.9,293,663.3,293.1L663.3,293.1z"/>
			<path class="st3" d="M663.3,289.8l0.2,1.6c0.6-0.1,1.1-0.1,1.7-0.2l-0.2-1.6C664.4,289.6,663.9,289.7,663.3,289.8L663.3,289.8z"
				/>
			<path class="st3" d="M663.3,279.1l0.2,1.6c0.6-0.1,1.1-0.1,1.7-0.2l-0.2-1.6C664.4,279,663.9,279,663.3,279.1L663.3,279.1z"/>
			<path class="st3" d="M663.3,275.8l0.2,1.6c0.6-0.1,1.1-0.1,1.7-0.2l-0.2-1.6C664.4,275.7,663.9,275.7,663.3,275.8L663.3,275.8z"
				/>
			<path class="st3" d="M663.3,265.1l0.2,1.6c0.6-0.1,1.1-0.1,1.7-0.2l-0.2-1.6C664.4,265,663.9,265.1,663.3,265.1L663.3,265.1z"/>
			<path class="st3" d="M663.3,261.8l0.2,1.6c0.6-0.1,1.1-0.1,1.7-0.2l-0.2-1.6C664.4,261.7,663.9,261.8,663.3,261.8L663.3,261.8z"
				/>
			<path class="st3" d="M642.9,261.6c-1.4,0-2.8-0.1-4.1-0.2v0c-0.2,0-0.4,0.1-0.6,0.2c-0.2,0.2-0.3,0.4-0.3,0.6v4.1
				c0,0.4,0.3,0.8,0.8,0.8c1.3,0.1,2.7,0.2,4.1,0.2c0,0,0,0,0,0c0.5,0,0.8-0.4,0.8-0.8v-4.1C643.7,262,643.3,261.6,642.9,261.6
				L642.9,261.6z M642,265.7c-0.8,0-1.7-0.1-2.5-0.1v-2.5c0.8,0,1.6,0.1,2.5,0.1V265.7z"/>
			<path class="st3" d="M650.2,261.7L650.2,261.7c-0.5,0-1.1,0-1.6,0c-0.8,0-1.6,0-2.5,0h0c-0.2,0-0.4,0.1-0.6,0.2
				c-0.2,0.2-0.2,0.4-0.2,0.6v4.1c0,0.4,0.4,0.8,0.8,0.8c0.8,0,1.7,0,2.5,0c0.5,0,1.1,0,1.7,0c0.5,0,0.8-0.4,0.8-0.8v-4.1
				C651.1,262.1,650.7,261.7,650.2,261.7L650.2,261.7z M649.4,265.8c-0.3,0-0.6,0-0.8,0c-0.5,0-1.1,0-1.6,0v-2.5c0.6,0,1.1,0,1.6,0
				c0.3,0,0.6,0,0.8,0V265.8z"/>
			<path class="st3" d="M657.6,261.5c-1.3,0.1-2.7,0.1-4.1,0.2c-0.4,0-0.8,0.4-0.8,0.8v4.1c0,0.5,0.4,0.8,0.8,0.8c0,0,0,0,0,0
				c1.4,0,2.8-0.1,4.1-0.2h0c0.4,0,0.8-0.4,0.8-0.8v-4.1c0-0.2-0.1-0.4-0.3-0.6C658,261.5,657.8,261.5,657.6,261.5L657.6,261.5z
				 M656.8,265.6c-0.8,0-1.6,0.1-2.5,0.1v-2.5c0.8,0,1.7-0.1,2.5-0.1V265.6z"/>
			<path class="st3" d="M642.9,275.6c-1.4,0-2.8-0.1-4.1-0.2c-0.2,0-0.4,0.1-0.6,0.2c-0.2,0.2-0.3,0.4-0.3,0.6v4.1
				c0,0.4,0.3,0.8,0.8,0.8c1.3,0.1,2.7,0.2,4.1,0.2c0,0,0,0,0,0c0.5,0,0.8-0.4,0.8-0.8v-4.1C643.7,276,643.3,275.6,642.9,275.6
				L642.9,275.6z M642,279.7c-0.8,0-1.7-0.1-2.5-0.1v-2.5c0.8,0,1.6,0.1,2.5,0.1V279.7z"/>
			<path class="st3" d="M650.2,275.7L650.2,275.7c-0.5,0-1.1,0-1.6,0c-0.8,0-1.6,0-2.5,0h0c-0.2,0-0.4,0.1-0.6,0.2s-0.2,0.4-0.2,0.6
				v4.1v0c0,0.4,0.4,0.8,0.8,0.8c0.8,0,1.7,0,2.5,0c0.5,0,1.1,0,1.7,0c0.5,0,0.8-0.4,0.8-0.8v-4.1
				C651.1,276,650.7,275.7,650.2,275.7L650.2,275.7z M649.4,279.8c-0.3,0-0.6,0-0.8,0c-0.5,0-1.1,0-1.6,0v-2.5c0.6,0,1.1,0,1.6,0
				c0.3,0,0.6,0,0.8,0V279.8z"/>
			<path class="st3" d="M657.6,275.4c-1.3,0.1-2.7,0.1-4.1,0.2c-0.4,0-0.8,0.4-0.8,0.8v4.1c0,0.5,0.4,0.8,0.8,0.8c0,0,0,0,0,0
				c1.4,0,2.8-0.1,4.1-0.2l0,0c0.4,0,0.8-0.4,0.8-0.8v-4.1c0-0.2-0.1-0.4-0.3-0.6C658,275.5,657.8,275.4,657.6,275.4L657.6,275.4z
				 M656.8,279.6c-0.8,0-1.6,0.1-2.5,0.1v-2.5c0.8,0,1.7-0.1,2.5-0.1V279.6z"/>
			<path class="st3" d="M642.9,289.6c-1.4,0-2.8-0.1-4.1-0.2v0c-0.2,0-0.4,0.1-0.6,0.2c-0.2,0.2-0.3,0.4-0.3,0.6v4.1
				c0,0.4,0.3,0.8,0.8,0.8c1.3,0.1,2.7,0.2,4.1,0.2c0,0,0,0,0,0c0.5,0,0.8-0.4,0.8-0.8v-4.1C643.7,289.9,643.3,289.6,642.9,289.6
				L642.9,289.6z M642,293.6c-0.8,0-1.7-0.1-2.5-0.1v-2.5c0.8,0,1.6,0.1,2.5,0.1V293.6z"/>
			<path class="st3" d="M650.2,289.6L650.2,289.6c-0.5,0-1.1,0-1.6,0c-0.8,0-1.6,0-2.5,0h0c-0.2,0-0.4,0.1-0.6,0.2
				c-0.2,0.2-0.2,0.4-0.2,0.6v4.1c0,0.4,0.4,0.8,0.8,0.8c0.8,0,1.7,0,2.5,0c0.5,0,1.1,0,1.7,0c0.5,0,0.8-0.4,0.8-0.8v-4.1
				C651.1,290,650.7,289.6,650.2,289.6L650.2,289.6z M649.4,293.8c-0.3,0-0.6,0-0.8,0c-0.5,0-1.1,0-1.6,0v-2.5c0.6,0,1.1,0,1.6,0
				c0.3,0,0.6,0,0.8,0V293.8z"/>
			<path class="st3" d="M657.6,289.4c-1.3,0.1-2.7,0.1-4.1,0.2c-0.4,0-0.8,0.4-0.8,0.8v4.1c0,0.5,0.4,0.8,0.8,0.8c0,0,0,0,0,0
				c1.4,0,2.8-0.1,4.1-0.2h0c0.4,0,0.8-0.4,0.8-0.8v-4.1c0-0.2-0.1-0.4-0.3-0.6C658,289.5,657.8,289.4,657.6,289.4L657.6,289.4z
				 M656.8,293.6c-0.8,0-1.6,0.1-2.5,0.1v-2.5c0.8,0,1.7-0.1,2.5-0.1V293.6z"/>
		</g>
	</g>
	<g>
		<g>
			<path class="st4" d="M592.2,374.5c-0.2,0-0.4,0.2-0.4,0.4c0,0.4-0.2,0.8-0.5,1.1c-0.3,0.3-0.7,0.5-1.1,0.5h-25.7v-31.5l25.3,0.2
				h0v0c0.2,0,0.4-0.2,0.4-0.4c0-0.2-0.2-0.4-0.4-0.4l-34.7-0.3v-2.7c0-0.4,0.2-0.8,0.5-1.1s0.7-0.5,1.1-0.5h2
				c0.2,0,0.4-0.2,0.4-0.4c0-0.2-0.2-0.4-0.4-0.4h-2c-0.7,0-1.3,0.3-1.7,0.7c-0.5,0.5-0.7,1.1-0.7,1.7v33.5c0,0.7,0.3,1.3,0.7,1.7
				c0.5,0.5,1.1,0.7,1.7,0.7h33.5c0.7,0,1.3-0.3,1.7-0.7c0.5-0.5,0.7-1.1,0.7-1.7C592.6,374.7,592.4,374.5,592.2,374.5L592.2,374.5z
				 M555,374.9l0-29.9l8.5,0.1v31.5h-6.9c-0.4,0-0.8-0.2-1.1-0.5C555.2,375.7,555,375.3,555,374.9L555,374.9z"/>
			<path class="st4" d="M590.2,338.9h-29c-0.2,0-0.4,0.2-0.4,0.4c0,0.2,0.2,0.4,0.4,0.4h29c0.4,0,0.8,0.2,1.1,0.5
				c0.3,0.3,0.5,0.7,0.5,1.1v31.1c0,0.2,0.2,0.4,0.4,0.4c0.2,0,0.4-0.2,0.4-0.4v-31.1c0-0.7-0.3-1.3-0.7-1.7
				C591.4,339.2,590.8,338.9,590.2,338.9L590.2,338.9z"/>
			<path class="st4" d="M559.3,346.5c-0.7,0-1.3,0.3-1.8,0.7c-0.5,0.5-0.7,1.1-0.7,1.7c0,0.7,0.3,1.3,0.7,1.8
				c0.5,0.5,1.1,0.7,1.8,0.7c0.7,0,1.3-0.3,1.7-0.7c0.5-0.5,0.7-1.1,0.7-1.8c0-0.7-0.3-1.3-0.7-1.7
				C560.6,346.8,560,346.5,559.3,346.5L559.3,346.5z M559.3,350.6c-0.4,0-0.8-0.2-1.1-0.5c-0.3-0.3-0.5-0.7-0.5-1.1
				c0-0.4,0.2-0.8,0.5-1.1c0.3-0.3,0.7-0.5,1.1-0.5c0.4,0,0.8,0.2,1.1,0.5c0.3,0.3,0.5,0.7,0.5,1.1c0,0.4-0.2,0.8-0.5,1.1
				C560.1,350.4,559.7,350.6,559.3,350.6L559.3,350.6z"/>
			<path class="st4" d="M559.3,354.2h-2c-0.2,0-0.4,0.2-0.4,0.4c0,0.2,0.2,0.4,0.4,0.4h2c0.2,0,0.4-0.2,0.4-0.4
				C559.7,354.4,559.5,354.2,559.3,354.2z"/>
			<path class="st4" d="M559.3,356.8h-2c-0.2,0-0.4,0.2-0.4,0.4c0,0.2,0.2,0.4,0.4,0.4h2c0.2,0,0.4-0.2,0.4-0.4
				C559.7,357,559.5,356.8,559.3,356.8z"/>
			<path class="st4" d="M559.3,359.4h-2c-0.2,0-0.4,0.2-0.4,0.4c0,0.2,0.2,0.4,0.4,0.4h2c0.2,0,0.4-0.2,0.4-0.4
				C559.7,359.6,559.5,359.4,559.3,359.4z"/>
			<path class="st4" d="M559.3,362h-2c-0.2,0-0.4,0.2-0.4,0.4c0,0.2,0.2,0.4,0.4,0.4h2c0.2,0,0.4-0.2,0.4-0.4
				C559.7,362.2,559.5,362,559.3,362z"/>
			<path class="st4" d="M559.3,364.6h-2c-0.2,0-0.4,0.2-0.4,0.4s0.2,0.4,0.4,0.4h2c0.2,0,0.4-0.2,0.4-0.4
				C559.7,364.8,559.5,364.6,559.3,364.6z"/>
			<path class="st4" d="M559.3,367.2h-2c-0.2,0-0.4,0.2-0.4,0.4c0,0.2,0.2,0.4,0.4,0.4h2c0.2,0,0.4-0.2,0.4-0.4
				C559.7,367.4,559.5,367.2,559.3,367.2z"/>
			<path class="st4" d="M569.4,346.6c-0.1-0.1-0.2-0.1-0.3-0.1s-0.2,0.1-0.3,0.2l-2.3,2.7c-0.1,0.2-0.1,0.4,0,0.6l2.3,2.7
				c0.2,0.2,0.4,0.2,0.6,0.1c0.2-0.2,0.2-0.4,0.1-0.6l-2-2.4l2-2.4C569.6,347,569.6,346.7,569.4,346.6L569.4,346.6z"/>
			<path class="st4" d="M575.2,352.6c0.1,0.1,0.2,0.1,0.3,0.1c0.1,0,0.2-0.1,0.3-0.2l2.3-2.7h0c0.1-0.2,0.1-0.4,0-0.6l-2.3-2.7h0
				c-0.2-0.2-0.4-0.2-0.6-0.1c-0.2,0.2-0.2,0.4-0.1,0.6l2,2.4l-2,2.4C575,352.2,575,352.5,575.2,352.6L575.2,352.6z"/>
			<path class="st4" d="M571.3,352.7c0.2,0,0.3-0.1,0.4-0.3l2-5.4c0.1-0.2,0-0.5-0.3-0.6c-0.2-0.1-0.5,0-0.6,0.3l-2,5.4
				c0,0.1,0,0.3,0.1,0.4C571,352.7,571.2,352.7,571.3,352.7L571.3,352.7z"/>
			<path class="st4" d="M566.9,355.9h13.2c0.2,0,0.4-0.2,0.4-0.4c0-0.2-0.2-0.4-0.4-0.4h-13.2c-0.2,0-0.4,0.2-0.4,0.4
				C566.4,355.7,566.6,355.9,566.9,355.9z"/>
			<path class="st4" d="M584.4,359c0-0.2-0.2-0.4-0.4-0.4h-10.5c-0.2,0-0.4,0.2-0.4,0.4c0,0.2,0.2,0.4,0.4,0.4h10.5
				C584.2,359.4,584.4,359.2,584.4,359z"/>
			<path class="st4" d="M566.9,359.4h3.7c0.2,0,0.4-0.2,0.4-0.4c0-0.2-0.2-0.4-0.4-0.4h-3.7c-0.2,0-0.4,0.2-0.4,0.4
				C566.4,359.2,566.6,359.4,566.9,359.4z"/>
			<path class="st4" d="M566.9,363h6.6c0.2,0,0.4-0.2,0.4-0.4c0-0.2-0.2-0.4-0.4-0.4h-6.6c-0.2,0-0.4,0.2-0.4,0.4
				C566.4,362.8,566.6,363,566.9,363z"/>
			<path class="st4" d="M588.5,366.1c0-0.1,0-0.2-0.1-0.3c-0.1-0.1-0.2-0.1-0.3-0.1h-8.3c-0.2,0-0.4,0.2-0.4,0.4
				c0,0.2,0.2,0.4,0.4,0.4h8.3C588.3,366.5,588.5,366.3,588.5,366.1L588.5,366.1z"/>
			<path class="st4" d="M572.8,365.6c-0.2,0-0.4,0.2-0.4,0.4c0,0.2,0.2,0.4,0.4,0.4h4.1h0c0.2,0,0.4-0.2,0.4-0.4
				c0-0.2-0.2-0.4-0.4-0.4H572.8z"/>
			<path class="st4" d="M566.9,366.5h3.3c0.2,0,0.4-0.2,0.4-0.4c0-0.2-0.2-0.4-0.4-0.4h-3.3c-0.2,0-0.4,0.2-0.4,0.4
				C566.4,366.3,566.6,366.5,566.9,366.5z"/>
			<path class="st4" d="M583.5,369.2c-0.2,0-0.4,0.2-0.4,0.4c0,0.2,0.2,0.4,0.4,0.4h1.9c0.2,0,0.4-0.2,0.4-0.4
				c0-0.2-0.2-0.4-0.4-0.4H583.5z"/>
			<path class="st4" d="M581.3,369.2h-14.5c-0.2,0-0.4,0.2-0.4,0.4c0,0.2,0.2,0.4,0.4,0.4h14.5c0.2,0,0.4-0.2,0.4-0.4
				C581.8,369.4,581.6,369.2,581.3,369.2z"/>
			<path class="st4" d="M581.3,372.7h-14.5c-0.2,0-0.4,0.2-0.4,0.4c0,0.2,0.2,0.4,0.4,0.4h14.5c0.2,0,0.4-0.2,0.4-0.4
				C581.8,372.9,581.6,372.7,581.3,372.7z"/>
		</g>
	</g>
	<g>
		<path d="M519.9,395.9c-1.1-0.3-1.9-0.7-2.4-1.2c-0.5-0.5-0.7-1-0.7-1.7c0-0.8,0.3-1.4,0.9-1.9c0.6-0.5,1.4-0.7,2.4-0.7
			c0.7,0,1.3,0.1,1.8,0.4s0.9,0.6,1.2,1.1s0.4,0.9,0.4,1.5h-1.3c0-0.6-0.2-1-0.6-1.4c-0.4-0.3-0.9-0.5-1.6-0.5
			c-0.6,0-1.1,0.1-1.5,0.4s-0.5,0.7-0.5,1.2c0,0.4,0.2,0.7,0.5,1c0.3,0.3,0.9,0.5,1.7,0.7c0.8,0.2,1.4,0.5,1.9,0.7
			c0.5,0.3,0.8,0.6,1,1c0.2,0.4,0.3,0.8,0.3,1.3c0,0.8-0.3,1.4-0.9,1.9c-0.6,0.5-1.4,0.7-2.4,0.7c-0.7,0-1.3-0.1-1.9-0.4
			s-1-0.6-1.3-1c-0.3-0.4-0.5-0.9-0.5-1.5h1.3c0,0.6,0.2,1,0.6,1.4c0.4,0.3,1,0.5,1.7,0.5c0.7,0,1.2-0.1,1.5-0.4
			c0.4-0.3,0.5-0.6,0.5-1.1c0-0.5-0.2-0.8-0.5-1.1C521.4,396.4,520.8,396.2,519.9,395.9z"/>
		<path d="M524.6,396.6c0-0.7,0.1-1.3,0.4-1.9c0.3-0.6,0.7-1,1.2-1.3s1.1-0.5,1.7-0.5c1,0,1.8,0.3,2.4,1s0.9,1.6,0.9,2.7v0.1
			c0,0.7-0.1,1.3-0.4,1.9c-0.3,0.6-0.6,1-1.1,1.3c-0.5,0.3-1.1,0.5-1.7,0.5c-1,0-1.8-0.3-2.4-1S524.6,397.8,524.6,396.6L524.6,396.6
			z M525.8,396.7c0,0.8,0.2,1.4,0.6,1.9c0.4,0.5,0.9,0.7,1.5,0.7c0.6,0,1.1-0.2,1.5-0.7c0.4-0.5,0.5-1.2,0.5-2
			c0-0.8-0.2-1.4-0.6-1.9c-0.4-0.5-0.9-0.7-1.5-0.7c-0.6,0-1.1,0.2-1.5,0.7C526,395.1,525.8,395.8,525.8,396.7z"/>
		<path d="M537.1,399.5c-0.5,0.6-1.2,0.8-2.1,0.8c-0.8,0-1.3-0.2-1.7-0.7c-0.4-0.4-0.6-1.1-0.6-2V393h1.2v4.6c0,1.1,0.4,1.6,1.3,1.6
			c0.9,0,1.6-0.3,1.9-1V393h1.2v7.2h-1.2L537.1,399.5z"/>
		<path d="M543.6,394.1c-0.2,0-0.4,0-0.6,0c-0.8,0-1.3,0.3-1.6,1v5.1h-1.2V393h1.2l0,0.8c0.4-0.6,1-1,1.7-1c0.2,0,0.4,0,0.5,0.1
			V394.1z"/>
		<path d="M547.5,399.3c0.4,0,0.8-0.1,1.1-0.4c0.3-0.3,0.5-0.6,0.5-1h1.2c0,0.4-0.2,0.8-0.4,1.2s-0.6,0.7-1,0.9s-0.9,0.3-1.4,0.3
			c-1,0-1.8-0.3-2.3-1c-0.6-0.7-0.9-1.5-0.9-2.7v-0.2c0-0.7,0.1-1.3,0.4-1.9s0.6-1,1.1-1.3c0.5-0.3,1-0.5,1.7-0.5
			c0.8,0,1.5,0.2,2,0.7c0.5,0.5,0.8,1.1,0.9,1.9h-1.2c0-0.5-0.2-0.8-0.5-1.1s-0.7-0.4-1.2-0.4c-0.6,0-1.1,0.2-1.4,0.7
			c-0.3,0.4-0.5,1.1-0.5,1.9v0.2c0,0.8,0.2,1.5,0.5,1.9C546.4,399.1,546.9,399.3,547.5,399.3z"/>
		<path d="M554.7,400.3c-1,0-1.8-0.3-2.4-1c-0.6-0.6-0.9-1.5-0.9-2.6v-0.2c0-0.7,0.1-1.3,0.4-1.9s0.7-1,1.1-1.3
			c0.5-0.3,1-0.5,1.6-0.5c0.9,0,1.7,0.3,2.2,0.9s0.8,1.5,0.8,2.6v0.5h-4.9c0,0.7,0.2,1.3,0.6,1.7s0.9,0.7,1.5,0.7
			c0.4,0,0.8-0.1,1.1-0.3c0.3-0.2,0.6-0.4,0.8-0.7l0.7,0.6C556.8,399.9,555.9,400.3,554.7,400.3z M554.5,393.9
			c-0.5,0-0.9,0.2-1.2,0.5c-0.3,0.4-0.5,0.9-0.6,1.5h3.6v-0.1c0-0.6-0.2-1.1-0.5-1.4C555.4,394.1,555,393.9,554.5,393.9z"/>
		<path d="M565.1,399.3c0.4,0,0.8-0.1,1.1-0.4c0.3-0.3,0.5-0.6,0.5-1h1.2c0,0.4-0.2,0.8-0.4,1.2s-0.6,0.7-1,0.9s-0.9,0.3-1.4,0.3
			c-1,0-1.8-0.3-2.3-1c-0.6-0.7-0.9-1.5-0.9-2.7v-0.2c0-0.7,0.1-1.3,0.4-1.9s0.6-1,1.1-1.3c0.5-0.3,1-0.5,1.7-0.5
			c0.8,0,1.5,0.2,2,0.7c0.5,0.5,0.8,1.1,0.9,1.9h-1.2c0-0.5-0.2-0.8-0.5-1.1s-0.7-0.4-1.2-0.4c-0.6,0-1.1,0.2-1.4,0.7
			c-0.3,0.4-0.5,1.1-0.5,1.9v0.2c0,0.8,0.2,1.5,0.5,1.9C564,399.1,564.5,399.3,565.1,399.3z"/>
		<path d="M569,396.6c0-0.7,0.1-1.3,0.4-1.9c0.3-0.6,0.7-1,1.2-1.3s1.1-0.5,1.7-0.5c1,0,1.8,0.3,2.4,1s0.9,1.6,0.9,2.7v0.1
			c0,0.7-0.1,1.3-0.4,1.9c-0.3,0.6-0.6,1-1.1,1.3c-0.5,0.3-1.1,0.5-1.7,0.5c-1,0-1.8-0.3-2.4-1S569,397.8,569,396.6L569,396.6z
			 M570.3,396.7c0,0.8,0.2,1.4,0.6,1.9c0.4,0.5,0.9,0.7,1.5,0.7c0.6,0,1.1-0.2,1.5-0.7c0.4-0.5,0.5-1.2,0.5-2c0-0.8-0.2-1.4-0.6-1.9
			c-0.4-0.5-0.9-0.7-1.5-0.7c-0.6,0-1.1,0.2-1.5,0.7C570.4,395.1,570.3,395.8,570.3,396.7z"/>
		<path d="M576.8,396.6c0-1.1,0.3-2,0.8-2.7c0.5-0.7,1.2-1,2-1c0.8,0,1.5,0.3,2,0.9V390h1.2v10.2h-1.1l-0.1-0.8
			c-0.5,0.6-1.2,0.9-2,0.9c-0.8,0-1.5-0.3-2-1C577,398.6,576.8,397.8,576.8,396.6L576.8,396.6z M578,396.7c0,0.8,0.2,1.4,0.5,1.9
			c0.3,0.5,0.8,0.7,1.4,0.7c0.8,0,1.3-0.3,1.7-1V395c-0.4-0.7-0.9-1-1.7-1c-0.6,0-1.1,0.2-1.4,0.7C578.2,395.1,578,395.8,578,396.7z
			"/>
		<path d="M587.7,400.3c-1,0-1.8-0.3-2.4-1c-0.6-0.6-0.9-1.5-0.9-2.6v-0.2c0-0.7,0.1-1.3,0.4-1.9s0.7-1,1.1-1.3
			c0.5-0.3,1-0.5,1.6-0.5c0.9,0,1.7,0.3,2.2,0.9s0.8,1.5,0.8,2.6v0.5h-4.9c0,0.7,0.2,1.3,0.6,1.7s0.9,0.7,1.5,0.7
			c0.4,0,0.8-0.1,1.1-0.3c0.3-0.2,0.6-0.4,0.8-0.7l0.7,0.6C589.8,399.9,588.9,400.3,587.7,400.3z M587.6,393.9
			c-0.5,0-0.9,0.2-1.2,0.5c-0.3,0.4-0.5,0.9-0.6,1.5h3.6v-0.1c0-0.6-0.2-1.1-0.5-1.4C588.5,394.1,588.1,393.9,587.6,393.9z"/>
		<path d="M598.1,399.3c0.4,0,0.8-0.1,1.1-0.4c0.3-0.3,0.5-0.6,0.5-1h1.2c0,0.4-0.2,0.8-0.4,1.2s-0.6,0.7-1,0.9s-0.9,0.3-1.4,0.3
			c-1,0-1.8-0.3-2.3-1c-0.6-0.7-0.9-1.5-0.9-2.7v-0.2c0-0.7,0.1-1.3,0.4-1.9s0.6-1,1.1-1.3c0.5-0.3,1-0.5,1.7-0.5
			c0.8,0,1.5,0.2,2,0.7c0.5,0.5,0.8,1.1,0.9,1.9h-1.2c0-0.5-0.2-0.8-0.5-1.1s-0.7-0.4-1.2-0.4c-0.6,0-1.1,0.2-1.4,0.7
			c-0.3,0.4-0.5,1.1-0.5,1.9v0.2c0,0.8,0.2,1.5,0.5,1.9C597,399.1,597.5,399.3,598.1,399.3z"/>
		<path d="M602,396.6c0-0.7,0.1-1.3,0.4-1.9c0.3-0.6,0.7-1,1.2-1.3s1.1-0.5,1.7-0.5c1,0,1.8,0.3,2.4,1s0.9,1.6,0.9,2.7v0.1
			c0,0.7-0.1,1.3-0.4,1.9c-0.3,0.6-0.6,1-1.1,1.3c-0.5,0.3-1.1,0.5-1.7,0.5c-1,0-1.8-0.3-2.4-1S602,397.8,602,396.6L602,396.6z
			 M603.3,396.7c0,0.8,0.2,1.4,0.6,1.9c0.4,0.5,0.9,0.7,1.5,0.7c0.6,0,1.1-0.2,1.5-0.7c0.4-0.5,0.5-1.2,0.5-2c0-0.8-0.2-1.4-0.6-1.9
			c-0.4-0.5-0.9-0.7-1.5-0.7c-0.6,0-1.1,0.2-1.5,0.7C603.5,395.1,603.3,395.8,603.3,396.7z"/>
		<path d="M616.2,396.7c0,1.1-0.2,2-0.7,2.6c-0.5,0.7-1.2,1-2,1c-0.9,0-1.6-0.3-2.1-0.8v3.5h-1.2V393h1.1l0.1,0.8
			c0.5-0.6,1.2-0.9,2.1-0.9c0.9,0,1.5,0.3,2,1c0.5,0.6,0.8,1.6,0.8,2.7V396.7z M614.9,396.6c0-0.8-0.2-1.4-0.5-1.9
			c-0.3-0.5-0.8-0.7-1.4-0.7c-0.7,0-1.3,0.3-1.7,1v3.4c0.4,0.7,0.9,1,1.7,1c0.6,0,1.1-0.2,1.4-0.7S614.9,397.5,614.9,396.6z"/>
		<path d="M620,398.4l1.7-5.4h1.3l-2.9,8.3c-0.4,1.2-1.2,1.8-2.1,1.8l-0.2,0l-0.5-0.1v-1l0.3,0c0.4,0,0.7-0.1,1-0.3s0.4-0.5,0.6-0.9
			l0.3-0.7l-2.6-7.1h1.3L620,398.4z"/>
	</g>
	<g>
		<path d="M618.4,317.8h-4.6v4.9h-1.5v-11h6.8v1.2h-5.4v3.8h4.6V317.8z"/>
		<path d="M625.5,322.6c-0.1-0.2-0.1-0.4-0.2-0.9c-0.7,0.7-1.4,1-2.3,1c-0.8,0-1.5-0.2-2-0.7c-0.5-0.5-0.8-1-0.8-1.7
			c0-0.9,0.3-1.5,1-2s1.6-0.7,2.7-0.7h1.4V317c0-0.5-0.1-0.9-0.4-1.2c-0.3-0.3-0.7-0.4-1.3-0.4c-0.5,0-0.9,0.1-1.3,0.4
			c-0.3,0.3-0.5,0.6-0.5,0.9h-1.4c0-0.4,0.1-0.8,0.4-1.2s0.7-0.7,1.2-0.9s1-0.3,1.6-0.3c0.9,0,1.7,0.2,2.2,0.7
			c0.5,0.5,0.8,1.1,0.8,1.9v3.8c0,0.8,0.1,1.3,0.3,1.8v0.1H625.5z M623.2,321.6c0.4,0,0.9-0.1,1.2-0.3c0.4-0.2,0.7-0.5,0.9-0.9v-1.7
			h-1.1c-1.7,0-2.6,0.5-2.6,1.5c0,0.4,0.1,0.8,0.4,1C622.3,321.4,622.7,321.6,623.2,321.6z"/>
		<path d="M628.9,312.3c0-0.2,0.1-0.4,0.2-0.6c0.1-0.2,0.3-0.2,0.6-0.2s0.5,0.1,0.6,0.2c0.1,0.2,0.2,0.3,0.2,0.6
			c0,0.2-0.1,0.4-0.2,0.6c-0.1,0.2-0.3,0.2-0.6,0.2s-0.5-0.1-0.6-0.2C628.9,312.7,628.9,312.5,628.9,312.3z M630.4,322.6H629v-8.2
			h1.4V322.6z"/>
		<path d="M634.1,322.6h-1.4V311h1.4V322.6z"/>
		<path d="M636,318.5c0-0.8,0.2-1.5,0.5-2.2s0.8-1.1,1.3-1.5c0.6-0.3,1.2-0.5,1.9-0.5c1.1,0,2,0.4,2.7,1.2c0.7,0.8,1,1.8,1,3.1v0.1
			c0,0.8-0.2,1.5-0.5,2.1c-0.3,0.6-0.7,1.1-1.3,1.5c-0.6,0.4-1.2,0.5-2,0.5c-1.1,0-2-0.4-2.7-1.2C636.4,320.8,636,319.8,636,318.5
			L636,318.5z M637.4,318.6c0,0.9,0.2,1.6,0.6,2.2s1,0.8,1.7,0.8c0.7,0,1.3-0.3,1.7-0.8s0.6-1.3,0.6-2.3c0-0.9-0.2-1.6-0.6-2.2
			c-0.4-0.6-1-0.8-1.7-0.8c-0.7,0-1.2,0.3-1.7,0.8S637.4,317.6,637.4,318.6z"/>
		<path d="M647.8,320.7l2-6.3h1.4l-2.9,8.2h-1.1l-3-8.2h1.4L647.8,320.7z"/>
		<path d="M655.9,322.8c-1.1,0-2-0.4-2.7-1.1c-0.7-0.7-1-1.7-1-2.9v-0.3c0-0.8,0.2-1.5,0.5-2.2s0.7-1.1,1.3-1.5
			c0.6-0.4,1.2-0.5,1.8-0.5c1.1,0,1.9,0.4,2.5,1.1c0.6,0.7,0.9,1.7,0.9,3v0.6h-5.5c0,0.8,0.3,1.5,0.7,2c0.5,0.5,1,0.7,1.7,0.7
			c0.5,0,0.9-0.1,1.3-0.3c0.3-0.2,0.6-0.5,0.9-0.8l0.9,0.7C658.3,322.3,657.3,322.8,655.9,322.8z M655.7,315.4c-0.6,0-1,0.2-1.4,0.6
			c-0.4,0.4-0.6,1-0.7,1.7h4.1v-0.1c0-0.7-0.2-1.3-0.6-1.7S656.3,315.4,655.7,315.4z"/>
		<path d="M664.7,315.7c-0.2,0-0.4-0.1-0.7-0.1c-0.9,0-1.5,0.4-1.9,1.2v5.8h-1.4v-8.2h1.4l0,0.9c0.5-0.7,1.1-1.1,2-1.1
			c0.3,0,0.5,0,0.6,0.1V315.7z"/>
		<path d="M674.9,322.6c-0.1-0.2-0.1-0.4-0.2-0.9c-0.7,0.7-1.4,1-2.3,1c-0.8,0-1.5-0.2-2-0.7c-0.5-0.5-0.8-1-0.8-1.7
			c0-0.9,0.3-1.5,1-2s1.6-0.7,2.7-0.7h1.4V317c0-0.5-0.1-0.9-0.4-1.2c-0.3-0.3-0.7-0.4-1.3-0.4c-0.5,0-0.9,0.1-1.3,0.4
			c-0.3,0.3-0.5,0.6-0.5,0.9h-1.4c0-0.4,0.1-0.8,0.4-1.2s0.7-0.7,1.2-0.9s1-0.3,1.6-0.3c0.9,0,1.7,0.2,2.2,0.7
			c0.5,0.5,0.8,1.1,0.8,1.9v3.8c0,0.8,0.1,1.3,0.3,1.8v0.1H674.9z M672.5,321.6c0.4,0,0.9-0.1,1.2-0.3c0.4-0.2,0.7-0.5,0.9-0.9v-1.7
			h-1.1c-1.7,0-2.6,0.5-2.6,1.5c0,0.4,0.1,0.8,0.4,1C671.7,321.4,672.1,321.6,672.5,321.6z"/>
		<path d="M685.2,318.6c0,1.2-0.3,2.3-0.9,3c-0.6,0.8-1.3,1.1-2.3,1.1c-1,0-1.8-0.3-2.3-0.9v3.9h-1.4v-11.3h1.3l0.1,0.9
			c0.6-0.7,1.4-1.1,2.4-1.1c1,0,1.8,0.4,2.3,1.1s0.9,1.8,0.9,3.1V318.6z M683.8,318.5c0-0.9-0.2-1.7-0.6-2.2
			c-0.4-0.5-0.9-0.8-1.6-0.8c-0.8,0-1.5,0.4-1.9,1.1v3.9c0.4,0.7,1.1,1.1,1.9,1.1c0.7,0,1.2-0.3,1.6-0.8
			C683.6,320.3,683.8,319.5,683.8,318.5z"/>
		<path d="M693.8,318.6c0,1.2-0.3,2.3-0.9,3c-0.6,0.8-1.3,1.1-2.3,1.1c-1,0-1.8-0.3-2.3-0.9v3.9h-1.4v-11.3h1.3l0.1,0.9
			c0.6-0.7,1.4-1.1,2.4-1.1c1,0,1.8,0.4,2.3,1.1s0.9,1.8,0.9,3.1V318.6z M692.4,318.5c0-0.9-0.2-1.7-0.6-2.2
			c-0.4-0.5-0.9-0.8-1.6-0.8c-0.8,0-1.5,0.4-1.9,1.1v3.9c0.4,0.7,1.1,1.1,1.9,1.1c0.7,0,1.2-0.3,1.6-0.8
			C692.2,320.3,692.4,319.5,692.4,318.5z"/>
		<path d="M700.4,320.5c0-0.4-0.1-0.7-0.4-0.9c-0.3-0.2-0.8-0.4-1.5-0.5c-0.7-0.2-1.3-0.3-1.7-0.5s-0.7-0.5-0.9-0.8
			c-0.2-0.3-0.3-0.6-0.3-1c0-0.7,0.3-1.2,0.9-1.7c0.6-0.5,1.3-0.7,2.2-0.7c0.9,0,1.7,0.2,2.3,0.7c0.6,0.5,0.9,1.1,0.9,1.8h-1.4
			c0-0.4-0.2-0.7-0.5-1s-0.7-0.4-1.2-0.4c-0.5,0-0.9,0.1-1.2,0.3c-0.3,0.2-0.4,0.5-0.4,0.9c0,0.3,0.1,0.6,0.4,0.8
			c0.3,0.2,0.8,0.3,1.4,0.5c0.7,0.2,1.3,0.3,1.7,0.6s0.8,0.5,1,0.8c0.2,0.3,0.3,0.7,0.3,1.1c0,0.7-0.3,1.3-0.9,1.8
			c-0.6,0.4-1.3,0.7-2.3,0.7c-0.7,0-1.2-0.1-1.7-0.3c-0.5-0.2-0.9-0.6-1.2-1s-0.4-0.9-0.4-1.4h1.4c0,0.5,0.2,0.8,0.6,1.1
			c0.4,0.3,0.8,0.4,1.4,0.4c0.5,0,1-0.1,1.3-0.3C700.2,321.1,700.4,320.8,700.4,320.5z"/>
		<path d="M616.2,341.2c-0.1-0.2-0.1-0.4-0.2-0.9c-0.7,0.7-1.4,1-2.3,1c-0.8,0-1.5-0.2-2-0.7c-0.5-0.5-0.8-1-0.8-1.7
			c0-0.9,0.3-1.5,1-2s1.6-0.7,2.7-0.7h1.4v-0.6c0-0.5-0.1-0.9-0.4-1.2c-0.3-0.3-0.7-0.4-1.3-0.4c-0.5,0-0.9,0.1-1.3,0.4
			c-0.3,0.3-0.5,0.6-0.5,0.9H611c0-0.4,0.1-0.8,0.4-1.2s0.7-0.7,1.2-0.9s1-0.3,1.6-0.3c0.9,0,1.7,0.2,2.2,0.7
			c0.5,0.5,0.8,1.1,0.8,1.9v3.8c0,0.8,0.1,1.3,0.3,1.8v0.1H616.2z M613.8,340.2c0.4,0,0.9-0.1,1.2-0.3c0.4-0.2,0.7-0.5,0.9-0.9v-1.7
			h-1.1c-1.7,0-2.6,0.5-2.6,1.5c0,0.4,0.1,0.8,0.4,1C613,340,613.4,340.2,613.8,340.2z"/>
		<path d="M620.9,333l0,1c0.6-0.8,1.4-1.2,2.5-1.2c1.7,0,2.6,1,2.6,2.9v5.4h-1.4v-5.4c0-0.6-0.1-1-0.4-1.3s-0.7-0.4-1.2-0.4
			c-0.5,0-0.9,0.1-1.2,0.4c-0.3,0.2-0.6,0.6-0.8,1v5.8h-1.4V333H620.9z"/>
		<path d="M627.7,337.1c0-1.3,0.3-2.3,0.9-3c0.6-0.8,1.4-1.1,2.3-1.1c1,0,1.7,0.3,2.3,1v-4.3h1.4v11.6h-1.3l-0.1-0.9
			c-0.6,0.7-1.3,1-2.3,1c-0.9,0-1.7-0.4-2.3-1.2c-0.6-0.8-0.9-1.8-0.9-3V337.1z M629.1,337.2c0,0.9,0.2,1.7,0.6,2.2
			c0.4,0.5,0.9,0.8,1.6,0.8c0.9,0,1.5-0.4,1.9-1.2v-3.8c-0.4-0.8-1.1-1.2-1.9-1.2c-0.7,0-1.2,0.3-1.6,0.8
			C629.3,335.4,629.1,336.2,629.1,337.2z"/>
		<path d="M640.3,337.1c0-1.3,0.3-2.3,0.9-3c0.6-0.8,1.4-1.1,2.3-1.1c1,0,1.7,0.3,2.3,1v-4.3h1.4v11.6h-1.3l-0.1-0.9
			c-0.6,0.7-1.3,1-2.3,1c-0.9,0-1.7-0.4-2.3-1.2c-0.6-0.8-0.9-1.8-0.9-3V337.1z M641.7,337.2c0,0.9,0.2,1.7,0.6,2.2
			c0.4,0.5,0.9,0.8,1.6,0.8c0.9,0,1.5-0.4,1.9-1.2v-3.8c-0.4-0.8-1.1-1.2-1.9-1.2c-0.7,0-1.2,0.3-1.6,0.8
			C641.9,335.4,641.7,336.2,641.7,337.2z"/>
		<path d="M654.5,341.2c-0.1-0.2-0.1-0.4-0.2-0.9c-0.7,0.7-1.4,1-2.3,1c-0.8,0-1.5-0.2-2-0.7c-0.5-0.5-0.8-1-0.8-1.7
			c0-0.9,0.3-1.5,1-2s1.6-0.7,2.7-0.7h1.4v-0.6c0-0.5-0.1-0.9-0.4-1.2c-0.3-0.3-0.7-0.4-1.3-0.4c-0.5,0-0.9,0.1-1.3,0.4
			c-0.3,0.3-0.5,0.6-0.5,0.9h-1.4c0-0.4,0.1-0.8,0.4-1.2s0.7-0.7,1.2-0.9s1-0.3,1.6-0.3c0.9,0,1.7,0.2,2.2,0.7
			c0.5,0.5,0.8,1.1,0.8,1.9v3.8c0,0.8,0.1,1.3,0.3,1.8v0.1H654.5z M652.1,340.2c0.4,0,0.9-0.1,1.2-0.3c0.4-0.2,0.7-0.5,0.9-0.9v-1.7
			h-1.1c-1.7,0-2.6,0.5-2.6,1.5c0,0.4,0.1,0.8,0.4,1C651.3,340,651.7,340.2,652.1,340.2z"/>
		<path d="M659.7,331.1v2h1.5v1.1h-1.5v5.1c0,0.3,0.1,0.6,0.2,0.7c0.1,0.2,0.4,0.2,0.7,0.2c0.2,0,0.4,0,0.7-0.1v1.1
			c-0.4,0.1-0.7,0.2-1.1,0.2c-0.6,0-1.1-0.2-1.4-0.6c-0.3-0.4-0.5-0.9-0.5-1.6v-5.1h-1.5V333h1.5v-2H659.7z"/>
		<path d="M667.9,341.2c-0.1-0.2-0.1-0.4-0.2-0.9c-0.7,0.7-1.4,1-2.3,1c-0.8,0-1.5-0.2-2-0.7c-0.5-0.5-0.8-1-0.8-1.7
			c0-0.9,0.3-1.5,1-2s1.6-0.7,2.7-0.7h1.4v-0.6c0-0.5-0.1-0.9-0.4-1.2c-0.3-0.3-0.7-0.4-1.3-0.4c-0.5,0-0.9,0.1-1.3,0.4
			c-0.3,0.3-0.5,0.6-0.5,0.9h-1.4c0-0.4,0.1-0.8,0.4-1.2s0.7-0.7,1.2-0.9s1-0.3,1.6-0.3c0.9,0,1.7,0.2,2.2,0.7
			c0.5,0.5,0.8,1.1,0.8,1.9v3.8c0,0.8,0.1,1.3,0.3,1.8v0.1H667.9z M665.6,340.2c0.4,0,0.9-0.1,1.2-0.3c0.4-0.2,0.7-0.5,0.9-0.9v-1.7
			h-1.1c-1.7,0-2.6,0.5-2.6,1.5c0,0.4,0.1,0.8,0.4,1C664.8,340,665.2,340.2,665.6,340.2z"/>
		<path d="M678.2,337.2c0,1.3-0.3,2.3-0.9,3c-0.6,0.8-1.3,1.1-2.3,1.1c-1,0-1.8-0.4-2.4-1.1l-0.1,0.9h-1.3v-11.6h1.4v4.3
			c0.6-0.7,1.3-1.1,2.3-1.1c1,0,1.8,0.4,2.3,1.1c0.6,0.8,0.9,1.8,0.9,3.1V337.2z M676.8,337.1c0-1-0.2-1.7-0.6-2.2s-0.9-0.8-1.6-0.8
			c-0.9,0-1.6,0.4-2,1.3v3.5c0.4,0.9,1.1,1.3,2,1.3c0.7,0,1.2-0.3,1.6-0.8S676.8,338.1,676.8,337.1z"/>
		<path d="M685.1,341.2c-0.1-0.2-0.1-0.4-0.2-0.9c-0.7,0.7-1.4,1-2.3,1c-0.8,0-1.5-0.2-2-0.7c-0.5-0.5-0.8-1-0.8-1.7
			c0-0.9,0.3-1.5,1-2s1.6-0.7,2.7-0.7h1.4v-0.6c0-0.5-0.1-0.9-0.4-1.2c-0.3-0.3-0.7-0.4-1.3-0.4c-0.5,0-0.9,0.1-1.3,0.4
			c-0.3,0.3-0.5,0.6-0.5,0.9h-1.4c0-0.4,0.1-0.8,0.4-1.2s0.7-0.7,1.2-0.9s1-0.3,1.6-0.3c0.9,0,1.7,0.2,2.2,0.7
			c0.5,0.5,0.8,1.1,0.8,1.9v3.8c0,0.8,0.1,1.3,0.3,1.8v0.1H685.1z M682.7,340.2c0.4,0,0.9-0.1,1.2-0.3c0.4-0.2,0.7-0.5,0.9-0.9v-1.7
			h-1.1c-1.7,0-2.6,0.5-2.6,1.5c0,0.4,0.1,0.8,0.4,1C681.9,340,682.3,340.2,682.7,340.2z"/>
		<path d="M693.2,339c0-0.4-0.1-0.7-0.4-0.9c-0.3-0.2-0.8-0.4-1.5-0.5c-0.7-0.2-1.3-0.3-1.7-0.5s-0.7-0.5-0.9-0.8
			c-0.2-0.3-0.3-0.6-0.3-1c0-0.7,0.3-1.2,0.9-1.7c0.6-0.5,1.3-0.7,2.2-0.7c0.9,0,1.7,0.2,2.3,0.7c0.6,0.5,0.9,1.1,0.9,1.8h-1.4
			c0-0.4-0.2-0.7-0.5-1s-0.7-0.4-1.2-0.4c-0.5,0-0.9,0.1-1.2,0.3c-0.3,0.2-0.4,0.5-0.4,0.9c0,0.3,0.1,0.6,0.4,0.8
			c0.3,0.2,0.8,0.3,1.4,0.5c0.7,0.2,1.3,0.3,1.7,0.6s0.8,0.5,1,0.8c0.2,0.3,0.3,0.7,0.3,1.1c0,0.7-0.3,1.3-0.9,1.8
			c-0.6,0.4-1.3,0.7-2.3,0.7c-0.7,0-1.2-0.1-1.7-0.3c-0.5-0.2-0.9-0.6-1.2-1s-0.4-0.9-0.4-1.4h1.4c0,0.5,0.2,0.8,0.6,1.1
			c0.4,0.3,0.8,0.4,1.4,0.4c0.5,0,1-0.1,1.3-0.3C693,339.7,693.2,339.4,693.2,339z"/>
		<path d="M699.8,341.4c-1.1,0-2-0.4-2.7-1.1c-0.7-0.7-1-1.7-1-2.9v-0.3c0-0.8,0.2-1.5,0.5-2.2s0.7-1.1,1.3-1.5
			c0.6-0.4,1.2-0.5,1.8-0.5c1.1,0,1.9,0.4,2.5,1.1c0.6,0.7,0.9,1.7,0.9,3v0.6h-5.5c0,0.8,0.3,1.5,0.7,2c0.5,0.5,1,0.7,1.7,0.7
			c0.5,0,0.9-0.1,1.3-0.3c0.3-0.2,0.6-0.5,0.9-0.8l0.9,0.7C702.2,340.8,701.2,341.4,699.8,341.4z M699.7,334c-0.6,0-1,0.2-1.4,0.6
			c-0.4,0.4-0.6,1-0.7,1.7h4.1v-0.1c0-0.7-0.2-1.3-0.6-1.7S700.2,334,699.7,334z"/>
		<path d="M643.3,357.6c0-0.4-0.1-0.7-0.4-0.9c-0.3-0.2-0.8-0.4-1.5-0.5c-0.7-0.2-1.3-0.3-1.7-0.5s-0.7-0.5-0.9-0.8
			c-0.2-0.3-0.3-0.6-0.3-1c0-0.7,0.3-1.2,0.9-1.7c0.6-0.5,1.3-0.7,2.2-0.7c0.9,0,1.7,0.2,2.3,0.7c0.6,0.5,0.9,1.1,0.9,1.8h-1.4
			c0-0.4-0.2-0.7-0.5-1s-0.7-0.4-1.2-0.4c-0.5,0-0.9,0.1-1.2,0.3c-0.3,0.2-0.4,0.5-0.4,0.9c0,0.3,0.1,0.6,0.4,0.8
			c0.3,0.2,0.8,0.3,1.4,0.5c0.7,0.2,1.3,0.3,1.7,0.6s0.8,0.5,1,0.8c0.2,0.3,0.3,0.7,0.3,1.1c0,0.7-0.3,1.3-0.9,1.8
			c-0.6,0.4-1.3,0.7-2.3,0.7c-0.7,0-1.2-0.1-1.7-0.3c-0.5-0.2-0.9-0.6-1.2-1s-0.4-0.9-0.4-1.4h1.4c0,0.5,0.2,0.8,0.6,1.1
			c0.4,0.3,0.8,0.4,1.4,0.4c0.5,0,1-0.1,1.3-0.3C643.2,358.3,643.3,358,643.3,357.6z"/>
		<path d="M650,360c-1.1,0-2-0.4-2.7-1.1c-0.7-0.7-1-1.7-1-2.9v-0.3c0-0.8,0.2-1.5,0.5-2.2s0.7-1.1,1.3-1.5c0.6-0.4,1.2-0.5,1.8-0.5
			c1.1,0,1.9,0.4,2.5,1.1c0.6,0.7,0.9,1.7,0.9,3v0.6h-5.5c0,0.8,0.3,1.5,0.7,2c0.5,0.5,1,0.7,1.7,0.7c0.5,0,0.9-0.1,1.3-0.3
			c0.3-0.2,0.6-0.5,0.9-0.8l0.9,0.7C652.4,359.4,651.3,360,650,360z M649.8,352.6c-0.6,0-1,0.2-1.4,0.6c-0.4,0.4-0.6,1-0.7,1.7h4.1
			v-0.1c0-0.7-0.2-1.3-0.6-1.7S650.4,352.6,649.8,352.6z"/>
		<path d="M658.7,352.9c-0.2,0-0.4-0.1-0.7-0.1c-0.9,0-1.5,0.4-1.9,1.2v5.8h-1.4v-8.2h1.4l0,0.9c0.5-0.7,1.1-1.1,2-1.1
			c0.3,0,0.5,0,0.6,0.1V352.9z"/>
		<path d="M662.8,357.9l2-6.3h1.4l-2.9,8.2h-1.1l-3-8.2h1.4L662.8,357.9z"/>
		<path d="M671,360c-1.1,0-2-0.4-2.7-1.1c-0.7-0.7-1-1.7-1-2.9v-0.3c0-0.8,0.2-1.5,0.5-2.2s0.7-1.1,1.3-1.5c0.6-0.4,1.2-0.5,1.8-0.5
			c1.1,0,1.9,0.4,2.5,1.1c0.6,0.7,0.9,1.7,0.9,3v0.6h-5.5c0,0.8,0.3,1.5,0.7,2c0.5,0.5,1,0.7,1.7,0.7c0.5,0,0.9-0.1,1.3-0.3
			c0.3-0.2,0.6-0.5,0.9-0.8l0.9,0.7C673.4,359.4,672.3,360,671,360z M670.8,352.6c-0.6,0-1,0.2-1.4,0.6c-0.4,0.4-0.6,1-0.7,1.7h4.1
			v-0.1c0-0.7-0.2-1.3-0.6-1.7S671.4,352.6,670.8,352.6z"/>
		<path d="M679.7,352.9c-0.2,0-0.4-0.1-0.7-0.1c-0.9,0-1.5,0.4-1.9,1.2v5.8h-1.4v-8.2h1.4l0,0.9c0.5-0.7,1.1-1.1,2-1.1
			c0.3,0,0.5,0,0.6,0.1V352.9z"/>
	</g>
	<g>
		<g>
			<path class="st3" d="M511,249.2c-4.5-0.6-10.6-1-17-1c-6.4,0-12.4,0.3-17,1c-6.8,0.9-7.7,2.1-7.7,3.1v10.7c0,0.5,0.2,1.1,1.4,1.6
				c-0.9,0.5-1.4,1-1.4,1.6V277c0,0.5,0.2,1.1,1.4,1.6c-0.9,0.5-1.4,1-1.4,1.6V291c0,1,0.9,2.2,7.7,3.1c4.5,0.6,10.6,1,17,1
				s12.4-0.3,17-1c6.8-0.9,7.7-2.1,7.7-3.1v-10.7c0-0.7-0.4-1.2-1.4-1.6c1.1-0.6,1.4-1.1,1.4-1.6v-10.7c0-0.7-0.4-1.2-1.4-1.6
				c1.1-0.6,1.4-1.1,1.4-1.6v-10.7C518.7,251.4,517.8,250.2,511,249.2L511,249.2z M517,256.4c-0.2,0.2-1.1,0.8-5.1,1.4l0.3,1.6
				c1.9-0.3,3.3-0.6,4.4-1c0.1-0.1,0.3-0.1,0.4-0.2v1.4c-0.2,0.2-1.1,0.8-5.1,1.4l0.3,1.6c1.9-0.3,3.3-0.6,4.4-1
				c0.1-0.1,0.3-0.1,0.4-0.2v1.4c-0.2,0.2-1.4,1-7.1,1.7c-4.4,0.5-10,0.9-16,0.9c-5.9,0-11.6-0.3-16-0.9c-5.6-0.7-6.8-1.5-7.1-1.7
				v-8.8c1.1,0.5,3,1,6,1.4c4.5,0.6,10.6,1,17,1c6.4,0,12.4-0.3,17-1c3.1-0.4,4.9-0.9,6-1.4L517,256.4z M478.1,250.8
				c4.4-0.5,10-0.9,16-0.9c5.9,0,11.6,0.3,16,0.9c4.8,0.6,6.4,1.3,6.9,1.6c-0.5,0.3-2.1,1-6.9,1.6c-4.4,0.5-10,0.9-16,0.9
				c-5.9,0-11.6-0.3-16-0.9c-4.8-0.6-6.4-1.3-6.9-1.6C471.7,252.1,473.2,251.4,478.1,250.8L478.1,250.8z M517,270.4
				c-0.2,0.2-1.1,0.8-5.1,1.4l0.3,1.6c1.9-0.3,3.3-0.6,4.4-1c0.1-0.1,0.3-0.1,0.4-0.2v1.4c-0.2,0.2-1.1,0.8-5.1,1.4l0.3,1.6
				c1.9-0.3,3.3-0.6,4.4-1c0.1-0.1,0.3-0.1,0.4-0.2v1.4c-0.2,0.2-1.4,1-7.1,1.7c-4.4,0.6-10,0.9-16,0.9c-5.9,0-11.6-0.3-16-0.9
				c-5.6-0.7-6.8-1.5-7.1-1.7v-8.8c1.1,0.5,3,1,6,1.4c4.5,0.6,10.6,1,17,1c6.4,0,12.4-0.3,17-1c3.1-0.4,4.9-0.9,6-1.4L517,270.4z
				 M510,292.6c-4.4,0.5-10,0.9-16,0.9c-5.9,0-11.6-0.3-16-0.9c-5.6-0.7-6.8-1.5-7.1-1.7v-8.8c1.1,0.5,3,1,6,1.4
				c4.5,0.6,10.6,1,17,1c6.4,0,12.4-0.3,17-1c3.1-0.4,4.9-0.9,6-1.4v2.2c-0.2,0.2-1.1,0.8-5.1,1.4l0.3,1.6c1.9-0.3,3.3-0.6,4.4-1
				c0.1-0.1,0.3-0.1,0.4-0.2v1.4c-0.2,0.2-1.1,0.8-5.1,1.4l0.3,1.6c1.9-0.3,3.3-0.6,4.4-1c0.1-0.1,0.3-0.1,0.4-0.2v1.4
				C516.8,291.1,515.6,291.9,510,292.6L510,292.6z M516.9,280.3c-0.5,0.3-2,1-6.9,1.6c-4.4,0.5-10,0.9-16,0.9
				c-5.9,0-11.6-0.3-16-0.9c-4.9-0.6-6.4-1.3-6.9-1.6c0.3-0.2,0.9-0.5,2.2-0.8c1,0.2,2.2,0.4,3.7,0.6c4.5,0.6,10.6,1,17,1
				c6.4,0,12.4-0.3,17-1c1.5-0.2,2.7-0.4,3.7-0.6C516,279.9,516.6,280.2,516.9,280.3L516.9,280.3z M516.9,266.4
				c-0.5,0.3-2,1-6.9,1.6c-4.4,0.5-10,0.9-16,0.9c-5.9,0-11.6-0.3-16-0.9c-4.9-0.6-6.4-1.3-6.9-1.6c0.3-0.2,0.9-0.5,2.2-0.8
				c1,0.2,2.2,0.4,3.7,0.6c4.5,0.6,10.6,1,17,1c6.4,0,12.4-0.3,17-1c1.5-0.2,2.7-0.4,3.7-0.6C516,265.9,516.6,266.2,516.9,266.4
				L516.9,266.4z"/>
			<path class="st3" d="M508.7,289.5l0.2,1.6c0.6-0.1,1.1-0.1,1.7-0.2l-0.2-1.6C509.8,289.4,509.3,289.4,508.7,289.5L508.7,289.5z"
				/>
			<path class="st3" d="M508.7,286.2l0.2,1.6c0.6-0.1,1.1-0.1,1.7-0.2l-0.2-1.6C509.8,286.1,509.3,286.1,508.7,286.2L508.7,286.2z"
				/>
			<path class="st3" d="M508.7,275.5l0.2,1.6c0.6-0.1,1.1-0.1,1.7-0.2l-0.2-1.6C509.8,275.4,509.3,275.4,508.7,275.5L508.7,275.5z"
				/>
			<path class="st3" d="M508.7,272.2l0.2,1.6c0.6-0.1,1.1-0.1,1.7-0.2l-0.2-1.6C509.8,272.1,509.3,272.2,508.7,272.2L508.7,272.2z"
				/>
			<path class="st3" d="M508.7,261.5l0.2,1.6c0.6-0.1,1.1-0.1,1.7-0.2l-0.2-1.6C509.8,261.4,509.3,261.5,508.7,261.5L508.7,261.5z"
				/>
			<path class="st3" d="M508.7,258.3l0.2,1.6c0.6-0.1,1.1-0.1,1.7-0.2l-0.2-1.6C509.8,258.1,509.3,258.2,508.7,258.3L508.7,258.3z"
				/>
			<path class="st3" d="M488.3,258c-1.4,0-2.8-0.1-4.1-0.2v0c-0.2,0-0.4,0.1-0.6,0.2c-0.2,0.2-0.3,0.4-0.3,0.6v4.1
				c0,0.4,0.3,0.8,0.8,0.8c1.3,0.1,2.7,0.2,4.1,0.2c0,0,0,0,0,0c0.5,0,0.8-0.4,0.8-0.8v-4.1C489.1,258.4,488.7,258.1,488.3,258
				L488.3,258z M487.5,262.1c-0.8,0-1.7-0.1-2.5-0.1v-2.5c0.8,0,1.6,0.1,2.5,0.1V262.1z"/>
			<path class="st3" d="M495.7,258.1L495.7,258.1c-0.5,0-1.1,0-1.6,0c-0.8,0-1.6,0-2.5,0h0c-0.2,0-0.4,0.1-0.6,0.2
				c-0.2,0.2-0.2,0.4-0.2,0.6v4.1c0,0.4,0.4,0.8,0.8,0.8c0.8,0,1.7,0,2.5,0c0.5,0,1.1,0,1.7,0c0.5,0,0.8-0.4,0.8-0.8v-4.1
				C496.5,258.5,496.1,258.1,495.7,258.1L495.7,258.1z M494.8,262.2c-0.3,0-0.6,0-0.8,0c-0.5,0-1.1,0-1.6,0v-2.5c0.6,0,1.1,0,1.6,0
				c0.3,0,0.6,0,0.8,0V262.2z"/>
			<path class="st3" d="M503,257.9c-1.3,0.1-2.7,0.1-4.1,0.2c-0.4,0-0.8,0.4-0.8,0.8v4.1c0,0.5,0.4,0.8,0.8,0.8c0,0,0,0,0,0
				c1.4,0,2.8-0.1,4.1-0.2h0c0.4,0,0.8-0.4,0.8-0.8v-4.1c0-0.2-0.1-0.4-0.3-0.6C503.5,258,503.2,257.9,503,257.9L503,257.9z
				 M502.2,262c-0.8,0-1.6,0.1-2.5,0.1v-2.5c0.8,0,1.7-0.1,2.5-0.1V262z"/>
			<path class="st3" d="M488.3,272c-1.4,0-2.8-0.1-4.1-0.2c-0.2,0-0.4,0.1-0.6,0.2c-0.2,0.2-0.3,0.4-0.3,0.6v4.1
				c0,0.4,0.3,0.8,0.8,0.8c1.3,0.1,2.7,0.2,4.1,0.2c0,0,0,0,0,0c0.5,0,0.8-0.4,0.8-0.8v-4.1C489.1,272.4,488.7,272,488.3,272
				L488.3,272z M487.5,276.1c-0.8,0-1.7-0.1-2.5-0.1v-2.5c0.8,0,1.6,0.1,2.5,0.1V276.1z"/>
			<path class="st3" d="M495.7,272.1L495.7,272.1c-0.5,0-1.1,0-1.6,0c-0.8,0-1.6,0-2.5,0h0c-0.2,0-0.4,0.1-0.6,0.2s-0.2,0.4-0.2,0.6
				v4.1v0c0,0.4,0.4,0.8,0.8,0.8c0.8,0,1.7,0,2.5,0c0.5,0,1.1,0,1.7,0c0.5,0,0.8-0.4,0.8-0.8v-4.1
				C496.5,272.5,496.1,272.1,495.7,272.1L495.7,272.1z M494.8,276.2c-0.3,0-0.6,0-0.8,0c-0.5,0-1.1,0-1.6,0v-2.5c0.6,0,1.1,0,1.6,0
				c0.3,0,0.6,0,0.8,0V276.2z"/>
			<path class="st3" d="M503,271.9c-1.3,0.1-2.7,0.1-4.1,0.2c-0.4,0-0.8,0.4-0.8,0.8v4.1c0,0.5,0.4,0.8,0.8,0.8c0,0,0,0,0,0
				c1.4,0,2.8-0.1,4.1-0.2l0,0c0.4,0,0.8-0.4,0.8-0.8v-4.1c0-0.2-0.1-0.4-0.3-0.6C503.5,271.9,503.2,271.9,503,271.9L503,271.9z
				 M502.2,276c-0.8,0-1.6,0.1-2.5,0.1v-2.5c0.8,0,1.7-0.1,2.5-0.1V276z"/>
			<path class="st3" d="M488.3,286c-1.4,0-2.8-0.1-4.1-0.2v0c-0.2,0-0.4,0.1-0.6,0.2c-0.2,0.2-0.3,0.4-0.3,0.6v4.1
				c0,0.4,0.3,0.8,0.8,0.8c1.3,0.1,2.7,0.2,4.1,0.2c0,0,0,0,0,0c0.5,0,0.8-0.4,0.8-0.8v-4.1C489.1,286.4,488.7,286,488.3,286
				L488.3,286z M487.5,290.1c-0.8,0-1.7-0.1-2.5-0.1v-2.5c0.8,0,1.6,0.1,2.5,0.1V290.1z"/>
			<path class="st3" d="M495.7,286.1L495.7,286.1c-0.5,0-1.1,0-1.6,0c-0.8,0-1.6,0-2.5,0h0c-0.2,0-0.4,0.1-0.6,0.2
				c-0.2,0.2-0.2,0.4-0.2,0.6v4.1c0,0.4,0.4,0.8,0.8,0.8c0.8,0,1.7,0,2.5,0c0.5,0,1.1,0,1.7,0c0.5,0,0.8-0.4,0.8-0.8v-4.1
				C496.5,286.4,496.1,286.1,495.7,286.1L495.7,286.1z M494.8,290.2c-0.3,0-0.6,0-0.8,0c-0.5,0-1.1,0-1.6,0v-2.5c0.6,0,1.1,0,1.6,0
				c0.3,0,0.6,0,0.8,0V290.2z"/>
			<path class="st3" d="M503,285.8c-1.3,0.1-2.7,0.1-4.1,0.2c-0.4,0-0.8,0.4-0.8,0.8v4.1c0,0.5,0.4,0.8,0.8,0.8c0,0,0,0,0,0
				c1.4,0,2.8-0.1,4.1-0.2h0c0.4,0,0.8-0.4,0.8-0.8v-4.1c0-0.2-0.1-0.4-0.3-0.6C503.5,285.9,503.2,285.8,503,285.8L503,285.8z
				 M502.2,290c-0.8,0-1.6,0.1-2.5,0.1v-2.5c0.8,0,1.7-0.1,2.5-0.1V290z"/>
		</g>
	</g>
	<g>
		<path d="M451.9,308.2v4.2h-1.4v-10.8h4c1.2,0,2.1,0.3,2.8,0.9s1,1.4,1,2.4c0,1.1-0.3,1.9-1,2.4c-0.7,0.6-1.6,0.9-2.8,0.9H451.9z
			 M451.9,307h2.6c0.8,0,1.4-0.2,1.8-0.5c0.4-0.4,0.6-0.9,0.6-1.6c0-0.6-0.2-1.2-0.6-1.6c-0.4-0.4-1-0.6-1.7-0.6h-2.7V307z"/>
		<path d="M463.7,305.6c-0.2,0-0.4-0.1-0.7-0.1c-0.9,0-1.5,0.4-1.8,1.2v5.7h-1.4v-8.1h1.3l0,0.9c0.5-0.7,1.1-1.1,1.9-1.1
			c0.3,0,0.5,0,0.6,0.1V305.6z"/>
		<path d="M465,302.2c0-0.2,0.1-0.4,0.2-0.6c0.1-0.2,0.3-0.2,0.6-0.2c0.3,0,0.5,0.1,0.6,0.2c0.1,0.2,0.2,0.3,0.2,0.6
			s-0.1,0.4-0.2,0.6c-0.1,0.1-0.3,0.2-0.6,0.2c-0.3,0-0.5-0.1-0.6-0.2C465.1,302.6,465,302.5,465,302.2z M466.5,312.4h-1.4v-8.1h1.4
			V312.4z"/>
		<path d="M470,304.4l0,0.9c0.6-0.7,1.4-1,2.4-1c1.1,0,1.9,0.4,2.3,1.3c0.3-0.4,0.6-0.7,1-0.9c0.4-0.2,0.9-0.4,1.5-0.4
			c1.8,0,2.7,0.9,2.7,2.8v5.4h-1.4v-5.3c0-0.6-0.1-1-0.4-1.3c-0.3-0.3-0.7-0.4-1.3-0.4c-0.5,0-0.9,0.2-1.3,0.5
			c-0.3,0.3-0.5,0.7-0.6,1.2v5.3h-1.4v-5.3c0-1.2-0.6-1.8-1.7-1.8c-0.9,0-1.5,0.4-1.9,1.2v5.9h-1.4v-8.1H470z"/>
		<path d="M487,312.4c-0.1-0.2-0.1-0.4-0.2-0.8c-0.6,0.7-1.4,1-2.3,1c-0.8,0-1.4-0.2-2-0.7c-0.5-0.4-0.8-1-0.8-1.7
			c0-0.8,0.3-1.5,1-2c0.6-0.5,1.5-0.7,2.7-0.7h1.3v-0.6c0-0.5-0.1-0.9-0.4-1.2s-0.7-0.4-1.3-0.4c-0.5,0-0.9,0.1-1.2,0.4
			c-0.3,0.2-0.5,0.5-0.5,0.9H482c0-0.4,0.1-0.8,0.4-1.2c0.3-0.4,0.7-0.7,1.2-0.9c0.5-0.2,1-0.3,1.6-0.3c0.9,0,1.7,0.2,2.2,0.7
			c0.5,0.5,0.8,1.1,0.8,1.9v3.7c0,0.7,0.1,1.3,0.3,1.8v0.1H487z M484.8,311.4c0.4,0,0.8-0.1,1.2-0.3c0.4-0.2,0.7-0.5,0.8-0.9v-1.7
			h-1.1c-1.7,0-2.5,0.5-2.5,1.5c0,0.4,0.1,0.8,0.4,1S484.3,311.4,484.8,311.4z"/>
		<path d="M494.3,305.6c-0.2,0-0.4-0.1-0.7-0.1c-0.9,0-1.5,0.4-1.8,1.2v5.7h-1.4v-8.1h1.3l0,0.9c0.5-0.7,1.1-1.1,1.9-1.1
			c0.3,0,0.5,0,0.6,0.1V305.6z"/>
		<path d="M498.3,310.4l1.9-6h1.5l-3.2,9.3c-0.5,1.3-1.3,2-2.4,2l-0.3,0l-0.5-0.1v-1.1l0.4,0c0.5,0,0.8-0.1,1.1-0.3
			c0.3-0.2,0.5-0.5,0.6-1l0.3-0.8l-2.9-8h1.5L498.3,310.4z"/>
		<path d="M511.6,312.4c-0.1-0.2-0.1-0.4-0.2-0.8c-0.6,0.7-1.4,1-2.3,1c-0.8,0-1.4-0.2-2-0.7c-0.5-0.4-0.8-1-0.8-1.7
			c0-0.8,0.3-1.5,1-2c0.6-0.5,1.5-0.7,2.7-0.7h1.3v-0.6c0-0.5-0.1-0.9-0.4-1.2c-0.3-0.3-0.7-0.4-1.3-0.4c-0.5,0-0.9,0.1-1.2,0.4
			c-0.3,0.2-0.5,0.5-0.5,0.9h-1.4c0-0.4,0.1-0.8,0.4-1.2c0.3-0.4,0.7-0.7,1.2-0.9c0.5-0.2,1-0.3,1.6-0.3c0.9,0,1.7,0.2,2.2,0.7
			c0.5,0.5,0.8,1.1,0.8,1.9v3.7c0,0.7,0.1,1.3,0.3,1.8v0.1H511.6z M509.3,311.4c0.4,0,0.8-0.1,1.2-0.3c0.4-0.2,0.7-0.5,0.8-0.9v-1.7
			h-1.1c-1.7,0-2.5,0.5-2.5,1.5c0,0.4,0.1,0.8,0.4,1C508.5,311.3,508.9,311.4,509.3,311.4z"/>
		<path d="M521.8,308.5c0,1.2-0.3,2.2-0.8,3c-0.6,0.8-1.3,1.1-2.3,1.1c-1,0-1.7-0.3-2.3-0.9v3.9h-1.4v-11.2h1.3l0.1,0.9
			c0.6-0.7,1.3-1,2.3-1c1,0,1.7,0.4,2.3,1.1s0.8,1.7,0.8,3V308.5z M520.4,308.3c0-0.9-0.2-1.6-0.6-2.2s-0.9-0.8-1.6-0.8
			c-0.8,0-1.5,0.4-1.9,1.1v3.8c0.4,0.7,1,1.1,1.9,1.1c0.7,0,1.2-0.3,1.6-0.8C520.2,310.1,520.4,309.4,520.4,308.3z"/>
		<path d="M530.3,308.5c0,1.2-0.3,2.2-0.8,3c-0.6,0.8-1.3,1.1-2.3,1.1c-1,0-1.7-0.3-2.3-0.9v3.9h-1.4v-11.2h1.3l0.1,0.9
			c0.6-0.7,1.3-1,2.3-1c1,0,1.7,0.4,2.3,1.1s0.8,1.7,0.8,3V308.5z M528.9,308.3c0-0.9-0.2-1.6-0.6-2.2c-0.4-0.5-0.9-0.8-1.6-0.8
			c-0.8,0-1.5,0.4-1.9,1.1v3.8c0.4,0.7,1,1.1,1.9,1.1c0.7,0,1.2-0.3,1.6-0.8C528.7,310.1,528.9,309.4,528.9,308.3z"/>
		<path d="M536.8,310.3c0-0.4-0.1-0.7-0.4-0.9s-0.8-0.4-1.5-0.5c-0.7-0.1-1.3-0.3-1.7-0.5c-0.4-0.2-0.7-0.5-0.9-0.7
			c-0.2-0.3-0.3-0.6-0.3-1c0-0.7,0.3-1.2,0.8-1.7c0.6-0.5,1.3-0.7,2.1-0.7c0.9,0,1.7,0.2,2.2,0.7s0.9,1.1,0.9,1.8h-1.4
			c0-0.4-0.2-0.7-0.5-1c-0.3-0.3-0.7-0.4-1.2-0.4c-0.5,0-0.9,0.1-1.2,0.3s-0.4,0.5-0.4,0.9c0,0.3,0.1,0.6,0.4,0.8
			c0.3,0.2,0.7,0.3,1.4,0.5c0.7,0.2,1.2,0.3,1.7,0.6s0.7,0.5,0.9,0.8c0.2,0.3,0.3,0.7,0.3,1.1c0,0.7-0.3,1.3-0.9,1.7
			s-1.3,0.7-2.2,0.7c-0.6,0-1.2-0.1-1.7-0.3c-0.5-0.2-0.9-0.5-1.2-1c-0.3-0.4-0.4-0.9-0.4-1.3h1.4c0,0.5,0.2,0.8,0.6,1.1
			c0.3,0.3,0.8,0.4,1.4,0.4c0.5,0,0.9-0.1,1.3-0.3C536.6,310.9,536.8,310.6,536.8,310.3z"/>
		<path d="M454,330.7c-0.1-0.2-0.1-0.4-0.2-0.8c-0.6,0.7-1.4,1-2.3,1c-0.8,0-1.4-0.2-2-0.7c-0.5-0.4-0.8-1-0.8-1.7
			c0-0.8,0.3-1.5,1-2c0.6-0.5,1.5-0.7,2.7-0.7h1.3v-0.6c0-0.5-0.1-0.9-0.4-1.2s-0.7-0.4-1.3-0.4c-0.5,0-0.9,0.1-1.2,0.4
			c-0.3,0.2-0.5,0.5-0.5,0.9H449c0-0.4,0.1-0.8,0.4-1.2c0.3-0.4,0.7-0.7,1.2-0.9c0.5-0.2,1-0.3,1.6-0.3c0.9,0,1.7,0.2,2.2,0.7
			c0.5,0.5,0.8,1.1,0.8,1.9v3.7c0,0.7,0.1,1.3,0.3,1.8v0.1H454z M451.7,329.7c0.4,0,0.8-0.1,1.2-0.3c0.4-0.2,0.7-0.5,0.8-0.9v-1.7
			h-1.1c-1.7,0-2.5,0.5-2.5,1.5c0,0.4,0.1,0.8,0.4,1S451.3,329.7,451.7,329.7z"/>
		<path d="M458.6,322.7l0,1c0.6-0.8,1.4-1.2,2.4-1.2c1.7,0,2.6,1,2.6,2.9v5.3h-1.4v-5.3c0-0.6-0.1-1-0.4-1.3
			c-0.3-0.3-0.7-0.4-1.2-0.4c-0.4,0-0.8,0.1-1.2,0.4s-0.6,0.6-0.8,0.9v5.7h-1.4v-8.1H458.6z"/>
		<path d="M465.4,326.6c0-1.2,0.3-2.2,0.9-3c0.6-0.8,1.4-1.1,2.3-1.1c0.9,0,1.7,0.3,2.2,1v-4.2h1.4v11.4h-1.3l-0.1-0.9
			c-0.6,0.7-1.3,1-2.3,1c-0.9,0-1.7-0.4-2.3-1.1c-0.6-0.8-0.9-1.8-0.9-3V326.6z M466.8,326.8c0,0.9,0.2,1.6,0.6,2.1
			c0.4,0.5,0.9,0.8,1.6,0.8c0.9,0,1.5-0.4,1.9-1.2v-3.7c-0.4-0.8-1-1.1-1.9-1.1c-0.7,0-1.2,0.3-1.6,0.8
			C467,325,466.8,325.8,466.8,326.8z"/>
		<path d="M477.8,326.6c0-1.2,0.3-2.2,0.9-3c0.6-0.8,1.4-1.1,2.3-1.1c0.9,0,1.7,0.3,2.2,1v-4.2h1.4v11.4h-1.3l-0.1-0.9
			c-0.6,0.7-1.3,1-2.3,1c-0.9,0-1.7-0.4-2.3-1.1c-0.6-0.8-0.9-1.8-0.9-3V326.6z M479.2,326.8c0,0.9,0.2,1.6,0.6,2.1s0.9,0.8,1.6,0.8
			c0.9,0,1.5-0.4,1.9-1.2v-3.7c-0.4-0.8-1-1.1-1.9-1.1c-0.7,0-1.2,0.3-1.6,0.8S479.2,325.8,479.2,326.8z"/>
		<path d="M491.7,330.7c-0.1-0.2-0.1-0.4-0.2-0.8c-0.6,0.7-1.4,1-2.3,1c-0.8,0-1.4-0.2-2-0.7c-0.5-0.4-0.8-1-0.8-1.7
			c0-0.8,0.3-1.5,1-2c0.6-0.5,1.5-0.7,2.7-0.7h1.3v-0.6c0-0.5-0.1-0.9-0.4-1.2c-0.3-0.3-0.7-0.4-1.3-0.4c-0.5,0-0.9,0.1-1.2,0.4
			c-0.3,0.2-0.5,0.5-0.5,0.9h-1.4c0-0.4,0.1-0.8,0.4-1.2c0.3-0.4,0.7-0.7,1.2-0.9c0.5-0.2,1-0.3,1.6-0.3c0.9,0,1.7,0.2,2.2,0.7
			c0.5,0.5,0.8,1.1,0.8,1.9v3.7c0,0.7,0.1,1.3,0.3,1.8v0.1H491.7z M489.4,329.7c0.4,0,0.8-0.1,1.2-0.3c0.4-0.2,0.7-0.5,0.8-0.9v-1.7
			h-1.1c-1.7,0-2.5,0.5-2.5,1.5c0,0.4,0.1,0.8,0.4,1C488.6,329.6,489,329.7,489.4,329.7z"/>
		<path d="M496.9,320.7v2h1.5v1.1h-1.5v5c0,0.3,0.1,0.6,0.2,0.7c0.1,0.2,0.4,0.2,0.7,0.2c0.2,0,0.4,0,0.7-0.1v1.1
			c-0.4,0.1-0.7,0.1-1.1,0.1c-0.6,0-1.1-0.2-1.4-0.6c-0.3-0.4-0.5-0.9-0.5-1.6v-5H494v-1.1h1.5v-2H496.9z"/>
		<path d="M505,330.7c-0.1-0.2-0.1-0.4-0.2-0.8c-0.6,0.7-1.4,1-2.3,1c-0.8,0-1.4-0.2-2-0.7c-0.5-0.4-0.8-1-0.8-1.7
			c0-0.8,0.3-1.5,1-2c0.6-0.5,1.5-0.7,2.7-0.7h1.3v-0.6c0-0.5-0.1-0.9-0.4-1.2s-0.7-0.4-1.3-0.4c-0.5,0-0.9,0.1-1.2,0.4
			c-0.3,0.2-0.5,0.5-0.5,0.9h-1.4c0-0.4,0.1-0.8,0.4-1.2c0.3-0.4,0.7-0.7,1.2-0.9c0.5-0.2,1-0.3,1.6-0.3c0.9,0,1.7,0.2,2.2,0.7
			c0.5,0.5,0.8,1.1,0.8,1.9v3.7c0,0.7,0.1,1.3,0.3,1.8v0.1H505z M502.7,329.7c0.4,0,0.8-0.1,1.2-0.3c0.4-0.2,0.7-0.5,0.8-0.9v-1.7
			h-1.1c-1.7,0-2.5,0.5-2.5,1.5c0,0.4,0.1,0.8,0.4,1S502.2,329.7,502.7,329.7z"/>
		<path d="M515.1,326.8c0,1.2-0.3,2.2-0.8,3s-1.3,1.1-2.3,1.1c-1,0-1.8-0.4-2.4-1.1l-0.1,0.9h-1.3v-11.4h1.4v4.3
			c0.6-0.7,1.3-1,2.3-1c1,0,1.7,0.4,2.3,1.1c0.6,0.7,0.8,1.8,0.8,3V326.8z M513.7,326.6c0-0.9-0.2-1.7-0.5-2.2s-0.9-0.8-1.6-0.8
			c-0.9,0-1.6,0.4-2,1.3v3.5c0.4,0.8,1.1,1.3,2,1.3c0.7,0,1.2-0.3,1.5-0.8C513.6,328.4,513.7,327.7,513.7,326.6z"/>
		<path d="M521.8,330.7c-0.1-0.2-0.1-0.4-0.2-0.8c-0.6,0.7-1.4,1-2.3,1c-0.8,0-1.4-0.2-2-0.7c-0.5-0.4-0.8-1-0.8-1.7
			c0-0.8,0.3-1.5,1-2c0.6-0.5,1.5-0.7,2.7-0.7h1.3v-0.6c0-0.5-0.1-0.9-0.4-1.2s-0.7-0.4-1.3-0.4c-0.5,0-0.9,0.1-1.2,0.4
			c-0.3,0.2-0.5,0.5-0.5,0.9h-1.4c0-0.4,0.1-0.8,0.4-1.2c0.3-0.4,0.7-0.7,1.2-0.9c0.5-0.2,1-0.3,1.6-0.3c0.9,0,1.7,0.2,2.2,0.7
			c0.5,0.5,0.8,1.1,0.8,1.9v3.7c0,0.7,0.1,1.3,0.3,1.8v0.1H521.8z M519.5,329.7c0.4,0,0.8-0.1,1.2-0.3c0.4-0.2,0.7-0.5,0.8-0.9v-1.7
			h-1.1c-1.7,0-2.5,0.5-2.5,1.5c0,0.4,0.1,0.8,0.4,1S519.1,329.7,519.5,329.7z"/>
		<path d="M529.8,328.6c0-0.4-0.1-0.7-0.4-0.9c-0.3-0.2-0.8-0.4-1.5-0.5c-0.7-0.1-1.3-0.3-1.7-0.5c-0.4-0.2-0.7-0.5-0.9-0.7
			s-0.3-0.6-0.3-1c0-0.7,0.3-1.2,0.8-1.7c0.6-0.5,1.3-0.7,2.1-0.7c0.9,0,1.7,0.2,2.2,0.7s0.9,1.1,0.9,1.8h-1.4c0-0.4-0.2-0.7-0.5-1
			c-0.3-0.3-0.7-0.4-1.2-0.4c-0.5,0-0.9,0.1-1.2,0.3c-0.3,0.2-0.4,0.5-0.4,0.9c0,0.3,0.1,0.6,0.4,0.8c0.3,0.2,0.7,0.3,1.4,0.5
			c0.7,0.2,1.2,0.3,1.7,0.6c0.4,0.2,0.7,0.5,1,0.8c0.2,0.3,0.3,0.7,0.3,1.1c0,0.7-0.3,1.3-0.9,1.7c-0.6,0.4-1.3,0.7-2.2,0.7
			c-0.6,0-1.2-0.1-1.7-0.3s-0.9-0.5-1.2-1c-0.3-0.4-0.4-0.9-0.4-1.3h1.4c0,0.5,0.2,0.8,0.6,1.1c0.3,0.3,0.8,0.4,1.4,0.4
			c0.5,0,0.9-0.1,1.3-0.3S529.8,328.9,529.8,328.6z"/>
		<path d="M536.4,330.9c-1.1,0-2-0.4-2.7-1.1c-0.7-0.7-1-1.7-1-2.9v-0.3c0-0.8,0.2-1.5,0.5-2.1c0.3-0.6,0.7-1.1,1.3-1.5
			c0.5-0.4,1.1-0.5,1.8-0.5c1,0,1.9,0.3,2.4,1s0.9,1.7,0.9,3v0.6H534c0,0.8,0.3,1.4,0.7,1.9s1,0.7,1.7,0.7c0.5,0,0.9-0.1,1.2-0.3
			s0.6-0.5,0.9-0.8l0.8,0.7C538.7,330.4,537.7,330.9,536.4,330.9z M536.2,323.7c-0.6,0-1,0.2-1.4,0.6c-0.4,0.4-0.6,1-0.7,1.7h4v-0.1
			c0-0.7-0.2-1.2-0.6-1.6S536.8,323.7,536.2,323.7z"/>
		<path d="M478.9,346.9c0-0.4-0.1-0.7-0.4-0.9c-0.3-0.2-0.8-0.4-1.5-0.5c-0.7-0.1-1.3-0.3-1.7-0.5c-0.4-0.2-0.7-0.5-0.9-0.7
			s-0.3-0.6-0.3-1c0-0.7,0.3-1.2,0.8-1.7c0.6-0.5,1.3-0.7,2.1-0.7c0.9,0,1.7,0.2,2.2,0.7s0.9,1.1,0.9,1.8h-1.4c0-0.4-0.2-0.7-0.5-1
			c-0.3-0.3-0.7-0.4-1.2-0.4c-0.5,0-0.9,0.1-1.2,0.3c-0.3,0.2-0.4,0.5-0.4,0.9c0,0.3,0.1,0.6,0.4,0.8c0.3,0.2,0.7,0.3,1.4,0.5
			c0.7,0.2,1.2,0.3,1.7,0.6c0.4,0.2,0.7,0.5,1,0.8c0.2,0.3,0.3,0.7,0.3,1.1c0,0.7-0.3,1.3-0.9,1.7c-0.6,0.4-1.3,0.7-2.2,0.7
			c-0.6,0-1.2-0.1-1.7-0.3s-0.9-0.5-1.2-1c-0.3-0.4-0.4-0.9-0.4-1.3h1.4c0,0.5,0.2,0.8,0.6,1.1c0.3,0.3,0.8,0.4,1.4,0.4
			c0.5,0,0.9-0.1,1.3-0.3S478.9,347.2,478.9,346.9z"/>
		<path d="M485.4,349.2c-1.1,0-2-0.4-2.7-1.1c-0.7-0.7-1-1.7-1-2.9V345c0-0.8,0.2-1.5,0.5-2.1c0.3-0.6,0.7-1.1,1.3-1.5
			c0.5-0.4,1.1-0.5,1.8-0.5c1,0,1.9,0.3,2.4,1s0.9,1.7,0.9,3v0.6h-5.5c0,0.8,0.3,1.4,0.7,1.9s1,0.7,1.7,0.7c0.5,0,0.9-0.1,1.2-0.3
			s0.6-0.5,0.9-0.8l0.8,0.7C487.8,348.7,486.7,349.2,485.4,349.2z M485.2,342c-0.6,0-1,0.2-1.4,0.6c-0.4,0.4-0.6,1-0.7,1.7h4v-0.1
			c0-0.7-0.2-1.2-0.6-1.6S485.8,342,485.2,342z"/>
		<path d="M494,342.2c-0.2,0-0.4-0.1-0.7-0.1c-0.9,0-1.5,0.4-1.8,1.2v5.7h-1.4V341h1.3l0,0.9c0.5-0.7,1.1-1.1,1.9-1.1
			c0.3,0,0.5,0,0.6,0.1V342.2z"/>
		<path d="M498.1,347.2l2-6.2h1.4l-2.9,8.1h-1l-2.9-8.1h1.4L498.1,347.2z"/>
		<path d="M506.1,349.2c-1.1,0-2-0.4-2.7-1.1c-0.7-0.7-1-1.7-1-2.9V345c0-0.8,0.2-1.5,0.5-2.1s0.7-1.1,1.3-1.5
			c0.5-0.4,1.1-0.5,1.8-0.5c1,0,1.9,0.3,2.4,1c0.6,0.7,0.9,1.7,0.9,3v0.6h-5.5c0,0.8,0.3,1.4,0.7,1.9s1,0.7,1.7,0.7
			c0.5,0,0.9-0.1,1.2-0.3c0.3-0.2,0.6-0.5,0.9-0.8l0.8,0.7C508.4,348.7,507.4,349.2,506.1,349.2z M505.9,342c-0.6,0-1,0.2-1.4,0.6
			c-0.4,0.4-0.6,1-0.7,1.7h4v-0.1c0-0.7-0.2-1.2-0.6-1.6C506.9,342.2,506.5,342,505.9,342z"/>
		<path d="M514.7,342.2c-0.2,0-0.4-0.1-0.7-0.1c-0.9,0-1.5,0.4-1.8,1.2v5.7h-1.4V341h1.3l0,0.9c0.5-0.7,1.1-1.1,1.9-1.1
			c0.3,0,0.5,0,0.6,0.1V342.2z"/>
	</g>
</g>
<g id="arrow">
	<rect x="326.1" y="210.9" class="st5" width="86.8" height="12.5"/>
	<polygon class="st5" points="326.1,204 315.5,216.5 326.1,229.1 	"/>
</g>
<g id="arrow_1_">
	
		<rect x="422.4" y="48.9" transform="matrix(-1 8.681789e-03 -8.681789e-03 -1 931.9555 106.3344)" class="st5" width="86.8" height="12.5"/>
	<polygon class="st5" points="509.2,66.9 519.7,54.3 509,41.8 	"/>
</g>
<g id="arrow_2_">
	
		<rect x="217.7" y="51.8" transform="matrix(-1 8.681789e-03 -8.681789e-03 -1 522.6109 113.8204)" class="st5" width="86.8" height="12.5"/>
	<polygon class="st5" points="304.5,69.8 315,57.2 304.3,44.7 	"/>
</g>
<path class="st0" d="M368.7,22.9c-14.3,0-26,11.6-26,26s11.6,26,26,26s26-11.6,26-26C394.7,34.5,383,22.9,368.7,22.9z M391.7,58.1
	h-5.4c0.8-2.7,1.2-5.7,1.2-8.7h6C393.4,52.5,392.8,55.4,391.7,58.1L391.7,58.1z M343.9,49.4h6c0.1,3.1,0.5,6,1.2,8.7h-5.4
	C344.6,55.4,343.9,52.5,343.9,49.4L343.9,49.4z M345.6,39.6h5.4c-0.8,2.7-1.2,5.7-1.2,8.7h-6C343.9,45.2,344.6,42.2,345.6,39.6
	L345.6,39.6z M393.5,48.3h-6c-0.1-3.1-0.5-6-1.2-8.7h5.4C392.8,42.2,393.4,45.2,393.5,48.3L393.5,48.3z M386.3,48.3h-7.4
	c-0.1-3.1-0.3-6-0.6-8.7h6.8C385.8,42.2,386.3,45.2,386.3,48.3L386.3,48.3z M363.2,68.4h4.9v5.1C366.3,73.3,364.6,71.4,363.2,68.4z
	 M369.2,29.2v-5.1c1.8,0.3,3.5,2.2,4.9,5.1H369.2z M374.7,30.4c0.9,2.2,1.7,4.9,2.2,8h-7.6v-8L374.7,30.4z M368.1,30.4v8h-7.6
	c0.5-3,1.3-5.8,2.2-8L368.1,30.4z M363.2,29.2c1.4-3,3.1-4.8,4.9-5.1v5.1H363.2z M368.1,39.5v8.7h-8.5c0.1-3.1,0.3-6,0.7-8.7H368.1z
	 M368.1,49.4v8.7h-7.8c-0.4-2.7-0.7-5.7-0.7-8.7H368.1z M368.1,59.3v8h-5.4c-0.9-2.2-1.7-4.9-2.2-8L368.1,59.3z M369.2,67.3v-8h7.6
	c-0.5,3-1.3,5.8-2.2,8H369.2z M374.2,68.4c-1.4,3-3.1,4.8-4.9,5.2v-5.1L374.2,68.4z M369.2,58.1v-8.7h8.5c-0.1,3.1-0.3,6-0.7,8.7
	H369.2z M369.2,48.3v-8.7h7.8c0.4,2.7,0.7,5.7,0.7,8.7H369.2z M378.1,38.4c-0.5-3-1.2-5.7-2.1-8h4.5c1.8,2.2,3.2,4.9,4.2,8H378.1z
	 M375.5,29.2c-0.9-2-1.9-3.6-3.1-4.7c2.7,0.8,5,2.4,7.1,4.7H375.5z M361.9,29.2h-4.1c2.1-2.2,4.5-3.8,7.1-4.7
	C363.8,25.7,362.7,27.3,361.9,29.2z M361.4,30.4c-0.9,2.3-1.6,5-2.1,8h-6.7c1-3.1,2.4-5.8,4.2-8L361.4,30.4z M359.1,39.5
	c-0.4,2.7-0.6,5.6-0.6,8.7H351c0.1-3.1,0.5-6,1.3-8.7H359.1z M351,49.4h7.4c0.1,3.1,0.3,6,0.6,8.7h-6.8
	C351.5,55.4,351.1,52.5,351,49.4L351,49.4z M359.3,59.3c0.5,3,1.2,5.7,2.1,8h-4.6c-1.8-2.2-3.2-4.9-4.2-8L359.3,59.3z M361.9,68.4
	c0.9,2,1.9,3.6,3.1,4.7c-2.7-0.8-5-2.4-7.1-4.7H361.9z M360.6,72.3c-2.6-0.9-5-2.2-7.1-3.8h2.9C357.6,70,359,71.3,360.6,72.3z
	 M375.5,68.4h4.1c-2.1,2.2-4.5,3.9-7.1,4.7C373.6,72,374.6,70.4,375.5,68.4z M375.9,67.3c0.9-2.3,1.6-5,2.1-8h6.7
	c-1,3.1-2.4,5.8-4.2,8H375.9z M378.3,58.1c0.4-2.7,0.6-5.6,0.6-8.7h7.4c-0.1,3.1-0.5,6-1.3,8.7H378.3z M385.9,38.4
	c-0.9-3-2.3-5.7-4-8h3.3c2.4,2.2,4.5,4.9,5.9,8H385.9z M381,29.2c-1.3-1.6-2.7-2.9-4.3-3.8c2.6,0.9,5,2.2,7.1,3.8H381z M356.3,29.2
	h-2.9c2.1-1.7,4.5-3,7.1-3.8C359,26.4,357.6,27.7,356.3,29.2z M352,30.4h3.3c-1.7,2.3-3,5-4,8h-5.3C347.6,35.4,349.6,32.6,352,30.4
	L352,30.4z M351.4,59.3c0.9,3,2.3,5.7,4,8h-3.3c-2.4-2.2-4.5-4.9-5.9-8L351.4,59.3z M381,68.4h2.9c-2.1,1.7-4.5,3-7.1,3.8
	C378.3,71.3,379.7,69.9,381,68.4z M385.3,67.2H382c1.7-2.3,3-5,4-8h5.3C389.8,62.3,387.7,65.1,385.3,67.2z"/>
<g id="arrow_3_">
	
		<rect x="535.7" y="260" transform="matrix(-1 9.060305e-04 -9.060305e-04 -1 1140.3534 531.9888)" class="st5" width="68.7" height="12.5"/>
	<polygon class="st5" points="604.4,279.3 615,266.8 604.4,254.2 	"/>
</g>
<g>
	<path class="st3" d="M596.1,27.9l-2.5-0.6l-0.1-0.7c-2-10.1-10.9-17.5-21.3-17.5c-10.7,0-19.8,7.7-21.5,18.2l-0.6,3.7l-1.2,0.4
		c-5.8,1.9-9.8,7.4-9.8,13.5c0,4.1,1.6,8.1,4.5,11c2.9,2.9,6.9,4.5,11,4.5c1.5,0,2.7-1.2,2.7-2.7c0-1.5-1.2-2.7-2.7-2.7
		c-2.7,0-5.3-1.1-7.2-3c-1.9-1.9-3-4.5-3-7.2c0-3.9,2.5-7.3,6.1-8.5c0.5-0.2,1-0.3,1.4-0.5c1.7-0.6,3-2,3.3-3.8
		c0.2-0.9,0.4-2.3,0.7-3.9c1.3-8,8.2-13.8,16.3-13.8c7.8,0,14.6,5.5,16.1,13.2c0.1,0.4,0.2,0.7,0.2,1.1c0.4,1.8,1.7,3.3,3.5,3.7
		c0.7,0.2,1.7,0.4,2.8,0.7c4.7,1.2,8,5.4,8,10.3v0c0,5.9-4.4,10.8-10.1,11.6c-1.4,0.2-2.5,1.5-2.3,3c0.2,1.5,1.5,2.5,3,2.3
		c8.3-1.2,14.7-8.3,14.7-16.9v0C608.2,36.1,603.2,29.7,596.1,27.9L596.1,27.9z"/>
	<path class="st3" d="M573.7,38.8c-1.5,0-2.7,1.2-2.7,2.7v30.1c0,1.5,1.2,2.7,2.7,2.7c1.5,0,2.7-1.2,2.7-2.7V41.4
		C576.4,39.9,575.2,38.8,573.7,38.8L573.7,38.8z"/>
	<path class="st3" d="M562.2,45.7c-1.5,0-2.7,1.2-2.7,2.7v30.1c0,1.5,1.2,2.7,2.7,2.7c1.5,0,2.7-1.2,2.7-2.7V48.4
		C564.8,46.9,563.7,45.7,562.2,45.7z"/>
	<path class="st3" d="M585.2,45.7c-1.5,0-2.7,1.2-2.7,2.7v30.1c0,1.5,1.2,2.7,2.7,2.7c1.5,0,2.7-1.2,2.7-2.7V48.4
		C587.9,46.9,586.7,45.7,585.2,45.7z"/>
</g>
<g id="arrow_4_">
	
		<rect x="552.5" y="103.7" transform="matrix(6.123234e-17 -1 1 6.123234e-17 463.588 682.3142)" class="st5" width="41" height="11.4"/>
	<polygon class="st5" points="560.4,128.7 571.9,142.3 585.5,128.7 	"/>
</g>
</svg>
