<?xml version="1.0" encoding="utf-8"?>
<!-- Generator: Adobe Illustrator 24.1.1, SVG Export Plug-In . SVG Version: 6.00 Build 0)  -->
<svg version="1.1" id="Layer_1" xmlns="http://www.w3.org/2000/svg" xmlns:xlink="http://www.w3.org/1999/xlink" x="0px" y="0px"
	 viewBox="0 0 1096 574.7" style="enable-background:new 0 0 1096 574.7;" xml:space="preserve">
<style type="text/css">
	.st0{opacity:0.1;}
	.st1{fill:#3F3D56;}
	.st2{fill:#1B4DED;}
	.st3{opacity:0.1;enable-background:new    ;}
	.st4{opacity:0.1;fill:#1B4DED;enable-background:new    ;}
	.st5{fill:none;stroke:#3F3D56;stroke-width:4;stroke-miterlimit:10;}
	.st6{fill:#29266E;}
	.st7{fill:#FFFFFF;}
	.st8{fill:#FDFEFF;}
	.st9{opacity:0.4;fill:#D6D8E5;enable-background:new    ;}
	.st10{fill:#FFCEA9;}
	.st11{fill:#2B2A30;}
	.st12{fill:#9C73FF;}
	.st13{fill:#1A4BEE;}
	.st14{fill:#EDEDED;}
	.st15{fill:#F4F4F4;}
	.st16{fill:#BF4B4B;}
	.st17{fill:#F05A28;}
</style>
<g class="st0">
	<ellipse class="st1" cx="479.4" cy="362.1" rx="11.4" ry="14.9"/>
	<path class="st1" d="M488.4,298.4c1.6-2.8,2.4-5.9,2.4-9.1c0-8.2-5.1-14.9-11.4-14.9S468,281,468,289.3c0,3.2,0.8,6.3,2.4,9.1
		c-3.2,5.7-3.2,12.6,0,18.2c-3.2,5.7-3.2,12.6,0,18.2c-1.6,2.8-2.4,5.9-2.4,9.1c0,8.2,5.1,14.9,11.4,14.9s11.4-6.7,11.4-14.9
		c0-3.2-0.8-6.3-2.4-9.1c3.2-5.7,3.2-12.6,0-18.2C491.6,310.9,491.6,304,488.4,298.4L488.4,298.4z"/>
	<ellipse class="st1" cx="479.4" cy="271.1" rx="11.4" ry="14.9"/>
	<ellipse class="st1" cx="479.4" cy="252.9" rx="11.4" ry="14.9"/>
	<path class="st2" d="M436.8,128.2c-1.6-2-3-4.1-4.2-6.2l29.9-4.9l-32.3,0.2c-6.3-13.7-6.6-29.3-1-43.2l43.4,22.5l-40-29.4
		c14.9-26.2,48.2-35.3,74.4-20.4c26.2,14.9,35.3,48.2,20.4,74.4c-1.4,2.5-3,4.8-4.8,7.1c2.4,3.1,4.5,6.4,6.2,9.9l-38.8,20.2
		l41.4-13.9c5.9,17.5,2.6,36.7-8.8,51.2c18.6,23.7,14.5,57.9-9.1,76.6c-23.7,18.6-57.9,14.5-76.6-9.1c-15.6-19.8-15.6-47.6,0-67.4
		C421.3,175.9,421.3,148,436.8,128.2L436.8,128.2z"/>
	<path class="st3" d="M534.2,161.9c0,12.2-4.1,24.1-11.7,33.7c18.6,23.7,14.5,57.9-9.1,76.6c-23.7,18.6-57.9,14.5-76.6-9.1
		c-15.6-19.8-15.6-47.6,0-67.4C429.5,186.4,534.2,155.8,534.2,161.9z"/>
</g>
<g class="st0">
	<ellipse class="st1" cx="612.3" cy="330.3" rx="8.5" ry="11.1"/>
	<path class="st1" d="M619,282.6c1.2-2.1,1.8-4.4,1.8-6.8c0-6.1-3.8-11.1-8.5-11.1s-8.5,5-8.5,11.1c0,2.4,0.6,4.7,1.8,6.8
		c-2.4,4.2-2.4,9.4,0,13.6c-2.4,4.2-2.4,9.4,0,13.6c-1.2,2.1-1.8,4.4-1.8,6.8c0,6.1,3.8,11.1,8.5,11.1s8.5-5,8.5-11.1
		c0-2.4-0.6-4.7-1.8-6.8c2.4-4.2,2.4-9.4,0-13.6C621.4,292,621.4,286.9,619,282.6z"/>
	<ellipse class="st1" cx="612.3" cy="262.2" rx="8.5" ry="11.1"/>
	<ellipse class="st1" cx="612.3" cy="248.6" rx="8.5" ry="11.1"/>
	<path class="st2" d="M580.4,155.5c-1.2-1.5-2.2-3-3.2-4.7l22.3-3.7l-24.2,0.2c-4.7-10.2-5-21.9-0.8-32.3l32.4,16.8l-29.9-22
		c11.2-19.5,36.2-26.2,55.7-15c19.5,11.2,26.2,36.2,15,55.7c-1,1.7-2.1,3.3-3.3,4.9c1.8,2.3,3.4,4.8,4.7,7.4l-29,15.1l30.9-10.4
		c4.4,13,1.9,27.4-6.6,38.3c13.9,17.7,10.9,43.3-6.8,57.2c-17.7,13.9-43.3,10.9-57.2-6.8c-11.7-14.8-11.7-35.6,0-50.4
		C568.9,191.1,568.9,170.3,580.4,155.5L580.4,155.5z"/>
	<path class="st3" d="M653.2,180.7c0,9.1-3.1,18-8.7,25.2c13.9,17.7,10.9,43.3-6.8,57.2c-17.7,13.9-43.3,10.9-57.2-6.8
		c-11.7-14.8-11.7-35.6,0-50.4C575,198.9,653.2,176.1,653.2,180.7z"/>
</g>
<g class="st0">
	<ellipse class="st1" cx="1038.6" cy="322.1" rx="11.4" ry="14.9"/>
	<path class="st1" d="M1029.6,258.4c-1.6-2.8-2.4-5.9-2.4-9.1c0-8.2,5.1-14.9,11.4-14.9s11.4,6.7,11.4,14.9c0,3.2-0.8,6.3-2.4,9.1
		c3.2,5.7,3.2,12.6,0,18.2c3.2,5.7,3.2,12.6,0,18.2c1.6,2.8,2.4,5.9,2.4,9.1c0,8.2-5.1,14.9-11.4,14.9s-11.4-6.7-11.4-14.9
		c0-3.2,0.8-6.3,2.4-9.1c-3.2-5.7-3.2-12.6,0-18.2C1026.4,270.9,1026.4,264,1029.6,258.4z"/>
	<ellipse class="st1" cx="1038.6" cy="231.1" rx="11.4" ry="14.9"/>
	<ellipse class="st1" cx="1038.6" cy="212.9" rx="11.4" ry="14.9"/>
	<path class="st2" d="M1081.2,88.2c1.6-2,3-4.1,4.2-6.2l-29.9-4.9l32.3,0.2c6.3-13.7,6.6-29.3,1-43.2l-43.4,22.5l40-29.4
		c-14.9-26.2-48.2-35.3-74.4-20.4c-26.2,14.9-35.3,48.2-20.4,74.4c1.4,2.5,3,4.8,4.8,7.1c-2.4,3.1-4.5,6.4-6.2,9.9l38.8,20.2
		l-41.4-13.9c-5.9,17.5-2.6,36.7,8.8,51.2c-18.6,23.7-14.5,57.9,9.1,76.6s57.9,14.5,76.6-9.1c15.6-19.8,15.6-47.6,0-67.4
		C1096.7,135.9,1096.7,108,1081.2,88.2L1081.2,88.2z"/>
	<path class="st3" d="M983.8,121.9c0,12.2,4.1,24.1,11.7,33.7c-18.6,23.7-14.5,57.9,9.1,76.6s57.9,14.5,76.6-9.1
		c15.6-19.8,15.6-47.6,0-67.4C1088.5,146.4,983.8,115.8,983.8,121.9z"/>
</g>
<g class="st0">
	<ellipse class="st1" cx="928.7" cy="324.3" rx="8.5" ry="11.1"/>
	<path class="st1" d="M922,276.6c-1.2-2.1-1.8-4.4-1.8-6.8c0-6.1,3.8-11.1,8.5-11.1s8.5,5,8.5,11.1c0,2.4-0.6,4.7-1.8,6.8
		c2.4,4.2,2.4,9.4,0,13.6c2.4,4.2,2.4,9.4,0,13.6c1.2,2.1,1.8,4.4,1.8,6.8c0,6.1-3.8,11.1-8.5,11.1s-8.5-5-8.5-11.1
		c0-2.4,0.6-4.7,1.8-6.8c-2.4-4.2-2.4-9.4,0-13.6C919.6,286,919.6,280.9,922,276.6z"/>
	<ellipse class="st1" cx="928.7" cy="256.2" rx="8.5" ry="11.1"/>
	<ellipse class="st1" cx="928.7" cy="242.6" rx="8.5" ry="11.1"/>
	<path class="st2" d="M960.6,149.5c1.2-1.5,2.2-3,3.2-4.7l-22.3-3.7l24.2,0.2c4.7-10.2,5-21.9,0.8-32.3l-32.4,16.8l29.9-22
		c-11.2-19.5-36.2-26.2-55.7-15c-19.5,11.2-26.2,36.2-15,55.7c1,1.7,2.1,3.3,3.3,4.9c-1.8,2.3-3.4,4.8-4.7,7.4l29,15.1L890,161.6
		c-4.4,13-1.9,27.4,6.6,38.3c-13.9,17.7-10.9,43.3,6.8,57.2c17.7,13.9,43.3,10.9,57.2-6.8c11.7-14.8,11.7-35.6,0-50.4
		C972.2,185.1,972.2,164.3,960.6,149.5L960.6,149.5z"/>
	<path class="st3" d="M887.8,174.7c0,9.1,3.1,18,8.7,25.2c-13.9,17.7-10.9,43.3,6.8,57.2c17.7,13.9,43.3,10.9,57.2-6.8
		c11.7-14.8,11.7-35.6,0-50.4C966,192.9,887.8,170.1,887.8,174.7z"/>
</g>
<g class="st0">
	<ellipse class="st1" cx="61.6" cy="322.1" rx="11.4" ry="14.9"/>
	<path class="st1" d="M70.6,258.4c1.6-2.8,2.4-5.9,2.4-9.1c0-8.2-5.1-14.9-11.4-14.9s-11.4,6.7-11.4,14.9c0,3.2,0.8,6.3,2.4,9.1
		c-3.2,5.7-3.2,12.6,0,18.2c-3.2,5.7-3.2,12.6,0,18.2c-1.6,2.8-2.4,5.9-2.4,9.1c0,8.2,5.1,14.9,11.4,14.9S73,312.1,73,303.9
		c0-3.2-0.8-6.3-2.4-9.1c3.2-5.7,3.2-12.6,0-18.2C73.8,270.9,73.8,264,70.6,258.4L70.6,258.4z"/>
	<ellipse class="st1" cx="61.6" cy="231.1" rx="11.4" ry="14.9"/>
	<ellipse class="st1" cx="61.6" cy="212.9" rx="11.4" ry="14.9"/>
	<path class="st2" d="M19,88.2c-1.6-2-3-4.1-4.2-6.2l29.9-4.9l-32.4,0.3c-6.3-13.7-6.6-29.3-1-43.2l43.4,22.5l-40-29.4
		C29.6,1.1,63-7.9,89.1,7c26.1,14.9,35.2,48.3,20.3,74.4c-1.4,2.4-2.9,4.7-4.7,6.9c2.4,3.1,4.5,6.4,6.2,9.9l-38.8,20.2l41.4-13.9
		c5.9,17.5,2.6,36.7-8.8,51.2c18.6,23.7,14.5,57.9-9.1,76.6s-57.9,14.5-76.6-9.1c-15.6-19.8-15.6-47.6,0-67.4
		C3.4,135.9,3.4,108,19,88.2L19,88.2z"/>
	<path class="st3" d="M116.4,121.9c0,12.2-4.1,24.1-11.7,33.7c18.6,23.7,14.5,57.9-9.1,76.6s-57.9,14.5-76.6-9.1
		c-15.6-19.8-15.6-47.6,0-67.4C11.7,146.4,116.4,115.8,116.4,121.9z"/>
</g>
<g class="st0">
	<ellipse class="st1" cx="171.4" cy="324.3" rx="8.5" ry="11.1"/>
	<path class="st1" d="M178.2,276.6c1.2-2.1,1.8-4.4,1.8-6.8c0-6.1-3.8-11.1-8.5-11.1s-8.5,5-8.5,11.1c0,2.4,0.6,4.7,1.8,6.8
		c-2.4,4.2-2.4,9.4,0,13.6c-2.4,4.2-2.4,9.4,0,13.6c-1.2,2.1-1.8,4.4-1.8,6.8c0,6.1,3.8,11.1,8.5,11.1s8.5-5,8.5-11.1
		c0-2.4-0.6-4.7-1.8-6.8c2.4-4.2,2.4-9.4,0-13.6C180.5,286,180.5,280.9,178.2,276.6z"/>
	<ellipse class="st1" cx="171.4" cy="256.2" rx="8.5" ry="11.1"/>
	<ellipse class="st1" cx="171.4" cy="242.6" rx="8.5" ry="11.1"/>
	<path class="st2" d="M139.6,149.5c-1.2-1.5-2.2-3-3.2-4.7l22.4-3.7l-24.2,0.2c-4.7-10.2-5-21.9-0.8-32.3l32.4,16.8l-29.9-22
		c11.2-19.5,36.2-26.2,55.7-14.9c19.5,11.2,26.2,36.2,14.9,55.7c-1,1.7-2.1,3.3-3.3,4.9c1.8,2.3,3.4,4.8,4.6,7.4l-29,15.1l30.9-10.4
		c4.4,13,1.9,27.4-6.6,38.3c13.9,17.7,10.9,43.3-6.8,57.2c-17.7,13.9-43.3,10.9-57.2-6.8c-11.7-14.8-11.7-35.6,0-50.4
		C128,185.1,128,164.3,139.6,149.5L139.6,149.5z"/>
	<path class="st3" d="M212.4,174.7c0,9.1-3.1,18-8.7,25.2c13.9,17.7,10.9,43.3-6.8,57.2c-17.7,13.9-43.3,10.9-57.2-6.8
		c-11.7-14.8-11.7-35.6,0-50.4C134.1,192.9,212.4,170.1,212.4,174.7z"/>
</g>
<ellipse class="st4" cx="548" cy="493.1" rx="548" ry="8.9"/>
<ellipse class="st4" cx="548" cy="565.9" rx="548" ry="8.9"/>
<ellipse class="st4" cx="548" cy="341.3" rx="548" ry="8.9"/>
<ellipse class="st4" cx="548" cy="417.2" rx="548" ry="8.9"/>
<path class="st4" d="M808.8,110.4c-3.6-0.7-7.3-0.3-10.6,1.2c-4.1,1.8-8.7,1.8-12.7,0c-4.8-2.1-10.3-2-15,0.3
	c-1.3,0.7-2.8,1.1-4.3,1.1c-6.1,0-11.1-6.1-12.2-14.2c1.2-0.9,2.2-2,3-3.3c3.6-5.7,9.1-9.4,15.3-9.4s11.6,3.6,15.2,9.3
	c2.2,3.5,6,5.6,10.1,5.5h0.2C802.6,100.8,806.8,104.7,808.8,110.4z"/>
<path class="st4" d="M827.3,85l-9.8,6.2l6-10.8c-1.7-1.3-3.8-2.1-5.9-2.1h-0.2c-0.7,0-1.3,0-2-0.1l-3.4,2.1l1.4-2.6
	c-2.4-0.8-4.4-2.4-5.8-4.4l-6,3.8l3.8-6.8c-3.5-4.2-8.2-6.7-13.3-6.7c-6.2,0-11.7,3.7-15.3,9.4c-2.1,3.5-6,5.6-10.1,5.4h-0.3
	c-6.8,0-12.4,7.8-12.4,17.3c0,9.6,5.5,17.3,12.4,17.3c1.5,0,3-0.4,4.3-1.1c4.7-2.3,10.2-2.4,15-0.3c4.1,1.8,8.7,1.8,12.7,0
	c4.8-2.1,10.2-2,14.9,0.3c1.3,0.7,2.8,1.1,4.3,1.1c6.8,0,12.4-7.8,12.4-17.3C829.9,91.9,829,88.3,827.3,85z"/>
<path class="st4" d="M391.3,105c-2.5-0.5-5.1-0.2-7.4,0.8c-2.8,1.3-6.1,1.3-8.9,0c-3.4-1.5-7.2-1.4-10.5,0.2c-0.9,0.5-2,0.7-3,0.8
	c-4.3,0-7.8-4.3-8.5-9.9c0.8-0.6,1.6-1.4,2.1-2.3c2.5-4,6.4-6.6,10.7-6.6s8.1,2.6,10.6,6.5c1.5,2.4,4.2,3.9,7.1,3.9h0.1
	C386.9,98.3,389.8,101,391.3,105z"/>
<path class="st4" d="M404.2,87.2l-6.9,4.4l4.2-7.6c-1.2-0.9-2.6-1.5-4.1-1.5h-0.1c-0.5,0-1,0-1.4-0.1l-2.3,1.5l1-1.8
	c-1.7-0.6-3.1-1.7-4.1-3.1l-4.2,2.6l2.6-4.8c-2.2-2.9-5.7-4.6-9.3-4.7c-4.3,0-8.2,2.6-10.7,6.6c-1.5,2.4-4.2,3.9-7.1,3.8h-0.2
	c-4.8,0-8.7,5.4-8.7,12.1s3.9,12.1,8.7,12.1c1,0,2.1-0.3,3-0.8c3.3-1.6,7.1-1.7,10.5-0.2c1.4,0.6,2.9,1,4.5,1c1.5,0,3-0.3,4.4-0.9
	c3.3-1.4,7.1-1.4,10.4,0.2c0.9,0.5,2,0.7,3,0.7c4.8,0,8.7-5.4,8.7-12.1C406.1,92.1,405.4,89.5,404.2,87.2z"/>
<path class="st4" d="M269.6,183.4c2.5-0.5,5.1-0.2,7.4,0.8c2.8,1.3,6.1,1.3,8.9,0c3.4-1.5,7.2-1.4,10.5,0.2c0.9,0.5,2,0.8,3,0.8
	c4.3,0,7.8-4.3,8.5-9.9c-0.8-0.6-1.6-1.4-2.1-2.3c-2.5-4-6.4-6.6-10.7-6.6s-8.1,2.5-10.6,6.5c-1.5,2.4-4.2,3.9-7.1,3.9h-0.1
	C273.9,176.7,271,179.4,269.6,183.4z"/>
<path class="st4" d="M256.6,165.7l6.9,4.4l-4.2-7.6c1.2-0.9,2.6-1.5,4.2-1.5h0.1c0.5,0,1,0,1.4-0.1l2.3,1.5l-1-1.8
	c1.6-0.6,3.1-1.7,4.1-3.1l4.2,2.6l-2.6-4.8c2.2-2.9,5.7-4.6,9.3-4.7c4.3,0,8.2,2.6,10.7,6.6c1.5,2.4,4.2,3.9,7.1,3.8h0.2
	c4.8,0,8.7,5.4,8.7,12.1s-3.9,12.1-8.7,12.1c-1,0-2.1-0.3-3-0.8c-3.3-1.6-7.1-1.7-10.5-0.2c-1.4,0.6-2.9,1-4.5,1
	c-1.5,0-3-0.3-4.4-0.9c-3.3-1.4-7.1-1.4-10.4,0.2c-0.9,0.5-2,0.7-3,0.7c-4.8,0-8.7-5.4-8.7-12.1C254.8,170.5,255.4,168,256.6,165.7z
	"/>
<path class="st5" d="M664.3,490.3c2.6-4.8-0.3-10.8-3.8-15.1s-7.6-8.8-7.5-14.3c0.1-7.9,8.5-12.6,15.2-16.7c5-3.1,9.6-6.8,13.7-11
	c1.7-1.6,3.1-3.5,4.2-5.6c1.4-3.1,1.3-6.6,1.3-10c-0.3-11.3-0.8-22.5-1.7-33.8"/>
<path class="st2" d="M698.5,383.2c-0.2-4.2-2.5-8-6.2-10.1l-2.8,5.5l0.1-6.6c-6.5-1.9-13.4,1.8-15.3,8.3c-1.9,6.5,1.8,13.4,8.3,15.3
	c6.5,1.9,13.4-1.8,15.3-8.3C698.3,386,698.5,384.6,698.5,383.2z"/>
<path class="st2" d="M676.5,466.5c-3.1,6-10.5,8.4-16.6,5.3c-3.9-2-6.4-5.9-6.7-10.3c-0.1-1.7,0.2-3.4,0.8-5c2.5-6.3,9.6-9.5,16-7
	c3.2,1.3,5.8,3.9,7,7.1l-7.7,6.3l8.5-2C677.8,462.9,677.4,464.8,676.5,466.5z"/>
<path class="st2" d="M670.4,442.6c-6.8,0.3-12.6-4.9-12.9-11.7c-0.3-5.7,3.5-10.9,9-12.4l-0.1,5.1l2.8-5.5l0,0
	c6.8-0.3,12.6,4.9,12.9,11.7S677.2,442.3,670.4,442.6L670.4,442.6z"/>
<path class="st2" d="M700.3,422.8c-6.8,0.4-12.6-4.9-12.9-11.7c-0.4-6.8,4.9-12.6,11.7-12.9c2.3-0.1,4.7,0.4,6.7,1.6l-2.2,6l4.4-4.4
	c5,4.6,5.3,12.4,0.8,17.4C706.6,421.2,703.5,422.6,700.3,422.8L700.3,422.8z"/>
<path class="st3" d="M696.8,386.5c-2.8,0.3-5.6,1.2-8.5,1.4s-6-0.5-7.8-2.7c-0.8-1.3-1.6-2.6-2.3-4c-0.8-1.2-1.8-2.2-3.1-2.9
	c-3.1,6.1-0.7,13.5,5.4,16.6c6.1,3.1,13.5,0.7,16.6-5.4c0.5-1,0.8-2,1.1-3C697.7,386.4,697.3,386.5,696.8,386.5z"/>
<path class="st3" d="M700.3,422.8c-6.8,0.3-12.6-4.9-12.9-11.7c-0.1-2,0.3-4,1.2-5.8c1,0.7,1.8,1.5,2.5,2.5c0.7,1.4,1.6,2.8,2.4,4.1
	c1.9,2.3,5.2,3,8.2,2.8s5.8-1,8.8-1.3c0.4,0,0.8-0.1,1.2-0.1C710.5,418.6,705.8,422.5,700.3,422.8z"/>
<path class="st3" d="M670.4,442.6c-6.8,0.3-12.6-4.9-12.9-11.7c-0.1-1.9,0.3-3.8,1.1-5.6c1,0.7,1.9,1.5,2.6,2.5
	c0.8,1.4,1.7,2.8,2.7,4.2c2.1,2.3,5.6,3.1,8.7,3s6-0.8,9-1C680.1,438.9,675.6,442.4,670.4,442.6z"/>
<path class="st3" d="M676.5,466.5c-3.1,6-10.5,8.4-16.6,5.3c-3.9-2-6.4-5.9-6.7-10.3c-0.1-1.7,0.2-3.4,0.8-5c1,0.7,1.9,1.5,2.7,2.4
	c1.2,1.4,1.9,3,3.3,4.4c2.5,2.5,6.6,3.5,10.2,3.6C672.3,466.9,674.4,466.8,676.5,466.5z"/>
<path class="st5" d="M54.3,418.3c2.6-4.8-0.3-10.8-3.8-15.1s-7.6-8.8-7.5-14.3c0.1-7.9,8.5-12.6,15.2-16.7c5-3.1,9.6-6.8,13.7-11
	c1.7-1.6,3.1-3.5,4.2-5.6c1.4-3.1,1.4-6.6,1.3-10c-0.3-11.3-0.9-22.5-1.7-33.8"/>
<path class="st2" d="M88.4,311.2c-0.2-4.2-2.5-8-6.1-10.1l-2.8,5.5l0.1-6.6c-6.5-1.9-13.4,1.8-15.3,8.3c-1.9,6.5,1.8,13.4,8.3,15.3
	c6.5,1.9,13.4-1.8,15.3-8.3C88.3,314,88.5,312.6,88.4,311.2L88.4,311.2z"/>
<path class="st2" d="M66.5,394.5c-3.1,6-10.5,8.4-16.6,5.3c-3.9-2-6.4-5.9-6.7-10.3c-0.1-1.7,0.2-3.4,0.8-5c2.5-6.3,9.6-9.5,16-7
	c3.2,1.3,5.8,3.9,7,7.1l-7.7,6.3l8.5-2C67.8,390.9,67.4,392.8,66.5,394.5z"/>
<path class="st2" d="M60.4,370.6c-6.8,0.3-12.6-4.9-12.9-11.7c-0.3-5.7,3.5-10.9,9-12.4l-0.1,5.1l2.8-5.5l0,0
	c6.8-0.3,12.6,4.9,12.9,11.7C72.4,364.6,67.2,370.3,60.4,370.6L60.4,370.6z"/>
<path class="st2" d="M90.3,350.8c-6.8,0.4-12.6-4.9-12.9-11.7c-0.4-6.8,4.9-12.6,11.7-12.9c2.3-0.1,4.7,0.4,6.7,1.6l-2.2,6l4.4-4.4
	c5,4.6,5.3,12.4,0.8,17.4C96.6,349.2,93.5,350.6,90.3,350.8L90.3,350.8z"/>
<path class="st3" d="M86.8,314.5c-2.8,0.3-5.6,1.2-8.5,1.4s-6-0.5-7.8-2.7c-0.8-1.3-1.6-2.6-2.3-4c-0.8-1.2-1.8-2.2-3.1-2.9
	c-3.1,6.1-0.7,13.5,5.4,16.6c6.1,3.1,13.5,0.7,16.6-5.4c0.5-1,0.8-2,1.1-3C87.7,314.4,87.3,314.4,86.8,314.5z"/>
<path class="st3" d="M90.3,350.8c-6.8,0.3-12.6-4.9-12.9-11.7c-0.1-2,0.3-4,1.2-5.8c1,0.7,1.8,1.5,2.5,2.5c0.7,1.4,1.6,2.8,2.4,4.1
	c1.9,2.3,5.2,3,8.2,2.9s5.8-1,8.8-1.3c0.4,0,0.8-0.1,1.2-0.1C100.5,346.6,95.8,350.5,90.3,350.8z"/>
<path class="st3" d="M60.4,370.6c-6.8,0.3-12.6-4.9-12.9-11.7c-0.1-1.9,0.3-3.8,1.1-5.6c1,0.7,1.9,1.5,2.6,2.5
	c0.8,1.4,1.7,2.8,2.7,4.2c2.1,2.3,5.6,3.1,8.7,3s6-0.8,9-1C70.1,366.9,65.6,370.4,60.4,370.6z"/>
<path class="st3" d="M66.5,394.5c-3.1,6-10.5,8.4-16.6,5.3c-3.9-2-6.4-5.9-6.7-10.3c-0.1-1.7,0.2-3.4,0.8-5c1,0.7,1.9,1.5,2.7,2.4
	c1.2,1.4,1.9,3,3.3,4.4c2.5,2.5,6.6,3.5,10.2,3.6C62.3,394.9,64.4,394.8,66.5,394.5z"/>
<path class="st5" d="M460.5,335.9c-2.6-4.8,0.3-10.8,3.8-15.1s7.5-8.8,7.5-14.3c-0.1-7.9-8.5-12.6-15.2-16.7c-5-3.1-9.5-6.8-13.6-11
	c-1.7-1.6-3.1-3.5-4.2-5.6c-1.4-3.1-1.3-6.6-1.3-10c0.3-11.3,0.9-22.5,1.7-33.8"/>
<path class="st2" d="M426.4,228.9c0.2-4.2,2.5-8,6.1-10.1l2.8,5.5l-0.1-6.6c1.3-0.4,2.7-0.5,4-0.5c6.8,0.3,12,6.1,11.7,12.9
	c-0.3,6.8-6.1,12-12.9,11.7C431.3,241.4,426.1,235.6,426.4,228.9L426.4,228.9z"/>
<path class="st2" d="M448.3,312.2c3.1,6,10.5,8.4,16.6,5.3c6-3.1,8.4-10.5,5.3-16.6c-3.1-6-10.5-8.4-16.6-5.3
	c-2.7,1.4-4.8,3.8-5.9,6.7l7.7,6.3l-8.5-2C447,308.5,447.4,310.4,448.3,312.2z"/>
<path class="st2" d="M454.4,288.3c6.8,0.3,12.6-4.9,12.9-11.7c0.3-5.7-3.4-10.9-9-12.4l0.1,5.1l-2.8-5.5l0,0
	c-6.8-0.3-12.6,4.9-12.9,11.7c-0.1,1.4,0.1,2.8,0.5,4.2C444.7,284.5,449.2,288,454.4,288.3z"/>
<path class="st2" d="M424.5,268.4c6.8,0.3,12.6-4.9,12.9-11.7s-4.9-12.6-11.7-12.9c-2.3-0.1-4.7,0.4-6.7,1.6l2.2,6l-4.5-4.3
	c-2.4,2.2-3.9,5.2-4,8.5c-0.1,1.1,0,2.3,0.3,3.4C414.4,264.3,419.1,268.1,424.5,268.4z"/>
<path class="st3" d="M428,232.1c2.8,0.3,5.6,1.2,8.5,1.4s6-0.5,7.8-2.7c0.8-1.3,1.6-2.6,2.3-4c0.8-1.2,1.8-2.2,3.1-2.9
	c3.1,6.1,0.7,13.5-5.4,16.6s-13.5,0.7-16.6-5.4c-0.5-1-0.9-2-1.1-3C427.1,232,427.6,232.1,428,232.1z"/>
<path class="st3" d="M424.5,268.4c6.8,0.3,12.6-4.9,12.9-11.7c0.1-2-0.3-4-1.2-5.8c-1,0.7-1.8,1.5-2.5,2.5c-0.7,1.4-1.6,2.8-2.4,4.1
	c-1.9,2.3-5.2,3-8.2,2.9s-5.8-1-8.8-1.3c-0.4,0-0.8-0.1-1.2-0.1C414.4,264.2,419,268.1,424.5,268.4z"/>
<path class="st3" d="M454.4,288.3c6.8,0.3,12.6-4.9,12.9-11.7c0.1-1.9-0.3-3.9-1.1-5.6c-1,0.7-1.9,1.5-2.6,2.5
	c-0.8,1.4-1.7,2.8-2.7,4.1c-2.1,2.3-5.6,3.1-8.7,3s-6-0.8-9-1C444.8,284.6,449.2,288,454.4,288.3z"/>
<path class="st3" d="M448.3,312.2c3.1,6,10.6,8.4,16.6,5.3c5.5-2.9,8-9.4,5.9-15.3c-1,0.7-1.9,1.5-2.7,2.4c-1.2,1.4-2,3-3.3,4.4
	c-2.5,2.5-6.6,3.5-10.2,3.6C452.5,312.5,450.4,312.4,448.3,312.2z"/>
<circle class="st6" cx="779.7" cy="238.2" r="100"/>
<path class="st7" d="M822.6,264c-3.5-3.5-11.8-8.7-16-10.7c-4.8-2.3-6.5-2.3-9.9,0.2c-2.8,2-4.7,3.9-7.9,3.2s-9.7-5.5-15.9-11.7
	s-11-12.6-11.7-15.9s1.2-5.1,3.2-7.9c2.4-3.4,2.5-5.1,0.2-9.9c-2-4.1-7.2-12.5-10.7-16s-4.3-2.7-6.2-2c-2,0.8-3.9,1.8-5.7,3
	c-3.5,2.3-5.4,4.3-6.8,7.2s-2.9,8.3,5,22.5c5.9,10.9,13.3,20.8,22.1,29.5l0,0l0,0c8.7,8.8,18.7,16.3,29.6,22.1
	c14.2,8,19.6,6.4,22.5,5s4.9-3.3,7.2-6.8c1.2-1.8,2.2-3.7,3-5.7C825.4,268.2,826.2,267.4,822.6,264z"/>
<path class="st3" d="M779.7,138.2c-55.2,0-100,44.7-100,100c0,55.2,44.7,100,100,100c55.2,0,100-44.7,100-100c0,0,0-0.1,0-0.1
	C879.7,183,834.9,138.3,779.7,138.2z M779.7,324.8c-47.9,0-86.7-38.8-86.7-86.7c0-47.9,38.8-86.7,86.7-86.7
	c47.9,0,86.7,38.8,86.7,86.7v0C866.4,286,827.6,324.9,779.7,324.8L779.7,324.8L779.7,324.8z"/>
<circle class="st6" cx="550.1" cy="390" r="100"/>
<path class="st7" d="M606.9,359.8L577,390.3c-0.2,0.2-0.2,0.5,0,0.8c0,0,0,0,0,0l21,22.3c1.4,1.4,1.4,3.7,0,5.1
	c-0.7,0.7-1.6,1-2.5,1.1c-1,0-1.9-0.4-2.6-1.1L572,396.2c-0.2-0.2-0.6-0.2-0.8,0l-5.1,5.1c-4.2,4.3-10,6.7-16,6.7
	c-6.1,0-12-2.5-16.3-6.9l-4.9-5c-0.2-0.2-0.6-0.2-0.8,0l-20.8,22.2c-1.4,1.4-3.7,1.4-5.1,0c0,0,0,0,0,0c-1.4-1.4-1.4-3.7,0-5.1
	c0,0,0,0,0,0l20.9-22.3c0.2-0.2,0.2-0.6,0-0.8l-29.9-30.5c-0.2-0.2-0.6-0.2-0.8,0c-0.1,0.1-0.2,0.2-0.2,0.4v60.9
	c0,4.9,4,8.9,8.9,8.9H599c4.9,0,8.9-4,8.9-8.9v-60.9c0-0.3-0.2-0.6-0.5-0.6C607.2,359.6,607,359.7,606.9,359.8z"/>
<path class="st7" d="M550.1,400.9c4.1,0,8-1.6,10.9-4.5l43.6-44.4c-1.5-1.3-3.5-2-5.5-2h-97.9c-2,0-4,0.7-5.5,2l43.6,44.4
	C542.1,399.3,546,400.9,550.1,400.9z"/>
<path class="st3" d="M548.8,290.1c-55.2,0-100,44.7-100,100c0,55.2,44.7,100,99.9,100c55.2,0,100-44.7,100-100c0,0,0-0.1,0-0.1
	C648.7,334.8,604,290.1,548.8,290.1z M548.8,476.7c-47.9,0-86.7-38.8-86.7-86.7c0-47.9,38.8-86.7,86.7-86.7
	c47.9,0,86.7,38.8,86.7,86.7l0,0C635.5,437.9,596.7,476.7,548.8,476.7z"/>
<circle class="st6" cx="312.9" cy="315.4" r="100"/>
<path class="st8" d="M312.9,267.5L273,359.5l3.7,3.7l36.1-15.9l36.1,15.9l3.7-3.7L312.9,267.5z"/>
<path class="st3" d="M312.9,215.4c-55.2,0-100,44.7-100.1,99.9c0,55.2,44.7,100,99.9,100.1c55.2,0,100-44.7,100.1-99.9
	c0,0,0,0,0-0.1C412.8,260.2,368.1,215.4,312.9,215.4z M312.9,402c-47.9,0-86.7-38.8-86.7-86.7s38.8-86.7,86.7-86.7
	s86.7,38.8,86.7,86.7c0,0,0,0,0,0C399.5,363.2,360.7,402,312.9,402L312.9,402z"/>
<path class="st5" d="M995.4,573.4c2.6-4.8-0.3-10.8-3.8-15.1s-7.6-8.8-7.5-14.3c0.1-7.9,8.5-12.5,15.2-16.7c5-3.1,9.5-6.8,13.6-11
	c1.7-1.6,3.1-3.5,4.2-5.6c1.4-3.1,1.3-6.6,1.3-10c-0.3-11.3-0.8-22.5-1.7-33.8"/>
<path class="st2" d="M1029.5,459.3c-0.2-4.2-2.5-8-6.1-10.1l-2.8,5.5l0.1-6.6c-1.3-0.4-2.6-0.6-4-0.5c-6.8,0.3-12,6.1-11.7,12.9
	c0.3,6.8,6.1,12,12.9,11.7C1024.6,471.9,1029.9,466.1,1029.5,459.3C1029.6,459.3,1029.6,459.3,1029.5,459.3L1029.5,459.3z"/>
<path class="st2" d="M1007.6,542.6c-3.1,6-10.5,8.4-16.6,5.3c-6-3.1-8.4-10.5-5.3-16.6s10.5-8.4,16.6-5.3c2.7,1.4,4.8,3.8,5.9,6.7
	l-7.7,6.3l8.5-2C1008.9,538.9,1008.5,540.9,1007.6,542.6z"/>
<path class="st2" d="M1001.5,518.7c-6.8,0.3-12.6-4.9-12.9-11.7c-0.3-5.7,3.4-10.9,9-12.4l-0.1,5.1l2.8-5.5l0,0
	c6.8-0.3,12.6,4.9,12.9,11.7C1013.5,512.6,1008.3,518.4,1001.5,518.7C1001.5,518.7,1001.5,518.7,1001.5,518.7L1001.5,518.7z"/>
<path class="st2" d="M1031.4,498.8c-6.8,0.3-12.6-4.9-12.9-11.7c-0.3-6.8,4.9-12.6,11.7-12.9c2.3-0.1,4.7,0.4,6.7,1.6l-2.2,6
	l4.5-4.3c2.4,2.2,3.9,5.2,4,8.5c0.1,1.1,0,2.3-0.3,3.4C1041.5,494.8,1036.9,498.6,1031.4,498.8z"/>
<path class="st3" d="M1027.9,462.6c-2.8,0.3-5.6,1.2-8.5,1.4s-6-0.5-7.8-2.7c-0.8-1.3-1.6-2.6-2.3-4c-0.8-1.2-1.8-2.2-3.1-2.9
	c-3.1,6.1-0.7,13.5,5.4,16.6c6.1,3.1,13.5,0.7,16.6-5.4c0.5-1,0.9-2,1.1-3C1028.8,462.5,1028.3,462.5,1027.9,462.6z"/>
<path class="st3" d="M1031.4,498.8c-6.8,0.3-12.6-4.9-12.9-11.7c-0.1-2,0.3-4,1.2-5.8c1,0.7,1.8,1.5,2.5,2.5
	c0.7,1.4,1.5,2.8,2.4,4.1c1.9,2.3,5.2,3,8.2,2.9s5.8-1,8.8-1.3c0.4,0,0.8-0.1,1.2-0.1C1041.5,494.7,1036.9,498.6,1031.4,498.8z"/>
<path class="st3" d="M1001.5,518.7c-6.8,0.3-12.6-4.9-12.9-11.7c-0.1-1.9,0.3-3.9,1.1-5.7c1,0.7,1.9,1.5,2.6,2.5
	c1,1.3,1.6,2.9,2.7,4.2c2.1,2.3,5.6,3.1,8.7,3.1s6-0.8,9-1C1011.1,515,1006.7,518.5,1001.5,518.7z"/>
<path class="st3" d="M1007.6,542.6c-3.2,6-10.7,8.3-16.7,5.1c-5.4-2.9-7.9-9.3-5.8-15.1c1,0.7,1.9,1.5,2.7,2.4c1.2,1.4,2,3,3.3,4.4
	c2.5,2.5,6.6,3.5,10.2,3.6C1003.4,543,1005.5,542.9,1007.6,542.6z"/>
<g id="Girl_4">
	<ellipse class="st9" cx="875.6" cy="535.5" rx="49.8" ry="28.7"/>
	<path id="_Контур_33" class="st10" d="M904.3,314.7c4.4,1.3,6.8,6.1,10.7,16.3c3.2,9.3,4.7,19.1,4.6,29
		c-1.2,9.7-5.2,17.2-14.9,25.1l-4.6-8.5c0,0,9.5-8.4,10.5-18.1c0.5-5.4-5.8-23.8-5.8-24.3C904.6,333.8,904.3,314.7,904.3,314.7z"/>
	<path class="st11" d="M866.4,538.1c-3,0.9-6.2,0.5-8.8-1.2c-2.4,0-16.3-5.5-18.1-0.8c-1.5,4.1,4.1,7.8,7,8.6
		c6.6,1.6,11.3,4.8,14,5.4c2,0.7,4.3,0.4,6-0.8C868.3,547.4,868.2,540.6,866.4,538.1z"/>
	<path class="st12" d="M860.5,548.9c-2.6-0.5-7.4-3.8-14-5.4c-2.5-0.6-6.8-3.3-7.2-6.6c-0.6,3.7,4.4,7,7.2,7.7
		c6.6,1.6,11.3,4.8,14,5.4c2,0.7,4.3,0.4,6-0.8c0.4-0.5,0.7-1,0.9-1.6C865.4,549.1,862.8,549.6,860.5,548.9z"/>
	<path class="st11" d="M901.7,519.8c-2.6,0.9-5.4,0.5-7.7-1.2c-2.2,0-16.5-5.2-18.2-0.8c-1.5,3.9,3.9,7.5,6.8,8.2
		c6.3,1.5,11,4.7,13.4,5.2c1.9,0.7,4.1,0.4,5.8-0.8C903.6,528.6,903.5,522.1,901.7,519.8z"/>
	<path class="st12" d="M896,530.1c-2.5-0.5-7.2-3.7-13.4-5.2c-2.4-0.6-6.6-3.2-7-6.4c-0.5,3.6,4.4,6.8,7,7.4
		c6.3,1.5,11,4.7,13.4,5.2c1.9,0.7,4.1,0.4,5.8-0.8c0.4-0.4,0.7-1,0.8-1.5C900.8,530.3,898.3,530.8,896,530.1z"/>
	<path id="_Контур_34" class="st10" d="M906.4,484.4c0-5.3-0.9-10.7-2.7-15.7c0,0,1.8-21.5,3.2-35.6c2-20.8,5.2-22.9,4.4-35.5
		c-0.8-11.7-7.5-19.3-9.2-27.2l-33.9,2.7c0,0-3,9.6-6.8,28.8c-3.8,19.2-4.1,42-3.8,72.1c0,7.8-1.3,14.5-0.9,33.9
		c0.3,13,1.1,29,1.1,29c5,4.3,8.4,1.1,8.4,1.1s8.8-38.6,10-47.5c0.9-4.9,0.5-10-1.2-14.7c0,0,2.5-12.1,4.4-21.7
		c2.2-11.6,8-36.8,8-36.8s-1,38.6,0.7,46.2c1.7,7.6,2,14.2,3.4,24.6c1.7,12.5,2.5,30.8,2.5,30.8c5.2,3.3,7.5,0.8,7.5,0.8
		S906.4,495.4,906.4,484.4z"/>
	<path class="st13" d="M901.9,370.4c3.6,3.6,9.4,14.7,9.4,31.5c0,18.9-2.7,15-4.1,35.8l-1.3,20.8c0,0-28.4,13.5-48.6,1
		c-1.8-3.9,0.7-47.6,4.2-63.2c3.6-15.5,6-23.1,6-23.1S893.7,380.2,901.9,370.4z"/>
	<path id="_Контур_35" class="st10" d="M902.3,314.5c-7.2-0.4-7.9,0.8-8.5-1.8c-0.2-0.9-0.6-7.3-0.6-7.3
		c0.7-0.8,1.3-1.7,1.8-2.7c4.9-3,8.2-8.1,8.8-13.8c1.1-10.2-6.3-19.3-16.5-20.4c-9.6-1-16.6,5.7-18.5,15c-1,4.6-2.1,13.9,0.8,21.4
		c1.6,4.2,3.1,7.2,6.9,7c1.3-0.1,2.5-0.3,3.8-0.7c0.2,1.8,0.3,3.5,0.2,5.3c0,1.9,0.2,2.8-3.4,5c-3.6,2.2,5.5,6.8,11.4,6.4
		c5.9-0.4,12.6-4,14.5-7.9C904.9,315.8,905.7,314.7,902.3,314.5z"/>
	<path class="st14" d="M907.7,346.6c0,0,8.2-1.8,11.9-5.5c0,0-4.9-15.4-8-19.2c-3.1-3.8-6.1,20.8-6.1,20.8L907.7,346.6z"/>
	<path id="_Контур_36" class="st15" d="M895.1,314.4c1.3,1.7,1.5,3.8-3.7,5.1c-3.7,1.1-7.8,0.8-11.3-0.9
		c-4.1,1.7-8,3.8-11.7,6.2c-4.4,14.5-0.9,16.3-2.7,26.7c0.7,5.2,1.6,18.7,1.8,21.7c9.8,6.9,29.8,4.5,34.3-2.8
		c0.1-2.4,0.3-4.9,0.7-7.3c4.7-17.4,8.4-21.9,7.1-35.1c-0.7-7.5-1.3-11.3-5.3-13.3C901.3,314.2,898.2,314.1,895.1,314.4z"/>
	<path id="_Контур_37" class="st10" d="M804.7,371c2.2,0.5,4.4,1.1,6.6,1.9c2,1.1,4.2,1.8,6.4,2.2c2.4,0.4,6.2-0.9,12.7-3.9
		c7.1-3.7,13.6-8.5,19.1-14.3c6.2-7.4,11.8-15.4,16.7-23.8c2.8-5.2,6.4-6.4,9.5-5.4c3.7,1.2,4.2,4.9,0,11.9
		c-5.3,9.1-11.8,17.4-19.1,25c-5.8,5.8-12.5,10.5-19.9,14c-5.3,2.7-10.9,4.7-16.7,5.8c-2,0.4-3.4,1.3-7.2,2.6
		c-3.8,1.4-7.8,1.8-11.7,1.3c-3.3-0.6-4.4-1.4-4.5-2.2c-0.1-0.8,0.5-1.4,2.1-1.3c2.4,0.4,4.9,0.3,7.3-0.2c0,0-3.4-0.1-5.4-0.4
		c-1.8-0.2-3.5-0.6-5.2-1.3c-1.6-0.7-2.2-3.2-0.6-3.1c1.6,0.1,2.7,0.6,5.7,0.9c1.6,0.2,3.2,0.2,4.7,0c-2-0.3-3.9-0.8-5.8-1.4
		c-1.6-0.4-3-1.3-4.1-2.5c-0.5-0.6-0.4-2.2,1.5-1.8c2.3,0.8,4.7,1.3,7.1,1.6c2.4,0,4.2-0.2,3.9-0.6c-0.3-0.4-1.8-0.3-3.6-1.4
		c-1.8-1-2.9-3-2.2-4S802.7,370.3,804.7,371z"/>
	<path class="st14" d="M871.8,347.8c-5.7-0.8-11-3.5-15-7.6l9.1-12.6c0,0,5.1-6.4,11.9-2.8c0,0,5.1,0.5,0,11.2
		C876,340,874,344,871.8,347.8z"/>
	<path class="st11" d="M867,278.1c0.8-4.5,5-7.6,9.5-6.9c3.2-2.1,7-3.1,10.8-2.6c8.6,0.9,14.3,6.6,16.9,15.1
		c1.3,4.3,2.1,8.7,2.5,13.2c2.6,19.2,9.6,34.4,3,40.1s-24.4,9.3-31.8,5.7c-7.5-3.6,6.1-36.7-8.6-55
		C865.8,283.3,865.5,280.3,867,278.1z"/>
</g>
<g id="Men_1">
	<ellipse class="st9" cx="332.4" cy="548.6" rx="41.7" ry="24.1"/>
	<path id="_Контур_54" class="st10" d="M361.6,375.7c0.4,3.9,5.1,20.6,4.1,26.3c-1,5.7-16.8,15.3-16.8,15.3l-2.2-9.8l8.8-8.6
		l-2.4-16.2L361.6,375.7z"/>
	<path id="_Контур_55" class="st14" d="M349.4,359.2c3.2-1.5,7-0.3,8.8,2.7c2.3,3.8,4.7,17.1,4.9,19.3c0,0-3.3,4.5-8.1,3.8
		L349.4,359.2z"/>
	<path class="st11" d="M331.3,545.7c-3.4,0.9-7.1,0.5-10.2-1.3c-2.5,0-15.8-5.6-17.7-0.8c-1.6,4.2,4.2,8.1,7.4,8.9
		c6.8,1.6,11.7,5,14.5,5.5c2,0.4,4.6,0.7,6.3-0.9C333.4,555.3,333.2,548.2,331.3,545.7z"/>
	<path class="st16" d="M325.2,556.9c-2.7-0.6-7.7-3.9-14.5-5.5c-2.6-0.6-7.1-3.5-7.5-6.9c-0.6,3.9,4.6,7.4,7.5,8
		c6.8,1.6,11.7,5,14.5,5.5c2,0.4,4.6,0.7,6.3-0.9c0.4-0.5,0.7-1,0.9-1.6C330.3,557.1,327.7,557.6,325.2,556.9z"/>
	<path class="st11" d="M353,536c-3.4,1-7.1,0.5-10.2-1.2c-2.5,0-15.8-5.7-17.7-0.8c-1.6,4.2,4.2,8.1,7.4,8.9
		c6.7,1.6,11.7,5,14.5,5.5c2,0.4,4.6,0.7,6.3-0.9C355.1,545.5,354.9,538.5,353,536z"/>
	<path class="st16" d="M346.9,547.1c-2.7-0.6-7.7-3.9-14.5-5.5c-2.6-0.6-7.1-3.5-7.5-6.8c-0.6,3.9,4.6,7.4,7.5,8
		c6.7,1.6,11.7,5,14.5,5.5c2,0.4,4.6,0.7,6.3-0.9c0.4-0.5,0.7-1,0.9-1.6C352,547.4,349.4,547.8,346.9,547.1z"/>
	<path id="_Контур_56" class="st17" d="M353.3,499.6c-0.6-5-1.6-9.9-3.1-14.7c0,0,0.9-12.6,1.4-24.6
		c0.5-13.6,5.2-25.6,1.5-36.4l-42,9.3c0,0,2.5,54.2,3.1,60.8c0.3,5.1,0.9,10.2,1.8,15.2c1.8,10.5,5,35.6,5,35.6
		c3.2,1.5,6.8,1.9,10.3,1.1c0,0-0.3-31.7-0.6-39.3c-0.3-9.2-0.6-8.5-0.6-8.5l1.4-23.1l0.9-11.5c0,0,1.2,8.4,1.8,15.9
		c0.7,6.6,2.2,12.5,4,24.7c1.5,10.6,4,31.9,4,31.9c4.4,2.6,10.5,0.4,10.5,0.4S354.5,508.8,353.3,499.6z"/>
	<path id="_Контур_57" class="st10" d="M347.2,359.4c-3.2,0.2-5.5,1-6,0c-0.3-1.6-0.6-3.3-0.7-5c0.4-0.9,0.7-1.9,0.7-1.9
		c4-2.5,5.3-6.8,5.8-11.9c0.9-8.6-3.8-16.2-12.4-17.1c-8.1-0.8-14.1,4.9-15.7,12.7c-0.8,3.9-2.6,11.2-0.3,17.5
		c1.3,3.6,3,6.4,4.6,6.9c1.6,0,3.2-0.2,4.8-0.4l0,0c0,0,0.4,2.4,0.7,3.9c0.3,1.5,0.2,2.4-2.9,4.2c-3.1,1.9,4.6,5.8,9.7,5.4
		c5-0.4,10.7-3.4,12.2-6.7C349.5,363.6,349.4,359.3,347.2,359.4z"/>
	<path id="_Контур_58" class="st15" d="M342.6,359.9c0.9,2.2-1.4,4.9-7.4,6.8c-6,1.9-6.5-0.6-6.5-0.6c-4,1.8-7.9,3.8-11.7,6
		c-3.7,2.5-5.2,9.8-5.7,22.1c-0.6,14.2-0.6,35.4-0.1,39c0,0,6.7,6.7,15.4,6c8.6-0.7,23.1-8.3,26.6-14.2c-0.1-12.5-1.6-14.5,0.5-21.7
		c4.6-16.5,7.1-23.2,4.8-34.1c-1.8-9-4.4-10.1-8-10.1C347.8,359.2,345.2,359.5,342.6,359.9z"/>
	<path id="_Контур_59" class="st10" d="M297.7,406c7.1,1.8,8.7-2.7,9.7-6.4c2.2-8.9,3.5-17,5.1-22.1c2-6,4-6.9,7-8.1
		c3.4-1.4,6.3,1.5,5.2,9.2c-1.4,8.8-3.6,17.5-6.5,26c-0.9,2.8-2.8,7.7-5.8,10.1c-3.7,2.9-9.2,2.8-17.5,0.8c-3.5-0.9-7.4-3-14.1-6.1
		c-1.8-0.8-3.2-1.4-6.7-3c-3.5-1.6-6.5-3.9-8.9-6.9c-1.8-2.6-2-3.9-1.7-4.4c0.4-0.6,1.3-0.6,2.2,0.5c1.4,1.9,3.1,3.5,5.1,4.7
		c0,0-2.2-2.3-3.4-3.8c-1.1-1.3-2-2.8-2.7-4.4c-0.6-1.5,0.7-3.7,1.7-2.5c1,1.2,1.5,2.2,3.3,4.4c1,1.2,2.1,2.2,3.3,3.1
		c-1.1-1.5-2.1-3.2-3-4.9c-0.8-1.3-1.2-2.9-1.1-4.4c0-0.8,1.2-1.7,2.2-0.2c1,2.1,2.3,4,3.8,5.8c1.6,1.7,3,2.6,3,2.2s-1-1.4-1.5-3.3
		c-0.6-1.9,0-4,1.1-4.2c1.1-0.2,0.9-0.2,1.7,1.7c1.2,1.9,2.3,3.8,3.2,5.8c0.5,1.9,1.5,3.6,2.9,5C287.2,402.3,291,404.3,297.7,406z"
		/>
	<path id="_Контур_60" class="st14" d="M322.1,368.2c-4.7-0.7-8.1,1.4-10.1,8.6c-2.1,7.2-3.5,13-3.5,13
		c1.9,2.7,4.7,4.6,7.9,5.3c5.6,1.4,7.7-1.3,7.7-1.3s1.6-7.5,2.5-12.6C327.5,376.1,328,369.1,322.1,368.2z"/>
	<path class="st11" d="M319.2,335.1c0,0-7.4-11.3,8.7-13.6c11.7-1.7,19.1,5.8,20,14c0.8,7.8-4,15.8-7.4,19c-3.4,0.9-7,0.4-10.1-1.2
		c-0.2-2.1-0.3-4.2-0.2-6.3C330.2,346.9,335.9,334.9,319.2,335.1z"/>
</g>
<g id="Men_13">
	<ellipse class="st9" cx="458.8" cy="545.4" rx="37.9" ry="21.9"/>
	<path class="st11" d="M441,539.9c2.6,2.1,6.4,0.2,6.6,0.4c3,2.8,6.2,5.5,9.5,7.9c1.7,1.3,4.1,3,3.7,5.4c-0.8,4.3-7.8,3-10.4,1.7
		c-2.6-1.3-4.8-3.5-7.3-5c-1.8-1.1-3.5-1.7-3.8-3.9C439,545,440.4,539.9,441,539.9z"/>
	<path class="st16" d="M439.3,545.4c0.4,2.1,2.1,2.7,3.8,3.8c2.5,1.6,4.8,3.8,7.4,5.2c2.6,1.3,8.5,2.5,10.2-0.7
		c-0.9,4.2-7.8,2.9-10.4,1.6c-2.6-1.3-4.8-3.5-7.3-5c-1.8-1.1-3.5-1.7-3.8-3.9C439.2,546.1,439.3,545.7,439.3,545.4z"/>
	<path class="st11" d="M463.3,531.6c2.6,2.1,7.1-0.2,7.3,0c2.7,2.7,5.5,5.3,8.5,7.7c1.7,1.3,4.1,3,3.7,5.4c-0.8,4.3-7.8,3-10.4,1.7
		c-2.6-1.3-4.8-3.5-7.3-5c-1.8-1.1-3.5-1.7-3.8-3.9C461.2,536,462.9,531.5,463.3,531.6z"/>
	<path class="st16" d="M461.4,536.8c0.4,2.1,2.1,2.7,3.8,3.8c2.5,1.6,4.8,3.8,7.4,5.2c2.6,1.3,8.5,2.4,10.2-0.7
		c-0.9,4.2-7.8,2.9-10.4,1.6c-2.6-1.3-4.8-3.5-7.3-5.1c-1.8-1.1-3.5-1.7-3.8-3.9C461.4,537.4,461.4,537.1,461.4,536.8z"/>
	<path id="_Контур_38" class="st17" d="M440.7,444.5c0.1,3.9,1.3,20.9,1.9,29.9c0.6,9,0.7,20.1,0.7,20.1s-1.6,6.5-2.6,14.2
		c-1,7.7,0,32,0,32c2,1.3,4.7,1.3,6.7,0c0,0,4.1-19.4,6-28.2c1.9-8.8,2.3-13.8,3.2-19.2c1.2-6.6,3.8-37.2,3.8-37.2h1l2.8,34.6
		c-0.9,2.6-1.4,5.2-1.8,7.9c-0.8,5.6,0.8,34,0.8,34c2.3,1.3,5,1.1,7.2-0.3c0,0,6.9-37.5,6.9-43.2c0-3.8-0.6-53.6-0.6-53.6
		L440.7,444.5z"/>
	<path id="_Контур_39" class="st10" d="M450.1,369c0,0,0.4,8.5,0.3,9.3c-0.2,0.8-3.9,3.2-5,4.1c-1.1,0.9,5.9,7.7,9.3,9.4
		s14.1-2.5,14.3-7.8s-1.8-9.7-3.5-9.9S450.1,369,450.1,369z"/>
	<path class="st10" d="M473.4,384.8c0.5-3.8-2-7.3,0.4-10.3c8.4,8.3,7.4,30.1,9.3,44c6.2,6.5,18.8,13,22.3,14.5
		c0.6,0.3,1.2,0.6,1.1,1.3c-0.5,2.3-1.5,4.5-2.9,6.4c-8.4-3.6-14.3-5.6-24.7-15.5c-1-1.1-1.9-2.2-2.6-3.5
		C473.3,412.9,472.6,391.3,473.4,384.8z"/>
	<path id="_Контур_40" class="st15" d="M449.2,379.8c0,0,6.2,9.2,14.8,10c2.7-2.7,3-12.2-0.8-15.3c0,0,3.5-2.8,5.8-2.3
		c2.6,1.5,4.5,4,5.4,6.9c2.2,6.3,3.2,13,3,19.7c-0.2,9,0,36.7,0,36.7s-1.2,5.8-9,10.2c-7.8,4.3-13.6,4.8-18.9,3.5
		c-4.4-1-8-2.6-9.5-5.7c0.4-6.4,3.2-22.9,2.2-30.8c-1.1-8-2.7-13.9-3.2-20.4c-0.4-6.5,0.8-6.3,4.1-8.6
		C445,382.2,447.1,380.9,449.2,379.8z"/>
	<path id="_Контур_41" class="st10" d="M469.4,356.3L469.4,356.3c-1-6.7-5.8-11.7-12.6-11.2c-7.2,0.4-12.8,6.6-12.4,13.8
		c0.2,4.1,2.3,7.8,5.7,10.2c0.2,1,0.6,2,1.1,2.9c2.4,2.8,9.7,4.6,11.8,4.3c2.6-0.2,4.7-1.9,5.5-4.4
		C470.7,366.5,470,359.6,469.4,356.3z"/>
	<path class="st11" d="M450.1,369L450.1,369l0.6-5.8c0,0-4.8-12.2,6.4-9.8c7.4,1.6,9.2,2.2,11.4-2.7c2.2-4.9-5.6-9.4-15-8.1
		c-6.7,0.7-11.7,6.4-11.6,13.1C442.2,359.3,443.2,366.6,450.1,369z"/>
	<path class="st10" d="M437.1,388.5c3.2-0.9,0.8-0.2,3.2-0.9c8.4,8.2,7.4,22.4,9.3,36.3c4.6,7.7,21.9,18.1,21.9,18.1
		c0.2,1.5-0.3,1.9-2.2,5c-9.6-3.7-18.3-9.3-25.6-16.5c-0.4-0.4-1-0.5-1.2-1C439.5,420.5,436.2,395,437.1,388.5z"/>
	<polygon class="st15" points="513.7,405.7 501.2,448.5 473.7,459.5 483.8,417.8 	"/>
	<path class="st10" d="M467.1,442.3c0.4-1.5,1.5-1.1,2.7-0.7c1.3,0.5,2.7,0.6,4.1,0.4c1.1-0.5,2-1.2,2.9-2c0.6-0.3,1.2-0.5,1.8-0.5
		c0,0.4-0.6,2.5-0.6,2.5s6,0,6.7,0c0.6-0.1,1.1,0.3,1.2,0.8c0.1,0.3,0,0.6-0.2,0.9h0.4c1.2-0.3,1.7,1.7,0.5,1.9l-1,0.2
		c0.8,0.3,1,1.7,0,1.8h-0.3c-0.1,0-0.3,0-0.4,0h-0.4c0.1,0.6-0.2,1.1-0.8,1.3c0,0-0.1,0-0.1,0c-2.9,0.4-7.3,1.6-9.9-0.9
		c-1.8-0.2-3.6-0.7-5.3-1.4C466.7,445.7,466.6,444.1,467.1,442.3z"/>
	<path class="st10" d="M497.2,438.8h0.4c-0.5-0.3-0.6-0.9-0.2-1.4c0.2-0.3,0.5-0.4,0.8-0.4c0.6,0,6.8-1.3,6.8-1.3l0.8-2.5
		c0-0.2,1.1,0.5,1.1,0.5c1.1,0.7,1.8,1.8,1.9,3.1c0.1,1.8-0.6,3.5-1.8,4.8c-1.1,1.1-2.6,1.7-4.1,1.8c-0.8,0-1.5,0.1-2.1,0.2
		c-0.6,0-1.1-0.4-1.2-1c0,0,0,0,0-0.1h-0.2c-0.1,0-0.3,0-0.4,0h-0.3c-1.1,0-1.1-1.3-0.4-1.8h-1C495.8,440.8,495.9,438.8,497.2,438.8
		z"/>
	<path class="st14" d="M477,390.4c1.7-0.1,3.3-0.8,4.5-2c-0.2-3.2-4.3-15.2-12.4-16.1c2.2,1.6,3.9,3.7,5,6.1
		C475.3,382.4,476.3,386.4,477,390.4z"/>
	<path class="st14" d="M435.6,406.3c0,0,8.1,2.8,13.8-1.9c0.6-1.1-3.3-14.9-3.3-14.9s-3.3-7.1-8.7-4.2S435.6,406.3,435.6,406.3z"/>
</g>
</svg>
