<?xml version="1.0" encoding="utf-8"?>
<!-- Generator: Adobe Illustrator 24.1.1, SVG Export Plug-In . SVG Version: 6.00 Build 0)  -->
<svg version="1.1" xmlns="http://www.w3.org/2000/svg" xmlns:xlink="http://www.w3.org/1999/xlink" x="0px" y="0px"
	 viewBox="0 0 1967.5 1649.3" style="enable-background:new 0 0 1967.5 1649.3;" xml:space="preserve">
<style type="text/css">
	.st0{fill:#4D93FF;}
	.st1{fill:#0046B3;}
	.st2{fill:#D1F5FF;}
	.st3{fill:#FFBD73;}
	.st4{fill:none;stroke:#80B2FF;stroke-width:4.435;stroke-miterlimit:10;}
	.st5{fill:none;stroke:#00224D;stroke-width:3.8256;stroke-miterlimit:10;}
	.st6{fill:#CCE0FF;}
	.st7{fill:#408BFF;}
	.st8{fill:#FFFFFF;}
	.st9{fill:#005CEA;}
	.st10{fill:#FF9F34;}
	.st11{fill:#80B2FF;}
	.st12{fill:#4D4D4D;}
	.st13{fill:#003C99;}
	.st14{fill:#D9FFFF;}
	.st15{fill:#F7A594;}
	.st16{fill:#112E59;}
	.st17{fill:#1D498C;}
	.st18{fill:#D97B69;}
	.st19{fill:#231F20;}
	.st20{fill:#E6836F;}
	.st21{fill:#4D261C;}
	.st22{fill:#F7BD0C;}
	.st23{fill:#007880;}
	.st24{fill:#008F99;}
</style>
<g id="elements">
	<g>
		<path class="st0" d="M915.3,402.7l430.5,0c9.1,0,16.4-7.3,16.4-16.4l0-244.3c0-9.1-7.3-16.4-16.4-16.4l-430.5,0
			c-9.1,0-16.4,7.3-16.4,16.4l0,244.3C898.9,395.4,906.2,402.7,915.3,402.7z"/>
		
			<rect x="898.9" y="178" transform="matrix(-1 -2.158109e-07 2.158109e-07 -1 2261.0803 403.7524)" class="st1" width="463.4" height="47.8"/>
		<path class="st2" d="M1256.1,349.6h68.1c4.3,0,7.8,3.5,7.8,7.8l0,0c0,4.3-3.5,7.8-7.8,7.8l-68.1,0c-4.3,0-7.8-3.5-7.8-7.8l0,0
			C1248.2,353.1,1251.8,349.6,1256.1,349.6z"/>
		<path class="st2" d="M1151.3,349.6h68.1c4.3,0,7.8,3.5,7.8,7.8l0,0c0,4.3-3.5,7.8-7.8,7.8h-68.1c-4.3,0-7.8-3.5-7.8-7.8l0,0
			C1143.5,353.1,1147,349.6,1151.3,349.6z"/>
		<path class="st2" d="M1046.5,349.6h68.1c4.3,0,7.8,3.5,7.8,7.8l0,0c0,4.3-3.5,7.8-7.8,7.8h-68.1c-4.3,0-7.8-3.5-7.8-7.8l0,0
			C1038.7,353.1,1042.2,349.6,1046.5,349.6z"/>
		<path class="st2" d="M941.8,349.6h68.1c4.3,0,7.8,3.5,7.8,7.8l0,0c0,4.3-3.5,7.8-7.8,7.8h-68.1c-4.3,0-7.8-3.5-7.8-7.8l0,0
			C933.9,353.1,937.4,349.6,941.8,349.6z"/>
		<path class="st2" d="M1327.4,139.7L1327.4,139.7c4.8,0,8.7,3.9,8.7,8.7v3c0,4.8-3.9,8.7-8.7,8.7l0,0c-4.8,0-8.7-3.9-8.7-8.7v-3
			C1318.7,143.6,1322.6,139.7,1327.4,139.7z"/>
		<path class="st2" d="M1308.7,149.9L1308.7,149.9c0,5.6-4.6,10.2-10.2,10.2h-36.1c-5.6,0-10.2-4.6-10.2-10.2l0,0
			c0-5.6,4.6-10.2,10.2-10.2h36.1C1304.2,139.7,1308.7,144.3,1308.7,149.9z"/>
		<path class="st3" d="M1313.4,251.5h-46.6c-7.5,0-13.5,6.1-13.5,13.5v40.2c0,7.5,6.1,13.5,13.5,13.5h46.6c7.5,0,13.5-6.1,13.5-13.5
			V265C1327,257.6,1320.9,251.5,1313.4,251.5z"/>
	</g>
	<g>
		<path class="st4" d="M130.1,546.2c-9.7,12.2-16.5,25.7-20.6,39.7l12.1,3.5c-3.9,13.2-5,27-3.5,40.5l-12.5,1.4
			c1.7,14.8,6.2,29.3,13.5,42.6l2.5-1.3l8.6-4.7c6.4,11.6,15.2,22.2,26.2,31l-7.9,9.9c12.2,9.7,25.7,16.5,39.7,20.6l3.5-12.1
			c13.2,3.9,27,5,40.4,3.5l1.4,12.5c14.8-1.7,29.4-6.2,42.7-13.5l0,0l-1.7-3.2l-4.3-7.8c11.6-6.4,22.2-15.1,31-26.1l9.9,7.9
			c9.7-12.2,16.5-25.7,20.6-39.8l-12.1-3.5c3.9-13.2,5-26.9,3.5-40.4l12.5-1.4c-1.7-14.8-6.2-29.4-13.5-42.7l-11.1,6.1
			c-6.4-11.6-15.1-22.2-26.1-31l7.9-9.9c-12.2-9.7-25.7-16.5-39.8-20.6l-3.5,12.1c-13.2-3.9-26.9-5-40.4-3.5l-1.4-12.5
			c-14.9,1.6-29.4,6.2-42.7,13.5l0,0.1l4,7.3l2,3.7c-11.6,6.4-22.2,15.1-31,26.1L130.1,546.2z M176.9,583.5
			c19.2-24.2,54.4-28.1,78.6-8.9c24.2,19.3,28.2,54.5,8.9,78.6c-19.3,24.2-54.5,28.2-78.7,8.9C161.6,642.9,157.6,607.7,176.9,583.5z
			"/>
	</g>
	<g>
		<path class="st5" d="M1022.4,1122.2c-11.2,14-19.1,29.6-23.8,45.8l14,4.1c-4.5,15.3-5.7,31.2-4,46.7l-14.5,1.6
			c1.9,17.1,7.1,33.9,15.6,49.2l2.9-1.5l9.9-5.5c7.4,13.4,17.5,25.7,30.2,35.8l-9.1,11.4c14,11.2,29.6,19.1,45.9,23.7l4.1-14
			c15.2,4.5,31.1,5.8,46.7,4l1.6,14.5c17.1-1.9,33.9-7.2,49.2-15.6l0,0l-2-3.7l-5-9c13.4-7.4,25.6-17.4,35.8-30.2l11.4,9.1
			c11.2-14,19.1-29.7,23.8-45.9l-14-4.1c4.5-15.2,5.7-31.1,4-46.6l14.5-1.6c-1.9-17.1-7.2-33.9-15.6-49.2l-12.8,7
			c-7.4-13.4-17.4-25.6-30.2-35.8l9.1-11.4c-14-11.2-29.7-19.1-45.9-23.8l-4.1,14c-15.2-4.5-31.1-5.7-46.6-4l-1.6-14.5
			c-17.2,1.9-33.9,7.2-49.2,15.6l0.1,0.1l4.6,8.4l2.3,4.3c-13.4,7.4-25.7,17.5-35.8,30.2L1022.4,1122.2z M1076.4,1165.2
			c22.2-27.9,62.8-32.5,90.7-10.3c27.9,22.2,32.5,62.8,10.3,90.7c-22.2,27.9-62.8,32.5-90.8,10.3
			C1058.7,1233.8,1054.1,1193.2,1076.4,1165.2z"/>
	</g>
	<path class="st6" d="M888,138.8c0-12.2,9.9-22,22-22h81.4c0.2-1.3,0.4-2.6,0.4-4v0c0-16.8-13.1-30.6-29.6-31.8
		c0.3-2.1,0.5-4.2,0.5-6.4c0-26.1-21.2-47.3-47.3-47.3c-19.6,0-36.4,11.9-43.6,28.9c-5.8-5.2-13.5-8.4-22-8.4
		c-18.3,0-33.1,14.8-33.1,33.1h-6.2c-17.6,0-31.9,14.4-31.9,31.9v0c0,17.6,14.4,31.9,31.9,31.9H888V138.8z"/>
</g>
<g id="phone">
	<g>
		<path class="st7" d="M422.3,290.8c11.3-67.1,114.7-97.4,112.7-53.6l473.8,2.8c32.8,0.2,59.4,29.7,59.5,66l1,1246.1
			c0,37.6-27,68.3-60.5,68.6l-483.7,4.1c-3,6.3-8.6,12-17.5,16.8c-55.5,1.2-82.1-26.2-91.8-57.2c-3.2-8.3-4.9-17.5-4.8-27.2
			C412.9,1541,418.8,306.5,422.3,290.8z"/>
		<path class="st8" d="M512.8,1641.8l555.2-3.6c34.6-0.2,62.7-31.8,62.6-70.4l-2.1-1281.5c-0.1-37.3-27.6-67.5-61.6-67.7l-544.4-1.8
			c-34.2-0.1-62.2,30.1-62.5,67.6L450,1571.8C449.7,1610.7,477.8,1642,512.8,1641.8z"/>
		<path d="M505.1,1632.4c2.3,0.3,4.7,0.5,7,0.4l555-4.2c29.8-0.2,54.1-27.9,54.1-61.6L1119.2,287c0-32.5-24-59.1-53.2-59.2
			l-544.4-2.4c-0.9,0-1.7,0-2.6,0.1c-13.7,0.6-26.5,6.9-36.1,17.6c-9.8,10.9-15.2,25.4-15.3,40.8L458,1572.5
			C457.8,1603,477.9,1628.8,505.1,1632.4z"/>
		<polygon class="st9" points="486.8,290.2 477.5,1574.5 1102.7,1570.7 1101.1,290.2 		"/>
		<g id="login_1_">
			<path class="st10" d="M702.4,947.3h154.5c13.1,0,23.8-10.7,23.8-23.8v0c0-13.1-10.7-23.8-23.8-23.8H702.4
				c-13.1,0-23.8,10.7-23.8,23.8v0C678.6,936.6,689.3,947.3,702.4,947.3z"/>
			<path class="st8" d="M584.8,770.8h399.6c13.1,0,23.8-10.7,23.8-23.8l0,0c0-13.1-10.7-23.8-23.8-23.8H584.8
				c-13.1,0-23.8,10.7-23.8,23.8l0,0C561,760.1,571.7,770.8,584.8,770.8z"/>
			<path class="st8" d="M584.8,847.4h399.6c13.1,0,23.8-10.7,23.8-23.8v0c0-13.1-10.7-23.8-23.8-23.8H584.8
				c-13.1,0-23.8,10.7-23.8,23.8v0C561,836.7,571.7,847.4,584.8,847.4z"/>
			<g>
				<circle class="st11" cx="918.2" cy="825.7" r="8.4"/>
				<circle class="st11" cx="889.5" cy="825.7" r="8.4"/>
				<circle class="st11" cx="860.8" cy="825.7" r="8.4"/>
				<circle class="st11" cx="832.1" cy="825.7" r="8.4"/>
				<circle class="st11" cx="803.4" cy="825.7" r="8.4"/>
				<circle class="st11" cx="774.7" cy="825.7" r="8.4"/>
				<circle class="st11" cx="746" cy="825.7" r="8.4"/>
				<circle class="st11" cx="717.3" cy="825.7" r="8.4"/>
				<circle class="st11" cx="688.6" cy="825.7" r="8.4"/>
			</g>
			<g>
				
					<ellipse transform="matrix(0.7071 -0.7071 0.7071 0.7071 -169.6739 720.1674)" class="st8" cx="784.5" cy="564.9" rx="91.9" ry="91.9"/>
				<g>
					<g>
						<path class="st9" d="M784.4,561.2c-9,0-17.2-4.4-22.5-11c-3.9-4.8-6.2-11-6.2-17.9c0-15.9,12.9-29,28.7-29
							c16.1,0,29,13.1,29,29c0,6.9-2.3,13.1-6.2,17.9C801.8,556.8,793.6,561.2,784.4,561.2z"/>
					</g>
					<path class="st9" d="M733.4,612.8c0,18.3,102.1,18.3,102.1,0l0-21.3c-4-29.1-93.8-30.4-102.1,0L733.4,612.8z"/>
				</g>
			</g>
			<path class="st12" d="M963.1,819.2v16.9c0,2.9,21.6,2.9,21.6,0v-16.9h-1.4V818c0-5.2-4.2-9.4-9.4-9.4s-9.4,4.2-9.4,9.4v1.3H963.1
				z M980,819.2h-12.1V818c0-3.4,2.1-6.2,6.1-6.2c4,0,6,2.9,6,6.2V819.2z M971,825.2c0-1.6,1.4-3,3-3c1.6,0,3,1.4,3,3
				c0,1.1-0.6,2-1.5,2.5v4.9c0,0.9-0.6,1.5-1.5,1.5c-0.9,0-1.6-0.6-1.6-1.5v-4.9C971.6,827.2,971,826.4,971,825.2z"/>
			<g>
				<g>
					<g>
						<path class="st12" d="M973.9,745.3c-1.9,0-3.6-0.9-4.8-2.3c-0.8-1-1.3-2.3-1.3-3.8c0-3.3,2.7-6.1,6.1-6.1
							c3.4,0,6.1,2.8,6.1,6.1c0,1.5-0.5,2.8-1.3,3.8C977.6,744.4,975.9,745.3,973.9,745.3z"/>
					</g>
					<path class="st12" d="M963.2,756.2c0,3.9,21.7,3.9,21.7,0l-0.1-4.5c-0.9-6.1-19.8-6.4-21.5,0L963.2,756.2z"/>
				</g>
				<path class="st11" d="M834,754h87.6c3.8,0,7-3.1,7-7l0,0c0-3.8-3.1-7-7-7H834c-3.8,0-7,3.1-7,7l0,0C827,750.9,830.1,754,834,754
					z"/>
				<path class="st11" d="M718.5,754H806c3.8,0,7-3.1,7-7l0,0c0-3.8-3.1-7-7-7h-87.6c-3.8,0-7,3.1-7,7l0,0
					C711.5,750.9,714.6,754,718.5,754z"/>
			</g>
		</g>
	</g>
	<g id="key_1_">
		<path class="st8" d="M903,1204.9v177.3c0,19.7-257.4,19.7-257.4,0v-177.3H903z"/>
		<g>
			<ellipse class="st9" cx="774.4" cy="1271.9" rx="31.8" ry="29.8"/>
			<path class="st9" d="M773.9,1361.5h0.8c7,0,12.6-5.6,12.6-12.6v-67.9h-26v67.9C761.3,1355.9,767,1361.5,773.9,1361.5z"/>
		</g>
		<path class="st8" d="M668.2,1192.3h26v-11.9c0-41.4,35.9-75,80.1-75c44.2,0,80.1,33.7,80.1,75v11.9h26v-11.9
			c0-54.8-47.6-99.4-106.1-99.4c-58.5,0-106.1,44.6-106.1,99.4V1192.3z"/>
	</g>
</g>
<g id="shadow">
	<path class="st13" d="M151.2,1649.3h1789.6c2.9,0,5.3-2.4,5.3-5.3l0,0c0-2.9-2.4-5.3-5.3-5.3H151.2c-2.9,0-5.3,2.4-5.3,5.3l0,0
		C145.9,1646.9,148.3,1649.3,151.2,1649.3z"/>
</g>
<g id="shield">
	<g>
		<g>
			<g>
				<path class="st14" d="M-14.1,975.9L-14.1,975.9c0-1,0-1.4,0-1.5C-14.1,974.5-14.1,975.9-14.1,975.9z"/>
				<path class="st14" d="M-14.1,975.9L-14.1,975.9c0-1,0-1.4,0-1.5C-14.1,974.5-14.1,975.9-14.1,975.9z"/>
				<path class="st14" d="M580.1,978.5c0,0,0-1.4,0-1.5C580.1,977.1,580.1,977.5,580.1,978.5L580.1,978.5z"/>
				<path class="st14" d="M580.1,978.5c0,0,0-1.4,0-1.5C580.1,977.1,580.1,977.5,580.1,978.5L580.1,978.5z"/>
				<path class="st8" d="M284.1,836.2C218.3,906.7,113.4,964.4,1.1,989c0,7.5-0.2,49.1-1.1,240.6c-1.1,255.5,242,380.4,279.8,399.5
					c36.6-16.8,282.8-141.5,284-397c0.9-191.5,1-233.1,1.1-240.6C452.7,966,349.2,907.3,284.1,836.2z"/>
			</g>
		</g>
		<g>
			<path class="st11" d="M283.5,864c-67.8,62.2-161.7,111.1-265,137.7l-1,227.9c-0.5,104.3,41,198.6,123.1,280.4
				c54,53.7,110.8,87.1,139.6,102c1.2-0.6,2.6-1.3,3.9-2V864.5C283.9,864.3,283.7,864.1,283.5,864z"/>
			<path class="st0" d="M284.1,864.5V1610c30-15.6,84.4-47.8,136.5-98.8c82.9-81,125.2-175,125.6-279.3l1-227.9
				C444.5,976.6,351.3,927,284.1,864.5z"/>
		</g>
		<path class="st1" d="M491.1,1092.9c-78.6,12.1-185.7,83.8-253.3,170.1c-9.5-40.7-52-77.8-74.3-85.9l-67.4,67.8
			c42.1,19,88.1,72.7,94.2,127.8l67.4,10.4c28.4-56.1,101.7-190.3,247.6-262.4C502.5,1109.7,492.2,1094.5,491.1,1092.9z"/>
	</g>
</g>
<g id="guard">
	<g>
		<g>
			<path class="st15" d="M1600.7,660.1l190.7-1.3l164-1.7l0.7,24.9c-57,22-101.8,28.7-158.5,32.9c-57.5,19.1-133.7,31.7-192.6,35.9
				C1553.2,753.2,1548.9,662.5,1600.7,660.1z"/>
			<path class="st16" d="M1685.2,654.7c-22.9-0.4-90.6-7.6-132.9-2.6c-38.2,15.7-28.7,82.3-11.2,92.8c0,1.9,74.1,22.6,149.2,0.6
				C1701.6,732.2,1697.8,667.9,1685.2,654.7z"/>
			<path class="st17" d="M1700.4,748c-11.9,4.2-23.1,6.9-31.4,3.5c-5,0.2-10.5-99.6-5.5-99.8l31.2-1.5
				C1704.6,649.7,1710.3,747.5,1700.4,748z"/>
			<g>
				<path class="st15" d="M1936.5,657.6c5.6-25.7,14.4-62.2,25.2-62.7c2.3-0.1,2.7,1.4,2.5,8.2c-5.4,45.7,7,58.1,1,71
					c-6.6,12.5-24.6,12.3-24.6,12.3C1930.5,681.7,1929.7,664.8,1936.5,657.6z"/>
				<path class="st15" d="M1949.3,652l11.2-33.2c0,0,7.3,1.3,5.8,10.1c-1.5,8.8-3.4,18.2-3.4,18.2s8.8,19,1.8,26.8
					S1945.7,674.1,1949.3,652z"/>
				<path class="st18" d="M1966.3,672.6l-0.9-0.3c3.8-12-2.8-24.8-2.9-25l-0.1-0.1l0-0.2c0-0.1,1.9-9.5,3.4-18.2
					c0.6-3.5-0.1-6.1-2.2-7.9c-1.1-1-2.3-1.4-2.9-1.5l-11.1,32.8l-0.8-0.3l11.4-33.5l0.4,0.1c0.1,0,2,0.4,3.7,1.8
					c1.6,1.4,3.3,4,2.5,8.7c-1.4,8.1-3.1,16.8-3.4,18.1C1964.1,648.5,1970,660.9,1966.3,672.6z"/>
				<path class="st18" d="M1944.4,636.2l-0.9-0.2c0.4-1.6,9.9-38.7,18-41.6l0.3,0.8C1954.1,598,1944.5,635.8,1944.4,636.2z"/>
			</g>
		</g>
		<g>
			<g>
				<path class="st19" d="M1363.2,1643.2h87.7c1.8-1,3-2.2,3.8-3.5c1.4-65.3,6.4-96.7,6.4-96.7l-61.2-2.5l-11.5,48.5
					C1368.5,1603,1345.6,1633,1363.2,1643.2z"/>
				<path class="st19" d="M1457.6,1644.3h-104c-2.6,0-2.4-14.5,0.2-14.5l103.4,0.6C1459.9,1630.5,1460.3,1644.3,1457.6,1644.3z"/>
			</g>
			<path class="st16" d="M1446.8,958.4c-6.2,48.3-32.8,167.6-29.9,298.9c-28.7,167.2-31.9,204.1-35.4,307.2l87.7,3.3
				c14-72,42.8-185.7,55.9-296.7c28.3-87.4,46.9-212,56-310.9C1590.4,875,1469.9,840.5,1446.8,958.4z"/>
			<path class="st19" d="M1424.4,1568.6l-1.8,0c0.2-11.9,35.8-414.1,72-577.1l1.8,0.4C1460.2,1154.8,1424.6,1556.7,1424.4,1568.6z"
				/>
		</g>
		<g>
			<path class="st16" d="M1535,964.3c12.4,166.4,48.8,307.7,48.8,307.7c-7.1,113.5,13,222.5,27.3,297.1l83.4-0.7
				c4.8-73-5.5-468.1-27.1-602.2C1657.1,847.7,1520.1,841.4,1535,964.3z"/>
			<path class="st19" d="M1626.9,1569.1c-3.7,26.9-6.3,47.9-3.1,72.2l136.4,2.7c0,0,12.9-13.1-5-32.9c-17.9-19.7-49.6-8.3-72.1-42.7
				L1626.9,1569.1z"/>
			<path class="st19" d="M1766.5,1644.3h-144.8c-2.6,0-2.6-14.5,0-14.5l144.2,0.6C1768.6,1630.5,1769.2,1644.3,1766.5,1644.3z"/>
			
				<rect x="1659.9" y="992.5" transform="matrix(0.9988 -4.966387e-02 4.966387e-02 0.9988 -61.5291 84.0627)" class="st19" width="1.8" height="575.3"/>
		</g>
		<path class="st16" d="M1667.1,945.4l-216.9,16.5c2-135.8-59.3-229.6-46.6-264.5c17.5-48,145.4-48.4,194.1-29.6
			c19.3,7.4,50.8,50.5,54.5,104.6c1,25.2,1.3,42.5-1.2,62.6S1667.1,945.4,1667.1,945.4z"/>
		<path class="st15" d="M1537.5,694.8c-10.1-8-50.3-20.4-61-29.1l2.4-69.8l39.5-3.9c11.5,1,22.9,3.7,32.8,7.6l8.9,46l2,10
			C1566.6,665.4,1557.7,677.2,1537.5,694.8z"/>
		<path class="st20" d="M1492.2,611.7c6.2,9.5,32.2,34,67.9,33.9l-7.7-39.8L1492.2,611.7z"/>
		<g>
			<g>
				<path class="st15" d="M1579.8,519.7c3.1,13.8,9.5,43.9,8.4,57.9c-1.6,21.2-21.4,44.7-38.6,47.7c-20,2-46.9-3.9-61.5-16.5
					c-8.1-9.5-23.9-32.1-31.1-51.9c-15.1-41.3,14.1-77.5,51.1-85.8C1545.1,462.7,1570.1,476.8,1579.8,519.7z"/>
				<path class="st21" d="M1469.4,584.2c-7.7-13.6,2.5-19.1,13.8-8.5c-1.9-10.2-13.6-40.3-3.3-50.2c11.7-11.6,63.1-6.5,90.8-35.3
					c0,0-20.6-45.2-88.2-18.5C1406.1,512.1,1469.4,584.2,1469.4,584.2z"/>
				
					<ellipse transform="matrix(0.7691 -0.6391 0.6391 0.7691 -31.2092 1072.5516)" class="st15" cx="1468.9" cy="579.5" rx="13" ry="16.7"/>
			</g>
			<path class="st16" d="M1571.3,492c-8.6-2.6-110.9,38-108.2,45.6c0,0,74.1,0.3,125-22.8C1615.9,502.1,1571.3,492,1571.3,492z"/>
			<path class="st17" d="M1447.7,544.1l124.3-52.4l-4.2-17.6L1436,528.5C1438.6,534.5,1443.1,541.1,1447.7,544.1z"/>
			<path class="st16" d="M1432.4,532.4c-13.6,5.2-20.9-3.1-7.1-18.9c21.2-24.4,35.6-86.7,67.1-98c21.7-7.8,38.1,17.6,66.9,33.4
				c13.1,7.2,20.4,14.6,15.5,23.4C1559.9,483.4,1446.7,526.9,1432.4,532.4z"/>
			<g>
				<path class="st22" d="M1518.7,438.9c-0.2-0.4-0.2-0.6-0.3-0.7c-3.1,0.4-6.2,0.4-9.2,0c-3-0.4-5.7-1.2-8.1-2.4l0,0h0c0,0,0,0,0,0
					c-0.5,1.2-1.1,2.4-1.9,3.6c-1,1.6-2.2,3.1-3.6,4.6c-0.7,0.7-1.4,1.4-2.2,2.1c-1.2,1-2.4,2-3.7,2.8c0.1,0.2,0.4,1.1,1.6,4.2
					c0.2,0.6,0.5,1.3,0.8,2.1c0.1,0.4,0.3,0.8,0.5,1.2c0.5,1.3,1.1,2.9,1.8,4.7c0.9,2.4,2.2,4.4,3.6,6.1c0.5,0.6,1,1.1,1.5,1.6
					c1.6,1.5,3.3,2.7,5,3.6c1.7,0.9,3.5,1.6,5.1,2.1c2.1,0.7,4,1,5.2,1.2c0.6,0.1,1.1,0.1,1.4,0.2c0.5-0.5,1.8-1.9,3.2-4
					c0.6-0.8,1.2-1.8,1.7-2.8c0.3-0.5,0.6-1.1,0.8-1.6c2.1-4.5,3.4-10.5,1-16.9C1520.3,443.1,1519.2,440.1,1518.7,438.9z"/>
				<path class="st8" d="M1518.1,452.4c1.9,5.1-0.7,10.8-5.9,12.7c-5.1,1.9-10.9-0.7-12.7-5.8c-1.9-5.1,0.7-10.8,5.9-12.7
					C1510.5,444.7,1516.2,447.3,1518.1,452.4z"/>
			</g>
		</g>
		<g>
			<path class="st19" d="M1536.6,675.5l6.5,13.7l1-14.6l8.8,23.4c-2.2-3.9-9.7-7.3-9.7-7.3s-8.1,3.7-12.1,12.6L1536.6,675.5z"/>
			<path class="st17" d="M1477,648.9c9.8,12.6,41.5,21.2,59.6,26.6l-5.4,27.9c-21.7-7.3-49.9-15.7-62.5-41.7
				C1465.9,654.6,1469.3,650.7,1477,648.9z"/>
			<path class="st17" d="M1560.3,644.5c-1,4.6-1.7,22.6-16.2,30.2l8.8,23.4c19.9-11.4,21-22,17.9-38.5
				C1569.6,652.9,1567.4,645.9,1560.3,644.5z"/>
		</g>
		<path class="st19" d="M1577.6,957.9c-0.5,0-0.8-0.3-0.9-0.8c-2.2-20.7-4-45.4-5.9-71.5c-5.2-71.2-11.1-151.9-28.3-194.5
			c-0.2-0.5,0-1,0.5-1.2c0.5-0.2,1,0,1.2,0.5c17.2,42.9,23.2,123.7,28.4,195c1.9,26.1,3.7,50.8,5.9,71.4
			C1578.5,957.4,1578.1,957.8,1577.6,957.9C1577.6,957.9,1577.6,957.9,1577.6,957.9z"/>
		<path class="st19" d="M1450.3,939.7c42.4,11.4,208.6,7,215.2,1.9c10.1-2.3,12.4,34.1,6.5,42.9c-9,13.4-222.5,11.3-229.3,1.6
			C1436,976.5,1438.3,936.5,1450.3,939.7z"/>
		<g>
			<g>
				<path class="st22" d="M1614.5,743c0-0.4-0.1-0.6-0.1-0.7c-3-0.3-6-1.1-8.7-2.2c-2.7-1.1-5.1-2.5-7-4.2l0,0h0c0,0,0,0,0,0
					c-0.8,1-1.6,2-2.6,3c-1.3,1.3-2.8,2.4-4.5,3.5c-0.8,0.5-1.7,1-2.6,1.5c-1.3,0.7-2.7,1.3-4.1,1.8c0,0.2,0.1,1.2,0.5,4.3
					c0.1,0.6,0.2,1.3,0.2,2.1c0,0.4,0.1,0.8,0.1,1.3c0.2,1.4,0.3,3,0.6,4.8c0.3,2.5,1,4.7,2,6.6c0.3,0.6,0.7,1.3,1.1,1.9
					c1.1,1.8,2.5,3.3,3.9,4.6c1.4,1.3,2.9,2.3,4.3,3.2c1.8,1.1,3.5,1.9,4.7,2.3c0.6,0.2,1,0.4,1.3,0.5c0.6-0.4,2.2-1.4,4-3.1
					c0.7-0.7,1.5-1.4,2.3-2.3c0.4-0.4,0.8-0.9,1.2-1.4c3-3.8,5.7-9.1,4.9-15.8C1615,747.4,1614.7,744.3,1614.5,743z"/>
			</g>
			
				<rect x="1583.4" y="786" transform="matrix(0.9953 -9.690656e-02 9.690656e-02 0.9953 -68.9873 159.1955)" class="st17" width="42" height="7.7"/>
		</g>
		<path class="st19" d="M1578.8,1080.7H1566l0.3-1.1c5.8-24.4,6.5-83.6,6.6-84.2l1.8,0c0,0.6-0.8,58.3-6.4,83.5h9.1
			c1.2-6,9.2-48,7.2-82l1.8-0.1c2.2,36.8-7.2,82.8-7.3,83.2L1578.8,1080.7z"/>
		<g>
			<path class="st15" d="M1369.3,805.6c0,0-16.9,95.5,0.3,129.2c17.8,34.8,181.9,42.4,181.9,42.4l5.9-49.4l-113.1-28.7l24.6-73.2
				L1369.3,805.6z"/>
			<path class="st16" d="M1411.9,682.8c0,0-47.7,58.2-49.6,141.5c62.2,45.3,103.1,12.7,103.1,12.7s31.5-83.3,24.5-123.8
				C1482.9,672.6,1426,668,1411.9,682.8z"/>
			<path class="st17" d="M1364.4,799.3c8.4,10.2,105,30.2,107,19c2.7,10.7,2.1,21.2-6.5,31c-2.5,15.6-107.2-0.8-104.7-16.4
				C1354,823.2,1355.5,812,1364.4,799.3z"/>
			<path class="st19" d="M1471.4,819.2c-0.2,0-0.3,0-0.5-0.1c-0.4-0.3-0.6-0.8-0.3-1.2c7-11.8,12.8-27.8,16-43.8
				c0.1-0.5,0.6-0.8,1.1-0.7c0.5,0.1,0.8,0.6,0.7,1.1c-3.3,16.2-9.2,32.4-16.3,44.3C1472,819.1,1471.7,819.2,1471.4,819.2z"/>
		</g>
		<g>
			<g>
				<g>
					<g>
						<path class="st14" d="M1483,811.9L1483,811.9c0-0.6,0-0.8,0-0.9C1483,811.2,1483,811.9,1483,811.9z"/>
						<path class="st14" d="M1483,811.9L1483,811.9c0-0.6,0-0.8,0-0.9C1483,811.2,1483,811.9,1483,811.9z"/>
						<path class="st14" d="M1823.8,815.7c0,0,0-0.8,0-0.9C1823.8,814.9,1823.8,815.1,1823.8,815.7L1823.8,815.7z"/>
						<path class="st14" d="M1823.8,815.7c0,0,0-0.8,0-0.9C1823.8,814.9,1823.8,815.1,1823.8,815.7L1823.8,815.7z"/>
						<path class="st8" d="M1654.7,721.4c-40,42.1-103.6,76.4-171.5,90.7c-0.1,4.5-0.3,29.5-1.6,144.6
							c-1.7,153.6,144.6,229.6,167.3,241.2c22.2-10,171.3-83.9,173-237.5c1.3-115.1,1.6-140.1,1.6-144.6
							C1756,800,1693.7,764.4,1654.7,721.4z"/>
					</g>
				</g>
				<g>
					<path class="st23" d="M1654.1,749.2c-39.1,35.3-93.2,62.8-152.5,77.6l-1.4,130.1c-0.7,59.5,22.7,113.5,69.6,160.5
						c30.8,30.9,63.2,50.1,79.7,58.8c0.7-0.4,1.5-0.8,2.3-1.1l2.8-425.6C1654.3,749.4,1654.2,749.3,1654.1,749.2z"/>
					<path class="st24" d="M1654.4,749.5l-2.8,425.6c17.2-8.8,48.6-27,78.7-55.9c47.9-46,72.4-99.4,73.1-159l1.4-130.1
						C1746,814,1692.7,785.4,1654.4,749.5z"/>
				</g>
			</g>
			<g>
				<path class="st8" d="M1584.4,936.5l-0.7,100.8c-0.1,11.2,137.6,12.1,137.7,0.9l0.7-100.8L1584.4,936.5z M1659.8,990.6l-0.2,28.6
					c0,3.8-3.2,6.9-7,6.9c-3.9,0-7-3.2-6.9-7l0.2-28.6c-5.9-2.7-10-8.6-9.9-15.5c0.1-9.4,7.8-16.8,17.1-16.8
					c9.4,0.1,16.9,7.7,16.9,17C1669.9,982,1665.8,988,1659.8,990.6z"/>
				<path class="st8" d="M1710,930.2l-13.9-0.1l0-6.8c0.2-23.5-18.9-42.8-42.6-42.9c-23.6-0.2-43,18.9-43.1,42.4l0,6.8l-13.9-0.1
					l0-6.8c0.2-31.2,25.8-56.4,57.2-56.1c31.3,0.2,56.6,25.7,56.4,56.9L1710,930.2z"/>
			</g>
		</g>
	</g>
</g>
</svg>
