<svg xmlns="http://www.w3.org/2000/svg" xmlns:xlink="http://www.w3.org/1999/xlink" width="103" height="34" viewBox="0 0 103 34">
  <defs>
    <rect id="rect-1" width="103" height="34" x="0" y="0"/>
    <mask id="mask-2" maskContentUnits="userSpaceOnUse" maskUnits="userSpaceOnUse">
      <rect width="103" height="34" x="0" y="0" fill="black"/>
      <use fill="white" xlink:href="#rect-1"/>
    </mask>
  </defs>
  <g>
    <use fill="none" xlink:href="#rect-1"/>
    <g mask="url(#mask-2)">
      <path fill="rgb(255,205,59)" fill-rule="evenodd" d="M10.26240876 30.09772727c.67664233.46363637 1.50364963.73409091 2.36824817.88863637.86459854.15454545 1.72919708.19318181 2.63138687.15454545 1.80437956-.03863636 3.57116788-.34772727 5.3379562-.69545454 3.57116788-.77272728 7.02956204-1.85454546 10.4879562-3.05227273C38.00474453 24.9590909 44.77116788 22.1 51.53759124 19.24090909c6.76642336-2.8590909 13.49525548-5.8340909 20.29927007-8.57727273 3.42080292-1.39090909 6.84160584-2.70454545 10.3-3.94090909C85.59525547 5.525 89.12883211 4.40454545 92.7 3.67045455c-3.57116788.77272727-7.06715328 1.93181818-10.52554745 3.16818181C78.7160584 8.075 75.33284672 9.4659091 71.94963504 10.89545455c-6.76642336 2.8590909-13.45766424 5.87272727-20.2240876 8.84772727-6.72883211 2.93636363-13.49525547 5.87272727-20.41204379 8.42272727-3.45839416 1.23636364-6.95437956 2.39545455-10.56313869 3.20681818-1.80437956.38636364-3.64635036.73409091-5.5259124.77272728-.93978103.03863636-1.87956205 0-2.81934307-.15454546-.93978102-.15454545-1.91715329-.46363636-2.74416058-1.04318182l.60145985-.85z"/>
      <g>
        <path fill="rgb(15,112,183)" fill-rule="evenodd" d="M17.44233704 22.44772339c.37591552-.96590424.56386566-2.04772186.56386566-3.20681763 0-1.15908813-.18795014-2.24090576-.6014557-3.24545288-.37591552-.96590423-.90219115-1.81591034-1.57883452-2.51136017-.67664338-.69545746-1.54124451-1.23636627-2.48101807-1.62273025-.93978882-.38636399-2.02993012-.57954407-3.1952591-.57954407H4.24781036v15.8795433h5.93941498c1.16532898 0 2.21788025-.19317627 3.1952591-.57954406.97737121-.38636017 1.8043747-.92726898 2.48101806-1.62272644.67664337-.69545746 1.202919-1.54545594 1.57883454-2.5113678zm-2.70657349-5.56363678c.22554779.69545746.3383255 1.46818542.3383255 2.35681915 0 .88864136-.11277771 1.6613617-.3383255 2.27954865-.22554016.69544983-.56386566 1.31363678-.97737122 1.77727508-.41349792.50226593-.93978118.84999848-1.54123687 1.12045288-.60146332.27045441-1.2781067.38636017-2.02993012.38636017H7.17992783V13.59999847h3.00729751c.75182343 0 1.4284668.11590958 2.02993012.38636399.60145569.27045059 1.12773895.65681839 1.54123687 1.1204567.41350556.50227355.75183106 1.08181762.97737122 1.77726745z"/>
        <path fill="rgb(15,112,183)" fill-rule="evenodd" d="M23.15620438 24.7659091h6.20255474V27.2h-9.09708029V11.28181818h2.89452555V24.7659091z"/>
        <path fill="rgb(15,112,183)" fill-rule="evenodd" d="M40.3729927 11.28181818v2.43409091h-4.66131387V27.2h-2.89452555V13.7159091h-4.66131386v-2.43409092H40.3729927z"/>
        <path fill="rgb(15,112,183)" fill-rule="evenodd" d="M59.54452515 22.44772339c.3759079-.96590424.56386566-2.04772186.56386566-3.20681763 0-1.15908813-.18795777-2.24090576-.60146332-3.24545288-.3759079-.96590423-.90218353-1.81591034-1.5788269-2.51136017-.67664338-.69545746-1.50364685-1.23636627-2.4810257-1.62273025-.93978119-.38636399-2.02992249-.57954407-3.19525146-.57954407H46.3875885v15.8795433h5.90182495c1.16532898 0 2.21788025-.19317627 3.19525147-.57954406.97737884-.38636017 1.80438232-.92726898 2.4810257-1.62272644.67664336-.69545746 1.202919-1.54545594 1.57883453-2.5113678zm-2.70656586-5.56363678c.22554779.69545746.33831787 1.46818542.33831787 2.35681915 0 .88864136-.11277008 1.6613617-.33831787 2.27954865-.2255478.69544983-.56386566 1.27500152-.97737122 1.77727508-.41350555.50226593-.93978119.84999848-1.5412445 1.12045288-.6014557.27045441-1.27809906.38636017-2.02992249.38636017h-3.00730133V13.59999847h3.00730133c.75182343 0 1.4284668.11590958 2.02992249.38636399.60146331.27045059 1.12773895.65681839 1.5412445 1.1204567.41350556.50227355.75182343 1.08181762.97737122 1.77726745z"/>
        <path fill="rgb(15,112,183)" fill-rule="evenodd" d="M69.13028717 16.15000153c-.63904571-.27045441-1.39086914-.42500306-2.21788025-.42500306-.82700348 0-1.57883453.15454865-2.25547027.42500306-.67664338.2704544-1.2781067.65681457-1.72920228 1.15908813-.45109558.50227356-.82700347 1.12045288-1.0901413 1.81591034-.26314544.69544983-.37591552 1.50682068-.37591552 2.3954544 0 .88863373.11277008 1.69999695.37591553 2.43408967.26313782.73409271.60145569 1.35227203 1.0901413 1.8545456.4886856.50227355 1.0525589.88863372 1.72920227 1.15908813.67663574.2704544 1.4284668.42500305 2.25547027.42500305.78941345 0 1.5412445-.15454865 2.21788025-.42500305.63905335-.27045441 1.202919-.65681458 1.69161224-1.15908814.45109559-.54090881.82700348-1.12045288 1.0901413-1.8545456.26314545-.7340927.3759079-1.54545593.3759079-2.43408965 0-.88863373-.11276245-1.6613617-.3759079-2.39545441-.26313782-.69545746-.60145569-1.31363678-1.0901413-1.81591034-.45109558-.50227356-1.01496887-.88863373-1.69161224-1.15908813zm-.18795013 8.19091034c-.45109558.65681457-1.12773896.96590423-2.02992249.96590423-.93978119 0-1.61642456-.34772491-2.06752014-.96590423-.45109558-.6568222-.67664337-1.5840912-.67664337-2.7818222 0-1.1977234.22554779-2.125.67664337-2.78181458.45109558-.6568222 1.12773895-.96591187 2.06752014-.96591187.90218353 0 1.5788269.30908966 2.02992249.96591187.45109558.61817932.67664337 1.5454483.67664337 2.78181457 0 1.23636627-.2255478 2.16363525-.67664337 2.7818222z"/>
        <path fill="rgb(15,112,183)" fill-rule="evenodd" d="M82.13686131 18.31363636c-.07518248.1159091-.15036496.19318182-.22554744.23181819-.07518248.07727272-.1879562.07727272-.33832117.07727272-.15036496 0-.26313869-.03863636-.41350365-.11590909-.11277372-.07727273-.30072993-.19318182-.45109489-.27045454-.1879562-.1159091-.3759124-.19318182-.6390511-.27045455-.26313868-.07727273-.5638686-.11590909-.90218978-.11590909-.45109489 0-.86459854.07727273-1.2029197.27045455-.33832117.15454545-.6390511.425-.86459854.7340909-.22554745.30909091-.41350365.69545455-.52627738 1.15909091-.11277372.46363637-.1879562.9659091-.1879562 1.54545455 0 .61818182.07518248 1.12045454.1879562 1.62272727.11277373.46363637.30072993.85.52627738 1.19772727.22554744.34772728.52627737.57954546.86459854.73409091.33832116.15454546.71423357.23181819 1.12773722.23181819s.75182482-.03863637 1.0149635-.15454546c.2631387-.11590909.48868614-.23181818.67664234-.34772727.1879562-.1159091.33832117-.23181818.4510949-.34772727.11277372-.1159091.26313868-.15454546.45109488-.15454546.22554745 0 .37591241.07727273.48868613.27045455l.75182482 1.00454545c-.30072992.34772727-.60145985.65681818-.93978102.88863636-.33832117.23181819-.71423358.425-1.05255474.57954546-.37591241.15454545-.75182482.23181818-1.12773723.3090909-.3759124.07727274-.78941606.07727274-1.16532847.07727274-.67664233 0-1.31569343-.1159091-1.91715328-.38636364-.60145986-.27045455-1.12773723-.65681818-1.57883212-1.12045455-.45109489-.46363636-.78941606-1.12045454-1.05255474-1.81590909-.26313869-.7340909-.37591241-1.54545454-.37591241-2.47272727 0-.81136364.11277372-1.5840909.33832117-2.31818182.22554744-.69545454.5638686-1.31363636 1.0149635-1.85454545C75.52080292 17 76.08467153 16.575 76.72372263 16.30454545c.67664233-.3090909 1.42846715-.425 2.2930657-.425.82700729 0 1.54124087.15454546 2.14270072.425.60145986.27045455 1.16532847.65681819 1.6540146 1.15909091l-.67664234.85z"/>
        <path fill="rgb(15,112,183)" fill-rule="evenodd" d="M91.15875912 18.12045455c-.07518248.11590909-.15036496.19318181-.22554744.23181818-.07518248.03863636-.1879562.07727272-.30072993.07727272-.11277372 0-.26313868-.03863636-.41350365-.11590909-.15036496-.07727272-.30072992-.15454545-.52627737-.23181818-.1879562-.07727273-.41350365-.19318182-.67664234-.23181818-.26313868-.07727273-.52627737-.1159091-.86459854-.1159091-.52627737 0-.93978102.1159091-1.24051094.34772728-.30072993.23181818-.4510949.5409091-.4510949.88863637 0 .23181818.07518249.46363636.22554745.61818181.15036496.15454546.33832117.30909091.60145985.425.26313869.1159091.52627738.23181819.86459854.34772728.33832117.11590909.6390511.19318181.97737227.3090909.33832116.1159091.67664233.27045455.97737226.38636364.33832117.15454546.60145985.34772727.86459854.57954546.26313869.23181818.45109489.50227272.60145985.85.15036497.3090909.22554745.69545454.22554745 1.1590909 0 .5409091-.11277372 1.04318182-.30072993 1.50681819-.1879562.46363636-.48868613.85-.86459854 1.19772727-.3759124.34772727-.8270073.57954545-1.39087591.77272727-.56386861.19318182-1.16532847.27045455-1.87956204.27045455-.37591241 0-.75182482-.03863637-1.09014599-.1159091-.3759124-.07727272-.71423358-.15454545-1.05255474-.3090909-.33832117-.15454546-.6390511-.27045455-.93978103-.425-.30072992-.15454546-.52627737-.34772727-.75182481-.5409091l.60145985-1.04318181c.07518248-.1159091.1879562-.23181818.26313869-.27045455.11277372-.07727272.22554744-.11590909.41350365-.11590909.15036496 0 .30072992.03863637.45109489.15454546.15036496.07727272.30072992.19318182.52627737.3090909.1879562.1159091.41350365.23181819.67664233.30909092.2631387.07727272.60145986.15454545.97737227.15454545.30072992 0 .60145985-.03863636.8270073-.1159091.22554744-.07727272.41350365-.1931818.56386861-.3090909.15036496-.1159091.26313869-.27045455.33832117-.425.07518248-.15454545.11277372-.34772727.11277372-.50227273 0-.27045454-.07518248-.46363636-.22554744-.65681818-.15036497-.15454545-.37591241-.3090909-.60145986-.425-.22554744-.11590909-.52627737-.23181818-.86459854-.34772727-.33832117-.1159091-.6390511-.19318182-1.0149635-.30909091-.37591241-.1159091-.67664234-.27045455-1.0149635-.425-.33832117-.15454546-.60145986-.34772727-.86459855-.61818182-.26313868-.27045454-.45109489-.54090909-.60145985-.88863636-.15036496-.34772728-.22554745-.77272728-.22554745-1.275 0-.46363637.07518249-.88863637.26313869-1.31363637.1879562-.425.4510949-.77272727.78941606-1.08181818.33832117-.3090909.78941606-.57954545 1.27810219-.7340909.48868613-.15454546 1.12773722-.27045455 1.80437956-.27045455.75182482 0 1.42846715.11590909 2.06751825.38636363.6390511.27045455 1.12773722.57954546 1.54124087 1.00454546l-.45109489.92727273z"/>
      </g>
      <path fill="rgb(255,205,59)" fill-rule="evenodd" d="M101.27080292 1.04318182l-13.90875912.27045454c-.2631387 0-.41350365.30909091-.2631387.50227273l1.42846716 1.93181818L98.45145986 2.125 89.54233575 5.1l-.71423357 2.20227273c-.03759124.15454545.07518248.3090909.22554745.27045454l1.91715328-.50227272 1.2029197 1.62272727c.11277373.15454545.30072993.15454545.4510949.03863636l8.75875912-7.5340909c.03759124-.03863637 0-.15454546-.11277372-.15454546z"/>
    </g>
  </g>
</svg>
