<?xml version="1.0" encoding="utf-8"?>
<!-- Generator: Adobe Illustrator 24.1.1, SVG Export Plug-In . SVG Version: 6.00 Build 0)  -->
<svg version="1.1" xmlns="http://www.w3.org/2000/svg" xmlns:xlink="http://www.w3.org/1999/xlink" x="0px" y="0px"
	 viewBox="0 0 500 386.38" style="enable-background:new 0 0 500 386.38;" xml:space="preserve">
<g id="Background_Complete">
	<g>
		<rect x="416.78" y="354.62" style="fill:#EBEBEB;" width="33.12" height="0.25"/>
		<rect x="322.53" y="357.34" style="fill:#EBEBEB;" width="8.69" height="0.25"/>
		<rect x="396.59" y="345.34" style="fill:#EBEBEB;" width="19.19" height="0.25"/>
		<rect x="52.46" y="347.02" style="fill:#EBEBEB;" width="43.19" height="0.25"/>
		<rect x="104.56" y="347.02" style="fill:#EBEBEB;" width="6.33" height="0.25"/>
		<rect x="131.47" y="351.24" style="fill:#EBEBEB;" width="93.68" height="0.25"/>
		<path style="fill:#EBEBEB;" d="M237.01,293.93H43.92c-3.15,0-5.71-2.56-5.71-5.71V16.79c0-3.15,2.56-5.71,5.71-5.71h193.1
			c3.15,0,5.71,2.56,5.71,5.71v271.43C242.72,291.37,240.16,293.93,237.01,293.93z M43.92,11.33c-3.01,0-5.46,2.45-5.46,5.46v271.43
			c0,3.01,2.45,5.46,5.46,5.46h193.1c3.01,0,5.46-2.45,5.46-5.46V16.79c0-3.01-2.45-5.46-5.46-5.46H43.92z"/>
		<path style="fill:#EBEBEB;" d="M453.31,293.93h-193.1c-3.15,0-5.71-2.56-5.71-5.71V16.79c0-3.15,2.56-5.71,5.71-5.71h193.1
			c3.15,0,5.71,2.56,5.71,5.71v271.43C459.02,291.37,456.46,293.93,453.31,293.93z M260.21,11.33c-3.01,0-5.46,2.45-5.46,5.46
			v271.43c0,3.01,2.45,5.46,5.46,5.46h193.1c3.01,0,5.46-2.45,5.46-5.46V16.79c0-3.01-2.45-5.46-5.46-5.46H260.21z"/>
		<rect y="338.53" style="fill:#EBEBEB;" width="500" height="0.25"/>
	</g>
	<g>
		<g>
			<rect x="291.96" y="50.8" style="fill:#EBEBEB;" width="124.79" height="132.89"/>
			<rect x="299.46" y="58.3" style="fill:#F5F5F5;" width="109.79" height="117.89"/>
			<g>
				<polygon style="fill:#FAFAFA;" points="342.55,176.19 375.55,176.19 406.53,58.3 373.53,58.3 				"/>
				<polygon style="fill:#FAFAFA;" points="358.2,58.3 327.22,176.19 335.22,176.19 366.2,58.3 				"/>
			</g>
			<g>
				<polygon style="fill:#F5F5F5;" points="418.33,57.05 290.38,57.05 287.68,50.75 421.03,50.75 				"/>
				<polygon style="fill:#F0F0F0;" points="418.33,60.7 290.38,60.7 287.68,54.4 421.03,54.4 				"/>
				<polygon style="fill:#E6E6E6;" points="418.33,64.35 290.38,64.35 287.68,58.05 421.03,58.05 				"/>
				<polygon style="fill:#E0E0E0;" points="418.33,68 290.38,68 287.68,61.7 421.03,61.7 				"/>
				<rect x="283.03" y="42.86" style="fill:#E0E0E0;" width="142.65" height="8.4"/>
				<path style="fill:#E0E0E0;" d="M284.49,127.42L284.49,127.42c-0.8,0-1.45-0.65-1.45-1.45V76.98c0-0.8,0.65-1.45,1.45-1.45l0,0
					c0.8,0,1.45,0.65,1.45,1.45v48.99C285.94,126.77,285.29,127.42,284.49,127.42z"/>
				<rect x="283.96" y="49.58" style="fill:#E0E0E0;" width="1.05" height="29.1"/>
			</g>
		</g>
		<g>
			<g>
				<rect x="88.72" y="48.23" style="fill:#E0E0E0;" width="1.8" height="140.37"/>
				<rect x="200.77" y="48.23" style="fill:#E0E0E0;" width="1.8" height="140.37"/>
			</g>
			<polygon style="fill:#F5F5F5;" points="209.62,57.05 81.67,57.05 78.97,50.75 212.32,50.75 			"/>
			<polygon style="fill:#F5F5F5;" points="209.62,65.7 81.67,65.7 78.97,59.4 212.32,59.4 			"/>
			<polygon style="fill:#F5F5F5;" points="209.62,74.35 81.67,74.35 78.97,68.05 212.32,68.05 			"/>
			<polygon style="fill:#F5F5F5;" points="209.62,83 81.67,83 78.97,76.7 212.32,76.7 			"/>
			<polygon style="fill:#F5F5F5;" points="209.62,91.65 81.67,91.65 78.97,85.35 212.32,85.35 			"/>
			<polygon style="fill:#F5F5F5;" points="209.62,100.3 81.67,100.3 78.97,94 212.32,94 			"/>
			<polygon style="fill:#F5F5F5;" points="209.62,108.95 81.67,108.95 78.97,102.65 212.32,102.65 			"/>
			<polygon style="fill:#F5F5F5;" points="209.62,117.6 81.67,117.6 78.97,111.3 212.32,111.3 			"/>
			<polygon style="fill:#F5F5F5;" points="209.62,126.25 81.67,126.25 78.97,119.95 212.32,119.95 			"/>
			<polygon style="fill:#F5F5F5;" points="209.62,134.9 81.67,134.9 78.97,128.6 212.32,128.6 			"/>
			<polygon style="fill:#F5F5F5;" points="209.62,143.54 81.67,143.54 78.97,137.24 212.32,137.24 			"/>
			<polygon style="fill:#F5F5F5;" points="209.62,152.19 81.67,152.19 78.97,145.89 212.32,145.89 			"/>
			<polygon style="fill:#F5F5F5;" points="209.62,160.84 81.67,160.84 78.97,154.54 212.32,154.54 			"/>
			<polygon style="fill:#F5F5F5;" points="209.62,169.49 81.67,169.49 78.97,163.19 212.32,163.19 			"/>
			<polygon style="fill:#F5F5F5;" points="209.62,178.14 81.67,178.14 78.97,171.84 212.32,171.84 			"/>
			<polygon style="fill:#F5F5F5;" points="209.62,186.79 81.67,186.79 78.97,180.49 212.32,180.49 			"/>
			<rect x="78.97" y="186.79" style="fill:#E0E0E0;" width="133.35" height="3.6"/>
			<rect x="74.32" y="42.86" style="fill:#E0E0E0;" width="142.65" height="8.4"/>
			<path style="fill:#E0E0E0;" d="M75.79,127.42L75.79,127.42c-0.8,0-1.45-0.65-1.45-1.45V76.98c0-0.8,0.65-1.45,1.45-1.45l0,0
				c0.8,0,1.45,0.65,1.45,1.45v48.99C77.24,126.77,76.59,127.42,75.79,127.42z"/>
			<rect x="75.26" y="49.58" style="fill:#E0E0E0;" width="1.05" height="29.1"/>
		</g>
	</g>
	<g>
		<g>
			<path style="fill:#EBEBEB;" d="M89.32,278.51c-0.12,0.14,0.55,1.08-2.19,0.66c-6.75-1.01-18.5-3.75-21.77-10.69
				c-4.67-9.91,9.81-6.29,9.31-11.36c-0.5-5.07-16.98-4.18-18.73-11.62c-1.75-7.43,9.43-3.89,9.58-7.52
				c0.15-3.62-12.73-1.37-15.29-9.39c-2.56-8.02,7.18-2.12,6.06-5.45c-1.12-3.33-12.01-18.42-6.09-20.17
				c5.93-1.75,15.92,13.73,19.77,15.92c3.85,2.19,7.28-10.44,11.87-5.11c4.59,5.33-2.69,23.99,3.17,27.61
				c4.36,2.7,3.13-4.73,8.89-3.35C101.73,239.94,99.1,267.57,89.32,278.51z"/>
			<path style="fill:#F5F5F5;" d="M68.49,238.03c2.65,0.22,4.61,0.76,5.83,1.2c-2.38-3.48-4.09-5.27-4.15-5.33
				c-0.19-0.2-0.19-0.51,0.01-0.71c0.2-0.19,0.51-0.19,0.71,0c0.05,0.05,3.99,4.11,8.31,12.06c2.12-12.79-3.23-23.96-3.29-24.08
				c-0.09-0.19-0.01-0.41,0.17-0.5c0.18-0.09,0.41-0.01,0.5,0.17c0.06,0.12,5.78,12.05,3.18,25.47c0.69,1.32,1.38,2.72,2.07,4.24
				c1.98,4.37,4.06,9.97,5.7,16.71c1.14-2.06,3.75-7.57,3.98-15.26c0.01-0.21,0.18-0.37,0.39-0.36c0.21,0.01,0.37,0.18,0.36,0.39
				c-0.27,8.9-3.68,14.99-4.47,16.29c2.17,9.36,3.47,20.88,2.54,34.46c-0.02,0.28-0.26,0.48-0.53,0.46c-0.02,0-0.04,0-0.06-0.01
				c-0.24-0.05-0.42-0.27-0.4-0.52c1.24-17.97-1.45-32.42-5.17-43.36c-0.94-1.09-3.73-3.89-7.98-4.55
				c-0.19-0.05-0.34-0.22-0.31-0.43c0.03-0.2,0.22-0.34,0.43-0.31c3.36,0.53,5.82,2.27,7.28,3.62c-2.74-7.6-5.94-13.38-8.53-17.33
				c-0.83-0.38-3.11-1.26-6.63-1.56c-0.2-0.03-0.36-0.2-0.34-0.41C68.1,238.16,68.28,238.01,68.49,238.03z"/>
		</g>
		<g>
			<g>
				<path style="fill:#E0E0E0;" d="M97.96,282.33c5.61,0.11,15.19-5.1,18.95-10.17c3.82-5.14-6.92-1.95-5.82-5.99
					c1.1-4.04,14.34-1.05,16.78-6.84c2.44-5.78-7.11-4.45-6.73-7.41c0.38-2.96,10.27-2.36,13.45-8.5c3.18-6.15-5.53-2.7-4.16-5.25
					c1.37-2.55,12.27-13.27,7.71-15.5c-4.56-2.24-14.79,8.93-18.21,10.18c-3.43,1.25-4.23-6.47-8.68-2.78
					c-4.46,3.69-1.12,19.81-6.37,21.94c-3.91,1.58-2.25-5.8-6.74-3.93C90.26,251.35,95.69,282.29,97.96,282.33z"/>
				<g style="opacity:0.3;">
					<path style="fill:#E0E0E0;" d="M97.96,282.33c5.61,0.11,15.19-5.1,18.95-10.17c3.82-5.14-6.92-1.95-5.82-5.99
						c1.1-4.04,14.34-1.05,16.78-6.84c2.44-5.78-7.11-4.45-6.73-7.41c0.38-2.96,10.27-2.36,13.45-8.5c3.18-6.15-5.53-2.7-4.16-5.25
						c1.37-2.55,12.27-13.27,7.71-15.5c-4.56-2.24-14.79,8.93-18.21,10.18c-3.43,1.25-4.23-6.47-8.68-2.78
						c-4.46,3.69-1.12,19.81-6.37,21.94c-3.91,1.58-2.25-5.8-6.74-3.93C90.26,251.35,95.69,282.29,97.96,282.33z"/>
				</g>
			</g>
			<path style="fill:#F5F5F5;" d="M99.82,275.6c-0.08-0.03-0.15-0.08-0.2-0.16c-0.13-0.25-3.2-6.2-2.52-15.03
				c0.02-0.21,0.19-0.36,0.4-0.34c0.21,0.02,0.36,0.2,0.34,0.4c-0.58,7.46,1.65,12.92,2.27,14.29c2.51-6.82,5.52-12.88,8.54-18.07
				c-0.99-12.04,5.18-21.9,5.24-22c0.11-0.17,0.34-0.23,0.52-0.12c0.17,0.11,0.23,0.34,0.12,0.52c-0.06,0.09-5.73,9.16-5.2,20.44
				c7.19-12.04,14.2-19.03,14.34-19.17c0.2-0.19,0.51-0.19,0.71,0.01c0.19,0.2,0.19,0.51-0.01,0.71c-0.12,0.12-5.11,5.1-10.94,13.84
				c3.42-1.27,7.13-1.93,10.6-1.87c0.21,0,0.37,0.17,0.37,0.38c0,0.2-0.17,0.37-0.38,0.37c0,0,0,0-0.01,0
				c-3.71-0.07-7.71,0.71-11.31,2.2c-2.01,3.08-4.09,6.6-6.1,10.49c1.93-1.3,5.67-3.11,10.46-1.84c0.2,0.05,0.32,0.26,0.27,0.46
				c-0.05,0.2-0.26,0.32-0.46,0.27c-6.08-1.6-10.36,2.03-11.06,2.67c-5.5,11.07-10.24,25.07-10.87,41.11
				c-0.01,0.27-0.23,0.48-0.5,0.48c-0.01,0-0.01,0-0.02,0c-0.28-0.01-0.49-0.24-0.48-0.52C94.38,294.26,96.68,284.34,99.82,275.6z"
				/>
		</g>
		<path style="fill:#F0F0F0;" d="M82.19,337.11c-5.35-10.07-8.87-24.61-8.87-30.98c0-5.39,2.53-10.22,6.54-13.61h27.41
			c4.01,3.39,6.54,8.22,6.54,13.61c0,6.37-3.52,20.92-8.87,30.98H82.19z"/>
	</g>
</g>
<g id="Background_Simple" style="display:none;">
	<g style="display:inline;">
		<path style="fill:#407BFF;" d="M223.37,137.75c-16.75,7.14-53.26-12.19-70.93-16.59c-44.59-11.1-96.45,7.63-92.04,69.99
			c6.02,85.25,131.88,178.94,263.45,134.09c66.46-22.66,120.88-85.99,120.75-161.96C444.36,25.23,313.47,20.55,272.34,55.17
			C233.82,87.59,245.45,128.34,223.37,137.75z"/>
		<path style="opacity:0.9;fill:#FFFFFF;" d="M223.37,137.75c-16.75,7.14-53.26-12.19-70.93-16.59
			c-44.59-11.1-96.45,7.63-92.04,69.99c6.02,85.25,131.88,178.94,263.45,134.09c66.46-22.66,120.88-85.99,120.75-161.96
			C444.36,25.23,313.47,20.55,272.34,55.17C233.82,87.59,245.45,128.34,223.37,137.75z"/>
	</g>
</g>
<g id="Shadow">
	<ellipse id="_x3C_Path_x3E__1_" style="fill:#F5F5F5;" cx="245.18" cy="368.52" rx="193.89" ry="11.32"/>
</g>
<g id="Screen">
	<g>
		<g>
			<path style="fill:#407BFF;" d="M292.65,75.77h-23.98c-1.57,0-3,1.17-3.33,2.73l-0.16,0.75c-0.82,3.81-4.31,6.66-8.14,6.66h-22.8
				c-3.84,0-6.82-2.85-6.98-6.66l-0.03-0.75c-0.06-1.56-1.29-2.73-2.86-2.73h-23.98c-8,0-15.05,6.48-15.75,14.48l-19.29,220.54
				c-0.7,8,5.22,14.48,13.22,14.48h92.27c8,0,15.05-6.48,15.75-14.48l19.29-220.54C306.57,82.25,300.65,75.77,292.65,75.77z"/>
			<path style="opacity:0.7;fill:#FFFFFF;" d="M292.65,75.77h-23.98c-1.57,0-3,1.17-3.33,2.73l-0.16,0.75
				c-0.82,3.81-4.31,6.66-8.14,6.66h-22.8c-3.84,0-6.82-2.85-6.98-6.66l-0.03-0.75c-0.06-1.56-1.29-2.73-2.86-2.73h-23.98
				c-8,0-15.05,6.48-15.75,14.48l-19.29,220.54c-0.7,8,5.22,14.48,13.22,14.48h92.27c8,0,15.05-6.48,15.75-14.48l19.29-220.54
				C306.57,82.25,300.65,75.77,292.65,75.77z"/>
		</g>
		<path style="fill:#FFFFFF;" d="M283.3,177.2h-48.99c-1.78,0-3.09-1.44-2.94-3.22l3.69-42.19c0.16-1.78,1.72-3.22,3.5-3.22h48.99
			c1.78,0,3.09,1.44,2.94,3.22l-3.69,42.19C286.64,175.76,285.08,177.2,283.3,177.2z"/>
		<path style="fill:#FFFFFF;" d="M266.98,309.12H185c-4.41,0-7.68-3.58-7.29-7.99l0,0c0.39-4.41,4.28-7.99,8.69-7.99h81.99
			c4.41,0,7.68,3.58,7.29,7.99l0,0C275.29,305.55,271.4,309.12,266.98,309.12z"/>
		<g>
			<path style="fill:#FFFFFF;" d="M273.53,116.98H198.3c-2.48,0-4.31-2.01-4.09-4.49l0.61-7.01c0.22-2.48,2.4-4.49,4.88-4.49h75.23
				c2.48,0,4.31,2.01,4.09,4.49l-0.61,7.01C278.2,114.97,276.01,116.98,273.53,116.98z"/>
			<g>
				<path style="fill:#FFFFFF;" d="M288.83,105.25c-0.06,0.69-0.67,1.25-1.36,1.25s-1.2-0.56-1.14-1.25
					c0.06-0.69,0.67-1.25,1.36-1.25C288.38,104,288.89,104.56,288.83,105.25z"/>
				<path style="fill:#FFFFFF;" d="M288.5,108.99c-0.06,0.69-0.67,1.25-1.36,1.25c-0.69,0-1.2-0.56-1.14-1.25
					c0.06-0.69,0.67-1.25,1.36-1.25C288.05,107.74,288.56,108.3,288.5,108.99z"/>
				<path style="fill:#FFFFFF;" d="M288.18,112.72c-0.06,0.69-0.67,1.25-1.36,1.25c-0.69,0-1.2-0.56-1.14-1.25
					c0.06-0.69,0.67-1.25,1.36-1.25C287.73,111.47,288.24,112.03,288.18,112.72z"/>
			</g>
		</g>
		<path style="fill:#FFFFFF;" d="M277.21,246.81h-91.53c-1.78,0-3.09-1.44-2.94-3.22l4.21-48.16c0.16-1.78,1.72-3.22,3.5-3.22h91.53
			c1.78,0,3.09,1.44,2.94,3.22l-4.21,48.16C280.55,245.37,278.99,246.81,277.21,246.81z"/>
		<g>
			<g>
				<path style="fill:#FFFFFF;" d="M210.86,256.87h-28.5c-0.43,0-0.76-0.35-0.72-0.79l0,0c0.04-0.43,0.42-0.79,0.85-0.79H211
					c0.43,0,0.76,0.35,0.72,0.79l0,0C211.68,256.52,211.29,256.87,210.86,256.87z"/>
			</g>
			<g>
				<path style="fill:#FFFFFF;" d="M246.48,256.87h-30.59c-0.43,0-0.76-0.35-0.72-0.79l0,0c0.04-0.43,0.42-0.79,0.85-0.79h30.59
					c0.43,0,0.76,0.35,0.72,0.79l0,0C247.29,256.52,246.91,256.87,246.48,256.87z"/>
			</g>
			<g>
				<path style="fill:#FFFFFF;" d="M201.03,263.82h-19.28c-0.43,0-0.76-0.35-0.72-0.79l0,0c0.04-0.43,0.42-0.79,0.85-0.79h19.28
					c0.43,0,0.76,0.35,0.72,0.79l0,0C201.85,263.46,201.47,263.82,201.03,263.82z"/>
			</g>
			<g>
				<path style="fill:#FFFFFF;" d="M237.64,263.82h-31.58c-0.43,0-0.76-0.35-0.72-0.79l0,0c0.04-0.43,0.42-0.79,0.85-0.79h31.58
					c0.43,0,0.76,0.35,0.72,0.79l0,0C238.45,263.46,238.07,263.82,237.64,263.82z"/>
			</g>
			<g>
				<path style="fill:#FFFFFF;" d="M232.54,270.76h-51.39c-0.43,0-0.76-0.35-0.72-0.79l0,0c0.04-0.43,0.42-0.79,0.85-0.79h51.39
					c0.43,0,0.76,0.35,0.72,0.79l0,0C233.36,270.41,232.97,270.76,232.54,270.76z"/>
			</g>
			<g>
				<path style="fill:#FFFFFF;" d="M240.96,270.76h-3.39c-0.43,0-0.76-0.35-0.72-0.79l0,0c0.04-0.43,0.42-0.79,0.85-0.79h3.39
					c0.43,0,0.76,0.35,0.72,0.79l0,0C241.78,270.41,241.39,270.76,240.96,270.76z"/>
			</g>
			<g>
				<path style="fill:#FFFFFF;" d="M204.53,277.71h-23.99c-0.43,0-0.76-0.35-0.72-0.79l0,0c0.04-0.43,0.42-0.79,0.85-0.79h23.99
					c0.43,0,0.76,0.35,0.72,0.79l0,0C205.35,277.35,204.97,277.71,204.53,277.71z"/>
			</g>
			<g>
				<path style="fill:#FFFFFF;" d="M239.43,277.71h-29.87c-0.43,0-0.76-0.35-0.72-0.79l0,0c0.04-0.43,0.42-0.79,0.86-0.79h29.87
					c0.43,0,0.76,0.35,0.72,0.79l0,0C240.25,277.35,239.87,277.71,239.43,277.71z"/>
			</g>
			<g>
				<path style="fill:#FFFFFF;" d="M209.48,284.65h-29.54c-0.43,0-0.76-0.35-0.72-0.79l0,0c0.04-0.43,0.42-0.79,0.85-0.79h29.54
					c0.43,0,0.76,0.35,0.72,0.79l0,0C210.29,284.3,209.91,284.65,209.48,284.65z"/>
			</g>
			<g>
				<path style="fill:#FFFFFF;" d="M238.3,284.65h-23.8c-0.43,0-0.76-0.35-0.72-0.79l0,0c0.04-0.43,0.42-0.79,0.86-0.79h23.8
					c0.43,0,0.76,0.35,0.72,0.79l0,0C239.12,284.3,238.74,284.65,238.3,284.65z"/>
			</g>
		</g>
		<g>
			<g>
				<path style="fill:#407BFF;" d="M282.14,173.21c-0.4,0.41-1.04,0.45-1.42,0.09l-40.93-39.06c-0.38-0.37-0.37-1,0.03-1.41l0,0
					c0.4-0.41,1.04-0.45,1.42-0.09l40.93,39.06C282.55,172.16,282.54,172.8,282.14,173.21L282.14,173.21z"/>
			</g>
			<g>
				<path style="fill:#407BFF;" d="M236.17,173.2L236.17,173.2c-0.33-0.41-0.23-1.05,0.21-1.41l20.88-17.07
					c0.45-0.37,1.07-0.32,1.4,0.09l0,0c0.33,0.41,0.23,1.05-0.21,1.41l-20.88,17.07C237.13,173.65,236.5,173.61,236.17,173.2z"/>
			</g>
			<g>
				<path style="fill:#407BFF;" d="M263.15,151.13L263.15,151.13c-0.33-0.41-0.23-1.05,0.21-1.41l20.92-17.1
					c0.45-0.37,1.07-0.33,1.4,0.09l0,0c0.33,0.41,0.23,1.05-0.21,1.41l-20.92,17.1C264.11,151.59,263.48,151.55,263.15,151.13z"/>
			</g>
			<g style="opacity:0.7;">
				<path style="fill:#FFFFFF;" d="M282.14,173.21c-0.4,0.41-1.04,0.45-1.42,0.09l-40.93-39.06c-0.38-0.37-0.37-1,0.03-1.41l0,0
					c0.4-0.41,1.04-0.45,1.42-0.09l40.93,39.06C282.55,172.16,282.54,172.8,282.14,173.21L282.14,173.21z"/>
			</g>
			<g style="opacity:0.7;">
				<path style="fill:#FFFFFF;" d="M236.17,173.2L236.17,173.2c-0.33-0.41-0.23-1.05,0.21-1.41l20.88-17.07
					c0.45-0.37,1.07-0.32,1.4,0.09l0,0c0.33,0.41,0.23,1.05-0.21,1.41l-20.88,17.07C237.13,173.65,236.5,173.61,236.17,173.2z"/>
			</g>
			<g style="opacity:0.7;">
				<path style="fill:#FFFFFF;" d="M263.15,151.13L263.15,151.13c-0.33-0.41-0.23-1.05,0.21-1.41l20.92-17.1
					c0.45-0.37,1.07-0.33,1.4,0.09l0,0c0.33,0.41,0.23,1.05-0.21,1.41l-20.92,17.1C264.11,151.59,263.48,151.55,263.15,151.13z"/>
			</g>
		</g>
	</g>
</g>
<g id="Icons">
	<g>
		<path style="fill:#407BFF;" d="M165.74,70.97h-12.95c-2.63,0-4.76,2.13-4.76,4.76v12.95c0,2.63,2.13,4.76,4.76,4.76h12.95
			c2.63,0,4.76-2.13,4.76-4.76V75.73C170.5,73.1,168.37,70.97,165.74,70.97z M159.27,75.57c1.95,0,3.01,1.58,3.01,3.54
			c0,1.95-1.05,3.54-3.01,3.54c-1.95,0-3.01-1.58-3.01-3.54C156.26,77.16,157.31,75.57,159.27,75.57z M167.08,88.84h-15.64
			c-0.13,0-0.25-0.05-0.33-0.14l1-2.74c0.64-1.76,2.32-2.93,4.2-2.93h5.9c1.88,0,3.55,1.17,4.2,2.93l1,2.74
			C167.33,88.79,167.22,88.84,167.08,88.84z"/>
		<path style="opacity:0.7;fill:#FFFFFF;" d="M165.74,70.97h-12.95c-2.63,0-4.76,2.13-4.76,4.76v12.95c0,2.63,2.13,4.76,4.76,4.76
			h12.95c2.63,0,4.76-2.13,4.76-4.76V75.73C170.5,73.1,168.37,70.97,165.74,70.97z M159.27,75.57c1.95,0,3.01,1.58,3.01,3.54
			c0,1.95-1.05,3.54-3.01,3.54c-1.95,0-3.01-1.58-3.01-3.54C156.26,77.16,157.31,75.57,159.27,75.57z M167.08,88.84h-15.64
			c-0.13,0-0.25-0.05-0.33-0.14l1-2.74c0.64-1.76,2.32-2.93,4.2-2.93h5.9c1.88,0,3.55,1.17,4.2,2.93l1,2.74
			C167.33,88.79,167.22,88.84,167.08,88.84z"/>
	</g>
	<g>
		<g>
			<path style="fill:#407BFF;" d="M119.66,124.25h-9.84c-3.54,0-6.41,2.87-6.41,6.41v9.84c0,3.54,2.87,6.41,6.41,6.41h9.84
				c3.54,0,6.41-2.87,6.41-6.41v-9.84C126.06,127.11,123.2,124.25,119.66,124.25z M114.74,140.94c0,0-4.04-4.4-4.04-6.63
				c0-2.23,1.81-4.04,4.04-4.04c2.23,0,4.04,1.81,4.04,4.04C118.78,136.55,114.74,140.94,114.74,140.94z"/>
			<path style="fill:#407BFF;" d="M114.74,132.47c-1.02,0-1.84,0.83-1.84,1.85c0,1.02,0.83,1.84,1.84,1.84
				c1.02,0,1.85-0.83,1.85-1.84C116.58,133.29,115.76,132.47,114.74,132.47z"/>
		</g>
		<g style="opacity:0.7;">
			<path style="fill:#FFFFFF;" d="M119.66,124.25h-9.84c-3.54,0-6.41,2.87-6.41,6.41v9.84c0,3.54,2.87,6.41,6.41,6.41h9.84
				c3.54,0,6.41-2.87,6.41-6.41v-9.84C126.06,127.11,123.2,124.25,119.66,124.25z M114.74,140.94c0,0-4.04-4.4-4.04-6.63
				c0-2.23,1.81-4.04,4.04-4.04c2.23,0,4.04,1.81,4.04,4.04C118.78,136.55,114.74,140.94,114.74,140.94z"/>
			<path style="fill:#FFFFFF;" d="M114.74,132.47c-1.02,0-1.84,0.83-1.84,1.85c0,1.02,0.83,1.84,1.84,1.84
				c1.02,0,1.85-0.83,1.85-1.84C116.58,133.29,115.76,132.47,114.74,132.47z"/>
		</g>
	</g>
	<g>
		<g>
			<polygon style="fill:#407BFF;" points="335.7,96.36 342.29,92.1 335.7,87.83 			"/>
			<path style="fill:#407BFF;" d="M344.19,80.47h-12.56c-2.96,0-5.35,2.4-5.35,5.35v12.56c0,2.96,2.4,5.35,5.35,5.35h12.56
				c2.96,0,5.35-2.4,5.35-5.35V85.82C349.54,82.86,347.15,80.47,344.19,80.47z M337.91,100.46c-4.62,0-8.36-3.75-8.36-8.36
				c0-4.62,3.74-8.36,8.36-8.36c4.62,0,8.36,3.75,8.36,8.36C346.28,96.72,342.53,100.46,337.91,100.46z"/>
		</g>
		<g style="opacity:0.7;">
			<polygon style="fill:#FFFFFF;" points="335.7,96.36 342.29,92.1 335.7,87.83 			"/>
			<path style="fill:#FFFFFF;" d="M344.19,80.47h-12.56c-2.96,0-5.35,2.4-5.35,5.35v12.56c0,2.96,2.4,5.35,5.35,5.35h12.56
				c2.96,0,5.35-2.4,5.35-5.35V85.82C349.54,82.86,347.15,80.47,344.19,80.47z M337.91,100.46c-4.62,0-8.36-3.75-8.36-8.36
				c0-4.62,3.74-8.36,8.36-8.36c4.62,0,8.36,3.75,8.36,8.36C346.28,96.72,342.53,100.46,337.91,100.46z"/>
		</g>
	</g>
</g>
<g id="Gears">
	<g>
		<path style="fill:#407BFF;" d="M356.52,128.64c0-0.26-0.01-0.52-0.04-0.77l1.51-0.84c-0.11-0.73-0.3-1.43-0.56-2.09l-1.72,0.03
			c-0.22-0.47-0.48-0.91-0.77-1.33l0.89-1.48c-0.46-0.56-0.97-1.08-1.53-1.53l-1.48,0.89c-0.42-0.29-0.86-0.55-1.33-0.77l0.03-1.72
			c-0.67-0.26-1.37-0.45-2.09-0.56l-0.84,1.51c-0.25-0.02-0.51-0.04-0.77-0.04c-0.26,0-0.52,0.01-0.77,0.04l-0.84-1.51
			c-0.73,0.11-1.43,0.3-2.09,0.56l0.03,1.72c-0.47,0.22-0.91,0.48-1.33,0.77l-1.48-0.89c-0.56,0.46-1.08,0.97-1.53,1.53l0.89,1.48
			c-0.29,0.42-0.55,0.86-0.77,1.33l-1.72-0.03c-0.26,0.67-0.45,1.37-0.56,2.09l1.51,0.84c-0.02,0.25-0.04,0.51-0.04,0.77
			c0,0.26,0.01,0.52,0.04,0.77l-1.51,0.84c0.11,0.73,0.3,1.43,0.56,2.09l1.72-0.03c0.22,0.47,0.48,0.91,0.77,1.33l-0.89,1.48
			c0.46,0.56,0.97,1.08,1.53,1.53l1.48-0.89c0.42,0.29,0.86,0.55,1.33,0.77l-0.03,1.72c0.67,0.26,1.37,0.45,2.09,0.56l0.84-1.51
			c0.25,0.02,0.51,0.04,0.77,0.04c0.26,0,0.52-0.01,0.77-0.04l0.84,1.51c0.73-0.11,1.43-0.3,2.09-0.56l-0.03-1.72
			c0.47-0.22,0.91-0.48,1.33-0.77l1.48,0.89c0.56-0.46,1.08-0.97,1.53-1.53l-0.89-1.48c0.29-0.42,0.55-0.86,0.77-1.33l1.72,0.03
			c0.26-0.67,0.45-1.37,0.56-2.09l-1.51-0.84C356.5,129.16,356.52,128.9,356.52,128.64z M347.8,134.56c-3.27,0-5.92-2.65-5.92-5.92
			c0-3.27,2.65-5.92,5.92-5.92c3.27,0,5.92,2.65,5.92,5.92C353.72,131.91,351.07,134.56,347.8,134.56z"/>
		<path style="opacity:0.7;fill:#FFFFFF;" d="M356.52,128.64c0-0.26-0.01-0.52-0.04-0.77l1.51-0.84c-0.11-0.73-0.3-1.43-0.56-2.09
			l-1.72,0.03c-0.22-0.47-0.48-0.91-0.77-1.33l0.89-1.48c-0.46-0.56-0.97-1.08-1.53-1.53l-1.48,0.89c-0.42-0.29-0.86-0.55-1.33-0.77
			l0.03-1.72c-0.67-0.26-1.37-0.45-2.09-0.56l-0.84,1.51c-0.25-0.02-0.51-0.04-0.77-0.04c-0.26,0-0.52,0.01-0.77,0.04l-0.84-1.51
			c-0.73,0.11-1.43,0.3-2.09,0.56l0.03,1.72c-0.47,0.22-0.91,0.48-1.33,0.77l-1.48-0.89c-0.56,0.46-1.08,0.97-1.53,1.53l0.89,1.48
			c-0.29,0.42-0.55,0.86-0.77,1.33l-1.72-0.03c-0.26,0.67-0.45,1.37-0.56,2.09l1.51,0.84c-0.02,0.25-0.04,0.51-0.04,0.77
			c0,0.26,0.01,0.52,0.04,0.77l-1.51,0.84c0.11,0.73,0.3,1.43,0.56,2.09l1.72-0.03c0.22,0.47,0.48,0.91,0.77,1.33l-0.89,1.48
			c0.46,0.56,0.97,1.08,1.53,1.53l1.48-0.89c0.42,0.29,0.86,0.55,1.33,0.77l-0.03,1.72c0.67,0.26,1.37,0.45,2.09,0.56l0.84-1.51
			c0.25,0.02,0.51,0.04,0.77,0.04c0.26,0,0.52-0.01,0.77-0.04l0.84,1.51c0.73-0.11,1.43-0.3,2.09-0.56l-0.03-1.72
			c0.47-0.22,0.91-0.48,1.33-0.77l1.48,0.89c0.56-0.46,1.08-0.97,1.53-1.53l-0.89-1.48c0.29-0.42,0.55-0.86,0.77-1.33l1.72,0.03
			c0.26-0.67,0.45-1.37,0.56-2.09l-1.51-0.84C356.5,129.16,356.52,128.9,356.52,128.64z M347.8,134.56c-3.27,0-5.92-2.65-5.92-5.92
			c0-3.27,2.65-5.92,5.92-5.92c3.27,0,5.92,2.65,5.92,5.92C353.72,131.91,351.07,134.56,347.8,134.56z"/>
	</g>
	<g>
		<path style="fill:#407BFF;" d="M333.73,158.37c0-0.39-0.02-0.77-0.05-1.15l2.26-1.25c-0.17-1.09-0.46-2.13-0.84-3.13l-2.58,0.04
			c-0.33-0.7-0.71-1.37-1.15-1.99l1.33-2.21c-0.68-0.84-1.45-1.61-2.29-2.29l-2.21,1.33c-0.63-0.44-1.29-0.83-1.99-1.15l0.04-2.58
			c-1-0.38-2.05-0.67-3.13-0.84l-1.25,2.26c-0.38-0.03-0.76-0.05-1.15-0.05s-0.77,0.02-1.15,0.05l-1.25-2.26
			c-1.09,0.17-2.13,0.46-3.13,0.84l0.04,2.58c-0.7,0.33-1.37,0.71-1.99,1.15l-2.21-1.33c-0.84,0.68-1.61,1.45-2.29,2.29l1.33,2.21
			c-0.44,0.63-0.83,1.29-1.15,1.99l-2.58-0.04c-0.38,1-0.67,2.04-0.84,3.13l2.26,1.25c-0.03,0.38-0.05,0.76-0.05,1.15
			c0,0.39,0.02,0.77,0.05,1.15l-2.26,1.25c0.17,1.09,0.46,2.13,0.84,3.13l2.58-0.04c0.33,0.7,0.71,1.37,1.15,1.99l-1.33,2.21
			c0.68,0.84,1.45,1.61,2.29,2.29l2.21-1.33c0.63,0.44,1.29,0.83,1.99,1.15l-0.04,2.58c1,0.38,2.04,0.67,3.13,0.84l1.25-2.26
			c0.38,0.03,0.76,0.05,1.15,0.05s0.77-0.02,1.15-0.05l1.25,2.26c1.09-0.17,2.13-0.46,3.13-0.84l-0.04-2.58
			c0.7-0.33,1.37-0.71,1.99-1.15l2.21,1.33c0.84-0.68,1.61-1.45,2.29-2.29l-1.33-2.21c0.44-0.63,0.83-1.29,1.15-1.99l2.58,0.04
			c0.38-1,0.67-2.04,0.84-3.13l-2.26-1.25C333.71,159.14,333.73,158.76,333.73,158.37z M320.7,163.51c-2.84,0-5.14-2.3-5.14-5.14
			c0-2.84,2.3-5.14,5.14-5.14s5.14,2.3,5.14,5.14C325.84,161.21,323.54,163.51,320.7,163.51z"/>
		<path style="opacity:0.7;fill:#FFFFFF;" d="M333.73,158.37c0-0.39-0.02-0.77-0.05-1.15l2.26-1.25c-0.17-1.09-0.46-2.13-0.84-3.13
			l-2.58,0.04c-0.33-0.7-0.71-1.37-1.15-1.99l1.33-2.21c-0.68-0.84-1.45-1.61-2.29-2.29l-2.21,1.33c-0.63-0.44-1.29-0.83-1.99-1.15
			l0.04-2.58c-1-0.38-2.05-0.67-3.13-0.84l-1.25,2.26c-0.38-0.03-0.76-0.05-1.15-0.05s-0.77,0.02-1.15,0.05l-1.25-2.26
			c-1.09,0.17-2.13,0.46-3.13,0.84l0.04,2.58c-0.7,0.33-1.37,0.71-1.99,1.15l-2.21-1.33c-0.84,0.68-1.61,1.45-2.29,2.29l1.33,2.21
			c-0.44,0.63-0.83,1.29-1.15,1.99l-2.58-0.04c-0.38,1-0.67,2.04-0.84,3.13l2.26,1.25c-0.03,0.38-0.05,0.76-0.05,1.15
			c0,0.39,0.02,0.77,0.05,1.15l-2.26,1.25c0.17,1.09,0.46,2.13,0.84,3.13l2.58-0.04c0.33,0.7,0.71,1.37,1.15,1.99l-1.33,2.21
			c0.68,0.84,1.45,1.61,2.29,2.29l2.21-1.33c0.63,0.44,1.29,0.83,1.99,1.15l-0.04,2.58c1,0.38,2.04,0.67,3.13,0.84l1.25-2.26
			c0.38,0.03,0.76,0.05,1.15,0.05s0.77-0.02,1.15-0.05l1.25,2.26c1.09-0.17,2.13-0.46,3.13-0.84l-0.04-2.58
			c0.7-0.33,1.37-0.71,1.99-1.15l2.21,1.33c0.84-0.68,1.61-1.45,2.29-2.29l-1.33-2.21c0.44-0.63,0.83-1.29,1.15-1.99l2.58,0.04
			c0.38-1,0.67-2.04,0.84-3.13l-2.26-1.25C333.71,159.14,333.73,158.76,333.73,158.37z M320.7,163.51c-2.84,0-5.14-2.3-5.14-5.14
			c0-2.84,2.3-5.14,5.14-5.14s5.14,2.3,5.14,5.14C325.84,161.21,323.54,163.51,320.7,163.51z"/>
	</g>
</g>
<g id="Speech_bubbles">
	<g>
		<path style="fill:#407BFF;" d="M296.97,100.39v5.24l-4.99,2.63c-0.86,0.46-0.86,1.69,0,2.15l4.99,2.63v5.24
			c0,1.17,0.95,2.12,2.12,2.12h17.89c1.17,0,2.12-0.95,2.12-2.12v-17.89c0-1.17-0.95-2.12-2.12-2.12h-17.89
			C297.91,98.27,296.97,99.22,296.97,100.39z"/>
		<g style="opacity:0.9;">
			<path style="fill:#FFFFFF;" d="M303.12,105.85c0.41,0,9.75,0,10.16,0c0.69,0,1.25-0.56,1.25-1.25c0-0.69-0.56-1.25-1.25-1.25
				c-0.51,0-9.66,0-10.16,0c-0.69,0-1.25,0.56-1.25,1.25C301.88,105.29,302.43,105.85,303.12,105.85z"/>
			<path style="fill:#FFFFFF;" d="M313.29,108.08c-0.46,0-9.7,0-10.16,0c-0.69,0-1.25,0.56-1.25,1.25c0,0.69,0.56,1.25,1.25,1.25
				c0.46,0,9.7,0,10.16,0c0.69,0,1.25-0.56,1.25-1.25C314.54,108.64,313.98,108.08,313.29,108.08z"/>
			<path style="fill:#FFFFFF;" d="M313.29,112.82c-0.53,0-9.63,0-10.16,0c-0.69,0-1.25,0.56-1.25,1.25c0,0.69,0.56,1.25,1.25,1.25
				c0.38,0,9.78,0,10.16,0c0.69,0,1.25-0.56,1.25-1.25C314.54,113.38,313.98,112.82,313.29,112.82z"/>
		</g>
	</g>
	<g>
		<path style="fill:#407BFF;" d="M195.9,92.17h4.27l2.2,4.17c0.64,1.21,2.37,1.21,3,0l2.2-4.17h4.27c1.7,0,3.08-1.38,3.08-3.08
			V73.13c0-1.7-1.38-3.08-3.08-3.08H195.9c-1.7,0-3.08,1.38-3.08,3.08v15.95C192.82,90.79,194.19,92.17,195.9,92.17z"/>
		<polygon style="opacity:0.9;fill:#FFFFFF;" points="203.88,74.82 198.96,77.7 198.96,86.12 202.62,86.12 202.62,80.47 
			205.15,80.47 205.15,86.12 208.81,86.12 208.81,77.7 		"/>
	</g>
	<g>
		<path style="fill:#407BFF;" d="M243.8,320.92h-3.85l-2.46-4.66c-0.53-1-1.97-1-2.5,0l-2.46,4.66h-3.85
			c-1.94,0-3.51,1.57-3.51,3.51v15.1c0,1.94,1.57,3.51,3.51,3.51h15.1c1.94,0,3.51-1.57,3.51-3.51v-15.1
			C247.31,322.49,245.74,320.92,243.8,320.92z"/>
		<path style="opacity:0.9;fill:#FFFFFF;" d="M238.39,326.68c-2.13-2.13-5.6-2.13-7.72,0c-2.13,2.13-2.13,5.59,0,7.72
			c1.89,1.89,4.83,2.1,6.95,0.64c0.04,0.24,0.15,0.48,0.34,0.67l3.39,3.39c0.48,0.48,1.25,0.48,1.73,0c0.48-0.48,0.48-1.25,0-1.73
			l-3.39-3.39c-0.19-0.19-0.42-0.3-0.67-0.34C240.48,331.51,240.27,328.57,238.39,326.68z M237.23,333.25
			c-1.49,1.49-3.92,1.49-5.41,0c-1.49-1.49-1.49-3.92,0-5.42c1.49-1.49,3.92-1.49,5.42,0C238.72,329.33,238.72,331.76,237.23,333.25
			z"/>
	</g>
</g>
<g id="Character_2_1_">
	<path style="fill:#EEC1BB;" d="M405.29,220.36c0,0-8.15,20.2-16.13,22.39c-7.98,2.19-20.01,0.41-20.01,0.41l-3.72,1.02l-3.65-0.54
		c-0.04-0.01-0.08-0.01-0.13-0.01l-4.12-0.09c-0.7-0.02-1.09-0.7-0.7-1.24l1.48-2.04c0.12-0.16,0.29-0.28,0.49-0.35l3.92-1.26
		c0.15-0.05,0.32-0.06,0.48-0.04l5.99,0.95c0,0,16.65-2.73,18.35-4.27c1.69-1.54,6.71-17.69,6.71-17.69L405.29,220.36z"/>
	<path style="opacity:0.1;" d="M369.57,239.49c-0.25,0.04-0.38,0.06-0.38,0.06l-5.99-0.95c-0.16-0.03-0.32-0.01-0.48,0.04
		l-3.92,1.26c-0.2,0.06-0.37,0.19-0.49,0.35l-1.48,2.04c-0.39,0.54,0,1.22,0.7,1.24l4.12,0.09c0.04,0,0.08,0,0.13,0.01l2.45,0.36
		C366.05,243.2,367.86,241.55,369.57,239.49z"/>
	<path style="fill:#407BFF;" d="M410.21,200.35c-5.92-1.94-14.25,2.51-17.44,21.15l12.29,3.59
		C405.06,225.09,418.67,203.13,410.21,200.35z"/>
	<g>
		<path style="fill:#263238;" d="M375.77,175.99c0.01,0.61,0.33,1.11,0.73,1.1c0.4,0,0.75-0.53,0.72-1.12
			c-0.02-0.59-0.33-1.11-0.73-1.1C376.09,174.89,375.77,175.38,375.77,175.99z"/>
		<path style="fill:#D4827D;" d="M378.19,176.6l-2.91,4.81c0,0,1.01,1.14,3.19,0.3L378.19,176.6z"/>
		<path style="fill:#263238;" d="M378.74,172.15c-0.07,0.08-0.18,0.12-0.29,0.11c-0.8-0.14-1.61,0.12-2.19,0.68
			c-0.12,0.13-0.32,0.15-0.45,0.03c-0.13-0.12-0.14-0.32-0.03-0.45c0.72-0.74,1.75-1.07,2.76-0.9c0.18,0.02,0.3,0.19,0.27,0.36l0,0
			C378.81,172.05,378.78,172.11,378.74,172.15z"/>
		<path style="fill:#EEC1BB;" d="M399.3,171.63c0.46,8.13,0.82,11.57-2.76,16.19c-5.73,4.95-15.5,5.74-18.37-2.09
			c-2.59-7.05-2.9-19.13,4.63-23.32c5.36-2.98,12.13-1.05,15.12,4.31C398.74,168.22,399.22,169.91,399.3,171.63z"/>
		<polygon style="fill:#EEC1BB;" points="387.97,189.42 390.03,201.47 400.07,199.15 396.56,186.85 		"/>
		<path style="fill:#263238;" d="M380.74,172.23c0.51-5.28-1.3,0.82-3.75-6.15c-2.45-6.97,9.09-12.63,10.94-11.33
			c1.84,1.3,0.79,3.3,6.89,4.42c6.1,1.12,5.84,7.05,5.84,7.05s3.51,1.63,2.26,9.17c-1.25,7.54-6.01,13.24-6.01,13.24
			s-2.31-2.38-5.96-0.18c0,0-1.8-1.01-3.57-3.65c-1.65-2.46-2.15-4.79-4.41-5C378.24,179.37,380.57,173.97,380.74,172.23z"/>
		<path style="fill:#263238;" d="M399.99,167.14c0,0,4.98-3.06,2.78-6.27C400.57,157.66,401.63,164.4,399.99,167.14z"/>
		<path style="fill:#FFC3BD;" d="M382.17,175.3c-1.11,1.24-1.68,2.87-1.59,4.53c0.14,2.2,2.3,2.59,4,1.39
			c1.54-1.09,3.31-3.54,2.33-5.47C385.93,173.81,383.55,173.8,382.17,175.3z"/>
		<path style="opacity:0.1;" d="M388.16,190.56l0.82,4.78c-0.05-4.37,2.26-6.53,2.26-6.53
			C388.89,189.16,388.16,190.56,388.16,190.56z"/>
	</g>
	<g>
		<rect x="314.7" y="221.64" style="fill:#407BFF;" width="2.87" height="16.93"/>
		<rect x="314.7" y="221.64" style="opacity:0.7;fill:#FFFFFF;" width="2.87" height="16.93"/>
	</g>
	<g>
		<path style="fill:#407BFF;" d="M297.85,188.02h-7.15c-2.68,0-4.85,2.17-4.85,4.85v33.12c0,2.68,2.17,4.85,4.85,4.85h7.15V188.02z"
			/>
		<g>
			<path style="fill:#407BFF;" d="M341.57,230.84H293.2c-2.68,0-4.85-2.17-4.85-4.85v-33.12c0-2.68,2.17-4.85,4.85-4.85h48.37
				c2.68,0,4.85,2.17,4.85,4.85v33.12C346.42,228.67,344.25,230.84,341.57,230.84z"/>
			<path style="opacity:0.5;fill:#FFFFFF;" d="M341.57,230.84H293.2c-2.68,0-4.85-2.17-4.85-4.85v-33.12c0-2.68,2.17-4.85,4.85-4.85
				h48.37c2.68,0,4.85,2.17,4.85,4.85v33.12C346.42,228.67,344.25,230.84,341.57,230.84z"/>
		</g>
		<path style="fill:#263238;" d="M293.2,190.02c-1.57,0-2.85,1.28-2.85,2.85v33.12c0,1.57,1.28,2.85,2.85,2.85h48.37
			c1.57,0,2.85-1.28,2.85-2.85v-33.12c0-1.57-1.28-2.85-2.85-2.85H293.2z"/>
	</g>
	<path style="fill:#407BFF;" d="M305.69,245.67c0-5.77,4.68-10.44,10.44-10.44c5.77,0,10.44,4.68,10.44,10.44H305.69z"/>
	<g>
		<polygon style="fill:#407BFF;" points="330.34,242.11 309.46,242.11 309.46,245.5 351.23,245.5 351.23,244.11 		"/>
		<polygon style="opacity:0.8;fill:#FFFFFF;" points="330.34,242.11 309.46,242.11 309.46,245.5 351.23,245.5 351.23,244.11 		"/>
		<polygon style="fill:#407BFF;" points="330.34,245.5 309.46,245.5 309.46,242.11 330.34,244.11 		"/>
		<polygon style="opacity:0.6;fill:#FFFFFF;" points="330.34,245.5 309.46,245.5 309.46,242.11 330.34,244.11 		"/>
	</g>
	<g>
		<g>
			<path style="fill:#263238;" d="M376.4,362.21h-43.1c-3.62,0-6.55-2.93-6.55-6.55v-99.07c0-3.62,2.93-6.55,6.55-6.55h43.1
				c0.97,0,1.75,0.78,1.75,1.75l0,0c0,0.97-0.78,1.75-1.75,1.75h-43.1c-1.68,0-3.05,1.36-3.05,3.05v99.07
				c0,1.68,1.36,3.05,3.05,3.05h43.1c0.97,0,1.75,0.78,1.75,1.75l0,0C378.15,361.43,377.37,362.21,376.4,362.21z"/>
		</g>
		<g style="opacity:0.5;">
			<path style="fill:#FFFFFF;" d="M376.4,362.21h-43.1c-3.62,0-6.55-2.93-6.55-6.55v-99.07c0-3.62,2.93-6.55,6.55-6.55h43.1
				c0.97,0,1.75,0.78,1.75,1.75l0,0c0,0.97-0.78,1.75-1.75,1.75h-43.1c-1.68,0-3.05,1.36-3.05,3.05v99.07
				c0,1.68,1.36,3.05,3.05,3.05h43.1c0.97,0,1.75,0.78,1.75,1.75l0,0C378.15,361.43,377.37,362.21,376.4,362.21z"/>
		</g>
	</g>
	<g>
		<rect x="271.95" y="245.5" style="fill:#407BFF;" width="61.19" height="5.13"/>
		<rect x="271.95" y="245.5" style="opacity:0.2;fill:#FFFFFF;" width="61.19" height="5.13"/>
		<rect x="330.34" y="245.5" style="fill:#407BFF;" width="52.19" height="5.13"/>
		<rect x="330.34" y="245.5" style="opacity:0.5;fill:#FFFFFF;" width="52.19" height="5.13"/>
	</g>
	<g>
		<g>
			<polygon style="fill:#EEC1BB;" points="364.23,325.86 367.12,355.08 360.2,355.08 353.27,326.62 			"/>
			<g>
				<path style="fill:#263238;" d="M359.55,353.17l8.83,0.15c0.33,0.01,0.62,0.24,0.68,0.57l1.47,7.21c0.14,0.64-0.27,1.27-0.91,1.4
					c-0.08,0.02-0.17,0.03-0.25,0.03c-3.18-0.11-6.01-0.33-9.97-0.39c-4.68-0.08-3.5,0.5-9,0.49c-3.31-0.01-3.86-3.79-2.45-3.95
					c6.44-0.7,7.14-2.63,9.66-4.89C358.17,353.35,358.85,353.13,359.55,353.17z"/>
			</g>
			<polygon style="opacity:0.1;" points="366.37,347.45 364.23,325.86 353.27,326.62 358.34,347.45 			"/>
		</g>
		<path style="fill:#263238;" d="M411.61,258.49l-28.39,1.02c0,0-38.19,13.35-39.27,23.66c-1.1,10.58,11.74,59.18,11.74,59.18h11.41
			c0,0-3.15-35.67-4.35-46.59c-1.21-10.92,39.79-7.3,46.91-16.62C416.22,270.57,411.61,258.49,411.61,258.49z"/>
		<path style="opacity:0.2;" d="M411.61,258.49l-28.39,1.02c0,0-38.19,13.35-39.27,23.66c-1.1,10.58,11.74,59.18,11.74,59.18h11.41
			c0,0-3.15-35.67-4.35-46.59c-1.21-10.92,39.79-7.3,46.91-16.62C416.22,270.57,411.61,258.49,411.61,258.49z"/>
		<polygon style="fill:#407BFF;" points="369.05,340.72 369.3,344.75 355.2,344.75 353.82,340.72 		"/>
	</g>
	<g>
		<g>
			<polygon style="fill:#EEC1BB;" points="337.82,327.25 338.58,355.08 331.78,355.08 327.75,327.25 			"/>
			<g>
				<path style="fill:#263238;" d="M330.84,353.17l8.83,0.15c0.33,0.01,0.62,0.24,0.68,0.57l1.47,7.21c0.14,0.64-0.27,1.27-0.91,1.4
					c-0.08,0.02-0.17,0.03-0.25,0.03c-3.18-0.11-6.01-0.33-9.97-0.39c-4.68-0.08-3.5,0.5-9,0.49c-3.31-0.01-3.86-3.79-2.45-3.95
					c6.44-0.7,7.14-2.63,9.66-4.89C329.45,353.35,330.14,353.13,330.84,353.17z"/>
			</g>
			<path style="opacity:0.1;" d="M338.37,347.43l-0.55-20.18h-10.07l2.93,20.2C332.87,347.46,335.88,347.44,338.37,347.43z"/>
		</g>
		<path style="fill:#263238;" d="M399.27,260.84c0,0,2.36,21.57-19.6,22.58c-21.96,1.01-39.08,3.53-39.58,11.33
			c-0.5,7.81,0,47.6,0,47.6h-11.93c0,0-4.64-25.15-6.45-40.76c-1.76-15.15-4.97-26.14,10.58-31.27c16.53-5.46,45.91-10.5,45.91-10.5
			l21.16-1.34L399.27,260.84z"/>
		<polygon style="fill:#407BFF;" points="341.85,340.72 341.1,344.75 328,344.75 326.62,340.72 		"/>
	</g>
	<g>
		<path style="fill:#407BFF;" d="M404.04,198.93c0,0,0-4.87-9.83-4.31c-10.43,0.6-8.47,5.26-8.47,5.26L404.04,198.93z"/>
		<path style="opacity:0.3;" d="M404.04,198.93c0,0,0-4.87-9.83-4.31c-10.43,0.6-8.47,5.26-8.47,5.26L404.04,198.93z"/>
	</g>
	<path style="fill:#407BFF;" d="M413.16,220.73c-0.66,9.61-0.43,38.52-0.43,38.52s-20.97,1.38-37.48,0.84l-1.91-55.61
		c0-1.98,1.23-3.78,3.14-4.53c4.66-1.81,15.6-3.86,32.71-1.62C415.09,199.11,413.94,209.37,413.16,220.73z"/>
	<path style="fill:#EEC1BB;" d="M376.71,220.36c0,0-8.15,20.2-16.13,22.39c-7.98,2.19-20.01,0.41-20.01,0.41l-3.72,1.02l-3.65-0.54
		c-0.04-0.01-0.08-0.01-0.13-0.01l-4.12-0.09c-0.7-0.02-1.09-0.7-0.7-1.24l1.48-2.04c0.12-0.16,0.29-0.28,0.49-0.35l3.92-1.26
		c0.15-0.05,0.32-0.06,0.48-0.04l5.99,0.95c0,0,16.65-2.73,18.35-4.27c1.69-1.54,6.71-17.69,6.71-17.69L376.71,220.36z"/>
	<path style="opacity:0.1;" d="M376.5,210.96c0,0-1.26,1.5-2.81,3.69l0.55,16.1c6.13-2.7,8.56-18.49,8.56-18.49l-3.98-2.82
		L376.5,210.96z"/>
	<path style="fill:#407BFF;" d="M381.63,200.35c-5.92-1.94-14.25,2.51-17.44,21.15l12.29,3.59
		C376.48,225.09,390.09,203.13,381.63,200.35z"/>
	<g>
		<g>
			<rect x="380.21" y="293.9" style="fill:#263238;" width="9.25" height="27.11"/>
			<rect x="380.21" y="293.9" style="opacity:0.6;fill:#FFFFFF;" width="9.25" height="27.11"/>
			<g>
				<polygon style="fill:#263238;" points="390.89,345.57 390.89,311.12 378.77,311.12 378.77,345.57 351.18,349.4 351.18,353.23 
					384.83,350.36 418.48,353.23 418.48,349.4 				"/>
			</g>
			<g>
				<circle style="fill:#407BFF;" cx="350.78" cy="358.97" r="3.65"/>
				<circle style="fill:#407BFF;" cx="418.48" cy="358.97" r="3.65"/>
			</g>
			<circle style="fill:#407BFF;" cx="384.83" cy="358.97" r="3.65"/>
			<rect x="380.21" y="293.9" style="opacity:0.3;" width="9.25" height="6.7"/>
		</g>
		<g>
			<path style="fill:#407BFF;" d="M421.4,232.45h-30.14c-4.91,0-9.01,3.74-9.47,8.62l-2.54,27.23c-0.58,6.2-5.63,11.04-11.85,11.36
				l-29.09,1.47c-3.54,0.18-6.31,3.1-6.31,6.64v0.61c0,3.04,2.47,5.51,5.51,5.51h39.35h7.97h41.27l4.77-51.05
				C431.39,237.27,427,232.45,421.4,232.45z"/>
			<path style="opacity:0.3;fill:#FFFFFF;" d="M421.4,232.45h-30.14c-4.91,0-9.01,3.74-9.47,8.62l-2.54,27.23
				c-0.58,6.2-5.63,11.04-11.85,11.36l-29.09,1.47c-3.54,0.18-6.31,3.1-6.31,6.64v0.61c0,3.04,2.47,5.51,5.51,5.51h39.35h7.97h41.27
				l4.77-51.05C431.39,237.27,427,232.45,421.4,232.45z"/>
			<path style="fill:#263238;" d="M354.36,286.88h-0.15c-1.1,0-2-0.89-2-2v-21.71h4.15v21.71
				C356.36,285.99,355.47,286.88,354.36,286.88z"/>
			<path style="opacity:0.2;fill:#FFFFFF;" d="M354.36,286.88h-0.15c-1.1,0-2-0.89-2-2v-21.71h4.15v21.71
				C356.36,285.99,355.47,286.88,354.36,286.88z"/>
			<g>
				<path style="fill:#407BFF;" d="M372.23,256.9h-9.25v7.66h9.25c2.11,0,3.83-1.71,3.83-3.83
					C376.06,258.61,374.35,256.9,372.23,256.9z"/>
				<path style="opacity:0.5;fill:#FFFFFF;" d="M372.23,256.9h-9.25v7.66h9.25c2.11,0,3.83-1.71,3.83-3.83
					C376.06,258.61,374.35,256.9,372.23,256.9z"/>
				<path style="fill:#407BFF;" d="M368.54,264.55h-32.34c-2.04,0-3.69-1.65-3.69-3.69v-0.28c0-2.04,1.65-3.69,3.69-3.69h32.34
					c2.04,0,3.69,1.65,3.69,3.69v0.28C372.23,262.9,370.58,264.55,368.54,264.55z"/>
				<path style="opacity:0.3;fill:#FFFFFF;" d="M368.54,264.55h-32.34c-2.04,0-3.69-1.65-3.69-3.69v-0.28
					c0-2.04,1.65-3.69,3.69-3.69h32.34c2.04,0,3.69,1.65,3.69,3.69v0.28C372.23,262.9,370.58,264.55,368.54,264.55z"/>
			</g>
			<path style="fill:#407BFF;" d="M428.18,293.9h-44.31l4.94-52.82c0.46-4.89,4.56-8.62,9.47-8.62h30.14c5.6,0,9.99,4.82,9.47,10.39
				l-4.31,46.14C433.31,291.77,430.98,293.9,428.18,293.9z"/>
			<path style="opacity:0.5;fill:#FFFFFF;" d="M428.18,293.9h-44.31l4.94-52.82c0.46-4.89,4.56-8.62,9.47-8.62h30.14
				c5.6,0,9.99,4.82,9.47,10.39l-4.31,46.14C433.31,291.77,430.98,293.9,428.18,293.9z"/>
		</g>
	</g>
	<g>
		<g>
			<path style="fill:#263238;" d="M324.67,362.21h-43.1c-3.62,0-6.55-2.93-6.55-6.55v-99.07c0-3.62,2.93-6.55,6.55-6.55h43.1
				c0.97,0,1.75,0.78,1.75,1.75l0,0c0,0.97-0.78,1.75-1.75,1.75h-43.1c-1.68,0-3.05,1.36-3.05,3.05v99.07
				c0,1.68,1.36,3.05,3.05,3.05h43.1c0.97,0,1.75,0.78,1.75,1.75l0,0C326.42,361.43,325.64,362.21,324.67,362.21z"/>
		</g>
		<g style="opacity:0.5;">
			<path style="fill:#FFFFFF;" d="M324.67,362.21h-43.1c-3.62,0-6.55-2.93-6.55-6.55v-99.07c0-3.62,2.93-6.55,6.55-6.55h43.1
				c0.97,0,1.75,0.78,1.75,1.75l0,0c0,0.97-0.78,1.75-1.75,1.75h-43.1c-1.68,0-3.05,1.36-3.05,3.05v99.07
				c0,1.68,1.36,3.05,3.05,3.05h43.1c0.97,0,1.75,0.78,1.75,1.75l0,0C326.42,361.43,325.64,362.21,324.67,362.21z"/>
		</g>
	</g>
	<g>
		<path style="fill:#FFFFFF;" d="M296.19,197.91l-3.03-2.01c-0.32-0.22-0.32-0.69,0-0.91l3.03-2.01c0.23-0.15,0.53-0.09,0.68,0.14
			l0,0c0.15,0.23,0.09,0.53-0.14,0.68l-2.48,1.65l2.48,1.65c0.23,0.15,0.29,0.46,0.14,0.68l0,0
			C296.73,198,296.42,198.06,296.19,197.91z"/>
	</g>
	<g>
		<path style="fill:#FFFFFF;" d="M302.83,197.78L302.83,197.78c-0.15-0.23-0.09-0.53,0.14-0.68l2.48-1.65l-2.48-1.65
			c-0.23-0.15-0.29-0.46-0.14-0.68l0,0c0.15-0.23,0.46-0.29,0.68-0.14l3.03,2.01c0.33,0.22,0.33,0.69,0,0.91l-3.03,2.01
			C303.28,198.06,302.98,198,302.83,197.78z"/>
	</g>
	<g>
		<path style="fill:#FFFFFF;" d="M298.72,199.09L298.72,199.09c-0.26-0.08-0.4-0.36-0.32-0.62l2.07-6.54
			c0.08-0.26,0.36-0.4,0.62-0.32l0,0c0.26,0.08,0.4,0.36,0.32,0.62l-2.07,6.54C299.26,199.03,298.98,199.17,298.72,199.09z"/>
	</g>
	<g>
		<g>
			<path style="fill:#FFFFFF;" d="M315.7,204.13h-22.27c-0.29,0-0.52-0.23-0.52-0.52l0,0c0-0.29,0.23-0.52,0.52-0.52h22.27
				c0.29,0,0.52,0.23,0.52,0.52l0,0C316.22,203.9,315.99,204.13,315.7,204.13z"/>
		</g>
		<g>
			<path style="fill:#FFFFFF;" d="M341.28,204.13h-22.27c-0.29,0-0.52-0.23-0.52-0.52l0,0c0-0.29,0.23-0.52,0.52-0.52h22.27
				c0.29,0,0.52,0.23,0.52,0.52l0,0C341.8,203.9,341.57,204.13,341.28,204.13z"/>
		</g>
		<g>
			<path style="fill:#FFFFFF;" d="M306.16,208.71h-12.72c-0.29,0-0.52-0.23-0.52-0.52l0,0c0-0.29,0.23-0.52,0.52-0.52h12.72
				c0.29,0,0.52,0.23,0.52,0.52l0,0C306.68,208.48,306.44,208.71,306.16,208.71z"/>
		</g>
		<g>
			<path style="fill:#FFFFFF;" d="M330.32,208.71h-20.84c-0.29,0-0.52-0.23-0.52-0.52l0,0c0-0.29,0.23-0.52,0.52-0.52h20.84
				c0.29,0,0.52,0.23,0.52,0.52l0,0C330.83,208.48,330.6,208.71,330.32,208.71z"/>
		</g>
		<g>
			<path style="fill:#FFFFFF;" d="M327.35,213.3h-33.92c-0.29,0-0.52-0.23-0.52-0.52l0,0c0-0.29,0.23-0.52,0.52-0.52h33.92
				c0.29,0,0.52,0.23,0.52,0.52l0,0C327.87,213.06,327.64,213.3,327.35,213.3z"/>
		</g>
		<g>
			<path style="fill:#FFFFFF;" d="M337.75,213.3h-7.08c-0.29,0-0.52-0.23-0.52-0.52l0,0c0-0.29,0.23-0.52,0.52-0.52h7.08
				c0.29,0,0.52,0.23,0.52,0.52l0,0C338.27,213.06,338.04,213.3,337.75,213.3z"/>
		</g>
		<g>
			<path style="fill:#FFFFFF;" d="M309.27,217.88h-15.84c-0.29,0-0.52-0.23-0.52-0.52l0,0c0-0.29,0.23-0.52,0.52-0.52h15.84
				c0.29,0,0.52,0.23,0.52,0.52l0,0C309.79,217.65,309.56,217.88,309.27,217.88z"/>
		</g>
		<g>
			<path style="fill:#FFFFFF;" d="M332.3,217.88h-19.72c-0.29,0-0.52-0.23-0.52-0.52l0,0c0-0.29,0.23-0.52,0.52-0.52h19.72
				c0.29,0,0.52,0.23,0.52,0.52l0,0C332.82,217.65,332.59,217.88,332.3,217.88z"/>
		</g>
		<g>
			<path style="fill:#FFFFFF;" d="M315.7,222.46h-22.27c-0.29,0-0.52-0.23-0.52-0.52l0,0c0-0.29,0.23-0.52,0.52-0.52h22.27
				c0.29,0,0.52,0.23,0.52,0.52l0,0C316.22,222.23,315.99,222.46,315.7,222.46z"/>
		</g>
		<g>
			<path style="fill:#FFFFFF;" d="M334.73,222.46h-15.71c-0.29,0-0.52-0.23-0.52-0.52l0,0c0-0.29,0.23-0.52,0.52-0.52h15.71
				c0.29,0,0.52,0.23,0.52,0.52l0,0C335.24,222.23,335.01,222.46,334.73,222.46z"/>
		</g>
	</g>
</g>
<g id="Character_1">
	<g>
		<path style="fill:#B97964;" d="M141.47,132.95c0.4,4.71-0.61,13.24-4.17,15.97c5.8,2.09,11.93,5.69,15.86,10.44
			c3.89-5.66-0.54-8.89-0.54-8.89c-5.01-1.78-4.46-5.57-3.18-9.06L141.47,132.95z"/>
		<path style="fill:#263238;" d="M160.4,128.89c-0.06,0.59,0.22,1.1,0.61,1.14c0.39,0.04,0.75-0.42,0.8-1.01
			c0.06-0.59-0.22-1.11-0.61-1.14C160.82,127.84,160.47,128.29,160.4,128.89z"/>
		<path style="fill:#263238;" d="M161.05,127.89l1.46-0.28C162.5,127.62,161.67,128.69,161.05,127.89z"/>
		<path style="fill:#A24E3F;" d="M160.6,129.52c0.41,1.4,1,2.74,1.77,3.99c-0.65,0.38-1.44,0.46-2.15,0.2L160.6,129.52z"/>
		<path style="fill:#263238;" d="M162.08,125.78c0.09-0.01,0.18-0.05,0.24-0.12c0.12-0.15,0.11-0.37-0.04-0.49
			c-0.83-0.76-1.98-1.07-3.09-0.82c-0.17,0.1-0.22,0.32-0.12,0.48c0.06,0.11,0.18,0.17,0.3,0.17c0.88-0.17,1.78,0.08,2.44,0.69
			C161.89,125.74,161.98,125.78,162.08,125.78z"/>
		<path style="fill:#B97964;" d="M140.97,125.13c-0.23,7.32-0.48,10.43,2.78,14.5c4.91,6.13,13.8,4.79,16.17-2.33
			c2.14-6.41,2.16-17.32-4.56-20.87C148.63,112.89,141.21,117.8,140.97,125.13z"/>
		<path style="fill:#263238;" d="M141.32,138.94c-7.19-1.23-5.13-5.76-5.13-5.76c-7.08-1.43-1.61-4.89-1.61-4.89
			c-5.89-2.54,0-4.81,0-4.81c-5.68-4.71,2.46-6.31,2.46-6.31c-2.01-7.35,4.97-4.33,4.97-4.33c3.81-6.31,7.08-0.28,7.08-0.28
			c6.66-9.05,8.29-1.41,8.29-1.41c6.8-1.79,4.19,5.37,4.19,5.37c5.6,1.5,1.21,4.34,1.21,4.34c2.16,2.73-5.65,3.2-5.65,3.2
			s3.72,5.96-0.03,7.65l-9.46,7.25C147.63,138.94,143.28,137.13,141.32,138.94z"/>
		<path style="fill:#407BFF;" d="M148.39,133.04c0,0,4.95-11.97,1.09-22.24l3.3-1.13C152.78,109.66,157.09,124.56,148.39,133.04z"/>
		<path style="fill:#B97964;" d="M153.38,131.72c0.83,1.72,1.14,2.46,2.32,3.04c1.04,0.58,2.35,0.21,2.93-0.82
			c0.27-0.47,0.34-1.03,0.22-1.56c-0.31-1.72-1.64-4.25-3.46-4.31C153.55,128.02,152.52,130.02,153.38,131.72z"/>
		<g>
			<path style="fill:#B97964;" d="M148.21,156.7c0,0,6.77,4.97,9.52,6.97l19.59-9.24l0,0c-0.05-2.22,1.26-4.25,3.31-5.12l1.39-0.59
				l2.95-1.31c1.12-0.5,2.42-0.36,3.41,0.36l0,0c1.17,0.85,1.68,2.35,1.27,3.74l0,0c-0.84,2.86-3.12,5.07-6,5.82l-2.86,0.75
				c0,0-16.8,12.75-22.78,13.08c-5.98,0.33-14.79-5.59-14.79-5.59L148.21,156.7z"/>
			<path style="fill:#263238;" d="M131.93,148.27c5.17-0.02,10.95,3.22,20.05,9.12c0,0-1.72,6.47-7.01,11.08
				c0,0-4.99-1.34-11.63-7.6C125.29,153.31,128.76,148.28,131.93,148.27z"/>
		</g>
		<g>
			<g>
				<path style="fill:#407BFF;" d="M230.13,163.25h-48.99c-1.78,0-3.09-1.44-2.94-3.22l3.69-42.19c0.16-1.78,1.72-3.22,3.5-3.22
					h48.99c1.78,0,3.09,1.44,2.94,3.22l-3.69,42.19C233.48,161.81,231.91,163.25,230.13,163.25z"/>
				<path style="opacity:0.4;fill:#FFFFFF;" d="M230.13,163.25h-48.99c-1.78,0-3.09-1.44-2.94-3.22l3.69-42.19
					c0.16-1.78,1.72-3.22,3.5-3.22h48.99c1.78,0,3.09,1.44,2.94,3.22l-3.69,42.19C233.48,161.81,231.91,163.25,230.13,163.25z"/>
			</g>
			<path style="opacity:0.7;fill:#FFFFFF;" d="M230.31,161.25c0.67,0,1.27-0.55,1.33-1.22l3.69-42.19c0.06-0.67-0.44-1.22-1.11-1.22
				h-48.99c-0.67,0-1.27,0.55-1.33,1.22l-3.69,42.19c-0.06,0.67,0.44,1.22,1.11,1.22H230.31z"/>
			<g>
				<path style="fill:#407BFF;" d="M196.26,136.45l-16.02,23.17l-0.04,0.42c-0.06,0.67,0.44,1.22,1.11,1.22h27.76L196.26,136.45z"/>
				<path style="opacity:0.3;fill:#FFFFFF;" d="M196.26,136.45l-16.02,23.17l-0.04,0.42c-0.06,0.67,0.44,1.22,1.11,1.22h27.76
					L196.26,136.45z"/>
			</g>
			<path style="fill:#407BFF;" d="M231.77,158.41l-13.41-25.47l-19.86,28.31h31.81c0.67,0,1.27-0.55,1.33-1.22L231.77,158.41z"/>
			<g>
				<path style="fill:#407BFF;" d="M213.18,128.44c-0.22,2.49-2.41,4.5-4.9,4.5c-2.49,0-4.33-2.02-4.11-4.5
					c0.22-2.49,2.41-4.5,4.9-4.5C211.56,123.94,213.4,125.96,213.18,128.44z"/>
				<path style="opacity:0.4;fill:#FFFFFF;" d="M213.18,128.44c-0.22,2.49-2.41,4.5-4.9,4.5c-2.49,0-4.33-2.02-4.11-4.5
					c0.22-2.49,2.41-4.5,4.9-4.5C211.56,123.94,213.4,125.96,213.18,128.44z"/>
			</g>
		</g>
		<g>
			<polygon style="fill:#B97964;" points="90.9,333.5 85.92,348.26 93.55,351.38 99.52,337.75 			"/>
			<g>
				<path style="fill:#407BFF;" d="M96.29,351.01c-0.08-0.04-0.12-0.13-0.12-0.22c0.01-0.09,0.08-0.17,0.17-0.19
					c0.16-0.04,3.76-0.84,5.1,0.02c0.25,0.16,0.43,0.4,0.5,0.69c0.11,0.33,0.01,0.69-0.26,0.91c-0.51,0.36-1.7,0.21-2.79-0.13
					C98,351.8,97.13,351.44,96.29,351.01z M97.05,350.93c1.57,0.71,3.79,1.38,4.37,0.93c0.08-0.05,0.17-0.16,0.1-0.47
					c-0.04-0.18-0.15-0.33-0.32-0.42c-0.12-0.08-0.25-0.14-0.38-0.17C99.57,350.61,98.29,350.65,97.05,350.93z"/>
				<path style="fill:#407BFF;" d="M96.18,350.96c-0.05-0.06-0.06-0.14-0.04-0.22c0.05-0.11,1.01-2.4,2.41-2.98
					c0.41-0.17,0.86-0.17,1.27,0c0.56,0.23,0.64,0.58,0.59,0.82c-0.12,1.05-2.82,2.3-4.01,2.44c-0.03,0.01-0.06,0-0.09-0.02
					C96.27,351.01,96.22,350.99,96.18,350.96z M99.57,348.12c-0.26-0.08-0.55-0.07-0.8,0.04c-0.89,0.55-1.59,1.37-2,2.33
					c1.29-0.31,3.13-1.37,3.26-1.98c0-0.06,0.02-0.22-0.34-0.36L99.57,348.12L99.57,348.12z"/>
				<path style="fill:#263238;" d="M95.77,349.5l-9.58-2.96c-0.36-0.11-0.75,0.04-0.94,0.37l-4.14,7.26
					c-0.37,0.64-0.15,1.46,0.49,1.83c0.08,0.05,0.17,0.09,0.26,0.12c3.47,1.01,6.6,1.77,10.9,3.1c5.08,1.57,3.6,1.78,9.54,3.71
					c3.58,1.16,5.5-2.73,4.04-3.4c-6.71-3.03-6.78-5.36-8.7-8.69C97.2,350.18,96.54,349.7,95.77,349.5z"/>
			</g>
			<polygon style="opacity:0.2;fill:#263238;" points="88.51,340.58 96.51,344.62 99.52,337.75 90.9,333.5 			"/>
		</g>
		<path style="fill:#407BFF;" d="M124.72,196.98c0,0-10.75,8.21-8.45,33.93c0.21,2.38,0.98,4.87,0.99,7.59
			c0.01,1.81-0.5,3.08-1.09,7.14c-0.86,5.93-2.44,28-4.11,30.87c-1.65,2.84-2.35,2.37-7.04,10.28c-5.05,8.52-11.5,23.46-16.52,48.79
			c0,0,4.37,3.41,11.23,4.7c0,0,27.47-43.32,33.31-59.45c5.23-14.43,11.45-60.48,11.45-60.48l0.5-19.97L124.72,196.98z"/>
		<path style="opacity:0.1;" d="M136.48,230.91h-7.79c0,0-2.56,24.48,5.9,44.9c0.88-3.28,1.78-7.21,2.65-11.46l3.36-21.56
			c-0.48-3.64-0.85-6.42-0.91-6.6C139.53,235.62,136.48,230.91,136.48,230.91z"/>
		<g>
			<polygon style="fill:#B97964;" points="135.2,339.44 135.25,355.13 144.1,354.54 145.46,339.44 			"/>
			<g>
				<path style="fill:#407BFF;" d="M145.12,354.27c-0.09-0.02-0.16-0.08-0.18-0.17c-0.02-0.09,0.02-0.18,0.1-0.23
					c0.14-0.09,3.28-2.03,4.82-1.66c0.29,0.06,0.54,0.24,0.7,0.48c0.22,0.27,0.24,0.65,0.05,0.95c-0.36,0.5-1.53,0.76-2.67,0.8
					C147,354.46,146.05,354.41,145.12,354.27z M145.82,353.96c1.72,0.15,4.03,0.05,4.44-0.56c0.06-0.08,0.11-0.21-0.06-0.47
					c-0.09-0.16-0.26-0.26-0.44-0.29c-0.14-0.03-0.28-0.05-0.42-0.04C148.09,352.82,146.89,353.28,145.82,353.96z"/>
				<path style="fill:#407BFF;" d="M145.01,354.26c-0.07-0.04-0.11-0.11-0.1-0.19c0.01-0.12,0.16-2.6,1.3-3.6
					c0.33-0.3,0.76-0.45,1.2-0.41c0.6,0.04,0.8,0.33,0.83,0.58c0.23,1.03-1.9,3.1-2.98,3.62c-0.03,0.02-0.06,0.02-0.09,0.01
					C145.11,354.29,145.05,354.28,145.01,354.26z M147.27,350.47c-0.28,0.01-0.54,0.11-0.74,0.3c-0.66,0.82-1.05,1.81-1.12,2.86
					c1.11-0.71,2.51-2.32,2.43-2.94c-0.02-0.06-0.05-0.21-0.44-0.23L147.27,350.47L147.27,350.47z"/>
				<path style="fill:#263238;" d="M144.14,353.02l-10.02,0.36c-0.38,0.01-0.7,0.29-0.77,0.66l-1.52,8.22
					c-0.14,0.73,0.34,1.43,1.06,1.57c0.09,0.02,0.19,0.03,0.28,0.02c3.61-0.19,6.82-0.5,11.32-0.66c5.31-0.19,3.98,0.5,10.23,0.36
					c3.76-0.08,4.3-4.38,2.7-4.54c-7.33-0.66-8.17-2.83-11.08-5.35C145.71,353.19,144.93,352.96,144.14,353.02z"/>
			</g>
			<polygon style="opacity:0.2;fill:#263238;" points="135.23,347.55 144.75,347.36 145.46,339.44 135.2,339.44 			"/>
		</g>
		<path style="fill:#407BFF;" d="M130.71,194.1c0,0-10.73,14.21-2.78,42.03l8.97,40.58c0,0-8.54,18.46-4.03,67.16
			c0,0,6.78,1.09,13.25-0.3c0,0,9.99-51.43,11.51-68.81c1.67-19.13,0.67-76.83,0.67-76.83L130.71,194.1z"/>
		<g>
			<path style="fill:#263238;" d="M137.19,148.07c0,0-1.66-7.1,8.99-4c10.66,3.11,9.77,9.18,9.77,9.18L137.19,148.07z"/>
			<path style="opacity:0.4;" d="M137.19,148.07c0,0-1.66-7.1,8.99-4c10.66,3.11,9.77,9.18,9.77,9.18L137.19,148.07z"/>
		</g>
		<path style="fill:#263238;" d="M163.63,165.83c0,2.49-1.05,6.09-1.99,10.12c-0.46,1.91-0.88,3.9-1.16,5.92
			c-1.51,11.01-2,22.59-2,22.59s-17.42,4.89-34.34-6.81c0,0,4.19-3.55,3.33-28.14c-0.39-11.08-4.39-24.25,13.92-22.18
			c15.46,1.75,20.66,6.55,21.91,14.06c0.01,0.09,0.03,0.19,0.05,0.29c0.03,0.23,0.06,0.46,0.09,0.7
			C163.57,163.47,163.63,164.63,163.63,165.83z"/>
		<path style="opacity:0.4;" d="M163.63,165.83c0,2.49-1.05,6.09-1.99,10.12c-4.18-5.03-8.37-14.45-8.37-14.45l3.45-5.08l6.08,2.83
			c0.21,0.69,0.37,1.4,0.5,2.14c0.01,0.09,0.03,0.19,0.05,0.29c0.03,0.23,0.06,0.46,0.09,0.7
			C163.57,163.47,163.63,164.63,163.63,165.83z"/>
		<path style="fill:#B97964;" d="M169.95,161.48c0,0,5.95,5.92,8.37,8.31l20.74-6.22l0,0c0.28-2.21,1.88-4.02,4.03-4.57l1.47-0.37
			l3.12-0.86c1.18-0.33,2.45,0,3.32,0.86l0,0c1.03,1.02,1.31,2.57,0.7,3.89l0,0c-1.26,2.7-3.84,4.55-6.8,4.87l-2.94,0.32
			c0,0-18.52,10.11-24.48,9.55c-5.96-0.56-13.79-7.73-13.79-7.73L169.95,161.48z"/>
		<path style="fill:#263238;" d="M155.1,150.72c5.12,0.75,10.35,4.82,18.47,12c0,0-2.66,6.14-8.58,9.92c0,0-4.74-2.07-10.37-9.24
			C147.79,154.72,151.96,150.26,155.1,150.72z"/>
	</g>
</g>
</svg>
