<?xml version="1.0" encoding="utf-8"?>
<!-- Generator: Adobe Illustrator 24.1.1, SVG Export Plug-In . SVG Version: 6.00 Build 0)  -->
<svg version="1.1" xmlns="http://www.w3.org/2000/svg" xmlns:xlink="http://www.w3.org/1999/xlink" x="0px" y="0px"
	 viewBox="0 0 3000 1632" style="enable-background:new 0 0 3000 1632;" xml:space="preserve">
<style type="text/css">
	.st0{fill:#F6F5F5;}
	.st1{fill:#DADADA;}
	.st2{fill:#86A7FF;}
	.st3{fill:#D3DFFF;}
	.st4{fill:#FFFFFF;}
	.st5{fill:#1F3C88;}
	.st6{fill:#FBC343;}
	.st7{fill:#3A6BEA;}
	.st8{fill:#E49B31;}
	.st9{fill:#ED7545;}
	.st10{opacity:0.4;fill:#E49B31;}
	.st11{fill:#102048;}
	.st12{fill:#F9B384;}
	.st13{fill:#E28B6D;}
	.st14{opacity:0.4;fill:#EB5D60;}
	.st15{fill:#BA5C36;}
	.st16{fill:#6E3620;}
	.st17{opacity:0.3;fill:#1F3C88;}
</style>
<g id="BACKGROUND">
</g>
<g id="OBJECTS">
	<g>
		<g>
			<path class="st0" d="M2321.5,558C2130.2-30.1,1102.1-55.7,1023.1,604.2c0,0-60.9,12.1-114.7,3.8
				c-293.1-44.9-806.1,516.5-412.4,945.5h2198.5C2932.3,1143.9,2761.5,724.7,2321.5,558z"/>
			<g>
				<g>
					<g>
						<path class="st1" d="M1793.2,926.3l-3.8-3.7c245.4-252.3,255.1-390.3,269.9-599.1c5.2-74,11.1-157.6,28.1-258.6
							c-116.2,54-210.4,128.8-280.1,222.4c-56.4,75.9-97,164.2-120.5,262.5c-40.1,167.6-16.4,307.9-16.2,309.3l-5.2,0.9
							c-0.2-1.4-24.1-142.7,16.2-311.3c23.7-99.1,64.5-188.1,121.4-264.5c71.1-95.6,167.6-171.7,286.7-226.3l4.6-2.1l-0.8,4.9
							c-17.6,102.9-23.6,188-28.9,263C2049.8,533.9,2040,672.7,1793.2,926.3z"/>
						<g>
							<path class="st1" d="M1747,872.1l-5.1-1.3c1-3.8,98.7-381,221.6-590.4l4.6,2.7C1845.5,491.9,1747.9,868.4,1747,872.1z"/>
							<path class="st1" d="M1882.5,457.7l-5.3-0.2c0-0.8,2.2-76.5-37.3-149.4l4.7-2.5C1884.8,379.8,1882.5,456.9,1882.5,457.7z"/>
							<path class="st1" d="M1826.1,611.1l-3.7-3.8c56.2-55.8,129.7-73.1,130.4-73.3l1.2,5.2
								C1953.2,539.4,1881.2,556.3,1826.1,611.1z"/>
						</g>
					</g>
					<g>
						<path class="st1" d="M1979.9,1088l-0.5-5.3c95.7-9.5,173.3-73.6,237.3-196c56.7-108.5,95.6-247,133.3-381.1
							c24.4-86.9,47.5-169.1,74.5-240.2c-275.4,68.8-389.5,287.1-390.6,289.3l-4.7-2.4c1.1-2.2,117.6-225.2,399-293.3l4.9-1.2
							l-1.8,4.7c-27.6,72-51.2,155.8-76.1,244.5c-37.7,134.3-76.7,273.1-133.7,382.1C2156.4,1013.3,2077.5,1078.3,1979.9,1088z"/>
						<path class="st1" d="M1956.4,958l-4.8-2.1c1.6-3.6,162.4-363.8,297.6-468.6l3.2,4.2c-55.4,42.9-124.1,137.2-198.7,272.5
							C1997.2,866.4,1956.8,957.1,1956.4,958z"/>
						<path class="st1" d="M2134.2,627.7l-5.2-1c0.1-0.4,7.5-41.2,14.2-139.7l5.3,0.4C2141.8,586.2,2134.2,627.3,2134.2,627.7z"/>
						<path class="st1" d="M2044,781.1l-3-4.4c0.7-0.5,74.2-50.6,170.7-72.6l1.2,5.2C2117.4,731,2044.7,780.6,2044,781.1z"/>
					</g>
				</g>
				<g>
					<g>
						<path class="st1" d="M762.8,1433.7c-237.6-244.3-247.1-377.9-261.4-580.2c-5.1-72.3-10.9-154.2-27.8-253.3l-0.8-4.9l4.6,2.1
							c260,119,357.2,322.8,393,472.7c38.8,162.4,15.8,298.4,15.6,299.8l-5.2-0.9c0.2-1.3,23-136.5-15.6-297.8
							c-35.4-147.8-131-348.4-385.5-466.8c16.3,97.2,22,177.7,27.1,248.9c14.2,201.1,23.6,334,259.9,576.9L762.8,1433.7z"/>
						<g>
							<path class="st1" d="M807.3,1381.5c-0.9-3.6-94.9-366.2-212.9-567.2l4.6-2.7c118.4,201.7,212.5,564.9,213.5,568.6
								L807.3,1381.5z"/>
							<path class="st1" d="M676.8,982.4c0-0.7-2.2-75,36.6-146.5l4.7,2.5c-38.1,70.2-36,143-35.9,143.8L676.8,982.4z"/>
							<path class="st1" d="M731.2,1130.1c-53.1-52.7-122.4-69-123.1-69.2l1.2-5.2c0.7,0.2,71.5,16.8,125.7,70.6L731.2,1130.1z"/>
						</g>
					</g>
					<g>
						<path class="st1" d="M599.5,1526.5c-204.2-19-285.9-245.3-358-445c-24.4-67.5-47.4-131.2-74.1-186.1l-2.4-4.8l5.3,1.1
							c137.9,28.7,233,88.9,288.4,134.3c60.2,49.3,88.1,92.4,88.4,92.9l-4.5,2.9c-1.1-1.7-110.2-168.1-368.2-223.7
							c25.8,54,48.3,116.1,72,181.8c71.6,198.2,152.7,422.8,353.5,441.5L599.5,1526.5z"/>
						<path class="st1" d="M619.8,1428.2c-1.5-2.8-155.8-276.6-282.4-356.9l2.8-4.5c127.7,81,282.6,356.1,284.1,358.8L619.8,1428.2z
							"/>
						<path class="st1" d="M449.5,1175.5c-0.1-0.3-7.6-31.5-15-106.7l5.3-0.5c7.4,74.7,14.8,105.6,14.9,105.9L449.5,1175.5z"/>
						<path class="st1" d="M535.9,1293.2c-0.7-0.4-69.3-38.8-158.9-56.5l1-5.2c90.5,17.8,159.8,56.7,160.5,57.1L535.9,1293.2z"/>
					</g>
				</g>
				<g>
					<g>
						<path class="st1" d="M2497.6,1550l-1.3-5.1c224.8-54.9,267.2-296.4,308.2-529.9c14.4-82,29.3-166.7,52-240
							c-223.8,42.9-350.5,197.4-417.6,319.9c-73.2,133.8-93.1,259.3-93.2,260.6l-5.2-0.8c0.2-1.3,20.1-127.6,93.8-262.2
							c68-124.3,197.1-281.4,425.6-323.5l4.3-0.8l-1.3,4.2c-23.4,73.9-38.5,160.1-53.1,243.5
							C2768.4,1251.1,2725.7,1494.3,2497.6,1550z"/>
						<path class="st1" d="M2478.3,1417.6l-5.1-1.4c0.8-3,83.7-297.6,218.5-414l3.5,4C2561.6,1121.5,2479.2,1414.7,2478.3,1417.6z"
							/>
						<path class="st1" d="M2573.6,1170.5l-5.2-1.1c0.1-0.6,12.2-60.6,8-148.8l5.3-0.3C2586,1109.3,2573.7,1169.9,2573.6,1170.5z"/>
						<path class="st1" d="M2502.3,1298.8l-3.2-4.2c0.7-0.6,74.7-57.7,176.9-94l1.8,5C2576.4,1241.6,2503.1,1298.2,2502.3,1298.8z"
							/>
					</g>
				</g>
			</g>
			<g>
				<path class="st1" d="M1978.9,468.1c-9.5,0-17.2-7.7-17.2-17.2c0-9.5,7.7-17.2,17.2-17.2c9.5,0,17.2,7.7,17.2,17.2
					C1996.1,460.4,1988.4,468.1,1978.9,468.1z M1978.9,439c-6.6,0-11.9,5.3-11.9,11.9c0,6.6,5.3,11.9,11.9,11.9
					c6.6,0,11.9-5.3,11.9-11.9C1990.8,444.3,1985.5,439,1978.9,439z"/>
				<path class="st1" d="M553.2,734c-9.5,0-17.2-7.7-17.2-17.2s7.7-17.2,17.2-17.2s17.2,7.7,17.2,17.2S562.7,734,553.2,734z
					 M553.2,704.9c-6.6,0-11.9,5.3-11.9,11.9c0,6.6,5.3,11.9,11.9,11.9c6.6,0,11.9-5.3,11.9-11.9
					C565.1,710.2,559.8,704.9,553.2,704.9z"/>
				<path class="st1" d="M2148.2,1117.1c-9.5,0-17.2-7.7-17.2-17.2c0-9.5,7.7-17.2,17.2-17.2c9.5,0,17.2,7.7,17.2,17.2
					C2165.4,1109.4,2157.7,1117.1,2148.2,1117.1z M2148.2,1088c-6.6,0-11.9,5.3-11.9,11.9c0,6.6,5.3,11.9,11.9,11.9
					c6.6,0,11.9-5.3,11.9-11.9C2160.1,1093.3,2154.8,1088,2148.2,1088z"/>
				<path class="st1" d="M2733.3,933.7c-9.5,0-17.2-7.7-17.2-17.2c0-9.5,7.7-17.2,17.2-17.2s17.2,7.7,17.2,17.2
					C2750.4,926,2742.7,933.7,2733.3,933.7z M2733.3,904.6c-6.6,0-11.9,5.3-11.9,11.9c0,6.6,5.3,11.9,11.9,11.9s11.9-5.3,11.9-11.9
					C2745.2,909.9,2739.8,904.6,2733.3,904.6z"/>
				<circle class="st1" cx="2091.4" cy="872.8" r="11.9"/>
				<circle class="st1" cx="2639.3" cy="1311.1" r="11.9"/>
				
					<ellipse transform="matrix(1.415886e-03 -1 1 1.415886e-03 1227.9539 2295.5234)" class="st1" cx="1763.4" cy="532.9" rx="11.9" ry="11.9"/>
				<circle class="st1" cx="449.2" cy="1349.9" r="11.9"/>
			</g>
			<path class="st1" d="M788.1,539.9c-1.5,0-3.1-0.2-4.6-0.7l-32.9-9.8c-4.1-1.2-7.5-4-9.5-7.8c-2-3.8-2.5-8.1-1.2-12.2l11.2-37.2
				c-13.9-7.4-26.7-16.7-38-27.6L681,466.3c-7.3,4.9-17.3,3-22.3-4.3l-19.2-28.4c-2.4-3.5-3.3-7.8-2.5-12c0.8-4.2,3.2-7.8,6.8-10.2
				l31.7-21.4c-6.7-15.8-10.9-32.6-12.5-49.9l-37.6-4.3c-4.3-0.5-8.1-2.6-10.7-6c-2.7-3.3-3.8-7.5-3.4-11.8l3.9-34
				c1-8.8,9-15.1,17.8-14.1l37.1,4.3c5-15.6,12.2-30.3,21.5-43.8L666,203.9c-3-3.1-4.6-7.1-4.5-11.4c0.1-4.3,1.8-8.3,4.9-11.2
				l24.8-23.7c6.4-6.1,16.5-5.9,22.7,0.4l25.4,26.4c14.4-9.2,30.1-16.2,46.6-20.6l-2.4-36.3c-0.6-8.8,6.1-16.4,15-17l34.3-2.2
				c8.9-0.6,16.5,6.1,17,14.9l2.4,36.3c17,2.3,33.4,7.1,48.9,14.4l21.8-29.4c5.2-7.1,15.3-8.6,22.4-3.4l27.6,20.3
				c3.4,2.5,5.7,6.3,6.3,10.5c0.6,4.2-0.4,8.4-3,11.9l-22,29.7c11,12.2,20,25.9,27,40.7l36.3-9c8.6-2.1,17.3,3.1,19.4,11.6l8.3,33.2
				c1,4.1,0.4,8.4-1.8,12.1c-2.2,3.7-5.7,6.3-9.9,7.3l-36.7,9.1c0.7,17.3-1.3,34.5-6,51.1l34.2,17.1c3.8,1.9,6.7,5.2,8,9.3
				c1.3,4.1,1,8.4-0.9,12.2l-15.4,30.6c-4,7.9-13.6,11.1-21.5,7.1l-34.6-17.3c-9.8,12.3-21.2,23.2-34.1,32.3l15.9,35.5
				c1.8,3.9,1.9,8.2,0.4,12.2c-1.5,4-4.5,7.2-8.4,8.9l-31.3,14c-8.1,3.6-17.6,0-21.2-8l-16-35.6c-8.4,1.8-16.9,3.1-25.5,3.6
				c-8.6,0.6-17.2,0.5-25.7-0.3l-11.3,37.4C801.4,535.4,795,539.9,788.1,539.9z M713.7,437.8l1.5,1.5c11.8,11.7,25.4,21.6,40.2,29.2
				l2,1L745,511c-0.8,2.7-0.5,5.6,0.8,8.1c1.4,2.5,3.6,4.4,6.4,5.2l32.9,9.8c5.7,1.7,11.7-1.5,13.4-7.2l12.5-41.6l2.2,0.2
				c9,0.9,18,1.1,27,0.5c9-0.6,18-1.9,26.7-4l2.1-0.5l17.8,39.6c2.4,5.4,8.8,7.8,14.2,5.4l31.3-14c2.6-1.2,4.6-3.3,5.7-6
				c1-2.7,0.9-5.6-0.2-8.2L920.1,459l1.8-1.3c13.7-9.5,25.9-21,36.1-34.2l1.3-1.7l38.5,19.2c5.3,2.7,11.8,0.5,14.4-4.8l15.4-30.6
				c1.3-2.6,1.5-5.5,0.6-8.2c-0.9-2.7-2.8-4.9-5.4-6.2l-38.2-19.1l0.6-2.1c5.1-17.3,7.2-35.4,6.3-53.6l-0.1-2.2l41-10.2
				c2.8-0.7,5.1-2.4,6.6-4.9c1.5-2.4,1.9-5.3,1.2-8.1l-8.3-33.2c-1.4-5.7-7.3-9.2-13-7.8l-40.5,10.1l-0.9-2
				c-7.1-15.7-16.7-30.1-28.5-42.9l-1.5-1.6l24.6-33.2c1.7-2.3,2.4-5.1,2-8c-0.4-2.8-1.9-5.3-4.2-7l-27.6-20.3
				c-4.8-3.5-11.5-2.5-15,2.3l-24.4,33l-2-1c-16.2-7.9-33.5-13-51.4-15.1l-2.2-0.3l-2.6-40.7c-0.4-5.9-5.5-10.4-11.4-10l-34.3,2.2
				c-5.9,0.4-10.4,5.5-10,11.4l2.7,40.7l-2.1,0.5c-17.5,4.5-33.9,11.7-49,21.7l-1.8,1.2l-28.5-29.5c-4.1-4.3-10.9-4.4-15.2-0.3
				l-24.8,23.7c-2.1,2-3.2,4.7-3.3,7.5c-0.1,2.9,1,5.6,3,7.6l28.7,29.7l-1.3,1.8c-10,14.1-17.6,29.7-22.7,46.2l-0.6,2.1l-41.5-4.8
				c-5.9-0.7-11.2,3.5-11.9,9.4l-3.9,34c-0.3,2.8,0.5,5.6,2.2,7.9c1.8,2.3,4.3,3.7,7.2,4l41.9,4.8l0.2,2.2
				c1.4,18.2,5.9,35.8,13.2,52.3l0.9,2l-35.4,23.9c-2.4,1.6-4,4-4.5,6.8c-0.5,2.8,0,5.7,1.7,8l19.2,28.4c3.3,4.9,10,6.2,14.9,2.9
				L713.7,437.8z M829.7,422.1c-50.2,0-92.6-39-95.9-89.7c-3.4-52.8,36.8-98.5,89.8-102c25.6-1.7,50.4,6.7,69.7,23.6
				c19.3,16.9,30.9,40.3,32.5,65.9c1.7,25.6-6.8,50.3-23.7,69.5c-17,19.3-40.4,30.8-66.1,32.5l0,0
				C833.9,422,831.8,422.1,829.7,422.1z M829.9,235.5c-2,0-4,0.1-6.1,0.2c-50,3.3-88.1,46.5-84.9,96.4c3.2,49.9,46.6,87.8,96.6,84.6
				l0,0c24.2-1.6,46.4-12.5,62.4-30.7c16-18.2,24-41.5,22.4-65.7c-1.6-24.2-12.5-46.3-30.7-62.2C873,243.3,852,235.5,829.9,235.5z"
				/>
		</g>
		<g>
			<path class="st2" d="M1638.7,1550.9h-787c-27.2,0-49.3-22.1-49.3-49.3V351.4c0-27.2,22.1-49.3,49.3-49.3h787
				c27.2,0,49.3,22.1,49.3,49.3v1150.3C1688,1528.9,1666,1550.9,1638.7,1550.9z"/>
			<rect x="1089.2" y="357" class="st3" width="312.1" height="52.4"/>
			<rect x="890.8" y="489.3" class="st1" width="708.9" height="157.2"/>
			<rect x="921.8" y="510.8" class="st4" width="646.9" height="114.2"/>
			<g>
				<path class="st5" d="M1414.8,782.9h-48.2c-14.5,0-26.2-11.7-26.2-26.2v-11.1c0-14.5,11.7-26.2,26.2-26.2h48.2
					c14.5,0,26.2,11.7,26.2,26.2v11.1C1441,771.2,1429.3,782.9,1414.8,782.9z"/>
				<path class="st5" d="M1573.5,782.9h-48.2c-14.5,0-26.2-11.7-26.2-26.2v-11.1c0-14.5,11.7-26.2,26.2-26.2h48.2
					c14.5,0,26.2,11.7,26.2,26.2v11.1C1599.7,771.2,1588,782.9,1573.5,782.9z"/>
			</g>
			<g>
				<path class="st5" d="M1587.2,942.5h-96.7c-6.9,0-12.5-5.6-12.5-12.5v-58c0-6.9,5.6-12.5,12.5-12.5h96.7
					c6.9,0,12.5,5.6,12.5,12.5v58C1599.7,936.9,1594.1,942.5,1587.2,942.5z"/>
				<path class="st5" d="M1393.1,942.5h-96.7c-6.9,0-12.5-5.6-12.5-12.5v-58c0-6.9,5.6-12.5,12.5-12.5h96.7
					c6.9,0,12.5,5.6,12.5,12.5v58C1405.6,936.9,1400,942.5,1393.1,942.5z"/>
				<path class="st5" d="M1199,942.5h-96.7c-6.9,0-12.5-5.6-12.5-12.5v-58c0-6.9,5.6-12.5,12.5-12.5h96.7c6.9,0,12.5,5.6,12.5,12.5
					v58C1211.5,936.9,1205.9,942.5,1199,942.5z"/>
				<path class="st5" d="M1004.9,942.5h-96.7c-6.9,0-12.5-5.6-12.5-12.5v-58c0-6.9,5.6-12.5,12.5-12.5h96.7
					c6.9,0,12.5,5.6,12.5,12.5v58C1017.3,936.9,1011.8,942.5,1004.9,942.5z"/>
			</g>
			<g>
				<path class="st5" d="M1587.2,1092.4h-96.7c-6.9,0-12.5-5.6-12.5-12.5v-58c0-6.9,5.6-12.5,12.5-12.5h96.7
					c6.9,0,12.5,5.6,12.5,12.5v58C1599.7,1086.8,1594.1,1092.4,1587.2,1092.4z"/>
				<path class="st3" d="M1393.1,1092.4h-96.7c-6.9,0-12.5-5.6-12.5-12.5v-58c0-6.9,5.6-12.5,12.5-12.5h96.7
					c6.9,0,12.5,5.6,12.5,12.5v58C1405.6,1086.8,1400,1092.4,1393.1,1092.4z"/>
				<path class="st3" d="M1199,1092.4h-96.7c-6.9,0-12.5-5.6-12.5-12.5v-58c0-6.9,5.6-12.5,12.5-12.5h96.7c6.9,0,12.5,5.6,12.5,12.5
					v58C1211.5,1086.8,1205.9,1092.4,1199,1092.4z"/>
				<path class="st3" d="M1004.9,1092.4h-96.7c-6.9,0-12.5-5.6-12.5-12.5v-58c0-6.9,5.6-12.5,12.5-12.5h96.7
					c6.9,0,12.5,5.6,12.5,12.5v58C1017.3,1086.8,1011.8,1092.4,1004.9,1092.4z"/>
			</g>
			<g>
				<path class="st5" d="M1587.2,1242.3h-96.7c-6.9,0-12.5-5.6-12.5-12.5v-58c0-6.9,5.6-12.5,12.5-12.5h96.7
					c6.9,0,12.5,5.6,12.5,12.5v58C1599.7,1236.7,1594.1,1242.3,1587.2,1242.3z"/>
				<path class="st3" d="M1393.1,1242.3h-96.7c-6.9,0-12.5-5.6-12.5-12.5v-58c0-6.9,5.6-12.5,12.5-12.5h96.7
					c6.9,0,12.5,5.6,12.5,12.5v58C1405.6,1236.7,1400,1242.3,1393.1,1242.3z"/>
				<path class="st3" d="M1199,1242.3h-96.7c-6.9,0-12.5-5.6-12.5-12.5v-58c0-6.9,5.6-12.5,12.5-12.5h96.7c6.9,0,12.5,5.6,12.5,12.5
					v58C1211.5,1236.7,1205.9,1242.3,1199,1242.3z"/>
				<path class="st3" d="M1004.9,1242.3h-96.7c-6.9,0-12.5-5.6-12.5-12.5v-58c0-6.9,5.6-12.5,12.5-12.5h96.7
					c6.9,0,12.5,5.6,12.5,12.5v58C1017.3,1236.7,1011.8,1242.3,1004.9,1242.3z"/>
			</g>
			<g>
				<path class="st6" d="M1587.2,1397.5h-96.7c-6.9,0-12.5-5.6-12.5-12.5v-58c0-6.9,5.6-12.5,12.5-12.5h96.7
					c6.9,0,12.5,5.6,12.5,12.5v58C1599.7,1391.9,1594.1,1397.5,1587.2,1397.5z"/>
				<path class="st3" d="M1393.1,1397.5h-96.7c-6.9,0-12.5-5.6-12.5-12.5v-58c0-6.9,5.6-12.5,12.5-12.5h96.7
					c6.9,0,12.5,5.6,12.5,12.5v58C1405.6,1391.9,1400,1397.5,1393.1,1397.5z"/>
				<path class="st3" d="M1199,1397.5h-96.7c-6.9,0-12.5-5.6-12.5-12.5v-58c0-6.9,5.6-12.5,12.5-12.5h96.7c6.9,0,12.5,5.6,12.5,12.5
					v58C1211.5,1391.9,1205.9,1397.5,1199,1397.5z"/>
				<path class="st3" d="M1004.9,1397.5h-96.7c-6.9,0-12.5-5.6-12.5-12.5v-58c0-6.9,5.6-12.5,12.5-12.5h96.7
					c6.9,0,12.5,5.6,12.5,12.5v58C1017.3,1391.9,1011.8,1397.5,1004.9,1397.5z"/>
			</g>
			<g>
				<path class="st7" d="M1427.8,593.8c1.9,0.2,4,0,7-0.3c5-0.7,9.7-2.8,13.4-6.2c4.2-3.8,7.3-9.4,8.5-17h-0.3
					c-3.5,4.3-8.7,6.9-15,6.9c-11.5,0-18.9-8.7-18.9-19.6c0-12.1,8.8-22.7,21.8-22.7s21.1,10.6,21.1,26.9c0,14.1-4.7,23.9-11,30
					c-4.9,4.8-11.7,7.8-18.6,8.6c-3.1,0.5-5.9,0.6-8,0.5V593.8z M1431,557c0,8,4.8,13.6,12.3,13.6c5.8,0,10.3-2.9,12.6-6.7
					c0.5-0.8,0.8-1.8,0.8-3.1c0-10.9-4-19.3-13.1-19.3C1436.2,541.5,1431,547.9,1431,557z"/>
				<path class="st7" d="M1478.3,593.8c1.9,0.2,4,0,7-0.3c5-0.7,9.7-2.8,13.4-6.2c4.2-3.8,7.3-9.4,8.5-17h-0.3
					c-3.5,4.3-8.7,6.9-15,6.9c-11.5,0-18.9-8.7-18.9-19.6c0-12.1,8.8-22.7,21.8-22.7c13.1,0,21.1,10.6,21.1,26.9
					c0,14.1-4.7,23.9-11,30c-4.9,4.8-11.7,7.8-18.6,8.6c-3.1,0.5-5.9,0.6-8,0.5V593.8z M1481.5,557c0,8,4.8,13.6,12.3,13.6
					c5.8,0,10.3-2.9,12.6-6.7c0.5-0.8,0.8-1.8,0.8-3.1c0-10.9-4-19.3-13.1-19.3C1486.7,541.5,1481.5,547.9,1481.5,557z"/>
			</g>
		</g>
		<g>
			<g>
				<rect x="1920.7" y="1199.2" class="st6" width="483.2" height="354.4"/>
				<rect x="2275.2" y="1279.4" class="st8" width="128.7" height="5.3"/>
				<rect x="2180" y="1473.4" class="st8" width="224" height="5.3"/>
				<path class="st8" d="M2161.6,1327.6c0,40.8-6.1,81.8-18.6,121.6c-19,60.5-75,101.7-138.4,101.7h-83.9v-351.7h220.1
					C2154.6,1240.5,2161.6,1283.9,2161.6,1327.6z"/>
			</g>
			<g>
				<path class="st6" d="M1719.7,1491.8v37.8c0,13.3-10.7,24-24,24h-398.3c-13.3,0-24-10.7-24-24v-37.8c0-13.3,10.7-24,24-24h398.3
					C1709,1467.8,1719.7,1478.5,1719.7,1491.8z"/>
				<path class="st6" d="M1670.4,1405.9v37.8c0,13.3-10.8,24-24,24H1248c-13.3,0-24-10.7-24-24v-37.8c0-13.2,10.7-24,24-24h398.3
					C1659.6,1381.9,1670.4,1392.7,1670.4,1405.9z"/>
				<path class="st8" d="M1719.7,1491.8v37.8c0,13.3-10.7,24-24,24h-285.6c-19.7-24.3-31.8-55.7-39-85.8
					c-8.4-34.5-10.5-67.2-11-85.9h286.3c13.2,0,24,10.8,24,24v37.8c0,13.3-10.8,24-24,24h49.4
					C1709,1467.8,1719.7,1478.5,1719.7,1491.8z"/>
			</g>
			<g>
				<path class="st6" d="M1929.1,788l-32.2,98.8l-2.4,7.3l-14.9,45.9l-0.1,0.3l-48.1-1.1l-184.5-4.2l-13.5-38.6l-2.3-6.5l-35.7-102
					C1706.2,826.4,1797.5,742.5,1929.1,788z"/>
				<path class="st8" d="M1894.5,894.1l-14.9,45.9l-48.2-0.7l-184.5-4.2l-13.5-38.6C1696.8,895.3,1805.9,893.8,1894.5,894.1z"/>
				<path class="st6" d="M2100.7,1451.9c-9.5,30.3-28.3,55.7-52.5,73.5c-24.3,17.9-54.2,28.1-85.9,28.1h-417.9
					c-60.4,0-113.4-40.4-129.5-98.7c-9.3-33.7-14.2-67.9-15-101.9c-0.1-3.3-0.1-6.6-0.1-9.8c0-3.9,0.1-7.8,0.2-11.6
					c3.4-123.3,63.7-238.1,160.4-314.7l100-79.2L1889,943l125.8,120.4c17.7,16.9,33.5,35.9,46.1,56.8c15.2,25.1,27.4,51.7,36.7,79.1
					C2125.1,1279.9,2126.9,1368.4,2100.7,1451.9z"/>
				<g>
					<path class="st4" d="M1728.5,1443.1v-44.2c-31.2-1.4-61.5-9.8-79.2-20l14-54.5c19.6,10.7,47,20.5,77.3,20.5
						c26.5,0,44.7-10.2,44.7-28.9c0-17.7-14.9-28.9-49.4-40.5c-49.8-16.8-83.8-40-83.8-85.2c0-41,28.9-73.1,78.7-82.9v-44.3h45.6v41
						c31.2,1.4,52.2,7.9,67.5,15.4l-13.5,52.6c-12.1-5.1-33.5-15.9-67.1-15.9c-30.3,0-40,13-40,26.1c0,15.4,16.3,25.1,55.9,40
						c55.4,19.6,77.8,45.2,77.8,87.1c0,41.4-29.3,76.8-82.9,86.2v47.5H1728.5z"/>
				</g>
				<path class="st9" d="M1926.9,980.4h-323.7c-13.4,0-24.3-11-24.3-24.3v-10.4c0-13.4,11-24.3,24.3-24.3h323.7
					c13.4,0,24.3,11,24.3,24.3v10.4C1951.2,969.4,1940.3,980.4,1926.9,980.4z"/>
				<path class="st10" d="M2100.7,1451.9c-9.5,30.3-28.3,55.7-52.5,73.5c-24.3,17.9-54.2,28.1-85.9,28.1h-417.9
					c-60.4,0-113.4-40.4-129.5-98.7c-9.3-33.7-14.2-67.9-15-101.9c69.1,65.9,150.6,152.1,341.1,154.8
					c236.5,3.3,338.4-107.6,356.7-308.6C2125.1,1279.9,2126.9,1368.4,2100.7,1451.9z"/>
			</g>
		</g>
		<g>
			<g>
				<g>
					<polygon class="st11" points="477.4,1480.4 435.1,1464.5 336.8,1550.9 453.1,1550.9 					"/>
					<polygon class="st12" points="477.4,1480.4 570.8,1480.4 560.3,1547.4 453.1,1550.9 					"/>
					<path class="st5" d="M852.5,1104.7l-3.4,23.4l-2.1,14.1l-14.8,101.5l-5.7,38.8l-5,34.6l-13.2,90.2l-9.2,62.5
						c-6.9,47-47.2,81.9-94.7,81.9H497.7l0.3-2.6l6.7-68.8l1-9.7l144.2-27.8l19.4-140.6c-9.5-40.9-7.2-80.3-3.1-107.9
						c3.5-23.5,8.4-38.5,8.4-38.5l64.3-18.5L852.5,1104.7z"/>
					<path class="st11" d="M808.4,1407.4l-9.2,62.5c-6.9,47-47.2,81.9-94.7,81.9h-10.6C788.6,1534.8,770.1,1413.8,808.4,1407.4z"/>
					
						<rect x="396.9" y="1532" transform="matrix(0.528 -0.8493 0.8493 0.528 -1106.8689 1077.7347)" class="st4" width="38.4" height="5.3"/>
				</g>
				<path class="st11" d="M832.2,1243.8l-10.7,73.4c-29.8-8.5-69.1-51.1-69.1-51.1L832.2,1243.8z"/>
				<g>
					<path class="st11" d="M1051.3,1431c0,0-50.3,25.8-140.2,9.3l74.7-49.6L1051.3,1431z"/>
					<polygon class="st12" points="1023.7,1466.6 943.3,1468.4 942.8,1451 941.6,1403.4 1013,1408.7 1016.4,1427.1 					"/>
					<polygon class="st13" points="1016.4,1427.1 942.8,1451 941.6,1403.4 1013,1408.7 					"/>
					<polygon class="st11" points="1114.8,1551.6 1026.2,1480.2 1023.7,1466.6 943.3,1468.4 945.5,1551.6 					"/>
					
						<rect x="1021.2" y="1509.7" transform="matrix(0.8482 -0.5297 0.5297 0.8482 -643.1954 780.39)" class="st4" width="37.4" height="5.3"/>
					<path class="st5" d="M674.4,1155.9l287.6-45.7c13.4-2.1,27.2-0.3,39.7,5.2h0c24.7,11,41,35.2,41.8,62.2l7.9,253.4
						c0,0-82-17.2-140.2,9.3l-5.3-173.3c-35.2,16-96.1,19.4-157.8,13.2L674.4,1155.9z"/>
					<path class="st7" d="M1010.8,1423.1h-5.3c0-43.8,1.1-80.2,2-112.3c2.3-78.2,3.5-121.3-16.4-139.5
						c-16.1-14.8-48.3-14.3-95.1-8.8c-50.1,5.8-70.1-47.5-70.2-48l5-1.8c0.7,2,18.7,50.1,64.7,44.6c49.5-5.8,81.6-6.1,99.3,10.1
						c21.7,19.9,20.5,61.2,18.1,143.5C1011.9,1343,1010.8,1379.3,1010.8,1423.1z"/>
					<path class="st7" d="M911.2,1408.3l-1.9-4.9c0.7-0.3,67.7-25.2,141.8-6.7l-1.3,5.1C977.5,1383.7,911.9,1408.1,911.2,1408.3z"/>
				</g>
				<path class="st7" d="M527,1552.6c-8.2-16.5,4.5-84.8,5.1-87.6l5.2,1c-3.6,19.3-11.7,71.9-5.5,84.3L527,1552.6z"/>
				<path class="st11" d="M823.9,1134.7c0,0-20.3,43.2-66.1,72.3c-15.6,9.8-30.8,14.3-44.5,14.4c-20.7,0.1-37.9-10-47.2-27
					c3.5-23.5,8.4-38.5,8.4-38.5l64.3-18.5l64.9-2.1L823.9,1134.7z"/>
			</g>
			<g>
				<polygon class="st9" points="772.3,874.2 772.3,935.4 832.2,935.4 832.2,882.5 				"/>
				<polygon class="st12" points="832.2,844.6 772.3,844.6 772.3,874.2 832.2,882.5 				"/>
				<path class="st11" d="M789.9,853c1.3,0,14.5,20.6,42.3,29.5l-0.4-32.1L789.9,853z"/>
				<path class="st12" d="M839.3,771.4c0,0,33.1,89.1-9.7,94.8c-42.8,5.7-49.4-13.7-49.4-13.7L767,805.4l29.5-39.7L839.3,771.4z"/>
				
					<ellipse transform="matrix(1.850833e-02 -0.9998 0.9998 1.850833e-02 20.5032 1649.2908)" class="st12" cx="850.3" cy="814.2" rx="9.3" ry="9.3"/>
				<path class="st11" d="M794.3,813.8c0,0,2.2-47.6,45-42.3c0,0-28.8-37-66.7-22.6c-19.3,7.3-32.1,25.7-34,46.2
					c-2.4,26.5,13,56.7,34.6,62c0,0,7.1-16.3,18.9-37L794.3,813.8z"/>
				
					<ellipse transform="matrix(0.905 -0.4254 0.4254 0.905 -272.2556 414.8195)" class="st12" cx="792.8" cy="817.1" rx="13" ry="15.2"/>
				
					<ellipse transform="matrix(1.428083e-02 -0.9999 0.9999 1.428083e-02 -6.4109 1632.4828)" class="st14" cx="824.8" cy="819.5" rx="12.1" ry="12.1"/>
				<path class="st11" d="M795.5,822.1c-0.7,0-1.3-0.6-1.3-1.3c0-0.3-0.2-7.7-8.3-8.8c-0.7-0.1-1.2-0.8-1.1-1.5
					c0.1-0.7,0.8-1.2,1.5-1.1c10.5,1.5,10.6,11.4,10.6,11.5C796.8,821.5,796.2,822.1,795.5,822.1
					C795.5,822.1,795.5,822.1,795.5,822.1z"/>
			</g>
			<g>
				<path class="st15" d="M995.8,786.9c0,0,46.2,3.5,71.4,33.1l-57.3,14.1L995.8,786.9z"/>
				<path class="st12" d="M1077.7,761.5c0.2,4.2-11.4,25.3-20,40.3c-5,8.6-8.9,15.2-8.9,15.2l-30.8,9l-22-33.2l-1.1-1.6
					c0,0,0.3-1.4,0.9-4v-0.1c0.1-0.1,0.1-0.2,0.1-0.3c3.7-15.7,16.8-69.3,24.4-71.1c6.7-1.5,2.8,27.8,2.8,27.8s16.5-47.7,26.2-45.7
					c7.8,1.5-7.5,47.2-7.5,47.2s5.4-5.7,11-3.9c5.9,2,6.6,7.5,6.6,7.5s3.9-2.8,7.8-0.4c3.9,2.4,3.5,9.8,3.5,9.8
					S1077.3,754.9,1077.7,761.5z"/>
				<path class="st9" d="M758.3,913.9l-20.9,81.9l-32.5,127c-22.1,9.8-45.3,13.4-63.8,10.3c-21.4-3.5-36.4-16-35.4-38.1
					C608.3,1035.5,758.3,913.9,758.3,913.9z"/>
				<path class="st15" d="M754.2,937.2l-16.9,58.6l-32.5,127c-22.1,9.8-45.3,13.4-63.8,10.3C688.1,998.1,754.2,937.2,754.2,937.2z"
					/>
				<path class="st9" d="M885.2,1122.5c-43.6,3-181.2,116.7-214.3,43.3c0,0,4.6-273.7,145.9-268.7c25,0.9,47,17.6,54.5,41.4
					c3.4,10.8,6.8,24.9,9.4,43c2.7,18.4,4.7,40.9,5.4,68.4C886.8,1071.1,886.5,1095.2,885.2,1122.5z"/>
				<path class="st15" d="M886.2,1049.9c-21.8-14.1-44.7-56.7-44.7-56.7l39.3-11.6C883.5,999.9,885.5,1022.5,886.2,1049.9z"/>
				<path class="st13" d="M1057.7,801.8c-5,8.6-8.9,15.2-8.9,15.2l-30.8,9l-22-33.2l-0.2-5.6v-0.4h0.1L1057.7,801.8z"/>
				<path class="st9" d="M816.8,897.2c0,0,67.9,4.8,108.9,12.7l70.1-123c21.4,17.1,45.2,28.2,71.4,33.1l-61.3,144.6
					c-13.5,27.5-41.1,45.2-71.6,46.3l-105.1,3.6L816.8,897.2z"/>
				<path class="st15" d="M925.7,911.9c-0.1,0-0.2,0-0.4,0c-1.3-0.2-129.4-23.7-151.3-4.4c-0.8,0.7-2.1,0.6-2.8-0.2
					c-0.7-0.8-0.6-2.1,0.2-2.8c23.3-20.6,149.3,2.5,154.6,3.5c1.1,0.2,1.8,1.2,1.6,2.3C927.5,911.2,926.6,911.9,925.7,911.9z"/>
			</g>
		</g>
		<g>
			<g>
				<polygon class="st11" points="2329.9,1438.1 2338.7,1550.9 2191.9,1550.9 2265.9,1499.8 2264.6,1429.2 				"/>
				<polygon class="st11" points="2546.3,1390 2586,1486.6 2485.5,1571.2 2500,1476 2480.2,1412.5 				"/>
				<path class="st5" d="M2368.7,845.5c-1.3,3.7-2.5,8.5-3.7,14.1c-2,9.8-3.6,22.3-5.1,37c-4.7,48-6.6,119.4-7.1,195.2
					c-1.1,170.7,5.3,363.9,5.3,363.9l-26.9-0.4l-66.1-1l-23.4-0.4c-35.4-270.5-25.3-498.9-20-578.4c0.2-2.8,0.4-5.3,0.5-7.7
					c1.1-14.6,1.9-22.4,1.9-22.4H2368.7z"/>
				<path class="st5" d="M2571.5,1415.1l-13.4,3.3l-70.5,17.6l-43.1,10.8c0,0-51-189.2-91.7-355.1c-19.6-80-36.8-154.5-44.8-199.8
					c-2.8-16-4.4-28.3-4.6-35.9l61.6,3.5l77.8,4.4c0,0,1.9,11.2,5.6,31.2C2463.2,975.2,2506.6,1196.5,2571.5,1415.1z"/>
				<path class="st11" d="M2448.3,895.2c-31.3,2.6-61.2,2.7-88.5,1.3c-18.6-1-36-2.6-51.9-4.5c-39.4-4.9-69.7-12.1-86.3-16.5
					c-9-2.4-14-4-14-4l14.4-3.7l89.1-22.4h57.4c-1.3,3.7-2.5,8.5-3.7,14.1l77.8,4.4C2442.7,864,2444.6,875.2,2448.3,895.2z"/>
				<path class="st7" d="M2355.5,1112.4c-4.3-17.9-24.5-102.9-27.1-117.3l-40.9-15.3l1.9-5l44,16.5v1.8c0.3,3.9,16.5,72.7,27.3,118
					L2355.5,1112.4z"/>
				<path class="st7" d="M2251.7,1189.8c-19.2,0-31.5-4.8-32.1-5l2-4.9c0.2,0.1,21.8,8.4,52.3,2.5l1,5.2
					C2266.4,1189.2,2258.6,1189.8,2251.7,1189.8z"/>
				<path class="st7" d="M2404.8,1186.1c-12.3,0-22.7-1.9-23.5-2.1l1-5.2c0.4,0.1,36.1,6.7,52.7-4.9l3,4.3
					C2429.3,1184.5,2416.2,1186.1,2404.8,1186.1z"/>
				
					<rect x="2273.7" y="1494.7" transform="matrix(0.6082 -0.7938 0.7938 0.6082 -304.9014 2397.7529)" class="st4" width="5.3" height="26.1"/>
				
					<rect x="2511.5" y="1466.5" transform="matrix(0.3763 -0.9265 0.9265 0.3763 195.2824 3253.5044)" class="st4" width="5.3" height="30.5"/>
			</g>
			<g>
				<path class="st9" d="M2291.1,556.3c0,0-90.8,11.5-113.7,113.7l27.3,121.7l-12.3,81.1c0,0,123.4,12.3,250.4-8.8l-38.6-206.8
					L2291.1,556.3z"/>
				<path class="st16" d="M2347.5,815.5c0,0-27.3-20.1,8.4-108l23.8,86.6L2347.5,815.5z"/>
				<path class="st11" d="M2241,705l-6.6-12.5l101.6-53.8c2.8-1.5,6.4-0.4,7.9,2.4l1.2,2.2c1.5,2.8,0.4,6.4-2.4,7.9L2241,705z"/>
				<path class="st12" d="M2370.4,786.9l-2.7-1.5l-35.1-18.9l-58.8-31.8c-1.1-7.1-0.3-13.1,4-17.2l-2.9-1.2c-4.8-2-8.3-6.3-9.2-11.4
					l-0.1-0.6c-1.5-5.1-0.8-9.9-0.3-12.5l1.4-1.8c3.4-4.5,5-6.8,9.4-10.3l-7.5,0.4c0,0-18.5,5.1-9.9-6.8
					c5.9-8.3,19.2-15.2,26.8-18.7c3.2-1.5,7-0.8,9.5,1.7c25.4,26.4,70.2,58,70.2,58l0.5,6.5l4.3,59.4L2370.4,786.9z"/>
				<g>
					<path class="st13" d="M2301.1,685.8l-16-7.8c-1.7-0.8-3.5-1.1-5.4-0.8l-17.1,3l-0.5-2.6l17.1-3c2.4-0.4,4.8-0.1,7,1l16,7.8
						L2301.1,685.8z"/>
					<path class="st13" d="M2298.1,700.8l-19.2-7.4c-0.9-0.3-1.8-0.5-2.7-0.5h-10.9v-2.6h10.9c1.2,0,2.5,0.2,3.6,0.7l19.2,7.4
						L2298.1,700.8z"/>
					<path class="st13" d="M2295.4,715.8l-17.4-6.6c-1.4-0.5-2.9-0.7-4.3-0.5l-7.1,0.8l-0.3-2.6l7.1-0.8c1.9-0.2,3.8,0,5.6,0.7
						l17.4,6.6L2295.4,715.8z"/>
				</g>
				<polygon class="st13" points="2369.9,780 2367.7,785.4 2332.6,766.4 2355.9,707.5 2365.6,720.6 				"/>
				<path class="st15" d="M2347.5,815.5c0,0,52.5,49.8,95.2,48.5l-12.3-58.6L2347.5,815.5z"/>
				<path class="st9" d="M2291.1,556.3c0,0,6.5-0.7,17.2-0.3c105.9,3.6,187,94.7,181.9,200.6c-2.1,43.8-13.5,87.2-50.1,88.1
					l-92.6-29.1c8.7-32.7,15.3-66.7,8.4-108l43,20.5L2291.1,556.3z"/>
				<polygon class="st3" points="2321.3,811.5 2191.9,814.6 2188.3,803.7 2175.3,763.7 2137.6,648 2267.1,644.8 				"/>
				<path class="st17" d="M2202.8,749.8c0,0-0.2,35.8-14.4,53.9l-13-40L2202.8,749.8z"/>
				<g>
					<path class="st12" d="M2140,747c4.1-13.2,11.5-25.3,19.7-36.3c2.6-3.5,8.3-12.1,13.7-10.8c11,2.6,0,22,0,22s10.6-15.9,14.5-7.9
						c4,7.9-1.8,16.8-1.8,16.8s16.8-11,10.6,11c0,0,13.7-1.8,5.3,13.2c-6,10.7-9.8,22.6-17.3,32.5c-7.5,9.9-21.7,15.5-33.5,9.8
						c-13.8-6.6-15.6-24.3-13.9-37.8C2137.8,755.3,2138.8,751.1,2140,747z"/>
					<path class="st13" d="M2163.8,743.6c-0.2,0-0.4,0-0.5-0.1c-0.7-0.3-1-1.1-0.7-1.7l12.6-28.4c0.3-0.7,1.1-1,1.7-0.7
						c0.7,0.3,1,1.1,0.7,1.7l-12.6,28.4C2164.8,743.3,2164.3,743.6,2163.8,743.6z"/>
					<path class="st13" d="M2176.7,754.1c-0.2,0-0.4,0-0.6-0.1c-0.7-0.3-0.9-1.1-0.6-1.8l11.9-25.5c0.3-0.7,1.1-0.9,1.8-0.6
						c0.7,0.3,0.9,1.1,0.6,1.8l-11.9,25.5C2177.6,753.8,2177.2,754.1,2176.7,754.1z"/>
					<path class="st13" d="M2186.6,762.7c-0.2,0-0.4,0-0.6-0.2c-0.6-0.3-0.9-1.1-0.6-1.8l10.3-19.5c0.3-0.6,1.1-0.9,1.8-0.6
						c0.6,0.3,0.9,1.1,0.6,1.8l-10.3,19.5C2187.5,762.5,2187.1,762.7,2186.6,762.7z"/>
				</g>
				<polygon class="st11" points="2229.3,656.4 2183.1,656.4 2175.1,640.5 2221.4,640.5 				"/>
				<path class="st15" d="M2289.8,608c-13.7,0-22.8-6.8-22.9-6.9c-0.9-0.7-1-1.9-0.4-2.8c0.7-0.9,1.9-1,2.8-0.4
					c0.8,0.6,18.7,13.9,42.7-0.6c0.9-0.6,2.2-0.3,2.7,0.7c0.6,0.9,0.3,2.2-0.7,2.7C2305.2,606.2,2296.9,608,2289.8,608z"/>
				<path class="st15" d="M2347.5,817.5c-0.2,0-0.4,0-0.6-0.1c-1-0.3-1.6-1.4-1.3-2.5c19-64.4,8.5-106.5,8.4-107l-0.8-3l81.9,13.7
					c1.1,0.2,1.8,1.2,1.6,2.3c-0.2,1.1-1.3,1.8-2.3,1.6l-76-12.7c2,10.8,7.5,50.4-9,106.1C2349.2,816.9,2348.4,817.5,2347.5,817.5z"
					/>
				<path class="st15" d="M2407.5,717.4c0,0-0.1,0-0.1,0c-1.1-0.1-1.9-1-1.9-2.1c0-0.4,2.2-43.1-27.4-86.9c-0.6-0.9-0.4-2.1,0.5-2.8
					c0.9-0.6,2.1-0.4,2.8,0.5c30.4,45,28.1,89,28.1,89.4C2409.4,716.6,2408.5,717.4,2407.5,717.4z"/>
			</g>
			<g>
				<path class="st12" d="M2327.4,507.6v51.1c0,16.5-12.8,29.8-28.7,29.8c-15.8,0-28.7-13.3-28.7-29.8v-51.1H2327.4z"/>
				<path class="st11" d="M2300.3,514.4c0,0-3,31.5-30.3,40.7v-44.8L2300.3,514.4z"/>
				<path class="st12" d="M2248.4,449.4c0,0-8.9,71.6,19,80.1c27.9,8.5,53.4-16.2,53.4-16.2l-5.3-59.1l-41.3-24.3L2248.4,449.4z"/>
				<path class="st11" d="M2407.2,588.6l-55.1,3.7c-7-7.7-10.9-18.5-13.5-30.6c-2.3,12.5-0.5,22.9,5.7,31.2l-14.9,1
					c-13.2-19.8-24.3-63.6-11.2-101.1l1.5-8.8c0,0-9.4-28.5-23.1-29.7c0,0-46.8,31.6-67.7-3.7c-15.6-26.2-2.4-60.7,35-35.3
					c0,0,89.9-42.2,89.7,44.3c-0.1,15.5,5.8,30.7,17.2,41.1c1,1,2,1.9,3.1,2.7C2394.2,519.3,2415.9,551.1,2407.2,588.6z"/>
				
					<ellipse transform="matrix(0.3066 -0.9518 0.9518 0.3066 1148.3824 2544.9587)" class="st12" cx="2321" cy="484.3" rx="15.7" ry="13.4"/>
				<path class="st11" d="M2319.3,489.3c-0.7,0-1.3-0.6-1.3-1.3c0-5.7,4.5-10.8,9.8-11c0,0,0,0,0.1,0c0.7,0,1.3,0.5,1.3,1.3
					c0,0.7-0.5,1.4-1.3,1.4c-3.5,0.2-7.3,3.6-7.3,8.4C2320.6,488.7,2320,489.3,2319.3,489.3z"/>
				<path class="st11" d="M2258.2,476.7c0,1.8-1.5,3.3-3.3,3.3c-1.8,0-3.3-1.5-3.3-3.3s1.5-3.3,3.3-3.3
					C2256.7,473.4,2258.2,474.9,2258.2,476.7z"/>
				<path class="st11" d="M2278.2,475c0,1.8-1.5,3.3-3.3,3.3s-3.3-1.5-3.3-3.3s1.5-3.3,3.3-3.3S2278.2,473.2,2278.2,475z"/>
				<path class="st11" d="M2263,498.9c-0.3,0-0.7-0.1-0.9-0.4c-2.7-2.6-3.8-5.1-3.3-7.4c0.5-2.3,2.6-3.7,3.8-4.3l-0.3-6.5
					c0-0.7,0.5-1.3,1.3-1.4c0.7,0,1.3,0.5,1.4,1.3l0.4,8.4l-0.9,0.3c-0.7,0.3-2.7,1.2-3,2.8c-0.4,1.7,1.2,3.6,2.5,4.9
					c0.5,0.5,0.5,1.3,0,1.9C2263.7,498.7,2263.3,498.9,2263,498.9z"/>
				<path class="st11" d="M2265.6,508.4c-1.1,0-1.8-0.1-1.9-0.1c-0.7-0.1-1.2-0.8-1.1-1.5c0.1-0.7,0.8-1.2,1.5-1.1
					c0.1,0,6.8,1,12.7-4.2c0.5-0.5,1.4-0.4,1.9,0.1c0.5,0.6,0.4,1.4-0.1,1.9C2273.7,507.7,2268.4,508.4,2265.6,508.4z"/>
				<circle class="st14" cx="2291.3" cy="490.2" r="8.7"/>
			</g>
		</g>
		<rect x="97.9" y="1548.3" class="st11" width="2823.1" height="5.3"/>
	</g>
</g>
</svg>
