<?xml version="1.0" encoding="utf-8"?>
<!-- Generator: Adobe Illustrator 24.1.1, SVG Export Plug-In . SVG Version: 6.00 Build 0)  -->
<svg version="1.1" id="Layer_1" xmlns="http://www.w3.org/2000/svg" xmlns:xlink="http://www.w3.org/1999/xlink" x="0px" y="0px"
	 viewBox="0 0 1080.4 675.7" style="enable-background:new 0 0 1080.4 675.7;" xml:space="preserve">
<style type="text/css">
	.st0{fill:#86B0A4;}
	.st1{fill:#F0CC00;}
	.st2{fill:#FFFFFF;}
	.st3{fill:#00BBC2;}
	.st4{fill:#596B77;}
	.st5{fill:#DEB501;}
	.st6{fill:#039CA2;}
	.st7{fill:#47535F;}
	.st8{opacity:0.3;}
</style>
<rect x="884" class="st0" width="197.2" height="167"/>
<g id="heading">
	<g>
		<rect x="293.9" class="st1" width="392.3" height="135.7"/>
		<g>
			<path class="st2" d="M387.4,74.3h-4.6v9.2h-4.2v-24h8.4c2.8,0,4.9,0.6,6.4,1.9c1.5,1.2,2.3,3,2.3,5.4c0,1.6-0.4,2.9-1.2,4
				c-0.8,1.1-1.9,1.9-3.2,2.5l5.4,10v0.2h-4.5L387.4,74.3z M382.7,70.9h4.3c1.4,0,2.5-0.4,3.3-1.1c0.8-0.7,1.2-1.7,1.2-2.9
				c0-1.3-0.4-2.3-1.1-3c-0.7-0.7-1.8-1.1-3.3-1.1h-4.4V70.9z"/>
			<path class="st2" d="M407.1,83.8c-2.5,0-4.6-0.8-6.2-2.4c-1.6-1.6-2.4-3.7-2.4-6.4v-0.5c0-1.8,0.3-3.4,1-4.8
				c0.7-1.4,1.6-2.5,2.9-3.3c1.2-0.8,2.6-1.2,4.1-1.2c2.4,0,4.3,0.8,5.6,2.3c1.3,1.5,2,3.7,2,6.6v1.6h-11.6c0.1,1.5,0.6,2.6,1.5,3.5
				c0.9,0.9,1.9,1.3,3.3,1.3c1.8,0,3.3-0.7,4.5-2.2l2.2,2.1c-0.7,1.1-1.7,1.9-2.9,2.5C409.9,83.5,408.6,83.8,407.1,83.8z
				 M406.6,68.6c-1.1,0-2,0.4-2.7,1.2c-0.7,0.8-1.1,1.8-1.3,3.2h7.6v-0.3c-0.1-1.3-0.4-2.4-1.1-3C408.6,68.9,407.7,68.6,406.6,68.6z
				"/>
			<path class="st2" d="M427.3,78.7c0-0.7-0.3-1.3-0.9-1.6c-0.6-0.4-1.6-0.7-2.9-1c-1.4-0.3-2.5-0.6-3.4-1.1c-2-1-3-2.4-3-4.2
				c0-1.5,0.6-2.8,1.9-3.9s2.9-1.5,4.9-1.5c2.1,0,3.9,0.5,5.2,1.6c1.3,1.1,2,2.4,2,4.1h-4c0-0.8-0.3-1.4-0.9-1.9
				c-0.6-0.5-1.3-0.8-2.3-0.8c-0.9,0-1.6,0.2-2.1,0.6c-0.6,0.4-0.8,0.9-0.8,1.6c0,0.6,0.3,1.1,0.8,1.4s1.6,0.7,3.1,1
				c1.6,0.3,2.8,0.8,3.7,1.2c0.9,0.5,1.6,1.1,2,1.7c0.4,0.7,0.7,1.5,0.7,2.4c0,1.6-0.7,2.9-2,3.9c-1.3,1-3.1,1.5-5.2,1.5
				c-1.5,0-2.8-0.3-3.9-0.8c-1.1-0.5-2-1.3-2.7-2.2c-0.6-0.9-1-1.9-1-3h3.9c0.1,0.9,0.4,1.7,1.1,2.2c0.7,0.5,1.5,0.8,2.6,0.8
				c1.1,0,1.9-0.2,2.4-0.6C427,79.8,427.3,79.3,427.3,78.7z"/>
			<path class="st2" d="M450.3,74.8c0,2.8-0.6,5-1.9,6.6c-1.3,1.6-2.9,2.5-5,2.5c-2,0-3.5-0.6-4.7-1.9v8.4h-4V65.7h3.7l0.2,1.8
				c1.2-1.4,2.8-2.1,4.8-2.1c2.2,0,3.9,0.8,5.1,2.4c1.2,1.6,1.9,3.9,1.9,6.7V74.8z M446.4,74.4c0-1.8-0.4-3.2-1.1-4.2
				c-0.7-1-1.7-1.6-3-1.6c-1.6,0-2.8,0.7-3.5,2v7.9c0.7,1.4,1.9,2.1,3.6,2.1c1.3,0,2.3-0.5,3-1.5C446,78.1,446.4,76.5,446.4,74.4z"
				/>
			<path class="st2" d="M453,74.4c0-1.7,0.3-3.3,1-4.7c0.7-1.4,1.7-2.5,2.9-3.2s2.7-1.1,4.3-1.1c2.4,0,4.4,0.8,5.9,2.3
				s2.3,3.6,2.4,6.2l0,0.9c0,1.8-0.3,3.3-1,4.7s-1.6,2.5-2.9,3.2c-1.3,0.8-2.7,1.1-4.4,1.1c-2.5,0-4.5-0.8-6-2.5
				c-1.5-1.7-2.3-3.9-2.3-6.7V74.4z M457,74.8c0,1.8,0.4,3.3,1.1,4.3c0.8,1,1.8,1.6,3.2,1.6c1.4,0,2.4-0.5,3.2-1.6
				c0.8-1.1,1.1-2.6,1.1-4.6c0-1.8-0.4-3.2-1.2-4.3c-0.8-1.1-1.8-1.6-3.2-1.6c-1.3,0-2.3,0.5-3.1,1.6C457.4,71.2,457,72.7,457,74.8z
				"/>
			<path class="st2" d="M476.6,65.7l0.1,2.1c1.3-1.6,3-2.4,5.2-2.4c3.7,0,5.6,2.1,5.7,6.4v11.8h-4V72c0-1.1-0.2-2-0.7-2.5
				c-0.5-0.5-1.3-0.8-2.4-0.8c-1.6,0-2.8,0.7-3.6,2.2v12.7h-4V65.7H476.6z"/>
			<path class="st2" d="M501.7,78.7c0-0.7-0.3-1.3-0.9-1.6c-0.6-0.4-1.6-0.7-2.9-1c-1.4-0.3-2.5-0.6-3.4-1.1c-2-1-3-2.4-3-4.2
				c0-1.5,0.6-2.8,1.9-3.9s2.9-1.5,4.9-1.5c2.1,0,3.9,0.5,5.2,1.6c1.3,1.1,2,2.4,2,4.1h-4c0-0.8-0.3-1.4-0.9-1.9
				c-0.6-0.5-1.3-0.8-2.3-0.8c-0.9,0-1.6,0.2-2.1,0.6c-0.6,0.4-0.8,0.9-0.8,1.6c0,0.6,0.3,1.1,0.8,1.4s1.6,0.7,3.1,1
				c1.6,0.3,2.8,0.8,3.7,1.2c0.9,0.5,1.6,1.1,2,1.7c0.4,0.7,0.7,1.5,0.7,2.4c0,1.6-0.7,2.9-2,3.9c-1.3,1-3.1,1.5-5.2,1.5
				c-1.5,0-2.8-0.3-3.9-0.8c-1.1-0.5-2-1.3-2.7-2.2c-0.6-0.9-1-1.9-1-3h3.9c0.1,0.9,0.4,1.7,1.1,2.2c0.7,0.5,1.5,0.8,2.6,0.8
				c1.1,0,1.9-0.2,2.4-0.6C501.4,79.8,501.7,79.3,501.7,78.7z"/>
			<path class="st2" d="M516.9,83.8c-2.5,0-4.6-0.8-6.2-2.4c-1.6-1.6-2.4-3.7-2.4-6.4v-0.5c0-1.8,0.3-3.4,1-4.8
				c0.7-1.4,1.6-2.5,2.9-3.3c1.2-0.8,2.6-1.2,4.1-1.2c2.4,0,4.3,0.8,5.6,2.3c1.3,1.5,2,3.7,2,6.6v1.6h-11.6c0.1,1.5,0.6,2.6,1.5,3.5
				c0.9,0.9,1.9,1.3,3.3,1.3c1.8,0,3.3-0.7,4.5-2.2l2.2,2.1c-0.7,1.1-1.7,1.9-2.9,2.5C519.8,83.5,518.4,83.8,516.9,83.8z
				 M516.5,68.6c-1.1,0-2,0.4-2.7,1.2c-0.7,0.8-1.1,1.8-1.3,3.2h7.6v-0.3c-0.1-1.3-0.4-2.4-1.1-3C518.4,68.9,517.6,68.6,516.5,68.6z
				"/>
			<path class="st2" d="M549,61.4v4.3h3.1v3H549v9.9c0,0.7,0.1,1.2,0.4,1.5c0.3,0.3,0.7,0.5,1.4,0.5c0.5,0,0.9-0.1,1.4-0.2v3.1
				c-0.9,0.3-1.8,0.4-2.6,0.4c-3.1,0-4.6-1.7-4.6-5.1V68.7h-2.9v-3h2.9v-4.3H549z"/>
			<path class="st2" d="M555.2,61.1c0-0.6,0.2-1.1,0.6-1.5c0.4-0.4,0.9-0.6,1.7-0.6s1.3,0.2,1.7,0.6c0.4,0.4,0.6,0.9,0.6,1.5
				c0,0.6-0.2,1.1-0.6,1.5c-0.4,0.4-1,0.6-1.7,0.6s-1.3-0.2-1.7-0.6S555.2,61.7,555.2,61.1z M559.5,83.5h-4V65.7h4V83.5z"/>
			<path class="st2" d="M567.6,65.7l0.1,1.9c1.3-1.5,3-2.2,5.1-2.2c2.4,0,4,0.9,4.9,2.7c1.3-1.8,3.1-2.7,5.5-2.7
				c2,0,3.4,0.5,4.4,1.6c1,1.1,1.5,2.7,1.5,4.8v11.7h-4V71.9c0-1.1-0.2-2-0.7-2.5c-0.5-0.5-1.3-0.8-2.5-0.8c-0.9,0-1.7,0.2-2.2,0.7
				c-0.6,0.5-1,1.1-1.2,1.9l0,12.2h-4V71.8c-0.1-2.1-1.1-3.1-3.2-3.1c-1.6,0-2.7,0.7-3.4,2v12.9h-4V65.7H567.6z"/>
			<path class="st2" d="M601,83.8c-2.5,0-4.6-0.8-6.2-2.4c-1.6-1.6-2.4-3.7-2.4-6.4v-0.5c0-1.8,0.3-3.4,1-4.8
				c0.7-1.4,1.6-2.5,2.9-3.3c1.2-0.8,2.6-1.2,4.1-1.2c2.4,0,4.3,0.8,5.6,2.3c1.3,1.5,2,3.7,2,6.6v1.6h-11.6c0.1,1.5,0.6,2.6,1.5,3.5
				c0.9,0.9,1.9,1.3,3.3,1.3c1.8,0,3.3-0.7,4.5-2.2l2.2,2.1c-0.7,1.1-1.7,1.9-2.9,2.5C603.8,83.5,602.5,83.8,601,83.8z M600.5,68.6
				c-1.1,0-2,0.4-2.7,1.2c-0.7,0.8-1.1,1.8-1.3,3.2h7.6v-0.3c-0.1-1.3-0.4-2.4-1.1-3C602.5,68.9,601.6,68.6,600.5,68.6z"/>
		</g>
	</g>
	<g>
		<rect x="686.2" class="st3" width="395" height="135.7"/>
		<g>
			<path class="st2" d="M772.9,75.3h-4.6v9.2h-4.2v-24h8.4c2.8,0,4.9,0.6,6.4,1.9s2.3,3,2.3,5.4c0,1.6-0.4,2.9-1.2,4
				c-0.8,1.1-1.9,1.9-3.2,2.5l5.4,10v0.2h-4.5L772.9,75.3z M768.2,71.9h4.3c1.4,0,2.5-0.4,3.3-1.1c0.8-0.7,1.2-1.7,1.2-2.9
				c0-1.3-0.4-2.3-1.1-3c-0.7-0.7-1.8-1.1-3.3-1.1h-4.4V71.9z"/>
			<path class="st2" d="M792.6,84.8c-2.5,0-4.6-0.8-6.2-2.4c-1.6-1.6-2.4-3.7-2.4-6.4v-0.5c0-1.8,0.3-3.4,1-4.8
				c0.7-1.4,1.6-2.5,2.9-3.3c1.2-0.8,2.6-1.2,4.1-1.2c2.4,0,4.3,0.8,5.6,2.3s2,3.7,2,6.6v1.6h-11.6c0.1,1.5,0.6,2.6,1.5,3.5
				s1.9,1.3,3.3,1.3c1.8,0,3.3-0.7,4.5-2.2l2.2,2.1c-0.7,1.1-1.7,1.9-2.9,2.5C795.4,84.5,794.1,84.8,792.6,84.8z M792.1,69.6
				c-1.1,0-2,0.4-2.7,1.2s-1.1,1.8-1.3,3.2h7.6v-0.3c-0.1-1.3-0.4-2.4-1.1-3S793.2,69.6,792.1,69.6z"/>
			<path class="st2" d="M812.8,79.7c0-0.7-0.3-1.3-0.9-1.6c-0.6-0.4-1.6-0.7-2.9-1c-1.4-0.3-2.5-0.6-3.4-1.1c-2-1-3-2.4-3-4.2
				c0-1.5,0.6-2.8,1.9-3.9c1.3-1,2.9-1.5,4.9-1.5c2.1,0,3.9,0.5,5.2,1.6c1.3,1.1,2,2.4,2,4.1h-4c0-0.8-0.3-1.4-0.9-1.9
				c-0.6-0.5-1.3-0.8-2.3-0.8c-0.9,0-1.6,0.2-2.1,0.6c-0.6,0.4-0.8,0.9-0.8,1.6c0,0.6,0.3,1.1,0.8,1.4c0.5,0.3,1.6,0.7,3.1,1
				c1.6,0.3,2.8,0.8,3.7,1.2c0.9,0.5,1.6,1.1,2,1.7c0.4,0.7,0.7,1.5,0.7,2.4c0,1.6-0.7,2.9-2,3.9c-1.3,1-3.1,1.5-5.2,1.5
				c-1.5,0-2.8-0.3-3.9-0.8c-1.1-0.5-2-1.3-2.7-2.2c-0.6-0.9-1-1.9-1-3h3.9c0.1,0.9,0.4,1.7,1.1,2.2c0.7,0.5,1.5,0.8,2.6,0.8
				c1.1,0,1.9-0.2,2.4-0.6C812.5,80.8,812.8,80.3,812.8,79.7z"/>
			<path class="st2" d="M819.5,75.4c0-1.7,0.3-3.3,1-4.7s1.7-2.5,2.9-3.2c1.3-0.8,2.7-1.1,4.3-1.1c2.4,0,4.4,0.8,5.9,2.3
				c1.5,1.5,2.3,3.6,2.4,6.2l0,0.9c0,1.8-0.3,3.3-1,4.7c-0.7,1.4-1.6,2.5-2.9,3.2c-1.3,0.8-2.7,1.1-4.4,1.1c-2.5,0-4.5-0.8-6-2.5
				c-1.5-1.7-2.3-3.9-2.3-6.7V75.4z M823.5,75.8c0,1.8,0.4,3.3,1.1,4.3c0.8,1,1.8,1.6,3.2,1.6c1.3,0,2.4-0.5,3.2-1.6
				c0.8-1.1,1.1-2.6,1.1-4.6c0-1.8-0.4-3.2-1.2-4.3c-0.8-1.1-1.8-1.6-3.2-1.6c-1.3,0-2.3,0.5-3.1,1.6
				C823.9,72.2,823.5,73.7,823.5,75.8z"/>
			<path class="st2" d="M843.7,84.5h-4V59.2h4V84.5z"/>
			<path class="st2" d="M858.8,82.8c-1.2,1.4-2.8,2.1-5,2.1c-1.9,0-3.4-0.6-4.4-1.7s-1.5-2.8-1.5-4.9V66.7h4v11.5
				c0,2.3,0.9,3.4,2.8,3.4c1.9,0,3.3-0.7,3.9-2.1V66.7h4v17.8h-3.8L858.8,82.8z"/>
			<path class="st2" d="M871.8,62.4v4.3h3.1v3h-3.1v9.9c0,0.7,0.1,1.2,0.4,1.5c0.3,0.3,0.7,0.5,1.4,0.5c0.5,0,0.9-0.1,1.4-0.2v3.1
				c-0.9,0.3-1.8,0.4-2.6,0.4c-3.1,0-4.6-1.7-4.6-5.1V69.7h-2.9v-3h2.9v-4.3H871.8z"/>
			<path class="st2" d="M878,62.1c0-0.6,0.2-1.1,0.6-1.5c0.4-0.4,0.9-0.6,1.7-0.6s1.3,0.2,1.7,0.6c0.4,0.4,0.6,0.9,0.6,1.5
				c0,0.6-0.2,1.1-0.6,1.5c-0.4,0.4-1,0.6-1.7,0.6s-1.3-0.2-1.7-0.6S878,62.7,878,62.1z M882.3,84.5h-4V66.7h4V84.5z"/>
			<path class="st2" d="M885.9,75.4c0-1.7,0.3-3.3,1-4.7c0.7-1.4,1.7-2.5,2.9-3.2c1.3-0.8,2.7-1.1,4.3-1.1c2.4,0,4.4,0.8,5.9,2.3
				c1.5,1.5,2.3,3.6,2.4,6.2l0,0.9c0,1.8-0.3,3.3-1,4.7c-0.7,1.4-1.6,2.5-2.9,3.2c-1.3,0.8-2.7,1.1-4.4,1.1c-2.5,0-4.5-0.8-6-2.5
				c-1.5-1.7-2.3-3.9-2.3-6.7V75.4z M889.9,75.8c0,1.8,0.4,3.3,1.1,4.3c0.8,1,1.8,1.6,3.2,1.6s2.4-0.5,3.2-1.6
				c0.8-1.1,1.1-2.6,1.1-4.6c0-1.8-0.4-3.2-1.2-4.3c-0.8-1.1-1.8-1.6-3.2-1.6c-1.3,0-2.3,0.5-3.1,1.6
				C890.2,72.2,889.9,73.7,889.9,75.8z"/>
			<path class="st2" d="M909.5,66.7l0.1,2.1c1.3-1.6,3-2.4,5.2-2.4c3.7,0,5.6,2.1,5.7,6.4v11.8h-4V73c0-1.1-0.2-2-0.7-2.5
				c-0.5-0.5-1.3-0.8-2.4-0.8c-1.6,0-2.8,0.7-3.6,2.2v12.7h-4V66.7H909.5z"/>
			<path class="st2" d="M938,62.4v4.3h3.1v3H938v9.9c0,0.7,0.1,1.2,0.4,1.5c0.3,0.3,0.7,0.5,1.4,0.5c0.5,0,0.9-0.1,1.4-0.2v3.1
				c-0.9,0.3-1.8,0.4-2.6,0.4c-3.1,0-4.6-1.7-4.6-5.1V69.7h-2.9v-3h2.9v-4.3H938z"/>
			<path class="st2" d="M944.2,62.1c0-0.6,0.2-1.1,0.6-1.5c0.4-0.4,0.9-0.6,1.7-0.6s1.3,0.2,1.7,0.6c0.4,0.4,0.6,0.9,0.6,1.5
				c0,0.6-0.2,1.1-0.6,1.5c-0.4,0.4-1,0.6-1.7,0.6s-1.3-0.2-1.7-0.6S944.2,62.7,944.2,62.1z M948.4,84.5h-4V66.7h4V84.5z"/>
			<path class="st2" d="M956.6,66.7l0.1,1.9c1.3-1.5,3-2.2,5.1-2.2c2.4,0,4,0.9,4.9,2.7c1.3-1.8,3.1-2.7,5.5-2.7
				c2,0,3.4,0.5,4.4,1.6c1,1.1,1.5,2.7,1.5,4.8v11.7h-4V72.9c0-1.1-0.2-2-0.7-2.5c-0.5-0.5-1.3-0.8-2.5-0.8c-0.9,0-1.7,0.2-2.2,0.7
				c-0.6,0.5-1,1.1-1.2,1.9l0,12.2h-4V72.8c-0.1-2.1-1.1-3.1-3.2-3.1c-1.6,0-2.7,0.7-3.4,2v12.9h-4V66.7H956.6z"/>
			<path class="st2" d="M990,84.8c-2.5,0-4.6-0.8-6.2-2.4c-1.6-1.6-2.4-3.7-2.4-6.4v-0.5c0-1.8,0.3-3.4,1-4.8
				c0.7-1.4,1.6-2.5,2.9-3.3c1.2-0.8,2.6-1.2,4.2-1.2c2.4,0,4.3,0.8,5.6,2.3c1.3,1.5,2,3.7,2,6.6v1.6h-11.6c0.1,1.5,0.6,2.6,1.5,3.5
				c0.9,0.9,1.9,1.3,3.3,1.3c1.8,0,3.3-0.7,4.5-2.2l2.2,2.1c-0.7,1.1-1.7,1.9-2.9,2.5C992.8,84.5,991.5,84.8,990,84.8z M989.5,69.6
				c-1.1,0-2,0.4-2.7,1.2c-0.7,0.8-1.1,1.8-1.3,3.2h7.6v-0.3c-0.1-1.3-0.4-2.4-1.1-3C991.5,69.9,990.6,69.6,989.5,69.6z"/>
		</g>
	</g>
	<g>
		<rect class="st4" width="293.7" height="135.7"/>
		<polygon class="st4" points="293.7,61.8 318.1,80.4 293.7,101 		"/>
		<g>
			<path class="st2" d="M88.5,75.2c0-1.1-0.4-1.9-1.1-2.4c-0.7-0.6-2.1-1.1-4-1.7s-3.5-1.2-4.6-1.9c-2.2-1.4-3.3-3.2-3.3-5.4
				c0-1.9,0.8-3.5,2.4-4.8c1.6-1.3,3.6-1.9,6.1-1.9c1.7,0,3.2,0.3,4.5,0.9c1.3,0.6,2.3,1.5,3.1,2.6s1.1,2.4,1.1,3.8h-4.1
				c0-1.3-0.4-2.2-1.2-2.9c-0.8-0.7-1.9-1.1-3.4-1.1c-1.4,0-2.4,0.3-3.2,0.9c-0.8,0.6-1.1,1.4-1.1,2.4c0,0.9,0.4,1.6,1.2,2.2
				s2.2,1.2,4,1.7c1.9,0.6,3.4,1.2,4.5,1.9c1.1,0.7,2,1.5,2.5,2.4s0.8,2,0.8,3.2c0,2-0.8,3.6-2.3,4.8c-1.5,1.2-3.6,1.8-6.2,1.8
				c-1.7,0-3.3-0.3-4.8-1c-1.5-0.6-2.6-1.5-3.4-2.7c-0.8-1.1-1.2-2.4-1.2-4h4.2c0,1.4,0.4,2.4,1.4,3.2c0.9,0.7,2.2,1.1,3.9,1.1
				c1.4,0,2.5-0.3,3.3-0.9C88.2,77,88.5,76.2,88.5,75.2z"/>
			<path class="st2" d="M103.8,81.7c-2.5,0-4.6-0.8-6.2-2.4c-1.6-1.6-2.4-3.7-2.4-6.4v-0.5c0-1.8,0.3-3.4,1-4.8
				c0.7-1.4,1.6-2.5,2.9-3.3c1.2-0.8,2.6-1.2,4.1-1.2c2.4,0,4.3,0.8,5.6,2.3c1.3,1.5,2,3.7,2,6.6v1.6H99.3c0.1,1.5,0.6,2.6,1.5,3.5
				c0.9,0.9,1.9,1.3,3.3,1.3c1.8,0,3.3-0.7,4.5-2.2l2.2,2.1c-0.7,1.1-1.7,1.9-2.9,2.5C106.6,81.4,105.3,81.7,103.8,81.7z
				 M103.3,66.5c-1.1,0-2,0.4-2.7,1.2c-0.7,0.8-1.1,1.8-1.3,3.2h7.6v-0.3c-0.1-1.3-0.4-2.4-1.1-3C105.3,66.8,104.4,66.5,103.3,66.5z
				"/>
			<path class="st2" d="M120.1,76.3l3.8-12.7h4.1l-6.2,17.8h-3.5l-6.2-17.8h4.1L120.1,76.3z"/>
			<path class="st2" d="M138.2,81.7c-2.5,0-4.6-0.8-6.2-2.4c-1.6-1.6-2.4-3.7-2.4-6.4v-0.5c0-1.8,0.3-3.4,1-4.8
				c0.7-1.4,1.6-2.5,2.9-3.3c1.2-0.8,2.6-1.2,4.1-1.2c2.4,0,4.3,0.8,5.6,2.3c1.3,1.5,2,3.7,2,6.6v1.6h-11.6c0.1,1.5,0.6,2.6,1.5,3.5
				c0.9,0.9,1.9,1.3,3.3,1.3c1.8,0,3.3-0.7,4.5-2.2l2.2,2.1c-0.7,1.1-1.7,1.9-2.9,2.5C141,81.4,139.6,81.7,138.2,81.7z M137.7,66.5
				c-1.1,0-2,0.4-2.7,1.2c-0.7,0.8-1.1,1.8-1.3,3.2h7.6v-0.3c-0.1-1.3-0.4-2.4-1.1-3C139.7,66.8,138.8,66.5,137.7,66.5z"/>
			<path class="st2" d="M157.7,67.2c-0.5-0.1-1.1-0.1-1.6-0.1c-1.8,0-3.1,0.7-3.7,2.1v12.2h-4V63.6h3.8l0.1,2c1-1.5,2.3-2.3,4-2.3
				c0.6,0,1,0.1,1.4,0.2L157.7,67.2z"/>
			<path class="st2" d="M160.3,59c0-0.6,0.2-1.1,0.6-1.5c0.4-0.4,0.9-0.6,1.7-0.6s1.3,0.2,1.7,0.6c0.4,0.4,0.6,0.9,0.6,1.5
				c0,0.6-0.2,1.1-0.6,1.5c-0.4,0.4-1,0.6-1.7,0.6s-1.3-0.2-1.7-0.6S160.3,59.6,160.3,59z M164.5,81.4h-4V63.6h4V81.4z"/>
			<path class="st2" d="M173.9,59.3v4.3h3.1v3h-3.1v9.9c0,0.7,0.1,1.2,0.4,1.5c0.3,0.3,0.7,0.5,1.4,0.5c0.5,0,0.9-0.1,1.4-0.2v3.1
				c-0.9,0.3-1.8,0.4-2.6,0.4c-3.1,0-4.6-1.7-4.6-5.1V66.6H167v-3h2.9v-4.3H173.9z"/>
			<path class="st2" d="M186.3,75.7l3.6-12.1h4.3l-7.1,20.5c-1.1,3-2.9,4.5-5.5,4.5c-0.6,0-1.2-0.1-1.9-0.3v-3.1l0.8,0
				c1,0,1.8-0.2,2.3-0.6c0.5-0.4,0.9-1,1.2-1.9l0.6-1.5l-6.3-17.7h4.3L186.3,75.7z"/>
		</g>
	</g>
</g>
<g id="issue_1">
	<g>
		<rect x="293.5" y="136" class="st5" width="392.3" height="134.1"/>
		<g>
			<path class="st2" d="M351.3,194.7h-5.2v-25l-7.6,2.6v-4.4l12.1-4.5h0.7V194.7z"/>
			<path class="st2" d="M382.3,181.6c0,4.5-0.8,7.8-2.5,10.1c-1.7,2.3-4.2,3.4-7.6,3.4c-3.4,0-5.9-1.1-7.6-3.3
				c-1.7-2.2-2.6-5.5-2.6-9.8v-5.4c0-4.5,0.8-7.8,2.5-10.1c1.7-2.2,4.2-3.4,7.7-3.4c3.4,0,5.9,1.1,7.6,3.3c1.7,2.2,2.5,5.4,2.6,9.8
				V181.6z M377.1,175.8c0-2.9-0.4-5.1-1.2-6.4c-0.8-1.4-2.1-2-3.8-2c-1.7,0-2.9,0.6-3.7,1.9c-0.8,1.3-1.2,3.3-1.3,6v7
				c0,2.9,0.4,5.1,1.2,6.5c0.8,1.4,2.1,2.1,3.8,2.1c1.7,0,2.9-0.7,3.7-2c0.8-1.3,1.2-3.4,1.3-6.2V175.8z"/>
			<path class="st2" d="M407.2,181.6c0,4.5-0.8,7.8-2.5,10.1c-1.7,2.3-4.2,3.4-7.6,3.4c-3.4,0-5.9-1.1-7.6-3.3
				c-1.7-2.2-2.6-5.5-2.6-9.8v-5.4c0-4.5,0.8-7.8,2.5-10.1c1.7-2.2,4.2-3.4,7.7-3.4c3.4,0,5.9,1.1,7.6,3.3c1.7,2.2,2.5,5.4,2.6,9.8
				V181.6z M402,175.8c0-2.9-0.4-5.1-1.2-6.4c-0.8-1.4-2.1-2-3.8-2c-1.7,0-2.9,0.6-3.7,1.9c-0.8,1.3-1.2,3.3-1.3,6v7
				c0,2.9,0.4,5.1,1.2,6.5c0.8,1.4,2.1,2.1,3.8,2.1c1.7,0,2.9-0.7,3.7-2c0.8-1.3,1.2-3.4,1.3-6.2V175.8z"/>
			<path class="st2" d="M411.6,169.6c0-1.9,0.6-3.4,1.8-4.6c1.2-1.2,2.8-1.8,4.8-1.8c2,0,3.6,0.6,4.8,1.8c1.2,1.2,1.8,2.8,1.8,4.7
				v1.5c0,1.9-0.6,3.4-1.8,4.6s-2.8,1.8-4.8,1.8c-1.9,0-3.5-0.6-4.8-1.8c-1.2-1.2-1.9-2.8-1.9-4.8V169.6z M415.2,171.2
				c0,1,0.3,1.8,0.8,2.4c0.5,0.6,1.3,0.9,2.2,0.9c0.9,0,1.6-0.3,2.1-0.9c0.5-0.6,0.8-1.4,0.8-2.5v-1.6c0-1-0.3-1.8-0.8-2.4
				c-0.5-0.6-1.3-0.9-2.2-0.9c-0.9,0-1.6,0.3-2.1,0.9c-0.5,0.6-0.8,1.4-0.8,2.5V171.2z M419.2,192.3l-2.7-1.5l15.2-24.3l2.7,1.5
				L419.2,192.3z M426.5,187c0-1.9,0.6-3.5,1.9-4.6c1.2-1.2,2.8-1.8,4.7-1.8c1.9,0,3.5,0.6,4.8,1.8c1.2,1.2,1.8,2.8,1.8,4.8v1.5
				c0,1.9-0.6,3.4-1.8,4.6s-2.8,1.8-4.8,1.8s-3.6-0.6-4.8-1.8c-1.2-1.2-1.8-2.8-1.8-4.7V187z M430.1,188.7c0,1,0.3,1.8,0.8,2.4
				c0.6,0.6,1.3,0.9,2.2,0.9c0.9,0,1.6-0.3,2.1-0.9c0.5-0.6,0.8-1.4,0.8-2.5V187c0-1-0.3-1.8-0.8-2.4c-0.6-0.6-1.3-0.9-2.1-0.9
				c-0.9,0-1.6,0.3-2.1,0.9c-0.5,0.6-0.8,1.4-0.8,2.5V188.7z"/>
		</g>
		<g>
			<path class="st2" d="M535.6,226.6l9.1,3.5v3.8l-13-5.8v-3l13-5.8v3.8L535.6,226.6z"/>
			<path class="st2" d="M560.9,223.4h2.3c1.2,0,2.1-0.3,2.7-0.9c0.7-0.6,1-1.4,1-2.6c0-1.1-0.3-1.9-0.8-2.5s-1.4-0.9-2.6-0.9
				c-1,0-1.8,0.3-2.5,0.9c-0.7,0.6-1,1.3-1,2.3h-3.8c0-1.2,0.3-2.2,0.9-3.2c0.6-0.9,1.5-1.7,2.6-2.2c1.1-0.5,2.3-0.8,3.7-0.8
				c2.3,0,4,0.6,5.3,1.7s1.9,2.7,1.9,4.7c0,1-0.3,2-1,2.9c-0.6,0.9-1.5,1.6-2.5,2c1.2,0.4,2.2,1.1,2.8,2c0.6,0.9,1,2,1,3.3
				c0,2-0.7,3.6-2.1,4.8c-1.4,1.2-3.2,1.8-5.5,1.8c-2.2,0-3.9-0.6-5.3-1.7c-1.4-1.2-2.1-2.7-2.1-4.6h3.8c0,1,0.3,1.8,1,2.4
				s1.6,0.9,2.7,0.9c1.2,0,2.1-0.3,2.8-0.9s1-1.5,1-2.7c0-1.2-0.4-2.1-1.1-2.7c-0.7-0.6-1.7-1-3.1-1h-2.2V223.4z"/>
			<path class="st2" d="M589.2,226.9c0,3.2-0.6,5.7-1.8,7.3c-1.2,1.6-3.1,2.5-5.5,2.5c-2.4,0-4.3-0.8-5.5-2.4
				c-1.2-1.6-1.9-4-1.9-7.1v-3.9c0-3.2,0.6-5.7,1.8-7.3c1.2-1.6,3.1-2.4,5.6-2.4c2.5,0,4.3,0.8,5.5,2.4c1.2,1.6,1.8,3.9,1.9,7.1
				V226.9z M585.5,222.6c0-2.1-0.3-3.7-0.9-4.7c-0.6-1-1.5-1.5-2.8-1.5c-1.2,0-2.1,0.5-2.7,1.4c-0.6,0.9-0.9,2.4-0.9,4.4v5.1
				c0,2.1,0.3,3.7,0.9,4.7c0.6,1,1.5,1.5,2.8,1.5c1.2,0,2.1-0.5,2.7-1.4c0.6-1,0.9-2.5,0.9-4.5V222.6z"/>
			<path class="st2" d="M606.2,213.8l6.5,17.3l6.5-17.3h5.1v22.6h-3.9v-7.4l0.4-9.9l-6.7,17.4h-2.8l-6.6-17.4l0.4,9.9v7.4h-3.9
				v-22.6H606.2z"/>
			<path class="st2" d="M628.5,215.2c0-0.6,0.2-1.1,0.5-1.4c0.4-0.4,0.9-0.6,1.6-0.6s1.2,0.2,1.6,0.6c0.4,0.4,0.6,0.9,0.6,1.4
				c0,0.6-0.2,1-0.6,1.4c-0.4,0.4-0.9,0.6-1.6,0.6s-1.2-0.2-1.6-0.6S628.5,215.8,628.5,215.2z M632.5,236.4h-3.8v-16.8h3.8V236.4z"
				/>
			<path class="st2" d="M640.1,219.6l0.1,1.9c1.2-1.5,2.9-2.2,4.9-2.2c3.5,0,5.3,2,5.3,6v11.1h-3.8v-10.9c0-1.1-0.2-1.9-0.7-2.4
				c-0.5-0.5-1.2-0.8-2.3-0.8c-1.5,0-2.6,0.7-3.4,2.1v11.9h-3.8v-16.8H640.1z"/>
		</g>
		<g>
			<path class="st2" d="M501.4,212.9c-6.5,0-11.7,5.3-11.7,11.7s5.3,11.7,11.7,11.7s11.7-5.3,11.7-11.7
				C513.2,218.2,507.9,212.9,501.4,212.9L501.4,212.9z M501.4,235.2c-5.8,0-10.6-4.7-10.6-10.6c0-5.8,4.7-10.6,10.6-10.6
				c5.8,0,10.6,4.7,10.6,10.6C512,230.4,507.3,235.2,501.4,235.2z"/>
			<path class="st2" d="M502,224.4v-6c0-0.3-0.3-0.6-0.6-0.6c-0.3,0-0.6,0.3-0.6,0.6v6.3c0,0.2,0.1,0.3,0.2,0.4l4.7,4.4
				c0.2,0.2,0.6,0.2,0.8,0c0.2-0.2,0.2-0.6,0-0.8L502,224.4z"/>
		</g>
	</g>
	<g>
		<rect x="685.8" y="136" class="st6" width="395" height="134.1"/>
		<g>
			<path class="st2" d="M734.9,195.9h-4.6v-22.1l-6.7,2.3v-3.9l10.7-3.9h0.6V195.9z"/>
			<path class="st2" d="M762.4,184.3c0,4-0.7,6.9-2.2,8.9c-1.5,2-3.7,3-6.8,3c-3,0-5.2-1-6.7-2.9c-1.5-2-2.3-4.9-2.3-8.7v-4.8
				c0-4,0.7-6.9,2.2-8.9c1.5-2,3.7-3,6.8-3c3,0,5.3,1,6.7,2.9c1.5,1.9,2.2,4.8,2.3,8.6V184.3z M757.8,179.2c0-2.6-0.4-4.5-1.1-5.7
				c-0.7-1.2-1.8-1.8-3.4-1.8c-1.5,0-2.6,0.6-3.3,1.7c-0.7,1.1-1.1,2.9-1.1,5.3v6.2c0,2.6,0.4,4.5,1.1,5.7s1.8,1.9,3.4,1.9
				c1.5,0,2.6-0.6,3.3-1.7c0.7-1.2,1.1-3,1.1-5.5V179.2z"/>
			<path class="st2" d="M784.4,184.3c0,4-0.7,6.9-2.2,8.9c-1.5,2-3.7,3-6.8,3c-3,0-5.2-1-6.7-2.9c-1.5-2-2.3-4.9-2.3-8.7v-4.8
				c0-4,0.7-6.9,2.2-8.9c1.5-2,3.7-3,6.8-3c3,0,5.3,1,6.7,2.9c1.5,1.9,2.2,4.8,2.3,8.6V184.3z M779.8,179.2c0-2.6-0.4-4.5-1.1-5.7
				c-0.7-1.2-1.8-1.8-3.4-1.8c-1.5,0-2.6,0.6-3.3,1.7c-0.7,1.1-1.1,2.9-1.1,5.3v6.2c0,2.6,0.4,4.5,1.1,5.7s1.8,1.9,3.4,1.9
				c1.5,0,2.6-0.6,3.3-1.7c0.7-1.2,1.1-3,1.1-5.5V179.2z"/>
			<path class="st2" d="M788.2,173.7c0-1.7,0.5-3,1.6-4.1c1.1-1.1,2.5-1.6,4.2-1.6c1.8,0,3.2,0.5,4.2,1.6c1.1,1.1,1.6,2.5,1.6,4.2
				v1.4c0,1.6-0.5,3-1.6,4.1c-1.1,1.1-2.5,1.6-4.2,1.6c-1.7,0-3.1-0.5-4.2-1.6c-1.1-1-1.7-2.4-1.7-4.2V173.7z M791.4,175.1
				c0,0.9,0.2,1.6,0.7,2.1c0.5,0.5,1.1,0.8,1.9,0.8c0.8,0,1.4-0.3,1.9-0.8c0.5-0.5,0.7-1.3,0.7-2.2v-1.4c0-0.9-0.2-1.6-0.7-2.1
				c-0.5-0.5-1.1-0.8-1.9-0.8s-1.4,0.3-1.9,0.8c-0.5,0.5-0.7,1.3-0.7,2.2V175.1z M795,193.8l-2.4-1.4l13.4-21.5l2.4,1.4L795,193.8z
				 M801.5,189.2c0-1.7,0.5-3.1,1.6-4.1c1.1-1,2.5-1.6,4.2-1.6c1.7,0,3.1,0.5,4.2,1.6c1.1,1,1.6,2.5,1.6,4.2v1.3c0,1.6-0.5,3-1.6,4
				c-1.1,1.1-2.5,1.6-4.2,1.6c-1.8,0-3.2-0.5-4.3-1.6c-1.1-1.1-1.6-2.4-1.6-4.2V189.2z M804.7,190.6c0,0.9,0.2,1.6,0.7,2.1
				c0.5,0.5,1.1,0.8,1.9,0.8c0.8,0,1.4-0.3,1.9-0.8c0.5-0.5,0.7-1.3,0.7-2.2v-1.4c0-0.9-0.2-1.6-0.7-2.1c-0.5-0.5-1.1-0.8-1.9-0.8
				c-0.8,0-1.4,0.3-1.9,0.8s-0.7,1.3-0.7,2.2V190.6z"/>
		</g>
		<g>
			<path class="st2" d="M945.8,227.3h2.8v3h-2.8v5H942v-5h-9.7l-0.1-2.3l9.7-15.2h3.9V227.3z M936.1,227.3h5.9v-9.4l-0.3,0.5
				L936.1,227.3z"/>
			<path class="st2" d="M962.9,220.4c1.2-1.4,2.8-2.1,4.7-2.1c3.6,0,5.4,2,5.4,6.1v11h-3.8v-10.8c0-1.2-0.3-2-0.8-2.5
				c-0.5-0.5-1.2-0.7-2.2-0.7c-1.5,0-2.6,0.7-3.4,2v12h-3.8v-23.8h3.8V220.4z"/>
			<path class="st2" d="M976.1,226.8c0-1.6,0.3-3.1,1-4.4c0.7-1.3,1.6-2.3,2.7-3c1.2-0.7,2.5-1.1,4.1-1.1c2.3,0,4.1,0.7,5.5,2.2
				c1.4,1.5,2.2,3.4,2.3,5.8l0,0.9c0,1.7-0.3,3.1-1,4.4c-0.6,1.3-1.5,2.3-2.7,3c-1.2,0.7-2.5,1.1-4.1,1.1c-2.4,0-4.3-0.8-5.7-2.4
				c-1.4-1.6-2.1-3.7-2.1-6.3V226.8z M979.9,227.1c0,1.7,0.4,3.1,1.1,4.1c0.7,1,1.7,1.5,3,1.5s2.3-0.5,3-1.5c0.7-1,1.1-2.4,1.1-4.4
				c0-1.7-0.4-3-1.1-4c-0.7-1-1.7-1.5-3-1.5c-1.2,0-2.2,0.5-2.9,1.5C980.2,223.7,979.9,225.2,979.9,227.1z"/>
			<path class="st2" d="M1005,233.7c-1.1,1.3-2.7,2-4.7,2c-1.8,0-3.2-0.5-4.1-1.6c-0.9-1.1-1.4-2.6-1.4-4.6v-10.9h3.8v10.8
				c0,2.1,0.9,3.2,2.6,3.2c1.8,0,3.1-0.7,3.7-2v-12h3.8v16.8h-3.5L1005,233.7z"/>
			<path class="st2" d="M1021.3,222c-0.5-0.1-1-0.1-1.5-0.1c-1.7,0-2.9,0.7-3.5,2v11.5h-3.8v-16.8h3.6l0.1,1.9
				c0.9-1.5,2.2-2.2,3.8-2.2c0.5,0,1,0.1,1.3,0.2L1021.3,222z"/>
			<path class="st2" d="M1033.1,230.8c0-0.7-0.3-1.2-0.8-1.5c-0.6-0.4-1.5-0.7-2.8-0.9c-1.3-0.3-2.3-0.6-3.2-1
				c-1.9-0.9-2.8-2.2-2.8-4c0-1.4,0.6-2.7,1.8-3.6s2.8-1.5,4.6-1.5c2,0,3.6,0.5,4.9,1.5c1.2,1,1.9,2.3,1.9,3.9h-3.8
				c0-0.7-0.3-1.3-0.8-1.8s-1.3-0.7-2.1-0.7c-0.8,0-1.5,0.2-2,0.6c-0.5,0.4-0.8,0.9-0.8,1.5c0,0.6,0.2,1,0.7,1.3s1.5,0.6,2.9,1
				c1.5,0.3,2.6,0.7,3.5,1.2c0.8,0.4,1.5,1,1.9,1.6c0.4,0.6,0.6,1.4,0.6,2.3c0,1.5-0.6,2.7-1.9,3.7c-1.3,0.9-2.9,1.4-4.9,1.4
				c-1.4,0-2.6-0.2-3.7-0.7c-1.1-0.5-1.9-1.2-2.5-2c-0.6-0.9-0.9-1.8-0.9-2.8h3.7c0.1,0.9,0.4,1.6,1,2.1c0.6,0.5,1.4,0.7,2.5,0.7
				c1,0,1.7-0.2,2.3-0.6C1032.8,231.9,1033.1,231.4,1033.1,230.8z"/>
		</g>
		<g>
			<path class="st2" d="M901.7,211c-6.5,0-11.7,5.3-11.7,11.7s5.3,11.7,11.7,11.7s11.7-5.3,11.7-11.7
				C913.5,216.2,908.2,211,901.7,211L901.7,211z M901.7,233.3c-5.8,0-10.6-4.7-10.6-10.6c0-5.8,4.7-10.6,10.6-10.6
				c5.8,0,10.6,4.7,10.6,10.6C912.3,228.5,907.6,233.3,901.7,233.3z"/>
			<path class="st2" d="M902.3,222.5v-6c0-0.3-0.3-0.6-0.6-0.6c-0.3,0-0.6,0.3-0.6,0.6v6.3c0,0.2,0.1,0.3,0.2,0.4l4.7,4.4
				c0.2,0.2,0.6,0.2,0.8,0c0.2-0.2,0.2-0.6,0-0.8L902.3,222.5z"/>
		</g>
	</g>
	<g>
		<rect y="136" class="st7" width="293.3" height="134.1"/>
		<polygon class="st7" points="293.3,197.8 317.7,216.5 293.3,237 		"/>
		<g>
			<path class="st2" d="M143.2,229.2c-0.2,2.6-1.2,4.6-2.8,6c-1.6,1.4-3.8,2.1-6.6,2.1c-1.9,0-3.6-0.5-5-1.4
				c-1.5-0.9-2.6-2.2-3.4-3.9c-0.8-1.7-1.2-3.6-1.2-5.8v-2.2c0-2.3,0.4-4.3,1.2-6c0.8-1.7,2-3.1,3.5-4c1.5-0.9,3.2-1.4,5.2-1.4
				c2.6,0,4.8,0.7,6.4,2.1c1.6,1.4,2.6,3.5,2.8,6.1H139c-0.2-1.7-0.7-3-1.5-3.7c-0.8-0.8-2-1.1-3.5-1.1c-1.8,0-3.2,0.7-4.2,2
				s-1.5,3.3-1.5,5.8v2.1c0,2.6,0.5,4.6,1.4,5.9c0.9,1.4,2.3,2,4.1,2c1.6,0,2.9-0.4,3.7-1.1c0.8-0.7,1.3-2,1.6-3.7H143.2z"/>
			<path class="st2" d="M155.9,222.9c-0.5-0.1-1.1-0.1-1.6-0.1c-1.8,0-3.1,0.7-3.7,2.1V237h-4v-17.8h3.8l0.1,2c1-1.5,2.3-2.3,4-2.3
				c0.6,0,1,0.1,1.4,0.2L155.9,222.9z"/>
			<path class="st2" d="M158.4,214.6c0-0.6,0.2-1.1,0.6-1.5c0.4-0.4,0.9-0.6,1.7-0.6s1.3,0.2,1.7,0.6c0.4,0.4,0.6,0.9,0.6,1.5
				c0,0.6-0.2,1.1-0.6,1.5c-0.4,0.4-1,0.6-1.7,0.6s-1.3-0.2-1.7-0.6S158.4,215.2,158.4,214.6z M162.6,237h-4v-17.8h4V237z"/>
			<path class="st2" d="M172,214.9v4.3h3.1v3H172v9.9c0,0.7,0.1,1.2,0.4,1.5c0.3,0.3,0.7,0.5,1.4,0.5c0.5,0,0.9-0.1,1.4-0.2v3.1
				c-0.9,0.3-1.8,0.4-2.6,0.4c-3.1,0-4.6-1.7-4.6-5.1v-10.1h-2.9v-3h2.9v-4.3H172z"/>
			<path class="st2" d="M178.2,214.6c0-0.6,0.2-1.1,0.6-1.5c0.4-0.4,0.9-0.6,1.7-0.6s1.3,0.2,1.7,0.6c0.4,0.4,0.6,0.9,0.6,1.5
				c0,0.6-0.2,1.1-0.6,1.5c-0.4,0.4-1,0.6-1.7,0.6s-1.3-0.2-1.7-0.6S178.2,215.2,178.2,214.6z M182.5,237h-4v-17.8h4V237z"/>
			<path class="st2" d="M194.1,234.2c1,0,1.8-0.3,2.5-0.9c0.7-0.6,1-1.3,1.1-2.2h3.8c0,1.1-0.4,2.1-1,3.1c-0.6,1-1.5,1.7-2.6,2.3
				c-1.1,0.6-2.3,0.8-3.6,0.8c-2.5,0-4.5-0.8-5.9-2.4c-1.5-1.6-2.2-3.8-2.2-6.7v-0.4c0-2.7,0.7-4.9,2.2-6.5s3.4-2.4,5.9-2.4
				c2.1,0,3.8,0.6,5.2,1.9c1.3,1.2,2,2.9,2.1,4.9h-3.8c0-1-0.4-1.9-1-2.5c-0.7-0.7-1.5-1-2.5-1c-1.3,0-2.3,0.5-3,1.4
				c-0.7,0.9-1.1,2.4-1.1,4.3v0.6c0,1.9,0.3,3.4,1,4.3C191.8,233.7,192.8,234.2,194.1,234.2z"/>
			<path class="st2" d="M215.1,237c-0.2-0.3-0.3-0.9-0.5-1.7c-1.3,1.3-2.8,2-4.7,2c-1.8,0-3.2-0.5-4.4-1.5s-1.7-2.3-1.7-3.8
				c0-1.9,0.7-3.4,2.1-4.4c1.4-1,3.4-1.5,6.1-1.5h2.5V225c0-0.9-0.3-1.7-0.8-2.2c-0.5-0.6-1.3-0.8-2.4-0.8c-0.9,0-1.7,0.2-2.2,0.7
				s-0.9,1-0.9,1.7h-4c0-1,0.3-1.9,1-2.7c0.6-0.9,1.5-1.5,2.6-2c1.1-0.5,2.4-0.7,3.7-0.7c2.1,0,3.7,0.5,5,1.6c1.2,1,1.9,2.5,1.9,4.4
				v8c0,1.6,0.2,2.9,0.7,3.8v0.3H215.1z M210.7,234.2c0.8,0,1.5-0.2,2.2-0.6c0.7-0.4,1.2-0.9,1.6-1.5v-3.4h-2.2
				c-1.5,0-2.6,0.3-3.3,0.8c-0.7,0.5-1.1,1.2-1.1,2.2c0,0.8,0.3,1.4,0.8,1.8C209.2,233.9,209.9,234.2,210.7,234.2z"/>
			<path class="st2" d="M227,237h-4v-25.3h4V237z"/>
		</g>
		<g class="st8">
			<path class="st2" d="M69,201c0,7.1-1.3,12.5-4,16.1c-2.7,3.6-6.7,5.4-12.1,5.4c-5.3,0-9.4-1.8-12.1-5.3
				c-2.7-3.5-4.1-8.7-4.2-15.6V193c0-7.1,1.3-12.4,4-16c2.7-3.6,6.7-5.3,12.2-5.3c5.4,0,9.4,1.7,12.1,5.2c2.7,3.5,4,8.6,4.1,15.6
				V201z M60.7,191.7c0-4.6-0.6-8-1.9-10.2c-1.3-2.2-3.3-3.2-6-3.2c-2.7,0-4.7,1-5.9,3.1c-1.3,2-1.9,5.2-2,9.6v11.2
				c0,4.6,0.6,8.1,1.9,10.3c1.3,2.3,3.3,3.4,6.1,3.4c2.6,0,4.6-1,5.9-3.1c1.3-2.1,1.9-5.4,2-9.8V191.7z"/>
			<path class="st2" d="M98.6,221.8h-8.2v-39.7l-12.1,4.1v-6.9l19.3-7.1h1.1V221.8z"/>
		</g>
	</g>
</g>
<g id="issue_1_1_">
	<g>
		<rect x="293.3" y="270.1" class="st1" width="392.3" height="135.6"/>
		<g>
			<path class="st2" d="M351.7,323.7c-1.7,1.8-3.8,2.8-6.1,2.8c-2.7,0-4.9-1-6.5-2.9c-1.6-1.9-2.4-4.4-2.4-7.5c0-2,0.4-3.9,1.2-5.6
				c0.8-1.7,2-3,3.5-3.9c1.5-0.9,3.3-1.4,5.3-1.4c3.1,0,5.6,1.2,7.5,3.5c1.8,2.3,2.8,5.5,2.8,9.4v1.5c0,5.6-1.3,9.9-3.8,12.8
				c-2.5,2.9-6.3,4.4-11.3,4.5h-0.6v-4.3h0.7c3.1,0,5.4-0.8,7-2.2C350.6,328.9,351.5,326.7,351.7,323.7z M346.7,322.4
				c1,0,2-0.3,2.9-0.9c0.9-0.6,1.6-1.4,2.1-2.5v-2c0-2.3-0.5-4.1-1.4-5.5c-0.9-1.4-2.2-2.1-3.7-2.1s-2.7,0.6-3.6,1.8
				c-0.9,1.2-1.3,2.8-1.3,4.7c0,2,0.4,3.5,1.3,4.7C344,321.8,345.2,322.4,346.7,322.4z"/>
			<path class="st2" d="M382.1,323.7c0,4.5-0.8,7.8-2.5,10.1c-1.7,2.3-4.2,3.4-7.6,3.4c-3.4,0-5.9-1.1-7.6-3.3
				c-1.7-2.2-2.6-5.5-2.6-9.8v-5.4c0-4.5,0.8-7.8,2.5-10.1c1.7-2.2,4.2-3.4,7.7-3.4c3.4,0,5.9,1.1,7.6,3.3c1.7,2.2,2.5,5.4,2.6,9.8
				V323.7z M376.9,317.8c0-2.9-0.4-5.1-1.2-6.4c-0.8-1.4-2.1-2-3.8-2c-1.7,0-2.9,0.6-3.7,1.9c-0.8,1.3-1.2,3.3-1.3,6v7
				c0,2.9,0.4,5.1,1.2,6.5c0.8,1.4,2.1,2.1,3.8,2.1c1.7,0,2.9-0.7,3.7-2c0.8-1.3,1.2-3.4,1.3-6.2V317.8z"/>
			<path class="st2" d="M386.5,311.6c0-1.9,0.6-3.4,1.8-4.6c1.2-1.2,2.8-1.8,4.8-1.8c2,0,3.6,0.6,4.8,1.8c1.2,1.2,1.8,2.8,1.8,4.7
				v1.5c0,1.9-0.6,3.4-1.8,4.6s-2.8,1.8-4.8,1.8c-1.9,0-3.5-0.6-4.8-1.8c-1.2-1.2-1.9-2.8-1.9-4.8V311.6z M390.1,313.3
				c0,1,0.3,1.8,0.8,2.4c0.5,0.6,1.3,0.9,2.2,0.9c0.9,0,1.6-0.3,2.1-0.9c0.5-0.6,0.8-1.4,0.8-2.5v-1.6c0-1-0.3-1.8-0.8-2.4
				c-0.5-0.6-1.3-0.9-2.2-0.9c-0.9,0-1.6,0.3-2.1,0.9c-0.5,0.6-0.8,1.4-0.8,2.5V313.3z M394.2,334.4l-2.7-1.5l15.2-24.3l2.7,1.5
				L394.2,334.4z M401.5,329.1c0-1.9,0.6-3.5,1.9-4.6c1.2-1.2,2.8-1.8,4.7-1.8c1.9,0,3.5,0.6,4.8,1.8c1.2,1.2,1.8,2.8,1.8,4.8v1.5
				c0,1.9-0.6,3.4-1.8,4.6s-2.8,1.8-4.8,1.8s-3.6-0.6-4.8-1.8c-1.2-1.2-1.8-2.8-1.8-4.7V329.1z M405.1,330.8c0,1,0.3,1.8,0.8,2.4
				c0.6,0.6,1.3,0.9,2.2,0.9c0.9,0,1.6-0.3,2.1-0.9c0.5-0.6,0.8-1.4,0.8-2.5v-1.6c0-1-0.3-1.8-0.8-2.4c-0.6-0.6-1.3-0.9-2.1-0.9
				c-0.9,0-1.6,0.3-2.1,0.9c-0.5,0.6-0.8,1.4-0.8,2.5V330.8z"/>
		</g>
		<g>
			<path class="st2" d="M541.6,355.8l9.1,3.5v3.8l-13-5.8v-3l13-5.8v3.8L541.6,355.8z"/>
			<path class="st2" d="M572.7,365.6H569v-18.1l-5.5,1.9v-3.2l8.8-3.2h0.5V365.6z"/>
			<path class="st2" d="M592.4,350.7c1.2-1.4,2.8-2.1,4.7-2.1c3.6,0,5.4,2,5.4,6.1v11h-3.8v-10.8c0-1.2-0.3-2-0.8-2.5
				c-0.5-0.5-1.2-0.7-2.2-0.7c-1.5,0-2.6,0.7-3.4,2v12h-3.8v-23.8h3.8V350.7z"/>
			<path class="st2" d="M605.6,357.1c0-1.6,0.3-3.1,1-4.4c0.7-1.3,1.6-2.3,2.7-3c1.2-0.7,2.5-1.1,4.1-1.1c2.3,0,4.1,0.7,5.5,2.2
				c1.4,1.5,2.2,3.4,2.3,5.8l0,0.9c0,1.7-0.3,3.1-1,4.4c-0.6,1.3-1.5,2.3-2.7,3c-1.2,0.7-2.5,1.1-4.1,1.1c-2.4,0-4.3-0.8-5.7-2.4
				c-1.4-1.6-2.1-3.7-2.1-6.3V357.1z M609.4,357.4c0,1.7,0.4,3.1,1.1,4.1c0.7,1,1.7,1.5,3,1.5s2.3-0.5,3-1.5c0.7-1,1.1-2.4,1.1-4.4
				c0-1.7-0.4-3-1.1-4c-0.7-1-1.7-1.5-3-1.5c-1.2,0-2.2,0.5-2.9,1.5C609.7,354,609.4,355.5,609.4,357.4z"/>
			<path class="st2" d="M634.5,364c-1.1,1.3-2.7,2-4.7,2c-1.8,0-3.2-0.5-4.1-1.6s-1.4-2.6-1.4-4.6v-10.9h3.8v10.8
				c0,2.1,0.9,3.2,2.6,3.2c1.8,0,3.1-0.7,3.7-2v-12h3.8v16.8h-3.5L634.5,364z"/>
			<path class="st2" d="M650.8,352.3c-0.5-0.1-1-0.1-1.5-0.1c-1.7,0-2.9,0.7-3.5,2v11.5H642v-16.8h3.6l0.1,1.9
				c0.9-1.5,2.2-2.2,3.8-2.2c0.5,0,1,0.1,1.3,0.2L650.8,352.3z"/>
		</g>
		<g>
			<path class="st2" d="M510.3,340.1c-7,0-12.8,5.7-12.8,12.8c0,7,5.7,12.8,12.8,12.8s12.8-5.7,12.8-12.8
				C523.1,345.8,517.3,340.1,510.3,340.1L510.3,340.1z M510.3,364.3c-6.3,0-11.5-5.2-11.5-11.5c0-6.3,5.2-11.5,11.5-11.5
				c6.3,0,11.5,5.2,11.5,11.5S516.6,364.3,510.3,364.3z"/>
			<path class="st2" d="M510.9,352.6V346c0-0.4-0.3-0.6-0.6-0.6c-0.4,0-0.6,0.3-0.6,0.6v6.8c0,0.2,0.1,0.3,0.2,0.5l5.1,4.8
				c0.3,0.2,0.7,0.2,0.9,0c0.2-0.3,0.2-0.7,0-0.9L510.9,352.6z"/>
		</g>
	</g>
	<g>
		<rect x="685.6" y="270.1" class="st3" width="395" height="135.6"/>
		<g>
			<path class="st2" d="M737.2,332.2c-1.7,1.8-3.7,2.7-6.1,2.7c-2.7,0-4.9-1-6.5-2.9s-2.4-4.4-2.4-7.5c0-2,0.4-3.9,1.2-5.5
				s2-2.9,3.5-3.9c1.5-0.9,3.3-1.4,5.3-1.4c3.1,0,5.6,1.2,7.4,3.5s2.7,5.4,2.7,9.3v1.4c0,5.6-1.3,9.8-3.8,12.8
				c-2.5,2.9-6.3,4.4-11.3,4.5h-0.6V341h0.7c3,0,5.4-0.8,7-2.2C736.1,337.3,737,335.1,737.2,332.2z M732.2,330.9c1,0,2-0.3,2.9-0.9
				c0.9-0.6,1.6-1.4,2.1-2.5v-2c0-2.3-0.5-4.1-1.4-5.5c-0.9-1.4-2.1-2.1-3.6-2.1s-2.7,0.6-3.6,1.8c-0.9,1.2-1.3,2.8-1.3,4.6
				c0,1.9,0.4,3.5,1.3,4.7C729.5,330.3,730.7,330.9,732.2,330.9z"/>
			<path class="st2" d="M767.4,332.1c0,4.4-0.8,7.8-2.5,10.1s-4.2,3.4-7.6,3.4c-3.3,0-5.9-1.1-7.5-3.3c-1.7-2.2-2.6-5.5-2.6-9.8
				v-5.4c0-4.4,0.8-7.8,2.5-10c1.7-2.2,4.2-3.3,7.6-3.3c3.4,0,5.9,1.1,7.6,3.2s2.5,5.4,2.6,9.7V332.1z M762.3,326.3
				c0-2.9-0.4-5-1.2-6.4c-0.8-1.4-2.1-2-3.8-2c-1.7,0-2.9,0.6-3.7,1.9c-0.8,1.3-1.2,3.3-1.3,6v7c0,2.9,0.4,5,1.2,6.5
				c0.8,1.4,2.1,2.1,3.8,2.1c1.7,0,2.9-0.7,3.7-2c0.8-1.3,1.2-3.4,1.3-6.1V326.3z"/>
			<path class="st2" d="M771.8,320.1c0-1.9,0.6-3.4,1.8-4.6s2.8-1.8,4.7-1.8c2,0,3.6,0.6,4.8,1.8s1.8,2.8,1.8,4.7v1.5
				c0,1.9-0.6,3.4-1.8,4.6c-1.2,1.2-2.8,1.8-4.7,1.8c-1.9,0-3.5-0.6-4.7-1.8c-1.2-1.2-1.9-2.7-1.9-4.7V320.1z M775.4,321.7
				c0,1,0.3,1.8,0.8,2.4c0.5,0.6,1.3,0.9,2.2,0.9c0.9,0,1.6-0.3,2.1-0.9c0.5-0.6,0.8-1.4,0.8-2.5v-1.6c0-1-0.3-1.8-0.8-2.4
				s-1.3-0.9-2.2-0.9s-1.6,0.3-2.1,0.9c-0.5,0.6-0.8,1.4-0.8,2.4V321.7z M779.4,342.8l-2.7-1.5l15.1-24.2l2.7,1.5L779.4,342.8z
				 M786.6,337.5c0-1.9,0.6-3.4,1.8-4.6s2.8-1.8,4.7-1.8c1.9,0,3.5,0.6,4.7,1.8s1.8,2.8,1.8,4.8v1.5c0,1.8-0.6,3.4-1.8,4.6
				c-1.2,1.2-2.8,1.8-4.7,1.8c-2,0-3.6-0.6-4.8-1.8c-1.2-1.2-1.8-2.7-1.8-4.7V337.5z M790.2,339.1c0,1,0.3,1.8,0.8,2.4
				c0.6,0.6,1.3,0.9,2.2,0.9c0.9,0,1.6-0.3,2.1-0.9c0.5-0.6,0.8-1.4,0.8-2.5v-1.6c0-1-0.3-1.8-0.8-2.4c-0.6-0.6-1.3-0.9-2.1-0.9
				c-0.9,0-1.6,0.3-2.1,0.9s-0.8,1.4-0.8,2.5V339.1z"/>
		</g>
		<g>
			<path class="st2" d="M912.3,366.4l9.1,3.4v3.7l-12.8-5.7v-3l12.8-5.7v3.7L912.3,366.4z"/>
			<path class="st2" d="M947.1,359.6c0,1.1-0.3,2.1-0.8,2.9c-0.6,0.9-1.3,1.5-2.3,2c1.2,0.5,2.1,1.3,2.7,2.2c0.6,0.9,0.9,2,0.9,3.2
				c0,2-0.7,3.5-2,4.7s-3.1,1.7-5.3,1.7c-2.2,0-4-0.6-5.3-1.7s-2-2.7-2-4.7c0-1.2,0.3-2.3,1-3.2c0.6-1,1.5-1.7,2.7-2.2
				c-1-0.5-1.7-1.2-2.3-2s-0.8-1.8-0.8-2.9c0-1.9,0.6-3.4,1.8-4.5c1.2-1.1,2.9-1.7,5-1.7c2.1,0,3.8,0.6,5,1.7
				C946.5,356.2,947.1,357.7,947.1,359.6z M943.9,369.8c0-1.1-0.3-2-1-2.7s-1.5-1-2.6-1c-1.1,0-2,0.3-2.6,1c-0.6,0.7-1,1.6-1,2.7
				c0,1.1,0.3,2,1,2.6s1.5,1,2.6,1s2-0.3,2.6-1C943.6,371.8,943.9,370.9,943.9,369.8z M943.4,359.7c0-1-0.3-1.8-0.8-2.4
				c-0.6-0.6-1.3-0.9-2.3-0.9c-1,0-1.7,0.3-2.3,0.9s-0.8,1.4-0.8,2.4c0,1,0.3,1.8,0.8,2.4c0.6,0.6,1.3,0.9,2.3,0.9
				c1,0,1.7-0.3,2.3-0.9C943.1,361.6,943.4,360.8,943.4,359.7z"/>
			<path class="st2" d="M962.7,361.2c1.2-1.4,2.8-2.1,4.6-2.1c3.5,0,5.3,2,5.4,6.1V376H969v-10.7c0-1.1-0.2-2-0.7-2.4
				s-1.2-0.7-2.2-0.7c-1.5,0-2.6,0.7-3.3,2V376h-3.7v-23.6h3.7V361.2z"/>
			<path class="st2" d="M975.8,367.6c0-1.6,0.3-3.1,1-4.4s1.6-2.3,2.7-3c1.2-0.7,2.5-1.1,4-1.1c2.2,0,4.1,0.7,5.5,2.2
				c1.4,1.4,2.2,3.4,2.3,5.7l0,0.9c0,1.6-0.3,3.1-0.9,4.4c-0.6,1.3-1.5,2.3-2.7,3c-1.2,0.7-2.5,1.1-4.1,1.1c-2.3,0-4.2-0.8-5.6-2.3
				s-2.1-3.6-2.1-6.2V367.6z M979.5,367.9c0,1.7,0.4,3,1.1,4c0.7,1,1.7,1.5,2.9,1.5s2.2-0.5,2.9-1.5s1.1-2.4,1.1-4.3
				c0-1.7-0.4-3-1.1-4c-0.7-1-1.7-1.5-2.9-1.5c-1.2,0-2.2,0.5-2.9,1.5C979.8,364.5,979.5,366,979.5,367.9z"/>
			<path class="st2" d="M1004.4,374.4c-1.1,1.3-2.7,1.9-4.7,1.9c-1.8,0-3.2-0.5-4.1-1.6c-0.9-1.1-1.4-2.6-1.4-4.6v-10.8h3.7v10.7
				c0,2.1,0.9,3.2,2.6,3.2c1.8,0,3-0.6,3.7-1.9v-11.9h3.7V376h-3.5L1004.4,374.4z"/>
			<path class="st2" d="M1020.5,362.8c-0.5-0.1-1-0.1-1.5-0.1c-1.7,0-2.9,0.7-3.5,2V376h-3.7v-16.6h3.6l0.1,1.9
				c0.9-1.4,2.1-2.2,3.7-2.2c0.5,0,1,0.1,1.3,0.2L1020.5,362.8z"/>
			<path class="st2" d="M1032.2,371.5c0-0.7-0.3-1.2-0.8-1.5c-0.5-0.3-1.5-0.7-2.7-0.9c-1.3-0.3-2.3-0.6-3.2-1
				c-1.9-0.9-2.8-2.2-2.8-3.9c0-1.4,0.6-2.6,1.8-3.6c1.2-1,2.7-1.4,4.6-1.4c2,0,3.6,0.5,4.8,1.5s1.8,2.3,1.8,3.8h-3.7
				c0-0.7-0.3-1.3-0.8-1.8c-0.5-0.5-1.2-0.7-2.1-0.7c-0.8,0-1.5,0.2-2,0.6c-0.5,0.4-0.8,0.9-0.8,1.5c0,0.6,0.2,1,0.7,1.3
				c0.5,0.3,1.5,0.6,2.9,1c1.5,0.3,2.6,0.7,3.4,1.2c0.8,0.4,1.5,1,1.9,1.6s0.6,1.4,0.6,2.3c0,1.5-0.6,2.7-1.9,3.6s-2.9,1.4-4.9,1.4
				c-1.4,0-2.6-0.2-3.6-0.7s-1.9-1.2-2.5-2c-0.6-0.9-0.9-1.8-0.9-2.8h3.6c0.1,0.9,0.4,1.6,1,2c0.6,0.5,1.4,0.7,2.4,0.7
				c1,0,1.7-0.2,2.2-0.6S1032.2,372.1,1032.2,371.5z"/>
		</g>
		<g>
			<path class="st2" d="M880,353.3c-6,0-10.9,4.9-10.9,10.9c0,6,4.9,10.9,10.9,10.9c6,0,10.9-4.9,10.9-10.9
				C890.9,358.2,886,353.3,880,353.3L880,353.3z M880,374.1c-5.4,0-9.8-4.4-9.8-9.8c0-5.4,4.4-9.8,9.8-9.8c5.4,0,9.8,4.4,9.8,9.8
				C889.8,369.7,885.4,374.1,880,374.1z"/>
			<path class="st2" d="M880.5,364v-5.6c0-0.3-0.2-0.5-0.5-0.5c-0.3,0-0.5,0.2-0.5,0.5v5.8c0,0.2,0.1,0.3,0.2,0.4l4.4,4.1
				c0.2,0.2,0.6,0.2,0.8,0c0.2-0.2,0.2-0.6,0-0.8L880.5,364z"/>
		</g>
	</g>
	<g>
		<rect x="-0.2" y="270.1" class="st4" width="293.3" height="135.6"/>
		<polygon class="st4" points="293.1,331.9 317.6,350.5 293.1,371.1 		"/>
		<g>
			<path class="st2" d="M143.9,368.9h-4.1v-10.6h-10.7v10.6h-4.2v-24h4.2v10h10.7v-10h4.1V368.9z"/>
			<path class="st2" d="M148.5,346.5c0-0.6,0.2-1.1,0.6-1.5c0.4-0.4,0.9-0.6,1.7-0.6s1.3,0.2,1.7,0.6c0.4,0.4,0.6,0.9,0.6,1.5
				c0,0.6-0.2,1.1-0.6,1.5c-0.4,0.4-1,0.6-1.7,0.6s-1.3-0.2-1.7-0.6S148.5,347.1,148.5,346.5z M152.7,368.9h-4v-17.8h4V368.9z"/>
			<path class="st2" d="M156.4,359.9c0-2.8,0.7-5,2-6.6c1.3-1.7,3-2.5,5.2-2.5c2,0,3.6,0.7,4.8,2.1l0.2-1.8h3.6v17.3
				c0,2.3-0.7,4.2-2.2,5.5c-1.5,1.4-3.4,2-5.9,2c-1.3,0-2.6-0.3-3.8-0.8s-2.2-1.3-2.8-2.1l1.9-2.4c1.2,1.5,2.7,2.2,4.5,2.2
				c1.3,0,2.4-0.4,3.1-1.1c0.8-0.7,1.2-1.8,1.2-3.2v-1.2c-1.2,1.3-2.7,1.9-4.6,1.9c-2.1,0-3.8-0.8-5.1-2.5
				C157,365.1,156.4,362.8,156.4,359.9z M160.4,360.2c0,1.8,0.4,3.2,1.1,4.2c0.7,1,1.7,1.5,3,1.5c1.6,0,2.8-0.7,3.6-2.1v-7.8
				c-0.8-1.4-1.9-2-3.6-2c-1.3,0-2.3,0.5-3.1,1.6S160.4,358.2,160.4,360.2z"/>
			<path class="st2" d="M180.1,353.1c1.3-1.5,3-2.3,5-2.3c3.8,0,5.7,2.2,5.8,6.5v11.6h-4v-11.5c0-1.2-0.3-2.1-0.8-2.6
				c-0.5-0.5-1.3-0.8-2.3-0.8c-1.6,0-2.8,0.7-3.6,2.1v12.7h-4v-25.3h4V353.1z"/>
		</g>
		<g class="st8">
			<path class="st2" d="M69.1,319.2c0,7.1-1.3,12.5-4,16.1c-2.7,3.6-6.7,5.4-12.2,5.4c-5.4,0-9.4-1.8-12.1-5.3
				c-2.7-3.5-4.1-8.8-4.2-15.7v-8.6c0-7.1,1.3-12.5,4-16c2.7-3.6,6.7-5.3,12.2-5.3c5.4,0,9.5,1.7,12.1,5.2c2.7,3.5,4,8.7,4.1,15.6
				V319.2z M60.8,309.9c0-4.7-0.6-8.1-1.9-10.2c-1.3-2.2-3.3-3.3-6.1-3.3c-2.7,0-4.7,1-6,3.1c-1.3,2.1-1.9,5.3-2,9.6v11.2
				c0,4.6,0.6,8.1,1.9,10.4c1.3,2.3,3.3,3.4,6.1,3.4c2.7,0,4.6-1,5.9-3.1c1.3-2.1,1.9-5.4,2-9.9V309.9z"/>
			<path class="st2" d="M109.7,340.1H76.4v-5.7l16.5-18c2.4-2.7,4.1-4.9,5.1-6.7c1-1.8,1.5-3.6,1.5-5.4c0-2.4-0.7-4.3-2-5.7
				c-1.3-1.5-3.1-2.2-5.4-2.2c-2.7,0-4.8,0.8-6.2,2.5c-1.5,1.6-2.2,3.9-2.2,6.7h-8.3c0-3,0.7-5.7,2.1-8.2c1.4-2.4,3.3-4.3,5.9-5.6
				c2.6-1.3,5.5-2,8.8-2c4.8,0,8.6,1.2,11.4,3.6c2.8,2.4,4.2,5.8,4.2,10c0,2.5-0.7,5.1-2.1,7.8s-3.7,5.8-6.9,9.2l-12.1,13h23V340.1z
				"/>
		</g>
	</g>
</g>
<g id="issue_1_2_">
	<g>
		<rect x="293.3" y="405.7" class="st5" width="392.3" height="135"/>
		<g>
			<path class="st2" d="M351.7,459.4c-1.7,1.8-3.8,2.8-6.1,2.8c-2.7,0-4.9-1-6.5-2.9c-1.6-1.9-2.4-4.4-2.4-7.5
				c0-2.1,0.4-3.9,1.2-5.6c0.8-1.7,2-3,3.5-3.9c1.5-0.9,3.3-1.4,5.3-1.4c3.1,0,5.6,1.2,7.5,3.5c1.8,2.3,2.8,5.5,2.8,9.4v1.5
				c0,5.6-1.3,9.9-3.8,12.8c-2.5,2.9-6.3,4.4-11.3,4.5h-0.6v-4.3h0.7c3.1,0,5.4-0.8,7-2.2C350.6,464.6,351.5,462.4,351.7,459.4z
				 M346.7,458.1c1,0,2-0.3,2.9-0.9c0.9-0.6,1.6-1.4,2.1-2.5v-2c0-2.3-0.5-4.1-1.4-5.5c-0.9-1.4-2.2-2.1-3.7-2.1s-2.7,0.6-3.6,1.8
				c-0.9,1.2-1.3,2.8-1.3,4.7c0,2,0.4,3.5,1.3,4.7C344,457.5,345.2,458.1,346.7,458.1z"/>
			<path class="st2" d="M382.1,459.3c0,4.5-0.8,7.8-2.5,10.1c-1.7,2.3-4.2,3.4-7.6,3.4c-3.4,0-5.9-1.1-7.6-3.3
				c-1.7-2.2-2.6-5.5-2.6-9.8v-5.4c0-4.5,0.8-7.8,2.5-10.1c1.7-2.2,4.2-3.4,7.7-3.4c3.4,0,5.9,1.1,7.6,3.3c1.7,2.2,2.5,5.4,2.6,9.8
				V459.3z M376.9,453.5c0-2.9-0.4-5.1-1.2-6.4s-2.1-2-3.8-2c-1.7,0-2.9,0.6-3.7,1.9c-0.8,1.3-1.2,3.3-1.3,6v7
				c0,2.9,0.4,5.1,1.2,6.5c0.8,1.4,2.1,2.1,3.8,2.1c1.7,0,2.9-0.7,3.7-2c0.8-1.3,1.2-3.4,1.3-6.2V453.5z"/>
			<path class="st2" d="M386.5,447.3c0-1.9,0.6-3.4,1.8-4.6c1.2-1.2,2.8-1.8,4.8-1.8c2,0,3.6,0.6,4.8,1.8c1.2,1.2,1.8,2.8,1.8,4.7
				v1.5c0,1.9-0.6,3.4-1.8,4.6s-2.8,1.8-4.8,1.8c-1.9,0-3.5-0.6-4.8-1.8c-1.2-1.2-1.9-2.8-1.9-4.8V447.3z M390.1,448.9
				c0,1,0.3,1.8,0.8,2.4c0.5,0.6,1.3,0.9,2.2,0.9c0.9,0,1.6-0.3,2.1-0.9c0.5-0.6,0.8-1.4,0.8-2.5v-1.6c0-1-0.3-1.8-0.8-2.4
				c-0.5-0.6-1.3-0.9-2.2-0.9c-0.9,0-1.6,0.3-2.1,0.9c-0.5,0.6-0.8,1.4-0.8,2.5V448.9z M394.2,470.1l-2.7-1.5l15.2-24.3l2.7,1.5
				L394.2,470.1z M401.5,464.8c0-1.9,0.6-3.5,1.9-4.6c1.2-1.2,2.8-1.8,4.7-1.8c1.9,0,3.5,0.6,4.8,1.8c1.2,1.2,1.8,2.8,1.8,4.8v1.5
				c0,1.9-0.6,3.4-1.8,4.6s-2.8,1.8-4.8,1.8s-3.6-0.6-4.8-1.8c-1.2-1.2-1.8-2.8-1.8-4.7V464.8z M405.1,466.4c0,1,0.3,1.8,0.8,2.4
				c0.6,0.6,1.3,0.9,2.2,0.9c0.9,0,1.6-0.3,2.1-0.9c0.5-0.6,0.8-1.4,0.8-2.5v-1.6c0-1-0.3-1.8-0.8-2.4c-0.6-0.6-1.3-0.9-2.1-0.9
				c-0.9,0-1.6,0.3-2.1,0.9c-0.5,0.6-0.8,1.4-0.8,2.5V466.4z"/>
		</g>
		<g>
			<path class="st2" d="M520.4,494.3l9.1,3.5v3.8l-13-5.8v-3l13-5.8v3.8L520.4,494.3z"/>
			<path class="st2" d="M554.1,496h2.8v3h-2.8v5h-3.8v-5h-9.7l-0.1-2.3l9.7-15.2h3.9V496z M544.4,496h5.9v-9.4l-0.3,0.5L544.4,496z"
				/>
			<path class="st2" d="M571.2,489.1c1.2-1.4,2.8-2.1,4.7-2.1c3.6,0,5.4,2,5.4,6.1v11h-3.8v-10.8c0-1.2-0.3-2-0.8-2.5
				c-0.5-0.5-1.2-0.7-2.2-0.7c-1.5,0-2.6,0.7-3.4,2v12h-3.8v-23.8h3.8V489.1z"/>
			<path class="st2" d="M584.4,495.5c0-1.6,0.3-3.1,1-4.4c0.7-1.3,1.6-2.3,2.7-3s2.5-1.1,4.1-1.1c2.3,0,4.1,0.7,5.5,2.2
				s2.2,3.4,2.3,5.8l0,0.9c0,1.7-0.3,3.1-1,4.4s-1.5,2.3-2.7,3c-1.2,0.7-2.5,1.1-4.1,1.1c-2.4,0-4.3-0.8-5.7-2.4
				c-1.4-1.6-2.1-3.7-2.1-6.3V495.5z M588.2,495.9c0,1.7,0.4,3.1,1.1,4.1c0.7,1,1.7,1.5,3,1.5c1.3,0,2.3-0.5,3-1.5
				c0.7-1,1.1-2.4,1.1-4.4c0-1.7-0.4-3-1.1-4c-0.7-1-1.7-1.5-3-1.5c-1.2,0-2.2,0.5-2.9,1.5C588.5,492.5,588.2,493.9,588.2,495.9z"/>
			<path class="st2" d="M613.3,502.4c-1.1,1.3-2.7,2-4.7,2c-1.8,0-3.2-0.5-4.1-1.6c-0.9-1.1-1.4-2.6-1.4-4.6v-10.9h3.8v10.8
				c0,2.1,0.9,3.2,2.6,3.2c1.8,0,3.1-0.7,3.7-2v-12h3.8v16.8h-3.5L613.3,502.4z"/>
			<path class="st2" d="M629.6,490.7c-0.5-0.1-1-0.1-1.5-0.1c-1.7,0-2.9,0.7-3.5,2v11.5h-3.8v-16.8h3.6l0.1,1.9
				c0.9-1.5,2.2-2.2,3.8-2.2c0.5,0,1,0.1,1.3,0.2L629.6,490.7z"/>
			<path class="st2" d="M641.3,499.5c0-0.7-0.3-1.2-0.8-1.5c-0.6-0.4-1.5-0.7-2.8-0.9c-1.3-0.3-2.3-0.6-3.2-1
				c-1.9-0.9-2.8-2.2-2.8-4c0-1.4,0.6-2.7,1.8-3.6s2.8-1.5,4.6-1.5c2,0,3.6,0.5,4.9,1.5c1.2,1,1.9,2.3,1.9,3.9h-3.8
				c0-0.7-0.3-1.3-0.8-1.8c-0.5-0.5-1.3-0.7-2.1-0.7c-0.8,0-1.5,0.2-2,0.6c-0.5,0.4-0.8,0.9-0.8,1.5c0,0.6,0.2,1,0.7,1.3
				s1.5,0.6,2.9,1c1.5,0.3,2.6,0.7,3.5,1.2c0.8,0.4,1.5,1,1.9,1.6c0.4,0.6,0.6,1.4,0.6,2.3c0,1.5-0.6,2.7-1.9,3.7
				c-1.3,0.9-2.9,1.4-4.9,1.4c-1.4,0-2.6-0.2-3.7-0.7s-1.9-1.2-2.5-2c-0.6-0.9-0.9-1.8-0.9-2.8h3.7c0.1,0.9,0.4,1.6,1,2.1
				c0.6,0.5,1.4,0.7,2.5,0.7c1,0,1.7-0.2,2.3-0.6C641.1,500.6,641.3,500.1,641.3,499.5z"/>
		</g>
		<g>
			<path class="st2" d="M491.2,480.6c-6.5,0-11.7,5.3-11.7,11.7s5.3,11.7,11.7,11.7s11.7-5.3,11.7-11.7
				C503,485.9,497.7,480.6,491.2,480.6L491.2,480.6z M491.2,502.9c-5.8,0-10.6-4.7-10.6-10.6c0-5.8,4.7-10.6,10.6-10.6
				c5.8,0,10.6,4.7,10.6,10.6S497.1,502.9,491.2,502.9z"/>
			<path class="st2" d="M491.8,492.1v-6c0-0.3-0.3-0.6-0.6-0.6c-0.3,0-0.6,0.3-0.6,0.6v6.3c0,0.2,0.1,0.3,0.2,0.4l4.7,4.4
				c0.2,0.2,0.6,0.2,0.8,0c0.2-0.2,0.2-0.6,0-0.8L491.8,492.1z"/>
		</g>
	</g>
	<g>
		<rect x="685.6" y="405.7" class="st6" width="395" height="135"/>
		<g>
			<path class="st2" d="M736.2,454.4c-1.6,1.7-3.5,2.6-5.7,2.6c-2.6,0-4.6-0.9-6.1-2.7c-1.5-1.8-2.3-4.2-2.3-7.1
				c0-1.9,0.4-3.7,1.2-5.2c0.8-1.6,1.9-2.8,3.3-3.6c1.4-0.9,3.1-1.3,5-1.3c2.9,0,5.3,1.1,7,3.3c1.7,2.2,2.6,5.1,2.6,8.8v1.4
				c0,5.3-1.2,9.3-3.6,12c-2.4,2.8-5.9,4.2-10.6,4.2h-0.6v-4h0.7c2.9,0,5.1-0.7,6.6-2.1S736,457.2,736.2,454.4z M731.5,453.2
				c1,0,1.9-0.3,2.7-0.8s1.5-1.3,2-2.3v-1.9c0-2.1-0.4-3.9-1.3-5.2s-2-2-3.4-2c-1.4,0-2.5,0.6-3.4,1.7c-0.8,1.2-1.3,2.6-1.3,4.4
				c0,1.8,0.4,3.3,1.3,4.4S730.1,453.2,731.5,453.2z"/>
			<path class="st2" d="M764.7,454.3c0,4.2-0.8,7.4-2.4,9.5s-4,3.2-7.2,3.2c-3.2,0-5.5-1-7.1-3.1c-1.6-2.1-2.4-5.2-2.5-9.2v-5
				c0-4.2,0.8-7.3,2.4-9.4c1.6-2.1,4-3.1,7.2-3.1c3.2,0,5.6,1,7.1,3.1c1.6,2,2.4,5.1,2.4,9.2V454.3z M759.9,448.9
				c0-2.7-0.4-4.7-1.1-6c-0.7-1.3-1.9-1.9-3.6-1.9c-1.6,0-2.8,0.6-3.5,1.8c-0.7,1.2-1.1,3.1-1.2,5.7v6.6c0,2.7,0.4,4.8,1.1,6.1
				c0.8,1.3,2,2,3.6,2c1.6,0,2.7-0.6,3.5-1.9c0.7-1.2,1.1-3.2,1.2-5.8V448.9z"/>
			<path class="st2" d="M768.8,443.1c0-1.8,0.6-3.2,1.7-4.3c1.1-1.1,2.6-1.7,4.5-1.7c1.9,0,3.4,0.6,4.5,1.7c1.1,1.1,1.7,2.6,1.7,4.4
				v1.4c0,1.7-0.6,3.2-1.7,4.3s-2.6,1.7-4.5,1.7c-1.8,0-3.3-0.6-4.5-1.7s-1.8-2.6-1.8-4.5V443.1z M772.2,444.6
				c0,0.9,0.3,1.7,0.8,2.2c0.5,0.6,1.2,0.9,2,0.9c0.8,0,1.5-0.3,2-0.9c0.5-0.6,0.8-1.3,0.8-2.3v-1.5c0-0.9-0.3-1.7-0.8-2.2
				c-0.5-0.6-1.2-0.9-2-0.9c-0.8,0-1.5,0.3-2,0.9s-0.8,1.3-0.8,2.3V444.6z M776,464.4l-2.5-1.4l14.2-22.8l2.5,1.4L776,464.4z
				 M782.9,459.5c0-1.8,0.6-3.2,1.7-4.3c1.2-1.1,2.6-1.7,4.4-1.7c1.8,0,3.3,0.6,4.5,1.7c1.2,1.1,1.7,2.6,1.7,4.5v1.4
				c0,1.7-0.6,3.2-1.7,4.3c-1.1,1.1-2.6,1.7-4.5,1.7s-3.4-0.6-4.5-1.7c-1.1-1.1-1.7-2.6-1.7-4.4V459.5z M786.3,461
				c0,0.9,0.3,1.7,0.8,2.2c0.5,0.6,1.2,0.9,2,0.9c0.9,0,1.5-0.3,2-0.8c0.5-0.6,0.7-1.3,0.7-2.3v-1.5c0-0.9-0.3-1.7-0.8-2.2
				c-0.5-0.6-1.2-0.8-2-0.8c-0.8,0-1.5,0.3-2,0.8c-0.5,0.6-0.8,1.3-0.8,2.3V461z"/>
		</g>
		<g>
			<path class="st2" d="M850,505.1h-14.4v-2.4l7.1-7.8c1-1.1,1.8-2.1,2.2-2.9s0.7-1.5,0.7-2.3c0-1-0.3-1.8-0.9-2.5
				c-0.6-0.6-1.3-0.9-2.3-0.9c-1.2,0-2,0.4-2.7,1.1s-1,1.7-1,2.9h-3.6c0-1.3,0.3-2.5,0.9-3.5c0.6-1,1.4-1.8,2.5-2.4
				c1.1-0.6,2.4-0.9,3.8-0.9c2.1,0,3.7,0.5,4.9,1.6s1.8,2.5,1.8,4.3c0,1.1-0.3,2.2-0.9,3.3c-0.6,1.2-1.6,2.5-3,4l-5.2,5.6h9.9V505.1
				z"/>
			<path class="st2" d="M874.4,500.2l2.5-11h3.5l-4.3,15.9h-2.9l-3.4-10.9l-3.3,10.9h-2.9l-4.3-15.9h3.5l2.6,10.8l3.3-10.8h2.7
				L874.4,500.2z"/>
			<path class="st2" d="M882.1,497c0-1.6,0.3-3,0.9-4.2c0.6-1.2,1.5-2.2,2.6-2.9c1.1-0.7,2.4-1,3.8-1c2.1,0,3.9,0.7,5.2,2.1
				c1.3,1.4,2.1,3.2,2.2,5.5l0,0.8c0,1.6-0.3,3-0.9,4.2c-0.6,1.2-1.5,2.2-2.6,2.9c-1.1,0.7-2.4,1-3.9,1c-2.2,0-4-0.7-5.4-2.2
				s-2-3.5-2-6V497z M885.6,497.3c0,1.6,0.3,2.9,1,3.8s1.6,1.4,2.8,1.4s2.1-0.5,2.8-1.4c0.7-0.9,1-2.3,1-4.1c0-1.6-0.3-2.9-1-3.8
				c-0.7-0.9-1.6-1.4-2.8-1.4c-1.2,0-2.1,0.5-2.8,1.4S885.6,495.5,885.6,497.3z"/>
			<path class="st2" d="M908.1,492.5c-0.5-0.1-1-0.1-1.5-0.1c-1.6,0-2.7,0.6-3.3,1.9v10.8h-3.6v-15.9h3.4l0.1,1.8
				c0.9-1.4,2.1-2.1,3.6-2.1c0.5,0,0.9,0.1,1.3,0.2L908.1,492.5z"/>
			<path class="st2" d="M915.5,498.3l-1.6,1.6v5.2h-3.6v-22.5h3.6v13l1.1-1.4l4.4-4.9h4.3l-5.9,6.6l6.5,9.3h-4.1L915.5,498.3z"/>
			<path class="st2" d="M926.1,485.1c0-0.5,0.2-1,0.5-1.4c0.3-0.4,0.8-0.5,1.5-0.5c0.6,0,1.1,0.2,1.5,0.5c0.4,0.4,0.5,0.8,0.5,1.4
				c0,0.5-0.2,1-0.5,1.3c-0.4,0.4-0.9,0.5-1.5,0.5c-0.6,0-1.1-0.2-1.5-0.5C926.2,486.1,926.1,485.6,926.1,485.1z M929.9,505.1h-3.6
				v-15.9h3.6V505.1z"/>
			<path class="st2" d="M937,489.2l0.1,1.8c1.2-1.4,2.7-2.1,4.6-2.1c3.3,0,5,1.9,5,5.7v10.5h-3.6v-10.3c0-1-0.2-1.8-0.7-2.2
				c-0.4-0.5-1.1-0.7-2.1-0.7c-1.4,0-2.5,0.7-3.2,1.9v11.3h-3.6v-15.9H937z"/>
			<path class="st2" d="M949.8,497c0-2.5,0.6-4.4,1.7-5.9s2.7-2.2,4.6-2.2c1.8,0,3.2,0.6,4.3,1.9l0.2-1.6h3.2v15.4
				c0,2.1-0.6,3.7-1.9,4.9c-1.3,1.2-3,1.8-5.2,1.8c-1.2,0-2.3-0.2-3.4-0.7c-1.1-0.5-2-1.1-2.5-1.9l1.7-2.1c1.1,1.3,2.4,2,4,2
				c1.2,0,2.1-0.3,2.8-1c0.7-0.6,1-1.6,1-2.8v-1.1c-1,1.1-2.4,1.7-4.1,1.7c-1.9,0-3.4-0.7-4.6-2.2S949.8,499.6,949.8,497z
				 M953.4,497.3c0,1.6,0.3,2.8,1,3.8c0.6,0.9,1.6,1.4,2.7,1.4c1.4,0,2.5-0.6,3.2-1.8v-7c-0.7-1.2-1.7-1.8-3.2-1.8
				c-1.2,0-2.1,0.5-2.7,1.4C953.7,494.2,953.4,495.5,953.4,497.3z"/>
			<path class="st2" d="M974.3,497c0-2.4,0.6-4.4,1.7-5.9c1.1-1.5,2.7-2.2,4.6-2.2c1.7,0,3,0.6,4.1,1.8v-8.1h3.6v22.5h-3.2l-0.2-1.6
				c-1.1,1.3-2.5,1.9-4.3,1.9c-1.9,0-3.4-0.7-4.5-2.2S974.3,499.6,974.3,497z M977.8,497.3c0,1.6,0.3,2.9,0.9,3.8
				c0.6,0.9,1.5,1.4,2.6,1.4c1.5,0,2.5-0.7,3.2-1.9v-6.8c-0.7-1.3-1.7-1.9-3.2-1.9c-1.2,0-2,0.5-2.7,1.4
				C978.1,494.1,977.8,495.5,977.8,497.3z"/>
			<path class="st2" d="M1001.4,505.1c-0.2-0.3-0.3-0.8-0.4-1.5c-1.1,1.2-2.5,1.8-4.2,1.8c-1.6,0-2.9-0.5-3.9-1.4
				c-1-0.9-1.5-2-1.5-3.4c0-1.7,0.6-3,1.9-3.9s3.1-1.4,5.4-1.4h2.2v-1c0-0.8-0.2-1.5-0.7-2c-0.5-0.5-1.2-0.7-2.1-0.7
				c-0.8,0-1.5,0.2-2,0.6c-0.5,0.4-0.8,0.9-0.8,1.5h-3.6c0-0.9,0.3-1.7,0.9-2.4c0.6-0.8,1.4-1.3,2.4-1.8c1-0.4,2.1-0.6,3.3-0.6
				c1.9,0,3.3,0.5,4.4,1.4s1.7,2.2,1.7,3.9v7.2c0,1.4,0.2,2.6,0.6,3.4v0.2H1001.4z M997.4,502.5c0.7,0,1.4-0.2,2-0.5
				c0.6-0.3,1.1-0.8,1.4-1.4v-3h-1.9c-1.3,0-2.3,0.2-3,0.7s-1,1.1-1,1.9c0,0.7,0.2,1.2,0.7,1.6C996.1,502.3,996.7,502.5,997.4,502.5
				z"/>
			<path class="st2" d="M1013.4,500l3.2-10.8h3.8l-6.3,18.3c-1,2.7-2.6,4-4.9,4c-0.5,0-1.1-0.1-1.7-0.3v-2.8l0.7,0
				c0.9,0,1.6-0.2,2-0.5c0.5-0.3,0.8-0.9,1.1-1.6l0.5-1.4l-5.6-15.8h3.8L1013.4,500z"/>
			<path class="st2" d="M1031.4,500.8c0-0.6-0.3-1.1-0.8-1.5c-0.5-0.3-1.4-0.6-2.6-0.9s-2.2-0.6-3-1c-1.8-0.9-2.7-2.1-2.7-3.7
				c0-1.4,0.6-2.5,1.7-3.4c1.2-0.9,2.6-1.4,4.4-1.4c1.9,0,3.4,0.5,4.6,1.4c1.2,0.9,1.8,2.2,1.8,3.7h-3.6c0-0.7-0.3-1.3-0.8-1.7
				c-0.5-0.5-1.2-0.7-2-0.7c-0.8,0-1.4,0.2-1.9,0.5c-0.5,0.4-0.7,0.8-0.7,1.5c0,0.5,0.2,1,0.7,1.3s1.4,0.6,2.8,0.9
				c1.4,0.3,2.5,0.7,3.3,1.1c0.8,0.4,1.4,0.9,1.8,1.5c0.4,0.6,0.6,1.3,0.6,2.2c0,1.4-0.6,2.6-1.8,3.5s-2.7,1.3-4.6,1.3
				c-1.3,0-2.5-0.2-3.5-0.7s-1.8-1.1-2.4-1.9c-0.6-0.8-0.9-1.7-0.9-2.7h3.5c0,0.8,0.4,1.5,1,1.9c0.6,0.5,1.4,0.7,2.3,0.7
				c0.9,0,1.7-0.2,2.1-0.5C1031.2,501.8,1031.4,501.3,1031.4,500.8z"/>
		</g>
		<g>
			<path class="st2" d="M807.7,483.4c-5.8,0-10.4,4.7-10.4,10.4s4.7,10.4,10.4,10.4s10.4-4.7,10.4-10.4
				C818.1,488.1,813.5,483.4,807.7,483.4L807.7,483.4z M807.7,503.2c-5.2,0-9.4-4.2-9.4-9.4c0-5.2,4.2-9.4,9.4-9.4
				c5.2,0,9.4,4.2,9.4,9.4C817.1,499,812.9,503.2,807.7,503.2z"/>
			<path class="st2" d="M808.2,493.6v-5.4c0-0.3-0.2-0.5-0.5-0.5c-0.3,0-0.5,0.2-0.5,0.5v5.6c0,0.1,0.1,0.3,0.2,0.4l4.2,3.9
				c0.2,0.2,0.5,0.2,0.7,0c0.2-0.2,0.2-0.5,0-0.7L808.2,493.6z"/>
		</g>
	</g>
	<g>
		<rect x="-0.2" y="405.7" class="st7" width="293.3" height="135"/>
		<polygon class="st7" points="293.1,467.5 317.6,486.2 293.1,506.7 		"/>
		<g>
			<path class="st2" d="M105.9,502.4l6.9,18.4l6.9-18.4h5.4v24h-4.1v-7.9l0.4-10.6l-7.1,18.5h-3l-7.1-18.5l0.4,10.6v7.9h-4.1v-24
				H105.9z"/>
			<path class="st2" d="M137.5,526.7c-2.5,0-4.6-0.8-6.2-2.4c-1.6-1.6-2.4-3.7-2.4-6.4v-0.5c0-1.8,0.3-3.4,1-4.8
				c0.7-1.4,1.6-2.5,2.9-3.3s2.6-1.2,4.1-1.2c2.4,0,4.3,0.8,5.6,2.3c1.3,1.5,2,3.7,2,6.6v1.6H133c0.1,1.5,0.6,2.6,1.5,3.5
				c0.9,0.9,1.9,1.3,3.3,1.3c1.8,0,3.3-0.7,4.5-2.2l2.2,2.1c-0.7,1.1-1.7,1.9-2.9,2.5C140.3,526.4,138.9,526.7,137.5,526.7z
				 M137,511.4c-1.1,0-2,0.4-2.7,1.2c-0.7,0.8-1.1,1.8-1.3,3.2h7.6v-0.3c-0.1-1.3-0.4-2.4-1.1-3C139,511.8,138.1,511.4,137,511.4z"
				/>
			<path class="st2" d="M147,517.3c0-2.7,0.6-4.9,1.9-6.6c1.3-1.7,3-2.5,5.1-2.5c1.9,0,3.4,0.7,4.6,2v-9.1h4v25.3h-3.6l-0.2-1.8
				c-1.2,1.4-2.8,2.2-4.8,2.2c-2.1,0-3.8-0.8-5.1-2.5S147,520.2,147,517.3z M151,517.7c0,1.8,0.3,3.2,1,4.2c0.7,1,1.7,1.5,3,1.5
				c1.6,0,2.8-0.7,3.6-2.2v-7.6c-0.7-1.4-1.9-2.1-3.6-2.1c-1.3,0-2.3,0.5-3,1.5C151.3,514.1,151,515.6,151,517.7z"/>
			<path class="st2" d="M166.8,503.9c0-0.6,0.2-1.1,0.6-1.5s0.9-0.6,1.7-0.6s1.3,0.2,1.7,0.6c0.4,0.4,0.6,0.9,0.6,1.5
				c0,0.6-0.2,1.1-0.6,1.5c-0.4,0.4-1,0.6-1.7,0.6s-1.3-0.2-1.7-0.6C166.9,505,166.8,504.5,166.8,503.9z M171,526.4h-4v-17.8h4
				V526.4z"/>
			<path class="st2" d="M186.2,524.6c-1.2,1.4-2.8,2.1-5,2.1c-1.9,0-3.4-0.6-4.4-1.7c-1-1.1-1.5-2.8-1.5-4.9v-11.5h4V520
				c0,2.3,0.9,3.4,2.8,3.4c1.9,0,3.3-0.7,3.9-2.1v-12.8h4v17.8h-3.8L186.2,524.6z"/>
			<path class="st2" d="M197.9,508.5l0.1,1.9c1.3-1.5,3-2.2,5.1-2.2c2.4,0,4,0.9,4.9,2.7c1.3-1.8,3.1-2.7,5.5-2.7
				c2,0,3.4,0.5,4.4,1.6c1,1.1,1.5,2.7,1.5,4.8v11.7h-4v-11.6c0-1.1-0.2-2-0.7-2.5c-0.5-0.5-1.3-0.8-2.5-0.8c-0.9,0-1.7,0.2-2.2,0.7
				c-0.6,0.5-1,1.1-1.2,1.9l0,12.2h-4v-11.7c-0.1-2.1-1.1-3.1-3.2-3.1c-1.6,0-2.7,0.7-3.4,2v12.9h-4v-17.8H197.9z"/>
		</g>
		<g class="st8">
			<path class="st2" d="M68.9,466.3c0,7.1-1.3,12.5-4,16.1c-2.7,3.6-6.7,5.4-12.2,5.4c-5.4,0-9.4-1.8-12.1-5.3
				c-2.7-3.5-4.1-8.8-4.2-15.7v-8.6c0-7.1,1.3-12.5,4-16c2.7-3.6,6.7-5.3,12.2-5.3c5.4,0,9.5,1.7,12.1,5.2c2.7,3.5,4,8.7,4.1,15.6
				V466.3z M60.6,457c0-4.7-0.6-8.1-1.9-10.2c-1.3-2.2-3.3-3.3-6.1-3.3c-2.7,0-4.7,1-6,3.1c-1.3,2.1-1.9,5.3-2,9.6v11.2
				c0,4.6,0.6,8.1,1.9,10.3c1.3,2.3,3.3,3.4,6.1,3.4c2.7,0,4.6-1,5.9-3.1c1.3-2.1,1.9-5.4,2-9.9V457z"/>
			<path class="st2" d="M85.8,458.6h5c2.5,0,4.6-0.7,6-2c1.5-1.3,2.2-3.2,2.2-5.6c0-2.4-0.6-4.2-1.9-5.5c-1.2-1.3-3.1-2-5.7-2
				c-2.2,0-4.1,0.6-5.5,1.9c-1.4,1.3-2.1,3-2.1,5h-8.3c0-2.5,0.7-4.9,2-6.9c1.4-2.1,3.2-3.7,5.7-4.9c2.4-1.2,5.1-1.8,8.1-1.8
				c4.9,0,8.8,1.2,11.7,3.7s4.2,5.9,4.2,10.4c0,2.2-0.7,4.3-2.1,6.3c-1.4,2-3.3,3.4-5.5,4.4c2.7,0.9,4.8,2.4,6.2,4.4
				c1.4,2,2.1,4.4,2.1,7.2c0,4.4-1.5,8-4.6,10.6c-3.1,2.6-7.1,3.9-12,3.9c-4.8,0-8.7-1.3-11.7-3.8c-3-2.5-4.6-5.9-4.6-10.1h8.3
				c0,2.2,0.7,3.9,2.2,5.3c1.5,1.4,3.4,2,5.9,2c2.6,0,4.6-0.7,6.1-2c1.5-1.4,2.2-3.3,2.2-5.9c0-2.6-0.8-4.6-2.3-6
				c-1.5-1.4-3.8-2.1-6.9-2.1h-4.9V458.6z"/>
		</g>
	</g>
</g>
<g id="issue_1_3_">
	<g>
		<rect x="293.3" y="540.7" class="st1" width="392.3" height="135"/>
		<g>
			<path class="st2" d="M351.7,594.4c-1.7,1.8-3.8,2.8-6.1,2.8c-2.7,0-4.9-1-6.5-2.9c-1.6-1.9-2.4-4.4-2.4-7.5
				c0-2.1,0.4-3.9,1.2-5.6c0.8-1.7,2-3,3.5-3.9c1.5-0.9,3.3-1.4,5.3-1.4c3.1,0,5.6,1.2,7.5,3.5c1.8,2.3,2.8,5.5,2.8,9.4v1.5
				c0,5.6-1.3,9.9-3.8,12.8c-2.5,2.9-6.3,4.4-11.3,4.5h-0.6v-4.3h0.7c3.1,0,5.4-0.8,7-2.2C350.6,599.6,351.5,597.4,351.7,594.4z
				 M346.7,593.1c1,0,2-0.3,2.9-0.9c0.9-0.6,1.6-1.4,2.1-2.5v-2c0-2.3-0.5-4.1-1.4-5.5c-0.9-1.4-2.2-2.1-3.7-2.1s-2.7,0.6-3.6,1.8
				c-0.9,1.2-1.3,2.8-1.3,4.7c0,2,0.4,3.5,1.3,4.7C344,592.5,345.2,593.1,346.7,593.1z"/>
			<path class="st2" d="M382.1,594.3c0,4.5-0.8,7.8-2.5,10.1c-1.7,2.3-4.2,3.4-7.6,3.4c-3.4,0-5.9-1.1-7.6-3.3
				c-1.7-2.2-2.6-5.5-2.6-9.8v-5.4c0-4.5,0.8-7.8,2.5-10.1c1.7-2.2,4.2-3.4,7.7-3.4c3.4,0,5.9,1.1,7.6,3.3c1.7,2.2,2.5,5.4,2.6,9.8
				V594.3z M376.9,588.5c0-2.9-0.4-5.1-1.2-6.4s-2.1-2-3.8-2c-1.7,0-2.9,0.6-3.7,1.9c-0.8,1.3-1.2,3.3-1.3,6v7
				c0,2.9,0.4,5.1,1.2,6.5c0.8,1.4,2.1,2.1,3.8,2.1c1.7,0,2.9-0.7,3.7-2c0.8-1.3,1.2-3.4,1.3-6.2V588.5z"/>
			<path class="st2" d="M386.5,582.3c0-1.9,0.6-3.4,1.8-4.6c1.2-1.2,2.8-1.8,4.8-1.8c2,0,3.6,0.6,4.8,1.8c1.2,1.2,1.8,2.8,1.8,4.7
				v1.5c0,1.9-0.6,3.4-1.8,4.6s-2.8,1.8-4.8,1.8c-1.9,0-3.5-0.6-4.8-1.8c-1.2-1.2-1.9-2.8-1.9-4.8V582.3z M390.1,583.9
				c0,1,0.3,1.8,0.8,2.4c0.5,0.6,1.3,0.9,2.2,0.9c0.9,0,1.6-0.3,2.1-0.9c0.5-0.6,0.8-1.4,0.8-2.5v-1.6c0-1-0.3-1.8-0.8-2.4
				c-0.5-0.6-1.3-0.9-2.2-0.9c-0.9,0-1.6,0.3-2.1,0.9c-0.5,0.6-0.8,1.4-0.8,2.5V583.9z M394.2,605.1l-2.7-1.5l15.2-24.3l2.7,1.5
				L394.2,605.1z M401.5,599.8c0-1.9,0.6-3.5,1.9-4.6c1.2-1.2,2.8-1.8,4.7-1.8c1.9,0,3.5,0.6,4.8,1.8c1.2,1.2,1.8,2.8,1.8,4.8v1.5
				c0,1.9-0.6,3.4-1.8,4.6s-2.8,1.8-4.8,1.8s-3.6-0.6-4.8-1.8c-1.2-1.2-1.8-2.8-1.8-4.7V599.8z M405.1,601.4c0,1,0.3,1.8,0.8,2.4
				c0.6,0.6,1.3,0.9,2.2,0.9c0.9,0,1.6-0.3,2.1-0.9c0.5-0.6,0.8-1.4,0.8-2.5v-1.6c0-1-0.3-1.8-0.8-2.4c-0.6-0.6-1.3-0.9-2.1-0.9
				c-0.9,0-1.6,0.3-2.1,0.9c-0.5,0.6-0.8,1.4-0.8,2.5V601.4z"/>
		</g>
		<g>
			<path class="st2" d="M527.6,632.5l9.1,3.5v3.8l-13-5.8v-3l13-5.8v3.8L527.6,632.5z"/>
			<path class="st2" d="M562.7,625.7c0,1.1-0.3,2.1-0.9,3c-0.6,0.9-1.3,1.5-2.3,2c1.2,0.5,2.1,1.3,2.7,2.2c0.6,1,1,2,1,3.2
				c0,2-0.7,3.6-2,4.7c-1.3,1.2-3.1,1.7-5.4,1.7c-2.2,0-4-0.6-5.4-1.8c-1.3-1.2-2-2.7-2-4.7c0-1.2,0.3-2.3,1-3.3
				c0.6-1,1.5-1.7,2.7-2.2c-1-0.5-1.7-1.2-2.3-2c-0.6-0.9-0.8-1.8-0.8-3c0-1.9,0.6-3.4,1.9-4.6c1.2-1.1,2.9-1.7,5-1.7
				c2.1,0,3.8,0.6,5,1.7C562.1,622.2,562.7,623.7,562.7,625.7z M559.5,635.9c0-1.1-0.3-2-1-2.7s-1.5-1-2.6-1c-1.1,0-2,0.3-2.6,1
				s-1,1.6-1,2.7c0,1.1,0.3,2,1,2.6c0.6,0.7,1.5,1,2.7,1s2-0.3,2.7-1C559.1,638,559.5,637.1,559.5,635.9z M559,625.8
				c0-1-0.3-1.8-0.9-2.4c-0.6-0.6-1.3-1-2.3-1c-1,0-1.7,0.3-2.3,0.9c-0.6,0.6-0.8,1.4-0.8,2.5c0,1,0.3,1.9,0.8,2.5
				c0.6,0.6,1.3,0.9,2.3,0.9c1,0,1.7-0.3,2.3-0.9C558.7,627.6,559,626.8,559,625.8z"/>
			<path class="st2" d="M578.4,627.3c1.2-1.4,2.8-2.1,4.7-2.1c3.6,0,5.4,2,5.4,6.1v11h-3.8v-10.8c0-1.2-0.3-2-0.8-2.5
				c-0.5-0.5-1.2-0.7-2.2-0.7c-1.5,0-2.6,0.7-3.4,2v12h-3.8v-23.8h3.8V627.3z"/>
			<path class="st2" d="M591.6,633.7c0-1.6,0.3-3.1,1-4.4c0.7-1.3,1.6-2.3,2.7-3c1.2-0.7,2.5-1.1,4.1-1.1c2.3,0,4.1,0.7,5.5,2.2
				c1.4,1.5,2.2,3.4,2.3,5.8l0,0.9c0,1.7-0.3,3.1-1,4.4c-0.6,1.3-1.5,2.3-2.7,3c-1.2,0.7-2.5,1.1-4.1,1.1c-2.4,0-4.3-0.8-5.7-2.4
				c-1.4-1.6-2.1-3.7-2.1-6.3V633.7z M595.4,634.1c0,1.7,0.4,3.1,1.1,4.1c0.7,1,1.7,1.5,3,1.5s2.3-0.5,3-1.5c0.7-1,1.1-2.4,1.1-4.4
				c0-1.7-0.4-3-1.1-4c-0.7-1-1.7-1.5-3-1.5c-1.2,0-2.2,0.5-2.9,1.5C595.7,630.7,595.4,632.1,595.4,634.1z"/>
			<path class="st2" d="M620.5,640.6c-1.1,1.3-2.7,2-4.7,2c-1.8,0-3.2-0.5-4.1-1.6s-1.4-2.6-1.4-4.6v-10.9h3.8v10.8
				c0,2.1,0.9,3.2,2.6,3.2c1.8,0,3.1-0.7,3.7-2v-12h3.8v16.8h-3.5L620.5,640.6z"/>
			<path class="st2" d="M636.8,628.9c-0.5-0.1-1-0.1-1.5-0.1c-1.7,0-2.9,0.7-3.5,2v11.5H628v-16.8h3.6l0.1,1.9
				c0.9-1.5,2.2-2.2,3.8-2.2c0.5,0,1,0.1,1.3,0.2L636.8,628.9z"/>
			<path class="st2" d="M648.5,637.7c0-0.7-0.3-1.2-0.8-1.5c-0.6-0.4-1.5-0.7-2.7-0.9c-1.3-0.3-2.3-0.6-3.2-1
				c-1.9-0.9-2.8-2.2-2.8-4c0-1.4,0.6-2.7,1.8-3.6c1.2-1,2.8-1.5,4.6-1.5c2,0,3.6,0.5,4.9,1.5s1.9,2.3,1.9,3.9h-3.8
				c0-0.7-0.3-1.3-0.8-1.8c-0.5-0.5-1.2-0.7-2.1-0.7c-0.8,0-1.5,0.2-2,0.6c-0.5,0.4-0.8,0.9-0.8,1.5c0,0.6,0.2,1,0.7,1.3
				c0.5,0.3,1.5,0.6,2.9,1s2.6,0.7,3.5,1.2c0.8,0.4,1.5,1,1.9,1.6c0.4,0.6,0.6,1.4,0.6,2.3c0,1.5-0.6,2.7-1.9,3.7
				c-1.2,0.9-2.9,1.4-4.9,1.4c-1.4,0-2.6-0.2-3.7-0.7c-1.1-0.5-1.9-1.2-2.5-2c-0.6-0.9-0.9-1.8-0.9-2.8h3.7c0.1,0.9,0.4,1.6,1,2.1
				c0.6,0.5,1.4,0.7,2.5,0.7c1,0,1.7-0.2,2.3-0.6C648.3,638.8,648.5,638.3,648.5,637.7z"/>
		</g>
		<g>
			<path class="st2" d="M496.3,616.7c-7,0-12.8,5.7-12.8,12.8c0,7,5.7,12.8,12.8,12.8s12.8-5.7,12.8-12.8
				C509.1,622.4,503.3,616.7,496.3,616.7L496.3,616.7z M496.3,641c-6.3,0-11.5-5.2-11.5-11.5c0-6.3,5.2-11.5,11.5-11.5
				c6.3,0,11.5,5.2,11.5,11.5C507.8,635.8,502.6,641,496.3,641z"/>
			<path class="st2" d="M496.9,629.2v-6.6c0-0.4-0.3-0.6-0.6-0.6c-0.4,0-0.6,0.3-0.6,0.6v6.8c0,0.2,0.1,0.3,0.2,0.5l5.1,4.8
				c0.3,0.2,0.7,0.2,0.9,0c0.2-0.3,0.2-0.7,0-0.9L496.9,629.2z"/>
		</g>
	</g>
	<g>
		<rect x="685.6" y="540.7" class="st3" width="395" height="135"/>
		<g>
			<path class="st2" d="M737.2,589.8c-1.7,1.8-3.7,2.7-6.1,2.7c-2.7,0-4.9-1-6.5-2.9c-1.6-1.9-2.4-4.4-2.4-7.5c0-2,0.4-3.9,1.2-5.5
				s2-2.9,3.5-3.9s3.3-1.4,5.3-1.4c3.1,0,5.6,1.2,7.4,3.5c1.8,2.3,2.7,5.4,2.7,9.3v1.4c0,5.6-1.3,9.8-3.8,12.8
				c-2.5,2.9-6.3,4.4-11.3,4.5h-0.6v-4.3h0.7c3,0,5.4-0.8,7-2.2C736.1,595,737,592.8,737.2,589.8z M732.2,588.5c1,0,2-0.3,2.9-0.9
				c0.9-0.6,1.6-1.4,2.1-2.5v-2c0-2.3-0.5-4.1-1.4-5.5c-0.9-1.4-2.1-2.1-3.6-2.1s-2.7,0.6-3.6,1.8c-0.9,1.2-1.3,2.8-1.3,4.6
				c0,1.9,0.4,3.5,1.3,4.7C729.5,587.9,730.7,588.5,732.2,588.5z"/>
			<path class="st2" d="M767.4,589.7c0,4.4-0.8,7.8-2.5,10.1s-4.2,3.4-7.6,3.4c-3.3,0-5.9-1.1-7.5-3.3c-1.7-2.2-2.6-5.5-2.6-9.8
				v-5.4c0-4.4,0.8-7.8,2.5-10c1.7-2.2,4.2-3.3,7.6-3.3c3.4,0,5.9,1.1,7.6,3.2s2.5,5.4,2.6,9.7V589.7z M762.3,583.9
				c0-2.9-0.4-5-1.2-6.4c-0.8-1.4-2.1-2-3.8-2c-1.7,0-2.9,0.6-3.7,1.9c-0.8,1.3-1.2,3.3-1.3,6v7c0,2.9,0.4,5,1.2,6.5
				c0.8,1.4,2.1,2.1,3.8,2.1c1.7,0,2.9-0.7,3.7-2c0.8-1.3,1.2-3.4,1.3-6.1V583.9z"/>
			<path class="st2" d="M771.8,577.8c0-1.9,0.6-3.4,1.8-4.6s2.8-1.8,4.7-1.8c2,0,3.6,0.6,4.8,1.8s1.8,2.8,1.8,4.7v1.5
				c0,1.9-0.6,3.4-1.8,4.6s-2.8,1.8-4.7,1.8c-1.9,0-3.5-0.6-4.7-1.8c-1.2-1.2-1.9-2.7-1.9-4.7V577.8z M775.4,579.4
				c0,1,0.3,1.8,0.8,2.4s1.3,0.9,2.2,0.9c0.9,0,1.6-0.3,2.1-0.9c0.5-0.6,0.8-1.4,0.8-2.5v-1.6c0-1-0.3-1.8-0.8-2.4s-1.3-0.9-2.2-0.9
				s-1.6,0.3-2.1,0.9c-0.5,0.6-0.8,1.4-0.8,2.4V579.4z M779.4,600.4l-2.7-1.5l15.1-24.2l2.7,1.5L779.4,600.4z M786.6,595.2
				c0-1.9,0.6-3.4,1.8-4.6s2.8-1.8,4.7-1.8c1.9,0,3.5,0.6,4.7,1.8s1.8,2.8,1.8,4.8v1.5c0,1.8-0.6,3.4-1.8,4.6
				c-1.2,1.2-2.8,1.8-4.7,1.8c-2,0-3.6-0.6-4.8-1.8c-1.2-1.2-1.8-2.7-1.8-4.7V595.2z M790.2,596.8c0,1,0.3,1.8,0.8,2.4
				c0.6,0.6,1.3,0.9,2.2,0.9c0.9,0,1.6-0.3,2.1-0.9c0.5-0.6,0.8-1.4,0.8-2.5v-1.6c0-1-0.3-1.8-0.8-2.4c-0.6-0.6-1.3-0.9-2.1-0.9
				c-0.9,0-1.6,0.3-2.1,0.9s-0.8,1.4-0.8,2.5V596.8z"/>
		</g>
		<g>
			<path class="st2" d="M808.3,636l9.1,3.4v3.7l-12.8-5.7v-3l12.8-5.7v3.7L808.3,636z"/>
			<path class="st2" d="M830.1,634.6l1.2-11.3h12v3.2h-8.9l-0.6,5.3c1-0.6,2.2-0.9,3.5-0.9c2.1,0,3.8,0.7,5,2
				c1.2,1.4,1.8,3.2,1.8,5.5c0,2.3-0.7,4.1-2,5.4c-1.3,1.3-3.1,2-5.4,2c-2,0-3.7-0.6-5.1-1.7c-1.3-1.2-2.1-2.7-2.2-4.6h3.6
				c0.1,1.1,0.5,1.9,1.2,2.5s1.5,0.9,2.5,0.9c1.1,0,2-0.4,2.7-1.2c0.6-0.8,1-1.9,1-3.3c0-1.4-0.4-2.4-1.1-3.2s-1.7-1.2-2.9-1.2
				c-0.7,0-1.2,0.1-1.7,0.3s-1,0.5-1.5,1.1L830.1,634.6z"/>
			<path class="st2" d="M869.6,640.5l2.6-11.5h3.6l-4.5,16.6h-3.1l-3.6-11.4l-3.5,11.4h-3.1l-4.5-16.6h3.6l2.7,11.3l3.4-11.3h2.8
				L869.6,640.5z"/>
			<path class="st2" d="M877.7,637.2c0-1.6,0.3-3.1,1-4.4s1.6-2.3,2.7-3c1.2-0.7,2.5-1.1,4-1.1c2.2,0,4.1,0.7,5.5,2.2
				c1.4,1.4,2.2,3.4,2.3,5.7l0,0.9c0,1.6-0.3,3.1-0.9,4.4c-0.6,1.3-1.5,2.3-2.7,3c-1.2,0.7-2.5,1.1-4.1,1.1c-2.3,0-4.2-0.8-5.6-2.3
				s-2.1-3.6-2.1-6.2V637.2z M881.4,637.6c0,1.7,0.4,3,1.1,4c0.7,1,1.7,1.5,2.9,1.5s2.2-0.5,2.9-1.5s1.1-2.4,1.1-4.3
				c0-1.7-0.4-3-1.1-4c-0.7-1-1.7-1.5-2.9-1.5c-1.2,0-2.2,0.5-2.9,1.5C881.8,634.2,881.4,635.6,881.4,637.6z"/>
			<path class="st2" d="M905,632.5c-0.5-0.1-1-0.1-1.5-0.1c-1.7,0-2.9,0.7-3.5,2v11.4h-3.7v-16.6h3.6l0.1,1.9
				c0.9-1.4,2.1-2.2,3.7-2.2c0.5,0,1,0.1,1.3,0.2L905,632.5z"/>
			<path class="st2" d="M912.7,638.6l-1.7,1.7v5.4h-3.7v-23.6h3.7v13.6l1.2-1.5l4.6-5.2h4.5l-6.2,6.9l6.8,9.7h-4.3L912.7,638.6z"/>
			<path class="st2" d="M923.7,624.8c0-0.6,0.2-1,0.5-1.4c0.4-0.4,0.9-0.6,1.6-0.6c0.7,0,1.2,0.2,1.6,0.6c0.4,0.4,0.6,0.9,0.6,1.4
				c0,0.6-0.2,1-0.6,1.4c-0.4,0.4-0.9,0.6-1.6,0.6c-0.7,0-1.2-0.2-1.6-0.6C923.9,625.8,923.7,625.3,923.7,624.8z M927.7,645.7H924
				v-16.6h3.7V645.7z"/>
			<path class="st2" d="M935.2,629.1l0.1,1.9c1.2-1.5,2.8-2.2,4.8-2.2c3.5,0,5.2,2,5.3,5.9v11h-3.7v-10.8c0-1.1-0.2-1.8-0.7-2.3
				s-1.2-0.8-2.2-0.8c-1.5,0-2.6,0.7-3.4,2v11.8h-3.7v-16.6H935.2z"/>
			<path class="st2" d="M948.6,637.3c0-2.6,0.6-4.6,1.8-6.2c1.2-1.5,2.8-2.3,4.8-2.3c1.9,0,3.4,0.7,4.5,2l0.2-1.7h3.4v16.1
				c0,2.2-0.7,3.9-2,5.2c-1.4,1.3-3.2,1.9-5.5,1.9c-1.2,0-2.4-0.3-3.6-0.8c-1.2-0.5-2-1.2-2.6-2l1.8-2.2c1.1,1.4,2.6,2,4.2,2
				c1.2,0,2.2-0.3,2.9-1c0.7-0.7,1.1-1.7,1.1-3v-1.1c-1.1,1.2-2.5,1.8-4.3,1.8c-1.9,0-3.5-0.8-4.8-2.3S948.6,640,948.6,637.3z
				 M952.3,637.6c0,1.7,0.3,3,1,3.9c0.7,1,1.6,1.4,2.8,1.4c1.5,0,2.6-0.6,3.3-1.9v-7.3c-0.7-1.3-1.8-1.9-3.3-1.9
				c-1.2,0-2.2,0.5-2.9,1.5C952.6,634.3,952.3,635.7,952.3,637.6z"/>
			<path class="st2" d="M974.2,637.3c0-2.6,0.6-4.6,1.8-6.2c1.2-1.5,2.8-2.3,4.8-2.3c1.8,0,3.2,0.6,4.3,1.8v-8.5h3.7v23.6h-3.4
				l-0.2-1.7c-1.1,1.4-2.6,2-4.5,2c-1.9,0-3.5-0.8-4.7-2.3C974.8,642.1,974.2,640,974.2,637.3z M977.9,637.6c0,1.7,0.3,3,1,4
				c0.6,0.9,1.6,1.4,2.8,1.4c1.5,0,2.6-0.7,3.3-2v-7.1c-0.7-1.3-1.8-2-3.3-2c-1.2,0-2.1,0.5-2.8,1.4
				C978.2,634.2,977.9,635.7,977.9,637.6z"/>
			<path class="st2" d="M1002.6,645.7c-0.2-0.3-0.3-0.8-0.4-1.6c-1.2,1.2-2.6,1.9-4.4,1.9c-1.7,0-3-0.5-4.1-1.4
				c-1.1-1-1.6-2.1-1.6-3.5c0-1.8,0.7-3.1,2-4.1c1.3-0.9,3.2-1.4,5.6-1.4h2.3v-1.1c0-0.9-0.2-1.5-0.7-2.1c-0.5-0.5-1.2-0.8-2.2-0.8
				c-0.8,0-1.5,0.2-2.1,0.6c-0.5,0.4-0.8,1-0.8,1.6h-3.7c0-0.9,0.3-1.8,0.9-2.6c0.6-0.8,1.4-1.4,2.5-1.9c1-0.5,2.2-0.7,3.5-0.7
				c1.9,0,3.5,0.5,4.7,1.5c1.2,1,1.8,2.4,1.8,4.1v7.5c0,1.5,0.2,2.7,0.6,3.6v0.3H1002.6z M998.5,643c0.7,0,1.4-0.2,2.1-0.5
				c0.6-0.4,1.1-0.8,1.5-1.4v-3.1h-2c-1.4,0-2.4,0.2-3.1,0.7c-0.7,0.5-1,1.2-1,2c0,0.7,0.2,1.3,0.7,1.7S997.7,643,998.5,643z"/>
			<path class="st2" d="M1015.2,640.3l3.4-11.3h4l-6.6,19.1c-1,2.8-2.7,4.2-5.2,4.2c-0.5,0-1.1-0.1-1.8-0.3v-2.9l0.7,0
				c0.9,0,1.7-0.2,2.1-0.5c0.5-0.3,0.9-0.9,1.1-1.7l0.5-1.4l-5.8-16.5h4L1015.2,640.3z"/>
			<path class="st2" d="M1034,641.2c0-0.7-0.3-1.2-0.8-1.5c-0.5-0.3-1.5-0.7-2.7-0.9c-1.3-0.3-2.3-0.6-3.2-1
				c-1.9-0.9-2.8-2.2-2.8-3.9c0-1.4,0.6-2.6,1.8-3.6c1.2-1,2.7-1.4,4.6-1.4c2,0,3.6,0.5,4.8,1.5s1.8,2.3,1.8,3.8h-3.7
				c0-0.7-0.3-1.3-0.8-1.8c-0.5-0.5-1.2-0.7-2.1-0.7c-0.8,0-1.5,0.2-2,0.6c-0.5,0.4-0.8,0.9-0.8,1.5c0,0.6,0.2,1,0.7,1.3
				c0.5,0.3,1.5,0.6,2.9,1c1.5,0.3,2.6,0.7,3.4,1.2c0.8,0.4,1.5,1,1.9,1.6s0.6,1.4,0.6,2.3c0,1.5-0.6,2.7-1.9,3.6s-2.9,1.4-4.9,1.4
				c-1.4,0-2.6-0.2-3.6-0.7s-1.9-1.2-2.5-2c-0.6-0.9-0.9-1.8-0.9-2.8h3.6c0.1,0.9,0.4,1.6,1,2c0.6,0.5,1.4,0.7,2.4,0.7
				c1,0,1.7-0.2,2.2-0.6S1034,641.8,1034,641.2z"/>
		</g>
		<g>
			<path class="st2" d="M776,623c-6,0-10.9,4.9-10.9,10.9s4.9,10.9,10.9,10.9c6,0,10.9-4.9,10.9-10.9C786.9,627.9,782,623,776,623
				L776,623z M776,643.7c-5.4,0-9.8-4.4-9.8-9.8c0-5.4,4.4-9.8,9.8-9.8c5.4,0,9.8,4.4,9.8,9.8C785.8,639.3,781.4,643.7,776,643.7z"
				/>
			<path class="st2" d="M776.5,633.7v-5.6c0-0.3-0.2-0.5-0.5-0.5c-0.3,0-0.5,0.2-0.5,0.5v5.8c0,0.2,0.1,0.3,0.2,0.4l4.4,4.1
				c0.2,0.2,0.6,0.2,0.8,0c0.2-0.2,0.2-0.6,0-0.8L776.5,633.7z"/>
		</g>
	</g>
	<g>
		<rect x="-0.2" y="540.7" class="st4" width="293.3" height="135"/>
		<polygon class="st4" points="293.1,602.5 317.6,621.2 293.1,641.7 		"/>
		<g>
			<path class="st2" d="M139.4,654.4h10.9v3.3h-15.1v-24h4.2V654.4z"/>
			<path class="st2" d="M152.3,648.6c0-1.7,0.3-3.3,1-4.7c0.7-1.4,1.7-2.5,2.9-3.2s2.7-1.1,4.3-1.1c2.4,0,4.4,0.8,5.9,2.3
				s2.3,3.6,2.4,6.2l0,0.9c0,1.8-0.3,3.3-1,4.7c-0.7,1.4-1.6,2.5-2.9,3.2c-1.3,0.8-2.7,1.1-4.4,1.1c-2.5,0-4.5-0.8-6-2.5
				c-1.5-1.7-2.3-3.9-2.3-6.7V648.6z M156.3,649c0,1.8,0.4,3.3,1.1,4.3c0.8,1,1.8,1.6,3.2,1.6c1.4,0,2.4-0.5,3.2-1.6
				s1.1-2.6,1.1-4.6c0-1.8-0.4-3.2-1.2-4.3s-1.8-1.6-3.2-1.6c-1.3,0-2.3,0.5-3.1,1.6C156.7,645.4,156.3,646.9,156.3,649z"/>
			<path class="st2" d="M187.9,652.2l2.8-12.3h3.9l-4.9,17.8h-3.3l-3.8-12.2l-3.8,12.2h-3.3l-4.9-17.8h3.9l2.9,12.2l3.7-12.2h3
				L187.9,652.2z"/>
		</g>
		<g class="st8">
			<path class="st2" d="M70,591.3c0,7.1-1.3,12.5-4,16.1c-2.7,3.6-6.7,5.4-12.2,5.4c-5.4,0-9.4-1.8-12.1-5.3
				c-2.7-3.5-4.1-8.8-4.2-15.7v-8.6c0-7.1,1.3-12.5,4-16c2.7-3.6,6.7-5.3,12.2-5.3c5.4,0,9.5,1.7,12.1,5.2c2.7,3.5,4,8.7,4.1,15.6
				V591.3z M61.7,582.1c0-4.7-0.6-8.1-1.9-10.2c-1.3-2.2-3.3-3.3-6.1-3.3c-2.7,0-4.7,1-6,3.1c-1.3,2.1-1.9,5.3-2,9.6v11.2
				c0,4.6,0.6,8.1,1.9,10.3c1.3,2.3,3.3,3.4,6.1,3.4c2.7,0,4.6-1,5.9-3.1c1.3-2.1,1.9-5.4,2-9.9V582.1z"/>
			<path class="st2" d="M105.3,594.5h6.2v6.6h-6.2v11h-8.3v-11H75.6l-0.2-5l21.4-33.5h8.5V594.5z M84.1,594.5h13v-20.7l-0.6,1.1
				L84.1,594.5z"/>
		</g>
	</g>
</g>
</svg>
