<?xml version="1.0" encoding="utf-8"?>
<!-- Generator: Adobe Illustrator 24.1.1, SVG Export Plug-In . SVG Version: 6.00 Build 0)  -->
<svg version="1.1" id="BACKGROUND" xmlns="http://www.w3.org/2000/svg" xmlns:xlink="http://www.w3.org/1999/xlink" x="0px" y="0px"
	 viewBox="0 0 750 405.1" style="enable-background:new 0 0 750 405.1;" xml:space="preserve">
<style type="text/css">
	.st0{clip-path:url(#SVGID_2_);fill:#F2F2F2;}
	.st1{clip-path:url(#SVGID_2_);}
	.st2{fill:#F2F2F2;}
	.st3{clip-path:url(#SVGID_2_);fill:#D3D3D3;}
	.st4{fill:none;stroke:#2D2D2D;stroke-width:0.1668;stroke-miterlimit:10;}
	.st5{fill:none;stroke:#2C2C2C;stroke-width:0.1662;stroke-miterlimit:10;}
	.st6{fill:none;stroke:#2B2B2B;stroke-width:0.1656;stroke-miterlimit:10;}
	.st7{fill:none;stroke:#2A2A2A;stroke-width:0.165;stroke-miterlimit:10;}
	.st8{fill:none;stroke:#292929;stroke-width:0.1644;stroke-miterlimit:10;}
	.st9{fill:none;stroke:#282828;stroke-width:0.1638;stroke-miterlimit:10;}
	.st10{fill:none;stroke:#272727;stroke-width:0.1632;stroke-miterlimit:10;}
	.st11{fill:none;stroke:#262626;stroke-width:0.1625;stroke-miterlimit:10;}
	.st12{fill:none;stroke:#252525;stroke-width:0.1619;stroke-miterlimit:10;}
	.st13{fill:none;stroke:#242424;stroke-width:0.1613;stroke-miterlimit:10;}
	.st14{fill:none;stroke:#232323;stroke-width:0.1607;stroke-miterlimit:10;}
	.st15{fill:none;stroke:#222222;stroke-width:0.1601;stroke-miterlimit:10;}
	.st16{fill:none;stroke:#212121;stroke-width:0.1595;stroke-miterlimit:10;}
	.st17{fill:none;stroke:#202020;stroke-width:0.1589;stroke-miterlimit:10;}
	.st18{fill:none;stroke:#1F1F1F;stroke-width:0.1583;stroke-miterlimit:10;}
	.st19{fill:none;stroke:#1E1E1E;stroke-width:0.1577;stroke-miterlimit:10;}
	.st20{fill:none;stroke:#1D1D1D;stroke-width:0.1571;stroke-miterlimit:10;}
	.st21{fill:none;stroke:#1C1C1C;stroke-width:0.1565;stroke-miterlimit:10;}
	.st22{fill:none;stroke:#1B1B1B;stroke-width:0.1559;stroke-miterlimit:10;}
	.st23{fill:none;stroke:#1A1A1A;stroke-width:0.1553;stroke-miterlimit:10;}
	.st24{fill:none;stroke:#191919;stroke-width:0.1547;stroke-miterlimit:10;}
	.st25{fill:none;stroke:#181818;stroke-width:0.1541;stroke-miterlimit:10;}
	.st26{fill:none;stroke:#171717;stroke-width:0.1534;stroke-miterlimit:10;}
	.st27{fill:none;stroke:#161616;stroke-width:0.1528;stroke-miterlimit:10;}
	.st28{fill:none;stroke:#161616;stroke-width:0.1522;stroke-miterlimit:10;}
	.st29{fill:none;stroke:#151515;stroke-width:0.1516;stroke-miterlimit:10;}
	.st30{fill:none;stroke:#141414;stroke-width:0.151;stroke-miterlimit:10;}
	.st31{fill:none;stroke:#131313;stroke-width:0.1504;stroke-miterlimit:10;}
	.st32{fill:none;stroke:#121212;stroke-width:0.1498;stroke-miterlimit:10;}
	.st33{fill:none;stroke:#111111;stroke-width:0.1492;stroke-miterlimit:10;}
	.st34{fill:none;stroke:#101010;stroke-width:0.1486;stroke-miterlimit:10;}
	.st35{fill:none;stroke:#0F0F0F;stroke-width:0.148;stroke-miterlimit:10;}
	.st36{fill:none;stroke:#0E0E0E;stroke-width:0.1474;stroke-miterlimit:10;}
	.st37{fill:none;stroke:#0D0D0D;stroke-width:0.1468;stroke-miterlimit:10;}
	.st38{fill:none;stroke:#0C0C0C;stroke-width:0.1462;stroke-miterlimit:10;}
	.st39{fill:none;stroke:#0B0B0B;stroke-width:0.1456;stroke-miterlimit:10;}
	.st40{fill:none;stroke:#0A0A0A;stroke-width:0.145;stroke-miterlimit:10;}
	.st41{fill:none;stroke:#090909;stroke-width:0.1443;stroke-miterlimit:10;}
	.st42{fill:none;stroke:#080808;stroke-width:0.1437;stroke-miterlimit:10;}
	.st43{fill:none;stroke:#070707;stroke-width:0.1431;stroke-miterlimit:10;}
	.st44{fill:none;stroke:#060606;stroke-width:0.1425;stroke-miterlimit:10;}
	.st45{fill:none;stroke:#050505;stroke-width:0.1419;stroke-miterlimit:10;}
	.st46{fill:none;stroke:#040404;stroke-width:0.1413;stroke-miterlimit:10;}
	.st47{fill:none;stroke:#030303;stroke-width:0.1407;stroke-miterlimit:10;}
	.st48{fill:none;stroke:#020202;stroke-width:0.1401;stroke-miterlimit:10;}
	.st49{fill:none;stroke:#010101;stroke-width:0.1395;stroke-miterlimit:10;}
	.st50{fill:none;stroke:#000000;stroke-width:0.1389;stroke-miterlimit:10;}
	.st51{clip-path:url(#SVGID_2_);fill:#314CE8;}
	.st52{fill:none;stroke:#2D2D2D;stroke-width:0.2394;stroke-miterlimit:10;}
	.st53{fill:#FFC248;}
	.st54{fill:#353535;}
	.st55{fill:none;stroke:#353535;stroke-width:0.5;stroke-miterlimit:10;}
	.st56{clip-path:url(#SVGID_2_);fill:#353535;}
</style>
<g>
	<defs>
		<rect id="SVGID_1_" y="-88.2" width="750" height="500"/>
	</defs>
	<clipPath id="SVGID_2_">
		<use xlink:href="#SVGID_1_"  style="overflow:visible;"/>
	</clipPath>
	<rect y="-112.4" class="st0" width="786.4" height="524.2"/>
	<g class="st1">
		
			<image style="overflow:visible;opacity:0.2;" width="1996" height="1226" xlink:href="740303FA.png"  transform="matrix(0.24 0 0 0.24 377.0876 -305.2138)">
		</image>
		<g>
			<path class="st2" d="M479.9-228.5c0,0-145.5,134.9-12.9,104.6s150.2-20.3,151.6,21.6c1.6,45.3,25.5,42.4,78.4,6.4
				c52.9-36.1,7.3,67.6,124.7,48.2L815-271L479.9-228.5z"/>
		</g>
	</g>
	<path class="st3" d="M-128.6-32.8c0,0,0.7-49,84-6.6C71.9,20,96.8-189.2,196.7-110.9C296.6-32.6,294.6-232,371-157.3
		c76.4,74.8,53.2-183.3,132.1-128.3l-657.5-108.7L-128.6-32.8z"/>
	<g class="st1">
		
			<image style="overflow:visible;opacity:0.3;" width="2875" height="1349" xlink:href="740303FE.png"  transform="matrix(0.24 0 0 0.24 -209.2 -322.4614)">
		</image>
		<g>
			<path class="st2" d="M450.7-206c0,0-128.1,171-148.8,74.6c-20.7-96.4-66.3,88.3-164.4,35.6C39.4-148.6-20.4,27.7-39.2-66
				s-52.7,99.1-139.9,15.7l35.2-242L450.7-206z"/>
		</g>
	</g>
	<g class="st1">
		<path class="st4" d="M-87.9,22.5c0,0,7.9-215.6,129-104.3s77.4-89.3,150.1-1.7c72.6,87.6,117.2-119,292.9-57.3"/>
		<path class="st5" d="M-87.9,24.1c0,0,9.2-213,129.6-102.5s78.6-88.2,152.5-3.2c74,84.9,117.9-119.6,289.8-59.1"/>
		<path class="st6" d="M-87.8,25.7c0,0,10.4-210.4,130.3-100.7s79.8-87,155-4.7c75.3,82.2,118.6-120.1,286.7-61"/>
		<path class="st7" d="M-87.7,27.2c0,0,11.7-207.9,131-98.9s81-85.8,157.4-6.3c76.6,79.5,119.4-120.6,283.6-62.8"/>
		<path class="st8" d="M-87.6,28.8c0,0,13-205.3,131.6-97.1s82.2-84.7,159.9-7.8c78,76.8,120.1-121.1,280.5-64.7"/>
		<path class="st9" d="M-87.5,30.4c0,0,14.3-202.7,132.3-95.3s83.4-83.5,162.4-9.3C286.4,0,327.9-195.7,484.5-140.7"/>
		<path class="st10" d="M-87.5,32c0,0,15.6-200.1,133-93.5s84.6-82.3,164.8-10.8C291-0.9,331.9-194.4,484.6-140.7"/>
		<path class="st11" d="M-87.4,33.5c0,0,16.8-197.5,133.6-91.6s85.7-81,167.3-12.3C295.4-1.5,335.8-193,484.7-140.6"/>
		<path class="st12" d="M-87.3,35.1c0,0,18.1-194.9,134.3-89.8s86.9-79.8,169.7-13.8c83.1,66.2,123-123.1,268.1-72.1"/>
		<path class="st13" d="M-87.2,36.7c0,0,19.4-192.3,135-88s88-78.6,172.2-15.4c84.5,63.5,123.7-123.6,265-73.9"/>
		<path class="st14" d="M-87.1,38.3c0,0,20.7-189.7,135.6-86.2s89.2-77.4,174.6-16.9C308.9-4,347.6-189,485-140.6"/>
		<path class="st15" d="M-87,39.9c0,0,22-187.2,136.3-84.4s90.4-76.2,177.1-18.4c87.1,58.2,125.1-124.6,258.8-77.6"/>
		<path class="st16" d="M-87,41.4c0,0,23.2-184.6,137-82.6s91.6-75.1,179.6-19.9C318-5.6,355.4-186.2,485.3-140.6"/>
		<path class="st17" d="M-86.9,43c0,0,24.5-182,137.6-80.8s92.8-73.9,182-21.4c89.8,52.8,126.6-125.7,252.6-81.3"/>
		<path class="st18" d="M-86.8,44.6c0,0,25.8-179.4,138.3-79s94-72.7,184.5-22.9c91.1,50.1,127.3-126.2,249.5-83.2"/>
		<path class="st19" d="M-86.7,46.2c0,0,27.1-176.8,139-77.2s95.2-71.5,186.9-24.4c92.4,47.4,128-126.7,246.4-85"/>
		<path class="st20" d="M-86.6,47.7c0,0,28.4-174.2,139.6-75.4s96.4-70.3,189.4-26c93.8,44.7,128.8-127.2,243.3-86.9"/>
		<path class="st21" d="M-86.6,49.3c0,0,29.6-171.6,140.3-73.6s97.6-69.1,191.8-27.5C340.7-9.7,375-179.4,485.8-140.5"/>
		<path class="st22" d="M-86.5,50.9c0,0,30.9-169,141-71.8s98.8-67.9,194.3-29c96.5,39.4,130.2-128.2,237.1-90.6"/>
		<path class="st23" d="M-86.4,52.5c0,0,32.2-166.5,141.6-70S155.2-84.3,252-48c97.8,36.7,130.9-128.7,234-92.5"/>
		<path class="st24" d="M-86.3,54c0,0,33.5-163.9,142.3-68.2s101.2-65.6,199.2-32c99.1,34,131.6-129.2,230.9-94.3"/>
		<path class="st25" d="M-86.2,55.6c0,0,34.8-161.3,142.9-66.3s102.5-64.4,201.7-33.5C358.9-13,390.7-174,486.2-140.4"/>
		<path class="st26" d="M-86.2,57.2c0,0,36-158.7,143.6-64.5s103.7-63.3,204.1-35.1c101.8,28.6,133.1-130.3,224.7-98"/>
		<path class="st27" d="M-86.1,58.8c0,0,37.3-156.1,144.3-62.7S163.1-66,264.8-40.5C368-14.6,398.6-171.3,486.4-140.4"/>
		<path class="st28" d="M-86,60.3c0,0,38.6-153.5,144.9-60.9S165-61.5,268-38.7c104.5,23.2,134.5-131.3,218.6-101.7"/>
		<path class="st29" d="M-85.9,61.9c0,0,39.9-150.9,145.6-59.1S167-56.9,271.2-36.8c105.9,20.5,135.3-131.8,215.5-103.6"/>
		<path class="st30" d="M-85.8,63.5c0,0,41.2-148.3,146.3-57.3s108.5-58.6,214-41.1c107.2,17.8,136-132.3,212.4-105.4"/>
		<path class="st31" d="M-85.8,65.1c0,0,42.4-145.8,146.9-55.5s109.7-57.4,216.4-42.6C386.2-18,414.3-165.9,486.9-140.3"/>
		<path class="st32" d="M-85.7,66.7c0,0,43.7-143.2,147.6-53.7s110.9-56.3,218.9-44.1C390.7-18.8,418.2-164.5,487-140.3"/>
		<path class="st33" d="M-85.6,68.2c0,0,45-140.6,148.3-51.9S174.8-38.8,284-29.3c111.2,9.6,138.1-133.8,203.1-111"/>
		<path class="st34" d="M-85.5,69.8c0,0,46.3-138,148.9-50.1s113.3-54,223.8-47.2c112.6,6.9,138.9-134.3,200-112.8"/>
		<path class="st35" d="M-85.4,71.4c0,0,47.6-135.4,149.6-48.3s114.6-52.8,226.3-48.7C404.3-21.4,430-160.4,487.3-140.3"/>
		<path class="st36" d="M-85.4,73c0,0,48.8-132.8,150.3-46.5s115.8-51.7,228.7-50.2c115.3,1.5,140.3-135.3,193.8-116.5"/>
		<path class="st37" d="M-85.3,74.5c0,0,50.1-130.2,150.9-44.7s117-50.5,231.2-51.7c116.6-1.2,141-135.9,190.7-118.4"/>
		<path class="st38" d="M-85.2,76.1c0,0,51.4-127.6,151.6-42.9S184.6-16.1,300-20c117.9-4,141.8-136.4,187.6-120.2"/>
		<path class="st39" d="M-85.1,77.7c0,0,52.7-125.1,152.3-41.1s119.4-48.2,236.1-54.7C422.5-24.8,445.7-155,487.7-140.2"/>
		<path class="st40" d="M-85,79.3c0,0,54-122.5,152.9-39.2S188.5-7,306.4-16.2c120.6-9.4,143.2-137.4,181.4-124"/>
		<path class="st41" d="M-85,80.8c0,0,55.2-119.9,153.6-37.4s121.8-46.1,241-57.8c121.9-12.4,143.9-137.9,178.3-125.8"/>
		<path class="st42" d="M-84.9,82.4c0,0,56.5-117.3,154.3-35.6s123-45,243.5-59.3C436.1-27.6,457.5-150.9,488-140.2"/>
		<path class="st43" d="M-84.8,84c0,0,57.8-114.7,154.9-33.8S194.3,6.4,316-10.6c124.6-17.8,145.4-138.9,172.1-129.5"/>
		<path class="st44" d="M-84.7,85.6c0,0,59.1-112.1,155.6-32S196.2,10.9,319.2-8.8c125.9-20.5,146.1-139.4,169-131.4"/>
		<path class="st45" d="M-84.6,87.1c0,0,60.4-109.5,156.3-30.2S198.2,15.5,322.5-6.9c127.3-23.2,146.8-139.9,165.9-133.2"/>
		<path class="st46" d="M-84.6,88.7c0,0,61.6-106.9,156.9-28.4S200.1,20,325.7-5c128.6-25.9,147.5-140.4,162.8-135.1"/>
		<path class="st47" d="M-84.5,90.3c0,0,62.9-104.4,157.6-26.6S202,24.6,328.9-3.2c129.9-28.6,148.3-141,159.7-136.9"/>
		<path class="st48" d="M-84.4,91.9c0,0,64.2-101.8,158.3-24.8S204,29.1,332.1-1.3c131.3-31.3,149-141.5,156.6-138.8"/>
		<path class="st49" d="M-84.3,93.5c0,0,65.5-99.2,158.9-23S205.9,33.7,335.3,0.6c132.6-34,149.7-142,153.5-140.6"/>
		<path class="st50" d="M-84.2,95c0,0,66.8-96.6,159.6-21.2S207.9,38.2,338.5,2.4C472.4-34.3,488.9-140,488.9-140"/>
	</g>
	<g class="st1">
		
			<image style="overflow:visible;opacity:0.2;" width="1472" height="1333" xlink:href="740303F9.png"  transform="matrix(0.24 0 0 0.24 -95.5198 213.3788)">
		</image>
		<g>
			<path class="st2" d="M-61.2,329.2c0,0,51-140.3,108.3-71.1c57.3,69.2,83.9-60,116.2,20.7c29.4,73.6,88.1,21.5,62.2,135.5
				c-25.8,114,3.9,88.5-168.9,93.1s-118.4-41.1-118.4-41.1L-61.2,329.2z"/>
		</g>
	</g>
	<path class="st51" d="M130.5,405.8c0,0,59.2-80.3,105.9-53.5c65.2,37.4,114.7-124.1,219.3-71.8C560.1,332.7,617.4,146,640,243.7
		c22.6,97.7,52.2-105.6,146.3-20.8l-29.3,255L130.5,405.8z"/>
	<g class="st1">
		
			<image style="overflow:visible;opacity:0.3;" width="3003" height="1753" xlink:href="740303FB.png"  transform="matrix(0.24 0 0 0.24 175.76 184.1786)">
		</image>
		<g>
			<path class="st2" d="M829.8,214.2c0,0-59.9,148.1-148.4,41.3c-88.5-106.8-72.2,121.8-174.4,46.5
				c-102.2-75.3-94.3,123.9-172.8,51.5c-78.6-72.4-47.7,184.8-128.3,132.2l660.5,89L829.8,214.2z"/>
		</g>
	</g>
	<g class="st1">
		<path class="st52" d="M314.3,412.2c0,0-57.2-133,63.1-125.1C497.7,295,415.5,100,568.5,191c153,91.1,73.7-81.2,184.6,9.7"/>
		<path class="st52" d="M315.3,413.2c0,0-55.8-133.6,63.9-124.7s39.4-185.4,190.2-93.6c150.8,92,74.3-82.6,184.1,8.6"/>
		<path class="st52" d="M316.4,414.2c0,0-54.4-134.1,64.6-124.3c119.1,9.7,40.8-183.7,189.3-91.1c148.6,93,75-84,183.6,7.4"/>
		<path class="st52" d="M317.4,415.3c0,0-53-134.6,65.4-124c118.5,10.6,42.1-182,188.4-88.7c146.4,93.9,75.6-85.4,183.2,6.3"/>
		<path class="st52" d="M318.5,416.3c0,0-51.6-135.1,66.2-123.6c117.8,11.5,43.4-180.3,187.5-86.2c144.3,94.9,76.2-86.8,182.7,5.1"
			/>
		<path class="st52" d="M319.5,417.3c0,0-50.2-135.6,67-123.2c117.2,12.4,44.8-178.6,186.6-83.7c142.1,95.8,76.9-88.2,182.2,4"/>
		<path class="st52" d="M320.6,418.3c0,0-48.8-136.1,67.7-122.8c116.6,13.3,46.3-177.2,185.7-81.3c140.1,96.5,77.5-89.6,181.7,2.8"
			/>
		<path class="st52" d="M321.6,419.3c0,0-47.5-136.6,68.5-122.4c116,14.2,47.7-175.6,184.8-78.8c138,97.4,78.2-91,181.2,1.6"/>
		<path class="st52" d="M322.7,420.3c0,0-46.1-137.2,69.3-122s49-173.9,183.9-76.3c135.8,98.3,78.8-92.4,180.7,0.5"/>
		<path class="st52" d="M323.7,421.4c0,0-44.7-137.7,70.1-121.6s50.4-172.3,183-73.9c133.7,99.2,79.5-93.8,180.2-0.7"/>
		<path class="st52" d="M324.8,422.4c0,0-43.3-138.2,70.8-121.2s51.8-170.6,182.1-71.4c131.6,100.1,80.1-95.2,179.7-1.8"/>
		<path class="st52" d="M325.8,423.4c0,0-41.9-138.7,71.6-120.8s53.1-168.9,181.2-69c129.4,101,80.8-96.6,179.2-3"/>
		<path class="st52" d="M326.9,424.4c0,0-40.5-139.2,72.4-120.5s54.5-167.3,180.3-66.5c127.3,102,81.4-98,178.7-4.1"/>
		<path class="st52" d="M327.9,425.4c0,0-39.1-139.7,73.2-120.1c112.2,19.7,55.9-165.6,179.4-64c125.1,102.9,82-99.4,178.2-5.3"/>
		<path class="st52" d="M329,426.4c0,0-37.7-140.2,73.9-119.7s57.2-163.9,178.5-61.6c123,103.8,82.7-100.8,177.7-6.4"/>
		<path class="st52" d="M330,427.4c0,0-36.3-140.7,74.7-119.3c111,21.5,58.6-162.2,177.6-59.1c120.9,104.7,83.3-102.2,177.2-7.6"/>
		<path class="st52" d="M331.1,428.5c0,0-34.9-141.3,75.5-118.9s59.9-160.6,176.7-56.6c118.7,105.7,84-103.7,176.7-8.7"/>
		<path class="st52" d="M332.1,429.5c0,0-33.5-141.8,76.3-118.5c109.8,23.3,61.3-158.9,175.8-54.2c116.6,106.6,84.6-105.1,176.3-9.9
			"/>
		<path class="st52" d="M333.2,430.5c0,0-32.1-142.3,77-118.1c109.1,24.2,62.7-157.2,174.9-51.7c114.4,107.5,85.3-106.5,175.8-11"/>
		<path class="st52" d="M334.2,431.5c0,0-30.7-142.8,77.8-117.7c108.5,25.1,64-155.5,174-49.2c112.3,108.5,85.9-107.9,175.3-12.2"/>
		<path class="st52" d="M335.3,432.5c0,0-29.3-143.3,78.6-117.3c107.9,26,65.4-153.8,173.1-46.8c110.1,109.4,86.6-109.3,174.8-13.3"
			/>
		<path class="st52" d="M336.3,433.5c0,0-27.9-143.8,79.3-117c107.3,26.9,66.7-152.1,172.2-44.3c108,110.4,87.2-110.7,174.3-14.5"/>
		<path class="st52" d="M337.4,434.5c0,0-26.5-144.3,80.1-116.6s68.1-150.4,171.3-41.8c105.8,111.3,87.8-112.1,173.8-15.6"/>
		<path class="st52" d="M338.4,435.6c0,0-25.1-144.9,80.9-116.2c106,28.7,69.4-148.7,170.4-39.4c103.7,112.2,88.5-113.5,173.3-16.8"
			/>
		<path class="st52" d="M339.5,436.6c0,0-23.7-145.4,81.7-115.8s70.8-147,169.5-36.9c101.5,113.2,89.1-114.9,172.8-17.9"/>
		<path class="st52" d="M340.5,437.6c0,0-22.3-145.9,82.4-115.4c104.8,30.5,72.1-145.3,168.6-34.4c99.3,114.2,89.8-116.3,172.3-19.1
			"/>
		<path class="st52" d="M341.6,438.6c0,0-20.9-146.4,83.2-115s73.5-143.6,167.7-32c97.2,115.1,90.4-117.7,171.8-20.2"/>
		<path class="st52" d="M342.6,439.6c0,0-19.5-146.9,84-114.6c103.5,32.3,74.8-141.9,166.8-29.5c95,116.1,91.1-119.1,171.3-21.4"/>
		<path class="st52" d="M343.7,440.6c0,0-18.1-147.4,84.8-114.2s76.1-140.2,165.9-27c92.9,117,91.7-120.5,170.8-22.5"/>
		<path class="st52" d="M344.7,441.7c0,0-16.7-147.9,85.5-113.8c102.3,34.1,77.5-138.5,165-24.6c90.7,118,92.4-121.9,170.3-23.7"/>
		<path class="st52" d="M345.8,442.7c0,0-15.4-148.4,86.3-113.5s78.8-136.8,164.1-22.1c88.5,119,93-123.3,169.8-24.8"/>
		<path class="st52" d="M346.8,443.7c0,0-14-149,87.1-113.1c101,35.9,80.1-135.1,163.2-19.7c86.3,119.9,93.7-124.7,169.4-26"/>
		<path class="st52" d="M347.9,444.7c0,0-12.6-149.5,87.9-112.7s81.5-133.3,162.3-17.2c84.2,120.9,94.3-126.1,168.9-27.1"/>
		<path class="st52" d="M348.9,445.7c0,0-11.2-150,88.6-112.3c99.8,37.7,82.8-131.6,161.4-14.7c82,121.9,94.9-127.6,168.4-28.3"/>
		<path class="st52" d="M350,446.7c0,0-9.8-150.5,89.4-111.9s84.1-129.9,160.5-12.3c79.8,122.8,95.6-129,167.9-29.5"/>
		<path class="st52" d="M351,447.7c0,0-8.4-151,90.2-111.5c98.6,39.5,85.4-128.2,159.6-9.8c77.6,123.8,96.2-130.4,167.4-30.6"/>
		<path class="st52" d="M352.1,448.8c0,0-7-151.5,91-111.1c97.9,40.4,86.7-126.5,158.7-7.3c75.4,124.8,96.9-131.8,166.9-31.8"/>
		<path class="st52" d="M353.1,449.8c0,0-5.6-152,91.7-110.7c97.3,41.3,88.1-124.7,157.8-4.9c73.2,125.8,97.5-133.2,166.4-32.9"/>
		<path class="st52" d="M354.1,450.8c0,0-4.2-152.6,92.5-110.3c96.7,42.2,89.4-123,156.9-2.4c71,126.8,98.2-134.6,165.9-34.1"/>
		<path class="st52" d="M355.2,451.8c0,0-2.8-153.1,93.3-110c96.1,43.1,90.7-121.3,156,0.1c68.8,127.7,98.8-136,165.4-35.2"/>
		<path class="st52" d="M356.2,452.8c0,0-1.4-153.6,94-109.6c95.4,44,92-119.6,155.1,2.5c66.6,128.7,99.5-137.4,164.9-36.4"/>
		<path class="st52" d="M357.3,453.8c0,0,0-154.1,94.8-109.2c94.8,44.9,93.3-117.8,154.2,5c64.4,129.7,100.1-138.8,164.4-37.5"/>
		<path class="st52" d="M358.3,454.8c0,0,1.4-154.6,95.6-108.8c94.2,45.8,94.6-116.1,153.3,7.5c62.2,130.7,100.7-140.2,163.9-38.7"
			/>
		<path class="st52" d="M359.4,455.9c0,0,2.8-155.1,96.4-108.4c93.6,46.7,95.8-114.4,152.4,9.9c60,131.7,101.4-141.6,163.4-39.8"/>
		<path class="st52" d="M360.4,456.9c0,0,4.2-155.6,97.1-108c93,47.6,97.1-112.6,151.6,12.4c57.7,132.6,102-143,162.9-41"/>
		<path class="st52" d="M361.5,457.9c0,0,5.6-156.1,97.9-107.6c92.3,48.5,98.4-110.9,150.7,14.9c55.5,133.6,102.7-144.4,162.5-42.1"
			/>
		<path class="st52" d="M362.5,458.9c0,0,7-156.7,98.7-107.2c91.7,49.4,99.7-109.2,149.8,17.3c53.3,134.6,103.3-145.8,162-43.3"/>
		<path class="st52" d="M363.6,459.9c0,0,8.4-157.2,99.5-106.8c91.1,50.3,101-107.5,148.9,19.8c51,135.6,104-147.2,161.5-44.4"/>
		<path class="st52" d="M364.6,460.9c0,0,9.8-157.7,100.2-106.5c90.5,51.2,102-105.7,148,22.2c48.6,136.6,104.6-148.6,161-45.6"/>
		<path class="st52" d="M365.7,462c0,0,11.2-158.2,101-106.1c89.8,52.1,103.3-104,147.1,24.7c46.4,137.6,105.3-150,160.5-46.7"/>
		<path class="st52" d="M366.7,463c0,0,12.6-158.7,101.8-105.7c89.2,53,104.7-102.3,146.2,27.2c44.2,138.5,105.9-151.5,160-47.9"/>
		<path class="st52" d="M367.8,464c0,0,14-159.2,102.6-105.3c88.6,53.9,106-100.6,145.3,29.6c42,139.5,106.5-152.9,159.5-49"/>
	</g>
	<g class="st1">
		<circle class="st53" cx="615" cy="-111.5" r="2"/>
		<circle class="st53" cx="615" cy="-95.9" r="2"/>
		<circle class="st53" cx="615" cy="-80.4" r="2"/>
		<circle class="st53" cx="615" cy="-64.9" r="2"/>
	</g>
	<g class="st1">
		<circle class="st53" cx="163.4" cy="-101.5" r="2"/>
		<circle class="st53" cx="163.4" cy="-85.9" r="2"/>
		<circle class="st53" cx="163.4" cy="-70.4" r="2"/>
		<circle class="st53" cx="163.4" cy="-54.9" r="2"/>
	</g>
	<g class="st1">
		<circle class="st53" cx="658.4" cy="378.8" r="2"/>
		<circle class="st53" cx="658.4" cy="394.3" r="2"/>
		<circle class="st53" cx="658.4" cy="409.8" r="2"/>
		<circle class="st53" cx="658.4" cy="425.4" r="2"/>
	</g>
	<g class="st1">
		<circle class="st53" cx="38.6" cy="289.6" r="2"/>
		<circle class="st53" cx="38.6" cy="305.1" r="2"/>
		<circle class="st53" cx="38.6" cy="320.6" r="2"/>
		<circle class="st53" cx="38.6" cy="336.1" r="2"/>
	</g>
	<g class="st1">
		<g>
			<circle class="st54" cx="-12" cy="-45.1" r="2"/>
			<circle class="st54" cx="3.5" cy="-45.1" r="2"/>
			<circle class="st54" cx="19.1" cy="-45.1" r="2"/>
			<circle class="st54" cx="34.6" cy="-45.1" r="2"/>
		</g>
	</g>
	<g class="st1">
		<g>
			<circle class="st54" cx="716.1" cy="298.9" r="2"/>
			<circle class="st54" cx="731.6" cy="298.9" r="2"/>
			<circle class="st54" cx="747.1" cy="298.9" r="2"/>
			<circle class="st54" cx="762.7" cy="298.9" r="2"/>
		</g>
	</g>
	<g class="st1">
		<g>
			<path class="st54" d="M414.5,26c1.1,0,2,0.9,2,2c0,1.1-0.9,2-2,2c-1.1,0-2-0.9-2-2C412.5,26.9,413.4,26,414.5,26z"/>
			<circle class="st54" cx="430.1" cy="28" r="2"/>
			<circle class="st54" cx="445.6" cy="28" r="2"/>
			<circle class="st54" cx="461.1" cy="28" r="2"/>
		</g>
	</g>
	<g class="st1">
		<g>
			<circle class="st54" cx="721.8" cy="-72.6" r="2"/>
			<circle class="st54" cx="737.4" cy="-72.6" r="2"/>
			<circle class="st54" cx="752.9" cy="-72.6" r="2"/>
			<path class="st54" d="M768.4-74.6c1.1,0,2,0.9,2,2c0,1.1-0.9,2-2,2c-1.1,0-2-0.9-2-2C766.4-73.7,767.3-74.6,768.4-74.6z"/>
		</g>
	</g>
	<g class="st1">
		<g>
			<circle class="st54" cx="-37.3" cy="216.9" r="2"/>
			<circle class="st54" cx="-21.7" cy="216.9" r="2"/>
			<circle class="st54" cx="-6.2" cy="216.9" r="2"/>
			<path class="st54" d="M9.3,214.9c1.1,0,2,0.9,2,2s-0.9,2-2,2c-1.1,0-2-0.9-2-2S8.2,214.9,9.3,214.9z"/>
		</g>
	</g>
	<g class="st1">
		<g>
			<circle class="st54" cx="-17.7" cy="396.3" r="2"/>
			<circle class="st54" cx="-2.2" cy="396.3" r="2"/>
			<circle class="st54" cx="13.3" cy="396.3" r="2"/>
			<circle class="st54" cx="28.8" cy="396.3" r="2"/>
		</g>
	</g>
	<g class="st1">
		<g>
			<circle class="st54" cx="282.8" cy="380.8" r="2"/>
			<circle class="st54" cx="298.3" cy="380.8" r="2"/>
			<circle class="st54" cx="313.8" cy="380.8" r="2"/>
			<circle class="st54" cx="329.4" cy="380.8" r="2"/>
		</g>
	</g>
	<g class="st1">
		<circle class="st53" cx="595" cy="50.1" r="2"/>
		<circle class="st53" cx="595" cy="65.6" r="2"/>
		<circle class="st53" cx="595" cy="81.2" r="2"/>
		<circle class="st53" cx="595" cy="96.7" r="2"/>
	</g>
	<g class="st1">
		<line class="st55" x1="481.4" y1="-68.4" x2="495.3" y2="-68.4"/>
		<line class="st55" x1="488.4" y1="-61.5" x2="488.4" y2="-75.3"/>
	</g>
	<g class="st1">
		<line class="st55" x1="136.4" y1="376.8" x2="150.3" y2="376.8"/>
		<line class="st55" x1="143.4" y1="383.7" x2="143.4" y2="369.9"/>
	</g>
	<g class="st1">
		<line class="st55" x1="635.5" y1="354.9" x2="649.4" y2="354.9"/>
		<line class="st55" x1="642.4" y1="361.8" x2="642.4" y2="348"/>
	</g>
	<g class="st1">
		<line class="st55" x1="136.4" y1="-52.9" x2="150.3" y2="-52.9"/>
		<line class="st55" x1="143.4" y1="-46" x2="143.4" y2="-59.8"/>
	</g>
	<g class="st1">
		<line class="st55" x1="690.4" y1="201.4" x2="704.3" y2="201.4"/>
		<line class="st55" x1="697.4" y1="208.3" x2="697.4" y2="194.5"/>
	</g>
	<g class="st1">
		<line class="st55" x1="27.7" y1="92.7" x2="41.5" y2="92.7"/>
		<line class="st55" x1="34.6" y1="99.6" x2="34.6" y2="85.8"/>
	</g>
	<polygon class="st56" points="27.2,177.4 22,186.4 32.4,186.4 	"/>
	<polygon class="st56" points="750,220.4 744.8,229.4 755.2,229.4 	"/>
	<polygon class="st56" points="-6,-6.1 3,-0.9 3,-11.3 	"/>
	<polygon class="st56" points="696.4,371.4 687.4,366.2 687.4,376.6 	"/>
	<polygon class="st56" points="658.2,-24.6 667.2,-19.4 667.2,-29.8 	"/>
	<polygon class="st56" points="222.8,-85.2 231.8,-80 231.8,-90.4 	"/>
	<polygon class="st56" points="311.8,416.3 317,407.3 306.6,407.3 	"/>
	<polygon class="st56" points="81.8,410.3 72.8,405.1 72.8,415.5 	"/>
</g>
</svg>
