<?xml version="1.0" encoding="utf-8"?>
<!-- Generator: Adobe Illustrator 24.1.1, SVG Export Plug-In . SVG Version: 6.00 Build 0)  -->
<svg version="1.1" id="Layer_1" xmlns="http://www.w3.org/2000/svg" xmlns:xlink="http://www.w3.org/1999/xlink" x="0px" y="0px"
	 viewBox="0 0 448.8 420.6" style="enable-background:new 0 0 448.8 420.6;" xml:space="preserve">
<style type="text/css">
	.st0{fill:#DD990E;}
	.st1{fill:#F9CB07;}
	.st2{fill:#CC8B09;}
	.st3{fill:#E8A30A;}
	.st4{fill:#F9CA06;}
	.st5{opacity:0.3;fill:#D6D8E5;enable-background:new    ;}
	.st6{fill:#2B2A30;}
	.st7{fill:#FFCEA9;}
	.st8{fill:#F4F4F4;}
	.st9{fill:#1A4BEE;}
	.st10{fill:#EDEDED;}
	.st11{fill:#3A2C6D;}
	.st12{fill:#BFBFBF;}
	.st13{fill:#E5E5E5;}
	.st14{fill:#DADCE5;}
	.st15{fill:#F8F9FF;}
	.st16{fill:#8C50FF;}
	.st17{fill:#38226D;}
	.st18{fill:#9C73FF;}
</style>
<g id="Слой_2">
	<g id="Слой_1-2">
		<g id="Coin-6">
			<ellipse class="st0" cx="93.2" cy="295.4" rx="53.3" ry="30.8"/>
			<polygon class="st0" points="39.9,295.9 39.9,281.9 50.4,291.3 			"/>
			<polygon class="st0" points="146.5,282.3 146.5,295.4 141.1,301.2 138.5,286.1 			"/>
			<ellipse class="st1" cx="93.2" cy="282.3" rx="53.3" ry="30.8"/>
			<path class="st2" d="M131.3,283.2c-0.6,5.2-4.2,10.3-11.1,14.3c-14.9,8.6-39.1,8.6-54,0c-6.9-4-10.6-9.1-11.1-14.3
				c-0.6-6.1,3.1-12.3,11.1-16.9c14.9-8.6,39.1-8.6,54,0C128.2,270.9,131.9,277.1,131.3,283.2z"/>
			<path class="st3" d="M131.3,283.2c-0.6,5.2-4.2,10.3-11.1,14.3c-14.9,8.6-39.1,8.6-54,0c-6.9-4-10.6-9.1-11.1-14.3
				c0.5-5.2,4.2-10.3,11.1-14.3c14.9-8.6,39.1-8.6,54,0C127.1,272.9,130.7,278,131.3,283.2z"/>
			<path class="st2" d="M92.7,276c-0.5,0-0.9,0-1.4,0.1c-0.6,0.1-1.3,0.2-2.1,0.4c-0.8,0.2-1.6,0.4-2.4,0.6
				c-0.8,0.2-1.6,0.5-2.4,0.9l6,3.5l1.1-0.4c1.6-0.5,3-1,4.4-1.3c1.3-0.4,2.6-0.6,4-0.7c1.2-0.1,2.4,0,3.6,0.2
				c1.2,0.3,2.4,0.7,3.5,1.4c1.1,0.5,2,1.3,2.6,2.3c0.4,0.7,0.6,1.6,0.4,2.4c-0.3,0.9-0.8,1.7-1.4,2.4c-0.8,0.8-1.8,1.6-2.8,2.2
				l3.9,2.3l-2.2,1.2l-3.9-2.3c-1.9,0.9-3.8,1.7-5.8,2.2c-2.1,0.6-4.3,1-6.4,1.2l-2.1-3.7c0.6,0,1.1-0.1,1.7-0.1
				c0.9-0.1,1.7-0.2,2.6-0.4c0.9-0.2,1.9-0.5,3-0.8c1-0.3,2-0.7,3-1.1l-6.1-3.5l-0.8,0.3l-0.8,0.3c-1.5,0.5-2.9,0.9-4.2,1.1
				c-1.2,0.3-2.4,0.4-3.6,0.5c-1.1,0-2.1-0.1-3.2-0.3c-1-0.2-2-0.6-2.9-1.1c-1-0.5-1.9-1.3-2.6-2.2c-0.5-0.7-0.7-1.5-0.7-2.4
				c0.1-0.9,0.4-1.7,1-2.4c0.7-0.9,1.5-1.7,2.5-2.3l-3.6-2.1l2.1-1.2l3.6,2.1c1.7-0.8,3.5-1.4,5.3-1.8c1.7-0.4,3.5-0.8,5.3-1
				L92.7,276z M82.3,282.4c0.8,0.5,1.7,0.7,2.7,0.6c1.2-0.1,2.5-0.4,3.6-0.8l-5.7-3.3C80.7,280.2,80.5,281.5,82.3,282.4L82.3,282.4z
				 M102.4,284.1c-0.9-0.5-1.9-0.7-2.9-0.5c-1.4,0.2-2.7,0.5-4,0.9l5.7,3.3C103.6,286.3,104,285.1,102.4,284.1L102.4,284.1z"/>
			<path class="st2" d="M89.3,291c0-0.1,0-2.1,0-2.1l2.3,1.5l-1,1.6L89.3,291z"/>
			<polygon class="st2" points="109.8,292.3 109.8,290.3 104.7,290.7 107.6,292.6 			"/>
			<polygon class="st2" points="110.2,284.8 110.2,282.7 106.4,284 			"/>
			<path class="st2" d="M94.5,284.6l1.3-1.2l4.4,3.1l-0.3,0.9c0,0-3.3-1.4-3.4-1.5S94.5,284.6,94.5,284.6z"/>
			<path class="st2" d="M82.8,278.1l5.9,3.3l1.1-0.9c0,0-0.7-0.9-0.8-0.9c-0.5-0.6-1.2-1.1-1.8-1.5c-0.4-0.1-3.2-1.3-3.2-1.3
				L82.8,278.1z"/>
			<polygon class="st2" points="92.6,276 92.6,273.9 89.9,273 89.3,274.7 89.5,275.4 			"/>
			<polygon class="st2" points="74.6,274.5 74.6,272.4 77.7,272.8 76.7,274.8 			"/>
			<path class="st2" d="M74.7,281.5v-2.1h3.6l-0.9,1.9l-1.6,1.7L74.7,281.5z"/>
			<path class="st4" d="M92.7,273.9c-0.5,0-0.9,0-1.4,0.1c-0.6,0.1-1.3,0.2-2.1,0.4c-0.8,0.2-1.6,0.4-2.4,0.6
				c-0.8,0.2-1.6,0.5-2.4,0.9l6,3.5l1.1-0.4c1.6-0.5,3-1,4.4-1.3c1.3-0.4,2.6-0.6,4-0.7c1.2-0.1,2.4,0,3.6,0.2
				c1.2,0.3,2.4,0.7,3.5,1.4c1.1,0.5,2,1.3,2.6,2.3c0.4,0.7,0.6,1.6,0.4,2.4c-0.3,0.9-0.8,1.7-1.4,2.4c-0.8,0.8-1.8,1.6-2.8,2.2
				l3.9,2.3l-2.2,1.2l-3.9-2.3c-1.9,0.9-3.8,1.7-5.8,2.2c-2.1,0.6-4.3,1-6.4,1.2l-2.1-3.7c0.6,0,1.1-0.1,1.7-0.1
				c0.9-0.1,1.7-0.2,2.6-0.4c0.9-0.2,1.9-0.5,3-0.8c1-0.3,2-0.7,3-1.1l-6.1-3.5l-0.8,0.3l-0.8,0.3c-1.5,0.5-2.9,0.9-4.2,1.1
				c-1.2,0.3-2.4,0.4-3.6,0.5c-1.1,0-2.1-0.1-3.2-0.3c-1-0.2-2-0.6-2.9-1.1c-1-0.5-1.9-1.3-2.5-2.2c-0.5-0.7-0.7-1.5-0.7-2.4
				c0.1-0.9,0.4-1.7,1-2.4c0.7-0.9,1.5-1.7,2.5-2.3l-3.6-2.1l2.1-1.2l3.6,2.1c1.7-0.8,3.4-1.5,5.3-1.9c1.7-0.4,3.5-0.8,5.3-1
				L92.7,273.9z M82.2,280.3c0.8,0.5,1.7,0.7,2.7,0.6c1.2-0.1,2.5-0.4,3.6-0.8l-5.7-3.3C80.7,278.2,80.5,279.4,82.2,280.3z
				 M102.3,282c-0.9-0.5-1.9-0.7-2.9-0.5c-1.4,0.2-2.7,0.5-4,0.9l5.7,3.3C103.6,284.2,104,283,102.3,282L102.3,282z"/>
		</g>
		<g id="Coin-7">
			<ellipse class="st0" cx="96.7" cy="275.9" rx="53.3" ry="30.8"/>
			<polygon class="st0" points="43.4,276.3 43.4,262.3 53.9,271.7 			"/>
			<polygon class="st0" points="150,262.7 150,275.9 144.6,281.6 141.9,266.5 			"/>
			<ellipse class="st1" cx="96.7" cy="262.7" rx="53.3" ry="30.8"/>
			<path class="st2" d="M134.7,263.6c-0.5,5.2-4.2,10.3-11.1,14.3c-14.9,8.6-39.1,8.6-54,0c-6.9-4-10.6-9.1-11.1-14.3
				c-0.7-6.1,3-12.3,11.1-16.9c14.9-8.6,39.1-8.6,54,0C131.7,251.4,135.4,257.6,134.7,263.6z"/>
			<path class="st3" d="M134.7,263.6c-0.5,5.2-4.2,10.3-11.1,14.3c-14.9,8.6-39.1,8.6-54,0c-6.9-4-10.6-9.1-11.1-14.3
				c0.5-5.2,4.2-10.3,11.1-14.3c14.9-8.6,39.1-8.6,54,0C130.5,253.4,134.2,258.5,134.7,263.6z"/>
			<path class="st2" d="M96.1,256.4c-0.5,0-0.9,0-1.4,0.1c-0.6,0.1-1.3,0.2-2.1,0.4c-0.8,0.2-1.6,0.4-2.4,0.6
				c-0.8,0.2-1.6,0.5-2.4,0.9l6.1,3.5l1.1-0.4c1.6-0.5,3-1,4.4-1.3c1.3-0.3,2.6-0.6,4-0.7c1.2-0.1,2.5,0,3.7,0.2
				c1.2,0.3,2.4,0.7,3.4,1.4c1.1,0.5,2,1.3,2.6,2.3c0.5,0.7,0.6,1.6,0.4,2.4c-0.3,0.9-0.8,1.7-1.4,2.4c-0.8,0.8-1.8,1.6-2.8,2.2
				l3.9,2.3L111,274l-3.9-2.3c-1.9,0.9-3.8,1.7-5.8,2.2c-2.1,0.6-4.3,1-6.4,1.2l-2.1-3.7c0.4,0,1,0,1.7-0.1c0.8-0.1,1.6-0.2,2.6-0.4
				c1-0.2,1.9-0.5,3-0.8c1-0.3,2-0.7,3-1.1l-6.1-3.5c-0.3,0.1-0.5,0.2-0.8,0.3l-0.8,0.3c-1.5,0.5-2.9,0.9-4.2,1.1
				c-1.2,0.3-2.4,0.4-3.6,0.5c-1.1,0-2.1-0.1-3.2-0.3c-1-0.2-2-0.6-2.9-1.1c-1-0.5-1.8-1.3-2.5-2.1c-0.5-0.7-0.7-1.5-0.7-2.4
				c0.1-0.9,0.4-1.7,1-2.4c0.7-0.9,1.5-1.7,2.5-2.3l-3.6-2.1l2.1-1.2l3.6,2.1c1.7-0.8,3.4-1.5,5.3-1.9c1.7-0.4,3.5-0.8,5.3-1
				L96.1,256.4z M85.7,262.9c0.8,0.5,1.7,0.7,2.6,0.6c1.2-0.1,2.5-0.4,3.7-0.8l-5.7-3.3C84.1,260.7,83.9,261.9,85.7,262.9
				L85.7,262.9z M105.8,264.5c-0.9-0.5-1.9-0.7-2.9-0.5c-1.4,0.2-2.7,0.5-4,0.9l5.7,3.3C107.1,266.7,107.5,265.5,105.8,264.5
				L105.8,264.5z"/>
			<path class="st2" d="M92.8,271.5c0.1-0.1,0-2.1,0-2.1l2.3,1.5l-1,1.6L92.8,271.5z"/>
			<polygon class="st2" points="113.2,272.8 113.2,270.7 108.1,271.1 111.1,273.1 			"/>
			<polygon class="st2" points="113.6,265.2 113.6,263.1 109.8,264.5 			"/>
			<path class="st2" d="M97.9,265.1l1.3-1.2l4.5,3.1l-0.3,0.9c0,0-3.3-1.4-3.4-1.5L97.9,265.1z"/>
			<path class="st2" d="M86.3,258.5l5.9,3.3l1.1-0.9c0,0-0.7-0.9-0.8-0.9c-0.5-0.6-1.1-1.1-1.8-1.5c-0.4-0.1-3.2-1.3-3.2-1.3
				L86.3,258.5z"/>
			<polygon class="st2" points="96.1,256.4 96.1,254.4 93.4,253.5 92.8,255.1 92.9,255.8 			"/>
			<polygon class="st2" points="78.1,254.9 78.1,252.9 81.2,253.2 80.2,255.2 			"/>
			<path class="st2" d="M78.2,262v-2.2h3.6l-0.9,1.9l-1.6,1.7L78.2,262z"/>
			<path class="st4" d="M96.1,254.4c-0.5,0-0.9,0-1.4,0.1c-0.6,0.1-1.3,0.2-2.1,0.4c-0.8,0.2-1.6,0.4-2.4,0.6
				c-0.8,0.2-1.6,0.5-2.4,0.9l6.1,3.5l1.1-0.4c1.6-0.5,3-1,4.4-1.3c1.3-0.4,2.6-0.6,4-0.7c1.2-0.1,2.5,0,3.7,0.2
				c1.2,0.3,2.4,0.7,3.4,1.4c1.1,0.5,2,1.3,2.6,2.3c0.5,0.7,0.6,1.6,0.4,2.4c-0.3,0.9-0.8,1.7-1.4,2.4c-0.8,0.8-1.8,1.6-2.8,2.2
				l3.9,2.3l-2.2,1.2l-3.9-2.3c-1.9,0.9-3.8,1.7-5.8,2.2c-2.1,0.6-4.3,1-6.4,1.2l-2.1-3.7c0.6,0,1.1-0.1,1.7-0.1
				c0.9-0.1,1.7-0.2,2.6-0.4c0.9-0.2,1.9-0.5,3-0.8c1-0.3,2-0.7,3-1.1l-6.1-3.5l-0.8,0.3l-0.8,0.3c-1.5,0.5-2.9,0.9-4.2,1.1
				c-1.2,0.3-2.4,0.4-3.6,0.5c-1.1,0-2.1-0.1-3.2-0.3c-1-0.2-2-0.6-2.9-1.1c-1-0.5-1.8-1.2-2.5-2.1c-0.5-0.7-0.7-1.5-0.7-2.4
				c0.1-0.9,0.4-1.7,1-2.4c0.7-0.9,1.5-1.7,2.5-2.3l-3.6-2.1l2.1-1.2l3.6,2.1c1.7-0.8,3.4-1.5,5.3-1.9c1.7-0.4,3.5-0.8,5.3-1
				L96.1,254.4z M85.7,260.8c0.8,0.5,1.7,0.7,2.6,0.6c1.2-0.1,2.5-0.4,3.7-0.8l-5.7-3.3C84.1,258.6,83.9,259.8,85.7,260.8z
				 M105.8,262.5c-0.9-0.5-1.9-0.7-2.9-0.5c-1.4,0.2-2.7,0.5-4,0.9l5.7,3.3C107.1,264.6,107.5,263.4,105.8,262.5L105.8,262.5z"/>
		</g>
		<ellipse class="st5" cx="213.7" cy="326.7" rx="46.5" ry="26.9"/>
		<ellipse class="st5" cx="342.1" cy="359.6" rx="46.5" ry="26.9"/>
		<g id="Coin-12">
			<ellipse class="st0" cx="215.5" cy="320.3" rx="46.5" ry="26.9"/>
			<polygon class="st0" points="169,320.7 169,308.4 178.2,316.6 			"/>
			<polygon class="st0" points="262,308.8 262,320.3 257.3,325.3 255,312.1 			"/>
			<ellipse class="st1" cx="215.5" cy="308.8" rx="46.5" ry="26.9"/>
			<path class="st2" d="M248.7,309.6c-0.5,4.5-3.7,9-9.7,12.4c-13,7.5-34.1,7.5-47.1,0c-6-3.5-9.2-7.9-9.7-12.4
				c-0.6-5.3,2.7-10.7,9.7-14.7c13-7.5,34.1-7.5,47.1,0C246.1,298.9,249.3,304.3,248.7,309.6z"/>
			<path class="st3" d="M248.7,309.6c-0.5,4.5-3.7,9-9.7,12.4c-13,7.5-34.1,7.5-47.1,0c-6-3.5-9.2-7.9-9.7-12.4
				c0.5-4.5,3.7-9,9.7-12.4c13-7.5,34.1-7.5,47.1,0C245,300.6,248.3,305.1,248.7,309.6z"/>
			<path class="st2" d="M215,303.3c-0.4,0-0.8,0-1.2,0.1c-0.6,0.1-1.2,0.2-1.8,0.3s-1.4,0.3-2.1,0.5c-0.7,0.2-1.4,0.5-2.1,0.8
				l5.3,3.1l1-0.3c1.4-0.5,2.6-0.8,3.9-1.2c1.1-0.3,2.3-0.5,3.5-0.6c1.1-0.1,2.1,0,3.2,0.2c1.1,0.2,2.1,0.6,3,1.2
				c0.9,0.5,1.7,1.1,2.3,2c0.4,0.6,0.5,1.4,0.3,2.1c-0.2,0.8-0.7,1.5-1.3,2.1c-0.7,0.7-1.6,1.4-2.4,1.9l3.4,2l-1.9,1.1l-3.4-2
				c-1.6,0.8-3.3,1.5-5.1,1.9c-1.8,0.5-3.7,0.9-5.6,1l-1.8-3.2c0.5,0,1-0.1,1.5-0.1c0.7-0.1,1.4-0.2,2.3-0.4
				c0.8-0.2,1.7-0.4,2.6-0.7c0.9-0.3,1.8-0.6,2.6-1l-5.3-2.9l-0.7,0.2l-0.7,0.2c-1.3,0.4-2.6,0.8-3.7,1c-1,0.2-2.1,0.4-3.1,0.4
				c-0.9,0-1.9,0-2.8-0.3c-0.9-0.2-1.8-0.5-2.6-1c-0.9-0.5-1.6-1.1-2.2-1.9c-0.4-0.6-0.6-1.3-0.6-2.1c0.1-0.8,0.4-1.5,0.9-2.1
				c0.6-0.8,1.3-1.5,2.2-2l-3.1-1.8l1.9-1.1l3.1,1.8c1.5-0.7,3-1.3,4.6-1.7c1.5-0.4,3-0.7,4.6-0.8L215,303.3z M205.9,308.9
				c0.7,0.4,1.5,0.6,2.3,0.5c1.1-0.1,2.2-0.4,3.2-0.7l-5-2.9C204.6,307,204.4,308,205.9,308.9L205.9,308.9z M223.5,310.3
				c-0.8-0.4-1.6-0.6-2.5-0.4c-1.2,0.2-2.4,0.4-3.5,0.8l5,2.9C224.6,312.2,224.9,311.2,223.5,310.3L223.5,310.3z"/>
			<path class="st2" d="M212.1,316.4c0-0.1,0-1.8,0-1.8l2,1.3l-0.9,1.4L212.1,316.4z"/>
			<polygon class="st2" points="229.9,317.6 229.9,315.8 225.5,316.1 228.1,317.8 			"/>
			<polygon class="st2" points="230.3,310.9 230.3,309.1 227,310.3 			"/>
			<path class="st2" d="M216.6,310.8l1.1-1l3.9,2.7l-0.2,0.8c0,0-2.9-1.2-3-1.3L216.6,310.8z"/>
			<path class="st2" d="M206.4,305.2l5.1,2.9l1.1-0.8c0,0-0.6-0.7-0.7-0.8c-0.5-0.5-1-1-1.6-1.3c-0.4-0.1-2.8-1.2-2.8-1.2
				L206.4,305.2z"/>
			<polygon class="st2" points="215,303.3 215,301.5 212.6,300.7 212.1,302.1 212.3,302.8 			"/>
			<polygon class="st2" points="199.3,302 199.3,300.2 202,300.5 201.1,302.2 			"/>
			<path class="st2" d="M199.4,308.1v-1.9h3.2l-0.8,1.7l-1.4,1.5L199.4,308.1z"/>
			<path class="st4" d="M215,301.5c-0.4,0-0.8,0-1.2,0.1c-0.6,0.1-1.2,0.2-1.8,0.3c-0.7,0.1-1.4,0.3-2.1,0.5
				c-0.7,0.2-1.4,0.5-2.1,0.8l5.3,3.1l1-0.3c1.4-0.4,2.6-0.8,3.9-1.1c1.1-0.3,2.3-0.5,3.5-0.6c1.1-0.1,2.1,0,3.2,0.2
				c1.1,0.2,2.1,0.6,3,1.2c0.9,0.5,1.7,1.1,2.3,2c0.4,0.6,0.5,1.4,0.3,2.1c-0.2,0.8-0.7,1.5-1.3,2.1c-0.7,0.7-1.6,1.4-2.4,1.9l3.4,2
				l-1.9,1.1l-3.4-2c-1.6,0.8-3.3,1.4-5.1,1.9c-1.8,0.5-3.7,0.9-5.6,1.1l-1.8-3.2c0.3,0,0.8,0,1.5-0.1c0.7-0.1,1.4-0.2,2.3-0.4
				s1.7-0.4,2.6-0.7c0.9-0.3,1.8-0.6,2.6-1l-5.3-3.1c-0.2,0.1-0.5,0.2-0.7,0.2l-0.7,0.2c-1.3,0.4-2.6,0.8-3.7,1
				c-1,0.2-2.1,0.4-3.1,0.4c-0.9,0-1.9-0.1-2.8-0.3c-0.9-0.2-1.8-0.5-2.6-1c-0.9-0.5-1.6-1.1-2.2-1.9c-0.4-0.6-0.6-1.3-0.6-2.1
				c0.1-0.8,0.4-1.5,0.9-2.1c0.6-0.8,1.3-1.5,2.2-2l-3.1-1.8l1.9-1.1l3.1,1.8c1.5-0.7,3-1.3,4.6-1.7c1.5-0.4,3-0.7,4.6-0.8
				L215,301.5z M205.9,307.1c0.7,0.4,1.5,0.6,2.3,0.5c1.1-0.1,2.2-0.4,3.2-0.7l-5-2.9C204.6,305.2,204.4,306.3,205.9,307.1
				L205.9,307.1z M223.5,308.6c-0.8-0.4-1.6-0.6-2.5-0.4c-1.2,0.2-2.4,0.4-3.5,0.8l5,2.9C224.6,310.5,224.9,309.4,223.5,308.6
				L223.5,308.6z"/>
		</g>
		<g id="Coin-13">
			<ellipse class="st0" cx="213.5" cy="304.2" rx="46.5" ry="26.9"/>
			<polygon class="st0" points="167,304.6 167,292.4 176.2,300.6 			"/>
			<polygon class="st0" points="260,292.7 260,304.2 255.3,309.2 253,296 			"/>
			<ellipse class="st1" cx="213.5" cy="292.7" rx="46.5" ry="26.9"/>
			<path class="st2" d="M246.7,293.5c-0.5,4.5-3.7,9-9.7,12.4c-13,7.5-34.1,7.5-47.1,0c-6-3.5-9.2-7.9-9.7-12.4
				c-0.6-5.3,2.7-10.7,9.7-14.7c13-7.5,34.1-7.5,47.1,0C244,282.8,247.3,288.3,246.7,293.5z"/>
			<path class="st3" d="M246.7,293.5c-0.5,4.5-3.7,9-9.7,12.4c-13,7.5-34.1,7.5-47.1,0c-6-3.5-9.2-7.9-9.7-12.4
				c0.5-4.5,3.7-9,9.7-12.4c13-7.5,34.1-7.5,47.1,0C243,284.6,246.3,289,246.7,293.5z"/>
			<path class="st2" d="M213,287.3c-0.4,0-0.8,0-1.2,0.1c-0.5,0.1-1.2,0.2-1.8,0.3s-1.4,0.3-2.1,0.6c-0.7,0.2-1.4,0.5-2.1,0.8
				l5.4,3.1l0.9-0.3c1.4-0.5,2.6-0.8,3.9-1.1c1.1-0.3,2.3-0.5,3.5-0.6c1.1-0.1,2.2,0,3.2,0.2c1.1,0.2,2.1,0.6,3,1.2
				c0.9,0.5,1.7,1.1,2.3,2c0.4,0.6,0.5,1.4,0.3,2.1c-0.2,0.8-0.7,1.5-1.3,2.1c-0.7,0.7-1.6,1.4-2.4,1.9l3.4,2l-1.9,1.1l-3.4-2
				c-1.6,0.8-3.3,1.5-5.1,1.9c-1.8,0.5-3.7,0.9-5.6,1l-1.8-3.2c0.3,0,0.8,0,1.5-0.1s1.4-0.2,2.2-0.4s1.7-0.4,2.6-0.7
				c0.9-0.3,1.8-0.6,2.6-1l-5.3-3.1l-0.7,0.2l-0.7,0.2c-1.3,0.4-2.6,0.8-3.7,1c-1,0.2-2.1,0.4-3.1,0.4c-0.9,0-1.9-0.1-2.8-0.3
				c-0.9-0.2-1.8-0.5-2.6-1c-0.9-0.5-1.6-1.1-2.2-1.9c-0.4-0.6-0.6-1.3-0.6-2.1c0.1-0.8,0.4-1.5,0.9-2.1c0.6-0.8,1.3-1.4,2.2-2
				l-3.1-1.8l1.9-1.1l3.1,1.8c1.5-0.7,3-1.3,4.6-1.7c1.5-0.4,3-0.7,4.6-0.8L213,287.3z M203.9,292.9c0.7,0.4,1.5,0.6,2.3,0.5
				c1.1-0.1,2.2-0.4,3.2-0.7l-5-2.9C202.6,290.9,202.4,292,203.9,292.9L203.9,292.9z M221.5,294.3c-0.8-0.4-1.6-0.6-2.5-0.4
				c-1.2,0.1-2.4,0.4-3.5,0.8l5,2.9C222.6,296.2,222.9,295.1,221.5,294.3z"/>
			<path class="st2" d="M210.1,300.4c0.1-0.1,0-1.8,0-1.8l2,1.3l-0.9,1.4L210.1,300.4z"/>
			<polygon class="st2" points="227.9,301.5 227.9,299.7 223.5,300 226.1,301.8 			"/>
			<polygon class="st2" points="228.3,294.9 228.3,293.1 225,294.3 			"/>
			<path class="st2" d="M214.6,294.8l1.1-1.1l3.9,2.7l-0.2,0.8c0,0-2.9-1.2-3-1.3S214.6,294.8,214.6,294.8z"/>
			<path class="st2" d="M204.4,289.1l5.1,2.9l1.1-0.8c0,0-0.6-0.8-0.7-0.8c-0.5-0.5-1-1-1.6-1.3c-0.4-0.1-2.8-1.2-2.8-1.2
				L204.4,289.1z"/>
			<polygon class="st2" points="213,287.2 213,285.4 210.6,284.7 210.1,286.1 210.3,286.7 			"/>
			<polygon class="st2" points="197.3,285.9 197.3,284.1 200,284.4 199.1,286.2 			"/>
			<path class="st2" d="M197.4,292.1v-1.9h3.2l-0.8,1.7l-1.4,1.5L197.4,292.1z"/>
			<path class="st4" d="M213,285.4c-0.4,0-0.8,0-1.2,0.1c-0.5,0.1-1.2,0.2-1.8,0.3c-0.7,0.1-1.4,0.3-2.1,0.5
				c-0.7,0.2-1.4,0.5-2.1,0.8l5.4,3.1l0.9-0.3c1.4-0.4,2.6-0.8,3.9-1.1c1.1-0.3,2.3-0.5,3.5-0.6c1.1-0.1,2.1,0,3.2,0.2
				c1.1,0.2,2.1,0.6,3,1.2c0.9,0.5,1.7,1.1,2.3,2c0.4,0.6,0.5,1.4,0.3,2.1c-0.2,0.8-0.7,1.5-1.3,2.1c-0.7,0.7-1.6,1.4-2.4,1.9l3.4,2
				l-1.9,1.1l-3.4-2c-1.6,0.8-3.3,1.5-5.1,1.9c-1.8,0.5-3.7,0.9-5.6,1l-1.8-3.2c0.5,0,1-0.1,1.5-0.1c0.8-0.1,1.5-0.2,2.2-0.4
				c0.8-0.2,1.7-0.4,2.6-0.7c0.9-0.3,1.8-0.6,2.6-1l-5.3-3.1l-0.7,0.2l-0.7,0.2c-1.3,0.4-2.6,0.8-3.7,1c-1,0.3-2,0.4-3.1,0.5
				c-0.9,0-1.9-0.1-2.8-0.3c-0.9-0.2-1.8-0.5-2.6-1c-0.9-0.5-1.6-1.1-2.2-1.9c-0.4-0.6-0.6-1.3-0.6-2.1c0.1-0.8,0.4-1.5,0.9-2.1
				c0.6-0.8,1.3-1.4,2.2-2l-3.1-1.8l1.9-1.1l3.1,1.8c1.5-0.7,3-1.3,4.6-1.7c1.5-0.4,3-0.7,4.6-0.8L213,285.4z M203.9,291
				c0.7,0.4,1.5,0.6,2.3,0.5c1.1-0.1,2.2-0.4,3.2-0.7l-5-2.9C202.6,289.1,202.4,290.2,203.9,291z M221.5,292.5
				c-0.8-0.4-1.6-0.6-2.5-0.4c-1.2,0.2-2.4,0.4-3.5,0.8l5,2.9C222.6,294.4,222.9,293.3,221.5,292.5z"/>
		</g>
		<g id="Coin-14">
			<ellipse class="st0" cx="216.5" cy="288.1" rx="46.5" ry="26.9"/>
			<polygon class="st0" points="170,288.5 170,276.3 179.2,284.5 			"/>
			<polygon class="st0" points="263,276.6 263,288.1 258.3,293.1 256,280 			"/>
			<ellipse class="st1" cx="216.5" cy="276.6" rx="46.5" ry="26.9"/>
			<path class="st2" d="M249.7,277.5c-0.5,4.5-3.7,9-9.7,12.4c-13,7.5-34.1,7.5-47.1,0c-6-3.5-9.2-7.9-9.7-12.4
				c-0.6-5.3,2.7-10.7,9.7-14.7c13-7.5,34.1-7.5,47.1,0C247.1,266.8,250.3,272.2,249.7,277.5z"/>
			<path class="st3" d="M249.7,277.5c-0.5,4.5-3.7,9-9.7,12.4c-13,7.5-34.1,7.5-47.1,0c-6-3.5-9.2-7.9-9.7-12.4
				c0.5-4.5,3.7-9,9.7-12.4c13-7.5,34.1-7.5,47.1,0C246,268.5,249.3,272.9,249.7,277.5z"/>
			<path class="st2" d="M216,271.2c-0.4,0-0.8,0-1.2,0.1c-0.5,0.1-1.2,0.2-1.8,0.3s-1.4,0.3-2.1,0.5c-0.7,0.2-1.4,0.5-2.1,0.8
				l5.4,3.1l1-0.3c1.4-0.4,2.6-0.8,3.8-1.1c1.1-0.3,2.3-0.5,3.5-0.6c1.1-0.1,2.1,0,3.2,0.2c1.1,0.2,2.1,0.6,3,1.2
				c0.9,0.5,1.7,1.1,2.3,2c0.4,0.6,0.5,1.4,0.3,2.1c-0.2,0.8-0.7,1.5-1.3,2.1c-0.7,0.7-1.6,1.4-2.4,1.9l3.4,2l-1.9,1.1l-3.4-2
				c-1.6,0.8-3.3,1.5-5.1,1.9c-1.8,0.5-3.7,0.9-5.6,1.1l-1.8-3.2c0.5,0,1-0.1,1.5-0.1c0.7-0.1,1.4-0.2,2.2-0.4
				c0.8-0.2,1.7-0.4,2.6-0.7c0.9-0.3,1.8-0.6,2.6-1l-5.3-3.1l-0.7,0.2c-0.2,0.1-0.5,0.2-0.7,0.2c-1.3,0.4-2.6,0.8-3.7,1
				c-1,0.2-2.1,0.4-3.1,0.4c-0.9,0-1.9-0.1-2.8-0.3c-0.9-0.2-1.8-0.5-2.6-1c-0.9-0.5-1.6-1.1-2.2-1.9c-0.4-0.6-0.6-1.3-0.6-2.1
				c0.1-0.8,0.4-1.5,0.9-2.1c0.6-0.8,1.3-1.5,2.2-2l-3.2-1.8l1.9-1.1l3.1,1.8c1.5-0.7,3-1.3,4.6-1.7c1.5-0.4,3-0.7,4.6-0.8
				L216,271.2z M206.9,276.8c0.7,0.4,1.5,0.6,2.3,0.5c1.1-0.1,2.1-0.4,3.2-0.7l-5-2.9C205.6,274.9,205.4,275.9,206.9,276.8z
				 M224.5,278.3c-0.8-0.4-1.6-0.6-2.5-0.4c-1.2,0.2-2.4,0.4-3.5,0.8l5,2.9C225.6,280.1,225.9,279.1,224.5,278.3z"/>
			<path class="st2" d="M213.1,284.3c0-0.1,0-1.8,0-1.8l2,1.3l-0.9,1.4L213.1,284.3z"/>
			<polygon class="st2" points="230.9,285.4 230.9,283.6 226.5,284 229.1,285.7 			"/>
			<polygon class="st2" points="231.3,278.8 231.3,277 228,278.2 			"/>
			<path class="st2" d="M217.6,278.7l1.1-1.1l3.9,2.7l-0.2,0.8c0,0-2.9-1.2-3-1.3S217.6,278.7,217.6,278.7z"/>
			<path class="st2" d="M207.4,273l5.1,2.9l1.1-0.8c0,0-0.6-0.7-0.7-0.8c-0.5-0.5-1-1-1.6-1.3c-0.4-0.1-2.8-1.2-2.8-1.2L207.4,273z"
				/>
			<polygon class="st2" points="216,271.2 216,269.4 213.7,268.6 213.1,270 213.3,270.7 			"/>
			<polygon class="st2" points="200.3,269.9 200.3,268.1 203,268.4 202.1,270.1 			"/>
			<path class="st2" d="M200.4,276v-1.9h3.2l-0.8,1.7l-1.4,1.5L200.4,276z"/>
			<path class="st4" d="M216,269.4c-0.4,0-0.8,0-1.2,0.1c-0.5,0.1-1.2,0.2-1.8,0.3c-0.7,0.1-1.4,0.3-2.1,0.5
				c-0.7,0.2-1.4,0.5-2.1,0.8l5.4,3.1l1-0.3c1.4-0.4,2.6-0.8,3.8-1.1c1.1-0.3,2.3-0.5,3.5-0.6c1.1-0.1,2.1,0,3.2,0.2
				c1.1,0.2,2.1,0.6,3,1.2c0.9,0.5,1.7,1.1,2.3,2c0.4,0.6,0.5,1.4,0.3,2.1c-0.2,0.8-0.7,1.5-1.3,2.1c-0.7,0.7-1.5,1.4-2.4,2l3.4,2
				l-1.9,1.1l-3.4-2c-1.6,0.8-3.3,1.4-5.1,1.9c-1.8,0.5-3.7,0.9-5.6,1.1l-1.8-3.2c0.5,0,1,0,1.5-0.1c0.7-0.1,1.4-0.2,2.2-0.4
				s1.7-0.4,2.6-0.7c0.9-0.3,1.8-0.6,2.6-1l-5.3-3.1l-0.7,0.3l-0.7,0.2c-1.3,0.4-2.6,0.8-3.7,1c-1,0.2-2.1,0.4-3.1,0.4
				c-0.9,0-1.9,0-2.8-0.3c-0.9-0.2-1.8-0.5-2.6-1c-0.9-0.5-1.6-1.1-2.2-1.9c-0.4-0.6-0.6-1.3-0.6-2.1c0.1-0.8,0.4-1.5,0.9-2.1
				c0.6-0.8,1.3-1.5,2.2-2l-3.2-1.8l1.9-1.1l3.1,1.8c1.5-0.7,3-1.3,4.6-1.7c1.5-0.4,3-0.7,4.6-0.8L216,269.4z M206.9,275
				c0.7,0.4,1.5,0.6,2.3,0.5c1.1-0.1,2.1-0.4,3.2-0.7l-5-2.9C205.6,273.1,205.4,274.1,206.9,275z M224.5,276.4
				c-0.8-0.4-1.6-0.6-2.5-0.4c-1.2,0.2-2.4,0.4-3.5,0.8l5,2.9C225.6,278.3,225.9,277.3,224.5,276.4L224.5,276.4z"/>
		</g>
		<g id="Coin-20">
			<ellipse class="st0" cx="345" cy="356.4" rx="46.5" ry="26.9"/>
			<polygon class="st0" points="298.5,356.8 298.5,344.6 307.7,352.8 			"/>
			<polygon class="st0" points="391.5,344.9 391.5,356.4 386.8,361.4 384.5,348.2 			"/>
			<ellipse class="st1" cx="345" cy="344.9" rx="46.5" ry="26.9"/>
			<path class="st2" d="M378.2,345.7c-0.5,4.5-3.7,9-9.7,12.4c-13,7.5-34.1,7.5-47.1,0c-6-3.5-9.2-7.9-9.7-12.4
				c-0.6-5.3,2.7-10.7,9.7-14.7c13-7.5,34.1-7.5,47.1,0C375.5,335,378.7,340.5,378.2,345.7z"/>
			<path class="st3" d="M378.2,345.7c-0.5,4.5-3.7,9-9.7,12.4c-13,7.5-34.1,7.5-47.1,0c-6-3.5-9.2-7.9-9.7-12.4
				c0.5-4.5,3.7-9,9.7-12.4c13-7.5,34.1-7.5,47.1,0C374.5,336.8,377.7,341.2,378.2,345.7z"/>
			<path class="st2" d="M344.5,339.5c-0.4,0-0.8,0-1.2,0.1c-0.5,0.1-1.2,0.2-1.8,0.3s-1.4,0.3-2.1,0.5c-0.7,0.2-1.4,0.5-2.1,0.8
				l5.3,3.1l1-0.3c1.4-0.5,2.6-0.8,3.9-1.2c1.1-0.3,2.3-0.5,3.5-0.6c1.1-0.1,2.1,0,3.2,0.2c1.1,0.2,2.1,0.6,3,1.2
				c0.9,0.5,1.7,1.1,2.3,2c0.4,0.6,0.5,1.4,0.3,2.1c-0.2,0.8-0.7,1.5-1.3,2.1c-0.7,0.7-1.6,1.4-2.4,1.9l3.4,2l-1.9,1.1l-3.4-2
				c-1.6,0.8-3.3,1.4-5.1,1.9c-1.8,0.5-3.7,0.9-5.6,1.1l-1.8-3.2c0.5,0,1-0.1,1.5-0.1c0.7-0.1,1.4-0.2,2.2-0.4s1.7-0.4,2.6-0.7
				c0.9-0.3,1.8-0.6,2.6-1l-5.3-3.1l-0.7,0.2l-0.7,0.2c-1.3,0.4-2.6,0.8-3.7,1c-1,0.2-2.1,0.4-3.1,0.4c-0.9,0-1.9,0-2.8-0.3
				c-0.9-0.2-1.8-0.5-2.6-1c-0.9-0.5-1.6-1.1-2.2-1.9c-0.4-0.6-0.6-1.3-0.6-2.1c0.1-0.8,0.4-1.5,0.9-2.1c0.6-0.8,1.3-1.5,2.2-2
				l-3.2-1.7l1.9-1.1l3.1,1.8c1.5-0.7,3-1.3,4.6-1.7c1.5-0.4,3-0.7,4.6-0.8L344.5,339.5z M335.4,345.1c0.7,0.4,1.5,0.6,2.3,0.5
				c1.1-0.1,2.1-0.4,3.2-0.7l-5-2.9C334.1,343.2,333.9,344.2,335.4,345.1z M353,346.6c-0.8-0.4-1.6-0.6-2.5-0.5
				c-1.2,0.2-2.4,0.4-3.5,0.8l5,2.9C354.1,348.4,354.4,347.4,353,346.6z"/>
			<path class="st2" d="M341.6,352.6c0-0.1,0-1.8,0-1.8l2,1.3l-0.9,1.4L341.6,352.6z"/>
			<polygon class="st2" points="359.4,353.7 359.4,351.9 355,352.2 357.5,354 			"/>
			<polygon class="st2" points="359.8,347.1 359.8,345.3 356.5,346.5 			"/>
			<path class="st2" d="M346.1,347l1.1-1l3.9,2.7l-0.2,0.8c0,0-2.9-1.2-3-1.3L346.1,347z"/>
			<path class="st2" d="M335.9,341.3l5.2,2.9l1-0.8c0,0-0.6-0.7-0.7-0.8c-0.5-0.5-1-1-1.6-1.4c-0.4-0.1-2.8-1.2-2.8-1.2L335.9,341.3
				z"/>
			<polygon class="st2" points="344.5,339.5 344.5,337.7 342.1,336.9 341.6,338.3 341.7,338.9 			"/>
			<polygon class="st2" points="328.8,338.2 328.8,336.4 331.5,336.6 330.6,338.4 			"/>
			<path class="st2" d="M328.9,344.3v-1.9h3.1l-0.8,1.7l-1.4,1.5L328.9,344.3z"/>
			<path class="st4" d="M344.5,337.7c-0.4,0-0.8,0-1.2,0.1c-0.5,0.1-1.2,0.2-1.8,0.3s-1.4,0.3-2.1,0.5c-0.7,0.2-1.4,0.5-2.1,0.8
				l5.3,3.1l1-0.3c1.4-0.5,2.6-0.8,3.9-1.1c1.1-0.3,2.3-0.5,3.5-0.6c1.1-0.1,2.1,0,3.2,0.2c1.1,0.2,2.1,0.6,3,1.2
				c0.9,0.5,1.7,1.1,2.3,2c0.4,0.6,0.5,1.4,0.3,2.1c-0.2,0.8-0.7,1.5-1.3,2.1c-0.7,0.7-1.6,1.4-2.4,1.9l3.4,2l-1.9,1.1l-3.4-2
				c-1.6,0.8-3.3,1.5-5.1,1.9c-1.8,0.5-3.7,0.9-5.6,1l-1.8-3.2c0.3,0,0.8,0,1.5-0.1s1.4-0.2,2.2-0.4s1.7-0.4,2.6-0.7
				c0.9-0.3,1.8-0.6,2.6-1l-5.4-3l-0.7,0.2l-0.7,0.2c-1.3,0.4-2.6,0.8-3.7,1c-1,0.2-2.1,0.4-3.1,0.4c-0.9,0-1.9-0.1-2.8-0.3
				c-0.9-0.2-1.8-0.5-2.6-1c-0.9-0.5-1.6-1.1-2.2-1.9c-0.4-0.6-0.6-1.3-0.6-2.1c0.1-0.8,0.4-1.5,0.9-2.1c0.6-0.8,1.3-1.5,2.2-2
				l-3.2-1.8l1.9-1.1l3.1,1.8c1.5-0.7,3-1.3,4.6-1.7c1.5-0.4,3-0.7,4.6-0.8L344.5,337.7z M335.4,343.3c0.7,0.4,1.5,0.6,2.3,0.5
				c1.1-0.1,2.1-0.4,3.2-0.7l-5-2.9C334.1,341.4,333.9,342.4,335.4,343.3z M353,344.7c-0.8-0.4-1.6-0.6-2.5-0.4
				c-1.2,0.2-2.4,0.4-3.5,0.8l5,2.9C354.1,346.6,354.4,345.6,353,344.7z"/>
		</g>
		<g id="Coin-21">
			<ellipse class="st0" cx="345" cy="341.4" rx="46.5" ry="26.9"/>
			<polygon class="st0" points="298.5,341.8 298.5,329.5 307.7,337.7 			"/>
			<polygon class="st0" points="391.5,329.9 391.5,341.4 386.8,346.3 384.5,333.2 			"/>
			<ellipse class="st1" cx="345" cy="329.9" rx="46.5" ry="26.9"/>
			<path class="st2" d="M378.2,330.7c-0.5,4.5-3.7,9-9.7,12.4c-13,7.5-34.1,7.5-47.1,0c-6-3.5-9.2-7.9-9.7-12.4
				c-0.6-5.3,2.7-10.7,9.7-14.7c13-7.5,34.1-7.5,47.1,0C375.5,320,378.7,325.4,378.2,330.7z"/>
			<path class="st3" d="M378.2,330.7c-0.5,4.5-3.7,9-9.7,12.4c-13,7.5-34.1,7.5-47.1,0c-6-3.5-9.2-7.9-9.7-12.4
				c0.5-4.5,3.7-9,9.7-12.4c13-7.5,34.1-7.5,47.1,0C374.5,321.7,377.7,326.2,378.2,330.7z"/>
			<path class="st2" d="M344.5,324.4c-0.4,0-0.8,0-1.2,0.1c-0.5,0.1-1.2,0.2-1.8,0.3s-1.4,0.3-2.1,0.5c-0.7,0.2-1.4,0.5-2.1,0.8
				l5.3,3.1l1-0.3c1.4-0.5,2.6-0.8,3.9-1.1c1.1-0.3,2.3-0.5,3.5-0.6c1.1-0.1,2.1,0,3.2,0.2c1.1,0.2,2.1,0.6,3,1.2
				c0.9,0.5,1.7,1.1,2.3,2c0.4,0.6,0.5,1.4,0.3,2.1c-0.2,0.8-0.7,1.5-1.3,2.1c-0.7,0.7-1.6,1.4-2.4,1.9l3.4,2l-1.9,1.1l-3.4-2
				c-1.6,0.8-3.3,1.4-5.1,1.9c-1.8,0.5-3.7,0.9-5.6,1.1l-1.8-3.1c0.5,0,1-0.1,1.5-0.1c0.7-0.1,1.4-0.2,2.2-0.4s1.7-0.4,2.6-0.7
				c0.9-0.3,1.8-0.6,2.6-1l-5.3-3.1l-0.7,0.2l-0.7,0.2c-1.3,0.4-2.6,0.8-3.7,1c-1,0.2-2.1,0.4-3.1,0.4c-0.9,0-1.9,0-2.8-0.3
				c-0.9-0.2-1.8-0.5-2.6-1c-0.9-0.5-1.6-1.1-2.2-1.9c-0.4-0.6-0.6-1.3-0.6-2.1c0.1-0.8,0.4-1.5,0.9-2.1c0.6-0.8,1.3-1.5,2.2-2
				l-3.2-1.8l1.9-1.1l3.1,1.8c1.5-0.7,3-1.3,4.6-1.7c1.5-0.4,3-0.7,4.6-0.8L344.5,324.4z M335.4,330c0.7,0.4,1.5,0.6,2.3,0.5
				c1.1-0.1,2.1-0.4,3.2-0.7l-5-2.9C334.1,328.1,333.9,329.1,335.4,330z M353,331.5c-0.8-0.4-1.6-0.6-2.5-0.5
				c-1.2,0.2-2.4,0.4-3.5,0.8l5,2.9C354.1,333.4,354.4,332.3,353,331.5z"/>
			<path class="st2" d="M341.6,337.6c0-0.1,0-1.8,0-1.8l2,1.3l-0.9,1.4L341.6,337.6z"/>
			<polygon class="st2" points="359.4,338.7 359.4,336.8 355,337.2 357.5,338.9 			"/>
			<polygon class="st2" points="359.8,332 359.8,330.2 356.5,331.4 			"/>
			<path class="st2" d="M346.1,331.9l1.1-1l3.9,2.7l-0.2,0.8c0,0-2.9-1.2-3-1.3L346.1,331.9z"/>
			<path class="st2" d="M335.9,326.3l5.2,2.9l1-0.8c0,0-0.6-0.7-0.7-0.8c-0.5-0.5-1-1-1.6-1.3c-0.4-0.1-2.8-1.2-2.8-1.2L335.9,326.3
				z"/>
			<polygon class="st2" points="344.5,324.4 344.5,322.6 342.1,321.8 341.6,323.2 341.7,323.9 			"/>
			<polygon class="st2" points="328.8,323.1 328.8,321.3 331.5,321.6 330.6,323.3 			"/>
			<path class="st2" d="M328.9,329.2v-1.9h3.1l-0.8,1.7l-1.4,1.5L328.9,329.2z"/>
			<path class="st4" d="M344.5,322.6c-0.4,0-0.8,0-1.2,0.1c-0.5,0.1-1.2,0.2-1.8,0.3s-1.4,0.3-2.1,0.5c-0.7,0.2-1.4,0.5-2.1,0.8
				l5.3,3.1l1-0.3c1.4-0.5,2.6-0.8,3.9-1.1c1.1-0.3,2.3-0.5,3.5-0.6c1.1-0.1,2.1,0,3.2,0.2c1.1,0.2,2.1,0.6,3,1.2
				c0.9,0.5,1.7,1.1,2.3,2c0.4,0.6,0.5,1.4,0.3,2.1c-0.2,0.8-0.7,1.5-1.3,2.1c-0.7,0.7-1.6,1.4-2.4,1.9l3.4,2l-1.9,1.1l-3.4-2
				c-1.6,0.8-3.3,1.5-5.1,1.9c-1.8,0.5-3.7,0.9-5.6,1l-1.8-3.2c0.3,0,0.8,0,1.5-0.1s1.4-0.2,2.2-0.4s1.7-0.4,2.6-0.7
				c0.9-0.3,1.8-0.6,2.6-1l-5.3-3.1l-0.7,0.2l-0.7,0.2c-1.3,0.4-2.6,0.8-3.7,1c-1,0.2-2.1,0.4-3.1,0.4c-0.9,0-1.9-0.1-2.8-0.3
				c-0.9-0.2-1.8-0.5-2.6-1c-0.9-0.5-1.6-1.1-2.2-1.9c-0.4-0.6-0.6-1.3-0.6-2.1c0.1-0.8,0.4-1.5,0.9-2.1c0.6-0.8,1.3-1.5,2.2-2
				l-3.2-1.7l1.9-1.1l3.1,1.8c1.5-0.7,3-1.3,4.6-1.7c1.5-0.4,3-0.7,4.6-0.8L344.5,322.6z M335.4,328.2c0.7,0.4,1.5,0.6,2.3,0.5
				c1.1-0.1,2.1-0.4,3.2-0.7l-5-2.9C334.1,326.3,333.9,327.3,335.4,328.2L335.4,328.2z M353,329.6c-0.8-0.4-1.6-0.6-2.5-0.4
				c-1.2,0.2-2.4,0.4-3.5,0.8l5,2.9C354.1,331.6,354.4,330.5,353,329.6L353,329.6z"/>
		</g>
		<g id="Girl_12">
			<path id="_Контур_" class="st6" d="M80.2,181.1c1.5-2.5,13.4-4.1,17.3,5.9c1.5,3.8,1.2,13.5,2.5,19.6s4.2,9.6,5.2,14.5
				c1,5-0.7,13.3-12.6,14.7c-11.9,1.5-21.1-2.7-23.9-6.5c-2.8-3.8-2.9-11.9,0-16.2c2.9-4.3,5.1-7.9,5.1-13.5L80.2,181.1z"/>
			<path id="_Контур_2" class="st6" d="M88.1,179.4c0,0-9-2.6-14.4,2.3c-3.6,3.4-5,8.5-3.7,13.3c0.7,2.8,2.2,6.7,4.4,6.9
				C76.6,201.9,88.1,179.4,88.1,179.4z"/>
			<path id="_Контур_3" class="st7" d="M91.5,203.7c0,0-0.6,9.9-0.4,10.7c0.2,0.7,3.9,1.4,4.9,2.3c1,0.9-5.4,10.9-8.7,12.4
				c-3.3,1.5-13.4-2.3-14.1-7.4c-0.6-4.6,2.9-8.2,4.3-9.5c0.9-0.1,1.9-0.1,2.8,0l0.3-4.8C85,205.9,91.5,203.7,91.5,203.7z"/>
			<path id="_Контур_4" class="st7" d="M62.3,256.6c-2.8,3.9-6.1,7.3-9.9,10.3c-1.2,1.2-2.3,2.5-3.4,3.9
				c-1.8,2-4.1,3.6-6.6,4.4c-2.3,0.6-3.2,0.4-3.6,0c-0.4-0.4-0.2-1.1,0.8-1.5c1.6-0.5,3.1-1.3,4.4-2.3c0,0-2.1,1-3.4,1.4
				c-1.2,0.4-2.4,0.6-3.6,0.7c-1.2,0-2.5-1.4-1.6-1.8c1-0.4,1.9-0.5,3.8-1.2c1-0.4,2-0.9,2.9-1.5c-1.3,0.4-2.7,0.7-4.1,0.8
				c-1.2,0.2-2.3,0.1-3.4-0.4c-0.6-0.3-1.1-1.3,0.2-1.6c1.7-0.2,3.3-0.6,4.9-1.2c1.5-0.7,2.5-1.4,2.1-1.5c-0.3-0.1-1.2,0.3-2.7,0.2
				c-1.5-0.1-2.9-1.1-2.9-1.9s0.3-0.4,1.8-0.5c1.6-0.4,3.2-0.7,4.8-0.8c1.6,0.1,3.2-0.1,4.7-0.6c1.6-0.5,5.3-4.8,8-8.8
				c3.1-4.4,5.5-9.3,7.2-14.4c1.7-5.5,3.6-15.8,5.1-19.4s3.9-5.2,6.2-5.3c2.7,0,3.9,3.6,3.2,6.6C75.8,225.9,69.7,246.9,62.3,256.6z"
				/>
			<path id="_Контур_5" class="st8" d="M92.8,215.3c2.8,0.4,6,1.9,6.4,3.5c1.2,5.5,0.9,11.2-0.8,16.6
				c-2.4,6.4-5.1,18-6.5,20.7c-7.2,1-14.5-0.4-20.8-4.1c0,0-0.6-11.1-0.6-14.8c-9-7.8-1.3-17.5,6.3-25c0.9-0.1,1.8-0.1,2.7,0
				c0,0-6.8,8-2.1,12.6C87.6,221.6,89.6,217.1,92.8,215.3z"/>
			<path id="_Контур_6" class="st7" d="M72.9,191.3L72.9,191.3c1-6.4,5.6-11.2,12.2-10.8c7,0.3,12.3,6.2,12,13.2
				c-0.2,4-2.3,7.7-5.7,10c-0.2,1-0.6,1.9-1,2.8c-2.3,2.7-8.5,4.4-10.6,4.5c-1.8,0-3.3-1.6-4.9-4.4
				C71.5,200.8,72.4,194.5,72.9,191.3z"/>
			<path class="st6" d="M87.1,180.6c4.6,0.9,8.4,2.2,9.7,6.7c0.9,3.1,2,9,0.9,11.6l-0.6,1.8l-5.6,2.9c0,0-2.6-2.2-1.8-8.6
				c0-0.9-0.3-1.7-0.8-2.4c-0.3-0.6-0.6-1.3-0.8-1.9c-0.7-1.7-1.9-3.1-3.6-3.9c-4.2-2.3-10.2-0.3-11.1,0.5
				C75.8,182.2,81.5,179.4,87.1,180.6z"/>
			<path class="st6" d="M61.7,333.3c-2.3,1.9-6,0.6-6.1,0.8c-2.7,2.4-5.6,4.6-8.6,6.6c-1.5,1.2-3.7,2.7-3.3,4.9
				c0.7,3.9,7,2.7,9.4,1.5c2.4-1.2,4.3-3.2,6.6-4.6c1.6-1,3.2-1.5,3.4-3.6C63.3,337.7,62.1,333.3,61.7,333.3z"/>
			<path class="st9" d="M63.1,338.1c-0.3,1.9-1.8,2.5-3.5,3.5c-2.3,1.4-4.3,3.5-6.7,4.7c-2.4,1.2-7.7,2.2-9.2-0.6
				c0.8,3.8,7,2.6,9.4,1.4c2.3-1.2,4.3-3.2,6.6-4.6c1.6-1,3.2-1.5,3.4-3.6C63.1,338.6,63.1,338.3,63.1,338.1z"/>
			<path class="st6" d="M50.4,326.9c-2.1,1.8-5.4,0.8-5.5,0.9c-2.5,2.1-5.1,4.1-7.8,6c-1.3,1-3.4,2.4-3,4.5c0.7,3.6,6.4,2.5,8.6,1.4
				c2.2-1.1,4-2.9,6-4.2c1.5-0.9,2.9-1.4,3.2-3.2C51.7,330.4,51.2,328.6,50.4,326.9z"/>
			<path class="st9" d="M51.7,331.5c-0.3,1.8-1.8,2.3-3.2,3.2c-2.1,1.3-3.9,3.2-6.1,4.3s-7,2-8.4-0.6c0.8,3.5,6.4,2.4,8.6,1.3
				c2.2-1.1,4-2.9,6-4.2c1.5-0.9,2.9-1.4,3.2-3.2C51.8,332,51.8,331.7,51.7,331.5z"/>
			<path class="st7" d="M82.7,258.4c-6.3,0.8-12.8-0.1-18.6-2.7c0,2,0.2,3.7,0.2,3.7c-7.6,5.4-22.8,14.4-23.7,20.6
				c1,19.6,4,47.7,4.8,48.1c2.4,1.1,4,1,5.1-0.2c0,0,4.8-16.6,3.4-41c0,0,26.5-11.7,28.2-18.1c0.8-2.6,1-5.3,0.7-8
				C82.8,260,82.8,259.2,82.7,258.4z"/>
			<path class="st7" d="M91.5,255.9c-5,2.2-10.6,3-16,2.1c0,2.6,0.4,7.6,0.4,7.6c-7.6,5.4-22.8,14.4-23.8,20.6
				c1,19.6,2.8,48.1,3.6,48.4c2.1,0.9,4.5,0.6,6.3-0.7c0,0,4.8-16.4,3.4-40.8c0-0.5,22.7-11.6,25.6-14.6c2.9-3,3.4-7.3,3.4-11.5
				C94.1,263.1,93.2,259.3,91.5,255.9z"/>
			<path class="st9" d="M97.1,260c0,0,8.4,14.9-5.6,22.5c-14.8,8.1-23.8,10-23.8,10l-2.2,0.5c0.7,5.1,0.7,10.3,0,15.4
				c0,0-10.5,3.6-24-8.2l-4.5-14.4l-0.5-3.7c-0.5-2.6,0.3-5.3,2.2-7.2c3.2-2.9,13.4-10.4,19.8-14.7c6.4-4.3,11.4-8.4,11.4-8.4l1.1-1
				c0,0,7.5,6,21.3,4C94.2,256.3,95.8,258.1,97.1,260z"/>
			<path id="_Контур_7" class="st7" d="M88.7,282.1c1.3-1.2,2.6-2.2,4.1-3.2c1.5-0.8,2.9-1.7,4.1-2.9c1.3-1.3,3.2-6.7,4.2-12
				c0.9-5.9,0.8-11.9-0.3-17.8c-1.7-7-4.1-13.8-7-20.4c-1.8-3.9-0.8-6.4,0.9-8.1c2-2.1,4.1-2,6.5,3.5c3.4,7.7,5.9,15.7,7.4,24
				c1,6,0.9,12.1-0.3,18.1c-1,5.2-2.6,10.3-4.8,15.2c-0.6,1.4-0.7,2.6-1.6,5.4c-0.8,2.8-2.3,5.5-4.3,7.6c-1.8,1.7-2.8,2-3.3,1.8
				s-0.6-0.9,0.1-1.8c1.3-1.3,2.3-2.8,3.1-4.5c0,0-1.6,2.1-2.6,3.2c-0.9,1-1.9,1.8-3.1,2.6c-1.1,0.6-2.8-0.1-2.1-1s1.5-1.4,3-3
				c0.8-0.9,1.5-1.8,2.1-2.9c-1.1,1-2.2,2-3.4,2.9c-0.9,0.7-2.1,1.2-3.3,1.4c-0.6,0-1.5-0.7-0.4-1.7c1.5-1,2.9-2.2,4.1-3.6
				c1.1-1.4,1.7-2.6,1.4-2.6c-0.4,0-1,0.9-2.4,1.6c-1.4,0.7-3.1,0.5-3.4-0.4C87,282.6,87.4,283,88.7,282.1z"/>
			<path class="st10" d="M104.8,228.7c0,0-5.1,4.5-10.8,3.6l-2.2-9.5c0,0-1.5-5,2.8-6.9C98.8,214,102.9,219,104.8,228.7z"/>
			<path class="st10" d="M76.8,212.1c0,0-5.5-1.7-11.4,10.5l2.2,1.3C70.4,219.8,73.4,215.8,76.8,212.1z"/>
			<g id="_Группа_">
				<g id="_Группа_2">
					<path id="_Контур_8" class="st8" d="M38.8,264.8l19.6-11.3c0.4-0.2,0.8-0.2,1.1,0l34.4,19.9L73.8,285L38.8,264.8z"/>
					<path class="st11" d="M74.3,280.5l1.5,0.9c0.1,0,0,0.2,0,0.3l-1.4,0.8c-0.2,0.1-0.3,0.1-0.5,0l-1.5-0.9c-0.1,0-0.1-0.2,0-0.3
						l1.4-0.8C74,280.4,74.2,280.4,74.3,280.5z"/>
					<path class="st11" d="M72.1,279.3l1.5,0.9c0.1,0,0.1,0.2,0,0.3l-1.4,0.8c-0.2,0.1-0.3,0.1-0.5,0l-1.5-0.9c-0.1,0-0.1-0.2,0-0.3
						l1.4-0.8C71.8,279.2,72,279.2,72.1,279.3z"/>
					<path class="st11" d="M70,278l1.5,0.9c0.1,0,0.1,0.2,0,0.3l-1.4,0.8c-0.2,0.1-0.3,0.1-0.5,0l-1.5-0.9c-0.1,0-0.1-0.2,0-0.3
						l1.4-0.8C69.7,278,69.8,278,70,278z"/>
					<path class="st11" d="M67.9,276.8l1.5,0.9c0.1,0,0.1,0.2,0,0.3l-1.4,0.8c-0.2,0.1-0.3,0.1-0.5,0l-1.5-0.9c-0.1,0-0.1-0.2,0-0.3
						l1.4-0.8C67.6,276.8,67.7,276.8,67.9,276.8z"/>
					<path class="st11" d="M65.8,275.6l1.5,0.9c0.1,0,0.1,0.2,0,0.3l-1.4,0.8c-0.2,0.1-0.3,0.1-0.5,0l-1.5-0.9c-0.1,0-0.1-0.2,0-0.3
						l1.4-0.8C65.4,275.5,65.6,275.5,65.8,275.6z"/>
					<path class="st11" d="M63.6,274.4l1.5,0.9c0.1,0,0.1,0.2,0,0.3l-1.4,0.8c-0.2,0.1-0.3,0.1-0.5,0l-1.5-0.8c-0.1,0-0.1-0.2,0-0.3
						l1.4-0.8C63.3,274.3,63.5,274.3,63.6,274.4z"/>
					<path class="st11" d="M61.5,273.1L63,274c0.1,0,0.1,0.2,0,0.3l-1.4,0.8c-0.2,0.1-0.3,0.1-0.5,0l-1.5-0.9c-0.1,0-0.1-0.2,0-0.3
						l1.4-0.8C61.2,273.1,61.4,273.1,61.5,273.1z"/>
					<path class="st11" d="M59.4,271.9l1.5,0.9c0.1,0,0.1,0.2,0,0.3l-1.4,0.8c-0.2,0.1-0.3,0.1-0.5,0l-1.5-0.9c-0.1,0-0.1-0.2,0-0.3
						l1.4-0.8C59.1,271.8,59.2,271.8,59.4,271.9z"/>
					<path class="st11" d="M57.3,270.7l1.5,0.9c0.1,0,0.1,0.2,0,0.3l-1.4,0.8c-0.2,0.1-0.3,0.1-0.5,0l-1.5-0.9c-0.1,0-0.1-0.2,0-0.3
						l1.4-0.8C56.9,270.6,57.1,270.6,57.3,270.7z"/>
					<path class="st11" d="M55.1,269.5l1.5,0.9c0.1,0,0.1,0.2,0,0.3l-1.4,0.8c-0.1,0.1-0.3,0.1-0.5,0l-1.5-0.9c-0.1,0-0.1-0.2,0-0.3
						l1.4-0.8C54.8,269.4,55,269.4,55.1,269.5z"/>
					<path class="st11" d="M53,268.2l1.5,0.9c0.1,0,0.1,0.2,0,0.3l-1.4,0.8c-0.1,0.1-0.3,0.1-0.5,0l-1.5-0.9c-0.1,0,0-0.2,0-0.3
						l1.4-0.8C52.7,268.2,52.9,268.2,53,268.2z"/>
					<path class="st11" d="M50.9,267l1.5,0.9c0.1,0,0.1,0.2,0,0.3L51,269c-0.1,0.1-0.3,0.1-0.5,0l-1.5-0.9c-0.1,0-0.1-0.2,0-0.3
						l1.4-0.8C50.6,266.9,50.8,266.9,50.9,267z"/>
					<path class="st11" d="M48.8,265.8l1.5,0.9c0.1,0,0.1,0.2,0,0.3l-1.4,0.8c-0.1,0.1-0.3,0.1-0.5,0l-1.5-0.9c-0.1,0-0.1-0.2,0-0.3
						l1.4-0.8C48.4,265.7,48.6,265.7,48.8,265.8z"/>
					<path class="st11" d="M45.5,264l2.5,1.5c0.1,0,0.1,0.2,0,0.3l-1.4,0.8c-0.1,0.1-0.3,0.1-0.5,0l-2.4-1.5c-0.1,0-0.1-0.2,0-0.3
						l1.4-0.8C45.3,263.9,45.4,263.9,45.5,264z"/>
					<path class="st11" d="M73.2,277.5l1.5,0.9c0.1,0,0.1,0.2,0,0.3l-1.4,0.8c-0.1,0.1-0.3,0.1-0.5,0l-1.5-0.9c-0.1,0-0.1-0.2,0-0.3
						l1.4-0.8C72.8,277.4,73,277.4,73.2,277.5z"/>
					<path class="st11" d="M71,276.3l1.5,0.9c0.1,0,0.1,0.2,0,0.3l-1.4,0.8c-0.1,0.1-0.3,0.1-0.5,0l-1.5-0.9c-0.1,0-0.1-0.2,0-0.3
						l1.4-0.8C70.7,276.2,70.9,276.2,71,276.3z"/>
					<path class="st11" d="M68.9,275l1.5,0.9c0.1,0,0.1,0.2,0,0.3L69,277c-0.2,0.1-0.3,0.1-0.5,0l-1.5-0.9c-0.1,0-0.1-0.2,0-0.3
						l1.4-0.8C68.6,275,68.8,275,68.9,275z"/>
					<path class="st11" d="M66.8,273.8l1.5,0.9c0.1,0,0.1,0.2,0,0.3l-1.4,0.8c-0.2,0.1-0.3,0.1-0.5,0l-1.5-0.9c-0.1,0-0.1-0.2,0-0.3
						l1.4-0.8C66.5,273.7,66.6,273.7,66.8,273.8z"/>
					<path class="st11" d="M64.7,272.6l1.5,0.9c0.1,0,0.1,0.2,0,0.3l-1.4,0.8c-0.1,0.1-0.3,0.1-0.5,0l-1.5-0.9c-0.1,0-0.1-0.2,0-0.3
						l1.4-0.8C64.3,272.5,64.5,272.5,64.7,272.6z"/>
					<path class="st11" d="M62.5,271.4l1.5,0.9c0.1,0,0.1,0.2,0,0.3l-1.4,0.8c-0.2,0.1-0.3,0.1-0.5,0l-1.5-0.9c-0.1,0-0.1-0.2,0-0.3
						l1.4-0.8C62.2,271.3,62.4,271.3,62.5,271.4z"/>
					<path class="st11" d="M60.4,270.1l1.5,0.9c0.1,0,0.1,0.2,0,0.3l-1.4,0.8c-0.2,0.1-0.3,0.1-0.5,0l-1.5-0.9c-0.1,0-0.1-0.2,0-0.3
						l1.4-0.8C60.1,270.1,60.3,270.1,60.4,270.1z"/>
					<path class="st11" d="M58.3,268.9l1.5,0.9c0.1,0,0.1,0.2,0,0.3l-1.4,0.8c-0.1,0.1-0.3,0.1-0.5,0l-1.5-0.9c-0.1,0,0-0.2,0-0.3
						l1.4-0.8C58,268.8,58.1,268.8,58.3,268.9z"/>
					<path class="st11" d="M56.2,267.7l1.5,0.9c0.1,0,0.1,0.2,0,0.3l-1.4,0.8c-0.1,0.1-0.3,0.1-0.5,0l-1.5-0.9c-0.1,0-0.1-0.2,0-0.3
						l1.4-0.8C55.8,267.6,56,267.6,56.2,267.7z"/>
					<path class="st11" d="M54,266.4l1.5,0.9c0.1,0,0.1,0.2,0,0.3l-1.4,0.8c-0.2,0.1-0.3,0.1-0.5,0l-1.5-0.9c-0.1,0-0.1-0.2,0-0.3
						l1.4-0.8C53.7,266.4,53.9,266.4,54,266.4z"/>
					<path class="st11" d="M51.9,265.2l1.5,0.9c0.1,0,0.1,0.2,0,0.3l-1.4,0.8c-0.2,0.1-0.3,0.1-0.5,0l-1.5-0.9c-0.1,0-0.1-0.2,0-0.3
						l1.4-0.8C51.6,265.1,51.8,265.1,51.9,265.2z"/>
					<path class="st11" d="M49.8,264l1.5,0.9c0.1,0,0.1,0.2,0,0.3l-1.4,0.8c-0.1,0.1-0.3,0.1-0.5,0l-1.5-0.9c-0.1,0-0.1-0.2,0-0.3
						l1.4-0.8C49.4,263.9,49.6,263.9,49.8,264z"/>
					<path class="st11" d="M75.3,278.7l2.5,1.5c0.1,0,0.1,0.2,0,0.3l-1.4,0.8c-0.1,0.1-0.3,0.1-0.5,0l-2.5-1.5c-0.1,0-0.1-0.2,0-0.3
						l1.4-0.8C75,278.7,75.2,278.7,75.3,278.7z"/>
					<path class="st11" d="M45.7,263.9l1.5,0.9c0.1,0.1,0.3,0.1,0.4,0l1.5-0.9c0.1,0,0.1-0.2,0-0.3h-0.1c-0.1,0-0.1-0.2,0-0.2
						l1.6-0.9c0.1,0,0.1-0.1,0.1-0.2c0,0,0-0.1-0.1-0.1l-1-0.5c-0.1-0.1-0.3-0.1-0.5,0l-1.5,0.9l-0.3,0.2l-0.2,0.1L47,263l-1.3,0.8
						C45.5,263.7,45.5,263.8,45.7,263.9z"/>
					<path class="st11" d="M82.5,275.8l1.5,0.9c0.1,0,0.1,0.2,0,0.3l-1.4,0.8c-0.1,0.1-0.3,0.1-0.5,0l-1.5-0.9c-0.1,0-0.1-0.2,0-0.3
						l1.4-0.8C82.2,275.7,82.3,275.7,82.5,275.8z"/>
					<path class="st11" d="M80.4,274.5l1.5,0.9c0.1,0,0.1,0.2,0,0.3l-1.4,0.8c-0.2,0.1-0.3,0.1-0.5,0l-1.5-0.9c-0.1,0-0.1-0.2,0-0.3
						l1.4-0.8C80.1,274.5,80.2,274.5,80.4,274.5z"/>
					<path class="st11" d="M78.3,273.3l1.5,0.9c0.1,0,0.1,0.2,0,0.3l-1.4,0.8c-0.2,0.1-0.3,0.1-0.5,0l-1.5-0.9c-0.1,0-0.1-0.2,0-0.3
						l1.4-0.8C77.9,273.2,78.1,273.2,78.3,273.3z"/>
					<path class="st11" d="M60.2,262.9l1.5,0.9c0.1,0,0.1,0.2,0,0.3l-1.4,0.8c-0.1,0.1-0.3,0.1-0.5,0l-1.5-0.9c-0.1,0-0.1-0.2,0-0.3
						l1.4-0.8C59.9,262.8,60.1,262.8,60.2,262.9z"/>
					<path class="st11" d="M58.1,261.7l1.5,0.9c0.1,0,0.1,0.2,0,0.3l-1.4,0.8c-0.2,0.1-0.3,0.1-0.5,0l-1.5-0.9c-0.1,0-0.1-0.2,0-0.3
						l1.4-0.8C57.8,261.6,58,261.6,58.1,261.7z"/>
					<path class="st11" d="M56,260.4l1.5,0.9c0.1,0,0.1,0.2,0,0.3l-1.4,0.8c-0.2,0.1-0.3,0.1-0.5,0l-1.5-0.9c-0.1,0-0.1-0.2,0-0.3
						l1.4-0.8C55.6,260.4,55.8,260.4,56,260.4z"/>
					<path class="st11" d="M53.8,259.2l1.5,0.9c0.1,0,0.1,0.2,0,0.3l-1.4,0.8c-0.1,0.1-0.3,0.1-0.5,0l-1.5-0.9c-0.1,0-0.1-0.2,0-0.3
						l1.4-0.8C53.5,259.1,53.7,259.1,53.8,259.2z"/>
					<path class="st11" d="M75.6,271.8l2.1,1.2c0.1,0,0.1,0.2,0,0.3l-1.5,0.8c-0.1,0.1-0.3,0.1-0.5,0l-2.1-1.2c-0.1,0-0.1-0.2,0-0.3
						l1.4-0.8C75.2,271.7,75.4,271.7,75.6,271.8z"/>
					<path class="st11" d="M62.3,264.1l2.1,1.2c0.1,0,0.1,0.2,0,0.3l-1.4,0.8c-0.1,0.1-0.3,0.1-0.5,0l-2.1-1.2c-0.1,0-0.1-0.2,0-0.3
						l1.4-0.8C62,264,62.2,264,62.3,264.1z"/>
					<path class="st11" d="M65,265.6l10,5.8c0.1,0,0,0.2,0,0.3l-1.4,0.8c-0.1,0.1-0.3,0.1-0.5,0l-10-5.7c-0.1,0-0.1-0.2,0-0.3
						l1.4-0.8C64.6,265.6,64.8,265.6,65,265.6z"/>
					<path class="st11" d="M74.7,276l1.5,0.9c0.1,0,0.1,0.2,0,0.3l-1.4,0.8c-0.2,0.1-0.3,0.1-0.5,0l-1.5-0.9c-0.1,0-0.1-0.2,0-0.3
						l1.4-0.8C74.3,275.9,74.5,275.9,74.7,276z"/>
					<path class="st11" d="M72.5,274.7l1.5,0.9c0.1,0,0.1,0.2,0,0.3l-1.4,0.8c-0.2,0.1-0.3,0.1-0.5,0l-1.5-0.9c-0.1,0-0.1-0.2,0-0.3
						l1.4-0.8C72.2,274.7,72.4,274.7,72.5,274.7z"/>
					<path class="st11" d="M70.4,273.5l1.5,0.9c0.1,0,0.1,0.2,0,0.3l-1.4,0.8c-0.2,0.1-0.3,0.1-0.5,0l-1.5-0.9c-0.1,0-0.1-0.2,0-0.3
						l1.4-0.8C70.1,273.5,70.3,273.5,70.4,273.5z"/>
					<path class="st11" d="M68.3,272.3l1.5,0.9c0.1,0,0.1,0.2,0,0.3l-1.4,0.8c-0.2,0.1-0.3,0.1-0.5,0l-1.5-0.9c-0.1,0-0.1-0.2,0-0.3
						l1.4-0.8C68,272.2,68.1,272.2,68.3,272.3z"/>
					<path class="st11" d="M66.2,271.1l1.5,0.9c0.1,0,0.1,0.2,0,0.3l-1.4,0.8c-0.2,0.1-0.3,0.1-0.5,0l-1.5-0.9c-0.1,0-0.1-0.2,0-0.3
						l1.4-0.8C65.8,271,66,271,66.2,271.1z"/>
					<path class="st11" d="M64,269.9l1.5,0.9c0.1,0,0.1,0.2,0,0.3l-1.4,0.8c-0.2,0.1-0.3,0.1-0.5,0l-1.5-0.9c-0.1,0-0.1-0.2,0-0.3
						l1.4-0.8C63.7,269.8,63.9,269.8,64,269.9z"/>
					<path class="st11" d="M61.9,268.7l1.5,0.9c0.1,0,0,0.2,0,0.3l-1.4,0.8c-0.1,0.1-0.3,0.1-0.5,0l-1.6-0.9c-0.1,0-0.1-0.2,0-0.3
						l1.4-0.8C61.5,268.5,61.8,268.5,61.9,268.7z"/>
					<path class="st11" d="M59.8,267.4l1.5,0.9c0.1,0,0.1,0.2,0,0.3l-1.4,0.8c-0.1,0.1-0.3,0.1-0.5,0l-1.5-0.9c-0.1,0-0.1-0.2,0-0.3
						l1.4-0.8C59.5,267.3,59.6,267.3,59.8,267.4z"/>
					<path class="st11" d="M57.7,266.2l1.5,0.9c0.1,0,0.1,0.2,0,0.3l-1.4,0.8c-0.1,0.1-0.3,0.1-0.5,0l-1.5-0.9c-0.1,0-0.1-0.2,0-0.3
						l1.4-0.8C57.3,266.1,57.5,266.1,57.7,266.2z"/>
					<path class="st11" d="M55.5,265l1.5,0.9c0.1,0,0.1,0.2,0,0.3l-1.4,0.8c-0.1,0.1-0.3,0.1-0.5,0l-1.5-0.9c-0.1,0-0.1-0.2,0-0.3
						l1.4-0.8C55.2,264.9,55.4,264.9,55.5,265z"/>
					<path class="st11" d="M53.4,263.7l1.5,0.9c0.1,0,0.1,0.2,0,0.3l-1.4,0.8c-0.1,0.1-0.3,0.1-0.5,0l-1.5-0.9c-0.1,0-0.1-0.2,0-0.3
						l1.4-0.8C53.1,263.7,53.3,263.7,53.4,263.7z"/>
					<path class="st11" d="M51.3,262.5l1.5,0.9c0.1,0,0.1,0.2,0,0.3l-1.4,0.8c-0.1,0.1-0.3,0.1-0.5,0l-1.5-0.9c-0.1,0-0.1-0.2,0-0.3
						l1.4-0.8C51,262.4,51.1,262.4,51.3,262.5z"/>
					<path class="st11" d="M76.8,277.2l3.1,1.8c0.1,0,0.1,0.2,0,0.3l-1.4,0.8c-0.2,0.1-0.3,0.1-0.5,0l-3.1-1.8c-0.1,0-0.1-0.2,0-0.3
						l1.4-0.8C76.5,277.1,76.6,277.1,76.8,277.2z"/>
					<path class="st11" d="M77.8,275.4l1.5,0.9c0.1,0,0.1,0.2,0,0.3l-1.4,0.8c-0.2,0.1-0.3,0.1-0.5,0l-1.5-0.9c-0.1,0-0.1-0.2,0-0.3
						l1.4-0.8C77.4,275.3,77.6,275.3,77.8,275.4z"/>
					<path class="st11" d="M75.7,274.2l1.5,0.9c0.1,0,0.1,0.2,0,0.3l-1.4,0.8c-0.2,0.1-0.3,0.1-0.5,0l-1.5-0.9c-0.1,0-0.1-0.2,0-0.3
						l1.4-0.8C75.3,274.1,75.5,274.1,75.7,274.2z"/>
					<path class="st11" d="M73.5,272.9l1.5,0.9c0.1,0,0.1,0.2,0,0.3l-1.4,0.8c-0.2,0.1-0.3,0.1-0.5,0l-1.5-0.9c-0.1,0-0.1-0.2,0-0.3
						l1.4-0.8C73.2,272.9,73.4,272.9,73.5,272.9z"/>
					<path class="st11" d="M71.4,271.7l1.5,0.9c0.1,0,0.1,0.2,0,0.3l-1.4,0.8c-0.2,0.1-0.3,0.1-0.5,0l-1.5-0.9c-0.1,0-0.1-0.2,0-0.3
						l1.4-0.8C71.1,271.6,71.3,271.6,71.4,271.7z"/>
					<path class="st11" d="M69.3,270.5l1.5,0.9c0.1,0,0.1,0.2,0,0.3l-1.4,0.8c-0.2,0.1-0.3,0.1-0.5,0l-1.5-0.9c-0.1,0-0.1-0.2,0-0.3
						l1.4-0.8C68.9,270.4,69.1,270.4,69.3,270.5z"/>
					<path class="st11" d="M67.1,269.3l1.5,0.9c0.1,0,0.1,0.2,0,0.3l-1.4,0.8c-0.1,0.1-0.3,0.1-0.5,0l-1.5-0.9c-0.1,0-0.1-0.2,0-0.3
						l1.4-0.8C66.8,269.2,67,269.2,67.1,269.3z"/>
					<path class="st11" d="M65,268.1l1.5,0.9c0.1,0,0.1,0.2,0,0.3l-1.4,0.8c-0.1,0.1-0.3,0.1-0.5,0l-1.5-0.9c-0.1,0-0.1-0.2,0-0.3
						l1.4-0.8C64.7,268,64.9,268,65,268.1z"/>
					<path class="st11" d="M62.9,266.9l1.5,0.9c0.1,0,0.1,0.2,0,0.3l-1.4,0.8c-0.1,0.1-0.3,0.1-0.5,0L61,268c-0.1,0-0.1-0.2,0-0.3
						l1.4-0.8C62.6,266.8,62.8,266.8,62.9,266.9z"/>
					<path class="st11" d="M60.8,265.6l1.5,0.9c0.1,0,0.1,0.2,0,0.3l-1.4,0.8c-0.1,0.1-0.3,0.1-0.5,0l-1.5-0.9c-0.1,0-0.1-0.2,0-0.3
						l1.4-0.8C60.5,265.5,60.6,265.5,60.8,265.6z"/>
					<path class="st11" d="M58.7,264.4l1.5,0.9c0.1,0,0.1,0.2,0,0.3l-1.4,0.8c-0.1,0.1-0.3,0.1-0.5,0l-1.5-0.9c-0.1,0,0-0.2,0-0.3
						l1.4-0.8C58.3,264.3,58.5,264.3,58.7,264.4z"/>
					<path class="st11" d="M56.6,263.1L58,264c0.1,0,0.1,0.2,0,0.3l-1.4,0.8c-0.2,0.1-0.3,0.1-0.5,0l-1.5-0.9c-0.1,0-0.1-0.2,0-0.3
						l1.4-0.8C56.2,263.1,56.4,263.1,56.6,263.1z"/>
					<path class="st11" d="M51.8,260.4l4.1,2.4c0.1,0,0.1,0.2,0,0.3l-1.4,0.8c-0.2,0.1-0.3,0.1-0.5,0l-4.2-2.4c-0.1,0-0.1-0.2,0-0.3
						l1.4-0.8C51.4,260.3,51.6,260.3,51.8,260.4z"/>
					<path class="st11" d="M79.9,276.6l2,1.2c0.1,0,0.1,0.2,0,0.3l-1.4,0.8c-0.2,0.1-0.3,0.1-0.5,0l-2.1-1.2c-0.1,0-0.1-0.2,0-0.3
						l1.4-0.8C79.5,276.5,79.7,276.5,79.9,276.6z"/>
					<path class="st11" d="M43.5,265.2l30.2,17.4c0.1,0,0.1,0.2,0,0.3l-0.7,0.4c-0.2,0.1-0.3,0.1-0.5,0l-30.1-17.4
						c-0.1,0-0.1-0.2,0-0.3l0.7-0.4C43.1,265.1,43.3,265.1,43.5,265.2z"/>
					<polygon id="_Контур_9" class="st12" points="79.1,266.3 78.9,266.4 73.8,269.5 64.5,264.1 64.3,264 69.7,260.9 					"/>
					<polygon id="_Контур_10" class="st13" points="78.9,266.4 73.8,269.5 64.5,264.1 69.7,261.1 					"/>
					<path id="_Контур_11" class="st13" d="M93.9,273.3v0.5c0,0.7-0.3,1.3-0.9,1.6L74.7,286c-0.3,0.2-0.6,0.3-0.9,0.3
						c-0.3,0-0.7-0.1-1-0.3l-33.1-19.1c-0.6-0.3-1-1-0.9-1.6v-0.5l35,20.2L93.9,273.3z"/>
					<path id="_Контур_12" class="st13" d="M73.8,285v1.3c-0.3,0-0.7-0.1-1-0.3l-33.1-19.1c-0.6-0.3-1-1-0.9-1.6v-0.5
						L73.8,285z"/>
					<path id="_Контур_13" class="st8" d="M73.2,285.3c-0.6,0.2-1.3,0.2-1.9-0.2l-33-19c-0.6-0.3-1-0.9-1.1-1.6L33.6,243
						c0-0.1,0-0.2,0-0.4c0-0.6,0.2-1.2,0.7-1.6l34.2,19.8c0.4,0.2,0.7,0.7,0.8,1.2L73.2,285.3z"/>
					<path id="_Контур_14" class="st13" d="M73.8,285l-0.2,0.1c-0.1,0.1-0.2,0.1-0.3,0.2L69.3,262c-0.1-0.5-0.4-0.9-0.8-1.2
						L34.3,241c0.1-0.1,0.3-0.2,0.5-0.3l34.3,19.8c0.4,0.3,0.7,0.7,0.8,1.2L73.8,285z"/>
				</g>
			</g>
		</g>
		<g>
			<path class="st14" d="M380,97L194.4-10.1c-0.9-0.6-2.1-0.8-3.1-0.3l0,0c-0.1,0-0.2,0.1-0.2,0.1l-3.3,1.9l1.6,2.9V116
				c0,3.7,2.3,8.1,5.1,9.7l184.5,106.5l0.5,3.2l3.8-2.2c0.2-0.1,0.4-0.2,0.5-0.3l0,0c1.1-1,1.6-2.5,1.5-3.9V106.7
				C385.1,103,382.9,98.6,380,97z"/>
			<path class="st15" d="M376.4,235L190.8,127.8c-2.8-1.6-5.1-5.9-5.1-9.7V-4.2c0-3.7,2.3-5.4,5.1-3.8L376.4,99.1
				c2.8,1.6,5.1,5.9,5.1,9.7v122.3C381.4,234.9,379.2,236.6,376.4,235z"/>
			<polygon class="st14" points="207.8,124 200.7,119.8 200.7,23.9 207.8,28.1 			"/>
			<polygon class="st16" points="207.8,124 200.7,119.9 200.7,100.8 207.8,104.9 			"/>
			<polygon class="st14" points="230.3,137 223.2,132.8 223.2,36.8 230.3,41.1 			"/>
			<polygon class="st16" points="230.3,137 223.2,132.9 223.2,117.3 230.3,121.4 			"/>
			<polygon class="st14" points="252.8,150 245.7,145.9 246.1,50 253.2,54.2 			"/>
			<polygon class="st16" points="252.8,150 245.7,145.9 245.8,106.9 252.9,111.1 			"/>
			<polygon class="st14" points="275.5,163.1 268.4,159 268.8,63.1 275.9,67.3 			"/>
			<polygon class="st16" points="275.5,163.1 268.4,159 268.5,125.9 275.6,130 			"/>
			<polygon class="st14" points="298.2,176.3 291.1,172.1 291.5,76.3 298.6,80.4 			"/>
			<polygon class="st16" points="298.2,176.2 291.1,172.1 291.3,121.4 298.4,125.6 			"/>
			<polygon class="st14" points="321,189.5 313.9,185.3 314.3,89.5 321.4,93.6 			"/>
			<polygon class="st16" points="321,189.4 313.9,185.3 314.2,119.4 321.3,123.6 			"/>
			<polygon class="st14" points="343.9,202.7 336.8,198.6 337.2,102.7 344.3,106.8 			"/>
			<polygon class="st16" points="343.9,202.7 336.9,198.5 337.2,116.3 344.3,120.4 			"/>
			<polygon class="st14" points="367,216 359.9,211.9 360.3,116 367.4,120.2 			"/>
			<polygon class="st16" points="367,216 359.9,211.8 360.2,128.4 367.3,132.6 			"/>
			<polygon class="st14" points="241.5,143.5 234.4,139.4 234.8,43.5 241.9,47.7 			"/>
			<polygon class="st16" points="241.5,143.5 234.4,139.4 234.5,107.4 241.6,111.5 			"/>
			<polygon class="st14" points="264.1,156.6 257,152.4 257.4,56.6 264.5,60.7 			"/>
			<polygon class="st16" points="264.1,156.6 257,152.4 257.2,107.6 264.3,111.8 			"/>
			<polygon class="st14" points="286.8,169.7 279.7,165.5 280.1,69.7 287.2,73.8 			"/>
			<polygon class="st16" points="286.8,169.7 279.7,165.5 279.9,106.7 287,110.8 			"/>
			<polygon class="st14" points="309.6,182.9 302.5,178.7 302.9,82.9 310,87 			"/>
			<polygon class="st16" points="309.6,182.8 302.5,178.7 302.7,119.8 309.8,124 			"/>
			<polygon class="st14" points="332.5,196.1 325.4,191.9 325.7,96.1 332.9,100.2 			"/>
			<polygon class="st16" points="332.5,196 325.4,191.9 325.7,119 332.8,123.2 			"/>
			<polygon class="st14" points="355.4,209.4 348.4,205.2 348.7,109.4 355.8,113.5 			"/>
			<polygon class="st16" points="355.5,209.3 348.4,205.2 348.7,118.3 355.8,122.4 			"/>
			<polygon class="st14" points="219,130.5 211.9,126.3 212,30.4 219.1,34.6 			"/>
			<polygon class="st16" points="219,130.5 211.9,126.4 212,102.6 219.1,106.7 			"/>
			<ellipse transform="matrix(0.866 -0.5 0.5 0.866 23.5123 98.6519)" class="st14" cx="195.8" cy="5.5" rx="2.5" ry="4.3"/>
			<ellipse transform="matrix(0.866 -0.5 0.5 0.866 22.0959 103.9212)" class="st14" cx="205" cy="10.7" rx="2.5" ry="4.3"/>
			<ellipse transform="matrix(0.866 -0.5 0.5 0.866 20.6897 109.1931)" class="st14" cx="214.1" cy="16" rx="2.5" ry="4.3"/>
		</g>
		<g id="Men_2">
			<path id="_Контур_15" class="st7" d="M183,151.9c-0.3,2.9-3.8,15.6-3.1,19.9c0.7,4.3,12.8,11.6,12.8,11.6l1.6-7.4l-6.6-6.5
				l1.8-12.3L183,151.9z"/>
			<path id="_Контур_16" class="st10" d="M192.2,139.4c-2.4-1.1-5.3-0.3-6.7,2c-1.8,2.9-3.6,12.9-3.7,14.6
				c1.4,1.9,3.8,3,6.2,2.8L192.2,139.4z"/>
			<path class="st17" d="M205.9,280.3c2.6,0.7,5.4,0.4,7.7-0.9c1.9,0,12-4.3,13.3-0.6c1.2,3.2-3.2,6.1-5.5,6.7
				c-5.1,1.2-8.9,3.8-10.9,4.2c-1.6,0.3-3.5,0.5-4.8-0.7C204.4,287.6,204.4,282.2,205.9,280.3z"/>
			<path class="st18" d="M210.5,288.8c2-0.4,5.8-3,10.9-4.2c2-0.5,5.3-2.6,5.7-5.2c0.4,2.9-3.5,5.5-5.7,6.1
				c-5.1,1.2-8.9,3.8-10.9,4.2c-1.6,0.3-3.5,0.5-4.8-0.7c-0.3-0.3-0.6-0.8-0.7-1.2C206.6,289,208.6,289.3,210.5,288.8z"/>
			<path class="st17" d="M189.5,273c2.6,0.7,5.4,0.4,7.7-0.9c1.9,0,12-4.3,13.3-0.6c1.2,3.2-3.2,6.1-5.5,6.7
				c-5.1,1.2-8.9,3.8-10.9,4.2c-1.6,0.3-3.5,0.5-4.8-0.7C187.9,280.2,188.1,274.9,189.5,273z"/>
			<path class="st18" d="M194.1,281.4c2-0.4,5.8-3,10.9-4.2c1.9-0.5,5.3-2.6,5.7-5.2c0.5,2.9-3.5,5.5-5.7,6.1
				c-5.1,1.2-8.9,3.8-10.9,4.2c-1.6,0.3-3.5,0.5-4.8-0.7c-0.3-0.3-0.6-0.8-0.7-1.2C190.2,281.6,192.2,282,194.1,281.4z"/>
			<path id="_Контур_17" class="st6" d="M189.3,245.5c0.4-3.8,1.2-7.5,2.3-11.1c0,0-0.7-9.6-1-18.6c-0.4-10.3-4-19.3-1.1-27.5
				l31.7,7c0,0-1.9,41-2.3,45.9c-0.2,3.9-0.7,7.7-1.4,11.5c-1.5,8-3.8,26.9-3.8,26.9c-2.4,1.2-5.1,1.5-7.8,0.9
				c0,0,0.2-23.9,0.5-29.6c0.3-7,0.5-6.5,0.5-6.5l-1.1-17.4l-0.7-8.6c0,0-0.9,6.4-1.5,12c-0.5,5-1.7,9.4-3,18.7
				c-1.1,8-3,24.1-3,24.1c-3.4,1.9-8,0.3-8,0.3S188.4,252.5,189.3,245.5z"/>
			<path id="_Контур_18" class="st7" d="M193.9,139.6c2.4,0.1,4.2,0.7,4.5,0c0.3-1.2,0.5-2.5,0.6-3.8
				c-0.3-0.7-0.5-1.5-0.5-1.5c-3-1.9-4-5.2-4.4-9c-0.7-6.5,2.8-12.2,9.4-12.9c6.1-0.6,10.6,3.7,11.9,9.6c0.6,2.9,1.9,8.4,0.2,13.2
				c-1,2.7-2.2,4.8-3.5,5.2c-1.2,0-2.4-0.1-3.6-0.3l0,0c0,0-0.3,1.8-0.5,3c-0.2,1.2-0.1,1.8,2.2,3.2c2.3,1.4-3.5,4.4-7.3,4.1
				c-3.8-0.3-8.1-2.6-9.3-5C192.1,142.7,192.3,139.5,193.9,139.6z"/>
			<path id="_Контур_19" class="st8" d="M197.4,139.9c-0.7,1.6,1,3.7,5.6,5.1c4.5,1.4,4.9-0.4,4.9-0.4c3,1.3,6,2.9,8.8,4.5
				c2.7,1.9,3.9,7.4,4.3,16.7c0.4,10.8,0.5,26.7,0.1,29.5c0,0-5.1,5.1-11.6,4.5c-6.5-0.5-17.5-6.3-20.1-10.8c0-9.4,1.2-11-0.4-16.4
				c-3.5-12.4-5.3-17.6-3.6-25.8c1.4-6.8,3.4-7.7,6.1-7.6C193.5,139.5,195.4,139.7,197.4,139.9z"/>
			<path id="_Контур_20" class="st7" d="M231.3,174.8c-5.3,1.3-6.6-2-7.3-4.8c-1.7-6.7-2.6-12.8-3.9-16.7
				c-1.5-4.5-3-5.2-5.2-6.1c-2.6-1-4.8,1.1-3.9,6.9c1.1,6.7,2.7,13.2,4.9,19.6c0.7,2.1,2.2,5.8,4.4,7.6c2.7,2.2,6.9,2.1,13.2,0.6
				c2.7-0.7,5.6-2.3,10.7-4.6c1.4-0.6,2.4-1.1,5-2.3c2.6-1.2,4.9-3,6.7-5.2c1.4-2,1.6-2.9,1.3-3.4c-0.3-0.5-1-0.4-1.7,0.4
				c-1.1,1.4-2.4,2.6-3.8,3.6c0,0,1.7-1.7,2.6-2.9c0.8-1,1.5-2.1,2-3.3c0.5-1.2-0.5-2.7-1.3-1.9c-0.7,0.8-1.1,1.7-2.5,3.3
				c-0.7,0.9-1.6,1.7-2.5,2.4c0.9-1.2,1.6-2.4,2.3-3.7c0.6-1,0.9-2.1,0.8-3.3c0-0.6-0.9-1.3-1.7-0.2c-0.8,1.6-1.7,3-2.9,4.4
				c-1.2,1.3-2.3,2-2.3,1.6c0-0.4,0.7-1,1.2-2.5s0-3-0.8-3.2c-0.8-0.2-0.7-0.1-1.3,1.3c-0.9,1.4-1.7,2.9-2.4,4.4
				c-0.4,1.4-1.2,2.7-2.2,3.8C239.2,172,236.3,173.5,231.3,174.8z"/>
			<path id="_Контур_21" class="st10" d="M212.9,146.3c3.6-0.5,6.1,1.1,7.7,6.5c1.6,5.4,2.7,9.8,2.7,9.8c-1.4,2.1-3.5,3.5-6,4
				c-4.3,1-5.8-1-5.8-1s-1.2-5.7-1.9-9.6S208.4,146.9,212.9,146.3z"/>
			<path class="st6" d="M215.1,121.2c0,0,5.6-8.6-6.6-10.3c-8.8-1.3-14.5,4.4-15.1,10.5c-0.6,5.9,3,12,5.6,14.4
				c2.6,0.6,5.3,0.3,7.6-0.9c0.1-1.6,0.2-3.2,0.2-4.8C206.8,130.1,202.5,121.1,215.1,121.2z"/>
		</g>
		<g id="Men_11">
			<path id="_Контур_22" class="st7" d="M382.6,308.2c2.7,4.7,5.9,9.1,9.6,13.1c1,1.2,9-1.8,7.4-2.7c-1.6-0.9-6.9-8.2-9.5-13
				c-2.2-5.8-4.1-11.8-5.6-17.8c-1.7-6-3.1-14.7-4.3-18.8c-0.6-3.1-3-5.5-6.1-6.2c-2.9-0.7-4.7,0.1-4.2,3.6
				C370.8,272.4,375.6,296.2,382.6,308.2z"/>
			<path d="M378.1,401.3c2.5,2,6.1,0.2,6.3,0.4c2.9,2.7,6,5.2,9.1,7.6c1.5,1.2,4,2.9,3.6,5.2c-0.8,4.2-7.5,2.9-10,1.6
				c-2.5-1.3-4.6-3.4-7-4.9c-1.7-1.1-3.4-1.6-3.6-3.8C376.3,406.1,377.7,401.2,378.1,401.3z"/>
			<path class="st18" d="M376.5,406.5c0.3,2.1,2,2.6,3.6,3.7c2.4,1.5,4.6,3.7,7.1,5c2.5,1.3,8.1,2.4,9.8-0.6c-0.9,4-7.5,2.8-10,1.5
				c-2.5-1.3-4.6-3.4-7-4.9c-1.7-1.1-3.4-1.6-3.6-3.8C376.4,407.1,376.4,406.8,376.5,406.5z"/>
			<path d="M403.2,386.8c2.5,2,6.8-0.2,7,0c2.6,2.6,5.3,5.1,8.2,7.4c1.5,1.2,4,2.9,3.6,5.2c-0.8,4.2-7.5,2.9-10,1.6
				c-2.5-1.3-4.6-3.4-7-4.9c-1.7-1.1-3.4-1.6-3.6-3.8C401.5,390.3,402.2,388.4,403.2,386.8z"/>
			<path class="st18" d="M401.4,391.7c0.3,2.1,2,2.6,3.6,3.7c2.4,1.5,4.6,3.7,7.1,5s8.2,2.4,9.8-0.6c-0.9,4-7.5,2.8-10,1.5
				s-4.6-3.4-7-4.9c-1.7-1-3.4-1.6-3.6-3.8C401.3,392.3,401.3,392,401.4,391.7z"/>
			<path id="_Контур_23" class="st9" d="M344.9,321.8c-2.7,17.2,4.9,23.6,14.8,27.2c7.2,2.6,17.3,6.7,17.3,6.7
				s-0.1,3.8-0.2,12.2c0,7.5,0.9,34.7,0.9,34.7c2.4,1.2,5.2,1.2,7.6-0.1c0,0,4-20.8,4.9-30.2c1.2-12.7,3.1-21.1,2.4-23.8
				c-0.6-2.4-14.5-9.3-18.9-12.9l29.2,9.7c-0.6,3.2-0.9,6.4-0.8,9.6c0.3,10.1,0.8,32,0.8,32s4,2.9,7.4,0c0,0,7.3-43.3,6.5-49.1
				c-0.8-5.4-26.6-16.6-31.1-20.4c-1.6-1.3-3.7-1.9-5.7-1.5L344.9,321.8z"/>
			<g id="_Группа_3">
				<g id="_Группа_4">
					<path id="_Контур_24" class="st8" d="M414.9,328.9l-19.6-11.3c-0.4-0.2-0.8-0.2-1.1,0l-34.4,19.9l20.2,11.7L414.9,328.9z
						"/>
					<path class="st11" d="M379,344.9l-1.5,0.9c-0.1,0-0.1,0.2,0,0.3l1.4,0.8c0.1,0.1,0.3,0.1,0.5,0l1.5-0.9c0.1,0,0.1-0.2,0-0.3
						l-1.4-0.8C379.3,344.8,379.1,344.8,379,344.9z"/>
					<path class="st11" d="M381.1,343.7l-1.5,0.9c-0.1,0-0.1,0.2,0,0.3l1.4,0.8c0.1,0.1,0.3,0.1,0.5,0l1.5-0.9c0.1,0,0.1-0.2,0-0.3
						l-1.4-0.8C381.4,343.6,381.3,343.6,381.1,343.7z"/>
					<path class="st11" d="M383.3,342.5l-1.5,0.9c-0.1,0-0.1,0.2,0,0.3l1.4,0.8c0.1,0.1,0.3,0.1,0.5,0l1.5-0.9c0.1,0,0.1-0.2,0-0.3
						l-1.4-0.8C383.6,342.4,383.4,342.4,383.3,342.5z"/>
					<path class="st11" d="M385.3,341.3l-1.5,0.9c-0.1,0-0.1,0.2,0,0.3l1.4,0.8c0.2,0.1,0.3,0.1,0.5,0l1.5-0.9c0.1,0,0.1-0.2,0-0.3
						l-1.4-0.8C385.7,341.2,385.5,341.2,385.3,341.3z"/>
					<path class="st11" d="M387.5,340l-1.5,0.9c-0.1,0-0.1,0.2,0,0.3l1.4,0.8c0.1,0.1,0.3,0.1,0.5,0l1.5-0.9c0.1,0,0.1-0.2,0-0.3
						l-1.4-0.8C387.8,340,387.6,340,387.5,340z"/>
					<path class="st11" d="M389.6,338.8l-1.5,0.9c-0.1,0,0,0.2,0,0.3l1.4,0.8c0.1,0.1,0.3,0.1,0.5,0l1.5-0.9c0.1,0,0.1-0.2,0-0.3
						l-1.4-0.8C389.9,338.7,389.7,338.7,389.6,338.8z"/>
					<path class="st11" d="M391.7,337.6l-1.5,0.9c-0.1,0-0.1,0.2,0,0.3l1.4,0.8c0.2,0.1,0.3,0.1,0.5,0l1.5-0.9c0.1,0,0.1-0.2,0-0.3
						l-1.4-0.8C392,337.5,391.8,337.5,391.7,337.6z"/>
					<path class="st11" d="M393.9,336.4l-1.5,0.9c-0.1,0-0.1,0.2,0,0.3l1.4,0.8c0.2,0.1,0.3,0.1,0.5,0l1.5-0.9c0.1,0,0.1-0.2,0-0.3
						l-1.4-0.8C394.2,336.3,394,336.3,393.9,336.4z"/>
					<path class="st11" d="M395.9,335.1l-1.5,0.9c-0.1,0-0.1,0.2,0,0.3l1.4,0.8c0.1,0.1,0.3,0.1,0.5,0l1.5-0.9c0.1,0,0.1-0.2,0-0.3
						l-1.4-0.8C396.2,335.1,396.1,335.1,395.9,335.1z"/>
					<path class="st11" d="M398,333.9l-1.5,0.9c-0.1,0-0.1,0.2,0,0.3l1.4,0.8c0.1,0.1,0.3,0.1,0.5,0l1.5-0.9c0.1,0,0.1-0.2,0-0.3
						l-1.4-0.8C398.3,333.8,398.2,333.8,398,333.9z"/>
					<path class="st11" d="M400.1,332.7l-1.5,0.9c-0.1,0-0.1,0.2,0,0.3l1.4,0.8c0.1,0.1,0.3,0.1,0.5,0l1.5-0.9c0.1,0,0.1-0.2,0-0.3
						l-1.4-0.8C400.5,332.6,400.3,332.6,400.1,332.7z"/>
					<path class="st11" d="M402.3,331.5l-1.5,0.9c-0.1,0-0.1,0.2,0,0.3l1.4,0.8c0.2,0.1,0.3,0.1,0.5,0l1.5-0.9c0.1,0,0.1-0.2,0-0.3
						l-1.4-0.8C402.6,331.4,402.4,331.4,402.3,331.5z"/>
					<path class="st11" d="M404.4,330.3l-1.5,0.9c-0.1,0-0.1,0.2,0,0.3l1.4,0.8c0.2,0.1,0.3,0.1,0.5,0l1.5-0.9c0.1,0,0.1-0.2,0-0.3
						l-1.4-0.8C404.7,330.2,404.5,330.2,404.4,330.3z"/>
					<path class="st11" d="M407.5,328.4l-2.5,1.5c-0.1,0-0.1,0.2,0,0.3l1.4,0.8c0.1,0.1,0.3,0.1,0.5,0l2.5-1.5c0.1,0,0.1-0.2,0-0.3
						l-1.4-0.8C407.9,328.4,407.7,328.4,407.5,328.4z"/>
					<path class="st11" d="M380.1,341.9l-1.5,0.9c-0.1,0-0.1,0.2,0,0.3l1.4,0.8c0.2,0.1,0.3,0.1,0.5,0l1.5-0.9c0.1,0,0.1-0.2,0-0.3
						l-1.4-0.8C380.4,341.8,380.2,341.8,380.1,341.9z"/>
					<path class="st11" d="M382.2,340.7l-1.5,0.9c-0.1,0-0.1,0.2,0,0.3l1.4,0.8c0.2,0.1,0.3,0.1,0.5,0l1.5-0.9c0.1,0,0.1-0.2,0-0.3
						l-1.4-0.8C382.5,340.6,382.3,340.6,382.2,340.7z"/>
					<path class="st11" d="M384.3,339.5l-1.5,0.9c-0.1,0-0.1,0.2,0,0.3l1.4,0.8c0.2,0.1,0.3,0.1,0.5,0l1.5-0.9c0.1,0,0.1-0.2,0-0.3
						l-1.4-0.8C384.6,339.4,384.5,339.4,384.3,339.5z"/>
					<path class="st11" d="M386.4,338.3l-1.5,0.9c-0.1,0-0.1,0.2,0,0.3l1.4,0.8c0.2,0.1,0.3,0.1,0.5,0l1.5-0.9c0.1,0,0.1-0.2,0-0.3
						l-1.4-0.8C386.8,338.2,386.6,338.2,386.4,338.3z"/>
					<path class="st11" d="M388.5,337l-1.5,0.9c-0.1,0-0.1,0.2,0,0.3l1.4,0.8c0.2,0.1,0.3,0.1,0.5,0l1.5-0.9c0.1,0,0.1-0.2,0-0.3
						l-1.4-0.8C388.8,337,388.6,337,388.5,337z"/>
					<path class="st11" d="M390.7,335.8l-1.5,0.9c-0.1,0-0.1,0.2,0,0.3l1.4,0.8c0.2,0.1,0.3,0.1,0.5,0l1.5-0.9c0.1,0,0.1-0.2,0-0.3
						l-1.4-0.8C391,335.7,390.8,335.7,390.7,335.8z"/>
					<path class="st11" d="M392.8,334.6l-1.5,0.9c-0.1,0-0.1,0.2,0,0.3l1.4,0.8c0.2,0.1,0.3,0.1,0.5,0l1.5-0.9c0.1,0,0.1-0.2,0-0.3
						l-1.4-0.8C393.1,334.5,392.9,334.5,392.8,334.6z"/>
					<path class="st11" d="M394.9,333.4l-1.5,0.9c-0.1,0-0.1,0.2,0,0.3l1.4,0.8c0.2,0.1,0.3,0.1,0.5,0l1.5-0.9c0.1,0,0.1-0.2,0-0.3
						l-1.4-0.8C395.2,333.3,395,333.3,394.9,333.4z"/>
					<path class="st11" d="M397,332.1l-1.5,0.9c-0.1,0-0.1,0.2,0,0.3l1.4,0.8c0.2,0.1,0.3,0.1,0.5,0l1.5-0.9c0.1,0,0.1-0.2,0-0.3
						l-1.4-0.8C397.3,332.1,397.2,332.1,397,332.1z"/>
					<path class="st11" d="M399.1,330.9l-1.5,0.9c-0.1,0-0.1,0.2,0,0.3l1.4,0.8c0.2,0.1,0.3,0.1,0.5,0l1.5-0.9c0.1,0,0.1-0.2,0-0.3
						l-1.4-0.8C399.5,330.8,399.3,330.8,399.1,330.9z"/>
					<path class="st11" d="M401.3,329.7l-1.5,0.9c-0.1,0-0.1,0.2,0,0.3l1.4,0.8c0.2,0.1,0.3,0.1,0.5,0l1.5-0.9c0.1,0,0.1-0.2,0-0.3
						l-1.4-0.8C401.6,329.6,401.4,329.6,401.3,329.7z"/>
					<path class="st11" d="M403.4,328.5l-1.5,0.9c-0.1,0-0.1,0.2,0,0.3l1.4,0.8c0.2,0.1,0.3,0.1,0.5,0l1.5-0.9c0.1,0,0.1-0.2,0-0.3
						l-1.4-0.8C403.7,328.4,403.5,328.4,403.4,328.5z"/>
					<path class="st11" d="M377.9,343.1l-2.5,1.5c-0.1,0-0.1,0.2,0,0.3l1.4,0.8c0.1,0.1,0.3,0.1,0.5,0l2.5-1.5c0.1,0,0.1-0.2,0-0.3
						l-1.4-0.8C378.3,343.1,378.1,343.1,377.9,343.1z"/>
					<path class="st11" d="M407.4,328.4l-1.5,0.9c-0.1,0.1-0.3,0.1-0.4,0l-1.5-0.9c-0.1,0-0.1-0.2,0-0.3h0.1c0.1,0,0.1-0.2,0-0.2
						l-1.6-0.9c-0.1,0-0.1-0.2,0-0.3l1-0.6c0.1-0.1,0.3-0.1,0.4,0l1.5,0.9l0.3,0.2l0.2,0.1l0.2,0.1l1.3,0.8
						C407.5,328.2,407.5,328.3,407.4,328.4C407.4,328.4,407.4,328.4,407.4,328.4z"/>
					<path class="st11" d="M370.8,340.2l-1.5,0.9c-0.1,0-0.1,0.2,0,0.3l1.4,0.8c0.1,0.1,0.3,0.1,0.5,0l1.5-0.9c0.1,0,0.1-0.2,0-0.3
						l-1.4-0.8C371.1,340.1,370.9,340.1,370.8,340.2z"/>
					<path class="st11" d="M372.9,339l-1.5,0.9c-0.1,0-0.1,0.2,0,0.3l1.4,0.8c0.2,0.1,0.3,0.1,0.5,0l1.5-0.9c0.1,0,0.1-0.2,0-0.3
						l-1.4-0.8C373.2,338.9,373.1,338.9,372.9,339z"/>
					<path class="st11" d="M375,337.7l-1.5,0.9c-0.1,0-0.1,0.2,0,0.3l1.4,0.8c0.1,0.1,0.3,0.1,0.5,0l1.5-0.9c0.1,0,0.1-0.2,0-0.3
						l-1.4-0.8C375.3,337.6,375.2,337.7,375,337.7z"/>
					<path class="st11" d="M393,327.4l-1.5,0.9c-0.1,0-0.1,0.2,0,0.3l1.4,0.8c0.1,0.1,0.3,0.1,0.5,0l1.5-0.9c0.1,0,0.1-0.2,0-0.3
						l-1.4-0.8C393.3,327.3,393.1,327.3,393,327.4z"/>
					<path class="st11" d="M395.1,326.1l-1.5,0.9c-0.1,0-0.1,0.2,0,0.3l1.4,0.8c0.2,0.1,0.3,0.1,0.5,0l1.5-0.9c0.1,0,0.1-0.2,0-0.3
						l-1.4-0.8C395.4,326.1,395.2,326.1,395.1,326.1z"/>
					<path class="st11" d="M397.2,324.9l-1.5,0.9c-0.1,0-0.1,0.2,0,0.3l1.4,0.8c0.1,0.1,0.3,0.1,0.5,0l1.5-0.9c0.1,0,0.1-0.2,0-0.3
						l-1.4-0.8C397.5,324.8,397.3,324.8,397.2,324.9z"/>
					<path class="st11" d="M399.2,323.7l-1.5,0.9c-0.1,0-0.1,0.2,0,0.3l1.4,0.8c0.1,0.1,0.3,0.1,0.5,0l1.5-0.9c0.1,0,0.1-0.2,0-0.3
						l-1.4-0.8C399.6,323.6,399.4,323.6,399.2,323.7z"/>
					<path class="st11" d="M377.7,336.2l-2,1.2c-0.1,0-0.1,0.2,0,0.3l1.4,0.8c0.2,0.1,0.3,0.1,0.5,0l2-1.2c0.1,0,0.1-0.2,0-0.3
						l-1.4-0.8C378,336.1,377.8,336.1,377.7,336.2z"/>
					<path class="st11" d="M390.9,328.6l-2,1.2c-0.1,0-0.1,0.2,0,0.3l1.4,0.8c0.1,0.1,0.3,0.1,0.5,0l2-1.2c0.1,0,0.1-0.2,0-0.3
						l-1.4-0.8C391.2,328.5,391,328.5,390.9,328.6z"/>
					<path class="st11" d="M388.2,330.1l-9.9,5.7c-0.1,0-0.1,0.2,0,0.3l1.4,0.8c0.1,0.1,0.3,0.1,0.5,0l9.9-5.7c0.1,0,0.1-0.2,0-0.3
						l-1.4-0.8C388.6,330,388.4,330,388.2,330.1z"/>
					<path class="st11" d="M378.6,340.4l-1.5,0.9c-0.1,0-0.1,0.2,0,0.3l1.4,0.8c0.2,0.1,0.3,0.1,0.5,0l1.5-0.9c0.1,0,0.1-0.2,0-0.3
						l-1.4-0.8C378.9,340.3,378.7,340.3,378.6,340.4z"/>
					<path class="st11" d="M380.7,339.2l-1.5,0.9c-0.1,0-0.1,0.2,0,0.3l1.4,0.8c0.1,0.1,0.3,0.1,0.5,0l1.5-0.9c0.1,0,0.1-0.2,0-0.3
						l-1.4-0.8C381,339.1,380.9,339.1,380.7,339.2z"/>
					<path class="st11" d="M382.8,338l-1.5,0.9c-0.1,0-0.1,0.2,0,0.3l1.4,0.8c0.1,0.1,0.3,0.1,0.5,0l1.5-0.9c0.1,0,0.1-0.2,0-0.3
						l-1.4-0.8C383.2,337.9,383,337.9,382.8,338z"/>
					<path class="st11" d="M384.9,336.7l-1.5,0.9c-0.1,0-0.1,0.2,0,0.3l1.4,0.8c0.2,0.1,0.3,0.1,0.5,0l1.5-0.9c0.1,0,0.1-0.2,0-0.3
						l-1.4-0.8C385.2,336.7,385,336.7,384.9,336.7z"/>
					<path class="st11" d="M387.1,335.5l-1.5,0.9c-0.1,0-0.1,0.2,0,0.3l1.4,0.8c0.1,0.1,0.3,0.1,0.5,0l1.5-0.9c0.1,0,0.1-0.2,0-0.3
						l-1.4-0.8C387.4,335.4,387.2,335.4,387.1,335.5z"/>
					<path class="st11" d="M389.2,334.3l-1.5,0.9c-0.1,0-0.1,0.2,0,0.3l1.4,0.8c0.1,0.1,0.3,0.1,0.5,0l1.5-0.9c0.1,0,0.1-0.2,0-0.3
						l-1.4-0.8C389.5,334.2,389.3,334.2,389.2,334.3z"/>
					<path class="st11" d="M391.3,333.1l-1.5,0.9c-0.1,0-0.1,0.2,0,0.3l1.4,0.8c0.2,0.1,0.3,0.1,0.5,0l1.5-0.9c0.1,0,0.1-0.2,0-0.3
						l-1.4-0.8C391.6,333,391.4,333,391.3,333.1z"/>
					<path class="st11" d="M393.4,331.9l-1.5,0.9c-0.1,0-0.1,0.2,0,0.3l1.4,0.8c0.1,0.1,0.3,0.1,0.5,0l1.5-0.9c0.1,0,0.1-0.2,0-0.3
						l-1.4-0.8C393.7,331.8,393.5,331.8,393.4,331.9z"/>
					<path class="st11" d="M395.5,330.6l-1.5,0.9c-0.1,0-0.1,0.2,0,0.3l1.4,0.8c0.2,0.1,0.3,0.1,0.5,0l1.5-0.9c0.1,0,0.1-0.2,0-0.3
						l-1.4-0.8C395.8,330.5,395.7,330.6,395.5,330.6z"/>
					<path class="st11" d="M397.6,329.4l-1.5,0.9c-0.1,0-0.1,0.2,0,0.3l1.4,0.8c0.1,0.1,0.3,0.1,0.5,0l1.5-0.9c0.1,0,0.1-0.2,0-0.3
						l-1.4-0.8C397.9,329.3,397.8,329.3,397.6,329.4z"/>
					<path class="st11" d="M399.7,328.2l-1.5,0.9c-0.1,0-0.1,0.2,0,0.3l1.4,0.8c0.1,0.1,0.3,0.1,0.5,0l1.5-0.9c0.1,0,0.1-0.2,0-0.3
						l-1.4-0.8C400.1,328.1,399.9,328.1,399.7,328.2z"/>
					<path class="st11" d="M401.8,327l-1.5,0.9c-0.1,0-0.1,0.2,0,0.3l1.4,0.8c0.2,0.1,0.3,0.1,0.5,0l1.5-0.9c0.1,0,0.1-0.2,0-0.3
						l-1.4-0.8C402.2,326.9,402,326.9,401.8,327z"/>
					<path class="st11" d="M376.5,341.6l-3.1,1.8c-0.1,0-0.1,0.2,0,0.3l1.4,0.8c0.1,0.1,0.3,0.1,0.5,0l3.1-1.8c0.1,0,0.1-0.2,0-0.3
						l-1.4-0.8C376.8,341.5,376.6,341.5,376.5,341.6z"/>
					<path class="st11" d="M375.5,339.8l-1.5,0.9c-0.1,0-0.1,0.2,0,0.3l1.4,0.8c0.1,0.1,0.3,0.1,0.5,0l1.5-0.9c0.1,0,0.1-0.2,0-0.3
						l-1.4-0.8C375.8,339.7,375.7,339.7,375.5,339.8z"/>
					<path class="st11" d="M377.7,338.6l-1.5,0.9c-0.1,0-0.1,0.2,0,0.3l1.4,0.8c0.2,0.1,0.3,0.1,0.5,0l1.4-0.8c0.1,0,0.1-0.2,0-0.3
						l-1.4-0.8C377.9,338.6,377.8,338.6,377.7,338.6z"/>
					<path class="st11" d="M379.7,337.4l-1.5,0.9c-0.1,0-0.1,0.2,0,0.3l1.4,0.8c0.2,0.1,0.3,0.1,0.5,0l1.5-0.9c0.1,0,0.1-0.2,0-0.3
						l-1.4-0.8C380.1,337.3,379.9,337.3,379.7,337.4z"/>
					<path class="st11" d="M381.8,336.2l-1.5,0.9c-0.1,0-0.1,0.2,0,0.3l1.4,0.8c0.1,0.1,0.3,0.1,0.5,0l1.5-0.9c0.1,0,0.1-0.2,0-0.3
						l-1.4-0.8C382.2,336.1,382,336.1,381.8,336.2z"/>
					<path class="st11" d="M384,334.9l-1.5,0.9c-0.1,0-0.1,0.2,0,0.3l1.4,0.8c0.2,0.1,0.3,0.1,0.5,0l1.5-0.9c0.1,0,0.1-0.2,0-0.3
						l-1.4-0.8C384.3,334.9,384.1,334.9,384,334.9z"/>
					<path class="st11" d="M386.1,333.7l-1.5,0.9c-0.1,0-0.1,0.2,0,0.3l1.4,0.8c0.1,0.1,0.3,0.1,0.5,0l1.5-0.9c0.1,0,0.1-0.2,0-0.3
						l-1.4-0.8C386.4,333.6,386.2,333.6,386.1,333.7z"/>
					<path class="st11" d="M388.2,332.5l-1.5,0.9c-0.1,0-0.1,0.2,0,0.3l1.4,0.8c0.2,0.1,0.3,0.1,0.5,0l1.5-0.9c0.1,0,0.1-0.2,0-0.3
						l-1.4-0.8C388.5,332.4,388.3,332.4,388.2,332.5z"/>
					<path class="st11" d="M390.3,331.3l-1.5,0.9c-0.1,0-0.1,0.2,0,0.3l1.4,0.8c0.2,0.1,0.3,0.1,0.5,0l1.5-0.9c0.1,0,0.1-0.2,0-0.3
						l-1.4-0.8C390.6,331.2,390.4,331.2,390.3,331.3z"/>
					<path class="st11" d="M392.4,330.1l-1.5,0.9c-0.1,0-0.1,0.2,0,0.3l1.4,0.8c0.1,0.1,0.3,0.1,0.5,0l1.5-0.9c0.1,0,0.1-0.2,0-0.3
						l-1.4-0.8C392.7,330,392.6,330,392.4,330.1z"/>
					<path class="st11" d="M394.5,328.8l-1.5,0.9c-0.1,0-0.1,0.2,0,0.3l1.4,0.8c0.2,0.1,0.3,0.1,0.5,0l1.5-0.9c0.1,0,0.1-0.2,0-0.3
						l-1.4-0.8C394.8,328.8,394.7,328.8,394.5,328.8z"/>
					<path class="st11" d="M396.6,327.6l-1.5,0.9c-0.1,0-0.1,0.2,0,0.3l1.4,0.8c0.1,0.1,0.3,0.1,0.5,0l1.5-0.9c0.1,0,0.1-0.2,0-0.3
						l-1.4-0.8C397,327.5,396.8,327.5,396.6,327.6z"/>
					<path class="st11" d="M401.4,324.9l-4.1,2.3c-0.1,0-0.1,0.2,0,0.3l1.4,0.8c0.1,0.1,0.3,0.1,0.5,0l4.1-2.4c0.1,0,0.1-0.2,0-0.3
						l-1.4-0.8C401.7,324.8,401.5,324.8,401.4,324.9z"/>
					<path class="st11" d="M373.4,341l-2,1.2c-0.1,0-0.1,0.2,0,0.3l1.4,0.8c0.1,0.1,0.3,0.1,0.5,0l2-1.2c0.1,0,0.1-0.2,0-0.3
						l-1.4-0.8C373.7,341,373.5,341,373.4,341z"/>
					<path class="st11" d="M409.6,329.7l-30,17.3c-0.1,0-0.1,0.2,0,0.3l0.7,0.4c0.1,0.1,0.3,0.1,0.5,0l30-17.3c0.1,0,0.1-0.2,0-0.3
						l-0.7-0.4C410,329.6,409.8,329.6,409.6,329.7z"/>
					<polygon id="_Контур_25" class="st12" points="374.5,330.4 374.7,330.6 379.9,333.5 389.1,328.2 389.3,328.1 383.9,325 
											"/>
					<polygon id="_Контур_26" class="st13" points="374.7,330.6 379.9,333.5 389.1,328.2 383.9,325.2 					"/>
					<path id="_Контур_27" class="st13" d="M359.7,337.4v0.5c0,0.7,0.4,1.3,1,1.6l18.3,10.5c0.3,0.2,0.6,0.3,1,0.3
						c0.3,0,0.7-0.1,0.9-0.3l33.1-19.1c0.6-0.3,0.9-1,0.9-1.6v-0.5l-35,20.2L359.7,337.4z"/>
					<path id="_Контур_28" class="st8" d="M380.4,349.4c0.6,0.2,1.3,0.2,1.9-0.1l32.9-19c0.6-0.3,1-0.9,1.1-1.6l3.6-21.6
						c0-0.1,0-0.2,0-0.4c0-0.6-0.2-1.2-0.7-1.6l-34.1,19.8c-0.4,0.2-0.7,0.7-0.8,1.2L380.4,349.4z"/>
					<path id="_Контур_29" class="st13" d="M379.9,349.1l0.2,0.1l0.3,0.1l3.9-23.3c0.1-0.5,0.4-0.9,0.8-1.2l34.1-19.8
						c-0.1-0.1-0.3-0.2-0.4-0.3l-34.3,19.8c-0.4,0.2-0.7,0.7-0.8,1.2L379.9,349.1z"/>
				</g>
			</g>
			<path id="_Контур_30" class="st7" d="M355,257.1c0,0,0.4,8.2,0.3,9s-3.8,3.1-4.8,4c-1,0.9,5.6,7.5,9,9
				c3.3,1.5,13.6-2.4,13.7-7.5c0.2-5.1-1.8-9.3-3.3-9.5C368.3,261.8,355,257.1,355,257.1z"/>
			<path id="_Контур_31" class="st8" d="M354.1,267.4c0,0,5.9,8.8,14.2,9.7c2.6-2.6,2.8-11.7-0.8-14.7c0,0,3.3-2.7,5.6-2.2
				c2.4,1.5,4.3,3.8,5.1,6.5c2.1,6.1,3.1,12.5,3,18.9c-0.1,8.7,0,30.5,0,30.5c-1,5.2-4.2,9.8-8.7,12.6c-6,3.4-13,4.3-19.7,2.7
				c-3.4-0.7-6.1-3.1-7.2-6.4c0.4-6.1,2.8-18.6,1.8-26.3c-1-7.7-2.6-13.4-3-19.5c-0.4-6.2,0.8-6.1,3.9-8.3
				C350.2,269.7,352.1,268.5,354.1,267.4z"/>
			<path id="_Контур_32" class="st7" d="M363.6,337.9c-1.5-1-3-1.9-4.6-2.7c-1.5-0.5-2.9-1.3-4-2.4c-1.5-1.4-3.8-6.8-5.5-12.1
				c-1.7-5.9-2.4-12.1-2-18.3c0.7-7.4,3.4-17.7,4.1-21.9c0.7-4.2-0.7-5.9-2.7-7.5c-2.3-1.8-5.5-1-7.2,4.9
				c-2.2,8.2-3.5,16.7-3.8,25.2c-0.1,6.3,0.9,12.6,2.9,18.6c1.8,5.1,4.2,10,7.1,14.6c0.8,1.4,1.1,2.6,2.3,5.4c1.2,2.8,3,5.3,5.4,7.2
				c2.1,1.5,3.1,1.7,3.6,1.4c0.5-0.3,0.5-1-0.4-1.8c-1.5-1.1-2.7-2.6-3.7-4.2c0,0,1.8,1.8,3,2.8c1.1,0.9,2.2,1.6,3.5,2.2
				c1.2,0.5,2.9-0.5,2-1.3s-1.8-1.2-3.5-2.7c-0.9-0.8-1.8-1.7-2.5-2.7c1.2,0.9,2.5,1.7,3.9,2.5c1.1,0.7,2.3,1,3.6,1
				c0.6,0,1.4-0.9,0.2-1.8c-1.7-0.8-3.2-1.9-4.6-3.1c-1.3-1.3-2.1-2.4-1.7-2.5c0.4,0,1.1,0.8,2.6,1.3c1.5,0.5,3.2,0,3.4-0.8
				C365.3,338.4,365.1,338.6,363.6,337.9z"/>
			<path id="_Контур_33" class="st7" d="M373.6,244.9L373.6,244.9c-1-6.4-5.6-11.2-12.1-10.8c-6.9,0.3-12.3,6.2-12,13.1
				c0.2,4,2.3,7.7,5.6,9.9c0.2,1,0.6,1.9,1,2.8c2.3,2.7,9.3,4.4,11.3,4.1c2.5-0.2,4.5-1.9,5.2-4.3
				C374.8,254.7,374.1,248,373.6,244.9z"/>
			<path class="st6" d="M355,257.1L355,257.1l0.6-5.5c0,0-4.5-11.7,6.2-9.5c7.1,1.5,8.8,2.1,11-2.6s-5.4-9-14.4-7.8
				c-6.4,0.7-11.2,6.1-11.1,12.6C347.5,247.7,348.4,254.8,355,257.1z"/>
			<path class="st10" d="M336.7,288.9c0,0,5.8,5.8,12.7,4.1c1-0.7,3.3-14.2,3.3-14.2s0-7.5-5.8-7.3
				C341.3,271.6,336.7,288.9,336.7,288.9z"/>
			<path class="st10" d="M380.8,277.6c1.6-0.1,3.2-0.8,4.3-1.9c-0.2-3-4.1-14.6-12-15.4c2.1,1.5,3.8,3.5,4.9,5.9
				C379.3,269.9,380.2,273.7,380.8,277.6z"/>
		</g>
	</g>
</g>
</svg>
