<?xml version="1.0" encoding="utf-8"?>
<!-- Generator: Adobe Illustrator 24.1.1, SVG Export Plug-In . SVG Version: 6.00 Build 0)  -->
<svg version="1.1" id="Layer_1" xmlns="http://www.w3.org/2000/svg" xmlns:xlink="http://www.w3.org/1999/xlink" x="0px" y="0px"
	 viewBox="0 0 595.9 420.6" style="enable-background:new 0 0 595.9 420.6;" xml:space="preserve">
<style type="text/css">
	.st0{fill:#DD990E;}
	.st1{fill:#F9CB07;}
	.st2{fill:#CC8B09;}
	.st3{fill:#E8A30A;}
	.st4{fill:#F9CA06;}
	.st5{opacity:0.3;fill:#D6D8E5;enable-background:new    ;}
	.st6{fill:#2B2A30;}
	.st7{fill:#FFCEA9;}
	.st8{fill:#F4F4F4;}
	.st9{fill:#1A4BEE;}
	.st10{fill:#EDEDED;}
	.st11{fill:#3A2C6D;}
	.st12{fill:#BFBFBF;}
	.st13{fill:#E5E5E5;}
	.st14{fill:#DADCE5;}
	.st15{fill:#F8F9FF;}
	.st16{fill:#8C50FF;}
	.st17{fill:#38226D;}
	.st18{fill:#9C73FF;}
</style>
<g id="Слой_2">
	<g id="Слой_1-2">
		<g id="Coin-6">
			<ellipse class="st0" cx="121.5" cy="314.4" rx="75.9" ry="43.8"/>
			<polygon class="st0" points="45.6,315 45.6,295.1 60.6,308.4 			"/>
			<polygon class="st0" points="197.3,295.6 197.3,314.4 189.7,322.5 185.9,301 			"/>
			<ellipse class="st1" cx="121.5" cy="295.6" rx="75.9" ry="43.8"/>
			<path class="st2" d="M175.7,297c-0.8,7.4-6,14.7-15.8,20.3c-21.2,12.2-55.6,12.2-76.8,0c-9.8-5.6-15-12.9-15.8-20.3
				c-0.9-8.6,4.4-17.5,15.8-24.1c21.2-12.3,55.6-12.3,76.8,0C171.3,279.5,176.6,288.3,175.7,297z"/>
			<path class="st3" d="M175.7,297c-0.8,7.4-6,14.7-15.8,20.3c-21.2,12.2-55.6,12.2-76.8,0c-9.8-5.6-15-12.9-15.8-20.3
				c0.8-7.4,6-14.7,15.8-20.3c21.2-12.3,55.6-12.3,76.8,0C169.7,282.3,174.9,289.6,175.7,297z"/>
			<path class="st2" d="M120.7,286.7c-0.7,0-1.3,0-2,0.1c-0.9,0.1-1.9,0.3-3,0.5s-2.3,0.5-3.5,0.9c-1.2,0.3-2.3,0.8-3.4,1.3l8.6,5
				l1.6-0.6c2.2-0.7,4.3-1.4,6.3-1.9c1.8-0.5,3.7-0.8,5.6-0.9c1.7-0.1,3.5,0,5.2,0.3c1.8,0.4,3.4,1,5,1.9c1.5,0.8,2.8,1.9,3.8,3.3
				c0.6,1,0.8,2.2,0.6,3.4c-0.4,1.3-1.1,2.4-2,3.4c-1.2,1.2-2.5,2.3-4,3.1l5.5,3.3l-3.1,1.7l-5.6-3.3c-2.7,1.3-5.5,2.4-8.3,3.1
				c-3,0.8-6.1,1.4-9.2,1.7l-2.9-5.2c0.8,0,1.6-0.1,2.4-0.2c1.2-0.1,2.5-0.3,3.7-0.6c1.3-0.3,2.8-0.7,4.3-1.1c1.5-0.4,2.9-1,4.3-1.6
				l-8.7-5l-1.1,0.4l-1.2,0.4c-2.2,0.7-4.2,1.3-6,1.6c-1.7,0.4-3.4,0.6-5.1,0.7c-1.5,0.1-3-0.1-4.5-0.4c-1.5-0.3-2.9-0.9-4.2-1.6
				c-1.4-0.8-2.7-1.8-3.6-3.1c-0.7-1-1-2.2-1-3.4c0.1-1.2,0.6-2.4,1.4-3.4c1-1.3,2.2-2.4,3.5-3.3l-5.1-3l3-1.7l5.1,2.9
				c2.4-1.1,4.9-2,7.5-2.5c2.5-0.6,5-1.1,7.5-1.4L120.7,286.7z M105.9,295.8c1.1,0.7,2.5,0.9,3.8,0.8c1.8-0.2,3.5-0.6,5.2-1.2
				l-8.2-4.7C103.6,292.7,103.4,294.5,105.9,295.8L105.9,295.8z M134.5,298.2c-1.3-0.7-2.7-0.9-4.1-0.7c-1.9,0.2-3.8,0.7-5.7,1.2
				l8.2,4.7C136.3,301.3,136.8,299.6,134.5,298.2L134.5,298.2z"/>
			<path class="st2" d="M116,308.1c0-0.2,0-2.9,0-2.9l3.3,2.1l-1.5,2.2L116,308.1z"/>
			<polygon class="st2" points="145,309.9 145,307 137.8,307.6 141.9,310.4 			"/>
			<polygon class="st2" points="145.6,299.2 145.6,296.2 140.2,298.1 			"/>
			<path class="st2" d="M123.2,299l1.8-1.7l6.3,4.4l-0.4,1.3c0,0-4.7-2-4.9-2.1C125.9,300.7,123.2,299,123.2,299z"/>
			<path class="st2" d="M106.7,289.7l8.4,4.7l1.6-1.2c0,0-1-1.2-1.1-1.3c-0.8-0.9-1.6-1.6-2.6-2.2c-0.6-0.1-4.6-1.9-4.6-1.9
				L106.7,289.7z"/>
			<polygon class="st2" points="120.7,286.7 120.7,283.7 116.8,282.5 116,284.8 116.2,285.8 			"/>
			<polygon class="st2" points="95,284.6 95,281.6 99.5,282.1 98,284.9 			"/>
			<path class="st2" d="M95.1,294.5v-3.1h5.1l-1.3,2.7l-2.2,2.4L95.1,294.5z"/>
			<path class="st4" d="M120.7,283.7c-0.7,0-1.3,0.1-2,0.2c-0.9,0.1-1.9,0.3-3,0.5s-2.3,0.5-3.5,0.9c-1.2,0.3-2.3,0.8-3.4,1.3l8.6,5
				l1.6-0.6c2.2-0.7,4.3-1.4,6.3-1.9c1.8-0.5,3.7-0.8,5.6-0.9c1.7-0.1,3.5,0,5.2,0.3c1.8,0.4,3.4,1,5,1.9c1.5,0.8,2.8,1.9,3.8,3.3
				c0.6,1,0.8,2.2,0.6,3.4c-0.4,1.3-1.1,2.4-2,3.4c-1.2,1.2-2.5,2.3-4,3.1l5.5,3.3l-3.1,1.7l-5.6-3.3c-2.7,1.3-5.5,2.4-8.3,3.1
				c-3,0.8-6.1,1.4-9.2,1.7l-2.9-5.2c0.8,0,1.6-0.1,2.4-0.2c1.2-0.1,2.5-0.3,3.7-0.6c1.3-0.3,2.8-0.7,4.3-1.1c1.5-0.4,2.9-1,4.3-1.6
				l-8.7-5l-1.1,0.4l-1.2,0.4c-2.2,0.7-4.2,1.3-6,1.6c-1.7,0.4-3.4,0.6-5.1,0.7c-1.5,0.1-3-0.1-4.5-0.4c-1.5-0.3-2.9-0.9-4.2-1.6
				c-1.4-0.7-2.6-1.8-3.6-3.1c-0.7-1-1-2.2-1-3.4c0.1-1.2,0.6-2.4,1.4-3.4c1-1.3,2.2-2.4,3.5-3.3l-5.1-3l3-1.7l5.1,2.9
				c2.4-1.2,4.9-2.1,7.5-2.7c2.5-0.6,5-1.1,7.5-1.4L120.7,283.7z M105.8,292.8c1.1,0.7,2.5,0.9,3.8,0.8c1.8-0.2,3.5-0.6,5.2-1.2
				l-8.2-4.7C103.6,289.8,103.4,291.5,105.8,292.8z M134.5,295.2c-1.2-0.7-2.7-0.9-4.1-0.7c-1.9,0.3-3.8,0.7-5.7,1.3l8.2,4.7
				C136.3,298.4,136.8,296.6,134.5,295.2L134.5,295.2z"/>
		</g>
		<g id="Coin-7">
			<ellipse class="st0" cx="126.4" cy="286.5" rx="75.9" ry="43.8"/>
			<polygon class="st0" points="50.5,287.2 50.5,267.2 65.5,280.6 			"/>
			<polygon class="st0" points="202.3,267.7 202.3,286.5 194.6,294.7 190.8,273.2 			"/>
			<ellipse class="st1" cx="126.4" cy="267.7" rx="75.9" ry="43.8"/>
			<path class="st2" d="M180.6,269.1c-0.8,7.4-6,14.7-15.8,20.3c-21.2,12.3-55.6,12.3-76.8,0c-9.8-5.6-15-12.9-15.8-20.3
				c-0.9-8.6,4.3-17.5,15.8-24.1c21.2-12.3,55.6-12.3,76.8,0C176.2,251.6,181.5,260.4,180.6,269.1z"/>
			<path class="st3" d="M180.6,269.1c-0.8,7.4-6,14.7-15.8,20.3c-21.2,12.3-55.6,12.3-76.8,0c-9.8-5.6-15-12.9-15.8-20.3
				c0.8-7.4,6-14.7,15.8-20.3c21.2-12.3,55.6-12.3,76.8,0C174.6,254.4,179.8,261.7,180.6,269.1z"/>
			<path class="st2" d="M125.6,258.8c-0.7,0-1.3,0.1-2,0.2c-0.9,0.1-1.9,0.3-3,0.5c-1.1,0.2-2.3,0.5-3.4,0.9
				c-1.2,0.4-2.3,0.8-3.4,1.3l8.7,5l1.6-0.6c2.2-0.7,4.3-1.4,6.3-1.9c1.8-0.5,3.7-0.8,5.6-0.9c1.7-0.1,3.5,0,5.2,0.3
				c1.7,0.4,3.4,1,4.9,1.9c1.5,0.8,2.8,1.9,3.8,3.3c0.6,1,0.8,2.2,0.6,3.4c-0.4,1.3-1.1,2.4-2,3.4c-1.2,1.2-2.5,2.3-4,3.1l5.5,3.3
				l-3.2,1.7l-5.6-3.3c-2.7,1.3-5.5,2.4-8.3,3.1c-3,0.8-6.1,1.4-9.2,1.7l-2.9-5.2c0.5,0,1.4,0,2.4-0.2s2.3-0.3,3.7-0.6
				c1.4-0.3,2.8-0.7,4.3-1.1c1.5-0.4,2.9-1,4.3-1.6l-8.7-5c-0.4,0.2-0.7,0.3-1.1,0.4l-1.2,0.4c-2.2,0.7-4.2,1.3-6,1.6
				c-1.7,0.4-3.4,0.6-5.1,0.7c-1.5,0.1-3-0.1-4.5-0.4c-1.5-0.3-2.9-0.9-4.2-1.6c-1.4-0.7-2.6-1.8-3.5-3c-0.7-1-1-2.2-1-3.4
				c0.1-1.3,0.6-2.4,1.4-3.4c1-1.3,2.2-2.4,3.5-3.3l-5.1-3l3-1.8l5.1,3c2.4-1.2,4.9-2.1,7.5-2.8c2.5-0.6,5-1.1,7.5-1.4L125.6,258.8z
				 M110.8,268c1.1,0.7,2.5,0.9,3.8,0.8c1.8-0.2,3.5-0.6,5.2-1.2l-8.2-4.7C108.6,264.9,108.3,266.6,110.8,268L110.8,268z
				 M139.4,270.4c-1.2-0.7-2.7-0.9-4.1-0.7c-1.9,0.2-3.9,0.7-5.7,1.3l8.2,4.7C141.2,273.5,141.7,271.7,139.4,270.4L139.4,270.4z"/>
			<path class="st2" d="M120.9,280.2c0.1-0.2,0-2.9,0-2.9l3.3,2.1l-1.5,2.2L120.9,280.2z"/>
			<polygon class="st2" points="149.9,282.1 149.9,279.1 142.7,279.7 146.9,282.5 			"/>
			<polygon class="st2" points="150.5,271.3 150.5,268.3 145.1,270.3 			"/>
			<path class="st2" d="M128.2,271.1l1.8-1.7l6.3,4.4l-0.4,1.3c0,0-4.7-2-4.9-2.1L128.2,271.1z"/>
			<path class="st2" d="M111.6,261.8l8.4,4.8l1.6-1.2c0,0-1-1.2-1.1-1.3c-0.7-0.9-1.6-1.6-2.5-2.2c-0.6-0.1-4.6-1.9-4.6-1.9
				L111.6,261.8z"/>
			<polygon class="st2" points="125.6,258.8 125.6,255.9 121.7,254.6 120.9,256.9 121.1,258 			"/>
			<polygon class="st2" points="99.9,256.7 99.9,253.8 104.4,254.2 102.9,257.1 			"/>
			<path class="st2" d="M100.1,266.7v-3.1h5.1l-1.3,2.7l-2.2,2.4L100.1,266.7z"/>
			<path class="st4" d="M125.6,255.9c-0.7,0-1.3,0.1-2,0.2c-0.9,0.1-1.9,0.3-3,0.5c-1.1,0.2-2.3,0.5-3.4,0.9
				c-1.2,0.3-2.3,0.8-3.4,1.3l8.7,5l1.6-0.6c2.2-0.7,4.3-1.4,6.3-1.9c1.8-0.5,3.7-0.8,5.6-0.9c1.7-0.1,3.5,0,5.2,0.3
				c1.7,0.4,3.4,1,4.9,1.9c1.5,0.8,2.8,1.9,3.8,3.3c0.6,1,0.8,2.2,0.6,3.4c-0.4,1.3-1.1,2.4-2,3.4c-1.2,1.2-2.5,2.3-4,3.1l5.5,3.3
				l-3.2,1.7l-5.6-3.3c-2.7,1.3-5.5,2.4-8.3,3.1c-3,0.8-6.1,1.4-9.2,1.7l-2.9-5.2c0.8,0,1.6-0.1,2.4-0.2c1.2-0.1,2.4-0.3,3.7-0.6
				c1.3-0.3,2.8-0.7,4.3-1.1c1.5-0.4,2.9-1,4.3-1.6l-8.7-5l-1.1,0.4l-1.2,0.4c-2.2,0.7-4.2,1.3-6,1.6c-1.7,0.4-3.4,0.6-5.1,0.7
				c-1.5,0.1-3-0.1-4.5-0.4c-1.5-0.3-2.9-0.9-4.2-1.6c-1.4-0.7-2.6-1.7-3.5-3c-0.7-1-1-2.2-1-3.4c0.1-1.2,0.6-2.4,1.4-3.4
				c1-1.3,2.2-2.4,3.5-3.3l-5.1-3l3-1.7l5.1,2.9c2.4-1.2,4.9-2.1,7.5-2.7c2.5-0.6,5-1.1,7.5-1.4L125.6,255.9z M110.7,265.1
				c1.1,0.7,2.5,0.9,3.8,0.8c1.8-0.2,3.5-0.6,5.2-1.2l-8.2-4.7C108.6,261.9,108.3,263.6,110.7,265.1z M139.4,267.5
				c-1.2-0.7-2.7-0.9-4.1-0.7c-1.9,0.3-3.8,0.7-5.7,1.3l8.2,4.7C141.2,270.5,141.7,268.8,139.4,267.5L139.4,267.5z"/>
		</g>
		<ellipse class="st5" cx="356.3" cy="373.6" rx="48.9" ry="28.2"/>
		<ellipse class="st5" cx="490.6" cy="341.5" rx="51" ry="29.4"/>
		<g id="Coin-12">
			<ellipse class="st0" cx="358.2" cy="366.8" rx="48.9" ry="28.2"/>
			<polygon class="st0" points="309.3,367.2 309.3,354.4 319,363 			"/>
			<polygon class="st0" points="407,354.7 407,366.8 402.1,372.1 399.7,358.2 			"/>
			<ellipse class="st1" cx="358.2" cy="354.7" rx="48.9" ry="28.2"/>
			<path class="st2" d="M393.1,355.6c-0.5,4.7-3.9,9.5-10.2,13.1c-13.7,7.9-35.8,7.9-49.5,0c-6.3-3.6-9.7-8.3-10.2-13.1
				c-0.6-5.6,2.8-11.2,10.2-15.5c13.7-7.9,35.8-7.9,49.5,0C390.3,344.4,393.7,350,393.1,355.6z"/>
			<path class="st3" d="M393.1,355.6c-0.5,4.7-3.9,9.5-10.2,13.1c-13.7,7.9-35.8,7.9-49.5,0c-6.3-3.6-9.7-8.3-10.2-13.1
				c0.5-4.7,3.9-9.5,10.2-13.1c13.7-7.9,35.8-7.9,49.5,0C389.2,346.2,392.6,350.9,393.1,355.6z"/>
			<path class="st2" d="M357.7,348.9c-0.4,0-0.9,0-1.3,0.1c-0.6,0.1-1.2,0.2-1.9,0.3s-1.5,0.3-2.2,0.6c-0.7,0.2-1.5,0.5-2.2,0.8
				l5.6,3.2l1.1-0.3c1.4-0.5,2.8-0.9,4-1.2c1.2-0.3,2.4-0.5,3.6-0.6c1.1-0.1,2.2,0,3.4,0.2c1.1,0.2,2.2,0.7,3.2,1.2
				c1,0.5,1.8,1.2,2.4,2.1c0.4,0.7,0.5,1.4,0.4,2.2c-0.2,0.8-0.7,1.6-1.3,2.2c-0.8,0.8-1.6,1.5-2.6,2l3.6,2.1l-2,1.1l-3.6-2.1
				c-1.7,0.8-3.5,1.5-5.4,2c-1.9,0.5-3.9,0.9-5.9,1.1l-1.9-3.4c0.5,0,1-0.1,1.6-0.1c0.7-0.1,1.5-0.2,2.4-0.4
				c0.9-0.2,1.8-0.4,2.7-0.7c0.9-0.3,1.9-0.6,2.7-1.1l-5.6-3.1l-0.7,0.3l-0.8,0.2c-1.4,0.5-2.7,0.8-3.9,1.1
				c-1.1,0.3-2.2,0.4-3.3,0.4c-1,0-2-0.1-2.9-0.3c-0.9-0.2-1.8-0.6-2.7-1.1c-0.9-0.5-1.7-1.2-2.3-2c-0.4-0.6-0.7-1.4-0.6-2.2
				c0.1-0.8,0.4-1.6,0.9-2.2c0.6-0.8,1.4-1.5,2.3-2.1l-3.3-1.9l1.9-1.1l3.3,1.9c1.5-0.8,3.1-1.4,4.8-1.8c1.6-0.4,3.2-0.7,4.8-0.9
				L357.7,348.9z M348.1,354.8c0.7,0.4,1.6,0.6,2.4,0.5c1.1-0.1,2.3-0.4,3.4-0.7l-5.3-3C346.7,352.9,346.5,354,348.1,354.8
				L348.1,354.8z M366.6,356.4c-0.8-0.4-1.7-0.6-2.6-0.5c-1.2,0.2-2.5,0.4-3.7,0.8l5.3,3C367.7,358.4,368.1,357.3,366.6,356.4
				L366.6,356.4z"/>
			<path class="st2" d="M354.6,362.8c0-0.1,0-1.9,0-1.9l2.1,1.4l-0.9,1.4L354.6,362.8z"/>
			<polygon class="st2" points="373.3,364 373.3,362.1 368.7,362.4 371.4,364.3 			"/>
			<polygon class="st2" points="373.7,357 373.7,355.1 370.3,356.4 			"/>
			<path class="st2" d="M359.3,356.9l1.2-1.1l4.1,2.8l-0.3,0.8c0,0-3-1.3-3.2-1.4L359.3,356.9z"/>
			<path class="st2" d="M348.7,350.9l5.4,3.1l1.1-0.8c0,0-0.7-0.8-0.7-0.9c-0.5-0.6-1.1-1-1.7-1.4c-0.4-0.1-3-1.2-3-1.2L348.7,350.9
				z"/>
			<polygon class="st2" points="357.7,349 357.7,347.1 355.2,346.3 354.6,347.8 354.8,348.5 			"/>
			<polygon class="st2" points="341.1,347.6 341.1,345.7 344,346 343.1,347.9 			"/>
			<path class="st2" d="M341.2,354.1v-2h3.3l-0.8,1.8l-1.4,1.6L341.2,354.1z"/>
			<path class="st4" d="M357.7,347.1c-0.4,0-0.9,0-1.3,0.1c-0.6,0.1-1.2,0.2-1.9,0.3c-0.7,0.2-1.5,0.3-2.2,0.6
				c-0.7,0.2-1.5,0.5-2.2,0.8l5.6,3.2l1.1-0.4c1.4-0.5,2.8-0.9,4-1.2c1.2-0.3,2.4-0.5,3.6-0.6c1.1-0.1,2.2,0,3.4,0.2
				c1.1,0.2,2.2,0.7,3.2,1.3c1,0.5,1.8,1.2,2.4,2.1c0.4,0.6,0.5,1.4,0.4,2.2c-0.2,0.8-0.7,1.6-1.3,2.2c-0.8,0.8-1.6,1.4-2.6,2
				l3.6,2.1l-2,1.1l-3.6-2.1c-1.7,0.8-3.5,1.5-5.4,2c-1.9,0.5-3.9,0.9-5.9,1.1l-1.9-3.4c0.3,0,0.9,0,1.6-0.1
				c0.7-0.1,1.5-0.2,2.4-0.4c0.9-0.2,1.8-0.4,2.7-0.7c0.9-0.3,1.9-0.6,2.7-1.1l-5.6-3.2c-0.2,0.1-0.5,0.2-0.7,0.3l-0.8,0.2
				c-1.4,0.5-2.7,0.8-3.9,1.1c-1.1,0.3-2.2,0.4-3.3,0.4c-1,0-2-0.1-2.9-0.3c-0.9-0.2-1.9-0.6-2.7-1.1c-0.9-0.5-1.7-1.2-2.3-2
				c-0.4-0.6-0.7-1.4-0.6-2.2c0.1-0.8,0.4-1.6,0.9-2.2c0.6-0.8,1.4-1.5,2.3-2.1l-3.3-1.9l1.9-1.1l3.3,1.9c1.5-0.8,3.1-1.4,4.8-1.8
				c1.6-0.4,3.2-0.7,4.8-0.9L357.7,347.1z M348.1,353c0.7,0.4,1.6,0.6,2.4,0.5c1.1-0.1,2.3-0.4,3.4-0.7l-5.3-3
				C346.7,351,346.5,352.1,348.1,353L348.1,353z M366.6,354.5c-0.8-0.4-1.7-0.6-2.6-0.5c-1.2,0.2-2.5,0.4-3.7,0.8l5.3,3
				C367.7,356.5,368.1,355.4,366.6,354.5L366.6,354.5z"/>
		</g>
		<g id="Coin-13">
			<ellipse class="st0" cx="88.6" cy="85.2" rx="37.9" ry="21.9"/>
			<polygon class="st0" points="50.8,85.5 50.8,75.6 58.3,82.2 			"/>
			<polygon class="st0" points="126.5,75.8 126.5,85.2 122.6,89.3 120.8,78.5 			"/>
			<ellipse class="st1" cx="88.6" cy="75.8" rx="37.9" ry="21.9"/>
			<path class="st2" d="M115.7,76.5c-0.4,3.7-3,7.3-7.9,10.1c-10.6,6.1-27.7,6.1-38.3,0c-4.9-2.8-7.5-6.4-7.9-10.1
				c-0.5-4.3,2.2-8.7,7.9-12c10.6-6.1,27.7-6.1,38.3,0C113.5,67.8,116.1,72.2,115.7,76.5z"/>
			<path class="st3" d="M115.7,76.5c-0.4,3.7-3,7.3-7.9,10.1c-10.6,6.1-27.7,6.1-38.3,0c-4.9-2.8-7.5-6.4-7.9-10.1
				c0.4-3.7,3-7.3,7.9-10.1c10.6-6.1,27.7-6.1,38.3,0C112.7,69.2,115.3,72.8,115.7,76.5z"/>
			<path class="st2" d="M88.2,71.4c-0.3,0-0.7,0-1,0.1c-0.4,0.1-0.9,0.2-1.5,0.3c-0.6,0.1-1.1,0.3-1.7,0.4c-0.6,0.2-1.2,0.4-1.7,0.6
				l4.4,2.5l0.8-0.3c1.1-0.4,2.2-0.7,3.1-0.9c0.9-0.2,1.9-0.4,2.8-0.5c0.9-0.1,1.8,0,2.6,0.2c0.9,0.2,1.7,0.5,2.4,1
				c0.8,0.4,1.4,0.9,1.9,1.6c0.3,0.5,0.4,1.1,0.3,1.7c-0.2,0.6-0.5,1.2-1,1.7c-0.6,0.6-1.3,1.1-2,1.6l2.8,1.6l-1.5,0.9l-2.8-1.6
				c-1.3,0.7-2.7,1.2-4.2,1.6c-1.5,0.4-3,0.7-4.6,0.9l-1.5-2.6c0.3,0,0.7,0,1.2-0.1c0.5-0.1,1.1-0.2,1.8-0.3
				c0.7-0.1,1.4-0.3,2.1-0.5c0.7-0.2,1.4-0.5,2.1-0.8l-4.3-2.5L88.3,78l-0.6,0.2c-1.1,0.4-2.1,0.6-3,0.8c-0.8,0.2-1.7,0.3-2.5,0.3
				c-0.8,0-1.5,0-2.3-0.2c-0.7-0.2-1.4-0.4-2.1-0.8c-0.7-0.4-1.3-0.9-1.8-1.6c-0.3-0.5-0.5-1.1-0.5-1.7c0.1-0.6,0.3-1.2,0.7-1.7
				c0.5-0.6,1.1-1.2,1.8-1.6l-2.6-1.5l1.5-0.9l2.5,1.5c1.2-0.6,2.4-1.1,3.7-1.4c1.2-0.3,2.5-0.5,3.7-0.7L88.2,71.4z M80.8,76
				c0.6,0.3,1.2,0.5,1.9,0.4c0.9-0.1,1.8-0.3,2.6-0.6l-4.1-2.4C79.7,74.4,79.6,75.2,80.8,76L80.8,76z M95.1,77.1
				c-0.6-0.3-1.3-0.5-2-0.4c-1,0.1-1.9,0.3-2.8,0.6l4.1,2.3C96,78.7,96.3,77.8,95.1,77.1z"/>
			<path class="st2" d="M85.9,82.1c0-0.1,0-1.5,0-1.5l1.6,1.1l-0.7,1.1L85.9,82.1z"/>
			<polygon class="st2" points="100.4,83 100.4,81.5 96.8,81.8 98.8,83.2 			"/>
			<polygon class="st2" points="100.7,77.6 100.7,76.1 98,77.1 			"/>
			<path class="st2" d="M89.5,77.5l0.9-0.9l3.2,2.2l-0.2,0.6c0,0-2.4-1-2.4-1.1S89.5,77.5,89.5,77.5z"/>
			<path class="st2" d="M81.2,72.9l4.2,2.4l0.9-0.6c0,0-0.5-0.6-0.6-0.7c-0.4-0.4-0.8-0.8-1.3-1.1c-0.3-0.1-2.3-1-2.3-1L81.2,72.9z"
				/>
			<polygon class="st2" points="88.2,71.4 88.2,69.9 86.3,69.3 85.9,70.4 86,71 			"/>
			<polygon class="st2" points="75.4,70.3 75.4,68.8 77.7,69.1 76.9,70.5 			"/>
			<path class="st2" d="M75.5,75.3v-1.5h2.6l-0.6,1.4l-1.1,1.2L75.5,75.3z"/>
			<path class="st4" d="M88.2,69.9c-0.3,0-0.7,0-1,0.1c-0.4,0.1-0.9,0.2-1.5,0.3c-0.6,0.1-1.1,0.3-1.7,0.4c-0.6,0.2-1.2,0.4-1.7,0.6
				l4.4,2.5l0.8-0.3c1.1-0.4,2.2-0.7,3.1-0.9c0.9-0.3,1.9-0.4,2.8-0.5c0.9-0.1,1.7,0,2.6,0.2c0.9,0.2,1.7,0.5,2.4,1
				c0.8,0.4,1.4,0.9,1.9,1.6c0.3,0.5,0.4,1.1,0.3,1.7c-0.2,0.6-0.5,1.2-1,1.7c-0.6,0.6-1.3,1.1-2,1.6l2.8,1.6l-1.5,0.9L96,80.8
				c-1.3,0.7-2.7,1.2-4.2,1.6c-1.5,0.4-3,0.7-4.6,0.9l-1.5-2.6c0.4,0,0.8,0,1.2-0.1c0.6-0.1,1.2-0.2,1.8-0.3
				c0.7-0.1,1.4-0.3,2.1-0.5c0.7-0.2,1.4-0.5,2.1-0.8l-4.3-2.5l-0.6,0.2l-0.6,0.2c-1.1,0.4-2.1,0.6-3,0.8c-0.8,0.2-1.7,0.3-2.5,0.4
				c-0.8,0-1.5,0-2.3-0.2c-0.7-0.2-1.4-0.4-2.1-0.8c-0.7-0.4-1.3-0.9-1.8-1.6c-0.3-0.5-0.5-1.1-0.5-1.7c0.1-0.6,0.3-1.2,0.7-1.7
				c0.5-0.6,1.1-1.2,1.8-1.6l-2.6-1.5l1.5-0.9l2.5,1.5c1.2-0.6,2.4-1,3.7-1.4c1.2-0.3,2.5-0.5,3.7-0.7L88.2,69.9z M80.8,74.5
				c0.6,0.3,1.2,0.5,1.9,0.4c0.9-0.1,1.8-0.3,2.6-0.6l-4.1-2.4C79.7,72.9,79.6,73.8,80.8,74.5z M95.1,75.7c-0.6-0.3-1.3-0.5-2-0.4
				c-1,0.1-1.9,0.3-2.8,0.6l4.1,2.3C96,77.2,96.3,76.3,95.1,75.7z"/>
		</g>
		<g id="Coin-14">
			<ellipse class="st0" cx="517.4" cy="65.8" rx="43.7" ry="25.2"/>
			<path class="st0" d="M473.7,65.2v-9c0-0.6,0.7-0.9,1.1-0.5l6.8,6c0.4,0.3,0.3,0.9-0.2,1.1l-6.8,3C474.2,66,473.7,65.7,473.7,65.2
				z"/>
			<path class="st0" d="M561.1,56.1v9.5c0,0.2-0.1,0.3-0.2,0.4l-3.3,3.6c-0.4,0.4-1,0.2-1.1-0.3l-1.9-10.6c-0.1-0.3,0.1-0.6,0.4-0.7
				l5.2-2.5C560.6,55.3,561.1,55.6,561.1,56.1z"/>
			<ellipse class="st1" cx="517.4" cy="55" rx="43.7" ry="25.2"/>
			<path class="st2" d="M548.6,55.8c-0.4,4.2-3.5,8.5-9.1,11.7c-12.2,7-32,7-44.2,0c-5.6-3.3-8.7-7.4-9.1-11.7
				c-0.5-5,2.5-10.1,9.1-13.9c12.2-7.1,32-7.1,44.2,0C546.1,45.8,549.2,50.8,548.6,55.8z"/>
			<path class="st3" d="M548.6,55.7c0,0.1,0,0.1,0,0.2c-0.5,4.2-3.5,8.4-9.1,11.6c-12.2,7-32,7-44.2,0c-5.6-3.2-8.6-7.4-9.1-11.6
				c0-0.1,0-0.1,0-0.2c0.5-4.2,3.5-8.4,9.1-11.6c12.2-7.1,32-7.1,44.2,0C545.1,47.4,548.2,51.5,548.6,55.7z"/>
			<path class="st2" d="M517,49.9c-0.4,0-0.8,0-1.1,0.1c-0.5,0.1-1.1,0.2-1.7,0.3c-0.6,0.1-1.3,0.3-2,0.5c-0.2,0.1-0.5,0.2-0.7,0.2
				c-0.5,0.2-0.6,0.9-0.1,1.2l3.6,2.1c0.2,0.1,0.4,0.1,0.5,0.1l0.7-0.2c1.3-0.4,2.5-0.8,3.6-1.1c1.1-0.3,2.2-0.5,3.3-0.5
				c1-0.1,2,0,3,0.2c1,0.2,1.9,0.6,2.8,1.1c0.9,0.4,1.6,1.1,2.2,1.9c0.4,0.6,0.5,1.3,0.3,2c-0.2,0.7-0.6,1.4-1.2,1.9
				c-0.5,0.5-0.9,0.9-1.5,1.3c-0.4,0.3-0.3,0.8,0.1,1.1l1.3,0.8c0.4,0.3,0.4,0.9,0,1.1l-0.4,0.3c-0.2,0.1-0.5,0.1-0.7,0l-2.6-1.5
				c-0.2-0.1-0.4-0.1-0.6,0c-1.4,0.7-2.9,1.2-4.5,1.7c-1.6,0.4-3.2,0.8-4.9,0.9c-0.3,0-0.5-0.1-0.6-0.3l-1.5-2.7
				c0.5,0,0.9,0,1.4-0.1c0.6-0.1,1.3-0.2,2.1-0.4s1.6-0.4,2.5-0.6c0.4-0.1,0.8-0.3,1.2-0.4c0.5-0.2,0.6-0.9,0.1-1.2l-3.9-2.2
				l-0.7,0.2c-0.2,0.1-0.5,0.1-0.7,0.2c-1.2,0.4-2.4,0.7-3.4,0.9c-1,0.2-2,0.4-3,0.4c-0.9,0-1.7-0.1-2.6-0.2
				c-0.8-0.2-1.7-0.5-2.4-0.9c-0.8-0.4-1.5-1-2.1-1.8c-0.4-0.6-0.6-1.2-0.6-1.9c0.1-0.7,0.4-1.4,0.8-2c0.4-0.5,0.8-0.9,1.3-1.3
				c0.3-0.3,0.3-0.8-0.1-1.1l-1.1-0.7c-0.4-0.3-0.4-0.9,0-1.1l0.4-0.3c0.2-0.1,0.4-0.1,0.6,0l2.3,1.3c0.2,0.1,0.4,0.1,0.6,0
				c1.3-0.6,2.6-1.1,4-1.4c1.3-0.3,2.6-0.6,3.9-0.7c0.3,0,0.5,0.1,0.7,0.4L517,49.9z M508.4,55.2c0.7,0.4,1.4,0.5,2.2,0.5
				c0.5-0.1,1-0.1,1.5-0.2c0.6-0.1,0.7-0.9,0.2-1.2l-3-1.7c-0.2-0.1-0.5-0.1-0.7,0C507.1,53.5,507.1,54.4,508.4,55.2z M524.9,56.6
				c-0.7-0.4-1.5-0.5-2.3-0.4c-0.6,0.1-1.2,0.2-1.7,0.3c-0.6,0.1-0.7,0.9-0.2,1.2l3,1.7c0.2,0.1,0.5,0.1,0.7,0
				C526,58.2,526.2,57.3,524.9,56.6z"/>
			<path class="st2" d="M514.5,62.4c-0.2-0.1-0.2-0.3-0.2-0.5v-1.4l1.3,0.9c0.3,0.2,0.4,0.6,0.2,0.9l-0.1,0.1
				c-0.2,0.3-0.6,0.4-0.9,0.2L514.5,62.4z"/>
			<path class="st2" d="M531,62.7v-0.4c0-0.4-0.3-0.7-0.7-0.6l-1.6,0.1c-0.6,0-0.8,0.8-0.3,1.2l0.6,0.4c0.1,0.1,0.3,0.1,0.5,0.1
				l1-0.1C530.8,63.3,531,63.1,531,62.7z"/>
			<path class="st2" d="M531.3,56.3L531.3,56.3c0-0.5-0.4-0.8-0.9-0.6l-2.2,0.8l2.3,0.4C531,57,531.3,56.7,531.3,56.3z"/>
			<path class="st2" d="M518.4,57l0.7-0.6c0.2-0.2,0.6-0.2,0.8-0.1l3.2,2.2l-0.2,0.7c0,0-2.7-1.2-2.8-1.2S518.4,57,518.4,57z"/>
			<path class="st2" d="M509.6,52l3.7,2.1c0.2,0.1,0.5,0.1,0.7,0l0.7-0.5c0,0-0.6-0.7-0.7-0.8c-0.4-0.5-0.9-0.9-1.4-1.2
				c-0.1,0-0.1-0.1-0.2-0.1c-0.4-0.1-1.5-0.6-2.1-0.9c-0.3-0.1-0.6,0-0.7,0.2l-0.1,0.1C509.2,51.4,509.2,51.8,509.6,52z"/>
			<path class="st2" d="M517,49.1v-0.4c0-0.3-0.2-0.5-0.4-0.6l-1.2-0.4c-0.3-0.1-0.7,0.1-0.8,0.4l-0.3,0.7l0.1,0.6l1.8,0.3
				C516.6,49.8,517,49.5,517,49.1z"/>
			<path class="st2" d="M502.2,48.1v-0.4c0-0.4,0.3-0.7,0.7-0.6l0.9,0.1c0.5,0,0.7,0.5,0.5,0.9l-0.2,0.4c-0.1,0.2-0.4,0.4-0.7,0.4
				l-0.7-0.1C502.4,48.7,502.2,48.4,502.2,48.1z"/>
			<path class="st2" d="M502.3,54.2v-0.9c0-0.4,0.3-0.7,0.7-0.7h1.3c0.5,0,0.8,0.5,0.6,0.9l-0.3,0.6c0,0.1-0.1,0.1-0.1,0.2l-0.7,0.8
				c-0.3,0.3-0.7,0.3-1,0l-0.4-0.5C502.3,54.5,502.3,54.3,502.3,54.2z"/>
			<path class="st4" d="M517,48.2c-0.4,0-0.8,0-1.1,0.1c-0.5,0.1-1.1,0.2-1.7,0.3c-0.6,0.1-1.3,0.3-2,0.5c-0.7,0.2-1.3,0.5-2,0.8
				l4.8,2.7c0.2,0.1,0.4,0.1,0.5,0.1l0.7-0.2c1.3-0.4,2.5-0.8,3.6-1.1c1.1-0.3,2.2-0.5,3.3-0.5c1-0.1,2,0,3,0.2
				c1,0.2,1.9,0.6,2.8,1.1c0.9,0.4,1.6,1.1,2.2,1.9c0.4,0.6,0.5,1.3,0.3,2c-0.2,0.7-0.6,1.4-1.2,1.9c-0.5,0.5-0.9,0.9-1.5,1.3
				c-0.4,0.3-0.3,0.8,0.1,1.1l1.4,0.8c0.4,0.3,0.4,0.9,0,1.1l-0.4,0.3c-0.2,0.1-0.5,0.1-0.7,0l-2.6-1.5c-0.2-0.1-0.4-0.1-0.6,0
				c-1.4,0.7-2.9,1.2-4.5,1.7c-1.6,0.4-3.2,0.8-4.9,0.9c-0.3,0-0.5-0.1-0.6-0.3l-1.5-2.6c0.5,0,0.9,0,1.4-0.1
				c0.6-0.1,1.3-0.2,2.1-0.4s1.6-0.4,2.5-0.6c0.4-0.1,0.8-0.3,1.2-0.4c0.5-0.2,0.6-0.9,0.1-1.2l-3.9-2.2l-0.7,0.2l-0.7,0.2
				c-1.2,0.4-2.4,0.7-3.4,0.9c-1,0.2-2,0.4-3,0.4c-0.9,0-1.8,0-2.6-0.2c-0.8-0.2-1.7-0.5-2.4-0.9c-0.8-0.4-1.5-1-2.1-1.8
				c-0.4-0.6-0.6-1.2-0.6-1.9c0.1-0.7,0.4-1.4,0.8-2c0.4-0.5,0.8-0.9,1.3-1.3c0.3-0.3,0.3-0.8-0.1-1.1l-1.1-0.7
				c-0.4-0.3-0.4-0.9,0-1.1l0.4-0.3c0.2-0.1,0.4-0.1,0.6,0l2.3,1.3c0.2,0.1,0.4,0.1,0.6,0c1.3-0.6,2.6-1.1,4-1.4
				c1.3-0.3,2.6-0.6,3.9-0.7c0.3,0,0.5,0.1,0.7,0.4L517,48.2z M508.4,53.5c0.7,0.4,1.4,0.5,2.2,0.5c0.5-0.1,1-0.1,1.4-0.2
				c0.6-0.1,0.7-0.9,0.2-1.2l-3-1.7c-0.2-0.1-0.5-0.1-0.7,0C507.1,51.8,507.1,52.7,508.4,53.5z M524.9,54.9
				c-0.7-0.4-1.5-0.5-2.3-0.4c-0.6,0.1-1.2,0.2-1.7,0.3c-0.6,0.1-0.7,0.9-0.2,1.2l3,1.7c0.2,0.1,0.5,0.1,0.7,0
				C526,56.5,526.2,55.6,524.9,54.9L524.9,54.9z"/>
		</g>
		<g id="Coin-20">
			<ellipse class="st0" cx="493.8" cy="338" rx="51" ry="29.4"/>
			<polygon class="st0" points="442.8,338.5 442.8,325.1 452.9,334 			"/>
			<polygon class="st0" points="544.8,325.4 544.8,338 539.6,343.5 537.1,329.1 			"/>
			<ellipse class="st1" cx="493.8" cy="325.4" rx="51" ry="29.4"/>
			<path class="st2" d="M530.2,326.3c-0.5,5-4.1,9.9-10.6,13.6c-14.3,8.2-37.4,8.2-51.6,0c-6.6-3.8-10.1-8.7-10.6-13.6
				c-0.6-5.8,2.9-11.7,10.6-16.2c14.3-8.2,37.4-8.2,51.6,0C527.3,314.6,530.8,320.5,530.2,326.3z"/>
			<path class="st3" d="M530.2,326.3c-0.5,5-4.1,9.9-10.6,13.6c-14.3,8.2-37.4,8.2-51.6,0c-6.6-3.8-10.1-8.7-10.6-13.6
				c0.5-5,4-9.9,10.6-13.6c14.3-8.2,37.4-8.2,51.6,0C526.2,316.5,529.7,321.4,530.2,326.3z"/>
			<path class="st2" d="M493.3,319.4c-0.4,0-0.9,0-1.3,0.1c-0.6,0.1-1.3,0.2-2,0.4c-0.7,0.2-1.5,0.4-2.3,0.6
				c-0.8,0.2-1.5,0.5-2.3,0.9l5.9,3.4l1.1-0.4c1.5-0.5,2.9-0.9,4.2-1.3c1.2-0.3,2.5-0.5,3.8-0.6c1.2-0.1,2.3,0,3.5,0.2
				c1.2,0.3,2.3,0.7,3.3,1.3c1,0.5,1.9,1.3,2.5,2.2c0.4,0.7,0.6,1.5,0.4,2.3c-0.2,0.9-0.7,1.6-1.4,2.3c-0.8,0.8-1.7,1.5-2.7,2.1
				l3.7,2.2l-2,1.2l-3.8-2.2c-1.8,0.9-3.7,1.6-5.6,2.1c-2,0.6-4.1,1-6.2,1.2l-2-3.5c0.5,0,1.1-0.1,1.6-0.1c0.7-0.1,1.6-0.2,2.5-0.4
				c0.9-0.2,1.9-0.4,2.9-0.7c1-0.3,1.9-0.7,2.9-1.1l-5.8-3.4l-0.8,0.3l-0.8,0.2c-1.5,0.5-2.8,0.9-4,1.1c-1.1,0.3-2.3,0.4-3.4,0.5
				c-1,0-2-0.1-3-0.3c-1-0.2-1.9-0.6-2.8-1.1c-1-0.5-1.8-1.2-2.4-2.1c-0.5-0.7-0.7-1.5-0.7-2.3c0.1-0.8,0.4-1.6,1-2.3
				c0.7-0.9,1.5-1.6,2.4-2.2L476,318l2-1.2l3.4,2c1.6-0.8,3.3-1.4,5-1.9c1.7-0.4,3.3-0.7,5-0.9L493.3,319.4z M483.3,325.6
				c0.8,0.4,1.7,0.6,2.5,0.5c1.2-0.1,2.4-0.4,3.5-0.8l-5.5-3.2C481.8,323.5,481.7,324.6,483.3,325.6z M502.6,327.2
				c-0.8-0.5-1.8-0.6-2.8-0.5c-1.3,0.2-2.6,0.5-3.8,0.8l5.5,3.1C503.8,329.3,504.1,328.1,502.6,327.2z"/>
			<path class="st2" d="M490.1,333.8c0.1-0.2,0-2,0-2l2.2,1.4l-1,1.5L490.1,333.8z"/>
			<polygon class="st2" points="509.6,335.1 509.6,333.1 504.8,333.5 507.6,335.4 			"/>
			<polygon class="st2" points="510,327.8 510,325.8 506.4,327.1 			"/>
			<path class="st2" d="M495,327.7l1.2-1.2l4.3,2.9l-0.3,0.9c0,0-3.2-1.3-3.3-1.4L495,327.7z"/>
			<path class="st2" d="M483.9,321.5l5.7,3.2l1.1-0.8c0,0-0.7-0.8-0.8-0.9c-0.5-0.6-1.1-1.1-1.8-1.5c-0.4-0.1-3.1-1.3-3.1-1.3
				L483.9,321.5z"/>
			<polygon class="st2" points="493.3,319.4 493.3,317.5 490.7,316.6 490.1,318.2 490.3,318.9 			"/>
			<polygon class="st2" points="476,318 476,316 479,316.3 478.1,318.3 			"/>
			<path class="st2" d="M476.1,324.7v-2.1h3.5l-0.8,1.8l-1.5,1.6L476.1,324.7z"/>
			<path class="st4" d="M493.3,317.5c-0.4,0-0.9,0-1.3,0.1c-0.6,0.1-1.3,0.2-2,0.4c-0.7,0.2-1.5,0.4-2.3,0.6
				c-0.8,0.2-1.5,0.5-2.3,0.9l5.9,3.4l1.1-0.4c1.5-0.5,2.9-0.9,4.2-1.3c1.2-0.3,2.5-0.5,3.8-0.6c1.2-0.1,2.3,0,3.5,0.2
				c1.2,0.3,2.3,0.7,3.3,1.3c1,0.5,1.9,1.3,2.5,2.2c0.4,0.7,0.6,1.5,0.4,2.3c-0.2,0.9-0.7,1.6-1.4,2.3c-0.8,0.8-1.7,1.5-2.7,2.1
				l3.7,2.2l-2,1.2l-3.8-2.2c-1.8,0.9-3.7,1.6-5.6,2.1c-2,0.6-4.1,0.9-6.2,1.2l-2-3.5c0.4,0,0.9,0,1.6-0.1s1.6-0.2,2.5-0.4
				c0.9-0.2,1.9-0.4,2.9-0.7c1-0.3,1.9-0.7,2.9-1.1l-5.9-3.3l-0.8,0.3l-0.8,0.3c-1.5,0.5-2.8,0.9-4,1.1c-1.1,0.3-2.3,0.4-3.4,0.5
				c-1,0-2-0.1-3-0.3c-1-0.2-1.9-0.6-2.8-1.1c-1-0.5-1.8-1.2-2.4-2.1c-0.5-0.7-0.7-1.5-0.7-2.3c0.1-0.8,0.4-1.6,1-2.3
				c0.7-0.9,1.5-1.6,2.4-2.2l-3.5-2l2-1.2l3.4,2c1.6-0.8,3.3-1.4,5-1.9c1.7-0.4,3.3-0.7,5-0.9L493.3,317.5z M483.3,323.6
				c0.8,0.4,1.7,0.6,2.5,0.5c1.2-0.1,2.4-0.4,3.5-0.8l-5.5-3.2C481.8,321.5,481.7,322.6,483.3,323.6z M502.6,325.2
				c-0.8-0.5-1.8-0.6-2.8-0.5c-1.3,0.2-2.6,0.5-3.8,0.8l5.5,3.1C503.8,327.3,504.1,326.1,502.6,325.2z"/>
		</g>
		<g id="Coin-21">
			<ellipse class="st0" cx="493.8" cy="321.5" rx="51" ry="29.4"/>
			<polygon class="st0" points="442.8,322 442.8,308.5 452.9,317.5 			"/>
			<polygon class="st0" points="544.8,308.9 544.8,321.5 539.6,327 537.1,312.5 			"/>
			<ellipse class="st1" cx="493.8" cy="308.9" rx="51" ry="29.4"/>
			<path class="st2" d="M530.2,309.8c-0.5,5-4.1,9.9-10.6,13.6c-14.3,8.2-37.4,8.2-51.6,0c-6.6-3.8-10.1-8.7-10.6-13.6
				c-0.6-5.8,2.9-11.7,10.6-16.2c14.3-8.2,37.4-8.2,51.6,0C527.3,298.1,530.8,304,530.2,309.8z"/>
			<path class="st3" d="M530.2,309.8c-0.5,5-4.1,9.9-10.6,13.6c-14.3,8.2-37.4,8.2-51.6,0c-6.6-3.8-10.1-8.7-10.6-13.6
				c0.5-5,4-9.9,10.6-13.6c14.3-8.2,37.4-8.2,51.6,0C526.2,300,529.7,304.9,530.2,309.8z"/>
			<path class="st2" d="M493.3,302.9c-0.4,0-0.9,0-1.3,0.1c-0.6,0.1-1.3,0.2-2,0.4c-0.7,0.2-1.5,0.4-2.3,0.6
				c-0.8,0.2-1.5,0.5-2.3,0.9l5.9,3.4l1.1-0.4c1.5-0.5,2.9-0.9,4.2-1.3c1.2-0.3,2.5-0.5,3.8-0.6c1.2-0.1,2.3,0,3.5,0.2
				c1.2,0.3,2.3,0.7,3.3,1.3c1,0.5,1.9,1.3,2.5,2.2c0.4,0.7,0.6,1.5,0.4,2.3c-0.2,0.9-0.7,1.6-1.4,2.3c-0.8,0.8-1.7,1.5-2.7,2.1
				l3.7,2.2l-2,1.2l-3.8-2.2c-1.8,0.9-3.7,1.6-5.6,2.1c-2,0.6-4.1,1-6.2,1.2l-2-3.5c0.5,0,1.1-0.1,1.6-0.1c0.7-0.1,1.6-0.2,2.5-0.4
				c0.9-0.2,1.9-0.4,2.9-0.7c1-0.3,1.9-0.7,2.9-1.1l-5.8-3.4l-0.8,0.3l-0.8,0.2c-1.5,0.5-2.8,0.9-4,1.1c-1.1,0.3-2.3,0.4-3.4,0.5
				c-1,0-2-0.1-3-0.3c-1-0.2-1.9-0.6-2.8-1.1c-1-0.5-1.8-1.2-2.4-2.1c-0.5-0.7-0.7-1.5-0.7-2.3c0.1-0.8,0.4-1.6,1-2.3
				c0.7-0.9,1.5-1.6,2.4-2.2l-3.5-2l2-1.2l3.4,2c1.6-0.8,3.3-1.4,5-1.9c1.7-0.4,3.3-0.7,5-0.9L493.3,302.9z M483.3,309.1
				c0.8,0.4,1.7,0.6,2.5,0.5c1.2-0.1,2.4-0.4,3.5-0.8l-5.5-3.2C481.8,307,481.7,308.1,483.3,309.1z M502.6,310.7
				c-0.8-0.5-1.8-0.6-2.8-0.5c-1.3,0.2-2.6,0.5-3.8,0.8l5.5,3.1C503.8,312.7,504.1,311.6,502.6,310.7z"/>
			<path class="st2" d="M490.1,317.3c0.1-0.2,0-2,0-2l2.2,1.4l-1,1.5L490.1,317.3z"/>
			<polygon class="st2" points="509.6,318.5 509.6,316.6 504.8,316.9 507.6,318.8 			"/>
			<polygon class="st2" points="510,311.3 510,309.3 506.4,310.6 			"/>
			<path class="st2" d="M495,311.2l1.2-1.2l4.3,2.9l-0.3,0.9c0,0-3.2-1.3-3.3-1.4L495,311.2z"/>
			<path class="st2" d="M483.9,305l5.7,3.2l1.1-0.8c0,0-0.7-0.8-0.8-0.9c-0.5-0.6-1.1-1.1-1.8-1.5c-0.4-0.1-3.1-1.3-3.1-1.3
				L483.9,305z"/>
			<polygon class="st2" points="493.3,302.9 493.3,300.9 490.7,300.1 490.1,301.6 490.3,302.4 			"/>
			<polygon class="st2" points="476,301.5 476,299.5 479,299.8 478.1,301.7 			"/>
			<path class="st2" d="M476.1,308.2v-2.1h3.5l-0.8,1.8l-1.5,1.6L476.1,308.2z"/>
			<path class="st4" d="M493.3,300.9c-0.4,0-0.9,0-1.3,0.1c-0.6,0.1-1.3,0.2-2,0.4c-0.7,0.2-1.5,0.4-2.3,0.6
				c-0.8,0.2-1.5,0.5-2.3,0.9l5.9,3.4l1.1-0.4c1.5-0.5,2.9-0.9,4.2-1.3c1.2-0.3,2.5-0.5,3.8-0.6c1.2-0.1,2.3,0,3.5,0.2
				c1.2,0.3,2.3,0.7,3.3,1.3c1,0.5,1.9,1.3,2.5,2.2c0.4,0.7,0.6,1.5,0.4,2.3c-0.2,0.9-0.7,1.6-1.4,2.3c-0.8,0.8-1.7,1.5-2.7,2.1
				l3.7,2.2l-2,1.2l-3.8-2.2c-1.8,0.9-3.7,1.6-5.6,2.1c-2,0.6-4.1,0.9-6.2,1.2l-2-3.5c0.4,0,0.9,0,1.6-0.1s1.6-0.2,2.5-0.4
				c0.9-0.2,1.9-0.4,2.9-0.7c1-0.3,1.9-0.7,2.9-1.1l-5.8-3.4l-0.8,0.3l-0.8,0.3c-1.5,0.5-2.8,0.9-4,1.1c-1.1,0.3-2.3,0.4-3.4,0.5
				c-1,0-2-0.1-3-0.3c-1-0.2-1.9-0.6-2.8-1.1c-1-0.5-1.8-1.2-2.4-2.1c-0.5-0.7-0.7-1.5-0.7-2.3c0.1-0.8,0.4-1.6,1-2.3
				c0.7-0.9,1.5-1.6,2.4-2.2l-3.5-1.9l2-1.2l3.4,2c1.6-0.8,3.3-1.4,5-1.9c1.7-0.4,3.3-0.7,5-0.9L493.3,300.9z M483.3,307
				c0.8,0.4,1.7,0.6,2.5,0.5c1.2-0.1,2.4-0.4,3.5-0.8l-5.5-3.2C481.8,305,481.7,306.1,483.3,307L483.3,307z M502.6,308.6
				c-0.8-0.5-1.8-0.6-2.8-0.5c-1.3,0.2-2.6,0.4-3.8,0.8l5.5,3.2C503.8,310.8,504.1,309.6,502.6,308.6L502.6,308.6z"/>
		</g>
		<g id="Girl_12">
			<path id="_Контур_" class="st6" d="M103,151.6c2.2-3.5,19-5.9,24.6,8.4c2.1,5.4,1.8,19.2,3.5,27.9
				c1.7,8.7,5.9,13.6,7.4,20.7c1.5,7-0.9,18.9-17.9,21c-17,2.1-30.1-3.9-34.1-9.3c-4-5.4-4.1-16.9,0-23.1c4.1-6.2,7.3-11.2,7.2-19.3
				L103,151.6z"/>
			<path id="_Контур_2" class="st6" d="M114.1,149.1c0,0-12.8-3.6-20.5,3.2c-5.1,4.8-7.2,12.1-5.3,18.9c1,4,3.1,9.5,6.3,9.8
				C97.8,181.3,114.1,149.1,114.1,149.1z"/>
			<path id="_Контур_3" class="st7" d="M119,183.7c0,0-0.8,14.1-0.6,15.2c0.3,1.1,5.5,2.1,7,3.3c1.5,1.2-7.7,15.6-12.4,17.7
				c-4.7,2.1-19.1-3.3-20.1-10.5c-0.9-6.6,4.1-11.7,6.1-13.5c1.3-0.1,2.7-0.1,4,0l0.4-6.9C109.8,186.8,119,183.7,119,183.7z"/>
			<path id="_Контур_4" class="st7" d="M77.4,259.1c-4,5.5-8.7,10.4-14.1,14.6c-1.7,1.8-3.3,3.6-4.8,5.6
				c-2.5,2.9-5.8,5.1-9.5,6.3c-3.2,0.8-4.5,0.6-5.1,0c-0.6-0.6-0.3-1.5,1.1-2.1c2.3-0.7,4.4-1.8,6.2-3.3c0,0-3,1.4-4.8,2
				c-1.7,0.6-3.4,0.9-5.1,1c-1.8,0-3.6-2.1-2.2-2.6c1.4-0.5,2.7-0.6,5.4-1.7c1.5-0.5,2.8-1.2,4.1-2.1c-1.9,0.6-3.8,1-5.8,1.2
				c-1.6,0.3-3.3,0.1-4.9-0.6c-0.8-0.4-1.5-1.8,0.3-2.3c2.4-0.2,4.8-0.8,7-1.6c2.2-1,3.5-2,3-2.2c-0.5-0.2-1.7,0.5-3.9,0.3
				c-2.2-0.2-4.2-1.5-4.2-2.7c0-1.2,0.5-0.5,2.6-0.7c2.3-0.5,4.5-0.9,6.8-1.2c2.3,0.1,4.5-0.2,6.7-0.8c2.3-0.7,7.5-6.9,11.4-12.6
				c4.4-6.3,7.8-13.2,10.3-20.5c2.4-7.8,5.1-22.5,7.2-27.6c2.1-5.1,5.5-7.4,8.8-7.5c3.9,0,5.6,5.1,4.5,9.4
				C96.7,215.3,88,245.2,77.4,259.1z"/>
			<path id="_Контур_5" class="st8" d="M120.9,200.2c4,0.6,8.5,2.7,9.1,4.9c1.6,7.8,1.3,15.9-1.1,23.6
				c-3.4,9.1-7.3,25.6-9.3,29.4c-10.2,1.4-20.7-0.6-29.6-5.8c0,0-0.8-15.8-0.9-21c-12.8-11.1-1.9-24.9,9-35.6c1.3-0.1,2.6-0.1,3.9,0
				c0,0-9.7,11.4-2.9,17.9C113.5,209.3,116.3,202.8,120.9,200.2z"/>
			<path id="_Контур_6" class="st7" d="M92.6,166.2L92.6,166.2c1.4-9.1,8-15.9,17.4-15.4c9.9,0.5,17.6,8.8,17.1,18.7
				c-0.3,5.7-3.3,11-8.1,14.2c-0.3,1.4-0.8,2.7-1.4,4c-3.3,3.8-12.1,6.3-15,6.4c-2.6,0-4.7-2.3-7-6.2
				C90.6,179.7,91.8,170.7,92.6,166.2z"/>
			<path class="st6" d="M112.8,150.9c6.6,1.3,12,3.2,13.8,9.6c1.2,4.5,2.8,12.8,1.3,16.5l-0.9,2.6l-8,4.1c0,0-3.7-3.1-2.6-12.2
				c-0.1-1.2-0.5-2.4-1.1-3.4c-0.5-0.9-0.9-1.8-1.1-2.7c-0.9-2.4-2.8-4.4-5.1-5.6c-5.9-3.3-14.6-0.5-15.8,0.7
				C96.7,153.1,104.9,149.1,112.8,150.9z"/>
			<path class="st6" d="M76.7,368.3c-3.3,2.7-8.5,0.8-8.7,1.1c-3.9,3.4-7.9,6.5-12.2,9.4c-2.1,1.6-5.3,3.8-4.7,6.9
				c1,5.6,10,3.9,13.4,2.2c3.4-1.7,6.2-4.5,9.4-6.5c2.3-1.4,4.5-2.2,4.9-5.1C78.9,374.5,77.2,368.2,76.7,368.3z"/>
			<path class="st9" d="M78.6,375c-0.4,2.8-2.6,3.5-4.9,4.9c-3.3,2-6.1,4.9-9.5,6.6c-3.4,1.7-10.9,3.2-13.1-0.8
				c1.2,5.4,10,3.7,13.3,2c3.3-1.7,6.2-4.5,9.4-6.5c2.3-1.4,4.5-2.2,4.9-5.1C78.7,375.8,78.7,375.4,78.6,375z"/>
			<path class="st6" d="M60.5,359.2c-3,2.6-7.7,1.1-7.9,1.3c-3.6,3-7.3,5.9-11.1,8.5c-1.9,1.5-4.9,3.5-4.3,6.4c1,5.1,9.2,3.5,12.3,2
				c3.1-1.6,5.6-4.2,8.6-6c2.1-1.3,4.2-2,4.5-4.6C62.4,364.1,61.7,361.5,60.5,359.2z"/>
			<path class="st9" d="M62.4,365.7c-0.4,2.6-2.6,3.2-4.5,4.5c-3,1.8-5.6,4.5-8.7,6.1c-3.1,1.6-10,2.9-12-0.8
				c1.1,4.9,9.1,3.4,12.2,1.8c3.1-1.6,5.6-4.2,8.6-6c2.1-1.3,4.2-2,4.5-4.6C62.5,366.4,62.5,366,62.4,365.7z"/>
			<path class="st7" d="M106.5,261.7c-9,1.2-18.2-0.1-26.5-3.8c0,2.8,0.3,5.3,0.3,5.3c-10.8,7.7-32.4,20.5-33.8,29.3
				c1.4,28,5.7,67.9,6.9,68.5c3.4,1.6,5.7,1.4,7.3-0.3c0,0,6.8-23.7,4.8-58.4c0,0,37.7-16.7,40.2-25.8c1.1-3.7,1.4-7.6,1-11.4
				C106.7,263.9,106.6,262.8,106.5,261.7z"/>
			<path class="st7" d="M119,258c-7.1,3.2-15.1,4.3-22.8,3c0,3.7,0.5,10.8,0.5,10.8c-10.8,7.7-32.4,20.5-33.8,29.3
				c1.4,28,4,68.5,5.1,69c3,1.3,6.4,0.9,9-1.1c0,0,6.8-23.4,4.8-58.1c0-0.7,32.3-16.6,36.4-20.8s4.9-10.5,4.8-16.4
				C122.8,268.3,121.4,262.9,119,258z"/>
			<path class="st9" d="M126.9,263.9c0,0,11.9,21.2-8,32.1c-21,11.5-33.8,14.2-33.8,14.2l-3.2,0.7c1,7.3,1,14.7,0,22
				c0,0-15,5.1-34.1-11.6l-6.4-20.5l-0.7-5.3c-0.7-3.7,0.5-7.6,3.2-10.3c4.6-4.2,19.1-14.8,28.2-20.9s16.3-11.9,16.3-11.9l1.6-1.5
				c0,0,10.7,8.5,30.3,5.7C122.9,258.7,125.1,261.2,126.9,263.9z"/>
			<path id="_Контур_7" class="st7" d="M115.1,295.4c1.8-1.7,3.8-3.2,5.8-4.6c2.1-1.1,4.1-2.5,5.8-4.2c1.8-1.8,4.5-9.5,6-17
				c1.3-8.4,1.1-16.9-0.4-25.3c-2.5-10-5.8-19.7-10-29.1c-2.6-5.6-1.2-9,1.3-11.5c2.8-2.9,5.8-2.8,9.2,5c4.8,11,8.3,22.4,10.6,34.2
				c1.4,8.5,1.2,17.3-0.4,25.8c-1.4,7.5-3.7,14.7-6.8,21.6c-0.9,2-1,3.7-2.2,7.7c-1.2,4.1-3.3,7.8-6.2,10.8
				c-2.6,2.4-3.9,2.9-4.6,2.6c-0.7-0.3-0.8-1.3,0.2-2.6c1.8-1.8,3.3-4,4.4-6.4c0,0-2.3,3-3.7,4.5c-1.3,1.4-2.8,2.6-4.4,3.6
				c-1.6,0.9-4-0.2-3-1.5s2.2-2,4.3-4.3c1.1-1.2,2.1-2.6,2.9-4.1c-1.5,1.5-3.1,2.9-4.8,4.1c-1.3,1.1-3,1.7-4.7,1.9
				c-0.9,0-2.1-1-0.6-2.4c2.1-1.5,4.1-3.2,5.8-5.1c1.6-2.1,2.4-3.7,1.9-3.7c-0.5,0-1.4,1.3-3.4,2.2s-4.4,0.6-4.8-0.5
				C112.6,296.1,113.2,296.6,115.1,295.4z"/>
			<path class="st10" d="M137.9,219.3c0,0-7.3,6.4-15.4,5.1l-3.1-13.5c0,0-2.1-7.1,3.9-9.8C129.4,198.5,135.3,205.6,137.9,219.3z"/>
			<path class="st10" d="M98.1,195.8c0,0-7.8-2.4-16.2,15l3.1,1.9C88.9,206.7,93.3,201,98.1,195.8z"/>
			<g id="_Группа_">
				<g id="_Группа_2">
					<path id="_Контур_8" class="st8" d="M44,270.7l27.9-16.1c0.5-0.3,1.1-0.3,1.6,0l49,28.3l-28.7,16.6L44,270.7z"/>
					<path class="st11" d="M94.6,293.1l2.2,1.2c0.2,0,0,0.3,0,0.4l-2.1,1.2c-0.2,0.1-0.5,0.1-0.7,0l-2.1-1.2c-0.2,0-0.2-0.3,0-0.4
						l2.1-1.2C94.1,293,94.4,293,94.6,293.1z"/>
					<path class="st11" d="M91.5,291.4l2.1,1.2c0.2,0,0.2,0.3,0,0.4l-2.1,1.2c-0.2,0.1-0.5,0.1-0.7,0l-2.1-1.3c-0.2,0-0.2-0.3,0-0.4
						l2.1-1.2C91,291.2,91.3,291.2,91.5,291.4z"/>
					<path class="st11" d="M88.4,289.6l2.1,1.2c0.2,0,0.2,0.3,0,0.4l-2,1.2c-0.2,0.1-0.5,0.1-0.7,0l-2.1-1.3c-0.2,0-0.2-0.3,0-0.4
						l2-1.2C88,289.5,88.2,289.5,88.4,289.6z"/>
					<path class="st11" d="M85.4,287.9l2.1,1.2c0.2,0,0.2,0.3,0,0.4l-2,1.2c-0.2,0.1-0.5,0.1-0.7,0l-2.1-1.2c-0.2,0-0.2-0.3,0-0.4
						l2-1.2C85,287.8,85.2,287.8,85.4,287.9z"/>
					<path class="st11" d="M82.4,286.1l2.1,1.2c0.2,0,0.2,0.3,0,0.4l-2,1.2c-0.2,0.1-0.5,0.1-0.7,0l-2.1-1.2c-0.2,0-0.2-0.3,0-0.4
						l2-1.2C81.9,286,82.2,286,82.4,286.1z"/>
					<path class="st11" d="M79.4,284.4l2.1,1.3c0.2,0,0.2,0.3,0,0.4l-2,1.2c-0.2,0.1-0.5,0.1-0.7,0l-2.1-1.2c-0.2,0-0.2-0.3,0-0.4
						l2-1.2C78.9,284.3,79.2,284.3,79.4,284.4z"/>
					<path class="st11" d="M76.4,282.6l2.1,1.2c0.2,0,0.2,0.3,0,0.4l-2,1.2c-0.2,0.1-0.5,0.1-0.7,0l-2.1-1.2c-0.2,0-0.2-0.3,0-0.4
						l2-1.2C75.9,282.5,76.1,282.5,76.4,282.6z"/>
					<path class="st11" d="M73.3,280.9l2.1,1.2c0.2,0,0.2,0.3,0,0.4l-2,1.2c-0.2,0.1-0.5,0.1-0.7,0l-2.1-1.3c-0.2,0-0.2-0.3,0-0.4
						l2-1.2C72.9,280.8,73.1,280.8,73.3,280.9z"/>
					<path class="st11" d="M70.3,279.1l2.1,1.2c0.2,0,0.2,0.3,0,0.4l-2,1.2c-0.2,0.1-0.5,0.1-0.7,0l-2.1-1.2c-0.2,0-0.2-0.3,0-0.4
						l2.1-1.2C69.8,279,70.1,279,70.3,279.1z"/>
					<path class="st11" d="M67.3,277.4l2.1,1.2c0.2,0,0.2,0.3,0,0.4l-2.1,1.2c-0.2,0.1-0.5,0.1-0.7,0l-2.1-1.2c-0.2,0-0.2-0.3,0-0.4
						l2.1-1.2C66.8,277.3,67.1,277.3,67.3,277.4z"/>
					<path class="st11" d="M64.2,275.7l2.2,1.2c0.2,0,0.2,0.3,0,0.4l-2.1,1.2c-0.2,0.1-0.5,0.1-0.7,0l-2.2-1.2c-0.2,0,0-0.3,0-0.4
						l2.1-1.2C63.8,275.5,64,275.5,64.2,275.7z"/>
					<path class="st11" d="M61.3,273.9l2.2,1.3c0.2,0,0.2,0.3,0,0.4l-2.1,1.2c-0.2,0.1-0.5,0.1-0.7,0l-2.2-1.2c-0.2,0-0.2-0.3,0-0.4
						l2.1-1.2C60.8,273.8,61.1,273.8,61.3,273.9z"/>
					<path class="st11" d="M58.2,272.1l2.2,1.2c0.2,0,0.2,0.3,0,0.4l-2.1,1.2c-0.2,0.1-0.5,0.1-0.7,0l-2.2-1.2c-0.2,0-0.2-0.3,0-0.4
						l2.1-1.2C57.7,272,58,272,58.2,272.1z"/>
					<path class="st11" d="M53.6,269.6l3.6,2.1c0.2,0,0.2,0.3,0,0.4l-2.1,1.2c-0.2,0.1-0.5,0.1-0.7,0l-3.5-2.1c-0.2,0-0.2-0.3,0-0.4
						l2.1-1.2C53.3,269.5,53.4,269.5,53.6,269.6z"/>
					<path class="st11" d="M92.9,288.8l2.2,1.2c0.2,0,0.2,0.3,0,0.4l-2.1,1.2c-0.2,0.1-0.5,0.1-0.7,0l-2.2-1.3c-0.2,0-0.2-0.3,0-0.4
						l2.1-1.2C92.5,288.7,92.7,288.7,92.9,288.8z"/>
					<path class="st11" d="M89.9,287.1l2.2,1.2c0.2,0,0.2,0.3,0,0.4l-2.1,1.2c-0.2,0.1-0.5,0.1-0.7,0l-2.2-1.2c-0.2,0-0.2-0.3,0-0.4
						l2.1-1.2C89.5,287,89.7,287,89.9,287.1z"/>
					<path class="st11" d="M86.9,285.3l2.1,1.3c0.2,0,0.2,0.3,0,0.4l-2,1.2c-0.2,0.1-0.5,0.1-0.7,0l-2.1-1.2c-0.2,0-0.2-0.3,0-0.4
						l2-1.2C86.4,285.2,86.7,285.2,86.9,285.3z"/>
					<path class="st11" d="M83.9,283.6l2.1,1.2c0.2,0,0.2,0.3,0,0.4l-2,1.2c-0.2,0.1-0.5,0.1-0.7,0l-2.1-1.2c-0.2,0-0.2-0.3,0-0.4
						l2.1-1.2C83.4,283.5,83.7,283.5,83.9,283.6z"/>
					<path class="st11" d="M80.8,281.8l2.2,1.3c0.2,0,0.2,0.3,0,0.4l-2.1,1.2c-0.2,0.1-0.5,0.1-0.7,0l-2.2-1.2c-0.2,0-0.2-0.3,0-0.4
						l2.1-1.2C80.4,281.7,80.6,281.7,80.8,281.8z"/>
					<path class="st11" d="M77.8,280.1l2.1,1.2c0.2,0,0.2,0.3,0,0.4l-2.1,1.2c-0.2,0.1-0.5,0.1-0.7,0l-2.1-1.2c-0.2,0-0.2-0.3,0-0.4
						l2-1.2C77.3,280,77.6,280,77.8,280.1z"/>
					<path class="st11" d="M74.8,278.3l2.1,1.2c0.2,0,0.2,0.3,0,0.4l-2,1.2c-0.2,0.1-0.5,0.1-0.7,0l-2.1-1.2c-0.2,0-0.2-0.3,0-0.4
						l2-1.2C74.3,278.2,74.6,278.2,74.8,278.3z"/>
					<path class="st11" d="M71.8,276.6l2.1,1.2c0.2,0,0.2,0.3,0,0.4l-2.1,1.2c-0.2,0.1-0.5,0.1-0.7,0l-2.2-1.2c-0.2,0,0-0.3,0-0.4
						l2.1-1.2C71.3,276.5,71.5,276.5,71.8,276.6z"/>
					<path class="st11" d="M68.7,274.8l2.2,1.2c0.2,0,0.2,0.3,0,0.4l-2.1,1.2c-0.2,0.1-0.5,0.1-0.7,0l-2.2-1.2c-0.2,0-0.2-0.3,0-0.4
						l2.1-1.2C68.3,274.7,68.5,274.7,68.7,274.8z"/>
					<path class="st11" d="M65.7,273.1l2.1,1.2c0.2,0,0.2,0.3,0,0.4l-2,1.2c-0.2,0.1-0.5,0.1-0.7,0l-2.1-1.3c-0.2,0-0.2-0.3,0-0.4
						l2-1.2C65.2,273,65.5,273,65.7,273.1z"/>
					<path class="st11" d="M62.7,271.3l2.1,1.2c0.2,0,0.2,0.3,0,0.4l-2,1.2c-0.2,0.1-0.5,0.1-0.7,0l-2.1-1.2c-0.2,0-0.2-0.3,0-0.4
						l2-1.2C62.2,271.2,62.5,271.2,62.7,271.3z"/>
					<path class="st11" d="M59.6,269.6l2.2,1.3c0.2,0,0.2,0.3,0,0.4l-2.1,1.2c-0.2,0.1-0.5,0.1-0.7,0l-2.2-1.2c-0.2,0-0.2-0.3,0-0.4
						l2.1-1.2C59.2,269.5,59.4,269.5,59.6,269.6z"/>
					<path class="st11" d="M96,290.6l3.6,2.1c0.2,0,0.2,0.3,0,0.4l-2.1,1.2c-0.2,0.1-0.5,0.1-0.7,0l-3.6-2.1c-0.2,0-0.2-0.3,0-0.4
						l2-1.2C95.5,290.5,95.8,290.5,96,290.6z"/>
					<path class="st11" d="M53.9,269.4l2.2,1.2c0.2,0.1,0.4,0.1,0.6,0l2.2-1.3c0.2,0,0.2-0.3,0-0.4h-0.2c-0.2,0-0.2-0.2,0-0.3
						l2.3-1.3c0.1,0,0.2-0.2,0.1-0.3c0-0.1-0.1-0.1-0.1-0.1l-1.4-0.8c-0.2-0.1-0.4-0.1-0.6,0l-2.1,1.2l-0.4,0.3l-0.3,0.2l-0.3,0.2
						l-1.8,1.1C53.6,269.2,53.6,269.3,53.9,269.4z"/>
					<path class="st11" d="M106.2,286.3l2.2,1.2c0.2,0,0.2,0.3,0,0.4l-2.1,1.2c-0.2,0.1-0.5,0.1-0.7,0l-2.2-1.2
						c-0.2,0-0.2-0.3,0-0.4l2.1-1.2C105.8,286.2,106,286.2,106.2,286.3z"/>
					<path class="st11" d="M103.2,284.6l2.1,1.2c0.2,0,0.2,0.3,0,0.4l-2,1.2c-0.2,0.1-0.5,0.1-0.7,0l-2.1-1.2c-0.2,0-0.2-0.3,0-0.4
						l2-1.2C102.7,284.5,103,284.5,103.2,284.6z"/>
					<path class="st11" d="M100.2,282.9l2.1,1.2c0.2,0,0.2,0.3,0,0.4l-2,1.2c-0.2,0.1-0.5,0.1-0.7,0l-2.1-1.2c-0.2,0-0.2-0.3,0-0.4
						l2-1.2C99.7,282.7,100,282.7,100.2,282.9z"/>
					<path class="st11" d="M74.5,268l2.2,1.2c0.2,0,0.2,0.3,0,0.4l-2.1,1.2c-0.2,0.1-0.5,0.1-0.7,0l-2.2-1.2c-0.2,0-0.2-0.3,0-0.4
						l2.1-1.2C74,267.9,74.3,267.9,74.5,268z"/>
					<path class="st11" d="M71.5,266.3l2.1,1.2c0.2,0,0.2,0.3,0,0.4l-2,1.2c-0.2,0.1-0.5,0.1-0.7,0l-2.1-1.2c-0.2,0-0.2-0.3,0-0.4
						l2.1-1.2C71.1,266.2,71.3,266.2,71.5,266.3z"/>
					<path class="st11" d="M68.5,264.5l2.1,1.2c0.2,0,0.2,0.3,0,0.4l-2,1.2c-0.2,0.1-0.5,0.1-0.7,0l-2.1-1.2c-0.2,0-0.2-0.3,0-0.4
						l2-1.2C68,264.4,68.2,264.4,68.5,264.5z"/>
					<path class="st11" d="M65.4,262.8l2.2,1.2c0.2,0,0.2,0.3,0,0.4l-2.1,1.2c-0.2,0.1-0.5,0.1-0.7,0l-2.2-1.3c-0.2,0-0.2-0.3,0-0.4
						l2.1-1.2C65,262.7,65.2,262.7,65.4,262.8z"/>
					<path class="st11" d="M96.4,280.6l2.9,1.7c0.2,0,0.2,0.3,0,0.4l-2.2,1.2c-0.2,0.1-0.5,0.1-0.7,0l-2.9-1.7c-0.2,0-0.2-0.3,0-0.4
						l2-1.2C95.8,280.5,96.1,280.5,96.4,280.6z"/>
					<path class="st11" d="M77.5,269.8l2.9,1.7c0.2,0,0.2,0.3,0,0.4l-2.1,1.2c-0.2,0.1-0.5,0.1-0.7,0l-2.9-1.7c-0.2,0-0.2-0.3,0-0.4
						l2.1-1.2C77,269.6,77.3,269.6,77.5,269.8z"/>
					<path class="st11" d="M81.3,271.9l14.2,8.2c0.2,0,0,0.3,0,0.4l-2.1,1.2c-0.2,0.1-0.5,0.1-0.7,0l-14.3-8c-0.2,0-0.2-0.3,0-0.4
						l2.1-1.2C80.8,271.9,81,271.9,81.3,271.9z"/>
					<path class="st11" d="M95.1,286.6l2.1,1.3c0.2,0,0.2,0.3,0,0.4l-2,1.2c-0.2,0.1-0.5,0.1-0.7,0l-2.1-1.2c-0.2,0-0.2-0.3,0-0.4
						l2-1.2C94.6,286.5,94.8,286.5,95.1,286.6z"/>
					<path class="st11" d="M92,284.9l2.1,1.2c0.2,0,0.2,0.3,0,0.4l-2,1.2c-0.2,0.1-0.5,0.1-0.7,0l-2.1-1.2c-0.2,0-0.2-0.3,0-0.4
						l2-1.2C91.6,284.8,91.8,284.8,92,284.9z"/>
					<path class="st11" d="M89,283.2l2.1,1.2c0.2,0,0.2,0.3,0,0.4l-2,1.2c-0.2,0.1-0.5,0.1-0.7,0l-2.1-1.2c-0.2,0-0.2-0.3,0-0.4
						l2-1.2C88.5,283.1,88.8,283.1,89,283.2z"/>
					<path class="st11" d="M86,281.4l2.1,1.2c0.2,0,0.2,0.3,0,0.4l-2,1.2c-0.2,0.1-0.5,0.1-0.7,0l-2.1-1.2c-0.2,0-0.2-0.3,0-0.4
						l2-1.2C85.5,281.3,85.8,281.3,86,281.4z"/>
					<path class="st11" d="M83,279.7l2.1,1.2c0.2,0,0.2,0.3,0,0.4l-2,1.2c-0.2,0.1-0.5,0.1-0.7,0l-2.1-1.3c-0.2,0-0.2-0.3,0-0.4
						l2-1.2C82.5,279.6,82.7,279.6,83,279.7z"/>
					<path class="st11" d="M79.9,277.9l2.1,1.2c0.2,0,0.2,0.3,0,0.4l-2.1,1.2c-0.2,0.1-0.5,0.1-0.7,0l-2.1-1.3c-0.2,0-0.2-0.3,0-0.4
						l2.1-1.2C79.5,277.8,79.7,277.8,79.9,277.9z"/>
					<path class="st11" d="M76.9,276.2l2.2,1.2c0.2,0,0,0.3,0,0.4L77,279c-0.2,0.1-0.5,0.1-0.7,0l-2.3-1.3c-0.2,0-0.2-0.3,0-0.4
						l2.1-1.2C76.4,276.1,76.7,276.1,76.9,276.2z"/>
					<path class="st11" d="M73.9,274.4l2.2,1.2c0.2,0,0.2,0.3,0,0.4l-2.1,1.2c-0.2,0.1-0.5,0.1-0.7,0l-2.2-1.2c-0.2,0-0.2-0.3,0-0.4
						l2.1-1.2C73.4,274.3,73.7,274.3,73.9,274.4z"/>
					<path class="st11" d="M70.9,272.7l2.2,1.2c0.2,0,0.2,0.3,0,0.4l-2.1,1.2c-0.2,0.1-0.5,0.1-0.7,0l-2.2-1.2c-0.2,0-0.2-0.3,0-0.4
						l2.1-1.2C70.4,272.6,70.7,272.6,70.9,272.7z"/>
					<path class="st11" d="M67.8,271l2.2,1.2c0.2,0,0.2,0.3,0,0.4l-2.1,1.2c-0.2,0.1-0.5,0.1-0.7,0l-2.2-1.2c-0.2,0-0.2-0.3,0-0.4
						l2.1-1.2C67.4,270.8,67.6,270.8,67.8,271z"/>
					<path class="st11" d="M64.8,269.2l2.2,1.2c0.2,0,0.2,0.3,0,0.4l-2.1,1.2c-0.2,0.1-0.5,0.1-0.7,0l-2.2-1.2c-0.2,0-0.2-0.3,0-0.4
						l2.1-1.2C64.4,269.1,64.6,269.1,64.8,269.2z"/>
					<path class="st11" d="M61.8,267.4l2.2,1.3c0.2,0,0.2,0.3,0,0.4l-2.1,1.2c-0.2,0.1-0.5,0.1-0.7,0l-2.2-1.2c-0.2,0-0.1-0.3,0-0.4
						l2.1-1.2C61.3,267.4,61.6,267.4,61.8,267.4z"/>
					<path class="st11" d="M98.1,288.4l4.4,2.6c0.2,0,0.2,0.3,0,0.4l-2,1.2c-0.2,0.1-0.5,0.1-0.7,0l-4.4-2.6c-0.2,0-0.2-0.3,0-0.4
						l2-1.2C97.6,288.3,97.9,288.3,98.1,288.4z"/>
					<path class="st11" d="M99.5,285.8l2.1,1.2c0.2,0,0.2,0.3,0,0.4l-2,1.2c-0.2,0.1-0.5,0.1-0.7,0l-2.1-1.2c-0.2,0-0.2-0.3,0-0.4
						l2-1.2C99,285.7,99.3,285.7,99.5,285.8z"/>
					<path class="st11" d="M96.5,284.1l2.1,1.2c0.2,0,0.2,0.3,0,0.4l-2,1.2c-0.2,0.1-0.5,0.1-0.7,0l-2.1-1.3c-0.2,0-0.2-0.3,0-0.4
						l2-1.2C96,284,96.3,284,96.5,284.1z"/>
					<path class="st11" d="M93.4,282.3l2.1,1.2c0.2,0,0.2,0.3,0,0.4l-2,1.2c-0.2,0.1-0.5,0.1-0.7,0l-2.1-1.3c-0.2,0-0.2-0.3,0-0.4
						l2-1.2C93,282.2,93.2,282.2,93.4,282.3z"/>
					<path class="st11" d="M90.4,280.6l2.1,1.2c0.2,0,0.2,0.3,0,0.4l-2,1.2c-0.2,0.1-0.5,0.1-0.7,0l-2.1-1.2c-0.2,0-0.2-0.3,0-0.4
						l2-1.2C89.9,280.5,90.2,280.5,90.4,280.6z"/>
					<path class="st11" d="M87.4,278.8l2.1,1.2c0.2,0,0.2,0.3,0,0.4l-2.1,1.2c-0.2,0.1-0.5,0.1-0.7,0l-2.1-1.2c-0.2,0-0.2-0.3,0-0.4
						l2.1-1.2C86.9,278.7,87.2,278.7,87.4,278.8z"/>
					<path class="st11" d="M84.3,277.1l2.2,1.2c0.2,0,0.1,0.3,0,0.4l-2.1,1.2c-0.2,0.1-0.5,0.1-0.7,0l-2.2-1.2c-0.2,0-0.2-0.3,0-0.4
						l2.1-1.2C83.9,277,84.1,277,84.3,277.1z"/>
					<path class="st11" d="M81.4,275.4l2.2,1.2c0.2,0,0.2,0.3,0,0.4l-2.1,1.2c-0.2,0.1-0.5,0.1-0.7,0l-2.2-1.2c-0.2,0-0.2-0.3,0-0.4
						l2.1-1.2C80.9,275.3,81.1,275.3,81.4,275.4z"/>
					<path class="st11" d="M78.3,273.7l2.2,1.2c0.2,0,0.2,0.3,0,0.4l-2.1,1.2c-0.2,0.1-0.5,0.1-0.7,0l-2.2-1.2c-0.2,0-0.2-0.3,0-0.4
						l2.1-1.2C77.9,273.6,78.1,273.6,78.3,273.7z"/>
					<path class="st11" d="M75.3,271.9l2.2,1.2c0.2,0,0.2,0.3,0,0.4l-2.1,1.2c-0.2,0.1-0.5,0.1-0.7,0l-2.2-1.2c-0.2,0-0.2-0.3,0-0.4
						l2.1-1.2C74.8,271.8,75.1,271.8,75.3,271.9z"/>
					<path class="st11" d="M72.3,270.1l2.1,1.3c0.2,0,0.2,0.3,0,0.4l-2.1,1.2c-0.2,0.1-0.5,0.1-0.7,0l-2.2-1.2c-0.2,0,0-0.3,0-0.4
						l2.1-1.2C71.8,270,72.1,270,72.3,270.1z"/>
					<path class="st11" d="M69.3,268.4l2.1,1.3c0.2,0,0.2,0.3,0,0.4l-2,1.2c-0.2,0.1-0.5,0.1-0.7,0l-2.1-1.2c-0.2,0-0.2-0.3,0-0.4
						l2.1-1.2C68.8,268.3,69.1,268.3,69.3,268.4z"/>
					<path class="st11" d="M62.5,264.5l5.9,3.4c0.2,0,0.2,0.3,0,0.4l-2,1.2c-0.2,0.1-0.5,0.1-0.7,0l-5.9-3.5c-0.2,0-0.2-0.3,0-0.4
						l2-1.2C62,264.3,62.3,264.3,62.5,264.5z"/>
					<path class="st11" d="M102.5,287.6l2.9,1.7c0.2,0,0.2,0.3,0,0.4l-2,1.2c-0.2,0.1-0.5,0.1-0.7,0l-3-1.6c-0.2,0-0.2-0.3,0-0.4
						l2.1-1.2C102,287.5,102.3,287.5,102.5,287.6z"/>
					<path class="st11" d="M50.7,271.3l42.9,24.8c0.2,0,0.2,0.3,0,0.4l-1,0.6c-0.2,0.1-0.5,0.1-0.7,0L49,272.3c-0.2,0-0.2-0.3,0-0.4
						l1-0.6C50.2,271.2,50.5,271.2,50.7,271.3z"/>
					<polygon id="_Контур_9" class="st12" points="101.4,272.9 101.2,273.1 93.8,277.4 80.6,269.8 80.4,269.6 88,265.2 					
						"/>
					<polygon id="_Контур_10" class="st13" points="101.2,273.1 93.8,277.4 80.6,269.8 88,265.5 					"/>
					<path id="_Контур_11" class="st13" d="M122.5,282.9v0.6c0,1-0.5,1.9-1.3,2.3l-26.1,15c-0.4,0.2-0.9,0.4-1.3,0.4
						c-0.5,0-0.9-0.1-1.4-0.4l-47.1-27.2c-0.8-0.5-1.4-1.4-1.3-2.3v-0.6l49.8,28.8L122.5,282.9z"/>
					<path id="_Контур_12" class="st13" d="M93.8,299.5v1.8c-0.5,0-0.9-0.1-1.4-0.4l-47.1-27.2c-0.8-0.5-1.4-1.4-1.3-2.3v-0.6
						L93.8,299.5z"/>
					<path id="_Контур_13" class="st8" d="M93,299.9c-0.9,0.4-1.9,0.3-2.7-0.2l-46.9-27.1c-0.8-0.5-1.4-1.3-1.6-2.2l-5.1-30.6
						c0-0.2,0-0.3,0-0.5c0-0.9,0.3-1.7,0.9-2.3l48.7,28.2c0.6,0.4,1,1,1.2,1.6L93,299.9z"/>
					<path id="_Контур_14" class="st13" d="M93.8,299.5l-0.3,0.2c-0.1,0.1-0.3,0.2-0.4,0.2l-5.5-33.2
						c-0.1-0.7-0.5-1.3-1.2-1.6l-48.7-28.2c0.2-0.2,0.4-0.4,0.6-0.5l48.9,28.2c0.6,0.4,1,1,1.2,1.7L93.8,299.5z"/>
				</g>
			</g>
		</g>
		<g>
			<path class="st14" d="M458.6,132.3L191.4,10.9c-1.3-0.7-3-0.9-4.5-0.4l0,0c-0.1,0-0.2,0.1-0.3,0.1l-4.7,2.2l2.3,3.2v137.7
				c0,4.2,3.3,9.1,7.3,11L457,285.5l0.7,3.6l5.4-2.4c0.3-0.1,0.5-0.2,0.7-0.3l0,0c1.5-1.1,2.3-2.8,2.1-4.4V143.3
				C465.9,139.1,462.7,134.2,458.6,132.3z"/>
			<path class="st15" d="M453.4,288.6L186.2,167.2c-4-1.8-7.3-6.7-7.3-11V17.7c0-4.2,3.4-6.2,7.3-4.3l267.2,121.4
				c4,1.8,7.3,6.7,7.3,11v138.6C460.7,288.5,457.4,290.5,453.4,288.6z"/>
			<polygon class="st14" points="210.6,162.9 200.4,158.1 200.5,49.4 210.8,54.2 			"/>
			<polygon class="st16" points="210.6,162.9 200.4,158.2 200.5,136.6 210.7,141.3 			"/>
			<polygon class="st14" points="243,177.6 232.8,172.8 232.9,64.2 243.1,69 			"/>
			<polygon class="st16" points="243,177.7 232.8,173 232.9,155.3 243.1,160 			"/>
			<polygon class="st14" points="275.5,192.4 265.2,187.7 265.8,79.1 276,83.8 			"/>
			<polygon class="st16" points="275.5,192.4 265.2,187.7 265.5,143.5 275.7,148.2 			"/>
			<polygon class="st14" points="308.1,207.2 297.9,202.6 298.5,94 308.7,98.6 			"/>
			<polygon class="st16" points="308.1,207.2 297.9,202.5 298.1,165 308.3,169.7 			"/>
			<polygon class="st14" points="340.8,222.1 330.6,217.4 331.2,108.8 341.4,113.5 			"/>
			<polygon class="st16" points="340.8,222.1 330.6,217.4 330.9,160 341.1,164.7 			"/>
			<polygon class="st14" points="373.7,237.1 363.5,232.4 364,123.8 374.3,128.5 			"/>
			<polygon class="st16" points="373.7,237 363.5,232.3 363.9,157.7 374.1,162.4 			"/>
			<polygon class="st14" points="406.7,252.1 396.5,247.4 397,138.8 407.2,143.5 			"/>
			<polygon class="st16" points="406.7,252 396.5,247.3 396.9,154.2 407.1,158.9 			"/>
			<polygon class="st14" points="439.9,267.1 429.6,262.5 430.2,153.9 440.4,158.5 			"/>
			<polygon class="st16" points="439.9,267.1 429.6,262.4 430.1,167.9 440.3,172.6 			"/>
			<polygon class="st14" points="259.2,185 248.9,180.3 249.5,71.7 259.8,76.4 			"/>
			<polygon class="st16" points="259.2,185 249,180.3 249.2,144.1 259.4,148.8 			"/>
			<polygon class="st14" points="291.8,199.8 281.5,195.1 282.1,86.5 292.3,91.2 			"/>
			<polygon class="st16" points="291.8,199.8 281.5,195.1 281.8,144.3 292,149 			"/>
			<polygon class="st14" points="324.4,214.6 314.2,210 314.7,101.4 324.9,106 			"/>
			<polygon class="st16" points="324.4,214.6 314.2,209.9 314.5,143.3 324.7,148 			"/>
			<polygon class="st14" points="357.2,229.6 347,224.9 347.6,116.3 357.8,121 			"/>
			<polygon class="st16" points="357.2,229.5 347,224.8 347.3,158.2 357.6,162.9 			"/>
			<polygon class="st14" points="390.2,244.5 379.9,239.9 380.5,131.3 390.7,136 			"/>
			<polygon class="st16" points="390.2,244.5 379.9,239.8 380.4,157.3 390.6,162 			"/>
			<polygon class="st14" points="423.2,259.6 413,254.9 413.6,146.3 423.8,151 			"/>
			<polygon class="st16" points="423.3,259.5 413,254.8 413.5,156.4 423.8,161.1 			"/>
			<polygon class="st14" points="226.8,170.3 216.6,165.5 216.8,56.8 227,61.6 			"/>
			<polygon class="st16" points="226.8,170.3 216.6,165.6 216.7,138.6 227,143.3 			"/>
			
				<ellipse transform="matrix(0.7196 -0.6944 0.6944 0.7196 34.4009 142.3737)" class="st14" cx="193.5" cy="28.6" rx="3.3" ry="5.3"/>
			
				<ellipse transform="matrix(0.7196 -0.6944 0.6944 0.7196 33.9325 153.1714)" class="st14" cx="206.6" cy="34.6" rx="3.3" ry="5.3"/>
			
				<ellipse transform="matrix(0.7196 -0.6944 0.6944 0.7196 33.4819 163.9736)" class="st14" cx="219.8" cy="40.5" rx="3.3" ry="5.3"/>
		</g>
		<g id="Men_2">
			<path id="_Контур_15" class="st7" d="M200.7,203.9c-0.4,3.9-5,20.5-4.1,26.2c1,5.7,16.8,15.3,16.8,15.3l2.1-9.8l-8.7-8.5
				l2.4-16.2L200.7,203.9z"/>
			<path id="_Контур_16" class="st10" d="M212.9,187.5c-3.2-1.5-6.9-0.3-8.8,2.6c-2.3,3.8-4.7,17-4.9,19.2
				c1.9,2.6,4.9,4,8.1,3.7L212.9,187.5z"/>
			<path class="st17" d="M230.9,373.2c3.4,0.9,7.1,0.5,10.2-1.2c2.5,0,15.8-5.6,17.6-0.8c1.6,4.2-4.2,8.1-7.3,8.8
				c-6.7,1.6-11.7,5-14.4,5.6c-2.1,0.4-4.6,0.7-6.3-0.9C228.9,382.8,228.9,375.7,230.9,373.2z"/>
			<path class="st18" d="M237,384.4c2.7-0.6,7.7-3.9,14.4-5.6c2.6-0.6,7-3.5,7.5-6.8c0.6,3.9-4.6,7.3-7.5,8
				c-6.7,1.6-11.7,5-14.4,5.6c-2.1,0.4-4.6,0.7-6.3-0.9c-0.4-0.5-0.7-1-0.9-1.6C231.8,384.6,234.5,385.1,237,384.4z"/>
			<path class="st17" d="M209.3,363.5c3.4,0.9,7.1,0.5,10.2-1.2c2.5,0,15.8-5.6,17.6-0.8c1.6,4.2-4.2,8.1-7.3,8.8
				c-6.7,1.6-11.7,5-14.4,5.6c-2.1,0.4-4.6,0.7-6.3-0.9C207.2,373.1,207.4,366,209.3,363.5z"/>
			<path class="st18" d="M215.4,374.7c2.7-0.6,7.7-3.9,14.4-5.6c2.6-0.6,7-3.4,7.5-6.8c0.6,3.9-4.6,7.3-7.5,8
				c-6.7,1.6-11.7,5-14.4,5.6c-2.1,0.4-4.6,0.7-6.3-0.9c-0.4-0.5-0.7-1-0.9-1.6C210.2,374.9,212.9,375.4,215.4,374.7z"/>
			<path id="_Контур_17" class="st6" d="M209,327.3c0.6-4.9,1.6-9.8,3.1-14.6c0,0-0.9-12.6-1.4-24.5
				c-0.5-13.5-5.2-25.5-1.5-36.3l41.8,9.3c0,0-2.5,54-3.1,60.5c-0.3,5.1-0.9,10.2-1.9,15.2c-1.9,10.5-5,35.4-5,35.4
				c-3.2,1.5-6.8,1.9-10.2,1.1c0,0,0.3-31.5,0.6-39.1c0.3-9.2,0.6-8.5,0.6-8.5l-1.4-23l-0.9-11.3c0,0-1.2,8.4-1.9,15.9
				c-0.7,6.5-2.2,12.4-4,24.6c-1.5,10.5-4,31.7-4,31.7c-4.4,2.6-10.5,0.4-10.5,0.4S207.9,336.5,209,327.3z"/>
			<path id="_Контур_18" class="st7" d="M215.1,187.7c3.2,0.1,5.6,1,6,0c0.3-1.6,0.6-3.3,0.7-5c-0.4-0.9-0.7-1.9-0.7-1.9
				c-4-2.5-5.3-6.8-5.8-11.8c-0.9-8.6,3.7-16.1,12.3-17c8.1-0.8,14,4.8,15.6,12.6c0.8,3.8,2.5,11.1,0.3,17.5
				c-1.3,3.5-2.9,6.3-4.6,6.9c-1.6,0-3.2-0.2-4.8-0.4l0,0c0,0-0.4,2.4-0.7,3.9s-0.2,2.3,2.9,4.2c3,1.9-4.6,5.8-9.6,5.4
				c-5-0.4-10.6-3.4-12.2-6.6C212.8,191.9,212.9,187.6,215.1,187.7z"/>
			<path id="_Контур_19" class="st8" d="M219.7,188.2c-0.9,2.1,1.4,4.9,7.3,6.8c6,1.9,6.5-0.5,6.5-0.5c4,1.8,7.9,3.8,11.6,6
				c3.6,2.5,5.2,9.8,5.7,22c0.6,14.2,0.6,35.2,0.1,38.8c0,0-6.7,6.7-15.3,6c-8.6-0.7-23-8.3-26.5-14.2c0-12.4,1.6-14.4-0.5-21.6
				c-4.6-16.4-7-23.1-4.8-34c1.9-9,4.4-10.1,8-10C214.5,187.6,217.1,187.8,219.7,188.2z"/>
			<path id="_Контур_20" class="st7" d="M264.3,234.2c-7,1.8-8.7-2.7-9.6-6.3c-2.2-8.9-3.4-16.8-5.1-22c-2-6-4-6.9-6.9-8.1
				c-3.4-1.4-6.3,1.5-5.2,9.1c1.4,8.8,3.5,17.4,6.5,25.9c0.9,2.8,2.8,7.7,5.8,10.1c3.6,2.9,9.1,2.8,17.4,0.8c3.5-0.9,7.4-3,14.1-6.1
				c1.8-0.8,3.2-1.4,6.6-3c3.5-1.6,6.5-3.9,8.8-6.9c1.8-2.6,2.1-3.8,1.7-4.4c-0.4-0.6-1.3-0.6-2.2,0.5c-1.4,1.8-3.1,3.4-5.1,4.7
				c0,0,2.2-2.3,3.4-3.8c1.1-1.3,2-2.8,2.6-4.4c0.7-1.5-0.7-3.6-1.7-2.5c-1,1.1-1.5,2.2-3.3,4.4c-1,1.2-2,2.2-3.3,3.1
				c1.1-1.5,2.1-3.1,3-4.8c0.8-1.3,1.2-2.8,1.1-4.4c0-0.8-1.2-1.7-2.2-0.3c-1,2.1-2.3,4-3.8,5.8c-1.6,1.7-3,2.6-3,2.1
				c0-0.5,1-1.4,1.6-3.3s0-4-1.1-4.2s-0.9-0.1-1.7,1.7c-1.2,1.9-2.3,3.8-3.2,5.8c-0.5,1.9-1.5,3.6-2.9,5
				C274.9,230.4,271,232.5,264.3,234.2z"/>
			<path id="_Контур_21" class="st10" d="M240.1,196.5c4.7-0.7,8,1.4,10.1,8.6c2.1,7.1,3.5,13,3.5,13
				c-1.8,2.7-4.7,4.6-7.9,5.2c-5.6,1.4-7.6-1.3-7.6-1.3s-1.6-7.5-2.5-12.6C234.7,204.2,234.3,197.4,240.1,196.5z"/>
			<path class="st6" d="M243,163.6c0,0,7.4-11.3-8.7-13.6c-11.6-1.7-19.1,5.8-19.9,13.9c-0.8,7.7,3.9,15.7,7.4,18.9
				c3.4,0.9,7,0.4,10-1.2c0.2-2.1,0.3-4.2,0.2-6.3C232,175.3,226.4,163.3,243,163.6z"/>
		</g>
		<g id="Men_11">
			<path id="_Контур_22" class="st7" d="M532.2,270.7c3.5,6.1,7.7,11.8,12.5,17c1.4,1.6,11.6-2.3,9.6-3.5s-9-10.6-12.4-16.9
				c-2.9-7.5-5.3-15.2-7.3-23.1c-2.1-7.7-4-19.1-5.5-24.4c-0.8-4-3.9-7.2-7.9-8.1c-3.7-0.9-6.2,0.2-5.5,4.7
				C516.9,224.3,523.1,255.1,532.2,270.7z"/>
			<path d="M526.3,391.3c3.2,2.6,8,0.2,8.2,0.5c3.8,3.5,7.7,6.8,11.9,9.9c2,1.6,5.1,3.7,4.7,6.7c-1,5.4-9.7,3.8-13,2.1
				c-3.3-1.7-5.9-4.4-9-6.3c-2.2-1.4-4.4-2.1-4.7-4.9C524,397.6,525.8,391.3,526.3,391.3z"/>
			<path class="st18" d="M524.2,398.2c0.4,2.7,2.6,3.4,4.7,4.8c3.1,2,5.9,4.8,9.2,6.4c3.3,1.7,10.6,3.1,12.7-0.8
				c-1.1,5.2-9.7,3.6-12.9,2c-3.2-1.6-5.9-4.4-9-6.3c-2.2-1.4-4.4-2.1-4.7-4.9C524.1,398.9,524.1,398.5,524.2,398.2z"/>
			<path d="M558.9,372.5c3.2,2.6,8.9-0.2,9.1,0c3.3,3.4,6.9,6.6,10.6,9.6c2,1.6,5.1,3.7,4.7,6.7c-1,5.4-9.7,3.8-13,2.1
				c-3.3-1.7-5.9-4.4-9-6.3c-2.2-1.4-4.4-2.1-4.7-4.9C556.7,377.2,557.5,374.7,558.9,372.5z"/>
			<path class="st18" d="M556.5,379c0.4,2.7,2.6,3.4,4.7,4.8c3.1,2,5.9,4.8,9.2,6.4c3.3,1.7,10.6,3.1,12.7-0.8
				c-1.2,5.2-9.7,3.6-12.9,1.9c-3.2-1.7-5.9-4.4-9-6.3c-2.2-1.4-4.4-2.1-4.7-4.9C556.4,379.7,556.5,379.4,556.5,379z"/>
			<path id="_Контур_23" class="st9" d="M483.3,288.4c-3.6,22.3,6.3,30.6,19.2,35.3c9.3,3.4,22.5,8.6,22.5,8.6
				s-0.2,4.9-0.3,15.8c0,9.7,1.2,44.9,1.2,44.9c3.1,1.6,6.8,1.5,9.9-0.1c0,0,5.2-27,6.3-39.2c1.5-16.5,4-27.3,3.2-30.9
				c-0.7-3.1-18.8-12-24.5-16.8l37.8,12.5c-0.7,4.1-1.1,8.3-1.1,12.4c0.3,13.1,1.1,41.5,1.1,41.5s5.2,3.8,9.6,0
				c0,0,9.5-56.2,8.4-63.6c-1.1-7-34.4-21.5-40.3-26.5c-2.1-1.7-4.8-2.4-7.4-2L483.3,288.4z"/>
			<g id="_Группа_3">
				<g id="_Группа_4">
					<path id="_Контур_24" class="st8" d="M574,297.5l-25.4-14.7c-0.5-0.3-1-0.3-1.5,0l-44.6,25.7l26.2,15.1L574,297.5z"/>
					<path class="st11" d="M527.5,318.3l-1.9,1.1c-0.2,0-0.1,0.2,0,0.3l1.8,1.1c0.2,0.1,0.4,0.1,0.6,0l2-1.1c0.1,0,0.1-0.3,0-0.3
						l-1.9-1.1C527.9,318.2,527.7,318.2,527.5,318.3z"/>
					<path class="st11" d="M530.2,316.7l-2,1.1c-0.1,0-0.1,0.3,0,0.3l1.9,1.1c0.2,0.1,0.4,0.1,0.6,0l1.9-1.1c0.2,0,0.1-0.3,0-0.3
						l-1.8-1.1C530.7,316.6,530.4,316.6,530.2,316.7z"/>
					<path class="st11" d="M533,315.1l-1.9,1.1c-0.2,0-0.1,0.3,0,0.3l1.9,1.1c0.2,0.1,0.4,0.1,0.6,0l1.9-1.1c0.2,0,0.1-0.3,0-0.3
						l-1.9-1.1C533.4,315,533.2,315,533,315.1z"/>
					<path class="st11" d="M535.7,313.5l-1.9,1.1c-0.2,0-0.1,0.3,0,0.3l1.8,1.1c0.2,0.1,0.4,0.1,0.6,0l1.9-1.1c0.2,0,0.1-0.3,0-0.3
						l-1.8-1.1C536.1,313.4,535.9,313.4,535.7,313.5z"/>
					<path class="st11" d="M538.5,312l-1.9,1.1c-0.2,0-0.1,0.3,0,0.3l1.8,1.1c0.2,0.1,0.4,0.1,0.6,0l2-1.1c0.1,0,0.1-0.3,0-0.3
						l-1.9-1.1C538.9,311.9,538.7,311.9,538.5,312z"/>
					<path class="st11" d="M541.2,310.4l-2,1.1c-0.1,0,0,0.3,0,0.3l1.9,1.1c0.2,0.1,0.4,0.1,0.6,0l1.9-1.1c0.2,0,0.1-0.3,0-0.3
						l-1.8-1.1C541.6,310.3,541.4,310.3,541.2,310.4z"/>
					<path class="st11" d="M543.9,308.8l-1.9,1.1c-0.2,0-0.1,0.3,0,0.3l1.8,1.1c0.2,0.1,0.4,0.1,0.6,0l1.9-1.1c0.2,0,0.1-0.3,0-0.3
						l-1.8-1.1C544.4,308.7,544.1,308.7,543.9,308.8z"/>
					<path class="st11" d="M546.8,307.2l-1.9,1.1c-0.2,0-0.1,0.3,0,0.3l1.8,1.1c0.2,0.1,0.4,0.1,0.6,0l1.9-1.1c0.2,0,0.1-0.3,0-0.3
						l-1.8-1.1C547.2,307.1,547,307.1,546.8,307.2z"/>
					<path class="st11" d="M549.4,305.6l-1.9,1.1c-0.2,0-0.1,0.3,0,0.3l1.8,1.1c0.2,0.1,0.4,0.1,0.6,0l2-1.1c0.1,0,0.1-0.3,0-0.3
						l-1.9-1.1C549.9,305.5,549.6,305.5,549.4,305.6z"/>
					<path class="st11" d="M552.2,304l-2,1.1c-0.1,0-0.1,0.3,0,0.3l1.9,1.1c0.2,0.1,0.4,0.1,0.6,0l1.9-1.1c0.2,0,0.1-0.3,0-0.3
						l-1.9-1.1C552.6,303.9,552.4,303.9,552.2,304z"/>
					<path class="st11" d="M554.9,302.5l-1.9,1.1c-0.2,0-0.1,0.3,0,0.3l1.9,1.1c0.2,0.1,0.4,0.1,0.6,0l1.9-1.1c0.2,0,0.1-0.3,0-0.3
						l-1.8-1.1C555.3,302.4,555.1,302.4,554.9,302.5z"/>
					<path class="st11" d="M557.7,300.9l-1.9,1.1c-0.2,0-0.1,0.3,0,0.3l1.8,1.1c0.2,0.1,0.4,0.1,0.6,0l1.9-1.1c0.2,0,0.1-0.3,0-0.3
						l-1.8-1.1C558.1,300.8,557.9,300.8,557.7,300.9z"/>
					<path class="st11" d="M560.4,299.3l-1.9,1.1c-0.2,0-0.1,0.3,0,0.3l1.8,1.1c0.2,0.1,0.4,0.1,0.6,0l1.9-1.1c0.1,0,0.1-0.3,0-0.3
						l-1.9-1.1C560.8,299.2,560.6,299.2,560.4,299.3z"/>
					<path class="st11" d="M564.5,296.9l-3.2,1.9c-0.2,0-0.1,0.3,0,0.3l1.9,1.1c0.2,0.1,0.4,0.1,0.6,0l3.3-1.9c0.2,0,0.1-0.2,0-0.3
						l-1.8-1.1C564.9,296.8,564.7,296.8,564.5,296.9z"/>
					<path class="st11" d="M528.9,314.4l-1.9,1.1c-0.2,0-0.1,0.3,0,0.3l1.8,1.1c0.2,0.1,0.4,0.1,0.6,0l1.9-1.1c0.2,0,0.1-0.3,0-0.3
						l-1.8-1.1C529.3,314.3,529.1,314.3,528.9,314.4z"/>
					<path class="st11" d="M531.6,312.8l-1.9,1.1c-0.2,0-0.1,0.3,0,0.3l1.8,1.1c0.2,0.1,0.4,0.1,0.6,0l1.9-1.1c0.2,0,0.1-0.3,0-0.3
						l-1.8-1.1C532.1,312.7,531.8,312.7,531.6,312.8z"/>
					<path class="st11" d="M534.4,311.2l-1.9,1.1c-0.2,0-0.1,0.3,0,0.3l1.8,1.1c0.2,0.1,0.4,0.1,0.6,0l1.9-1.1c0.2,0,0.1-0.3,0-0.3
						l-1.8-1.1C534.8,311.1,534.6,311.1,534.4,311.2z"/>
					<path class="st11" d="M537.1,309.7l-1.9,1.1c-0.2,0-0.1,0.2,0,0.3l1.8,1.1c0.2,0.1,0.4,0.1,0.6,0l1.9-1.1c0.2,0,0.1-0.3,0-0.3
						l-1.8-1.1C537.6,309.6,537.3,309.6,537.1,309.7z"/>
					<path class="st11" d="M539.8,308.1l-1.9,1.1c-0.2,0-0.1,0.3,0,0.3l1.8,1.1c0.2,0.1,0.4,0.1,0.6,0l1.9-1.1c0.2,0,0.1-0.2,0-0.3
						l-1.8-1.1C540.2,308,540,308,539.8,308.1z"/>
					<path class="st11" d="M542.6,306.5l-1.9,1.1c-0.2,0-0.1,0.3,0,0.3l1.8,1.1c0.2,0.1,0.4,0.1,0.6,0l1.9-1.1c0.2,0,0.1-0.3,0-0.3
						l-1.8-1.1C543,306.4,542.8,306.4,542.6,306.5z"/>
					<path class="st11" d="M545.4,304.9l-1.9,1.1c-0.2,0-0.1,0.3,0,0.3l1.8,1.1c0.2,0.1,0.4,0.1,0.6,0l1.9-1.1c0.2,0,0.1-0.3,0-0.3
						l-1.8-1.1C545.8,304.8,545.6,304.8,545.4,304.9z"/>
					<path class="st11" d="M548.1,303.3l-1.9,1.1c-0.2,0-0.1,0.3,0,0.3l1.8,1.1c0.2,0.1,0.4,0.1,0.6,0l1.9-1.1c0.2,0,0.1-0.3,0-0.3
						l-1.8-1.1C548.5,303.2,548.3,303.2,548.1,303.3z"/>
					<path class="st11" d="M550.9,301.7l-1.9,1.1c-0.2,0-0.1,0.2,0,0.3l1.8,1.1c0.2,0.1,0.4,0.1,0.6,0l1.9-1.1c0.2,0,0.1-0.3,0-0.3
						l-1.8-1.1C551.3,301.6,551.1,301.6,550.9,301.7z"/>
					<path class="st11" d="M553.6,300.2l-1.9,1.1c-0.2,0-0.1,0.2,0,0.3l1.8,1.1c0.2,0.1,0.4,0.1,0.6,0l1.9-1.1c0.2,0,0.1-0.3,0-0.3
						l-1.8-1.1C554,300,553.8,300,553.6,300.2z"/>
					<path class="st11" d="M556.4,298.5l-1.9,1.1c-0.2,0-0.1,0.2,0,0.3l1.8,1.1c0.2,0.1,0.4,0.1,0.6,0l1.9-1.1c0.2,0,0.1-0.3,0-0.4
						l-1.8-1C556.8,298.5,556.6,298.5,556.4,298.5z"/>
					<path class="st11" d="M559.1,297l-1.9,1.1c-0.2,0-0.1,0.3,0,0.4l1.8,1.1c0.2,0.1,0.4,0.1,0.6,0l1.9-1.1c0.2,0,0.1-0.3,0-0.4
						l-1.9-1.1C559.5,296.9,559.3,296.9,559.1,297z"/>
					<path class="st11" d="M526.1,316l-3.2,1.9c-0.2,0-0.1,0.3,0,0.3l1.9,1.1c0.2,0.1,0.4,0.1,0.6,0l3.3-1.9c0.2,0,0.1-0.2,0-0.3
						l-1.8-1.1C526.6,315.9,526.3,315.9,526.1,316z"/>
					<path class="st11" d="M564.3,296.8l-1.9,1.1c-0.2,0.1-0.4,0.1-0.6,0l-2-1.1c-0.2,0-0.2-0.2,0-0.3h0.1c0.2,0,0.2-0.2,0-0.3
						L558,295c-0.2,0-0.2-0.2,0-0.3l1.2-0.7c0.2-0.1,0.4-0.1,0.6,0l1.9,1.1l0.4,0.2l0.3,0.2l0.3,0.2l1.7,1
						C564.4,296.7,564.4,296.8,564.3,296.8C564.3,296.8,564.3,296.8,564.3,296.8z"/>
					<path class="st11" d="M516.9,312.1l-1.9,1.1c-0.2,0-0.1,0.3,0,0.3l1.8,1.1c0.2,0.1,0.4,0.1,0.6,0l2-1.1c0.1,0,0.1-0.3,0-0.3
						l-1.9-1.1C517.3,312,517.1,312,516.9,312.1z"/>
					<path class="st11" d="M519.6,310.6l-1.9,1.1c-0.2,0-0.1,0.3,0,0.3l1.8,1.1c0.2,0.1,0.4,0.1,0.6,0l1.9-1.1c0.2,0,0.1-0.2,0-0.3
						l-1.8-1.1C520,310.5,519.8,310.5,519.6,310.6z"/>
					<path class="st11" d="M522.3,309l-2,1.1c-0.1,0-0.1,0.3,0,0.4l1.9,1c0.2,0.1,0.4,0.1,0.6,0l1.9-1.1c0.2,0,0.1-0.2,0-0.3
						l-1.8-1.1C522.8,308.9,522.5,308.9,522.3,309z"/>
					<path class="st11" d="M545.6,295.5l-2,1.1c-0.1,0-0.1,0.3,0,0.3l1.9,1.1c0.2,0.1,0.4,0.1,0.6,0l1.9-1.1c0.2,0,0.1-0.3,0-0.3
						l-1.8-1.1C546.1,295.4,545.8,295.4,545.6,295.5z"/>
					<path class="st11" d="M548.4,294l-1.9,1.1c-0.2,0-0.1,0.3,0,0.3l1.8,1.1c0.2,0.1,0.4,0.1,0.6,0l1.9-1.1c0.2,0,0.1-0.2,0-0.3
						L549,294C548.8,293.9,548.6,293.9,548.4,294z"/>
					<path class="st11" d="M551.1,292.4l-1.9,1.1c-0.2,0-0.1,0.3,0,0.4l1.9,1c0.2,0.1,0.4,0.1,0.6,0l1.9-1.1c0.2,0,0.1-0.3,0-0.4
						l-1.8-1.1C551.5,292.3,551.3,292.3,551.1,292.4z"/>
					<path class="st11" d="M553.7,290.8l-1.9,1.1c-0.2,0-0.1,0.2,0,0.3l1.8,1.1c0.2,0.1,0.4,0.1,0.6,0l2-1.1c0.1,0,0.1-0.3,0-0.4
						l-1.9-1C554.2,290.7,553.9,290.7,553.7,290.8z"/>
					<path class="st11" d="M525.8,307l-2.6,1.5c-0.2,0-0.1,0.2,0,0.3l1.8,1.1c0.2,0.1,0.4,0.1,0.6,0l2.6-1.5c0.2,0,0.1-0.3,0-0.3
						l-1.8-1.1C526.2,306.9,526,306.9,525.8,307z"/>
					<path class="st11" d="M542.9,297.1l-2.6,1.5c-0.2,0-0.1,0.3,0,0.4l1.8,1c0.2,0.1,0.4,0.1,0.6,0l2.7-1.5c0.2,0,0.1-0.3,0-0.3
						l-1.8-1.1C543.3,297,543.1,297,542.9,297.1z"/>
					<path class="st11" d="M539.5,299.1l-12.9,7.4c-0.2,0-0.1,0.3,0,0.4l1.9,1c0.2,0.1,0.4,0.1,0.6,0l12.9-7.4c0.2,0,0.1-0.3,0-0.3
						l-1.8-1.1C539.9,299,539.7,299,539.5,299.1z"/>
					<path class="st11" d="M527,312.5l-1.9,1.1c-0.2,0-0.1,0.2,0,0.3l1.8,1.1c0.2,0.1,0.4,0.1,0.6,0l1.9-1.1c0.2,0,0.1-0.3,0-0.4
						l-1.8-1C527.4,312.3,527.2,312.3,527,312.5z"/>
					<path class="st11" d="M529.7,310.9l-1.9,1.1c-0.2,0-0.1,0.2,0,0.3l1.8,1.1c0.2,0.1,0.4,0.1,0.6,0l2-1.1c0.1,0,0.1-0.3,0-0.3
						l-1.9-1.1C530.1,310.8,529.9,310.8,529.7,310.9z"/>
					<path class="st11" d="M532.5,309.3l-2,1.1c-0.1,0-0.1,0.3,0,0.3l1.9,1.1c0.2,0.1,0.4,0.1,0.6,0l1.9-1.1c0.2,0,0.1-0.3,0-0.3
						l-1.8-1.1C532.9,309.2,532.7,309.2,532.5,309.3z"/>
					<path class="st11" d="M535.1,307.7l-1.9,1.1c-0.2,0-0.1,0.3,0,0.3l1.8,1.1c0.2,0.1,0.4,0.1,0.6,0l1.9-1.1c0.2,0,0.1-0.3,0-0.3
						l-1.8-1.1C535.5,307.6,535.3,307.6,535.1,307.7z"/>
					<path class="st11" d="M537.9,306.1l-1.9,1.1c-0.2,0-0.1,0.3,0,0.3l1.8,1.1c0.2,0.1,0.4,0.1,0.6,0l2-1.1c0.1,0,0.1-0.3,0-0.3
						l-1.9-1.1C538.4,306,538.1,306,537.9,306.1z"/>
					<path class="st11" d="M540.7,304.5l-1.9,1.1c-0.2,0-0.1,0.3,0,0.3l1.9,1.1c0.2,0.1,0.4,0.1,0.6,0l1.9-1.1c0.2,0,0.1-0.3,0-0.3
						l-1.8-1.1C541.1,304.4,540.9,304.4,540.7,304.5z"/>
					<path class="st11" d="M543.4,302.9l-1.9,1.1c-0.2,0-0.1,0.3,0,0.3l1.8,1.1c0.2,0.1,0.4,0.1,0.6,0l1.9-1.1c0.2,0,0.1-0.2,0-0.3
						l-1.8-1.1C543.9,302.9,543.6,302.9,543.4,302.9z"/>
					<path class="st11" d="M546.2,301.4l-2,1.1c-0.1,0-0.1,0.3,0,0.4l1.9,1c0.2,0.1,0.4,0.1,0.6,0l1.9-1.1c0.2,0,0.1-0.2,0-0.3
						l-1.9-1.1C546.6,301.3,546.4,301.3,546.2,301.4z"/>
					<path class="st11" d="M548.9,299.8l-1.9,1.1c-0.2,0-0.1,0.3,0,0.4l1.8,1c0.2,0.1,0.4,0.1,0.6,0l1.9-1.1c0.2,0,0.1-0.3,0-0.4
						l-1.8-1.1C549.3,299.7,549.1,299.7,548.9,299.8z"/>
					<path class="st11" d="M551.6,298.2l-1.9,1.1c-0.2,0-0.1,0.3,0,0.4l1.8,1.1c0.2,0.1,0.4,0.1,0.6,0l2-1.1c0.1,0,0.1-0.3,0-0.4
						l-1.9-1.1C552.1,298.1,551.8,298.1,551.6,298.2z"/>
					<path class="st11" d="M554.4,296.6l-2,1.1c-0.1,0-0.1,0.3,0,0.4l1.9,1.1c0.2,0.1,0.4,0.1,0.6,0l1.9-1.1c0.2,0,0.1-0.3,0-0.4
						l-1.8-1C554.8,296.5,554.6,296.5,554.4,296.6z"/>
					<path class="st11" d="M557.1,295.1l-1.9,1.1c-0.2,0-0.1,0.2,0,0.3l1.8,1.1c0.2,0.1,0.4,0.1,0.6,0l1.9-1.1c0.2,0,0.1-0.3,0-0.4
						l-1.8-1C557.6,294.9,557.3,294.9,557.1,295.1z"/>
					<path class="st11" d="M524.3,314l-4,2.3c-0.2,0-0.1,0.3,0,0.3l1.8,1.1c0.2,0.1,0.4,0.1,0.6,0l4-2.3c0.2,0,0.1-0.3,0-0.4l-1.9-1
						C524.6,313.9,524.4,313.9,524.3,314z"/>
					<path class="st11" d="M523,311.7l-1.9,1.1c-0.2,0-0.1,0.3,0,0.4l1.9,1.1c0.2,0.1,0.4,0.1,0.6,0l2-1.1c0.1,0,0.1-0.3,0-0.4
						l-1.9-1.1C523.4,311.6,523.2,311.6,523,311.7z"/>
					<path class="st11" d="M525.8,310.1l-1.9,1.1c-0.2,0-0.1,0.2,0,0.3l1.8,1.1c0.2,0.1,0.4,0.1,0.6,0l1.8-1c0.2,0,0.1-0.3,0-0.4
						l-1.8-1C526.1,310.1,526,310.1,525.8,310.1z"/>
					<path class="st11" d="M528.4,308.5l-1.9,1.1c-0.2,0-0.1,0.2,0,0.3l1.8,1.1c0.2,0.1,0.4,0.1,0.6,0l1.9-1.1c0.2,0,0.1-0.3,0-0.3
						l-1.9-1.1C528.9,308.4,528.6,308.4,528.4,308.5z"/>
					<path class="st11" d="M531.2,307l-2,1.1c-0.1,0-0.1,0.2,0,0.3l1.9,1.1c0.2,0.1,0.4,0.1,0.6,0l1.9-1.1c0.2,0,0.1-0.3,0-0.3
						l-1.8-1.1C531.6,306.9,531.4,306.9,531.2,307z"/>
					<path class="st11" d="M533.9,305.4l-1.9,1.1c-0.2,0-0.1,0.3,0,0.3l1.8,1.1c0.2,0.1,0.4,0.1,0.6,0l1.9-1.1c0.2,0,0.1-0.3,0-0.3
						l-1.8-1.1C534.4,305.3,534.1,305.3,533.9,305.4z"/>
					<path class="st11" d="M536.7,303.8l-1.9,1.1c-0.2,0-0.1,0.3,0,0.3l1.8,1.1c0.2,0.1,0.4,0.1,0.6,0l2-1.1c0.1,0,0.1-0.3,0-0.3
						l-1.9-1.1C537.1,303.7,536.9,303.7,536.7,303.8z"/>
					<path class="st11" d="M539.4,302.2l-1.9,1.1c-0.2,0-0.1,0.3,0,0.3l1.8,1.1c0.2,0.1,0.4,0.1,0.6,0l1.9-1.1c0.2,0,0.1-0.3,0-0.3
						l-1.8-1.1C539.8,302.1,539.6,302.1,539.4,302.2z"/>
					<path class="st11" d="M542.1,300.6l-1.9,1.1c-0.2,0-0.1,0.3,0,0.3l1.8,1.1c0.2,0.1,0.4,0.1,0.6,0l1.9-1.1c0.2,0,0.1-0.2,0-0.3
						l-1.9-1.1C542.5,300.5,542.3,300.5,542.1,300.6z"/>
					<path class="st11" d="M544.9,299l-2,1.1c-0.1,0-0.1,0.3,0,0.4l1.9,1c0.2,0.1,0.4,0.1,0.6,0l1.9-1.1c0.2,0,0.1-0.2,0-0.3
						l-1.8-1.1C545.3,298.9,545.1,298.9,544.9,299z"/>
					<path class="st11" d="M547.6,297.4l-1.9,1.1c-0.2,0-0.1,0.3,0,0.4l1.8,1c0.2,0.1,0.4,0.1,0.6,0l1.9-1.1c0.2,0,0.1-0.3,0-0.4
						l-1.8-1.1C548,297.3,547.8,297.3,547.6,297.4z"/>
					<path class="st11" d="M550.4,295.9l-1.9,1.1c-0.2,0-0.1,0.3,0,0.4l1.8,1.1c0.2,0.1,0.4,0.1,0.6,0l2-1.1c0.1,0,0.1-0.3,0-0.4
						l-1.9-1.1C550.8,295.8,550.6,295.8,550.4,295.9z"/>
					<path class="st11" d="M556.5,292.3l-5.3,3c-0.2,0-0.1,0.2,0,0.3l1.9,1.1c0.2,0.1,0.4,0.1,0.6,0l5.3-3.1c0.2,0,0.1-0.3,0-0.4
						l-1.9-1C556.9,292.2,556.7,292.2,556.5,292.3z"/>
					<path class="st11" d="M520.2,313.3l-2.6,1.5c-0.2,0-0.1,0.3,0,0.3l1.8,1.1c0.2,0.1,0.4,0.1,0.6,0l2.7-1.5c0.2,0,0.1-0.2,0-0.3
						l-1.8-1.1C520.7,313.2,520.4,313.2,520.2,313.3z"/>
					<path class="st11" d="M567.2,298.5L528.3,321c-0.1,0-0.1,0.2,0,0.3l0.9,0.5c0.2,0.1,0.4,0.1,0.6,0l38.9-22.5
						c0.1,0,0.1-0.3,0-0.4l-0.9-0.5C567.6,298.4,567.4,298.4,567.2,298.5z"/>
					<polygon id="_Контур_25" class="st12" points="521.7,299.5 521.9,299.7 528.7,303.6 540.6,296.7 540.9,296.5 
						533.9,292.5 					"/>
					<polygon id="_Контур_26" class="st13" points="521.9,299.7 528.7,303.6 540.6,296.7 533.9,292.8 					"/>
					<path id="_Контур_27" class="st13" d="M502.5,308.6v0.6c0,0.9,0.5,1.7,1.2,2.1l23.7,13.7c0.4,0.2,0.8,0.3,1.2,0.3
						c0.4,0,0.8-0.1,1.2-0.3l42.9-24.7c0.7-0.4,1.2-1.3,1.2-2.1v-0.6l-45.3,26.2L502.5,308.6z"/>
					<path id="_Контур_28" class="st8" d="M529.4,324.1c0.8,0.3,1.7,0.2,2.5-0.2l42.7-24.6c0.7-0.4,1.3-1.2,1.4-2l4.7-28
						c0-0.2,0-0.3,0-0.5c0-0.8-0.3-1.5-0.9-2.1l-44.3,25.6c-0.6,0.3-0.9,0.9-1,1.5L529.4,324.1z"/>
					<path id="_Контур_29" class="st13" d="M528.7,323.7l0.3,0.2l0.4,0.2l5.1-30.2c0.1-0.6,0.5-1.2,1-1.5l44.3-25.6
						c-0.2-0.2-0.4-0.3-0.6-0.4L534.7,292c-0.6,0.3-0.9,0.9-1,1.5L528.7,323.7z"/>
				</g>
			</g>
			<path id="_Контур_30" class="st7" d="M496.4,204.5c0,0,0.6,10.6,0.3,11.6s-4.9,4.1-6.2,5.2c-1.4,1.1,7.3,9.7,11.6,11.6
				c4.3,2,17.6-3.2,17.8-9.7c0.2-6.6-2.3-12.1-4.3-12.4S496.4,204.5,496.4,204.5z"/>
			<path id="_Контур_31" class="st8" d="M495.2,217.8c0,0,7.7,11.5,18.5,12.5c3.4-3.3,3.7-15.2-1-19c0,0,4.3-3.5,7.2-2.8
				c3.2,1.9,5.5,4.9,6.6,8.5c2.7,7.9,4.1,16.2,3.9,24.6c-0.2,11.3,0,39.6,0,39.6c-1.3,6.8-5.4,12.7-11.3,16.3
				c-7.7,4.4-16.9,5.6-25.5,3.5c-4.3-0.9-7.9-4.1-9.3-8.3c0.5-7.9,3.6-24.1,2.3-34c-1.3-9.9-3.4-17.3-3.9-25.3
				c-0.5-8,1-7.9,5.1-10.7C490.2,220.8,492.7,219.2,495.2,217.8z"/>
			<path id="_Контур_32" class="st7" d="M507.6,309.2c-1.9-1.3-3.9-2.4-6-3.4c-2-0.6-3.7-1.7-5.2-3.1c-1.9-1.8-5-8.8-7.2-15.7
				c-2.2-7.7-3.1-15.7-2.6-23.7c0.9-9.6,4.4-22.9,5.3-28.4s-0.9-7.7-3.5-9.7c-3-2.3-7.2-1.3-9.3,6.4c-2.9,10.7-4.5,21.6-4.9,32.6
				c-0.1,8.2,1.2,16.3,3.7,24.1c2.3,6.7,5.4,13,9.2,18.9c1.1,1.8,1.4,3.4,3,7c1.6,3.6,3.9,6.8,7,9.3c2.7,2,4,2.2,4.7,1.8
				s0.7-1.3-0.5-2.3c-1.9-1.5-3.5-3.3-4.8-5.4c0,0,2.3,2.3,3.9,3.7c1.4,1.1,2.9,2.1,4.5,2.9c1.6,0.7,3.8-0.6,2.7-1.7
				c-1.1-1.1-2.3-1.6-4.5-3.5c-1.2-1-2.3-2.2-3.2-3.5c1.6,1.2,3.3,2.3,5,3.2c1.4,0.9,3,1.3,4.7,1.2c0.8,0,1.8-1.2,0.3-2.3
				c-2.1-1.1-4.2-2.5-6-4.1c-1.7-1.7-2.7-3.2-2.2-3.2c0.5,0,1.4,1,3.4,1.7c2,0.7,4.2,0,4.4-1C509.7,309.9,509.5,310.1,507.6,309.2z"
				/>
			<path id="_Контур_33" class="st7" d="M520.5,188.6L520.5,188.6c-1.3-8.2-7.2-14.5-15.7-14c-9,0.4-16,8-15.6,17
				c0.2,5.2,2.9,10,7.3,12.9c0.3,1.3,0.7,2.5,1.3,3.6c3,3.5,12.1,5.7,14.7,5.3c3.2-0.3,5.9-2.5,6.8-5.5
				C522,201.3,521.1,192.7,520.5,188.6z"/>
			<path class="st6" d="M496.4,204.5L496.4,204.5l0.8-7.2c0,0-5.9-15.2,8-12.3c9.2,1.9,11.4,2.8,14.2-3.4c2.8-6.2-7-11.6-18.6-10.1
				c-8.3,0.9-14.6,8-14.4,16.3C486.6,192.3,487.8,201.5,496.4,204.5z"/>
			<path class="st10" d="M472.7,245.6c0,0,7.5,7.5,16.5,5.4c1.3-0.9,4.3-18.5,4.3-18.5s0-9.8-7.5-9.5
				C478.7,223.3,472.7,245.6,472.7,245.6z"/>
			<path class="st10" d="M529.8,231.1c2.1-0.1,4.1-1,5.6-2.5c-0.3-3.9-5.3-18.9-15.5-20c2.8,1.9,5,4.6,6.4,7.6
				C527.9,221,529,226,529.8,231.1z"/>
		</g>
	</g>
</g>
</svg>
