<?xml version="1.0"?>
<svg version="1.1" id="圖層_1" xmlns="http://www.w3.org/2000/svg" x="0" y="0" viewBox="0 0 100 100" xml:space="preserve"><circle cx="50" cy="57.5" r="30.75" fill="#fff" stroke="#333" stroke-width="3.5" stroke-linecap="round" stroke-linejoin="round" stroke-miterlimit="10"/><path fill="#333" stroke="#333" stroke-width="3.5" stroke-linecap="round" stroke-linejoin="round" stroke-miterlimit="10" d="M40.293 11.75h19.415v7.5H40.293z"/><path fill="#333" d="M45.5 17h9v9h-9z"/><path fill="#333" stroke="#333" stroke-width="3.499965" stroke-linecap="round" stroke-linejoin="round" stroke-miterlimit="10" d="M19.594 33.458l6.364-6.364 4.95 4.95-6.365 6.364z"/><path fill="#333" stroke="#333" stroke-width="3.499965" stroke-linecap="round" stroke-linejoin="round" stroke-miterlimit="10" d="M75.456 38.409l-6.364-6.364 4.95-4.95 6.363 6.364z"/><path d="M50 57.5L33.029 40.529A23.928 23.928 0 0 0 26 57.5h24z" fill="#e0e0e0"/><path d="M26 57.5a23.928 23.928 0 0 0 7.029 16.971L50 57.5H26z" fill="#e0e0e0"/><path fill="#333" d="M50 57.5z"/><path fill="#333" d="M50 57.5z"/><path d="M50 57.5v24a23.928 23.928 0 0 0 16.971-7.029L50 57.5z" fill="#e0e0e0"/><path d="M50 57.5L33.029 74.471A23.928 23.928 0 0 0 50 81.5v-24z" fill="#e0e0e0"/><path d="M66.971 40.529A23.928 23.928 0 0 0 50 33.5v24l16.971-16.971z" fill="#77a4bd"/><path d="M50 33.5a23.928 23.928 0 0 0-16.971 7.029L50 57.5v-24z" fill="#e0e0e0"/><path d="M50 57.5h24a23.928 23.928 0 0 0-7.029-16.971L50 57.5z" fill="#77a4bd"/><path d="M50 57.5l16.971 16.971A23.928 23.928 0 0 0 74 57.5H50z" fill="#77a4bd"/><metadata xmlns:d="https://loading.io/stock/"><d:name>timer</d:name><d:tags>timer,watch,stopwatch,elapse,countdown,timing,temporal</d:tags><d:license>by</d:license><d:slug>hrlcg9</d:slug></metadata></svg>