<?xml version="1.0" encoding="utf-8"?>
<!-- Generator: Adobe Illustrator 24.1.1, SVG Export Plug-In . SVG Version: 6.00 Build 0)  -->
<svg version="1.1" id="Layer_1" xmlns="http://www.w3.org/2000/svg" xmlns:xlink="http://www.w3.org/1999/xlink" x="0px" y="0px"
	 viewBox="0 0 1702.9 830.2" style="enable-background:new 0 0 1702.9 830.2;" xml:space="preserve">
<style type="text/css">
	.st0{fill:#ECECEC;}
	.st1{fill:#E7E7E7;}
	.st2{fill:#F0F0F0;}
	.st3{fill:#F5F5F5;}
	.st4{fill:#FAFAFA;}
	.st5{fill:#FFFFFF;}
	.st6{opacity:0.6;fill:#E1E1E1;}
	.st7{fill:#007CFF;}
	.st8{opacity:0.5;fill:#FFFFFF;}
	.st9{fill:#B0C7FF;}
	.st10{fill:#194BED;}
	.st11{opacity:0.2;}
	.st12{opacity:0.3;fill:#007CFF;}
	.st13{fill:#E1E1E1;}
	.st14{fill:#FFB570;}
	.st15{fill:#1A2E35;}
	.st16{opacity:0.7;fill:#FFFFFF;}
	.st17{fill:#FF8935;}
	.st18{opacity:0.3;}
	.st19{fill:none;stroke:#000000;stroke-width:3;stroke-miterlimit:2;}
	.st20{fill:#29256F;}
	.st21{fill:none;stroke:#FFFFFF;stroke-width:4;stroke-miterlimit:2;}
	.st22{fill:#FFFFFF;stroke:#000000;stroke-width:0.25;stroke-miterlimit:10;}
	.st23{fill:#F4F4F4;}
	.st24{fill:#F05A28;}
</style>
<g>
	<g>
		<rect x="330.7" y="719" class="st0" width="1063.8" height="0.5"/>
		<rect x="1217.4" y="753.3" class="st0" width="70.5" height="0.5"/>
		<rect x="1016.9" y="759" class="st0" width="18.5" height="0.5"/>
		<rect x="1174.4" y="733.5" class="st0" width="40.8" height="0.5"/>
		<rect x="442.3" y="737.1" class="st0" width="91.9" height="0.5"/>
		<rect x="553.1" y="737.1" class="st0" width="13.5" height="0.5"/>
		<rect x="610.4" y="746.1" class="st0" width="199.3" height="0.5"/>
		<path class="st0" d="M834.9,624.1H424.1c-6.7,0-12.1-5.4-12.1-12.1V34.5c0-6.7,5.4-12.1,12.1-12.1h410.8c6.7,0,12.1,5.4,12.1,12.1
			V612C847.1,618.7,841.6,624.1,834.9,624.1z M424.1,22.9c-6.4,0-11.6,6.2-11.6,13.8v686.6c0,7.6,5.2,13.8,11.6,13.8h410.8
			c6.4,0,11.6-6.2,11.6-13.8V36.7c0-7.6-5.2-13.8-11.6-13.8H424.1z"/>
		<path class="st0" d="M1295.1,624.1H884.3c-6.7,0-12.1-5.4-12.1-12.1V34.5c0-6.7,5.4-12.1,12.1-12.1h410.8
			c6.7,0,12.1,5.4,12.1,12.1V612C1307.3,618.7,1301.8,624.1,1295.1,624.1z M884.3,22.9c-6.4,0-11.6,5.2-11.6,11.6V612
			c0,6.4,5.2,11.6,11.6,11.6h410.8c6.4,0,11.6-5.2,11.6-11.6V34.5c0-6.4-5.2-11.6-11.6-11.6H884.3z"/>
	</g>
	<g>
		<g>
			
				<rect x="880.3" y="500" transform="matrix(-1 -1.224647e-16 1.224647e-16 -1 1822.089 1219.0411)" class="st1" width="61.5" height="219"/>
			<polygon class="st2" points="892,719 880.3,719 880.3,698.7 904.2,698.7 			"/>
			
				<rect x="1231" y="500" transform="matrix(-1 -1.224647e-16 1.224647e-16 -1 2523.4675 1219.0411)" class="st1" width="61.5" height="219"/>
			
				<rect x="880.3" y="500" transform="matrix(-1 -1.224647e-16 1.224647e-16 -1 2121.5037 1213.7167)" class="st2" width="360.9" height="213.6"/>
			<g>
				
					<rect x="1081.2" y="553.8" transform="matrix(6.123234e-17 -1 1 6.123234e-17 568.4262 1782.9781)" class="st1" width="189.1" height="107"/>
				<path class="st2" d="M1165.1,523.6h21.2c9.2,0,18-4.4,24.3-12.2l0,0h-69.8l0,0C1147.1,519.2,1155.9,523.6,1165.1,523.6z"/>
			</g>
			<g>
				
					<rect x="966.2" y="553.8" transform="matrix(6.123234e-17 -1 1 6.123234e-17 453.4752 1668.0271)" class="st1" width="189.1" height="107"/>
				<path class="st2" d="M1049.1,523.6h21.2c9.2,0,18-4.4,24.3-12.2l0,0h-69.8l0,0C1031.1,519.2,1039.9,523.6,1049.1,523.6z"/>
			</g>
			<g>
				
					<rect x="851.2" y="553.8" transform="matrix(6.123234e-17 -1 1 6.123234e-17 338.524 1553.0759)" class="st1" width="189.1" height="107"/>
				<path class="st2" d="M934.1,523.6h21.2c9.2,0,18-4.4,24.3-12.2l0,0h-69.8l0,0C916.2,519.2,924.9,523.6,934.1,523.6z"/>
			</g>
			<polygon class="st2" points="1229.5,719 1241.2,719 1241.2,698.7 1217.3,698.7 			"/>
		</g>
		<g>
			<g>
				<g>
					<g>
						
							<rect x="493.8" y="92" transform="matrix(-1 -1.224647e-16 1.224647e-16 -1 1399.8818 535.0891)" class="st1" width="412.4" height="351.1"/>
						
							<rect x="484.5" y="92" transform="matrix(-1 -1.224647e-16 1.224647e-16 -1 1386.5679 535.0891)" class="st3" width="417.6" height="351.1"/>
						
							<rect x="534.6" y="75.4" transform="matrix(-1.836970e-16 1 -1 -1.836970e-16 960.8287 -425.7396)" class="st4" width="317.4" height="384.3"/>
						<polygon class="st5" points="838.3,426.3 687,108.8 635.7,108.8 786.9,426.3 						"/>
						<polygon class="st5" points="772.3,426.3 621.1,108.8 585.7,108.8 737,426.3 						"/>
						
							<rect x="475.2" y="257.6" transform="matrix(-1.836970e-16 1 -1 -1.836970e-16 901.4362 -366.3466)" class="st1" width="317.4" height="19.9"/>
						
							<rect x="607.3" y="257.6" transform="matrix(-1.836970e-16 1 -1 -1.836970e-16 1033.5353 -498.4457)" class="st1" width="317.4" height="19.9"/>
						
							<rect x="457.4" y="254.1" transform="matrix(-1.836970e-16 1 -1 -1.836970e-16 894.3098 -361.0576)" class="st3" width="340.6" height="25.1"/>
						
							<rect x="589.5" y="254.1" transform="matrix(-1.836970e-16 1 -1 -1.836970e-16 1026.4089 -493.1567)" class="st3" width="340.6" height="25.1"/>
						
							<rect x="343.3" y="266.7" transform="matrix(-1.836970e-16 1 -1 -1.836970e-16 769.558 -234.4689)" class="st1" width="317.4" height="1.8"/>
					</g>
				</g>
			</g>
			<g>
				<g>
					<path class="st1" d="M477.5,70.3h446.8c1.2,0,2.1,1,2.1,2.1l0,0c0,1.2-1,2.1-2.1,2.1H477.5c-1.2,0-2.1-1-2.1-2.1l0,0
						C475.3,71.3,476.3,70.3,477.5,70.3z"/>
					<path class="st1" d="M906.1,84.5L906.1,84.5c1.6,0,2.9-1.3,2.9-2.9v-6.2c0-1.6-1.3-2.9-2.9-2.9l0,0c-1.6,0-2.9,1.3-2.9,2.9v6.2
						C903.2,83.2,904.5,84.5,906.1,84.5z"/>
					<path class="st1" d="M509.9,84.5L509.9,84.5c1.6,0,2.9-1.3,2.9-2.9v-6.2c0-1.6-1.3-2.9-2.9-2.9l0,0c-1.6,0-2.9,1.3-2.9,2.9v6.2
						C507,83.2,508.3,84.5,509.9,84.5z"/>
				</g>
				
					<rect x="478.2" y="72.5" transform="matrix(-1 -1.224647e-16 1.224647e-16 -1 1373.6471 319.1919)" class="st6" width="417.3" height="174.3"/>
			</g>
		</g>
		<g>
			
				<rect x="483.9" y="543.2" transform="matrix(-1 -1.224647e-16 1.224647e-16 -1 978.466 1262.1805)" class="st1" width="10.7" height="175.8"/>
			<g>
				<g>
					<rect x="677.4" y="509" class="st1" width="58.1" height="34.2"/>
					
						<rect x="446.7" y="509" transform="matrix(-1 -1.224647e-16 1.224647e-16 -1 1124.1066 1052.1324)" class="st3" width="230.6" height="34.2"/>
				</g>
			</g>
			<g>
				<g>
					<rect x="677.4" y="564.5" class="st1" width="58.1" height="34.2"/>
					
						<rect x="446.7" y="564.5" transform="matrix(-1 -1.224647e-16 1.224647e-16 -1 1124.1066 1163.1195)" class="st3" width="230.6" height="34.2"/>
				</g>
			</g>
			<g>
				<g>
					<rect x="677.4" y="619.9" class="st1" width="58.1" height="34.2"/>
					
						<rect x="446.7" y="619.9" transform="matrix(-1 -1.224647e-16 1.224647e-16 -1 1124.1066 1274.1067)" class="st3" width="230.6" height="34.2"/>
				</g>
			</g>
			
				<rect x="714.5" y="543.2" transform="matrix(-1 -1.224647e-16 1.224647e-16 -1 1439.6873 1262.1805)" class="st1" width="10.7" height="175.8"/>
			
				<rect x="666.6" y="543.2" transform="matrix(-1 -1.224647e-16 1.224647e-16 -1 1343.998 1262.1805)" class="st3" width="10.7" height="175.8"/>
			
				<rect x="446.7" y="543.2" transform="matrix(-1 -1.224647e-16 1.224647e-16 -1 904.215 1262.1805)" class="st3" width="10.7" height="175.8"/>
		</g>
	</g>
	<g>
		<g>
			<g>
				<path class="st7" d="M1173.2,694.4H827.7c-14.6,0-25.6-11.9-24.4-26.5l42.3-554.8c1.1-14.6,13.9-26.5,28.5-26.5h345.5
					c14.6,0,25.6,11.9,24.4,26.5l-42.3,554.8C1200.6,682.5,1187.8,694.4,1173.2,694.4z"/>
				<path class="st8" d="M1173.2,694.4H827.7c-14.6,0-25.6-11.9-24.4-26.5l42.3-554.8c1.1-14.6,13.9-26.5,28.5-26.5h345.5
					c14.6,0,25.6,11.9,24.4,26.5l-42.3,554.8C1200.6,682.5,1187.8,694.4,1173.2,694.4z"/>
			</g>
			<g>
				<path class="st7" d="M1168.1,694.4H822.5c-14.6,0-25.6-11.9-24.4-26.5l42.3-554.8c1.1-14.6,13.9-26.5,28.5-26.5h345.5
					c14.6,0,25.6,11.9,24.4,26.5l-42.3,554.8C1195.4,682.5,1182.6,694.4,1168.1,694.4z"/>
				<path class="st9" d="M1168.1,694.4H822.5c-14.6,0-25.6-11.9-24.4-26.5l42.3-554.8c1.1-14.6,13.9-26.5,28.5-26.5h345.5
					c14.6,0,25.6,11.9,24.4,26.5l-42.3,554.8C1195.4,682.5,1182.6,694.4,1168.1,694.4z"/>
			</g>
			<path class="st10" d="M823.2,685.6c-9.7,0-17-7.9-16.3-17.6l41.8-547.4c0.7-9.7,9.3-17.6,19-17.6h345.5c9.7,0,17,7.9,16.3,17.6
				l-41.8,547.4c-0.7,9.7-9.3,17.6-19,17.6H823.2z"/>
			<path class="st11" d="M1166.3,194.9H919c-5.8,0-10.1-4.7-9.7-10.5l0,0c0.4-5.8,5.5-10.5,11.3-10.5h247.3c5.8,0,10.1,4.7,9.7,10.5
				l0,0C1177.1,190.2,1172.1,194.9,1166.3,194.9z"/>
			<path class="st12" d="M1060.8,97.5h-39.9c-1.4,0-2.5-1.2-2.4-2.6l0,0c0.1-1.4,1.4-2.6,2.8-2.6h39.9c1.4,0,2.5,1.2,2.4,2.6l0,0
				C1063.5,96.3,1062.2,97.5,1060.8,97.5z"/>
		</g>
		<g>
			<path class="st2" d="M917.9,184.5c1.2-16-10.8-28.9-26.7-28.9h251c16,0,28,12.9,26.7,28.9H917.9z"/>
			<path class="st5" d="M891.2,155.5c-16,0-29.9,12.9-31.2,28.9l-25.7,337.2c-1.2,16-15.2,28.9-31.2,28.9h251
				c16,0,29.9-12.9,31.2-28.9l25.7-337.2c1.2-16,15.2-28.9,31.2-28.9H891.2z"/>
			<path class="st2" d="M1027.5,521.6c-1.2,16,10.8,28.9,26.7,28.9h-251c-16,0-28-12.9-26.7-28.9H1027.5z"/>
			<path class="st13" d="M880.5,515c0.9-12.3-2.9-22.3-15.2-22.3h193.3c12.3,0,21.5,11.3,15.2,22.3H880.5z"/>
			<path class="st2" d="M1027.5,521.6c1.2-16,15.2-28.9,31.2-28.9h-251c-16,0-29.9,12.9-31.2,28.9H1027.5z"/>
		</g>
		<path class="st5" d="M1146.2,605.2H858c-4.2,0-7.3-3.4-7-7.6l0,0c0.3-4.2,4-7.6,8.2-7.6h288.2c4.2,0,7.3,3.4,7,7.6l0,0
			C1154.1,601.8,1150.4,605.2,1146.2,605.2z"/>
		<path class="st5" d="M1000.7,641.7H855.2c-4.2,0-7.3-3.4-7-7.6l0,0c0.3-4.2,4-7.6,8.2-7.6h145.4c4.2,0,7.3,3.4,7,7.6l0,0
			C1008.5,638.3,1004.8,641.7,1000.7,641.7z"/>
		<path class="st5" d="M1101.4,641.7h-58.9c-4.2,0-7.3-3.4-7-7.6l0,0c0.3-4.2,4-7.6,8.2-7.6h58.9c4.2,0,7.3,3.4,7,7.6l0,0
			C1109.2,638.3,1105.5,641.7,1101.4,641.7z"/>
		<g>
			<path class="st5" d="M1160.3,497.3l-15,2.4c-0.6-1.9-1.2-3.2-1.7-3.9c-0.5-0.7-1.5-1.5-2.8-2.2l-0.9,11.6
				c7.9,2.2,13.2,4.4,15.7,6.8c3.3,3.2,4.8,7.3,4.5,12.3c-0.2,2.9-1.1,5.6-2.5,8c-1.5,2.4-3.3,4.4-5.4,6.1c-2.1,1.6-4.4,2.8-6.7,3.5
				c-2.3,0.7-5.1,1.2-8.4,1.3l-0.6,7.5h-5.8l0.6-7.5c-3.9-0.3-7-1-9.4-1.9c-2.4-0.9-4.4-2.2-6-3.8c-1.6-1.6-2.9-3.4-3.7-5.3
				c-0.8-1.9-1.4-4.1-1.6-6.8l16.3-1.9c0.3,2.6,0.8,4.5,1.5,5.7c0.7,1.2,2,2.2,3.8,3.1l1.1-14.1c-5.3-1.5-9-2.8-11.1-3.9
				c-2.2-1.1-4-2.8-5.4-5.3c-1.5-2.4-2.1-5.3-1.8-8.8c0.4-4.7,2.3-8.7,5.9-11.9c3.6-3.2,8.6-4.9,15.2-5.3l0.3-4h5.8l-0.3,4
				c5.9,0.4,10.4,1.8,13.4,4.2C1157.8,489.7,1159.6,493,1160.3,497.3z M1134.9,493.3c-1.7,0.6-3,1.3-3.7,2.1
				c-0.7,0.8-1.1,1.8-1.2,2.9c-0.1,1.2,0.2,2.2,0.8,3.1c0.6,0.9,1.7,1.6,3.4,2.2L1134.9,493.3z M1137.7,532.6c2.3-0.5,4-1.3,5.2-2.5
				c1.1-1.2,1.8-2.5,1.9-3.9c0.1-1.3-0.3-2.4-1.1-3.5c-0.8-1.1-2.5-2-5-2.9L1137.7,532.6z"/>
		</g>
		<polygon class="st10" points="1080.3,302.3 872.8,302.3 873.3,296.6 1080.8,296.6 		"/>
		<polygon class="st2" points="1080.3,302.3 872.8,302.3 871.5,320 1079,320 		"/>
		<polygon class="st2" points="1077.7,337.6 870.1,337.6 868.8,355.2 1076.3,355.2 		"/>
		<polygon class="st2" points="1075,372.8 867.5,372.8 866.1,390.4 1073.6,390.4 		"/>
		<polygon class="st2" points="1072.3,408.1 864.8,408.1 863.4,425.7 1070.9,425.7 		"/>
		<polygon class="st10" points="1069.1,449.1 861.6,449.1 862.1,443.3 1069.6,443.3 		"/>
		<polygon class="st2" points="1045.4,194.9 1088.5,194.9 1086.6,220.7 1043.4,220.7 		"/>
	</g>
	<g>
		<path class="st14" d="M622.5,358.6l7.7,3.1c2.8,1.1,5.3,3,7.1,5.3l3.5,4.5c2.3,3,2.2,7.2-0.3,10l-3.8,4.3
			c-2.9,3.3-7.9,3.6-11.1,0.7l-3.6-3.2c0,0-11.1-7.8-14.3-18l2.1-2.1C613.5,359.6,618.1,358,622.5,358.6z"/>
		<path class="st14" d="M643.6,284l-2.5,1.7l-2.8,1.9c-1.9,1.3-3.7,2.7-5.5,4.1c-3.6,2.8-7.2,5.7-10.5,8.8
			c-6.6,6.1-12.4,12.9-16.5,20c-0.5,0.9-1,1.8-1.4,2.7l-0.3,0.7c0.1-0.2,0.2-0.7,0.2-0.9c0.1-0.6,0.1-0.9,0-1.1
			c-0.2-0.6-0.2,1,0.3,2.6c0.9,3.4,2.9,7.7,5.1,11.8c4.4,8.4,9.9,17,15.1,25.5l0.1,0.2c2.1,3.5,1,8.1-2.5,10.3
			c-2.7,1.7-6.1,1.4-8.5-0.5c-4.4-3.4-8.3-6.9-12.2-10.7c-3.9-3.8-7.6-7.8-11.1-12.1c-3.5-4.4-6.9-9-9.8-15.2
			c-0.7-1.6-1.4-3.3-2-5.2c-0.6-2-1.1-4.3-1.1-7.2c0-1.5,0.1-3.1,0.5-4.9c0.2-0.8,0.5-1.9,0.8-2.7l0.4-1.1c0.5-1.5,1.1-2.9,1.7-4.3
			c5-11.3,12.3-20.9,20.3-29.1c4-4.1,8.3-7.9,12.8-11.4c2.2-1.7,4.5-3.4,6.9-5c1.2-0.8,2.4-1.6,3.6-2.4l1.9-1.1l2.2-1.2
			c7.1-4.1,16.2-1.7,20.3,5.4c4,6.8,1.8,15.5-4.7,19.8L643.6,284z"/>
		<path class="st15" d="M643.9,250.2c-12.4,0.1-26,5.4-43.5,27c0,12.9,27.3,30.1,27.3,30.1S672.3,250,643.9,250.2z"/>
		<path class="st15" d="M551.6,761.6c-0.2,0-0.4,0-0.7-0.1c-2.6-0.9-5-7.5-5.2-11.1c0-0.2,0.1-0.5,0.3-0.6c0.2-0.1,0.5-0.1,0.6,0.1
			c0.3,0.2,6.7,5.5,7,9c0.1,0.8-0.1,1.4-0.6,1.9C552.7,761.4,552.1,761.6,551.6,761.6z M547.1,751.8c0.6,3.5,2.6,8,4.2,8.6
			c0.2,0.1,0.5,0.1,0.9-0.3c0.2-0.3,0.3-0.6,0.3-1C552.4,757,549.2,753.7,547.1,751.8z"/>
		<path class="st15" d="M555.6,753.8c-3,0-7.3-1.4-9.5-2.9c-0.2-0.1-0.3-0.4-0.3-0.6c0-0.2,0.2-0.4,0.4-0.5
			c0.3-0.1,8.4-2.2,11.4-0.3c0.6,0.4,1.1,0.9,1.2,1.6c0.2,0.9-0.1,1.7-0.8,2.2C557.5,753.7,556.6,753.8,555.6,753.8z M548,750.6
			c3.1,1.6,8,2.6,9.4,1.7c0.2-0.1,0.4-0.4,0.3-0.9c-0.1-0.3-0.3-0.6-0.7-0.8C555.2,749.4,550.7,750.1,548,750.6z"/>
		<path class="st10" d="M523.7,749c3.6-4.4,9.6-10.2,15.9-22.5c0,0,19.7,4.9,15.9,10.5c-7,10.3-10.5,31.5-1.4,42.9
			c5.2,6.5-3,7.6-8.4,4.8c-8.6-4.4-8.2-6.1-12.7-13.4c-3.8-6.2-5.3-8.7-10.6-11.4C518,757.7,520.1,753.4,523.7,749z"/>
		<path class="st15" d="M691.2,378.5c0,0-28.6,139.6-49.6,199.2c-22,62.6-82.7,159.2-85.1,163.3c-8.6-2.3-16.3-5.3-21.5-10.3
			c0,0,28.5-104.8,56.3-172.8c10.5-141.9,33.8-179.4,33.8-179.4H691.2z"/>
		<path class="st11" d="M647.5,453.1c-1.3,27-2.2,64.1-0.9,109.3c8.7-28.2,18.3-66.4,26.3-100.6
			C667.5,454.7,659.2,451.3,647.5,453.1z"/>
		<path class="st14" d="M649.2,207.3c3,12.1,5.9,31.9,1.2,42.5c0,0,17.9,0.8,40.8,19.1c10.8-15.8-1.7-18.9-1.7-18.9
			c-9.5-2.2-9-14.9-9-23.9L649.2,207.3z"/>
		<g>
			<path class="st7" d="M644.7,255.3c-8.9-1-2.8-18,1.9-16.3c11.7,4.2,38.1-0.5,46.2,4c8.1,4.5,6.1,13.7,6.1,13.7
				S654.3,256.4,644.7,255.3z"/>
			<path class="st16" d="M644.7,255.3c-8.9-1-2.8-18,1.9-16.3c11.7,4.2,38.1-0.5,46.2,4c8.1,4.5,6.1,13.7,6.1,13.7
				S654.3,256.4,644.7,255.3z"/>
		</g>
		<path class="st15" d="M696.8,185.9c0.3,1.6,1.4,2.8,2.4,2.6c1.1-0.2,1.7-1.7,1.4-3.3c-0.3-1.6-1.4-2.8-2.4-2.6
			C697.2,182.8,696.5,184.3,696.8,185.9z"/>
		<path class="st15" d="M697.8,182.8l3.7-1.8C701.5,181,700,184.4,697.8,182.8z"/>
		<path class="st15" d="M699,172.9c0.1-0.2,0.2-0.5,0.1-0.7c-0.1-0.5-0.7-0.8-1.2-0.7c-5.2,1.4-6.6,5.6-6.7,5.8
			c-0.2,0.5,0.1,1.1,0.6,1.2c0.5,0.2,1.1-0.1,1.2-0.6c0.1-0.2,1.2-3.4,5.3-4.5C698.7,173.3,698.9,173.1,699,172.9z"/>
		<path class="st17" d="M698.7,189.8c0,0,3.5,6.8,6.9,9.9c-2,2.2-5.7,1.7-5.7,1.7L698.7,189.8z"/>
		<path class="st14" d="M641.3,185c4.7,19.7,6.3,28.2,18,36.7c17.6,12.8,40.3,2.7,41.5-18c1-18.7-6.9-47.8-27.4-52.4
			C653.1,146.8,636.6,165.3,641.3,185z"/>
		<path class="st15" d="M679.5,188.7c11.6-15.4,19.2-27.8,13.5-41.4c-4.8-11.4-18-8-19.9-2.4c-35.2-3-47.9,9.8-40.6,30.9
			c4.6,13.5-13.4,6.5-9,23.6c3.4,13.1-8.5,18.1-2.5,25.6c8.7,10.9,26.6-3.3,47,4.8C684.8,236.6,709.9,226.5,679.5,188.7z"/>
		<path class="st14" d="M677.7,191.8c2.3,3.6,5.7,5.6,8.8,6.1c4.6,0.7,6.2-4.5,4.3-9.3c-1.7-4.3-6.2-9.9-10.5-8.4
			C676,181.7,675,187.7,677.7,191.8z"/>
		<path class="st15" d="M684.5,774.7c-3,0-7.8-2.3-10.1-4.4c-0.2-0.2-0.2-0.4-0.2-0.6c0.1-0.2,0.3-0.4,0.5-0.4
			c0.3,0,8.6-0.9,11.3,1.3c0.6,0.5,0.9,1.1,1,1.8c0.1,0.9-0.3,1.7-1.1,2.1C685.6,774.6,685.1,774.7,684.5,774.7z M676.4,770.3
			c2.9,2,7.5,3.8,9,3c0.2-0.1,0.5-0.3,0.4-0.9c0-0.4-0.2-0.7-0.5-0.9C683.8,770.2,679.2,770.1,676.4,770.3z"/>
		<path class="st15" d="M674.9,770.4c-0.2,0-0.4-0.1-0.5-0.2c-0.1-0.2-0.2-0.4,0-0.6c0.2-0.3,4.3-7.5,7.7-8.4c0.7-0.2,1.4-0.1,2,0.3
			c0.8,0.5,1.2,1.2,1,2.1c-0.5,2.7-6.5,6.2-10.1,6.9C674.9,770.4,674.9,770.4,674.9,770.4z M682.8,762.3c-0.1,0-0.3,0-0.4,0.1
			c-2,0.5-4.7,4.2-6.2,6.5c3.3-1.1,7.5-3.8,7.8-5.5c0-0.2,0-0.5-0.5-0.9C683.3,762.3,683,762.3,682.8,762.3z"/>
		<path class="st10" d="M700.3,782.1c-17.2-1.3-28.8-13.2-27.6-25.7c0.7-6.9-21.4-7.5-21.4-7.5c3.5,21.4-0.9,24.5-2.3,30
			c-1.4,5.6-1.1,11.7,3.5,11.8c5.5,0.1,8-0.9,14.8-0.6c8,0.3,16.6,0.6,30.7,0.6C703.6,790.7,708,782.7,700.3,782.1z"/>
		<path class="st15" d="M721,378.5c0,0-1.5,105.7-9.8,175.2c-8.3,69.5-37,205.7-37,205.7c-8.3,1.6-16.1,1.9-22.9-0.2
			c0,0-9.1-106.4,6.2-209.3c-11.2-107.8-18.2-171.4-18.2-171.4H721z"/>
		<path class="st10" d="M724.9,280.7c-0.4,8.2,12.5,27.1-3.4,38c3,6.6,5.5,51.7-0.5,59.8c-8.8,6.5-56.3,5.2-95.8,0
			c-1.7-16.3,7.3-50.1-3.7-102.7c-2.5-12.2,6-23.9,18.4-25.2c3.3-0.3,6.8-0.6,10.4-0.8c14-0.7,25.4-1.1,37.7,0
			c4.1,0.4,8.3,0.9,12.3,1.5C714.9,253.3,725.5,266,724.9,280.7z"/>
		<g class="st18">
			<path class="st15" d="M622.5,272.9c-0.3,0.2-0.6,0.3-0.9,0.5l0,0c0,0,0,0,0,0c-0.3,0.1-0.4,0.5-0.2,0.7c0.1,0.3,0.5,0.4,0.7,0.2
				c0.3-0.2,0.6-0.4,1-0.5c4.2,1.6,8.8,5.1,11.4,5.4c-4.2-3.7-7.3-6.4-10.6-5.9c1-0.6,2-1.2,3-1.8c3.9,1.4,8.1,4.7,10.5,5
				c-3.9-3.5-6.7-5.9-9.8-5.4c0.7-0.5,1.5-1,2.2-1.5c0.4-0.3,0.8-0.6,1.2-0.9c3.5,1.5,7.2,4.7,9.4,5.2c-3.5-3.5-6-5.9-9-5.5
				c0.9-0.7,1.8-1.4,2.8-2.1c3.2,1.4,6.6,4.3,8.6,4.7c-3.2-3.2-5.5-5.5-8.3-5c0.8-0.6,1.5-1.3,2.3-1.9c0.2-0.2,0.4-0.3,0.5-0.5
				c2.8,1.5,5.6,4.4,7.5,5c-2.7-3.2-4.5-5.4-7.4-5.1c0.7-0.6,1.4-1.3,2.2-1.9c2.6,1.4,5.2,4.1,6.9,4.6c-2.5-3-4.2-5-6.8-4.7
				c0.8-0.7,1.5-1.4,2.2-2.1c2.3,1.4,4.5,4,6,4.5c-2-2.8-3.5-4.7-5.8-4.6c0.4-0.4,0.8-0.8,1.2-1.2c0.2-0.2,0.5-0.5,0.7-0.7
				c2.1,1.3,4.1,3.6,5.5,4.1c-1.9-2.6-3.2-4.4-5.4-4.3c0.6-0.6,1.2-1.3,1.8-1.9c1.9,1,3.7,3,5,3.4c-1.7-2.2-2.9-3.7-4.9-3.5
				c0.1-0.1,0.2-0.2,0.3-0.4c0.4-0.5,0.9-1,1.3-1.5c1.8,1,3.4,2.7,4.6,3.1c-1.5-2-2.6-3.4-4.5-3.2c0.5-0.6,1-1.2,1.4-1.9
				c0.1-0.1,0-0.2,0-0.2c-0.1-0.1-0.2,0-0.2,0l0,0c-0.4,0.6-0.9,1.2-1.3,1.7c0.2-0.9-0.2-1.8-0.8-2.8c-0.2,0-0.5,0-0.7,0
				c0.4,1,0.9,2.1,1.2,3.2c-0.4,0.4-0.8,0.9-1.2,1.3c-0.1,0.1-0.2,0.2-0.3,0.3c0.4-1.5-0.4-2.9-1.6-4.6c-0.1,0-0.3,0-0.4,0
				c0.3,1.3,1.3,3.1,1.7,4.9c-0.6,0.6-1.1,1.2-1.7,1.7c0.5-2-0.8-3.7-2.7-6.1c0.1,1.5,1.8,4,2.5,6.4c-0.2,0.2-0.4,0.4-0.6,0.6
				c-0.4,0.4-0.8,0.7-1.2,1.1c0.5-2.1-0.9-4-3-6.6c0.1,1.6,1.9,4.3,2.7,6.9c-0.7,0.6-1.4,1.2-2,1.8c0.4-2.1-1-4.2-2.9-7
				c0,1.7,1.7,4.7,2.4,7.4c-0.6,0.5-1.1,1-1.7,1.4c0.5-2.3-1-4.6-3.2-7.6c0,1.8,1.9,5.1,2.6,8.1c-0.1,0.1-0.3,0.2-0.4,0.4
				c-0.8,0.6-1.6,1.3-2.4,1.9c0.6-2.4-0.8-5-2.9-8.6c-0.2,2,1.6,5.8,2.2,9.2c-0.9,0.7-1.8,1.3-2.7,2c1-2.7-0.6-5.7-2.9-9.8
				c-0.2,2.2,1.8,6.5,2.4,10.2c-0.3,0.2-0.5,0.4-0.8,0.6c-0.8,0.6-1.7,1.1-2.5,1.6c1.2-2.7-0.2-5.9-2.3-10.2
				c-0.1,0.2-0.2,0.3-0.3,0.5c0.2,2.6,1.6,6.6,2,10.2c-1,0.6-1.9,1.1-2.9,1.7c1.1-2.2,0.5-4.8-0.9-8c-0.3,0.9-0.6,1.8-0.7,2.8
				C621.9,269.2,622.3,271.1,622.5,272.9z"/>
			<path class="st15" d="M676.9,258.2c-3.2-2.1-6.4-5.8-8.5-6.6c2.9,4,5,6.8,8,6.8c-1,0.5-2,1.1-3.1,1.7c-2.9-1.9-5.8-5.3-7.8-6.1
				c2.7,3.7,4.6,6.3,7.4,6.3c-0.9,0.5-1.7,1-2.6,1.5c-0.2,0.1-0.4,0.3-0.6,0.4c-2.6-1.9-4.9-5.3-6.6-6.1c2.1,3.6,3.6,6.1,6.5,6.2
				c-0.8,0.5-1.6,1-2.4,1.6c-2.4-1.8-4.5-4.8-6.1-5.6c2,3.3,3.3,5.6,5.9,5.7c-0.9,0.6-1.7,1.1-2.5,1.7c-2-1.7-3.8-4.6-5.2-5.4
				c1.6,3.1,2.7,5.2,5,5.5c-0.5,0.3-0.9,0.6-1.4,1c-0.3,0.2-0.5,0.4-0.8,0.6c-1.9-1.6-3.5-4.3-4.8-5c1.5,2.8,2.5,4.8,4.6,5.1
				c-0.7,0.5-1.4,1.1-2.1,1.6c-1.7-1.3-3.2-3.6-4.4-4.1c1.3,2.4,2.3,4.1,4.3,4.2c-0.1,0.1-0.3,0.2-0.4,0.3c-0.5,0.4-1,0.8-1.5,1.3
				c-1.6-1.2-2.9-3.3-4-3.8c1.2,2.2,2.1,3.7,3.9,3.9c-0.6,0.5-1.2,1.1-1.7,1.6c-0.1,0.1-0.1,0.2,0,0.2c0.1,0.1,0.2,0.1,0.2,0l0,0
				c0.5-0.5,1-1,1.6-1.5c-0.5,1.4,0.2,2.9,1.3,4.9c0.2-1.2-0.7-3.3-0.9-5.2c0.4-0.4,0.9-0.7,1.3-1.1c0.1-0.1,0.2-0.2,0.3-0.2
				c-0.7,1.6,0.1,3.3,1.3,5.6c0.2-1.3-0.8-3.7-1-5.8c0.6-0.5,1.3-1,2-1.4c-0.8,1.8,0.2,3.8,1.7,6.5c0.1-1.5-1.1-4.2-1.4-6.7
				c0.2-0.2,0.5-0.3,0.7-0.5c0.4-0.3,0.9-0.6,1.3-0.9c-0.9,2,0.3,4.1,1.9,7c0.2-1.6-1.2-4.6-1.6-7.2c0.8-0.5,1.5-1,2.3-1.5
				c-0.8,2,0.3,4.3,1.8,7.4c0.3-1.7-1-4.9-1.2-7.7c0.6-0.4,1.3-0.8,1.9-1.2c-0.9,2.2,0.3,4.7,1.9,8c0.3-1.8-1-5.3-1.3-8.4
				c0.2-0.1,0.3-0.2,0.5-0.3c0.9-0.5,1.7-1,2.6-1.5c-1,2.2,0,5.1,1.5,9c0.5-1.9-0.7-6-0.7-9.4c1-0.5,2-1,3-1.5
				c-1.4,2.5-0.3,5.7,1.3,10.2c0.5-2.1-0.8-6.7-0.7-10.5c0.3-0.1,0.6-0.3,0.9-0.4c0.9-0.4,1.8-0.8,2.8-1.2
				c-1.7,2.6-0.6,6.2,0.9,11.1c0.7-2.3-0.4-7.3-0.1-11.4c1-0.4,2.1-0.8,3.1-1.2c-2,2.8-0.9,6.8,0.8,12.3c0.8-2.5-0.5-8-0.1-12.5
				c0.3-0.1,0.6-0.2,1-0.3l0,0c0,0,0,0,0,0c0.3-0.1,0.4-0.4,0.3-0.7c-0.1-0.3-0.4-0.4-0.7-0.3c-0.3,0.1-0.7,0.3-1,0.4
				c-2.5-1.4-4.9-3.6-7.1-5.2c-0.6,0-1.1,0-1.7,0c2.8,3.3,5,5.5,7.9,5.5c-1.1,0.4-2.2,0.9-3.2,1.3c-3.6-2-7.2-5.9-9.6-6.6
				c3.3,4,5.7,6.9,8.8,6.9c-0.8,0.4-1.6,0.7-2.4,1.1C677.7,257.7,677.3,257.9,676.9,258.2z"/>
			<path class="st15" d="M650.3,297.9c-2.3-2.5-4-4.3-6.3-4c0.4-0.4,0.7-0.9,1.1-1.3c0.2-0.3,0.4-0.5,0.6-0.8c2.2,1,4.5,3.2,5.9,3.5
				c-2.2-2.4-3.7-4-5.8-3.7c0.5-0.7,1.1-1.4,1.6-2.1c2,0.8,4,2.6,5.4,2.8c-1.9-2-3.3-3.3-5.3-2.9c0.1-0.1,0.2-0.3,0.3-0.4
				c0.4-0.5,0.7-1.1,1.1-1.6c1.8,0.8,3.7,2.4,4.9,2.6c-1.8-1.8-3-3-4.8-2.7c0.4-0.7,0.8-1.3,1.2-2c0-0.1,0-0.2-0.1-0.2
				c-0.1,0-0.2,0-0.2,0.1l0,0c-0.3,0.6-0.7,1.3-1.1,1.9c0.1-1.5-1-2.7-2.5-4.4c0.1,1.2,1.6,3,2.2,4.8c-0.3,0.5-0.7,0.9-1,1.4
				c-0.1,0.1-0.2,0.2-0.2,0.3c0.3-1.8-1-3.1-2.7-5c0.2,1.3,1.7,3.3,2.5,5.3c-0.5,0.6-1,1.3-1.5,1.9c0.3-2-1.2-3.6-3.4-5.8
				c0.3,1.4,2.2,3.8,3.2,6.1c-0.2,0.2-0.4,0.4-0.5,0.7c-0.3,0.4-0.7,0.8-1,1.2c0.3-2.1-1.3-3.8-3.7-6.2c0.3,1.6,2.4,4.1,3.4,6.5
				c-0.6,0.7-1.2,1.4-1.8,2.1c0.2-2.2-1.4-4.1-3.7-6.7c0.2,1.7,2.2,4.5,3.2,7.1c-0.5,0.5-1,1.1-1.5,1.6c0.2-2.3-1.5-4.4-4-7.2
				c0.2,1.8,2.4,4.8,3.5,7.7c-0.1,0.1-0.3,0.3-0.4,0.4c-0.7,0.7-1.4,1.4-2.1,2.1c0.4-2.4-1.4-4.9-3.8-8.3c0.1,2,2.2,5.6,3.2,8.9
				c-0.8,0.8-1.6,1.5-2.5,2.3c0.7-2.8-1.3-5.6-4-9.5c0.1,2.2,2.5,6.3,3.5,9.9c-0.2,0.2-0.5,0.4-0.7,0.6c-0.8,0.7-1.6,1.3-2.3,1.9
				c0.9-2.9-1.1-6.1-3.8-10.5c-0.1,2.4,2.4,6.9,3.2,11c-0.9,0.7-1.8,1.3-2.7,2c0.7-1.9,0.2-3.8-0.8-6c0.3,2.5,0.5,5,0.6,7.4
				c0.1-0.1,0.2-0.1,0.3-0.2c4.4,1.1,9.3,4.1,12,4.1c-4.6-3.2-7.9-5.5-11.2-4.7c0.9-0.7,1.8-1.4,2.7-2.1c4,1,8.6,3.7,11,3.8
				c-4.3-3-7.3-5.1-10.4-4.3c0.7-0.6,1.3-1.1,2-1.7c0.4-0.3,0.7-0.7,1.1-1c3.6,1.1,7.7,3.9,9.9,4.1c-3.9-3.1-6.6-5.2-9.5-4.4
				c0.8-0.8,1.7-1.6,2.5-2.4c3.3,1,7.1,3.6,9.1,3.8c-3.6-2.8-6.1-4.8-8.8-4.1c0.7-0.7,1.4-1.4,2.1-2.2c0.2-0.2,0.3-0.4,0.5-0.5
				c3,1.2,6.1,3.8,8,4.1c-3-2.9-5.1-4.9-7.9-4.2c0.7-0.7,1.3-1.4,1.9-2.1c2.7,1.1,5.6,3.5,7.4,3.8c-2.8-2.7-4.7-4.5-7.2-3.9
				c0.7-0.8,1.3-1.5,2-2.3C646.3,295.3,648.7,297.6,650.3,297.9z"/>
			<path class="st15" d="M687.3,296.4c-1.5,0.7-3.6,3.4-5.9,5.2c-0.7-0.3-1.3-0.6-2-1c2.3-0.5,3.8-2.8,5.8-5.9
				c-1.7,0.7-3.9,3.7-6.4,5.6c-0.2-0.1-0.3-0.2-0.5-0.3c-0.9-0.5-1.8-0.9-2.6-1.4c2.4-0.4,4.3-2.8,6.8-6c-1.9,0.6-4.7,3.8-7.6,5.6
				c-1-0.5-1.9-1.1-2.9-1.7c2.9-0.1,5-2.8,7.9-6.6c-2.1,0.7-5.2,4.3-8.4,6.3c-0.3-0.2-0.6-0.3-0.8-0.5c-0.9-0.5-1.7-1.1-2.5-1.7
				c3.1,0,5.5-2.8,8.9-6.7c-2.3,0.6-5.9,4.3-9.5,6.3c-0.9-0.6-1.8-1.3-2.7-2c3.5,0.2,6.2-2.9,9.9-7.3c-2.5,0.7-6.5,4.7-10.4,6.8
				c-0.3-0.2-0.5-0.4-0.8-0.6l0,0c0,0,0,0,0,0c-0.2-0.2-0.6-0.1-0.8,0.1c-0.2,0.2-0.1,0.6,0.1,0.8c0.3,0.2,0.6,0.4,0.9,0.7
				c0.2,4.5-1.2,10.1-0.5,12.6c1.7-5.4,3-9.2,1.2-12.1c0.9,0.7,1.9,1.3,2.9,2c0.2,4.1-1.1,9.3-0.4,11.6c1.6-5,2.8-8.5,1.1-11.2
				c0.7,0.5,1.5,0.9,2.2,1.4c0.4,0.3,0.9,0.5,1.3,0.8c0,3.8-1.5,8.5-1,10.7c1.8-4.6,3.1-7.9,1.5-10.4c1,0.6,2,1.1,3,1.7
				c0,3.5-1.4,7.8-0.9,9.8c1.7-4.2,2.8-7.2,1.3-9.6c0.9,0.5,1.8,0.9,2.7,1.4c0.2,0.1,0.4,0.2,0.7,0.3c-0.2,3.2-1.8,6.9-1.6,8.8
				c1.9-3.7,3.2-6.3,1.7-8.8c0.9,0.4,1.7,0.8,2.6,1.2c-0.2,2.9-1.7,6.4-1.5,8.1c1.7-3.4,2.9-5.8,1.6-8.1c0.9,0.4,1.9,0.8,2.8,1.2
				c-0.4,2.6-1.9,5.7-1.8,7.3c1.8-3,3-5.1,2-7.2c0.5,0.2,1,0.4,1.6,0.6c0.3,0.1,0.6,0.2,0.9,0.3c-0.4,2.4-1.7,5.2-1.6,6.7
				c1.6-2.8,2.7-4.7,1.8-6.6c0.8,0.3,1.7,0.6,2.5,0.9c-0.2,2.2-1.3,4.6-1.1,5.9c1.3-2.4,2.2-4.1,1.2-5.9c0.2,0.1,0.3,0.1,0.5,0.2
				c0.6,0.2,1.2,0.4,1.9,0.6c-0.2,2-1.2,4.2-1,5.4c1.2-2.2,2-3.7,1.2-5.4c0.8,0.2,1.5,0.4,2.3,0.6c0.1,0,0.2,0,0.2-0.1
				c0-0.1,0-0.2-0.1-0.2l0,0c-0.7-0.1-1.4-0.3-2.1-0.6c1.5-0.3,2.3-1.8,3.5-3.7c-1.1,0.5-2.4,2.4-4,3.6c-0.5-0.2-1.1-0.4-1.6-0.6
				c-0.1,0-0.3-0.1-0.4-0.1c1.8-0.3,2.7-1.9,4-4.1c-1.2,0.5-2.7,2.6-4.4,3.9c-0.8-0.3-1.5-0.6-2.3-0.9c2-0.3,3.1-2.2,4.5-4.9
				c-1.3,0.7-3,3.2-4.9,4.8c-0.3-0.1-0.5-0.2-0.8-0.3c-0.5-0.2-1-0.4-1.5-0.6c2.1-0.3,3.3-2.4,4.9-5.3c-1.4,0.7-3.2,3.5-5.2,5.2
				c-0.8-0.4-1.7-0.8-2.5-1.1C684.2,301.4,685.5,299.3,687.3,296.4z"/>
			<path class="st15" d="M675,324.7c1.9,0.6,3.8,2.1,5,2.2c-1.9-1.7-3.2-2.9-4.9-2.4c0.4-0.7,0.7-1.4,1.1-2.1c0-0.1,0-0.2-0.1-0.2
				c-0.1,0-0.2,0-0.2,0.1l0,0c-0.3,0.7-0.7,1.3-1,1.9c0-1.5-1.2-2.7-2.8-4.2c0.2,1.2,1.7,2.9,2.5,4.7c-0.3,0.5-0.6,1-0.9,1.5
				c-0.1,0.1-0.2,0.2-0.2,0.3c0.2-1.8-1.2-3.1-3-4.8c0.2,1.3,1.9,3.2,2.8,5.2c-0.4,0.7-0.9,1.3-1.4,2c0.2-2-1.4-3.5-3.7-5.6
				c0.3,1.4,2.5,3.6,3.5,5.8c-0.2,0.2-0.3,0.5-0.5,0.7c-0.3,0.4-0.6,0.9-1,1.3c0.2-2.2-1.6-3.7-4.1-6c0.4,1.5,2.7,3.9,3.8,6.3
				c-0.6,0.7-1.1,1.5-1.7,2.2c0.1-2.2-1.7-4-4.1-6.4c0.3,1.7,2.5,4.3,3.7,6.9c-0.5,0.6-0.9,1.1-1.4,1.7c0.1-2.4-1.8-4.3-4.4-7
				c0.3,1.8,2.7,4.7,4,7.5c-0.1,0.1-0.2,0.3-0.4,0.4c-0.7,0.8-1.3,1.5-2,2.2c0.2-2.4-1.7-4.8-4.3-8c0.2,2,2.6,5.4,3.7,8.7
				c-0.8,0.8-1.5,1.6-2.3,2.4c0.5-2.8-1.6-5.5-4.6-9.2c0.2,2.2,2.9,6.1,4.1,9.7c-0.2,0.2-0.5,0.5-0.7,0.7c-0.7,0.7-1.5,1.4-2.2,2.1
				c0.7-3-1.4-6-4.5-10.2c0.1,2.4,2.8,6.8,3.9,10.7c-0.8,0.7-1.7,1.5-2.6,2.2c1-3.3-1.4-6.7-4.8-11.3c0.1,2.6,3.1,7.4,4.2,11.7
				c-0.3,0.2-0.5,0.4-0.8,0.6l0,0c0,0,0,0,0,0c-0.2,0.2-0.3,0.5-0.1,0.8c0.2,0.2,0.5,0.3,0.8,0.1c0.3-0.2,0.6-0.5,0.9-0.7
				c4.4,0.8,9.6,3.5,12.2,3.4c-4.8-2.9-8.3-5-11.4-4c0.9-0.7,1.7-1.5,2.6-2.3c4.1,0.7,8.8,3.2,11.2,3.1c-4.5-2.7-7.7-4.7-10.6-3.6
				c0.6-0.6,1.3-1.2,1.9-1.8c0.4-0.4,0.7-0.7,1-1.1c3.7,0.9,7.9,3.4,10.2,3.5c-4.1-2.8-6.9-4.8-9.8-3.8c0.8-0.8,1.6-1.7,2.3-2.6
				c3.4,0.8,7.3,3.1,9.3,3.2c-3.7-2.6-6.4-4.4-9-3.5c0.7-0.8,1.3-1.5,1.9-2.3c0.2-0.2,0.3-0.4,0.5-0.6c3,1,6.3,3.4,8.2,3.6
				c-3.2-2.7-5.4-4.6-8.1-3.7c0.6-0.7,1.2-1.5,1.8-2.3c2.8,0.9,5.8,3.1,7.6,3.3c-2.9-2.5-5-4.2-7.5-3.4c0.6-0.8,1.2-1.6,1.8-2.5
				c2.5,1,5.1,3.1,6.6,3.4c-2.5-2.4-4.3-4.1-6.5-3.6c0.3-0.5,0.7-0.9,1-1.4c0.2-0.3,0.4-0.5,0.5-0.8c2.3,0.9,4.7,2.9,6.1,3.1
				c-2.3-2.2-3.9-3.8-6-3.3c0.5-0.7,1-1.5,1.5-2.2c2.1,0.7,4.2,2.3,5.5,2.5c-2-1.9-3.5-3.1-5.5-2.6c0.1-0.1,0.2-0.3,0.3-0.4
				C674.4,325.9,674.7,325.3,675,324.7z"/>
			<path class="st15" d="M687.9,348.5c0.4-0.6,0.9-1.1,1.4-1.7c-0.3,1.5,0.6,2.9,1.9,4.7c0-1.2-1.1-3.2-1.5-5.1
				c0.4-0.4,0.8-0.8,1.2-1.2c0.1-0.1,0.2-0.2,0.3-0.3c-0.5,1.7,0.5,3.2,2,5.4c0-1.3-1.2-3.5-1.7-5.6c0.6-0.6,1.2-1.1,1.8-1.7
				c-0.6,1.9,0.7,3.7,2.5,6.2c0-1.5-1.7-4.1-2.2-6.5c0.2-0.2,0.4-0.4,0.6-0.6c0.4-0.4,0.8-0.7,1.2-1.1c-0.6,2.1,0.8,4,2.7,6.7
				c0-1.6-1.8-4.4-2.4-7c0.7-0.6,1.4-1.2,2.1-1.8c-0.5,2.1,0.8,4.2,2.7,7.1c0-1.7-1.6-4.7-2.2-7.5c0.6-0.5,1.2-0.9,1.7-1.4
				c-0.6,2.3,0.9,4.6,2.9,7.7c0.1-1.8-1.7-5.1-2.3-8.2c0.2-0.1,0.3-0.2,0.5-0.4c0.8-0.6,1.6-1.2,2.4-1.8c-0.7,2.3,0.7,5,2.5,8.7
				c0.2-2-1.4-5.8-1.8-9.2c0.9-0.6,1.8-1.3,2.8-1.9c-1.1,2.6,0.4,5.7,2.6,9.9c0.3-2.2-1.6-6.6-2-10.3c0.3-0.2,0.5-0.4,0.8-0.5
				c0.9-0.5,1.7-1.1,2.6-1.6c-1.3,2.8,0.1,6.2,2.2,10.9c0.4-2.3-1.3-7.2-1.5-11.3c1-0.5,2-1.1,2.9-1.6c-1.6,3.1,0,6.8,2.3,12.1
				c0.5-2.6-1.4-7.9-1.7-12.4c0.3-0.1,0.6-0.3,0.9-0.4l0,0c0,0,0,0,0,0c0.3-0.1,0.4-0.5,0.2-0.7c-0.1-0.3-0.5-0.4-0.7-0.2
				c-0.3,0.2-0.7,0.3-1,0.5c-4.2-1.7-8.6-5.4-11.2-5.9c4.1,3.9,7,6.7,10.4,6.3c-1,0.5-2,1.1-3,1.7c-3.8-1.6-7.9-5-10.3-5.4
				c3.8,3.6,6.5,6.2,9.6,5.8c-0.7,0.5-1.5,0.9-2.2,1.4c-0.4,0.3-0.8,0.6-1.2,0.8c-3.4-1.6-7-5-9.2-5.5c3.4,3.6,5.8,6.2,8.8,5.8
				c-1,0.7-1.9,1.3-2.8,2c-3.2-1.5-6.5-4.6-8.5-5.1c3.1,3.3,5.3,5.7,8.1,5.3c-0.8,0.6-1.6,1.2-2.4,1.8c-0.2,0.2-0.4,0.3-0.6,0.5
				c-2.8-1.6-5.5-4.6-7.3-5.2c2.6,3.3,4.3,5.6,7.2,5.3c-0.8,0.6-1.5,1.2-2.2,1.8c-2.6-1.5-5-4.3-6.7-4.8c2.4,3,4,5.1,6.6,4.9
				c-0.8,0.7-1.5,1.3-2.3,2c-2.2-1.5-4.3-4.1-5.8-4.7c1.9,2.9,3.3,4.9,5.6,4.8c-0.4,0.4-0.8,0.8-1.2,1.1c-0.2,0.2-0.5,0.4-0.7,0.7
				c-2.1-1.4-4-3.8-5.3-4.3c1.8,2.6,3.1,4.5,5.2,4.5c-0.6,0.6-1.3,1.2-1.9,1.9c-1.9-1.1-3.6-3.1-4.9-3.6c1.6,2.2,2.7,3.8,4.8,3.7
				c-0.1,0.1-0.2,0.2-0.3,0.4c-0.5,0.5-0.9,1-1.3,1.4c-1.7-1-3.3-2.9-4.5-3.3c1.5,2,2.5,3.5,4.3,3.4c-0.5,0.6-1,1.2-1.5,1.8
				c-0.1,0.1,0,0.2,0,0.2C687.8,348.6,687.9,348.6,687.9,348.5L687.9,348.5z"/>
			<path class="st15" d="M663,378.8c0.8-0.8,1.7-1.6,2.5-2.4c3.3,1,7.1,3.6,9.1,3.8c-3.6-2.8-6.1-4.8-8.8-4.1
				c0.7-0.7,1.4-1.4,2.1-2.2c0.2-0.2,0.3-0.4,0.5-0.5c3,1.2,6.1,3.8,8,4.1c-3-2.9-5.1-4.9-7.9-4.2c0.7-0.7,1.3-1.4,1.9-2.1
				c2.7,1.1,5.6,3.5,7.4,3.8c-2.8-2.7-4.7-4.5-7.2-3.9c0.7-0.8,1.3-1.5,2-2.3c2.4,1.1,4.9,3.4,6.4,3.8c-2.3-2.5-4-4.3-6.3-4
				c0.4-0.4,0.7-0.9,1.1-1.3c0.2-0.3,0.4-0.5,0.6-0.8c2.2,1,4.5,3.2,5.9,3.5c-2.2-2.4-3.7-4-5.8-3.7c0.5-0.7,1.1-1.4,1.6-2.1
				c2,0.8,4,2.6,5.4,2.8c-1.9-2-3.3-3.3-5.3-2.9c0.1-0.1,0.2-0.3,0.3-0.4c0.4-0.5,0.7-1.1,1.1-1.6c1.8,0.8,3.7,2.4,4.9,2.6
				c-1.8-1.8-3-3-4.8-2.7c0.4-0.7,0.8-1.3,1.2-2c0-0.1,0-0.2-0.1-0.2c-0.1,0-0.2,0-0.2,0.1l0,0c-0.3,0.6-0.7,1.3-1.1,1.9
				c0.1-1.5-1-2.7-2.5-4.4c0.1,1.2,1.6,3,2.2,4.8c-0.3,0.5-0.7,0.9-1,1.4c-0.1,0.1-0.2,0.2-0.2,0.3c0.3-1.8-1-3.1-2.7-5
				c0.2,1.3,1.7,3.3,2.5,5.3c-0.5,0.6-1,1.3-1.5,1.9c0.3-2-1.2-3.6-3.4-5.8c0.3,1.4,2.2,3.8,3.2,6.1c-0.2,0.2-0.4,0.4-0.5,0.7
				c-0.3,0.4-0.7,0.8-1,1.2c0.3-2.1-1.3-3.8-3.7-6.2c0.3,1.6,2.4,4.1,3.4,6.5c-0.6,0.7-1.2,1.4-1.8,2.1c0.2-2.2-1.4-4.1-3.7-6.7
				c0.2,1.7,2.2,4.5,3.2,7.1c-0.5,0.5-1,1.1-1.5,1.6c0.2-2.3-1.5-4.4-4-7.2c0.2,1.8,2.4,4.8,3.5,7.7c-0.1,0.1-0.3,0.3-0.4,0.4
				c-0.7,0.7-1.4,1.4-2.1,2.1c0.4-2.4-1.4-4.9-3.8-8.3c0.1,2,2.2,5.6,3.2,8.9c-0.8,0.8-1.6,1.5-2.5,2.3c0.7-2.8-1.3-5.6-4-9.5
				c0.1,2.2,2.5,6.3,3.5,9.9c-0.2,0.2-0.5,0.4-0.7,0.6c-0.8,0.7-1.6,1.3-2.3,1.9c0.9-2.9-1.1-6.1-3.8-10.5
				c-0.1,2.4,2.3,6.8,3.2,10.8c0.5,0,1.1,0.1,1.6,0.1c0.7-0.6,1.3-1.1,2-1.7c0.4-0.3,0.7-0.7,1.1-1c2.5,0.8,5.2,2.3,7.4,3.3
				c0.5,0,1.1,0,1.6,0.1C668.2,379.8,665.7,378.1,663,378.8z"/>
			<path class="st15" d="M651.2,372.3c-0.1,2.1,1.6,5.6,2.7,9.2c0.5,0,1.1,0.1,1.6,0.1C655.4,378.9,653.6,376,651.2,372.3z"/>
			<path class="st15" d="M659.7,381.8c1.1,0.1,2.1,0.1,3.2,0.2C661.8,381.7,660.7,381.6,659.7,381.8z"/>
			<path class="st15" d="M721.6,377.4c0.1-0.1,0.1-0.3,0.2-0.4c-0.3-0.1-0.5-0.2-0.8-0.3c-0.1,0-0.3-0.1-0.4-0.1
				c0.6-0.1,1.2-0.4,1.6-0.8c0.2-0.6,0.4-1.1,0.5-1.8c-0.8,0.8-1.6,1.7-2.6,2.4c-0.8-0.3-1.5-0.6-2.3-0.9c2-0.3,3.1-2.2,4.5-4.9
				c-1.3,0.7-3,3.2-4.9,4.8c-0.3-0.1-0.5-0.2-0.8-0.3c-0.5-0.2-1-0.4-1.5-0.6c2.1-0.3,3.3-2.4,4.9-5.3c-1.4,0.7-3.2,3.5-5.2,5.2
				c-0.8-0.4-1.7-0.8-2.5-1.1c2.1-0.4,3.5-2.5,5.3-5.5c-1.5,0.7-3.6,3.4-5.9,5.2c-0.7-0.3-1.3-0.6-2-1c2.3-0.5,3.8-2.8,5.8-5.9
				c-1.7,0.7-3.9,3.7-6.4,5.6c-0.2-0.1-0.3-0.2-0.5-0.3c-0.9-0.5-1.8-0.9-2.6-1.4c2.4-0.4,4.3-2.8,6.8-6c-1.9,0.6-4.7,3.8-7.6,5.6
				c-1-0.5-1.9-1.1-2.9-1.7c2.9-0.1,5-2.8,7.9-6.6c-2.1,0.7-5.2,4.3-8.4,6.3c-0.3-0.2-0.6-0.3-0.8-0.5c-0.9-0.5-1.7-1.1-2.5-1.7
				c3.1,0,5.5-2.8,8.9-6.7c-2.3,0.6-5.9,4.3-9.5,6.3c-0.9-0.6-1.8-1.3-2.7-2c3.5,0.2,6.2-2.9,9.9-7.3c-2.5,0.7-6.5,4.7-10.4,6.8
				c-0.3-0.2-0.5-0.4-0.8-0.6l0,0c0,0,0,0,0,0c-0.2-0.2-0.6-0.1-0.8,0.1c-0.2,0.2-0.1,0.6,0.1,0.8c0.3,0.2,0.6,0.4,0.9,0.7
				c0.2,4.5-1.2,10.1-0.5,12.6c1.7-5.4,3-9.2,1.2-12.1c0.9,0.7,1.9,1.3,2.9,2c0.2,4.1-1.1,9.3-0.4,11.6c1.6-5,2.8-8.5,1.1-11.2
				c0.7,0.5,1.5,0.9,2.2,1.4c0.4,0.3,0.9,0.5,1.3,0.8c0,3.8-1.5,8.5-1,10.7c1.8-4.6,3.1-7.9,1.5-10.4c1,0.6,2,1.1,3,1.7
				c0,3.5-1.4,7.8-0.9,9.8c1.7-4.2,2.8-7.2,1.3-9.6c0.9,0.5,1.8,0.9,2.7,1.4c0.2,0.1,0.4,0.2,0.7,0.3c-0.2,3.2-1.8,6.9-1.6,8.8
				c1.9-3.7,3.2-6.3,1.7-8.8c0.9,0.4,1.7,0.8,2.6,1.2c-0.2,2.8-1.6,6.2-1.5,8c0,0,0.1,0,0.1,0c1.7-3.3,2.8-5.7,1.5-7.9
				c0.9,0.4,1.9,0.8,2.8,1.2c-0.3,2.1-1.3,4.5-1.7,6.2c0.2,0,0.4-0.1,0.6-0.1c1.4-2.4,2.2-4.2,1.3-6c0.5,0.2,1,0.4,1.6,0.6
				c0.3,0.1,0.6,0.2,0.9,0.3c-0.2,1.5-0.8,3.1-1.2,4.4c0.3-0.1,0.7-0.2,1-0.3c0.7-1.5,1-2.8,0.4-4.1c0.8,0.3,1.7,0.6,2.5,0.9
				c-0.1,0.7-0.2,1.4-0.4,2.2c0.3-0.2,0.7-0.4,0.9-0.6c0-0.5-0.1-1-0.4-1.6c0.2,0.1,0.3,0.1,0.5,0.2
				C721.1,377.2,721.3,377.3,721.6,377.4z"/>
			<path class="st15" d="M639.7,333L639.7,333C639.7,333,639.7,333,639.7,333c0.3-0.1,0.5-0.4,0.4-0.7c-0.1-0.3-0.4-0.5-0.7-0.4
				c-0.4,0.1-0.7,0.2-1.1,0.3c-3.8-2.5-7.5-6.9-9.9-7.8c3.3,4.6,5.7,7.8,9,8.1c-1.1,0.3-2.2,0.7-3.3,1.1c-2.6-1.7-5.1-4.3-7.1-6
				c0,0.5,0,1,0,1.5c2.1,2.8,4,4.6,6.4,4.8c-0.8,0.3-1.6,0.6-2.4,1c-0.5,0.2-0.9,0.4-1.4,0.6c-0.9-0.6-1.7-1.4-2.6-2.2
				c0,0.6,0,1.2,0,1.8c0.7,0.4,1.4,0.6,2.1,0.7c-0.7,0.3-1.5,0.7-2.2,1c0,0.3,0,0.6,0,0.9c0.9-0.4,1.9-0.8,2.9-1.2
				c-1.6,2.4-0.6,5.7,0.7,10.3c0.7-2.1-0.3-6.7-0.1-10.5c0.3-0.1,0.6-0.2,0.9-0.4c0.9-0.4,1.9-0.7,2.9-1c-1.8,2.5-1,6.1,0.1,11.1
				c0.8-2.2,0.1-7.3,0.6-11.4c1.1-0.4,2.1-0.7,3.2-1c-2.2,2.7-1.3,6.7,0,12.3c0.9-2.4,0.1-8,0.7-12.5
				C639.1,333.2,639.4,333.1,639.7,333z"/>
			<path class="st15" d="M626.6,346.3c0.1,0.3,0.1,0.5,0.2,0.8c0.4-1.2,0.2-3.3,0-5.6C626.7,343.2,626.6,344.8,626.6,346.3z"/>
			<path class="st15" d="M634.1,377.4c-0.3-0.4-0.5-0.8-0.8-1.3c1.7-3.4,5.2-6.9,5.7-9.1c-3.7,3.3-6.3,5.6-6,8.6
				c-0.6-1-1.3-1.9-2-2.9c1.6-3.1,4.7-6.3,5.3-8.3c-3.4,3-5.8,5.2-5.5,7.9c-0.6-0.8-1.2-1.6-1.8-2.4c-0.1-0.2-0.3-0.4-0.4-0.6
				c1.7-2.7,4.8-5.4,5.4-7.2c-3.4,2.5-5.7,4.2-5.5,7c-0.6-0.8-1.2-1.5-1.8-2.3c1.5-2.5,4.4-4.9,5-6.6c-3.1,2.3-5.2,3.9-5.1,6.5
				c-0.4-0.5-0.9-1.1-1.3-1.6c0,0.3,0,0.6-0.1,0.9c0.3,0.3,0.5,0.6,0.8,0.9c-0.3-0.1-0.5-0.1-0.8-0.1c0,0.3,0,0.6,0,0.9
				c0.4-0.1,0.8-0.2,1.2-0.3c0.4,0.6,0.9,1.2,1.3,1.8c-0.9-0.2-1.7-0.2-2.6,0.1c0,0.4,0,0.9-0.1,1.3c1-0.3,2.1-0.6,3.1-0.8
				c0.1,0.2,0.2,0.3,0.3,0.5c0.6,0.8,1.2,1.6,1.7,2.5c-1.5-0.5-3.2-0.1-5.2,0.7c0,0.4,0,0.8,0,1.2c1.8-0.4,3.8-0.9,5.7-1.1
				c0.6,0.9,1.2,1.9,1.8,2.8c-2-0.9-4.4-0.2-7.3,1.1c0,0.3,0,0.6,0.1,0.9c0.2,0,0.3,0,0.5,0.1c2.2-0.5,4.8-1.2,7.2-1.4
				c0.2,0.3,0.3,0.6,0.5,0.8c0.3,0.5,0.6,1.1,0.9,1.6c0.4,0,0.8,0.1,1.2,0.1C635,378.9,634.6,378.2,634.1,377.4z"/>
			<path class="st15" d="M625.8,358.1c0,0.3,0,0.7-0.1,1c0.7-0.7,1.3-1.4,1.5-1.9C626.7,357.5,626.2,357.8,625.8,358.1z"/>
			<path class="st15" d="M638.3,380c0.6,0.1,1.3,0.1,1.9,0.2c1.7-2.7,3.5-5.2,3.8-6.9C641.5,375.8,639.4,377.9,638.3,380z"/>
			<path class="st15" d="M636.2,379.8c1.8-3.6,4.9-7.3,5.3-9.5c-3.7,3.7-6.3,6.3-6,9.5C635.7,379.7,635.9,379.8,636.2,379.8z"/>
			<path class="st15" d="M625.5,361.9c0,0.6-0.1,1.1-0.1,1.7c1.5-1.8,3.6-3.5,4.1-4.7C627.8,360,626.4,360.9,625.5,361.9z"/>
		</g>
		<path class="st14" d="M773.3,309.9l9.4-10l13,18.3c0,0-11,7.8-21.5,7.5l-1.2-2.7C771,318.7,771.1,313.9,773.3,309.9z"/>
		<path class="st14" d="M797.8,300.9l3.7,6.9c1.7,3.2,0.5,7.1-2.7,8.8l-3.1,1.7l-13-18.3l7.4-2.2
			C793.1,296.8,796.3,298.2,797.8,300.9z"/>
		<path class="st14" d="M723.6,274.1l0.8,4.1l0.9,4.3c0.6,2.9,1.3,5.7,2,8.6c1.4,5.7,3,11.3,4.8,16.7c1.8,5.4,3.9,10.5,6.3,15.1
			c2.4,4.5,5.2,8.5,7.8,10.9l-4.5-2.2c-1.3-0.2-1.6,0.2-0.9,0.2c0.7,0,1.9-0.3,3.2-0.9c2.7-1.2,5.9-3.1,9.1-5.3
			c3.2-2.2,6.4-4.6,9.5-7.2c3.2-2.5,6.4-5.3,9.5-7.8l0.3-0.3c3.2-2.6,7.9-2.2,10.5,1c1.9,2.4,2.2,5.6,0.9,8.2
			c-2.2,4.2-4.5,8-7.1,11.8c-2.6,3.8-5.5,7.4-8.7,11c-3.3,3.5-6.8,7-11.5,10.2c-2.4,1.6-5,3.1-8.5,4.3c-1.7,0.6-3.7,1.1-6,1.3
			c-2.3,0.2-4.9,0.1-7.6-0.5c-1.5-0.4-2.8-1-4-1.9l-0.5-0.4c-7.4-5.4-12.3-11.8-16.2-18.1c-1.9-3.2-3.7-6.4-5.2-9.6
			c-1.5-3.2-2.9-6.4-4.2-9.7c-2.5-6.4-4.5-12.9-6.2-19.5c-0.8-3.3-1.6-6.5-2.3-9.8c-0.3-1.6-0.7-3.3-0.9-5c-0.3-1.7-0.5-3.3-0.8-5.2
			c-1.1-8.1,4.6-15.7,12.7-16.8c7.9-1.1,15.1,4.2,16.6,11.9L723.6,274.1z"/>
		<path class="st15" d="M703.2,251.8c12.4,1.3,22.3,9.5,29.2,35.6c-5.3,7.4-38.8,23.5-38.8,23.5S674.9,248.8,703.2,251.8z"/>
	</g>
</g>
<g transform="scale(.5,.5)">
	<path id="A" class="st19" d="M1775.5,349.5l42.4,2.2l-2.2,42.4l-42.4-2.2L1775.5,349.5z M1790.3,371.5l10.6,0.5"/>
	<g>
		<path id="A_1_" class="st19" d="M1871,354.4l42.4,2.2l-2.2,42.4l-42.4-2.2L1871,354.4z M1885.8,376.4l10.6,0.5"/>
	</g>
	<g>
		<path id="A_2_" class="st19" d="M1770.6,444.9l42.4,2.2l-2.2,42.4l-42.4-2.2L1770.6,444.9z M1785.4,467l10.6,0.5"/>
	</g>
	<path class="st19" d="M1855.1,353.5l-15.9-0.8l-1.1,21.2l10.6,0.5l-1.1,21.2l-10.6-0.5l-0.8,15.9"/>
	<path class="st19" d="M1766.9,412.8l10.6,0.5 M1788.1,413.9l21.2,1.1 M1841.2,416.7l10.6,0.5 M1862.4,417.7l21.2,1.1 M1904.8,419.9
		l10.6,0.5"/>
	<path class="st19" d="M1777,424l10.6,0.5 M1798.2,425.1l42.4,2.2 M1872.5,428.9l10.6,0.5 M1893.7,430l21.2,1.1"/>
	<path class="st19" d="M1829.5,437.3l10.6,0.5 M1850.7,438.4l10.6,0.5 M1893.1,440.6l10.6,0.5"/>
	<path class="st19" d="M1839.6,448.5l10.6,0.5 M1860.8,449.6l42.4,2.2"/>
	<path class="st19" d="M1828.4,458.5l10.6,0.5 M1849.6,459.6l10.6,0.5 M1881.4,461.3l10.6,0.5 M1902.7,462.3l10.6,0.5"/>
	<path class="st19" d="M1827.9,469.1l21.2,1.1 M1859.7,470.8l10.6,0.5 M1880.9,471.9l21.2,1.1"/>
	<path class="st19" d="M1827.3,479.8l10.6,0.5 M1869.7,481.9l10.6,0.5 M1901.6,483.6l10.6,0.5"/>
	<path class="st19" d="M1837.4,490.9l42.4,2.2 M1890.4,493.6l10.6,0.5"/>
</g>
<g>
	<g>
		<path class="st20" d="M875.2,257.7h5v24.9h-5V257.7z"/>
		<path class="st20" d="M884.7,264.1h4.1c0,0.8,0,1.6,0,2.5c0.8-1.4,2.5-3.1,5.8-3c6,0,7.2,4.6,7.2,7.9v11.2h-4.4v-10
			c0-2.8-0.9-4.9-4-4.9c-3.1,0-4.2,2.1-4.2,4.7v10.2h-4.4V264.1z"/>
		<path class="st20" d="M914.2,282.6h-4.3l-6.9-18.5h4.6l4.4,12.9l4.4-12.9h4.6L914.2,282.6z"/>
		<path class="st20" d="M921.8,273.3c0-4.7,3.5-9.7,9.9-9.7s9.9,5,9.9,9.8c0,4.8-3.5,9.8-9.9,9.8S921.8,278.1,921.8,273.3
			L921.8,273.3z M926.2,273.4c0,3.2,2.5,5.6,5.5,5.6s5.5-2.4,5.5-5.7s-2.4-5.7-5.5-5.7S926.2,270.1,926.2,273.4L926.2,273.4z"/>
		<path class="st20" d="M945,257.7h4.4v3.9H945V257.7z M945,264.1h4.4v18.5H945V264.1z"/>
		<path class="st20" d="M972.1,275.9c-1,4.1-4.7,7.3-9.5,7.3c-5.9,0-9.9-4.5-9.9-9.8c0-5.5,4.2-9.8,9.7-9.8c4.6,0,8.6,2.9,9.7,7.4
			h-4.5c-0.8-2-2.6-3.3-5-3.3c-1.6,0-2.9,0.5-3.9,1.6c-0.9,1-1.5,2.5-1.5,4.1c0,3.3,2.3,5.7,5.5,5.7c2.8,0,4.3-1.7,5-3.2H972.1z"/>
		<path class="st20" d="M978.7,274.8c0.2,3,2.8,4.6,5.4,4.6c2.2,0,3.6-1,4.4-2.5h4.5c-0.9,2.1-2.2,3.6-3.7,4.6
			c-1.6,1.1-3.4,1.6-5.3,1.6c-5.7,0-9.8-4.6-9.8-9.8c0-5.3,4.1-9.9,9.7-9.9c2.8,0,5.2,1,6.9,2.8c2.3,2.3,3.1,5.2,2.7,8.5H978.7z
			 M989.3,271.5c-0.2-1.8-2-4.2-5.3-4.2c-3.3,0-5.1,2.4-5.2,4.2H989.3z"/>
	</g>
</g>
<g>
	<g>
		<path class="st5" d="M202.9,420.2c0.5,0.3,1,0.4,1.5,0.4c1.6,4,4.4,7.9,7.9,7.9c3.5,0,6.3-3.9,7.9-7.9c0.5,0.1,1-0.1,1.5-0.4
			c0.9-0.5,1.5-1.6,1.8-2.8c0.3-1.3,0-2.6-0.7-3.5c-0.3-0.4-0.7-0.7-1.2-0.9c-0.4-5-4.5-9-9.4-9c-4.2,0-7.9,3-9,7.2
			c-0.1,0.5-0.2,1.1-0.3,1.6l0,0c-1.3,0.8-2.2,2.9-1.9,4.6C201.4,418.6,202.1,419.6,202.9,420.2L202.9,420.2z M221.7,416.9
			c-0.2,0.9-0.6,1.4-0.9,1.6c-0.1,0.1-0.2,0.1-0.4,0.1c0,0,0,0-0.1-0.1c-0.2-0.2-0.6-0.2-0.8-0.2c-0.3,0.1-0.5,0.3-0.6,0.6
			c-1.3,3.8-3.8,7.6-6.4,7.6c-2.6,0-5.1-3.8-6.4-7.6c-0.1-0.3-0.3-0.5-0.6-0.6c-0.1,0-0.2,0-0.3,0c-0.2,0-0.4,0.1-0.6,0.2
			c-0.1,0.1-0.1,0.1-0.1,0.1c-0.1,0-0.3,0-0.4-0.1c-0.3-0.2-0.8-0.8-0.9-1.6c-0.2-1.2,0.7-2.5,1.1-2.6c0,0,0.1,0,0.1,0
			c0,0,0,0,0.1,0c0.1,0,0.2-0.1,0.2-0.1l3.8-3.3l1.5,1.8c0.3,0.4,0.8,0.4,1.2,0.2l1.3-0.8c0.3,0.4,0.6,0.8,1.2,1.1
			c0.5,0.3,1.4,0.5,2.5,0.2c1.1-0.1,3.4,0.1,4.1,1c0.1,0.1,0.2,0.2,0.3,0.3c0,0,0,0,0,0c0.1,0.1,0.3,0.1,0.4,0.1c0,0,0,0,0,0
			c0.2,0,0.4,0.1,0.6,0.3C221.7,415.5,221.8,416.2,221.7,416.9L221.7,416.9z M212.3,405.9c3.5,0,6.5,2.6,7.3,6c0,0-0.1,0-0.1,0
			c-0.2-0.1-0.5-0.2-0.7-0.2c0,0-0.1,0-0.1,0c-0.2-0.1-0.5-0.1-0.7-0.1c-0.1,0-0.1,0-0.2,0c-0.2,0-0.4,0-0.6-0.1c-0.1,0-0.1,0-0.2,0
			c-0.2,0-0.3,0-0.5,0c0,0-0.1,0-0.1,0c-0.3,0-0.6,0-0.7,0c-0.1,0-0.2,0-0.2,0c-0.5,0.2-0.9,0.2-1.2,0c-0.5-0.2-0.7-0.8-0.8-1
			c-0.1-0.3-0.3-0.5-0.6-0.6c-0.3-0.1-0.6-0.1-0.9,0.1l-1.5,0.9l-1.6-1.9c-0.2-0.2-0.4-0.3-0.6-0.3c-0.2,0-0.5,0.1-0.7,0.2l-2.3,2
			C206.5,407.9,209.3,405.9,212.3,405.9L212.3,405.9z"/>
		<path class="st5" d="M218.3,431.4L218.3,431.4l-1.1-0.1c-0.1,0-0.2,0-0.4,0h-8.9c-0.1,0-0.2,0-0.4,0l-1.1,0l0,0
			c-7.2,0.7-12.9,7-12.9,14.4v2.5c0,0.5,0.4,0.9,0.9,0.9h35.8c0.5,0,0.9-0.4,0.9-0.9v-2.5C231.2,438.4,225.5,432.1,218.3,431.4
			L218.3,431.4z M216,433.8c-0.1,0.2-0.2,0.4-0.3,0.6c0,0.1-0.1,0.1-0.1,0.2c-0.1,0.1-0.2,0.3-0.3,0.4c-0.1,0.1-0.1,0.1-0.2,0.2
			c-0.1,0.1-0.2,0.2-0.4,0.3c-0.1,0.1-0.2,0.1-0.2,0.2c-0.1,0.1-0.3,0.2-0.4,0.2c-0.1,0-0.2,0.1-0.3,0.1c-0.2,0.1-0.3,0.1-0.5,0.1
			c-0.1,0-0.2,0-0.2,0.1c-0.2,0-0.5,0.1-0.8,0.1c-0.3,0-0.5,0-0.8-0.1c-0.1,0-0.2,0-0.2-0.1c-0.2,0-0.3-0.1-0.5-0.1
			c-0.1,0-0.2-0.1-0.3-0.1c-0.1-0.1-0.3-0.1-0.4-0.2c-0.1,0-0.2-0.1-0.2-0.2c-0.1-0.1-0.2-0.2-0.4-0.3c-0.1-0.1-0.1-0.1-0.2-0.2
			c-0.1-0.1-0.2-0.2-0.3-0.4c0-0.1-0.1-0.1-0.1-0.2c-0.1-0.2-0.3-0.4-0.3-0.6c0,0,0,0,0,0c-0.1-0.2-0.1-0.4-0.2-0.6h7.8
			C216.2,433.4,216.1,433.6,216,433.8C216,433.8,216,433.8,216,433.8L216,433.8z M229.3,447.3h-33.9v-1.5c0-6.4,4.9-11.8,11.1-12.5
			c0,0,0,0,0,0.1c0.1,0.3,0.1,0.6,0.2,0.9c0,0.1,0,0.1,0.1,0.2c0.1,0.3,0.2,0.5,0.4,0.8c0,0,0,0.1,0.1,0.1c0.2,0.3,0.3,0.5,0.5,0.7
			c0,0,0,0,0,0c0.2,0.2,0.4,0.4,0.6,0.6c0,0,0.1,0,0.1,0.1c0.2,0.2,0.5,0.4,0.7,0.5c0,0,0.1,0.1,0.1,0.1c0.3,0.1,0.5,0.3,0.8,0.4
			c0,0,0.1,0,0.1,0.1c0.3,0.1,0.6,0.2,0.9,0.2c0,0,0.1,0,0.1,0c0.3,0.1,0.6,0.1,1,0.1s0.7,0,1-0.1c0,0,0.1,0,0.1,0
			c0.3-0.1,0.6-0.1,0.9-0.2c0.1,0,0.1,0,0.2-0.1c0.3-0.1,0.5-0.2,0.8-0.4c0,0,0.1-0.1,0.1-0.1c0.3-0.2,0.5-0.3,0.7-0.5
			c0,0,0.1,0,0.1-0.1c0.2-0.2,0.4-0.4,0.6-0.6c0,0,0,0,0,0c0.2-0.2,0.4-0.5,0.5-0.8c0,0,0-0.1,0.1-0.1c0.1-0.3,0.3-0.5,0.4-0.8
			c0-0.1,0-0.1,0.1-0.2c0.1-0.3,0.2-0.6,0.2-0.9c0,0,0,0,0-0.1c6.2,0.7,11.1,6.1,11.1,12.5L229.3,447.3z"/>
	</g>
	<circle class="st21" cx="212.7" cy="425.7" r="36.9"/>
</g>
<g>
	<g>
		<path class="st5" d="M1456.5,447.1c0.5,0.3,1,0.4,1.5,0.4c1.6,4,4.4,7.9,7.9,7.9c3.5,0,6.3-3.9,7.9-7.9c0.5,0.1,1-0.1,1.5-0.4
			c0.9-0.5,1.5-1.6,1.8-2.8c0.3-1.3,0-2.6-0.7-3.5c-0.3-0.4-0.7-0.7-1.2-0.9c-0.4-5-4.5-9-9.4-9c-4.2,0-7.9,3-9,7.2
			c-0.1,0.5-0.2,1.1-0.3,1.6l0,0c-1.3,0.8-2.2,2.9-1.9,4.6C1455,445.5,1455.7,446.6,1456.5,447.1L1456.5,447.1z M1475.3,443.9
			c-0.2,0.9-0.6,1.4-0.9,1.6c-0.1,0.1-0.2,0.1-0.4,0.1c0,0,0,0-0.1-0.1c-0.2-0.2-0.6-0.2-0.8-0.2c-0.3,0.1-0.5,0.3-0.6,0.6
			c-1.3,3.8-3.8,7.6-6.4,7.6c-2.6,0-5.1-3.8-6.4-7.6c-0.1-0.3-0.3-0.5-0.6-0.6c-0.1,0-0.2,0-0.3,0c-0.2,0-0.4,0.1-0.6,0.2
			c-0.1,0.1-0.1,0.1-0.1,0.1c-0.1,0-0.3,0-0.4-0.1c-0.3-0.2-0.8-0.8-0.9-1.6c-0.2-1.2,0.7-2.5,1.1-2.6c0,0,0.1,0,0.1,0
			c0,0,0,0,0.1,0c0.1,0,0.2-0.1,0.2-0.1l3.8-3.3l1.5,1.8c0.3,0.4,0.8,0.4,1.2,0.2l1.3-0.8c0.3,0.4,0.6,0.8,1.2,1.1
			c0.5,0.3,1.4,0.5,2.5,0.2c1.1-0.1,3.4,0.1,4.1,1c0.1,0.1,0.2,0.2,0.3,0.3c0,0,0,0,0,0c0.1,0.1,0.3,0.1,0.4,0.1c0,0,0,0,0,0
			c0.2,0,0.4,0.1,0.6,0.3C1475.3,442.4,1475.4,443.2,1475.3,443.9L1475.3,443.9z M1466,432.8c3.5,0,6.5,2.6,7.3,6c0,0-0.1,0-0.1,0
			c-0.2-0.1-0.5-0.2-0.7-0.2c0,0-0.1,0-0.1,0c-0.2-0.1-0.5-0.1-0.7-0.1c-0.1,0-0.1,0-0.2,0c-0.2,0-0.4,0-0.6-0.1c-0.1,0-0.1,0-0.2,0
			c-0.2,0-0.3,0-0.5,0c0,0-0.1,0-0.1,0c-0.3,0-0.6,0-0.7,0c-0.1,0-0.2,0-0.2,0c-0.5,0.2-0.9,0.2-1.2,0c-0.5-0.2-0.7-0.8-0.8-1
			c-0.1-0.3-0.3-0.5-0.6-0.6c-0.3-0.1-0.6-0.1-0.9,0.1l-1.5,0.9l-1.6-1.9c-0.2-0.2-0.4-0.3-0.6-0.3c-0.2,0-0.5,0.1-0.7,0.2l-2.3,2
			C1460.1,434.8,1462.9,432.8,1466,432.8L1466,432.8z"/>
		<path class="st5" d="M1471.9,458.3L1471.9,458.3l-1.1-0.1c-0.1,0-0.2,0-0.4,0h-8.9c-0.1,0-0.2,0-0.4,0l-1.1,0l0,0
			c-7.2,0.7-12.9,7-12.9,14.4v2.5c0,0.5,0.4,0.9,0.9,0.9h35.8c0.5,0,0.9-0.4,0.9-0.9v-2.5C1484.8,465.3,1479.1,459.1,1471.9,458.3
			L1471.9,458.3z M1469.7,460.8c-0.1,0.2-0.2,0.4-0.3,0.6c0,0.1-0.1,0.1-0.1,0.2c-0.1,0.1-0.2,0.3-0.3,0.4c-0.1,0.1-0.1,0.1-0.2,0.2
			c-0.1,0.1-0.2,0.2-0.4,0.3c-0.1,0.1-0.2,0.1-0.2,0.2c-0.1,0.1-0.3,0.2-0.4,0.2c-0.1,0-0.2,0.1-0.3,0.1c-0.2,0.1-0.3,0.1-0.5,0.1
			c-0.1,0-0.2,0-0.2,0.1c-0.2,0-0.5,0.1-0.8,0.1c-0.3,0-0.5,0-0.8-0.1c-0.1,0-0.2,0-0.2-0.1c-0.2,0-0.3-0.1-0.5-0.1
			c-0.1,0-0.2-0.1-0.3-0.1c-0.1-0.1-0.3-0.1-0.4-0.2c-0.1,0-0.2-0.1-0.2-0.2c-0.1-0.1-0.2-0.2-0.4-0.3c-0.1-0.1-0.1-0.1-0.2-0.2
			c-0.1-0.1-0.2-0.2-0.3-0.4c0-0.1-0.1-0.1-0.1-0.2c-0.1-0.2-0.3-0.4-0.3-0.6c0,0,0,0,0,0c-0.1-0.2-0.1-0.4-0.2-0.6h7.8
			C1469.8,460.3,1469.8,460.6,1469.7,460.8C1469.7,460.8,1469.7,460.8,1469.7,460.8L1469.7,460.8z M1482.9,474.3H1449v-1.5
			c0-6.4,4.9-11.8,11.1-12.5c0,0,0,0,0,0.1c0.1,0.3,0.1,0.6,0.2,0.9c0,0.1,0,0.1,0.1,0.2c0.1,0.3,0.2,0.5,0.4,0.8c0,0,0,0.1,0.1,0.1
			c0.2,0.3,0.3,0.5,0.5,0.7c0,0,0,0,0,0c0.2,0.2,0.4,0.4,0.6,0.6c0,0,0.1,0,0.1,0.1c0.2,0.2,0.5,0.4,0.7,0.5c0,0,0.1,0.1,0.1,0.1
			c0.3,0.1,0.5,0.3,0.8,0.4c0,0,0.1,0,0.1,0.1c0.3,0.1,0.6,0.2,0.9,0.2c0,0,0.1,0,0.1,0c0.3,0.1,0.6,0.1,1,0.1s0.7,0,1-0.1
			c0,0,0.1,0,0.1,0c0.3-0.1,0.6-0.1,0.9-0.2c0.1,0,0.1,0,0.2-0.1c0.3-0.1,0.5-0.2,0.8-0.4c0,0,0.1-0.1,0.1-0.1
			c0.3-0.2,0.5-0.3,0.7-0.5c0,0,0.1,0,0.1-0.1c0.2-0.2,0.4-0.4,0.6-0.6c0,0,0,0,0,0c0.2-0.2,0.4-0.5,0.5-0.8c0,0,0-0.1,0.1-0.1
			c0.1-0.3,0.3-0.5,0.4-0.8c0-0.1,0-0.1,0.1-0.2c0.1-0.3,0.2-0.6,0.2-0.9c0,0,0,0,0-0.1c6.2,0.7,11.1,6.1,11.1,12.5L1482.9,474.3z"
			/>
	</g>
	<circle class="st21" cx="1466.4" cy="452.6" r="36.9"/>
</g>
<g id="invoice_card">
	<path class="st22" d="M539,319.9H42.5c-9.3,0-16.8-7.5-16.8-16.8V159.5c0-9.3,7.5-16.8,16.8-16.8H539c9.3,0,16.8,7.5,16.8,16.8
		v143.7C555.8,312.4,548.3,319.9,539,319.9z"/>
	<g>
		<path d="M193.4,202H188v-26.1h5.4V202z"/>
		<path d="M202.8,182.6l0.2,2.2c1.4-1.7,3.2-2.6,5.6-2.6c2.1,0,3.6,0.6,4.6,1.8c1,1.2,1.5,3,1.5,5.4V202h-5.2v-12.4
			c0-1.1-0.2-1.9-0.7-2.4c-0.5-0.5-1.3-0.7-2.4-0.7c-1.5,0-2.5,0.6-3.3,1.9V202h-5.2v-19.4H202.8z"/>
		<path d="M225.8,195.7l3.6-13h5.4l-6.5,19.4h-4.9l-6.5-19.4h5.4L225.8,195.7z"/>
		<path d="M236,192.1c0-1.9,0.4-3.6,1.1-5.1c0.7-1.5,1.8-2.7,3.2-3.5c1.4-0.8,3-1.2,4.8-1.2c2.6,0,4.7,0.8,6.4,2.4
			c1.7,1.6,2.6,3.8,2.8,6.5l0,1.3c0,3-0.8,5.4-2.5,7.1c-1.7,1.8-3.9,2.7-6.7,2.7s-5-0.9-6.7-2.7c-1.7-1.8-2.5-4.2-2.5-7.3V192.1z
			 M241.2,192.5c0,1.8,0.3,3.2,1,4.2c0.7,1,1.7,1.5,3,1.5c1.3,0,2.2-0.5,2.9-1.4c0.7-1,1.1-2.5,1.1-4.6c0-1.8-0.4-3.2-1.1-4.2
			c-0.7-1-1.7-1.5-3-1.5c-1.3,0-2.2,0.5-2.9,1.5C241.5,188.9,241.2,190.4,241.2,192.5z"/>
		<path d="M257.5,177.6c0-0.8,0.3-1.4,0.8-1.9c0.5-0.5,1.2-0.8,2.1-0.8c0.9,0,1.6,0.3,2.1,0.8c0.5,0.5,0.8,1.1,0.8,1.9
			c0,0.8-0.3,1.4-0.8,1.9c-0.5,0.5-1.2,0.8-2.1,0.8c-0.9,0-1.6-0.3-2.1-0.8C257.8,179,257.5,178.4,257.5,177.6z M263,202h-5.2v-19.4
			h5.2V202z"/>
		<path d="M275.3,198.2c1,0,1.7-0.3,2.3-0.8c0.6-0.5,0.9-1.2,0.9-2.1h4.9c0,1.3-0.4,2.5-1.1,3.6c-0.7,1.1-1.7,1.9-2.9,2.5
			s-2.6,0.9-4.1,0.9c-2.8,0-5-0.9-6.5-2.6c-1.6-1.8-2.4-4.2-2.4-7.3v-0.3c0-3,0.8-5.4,2.4-7.1c1.6-1.8,3.8-2.7,6.5-2.7
			c2.4,0,4.4,0.7,5.8,2.1s2.2,3.2,2.2,5.5h-4.9c0-1-0.3-1.8-0.9-2.5c-0.6-0.6-1.4-0.9-2.4-0.9c-1.2,0-2.1,0.4-2.7,1.3
			c-0.6,0.9-0.9,2.3-0.9,4.3v0.5c0,2,0.3,3.4,0.9,4.3C273.1,197.7,274.1,198.2,275.3,198.2z"/>
		<path d="M295.3,202.3c-2.8,0-5.2-0.9-6.9-2.6c-1.8-1.7-2.7-4.1-2.7-7v-0.5c0-1.9,0.4-3.7,1.1-5.2c0.8-1.5,1.8-2.7,3.2-3.5
			c1.4-0.8,2.9-1.2,4.7-1.2c2.6,0,4.7,0.8,6.3,2.5c1.5,1.7,2.3,4,2.3,7.1v2.1h-12.3c0.2,1.3,0.7,2.3,1.5,3c0.8,0.8,1.9,1.1,3.2,1.1
			c2,0,3.5-0.7,4.7-2.2l2.5,2.8c-0.8,1.1-1.8,2-3.1,2.6C298.4,202,296.9,202.3,295.3,202.3z M294.7,186.4c-1,0-1.9,0.3-2.5,1
			c-0.6,0.7-1,1.7-1.2,3h7.2V190c0-1.2-0.3-2-0.9-2.7C296.6,186.7,295.8,186.4,294.7,186.4z"/>
		<path d="M325.3,194.6h-3.5l-1.3,7.3h-3.3l1.3-7.3h-4.1v-3.1h4.6l0.9-5.1h-4.2v-3.1h4.7l1.3-7.4h3.3l-1.3,7.4h3.5l1.3-7.4h3.3
			l-1.3,7.4h3.9v3.1H330l-0.9,5.1h4v3.1h-4.5l-1.3,7.3H324L325.3,194.6z M322.3,191.6h3.5l0.9-5.1h-3.5L322.3,191.6z"/>
		<path d="M349.5,202h-5.2V182l-6.2,1.9v-4.2l10.8-3.9h0.6V202z"/>
		<path d="M375.8,202H358v-3.5l8.4-9c1.2-1.3,2-2.4,2.6-3.3c0.6-0.9,0.8-1.8,0.8-2.7c0-1.2-0.3-2.1-0.9-2.7c-0.6-0.7-1.4-1-2.5-1
			c-1.2,0-2.1,0.4-2.8,1.2c-0.7,0.8-1,1.9-1,3.2h-5.2c0-1.6,0.4-3,1.1-4.3s1.8-2.3,3.2-3.1c1.4-0.7,3-1.1,4.7-1.1
			c2.7,0,4.8,0.6,6.3,1.9c1.5,1.3,2.2,3.1,2.2,5.5c0,1.3-0.3,2.6-1,3.9c-0.7,1.3-1.8,2.9-3.4,4.7l-5.9,6.2h11.2V202z"/>
		<path d="M384.2,186.7h2.8c1.3,0,2.3-0.3,2.9-1s0.9-1.5,0.9-2.6c0-1-0.3-1.9-0.9-2.5c-0.6-0.6-1.5-0.9-2.6-0.9
			c-1,0-1.8,0.3-2.5,0.8c-0.7,0.5-1,1.3-1,2.1h-5.2c0-1.4,0.4-2.6,1.1-3.7c0.7-1.1,1.8-1.9,3.1-2.5s2.8-0.9,4.4-0.9
			c2.8,0,4.9,0.7,6.5,2s2.3,3.1,2.3,5.5c0,1.2-0.4,2.3-1.1,3.3c-0.7,1-1.7,1.8-2.9,2.3c1.5,0.5,2.6,1.3,3.3,2.4
			c0.7,1,1.1,2.3,1.1,3.7c0,2.3-0.8,4.2-2.5,5.6c-1.7,1.4-3.9,2.1-6.7,2.1c-2.6,0-4.7-0.7-6.4-2.1s-2.5-3.2-2.5-5.4h5.2
			c0,1,0.4,1.8,1.1,2.4c0.7,0.6,1.6,0.9,2.7,0.9c1.2,0,2.2-0.3,2.9-1c0.7-0.6,1-1.5,1-2.6c0-2.6-1.4-3.9-4.3-3.9h-2.7V186.7z"/>
	</g>
	<circle class="st23" cx="101.1" cy="231.6" r="60.2"/>
	<g>
		<path class="st24" d="M123.7,232c-8.3,0-15.1,6.8-15.1,15.1c0,8.3,6.8,15.1,15.1,15.1c8.3,0,15.1-6.8,15.1-15.1
			C138.8,238.7,132,232,123.7,232L123.7,232z M123.7,260.4c-7.4,0-13.4-6-13.4-13.4c0-7.4,6-13.4,13.4-13.4c7.4,0,13.4,6,13.4,13.4
			S131.1,260.4,123.7,260.4z"/>
		<path class="st24" d="M128.7,243.4l-7.1,7.1l-3.1-3.3c-0.3-0.3-0.8-0.3-1.2,0c-0.3,0.3-0.3,0.8,0,1.2l3.7,3.8
			c0.2,0.2,0.3,0.3,0.6,0.3s0.4-0.1,0.6-0.3l7.8-7.8c0.3-0.3,0.3-0.8,0-1.2C129.6,243,129,243.1,128.7,243.4L128.7,243.4z"/>
		<path class="st24" d="M71.1,258.7h31.7c0.5,0,0.8-0.3,0.8-0.8c0-0.5-0.3-0.8-0.8-0.8l-30.9,0v-6c0-4.7,8.9-8.8,14-10.6
			c0,0.2,0,0.3,0.1,0.4c2.2,4.4,5.9,7.9,10.5,10l2.1,0.9c0.1,0.1,0.3,0.1,0.3,0.1c0.1,0,0.3,0,0.3-0.1l2.1-0.9
			c0.6-0.3,1.3-0.6,1.8-0.9c0.4-0.3,0.6-0.8,0.3-1.2c-0.3-0.4-0.8-0.6-1.2-0.3c-0.6,0.3-1.1,0.6-1.7,0.8l-1.8,0.8l-1.8-0.8
			c-4.2-1.8-7.6-5-9.6-9.1c0-0.1-0.1-0.1-0.1-0.2c0.2-0.1,0.3-0.1,0.4-0.2c2.5-0.6,5-1.6,5-4.5v-4.6c1.5,1.1,3.2,1.8,5.1,1.8h1.5
			c1.9,0,3.6-0.7,5.1-1.8l0,4.7c0,0.5,0.3,0.8,0.8,0.8c0.5,0,0.8-0.3,0.8-0.8v-5.9c0-0.1,0-0.2-0.1-0.3c1.6-1.9,2.6-4.4,2.6-7.2
			v-9.2c0-0.3-0.2-0.6-0.4-0.8c-5-2.9-9.6-8.9-9.7-8.9c-0.2-0.2-0.4-0.3-0.7-0.3c-5.3,0-9.4,4.3-9.4,10v9.2c0,2.8,1,5.4,2.6,7.2
			c0,0.1-0.1,0.2-0.1,0.3v5.9c0,1.2-0.7,2.1-3.8,2.8c-0.3,0.1-3.5,1.1-7.1,2.8l0-27.3c0-10.1,7.8-18.4,17.2-18.4H99
			c9.8,0,18.1,8.4,18.1,18.4v12.5c0,0.5,0.3,0.8,0.8,0.8c0.5,0,0.8-0.3,0.8-0.8l0-12.5c0-10.9-9-20.1-19.7-20.1h-1.5
			c-10.4,0-18.9,9-18.9,20.1v28.3c-4.2,2.3-8.4,5.4-8.4,9.3v6.8C70.2,258.4,70.6,258.7,71.1,258.7L71.1,258.7z M90.3,221.9v-9.2
			c0-4.6,3.1-8,7.2-8.3c1.1,1.3,5,6,9.5,8.8v8.7c0,4.3-2.9,8.8-7.6,8.8h-1.5C93.2,230.7,90.3,226.2,90.3,221.9L90.3,221.9z"/>
	</g>
	<path class="st23" d="M327.5,244.7h-133c-4.9,0-8.9-4-8.9-8.9v-4.4c0-4.9,4-8.9,8.9-8.9h133c4.9,0,8.9,4,8.9,8.9v4.4
		C336.4,240.7,332.4,244.7,327.5,244.7z"/>
	<path class="st23" d="M496.6,244.7h-127c-4.9,0-8.9-4-8.9-8.9v-4.4c0-4.9,4-8.9,8.9-8.9h127c4.9,0,8.9,4,8.9,8.9v4.4
		C505.5,240.7,501.5,244.7,496.6,244.7z"/>
	<path class="st23" d="M265.7,289.9h-71.2c-4.9,0-8.9-4-8.9-8.9v-4.4c0-4.9,4-8.9,8.9-8.9h71.2c4.9,0,8.9,4,8.9,8.9v4.4
		C274.6,286,270.6,289.9,265.7,289.9z"/>
</g>
<g id="invoice_card_1_">
	<path class="st22" d="M530.5,677.9H80c-9.3,0-16.8-7.5-16.8-16.8V532.8c0-9.3,7.5-16.8,16.8-16.8h450.5c9.3,0,16.8,7.5,16.8,16.8
		v128.3C547.3,670.4,539.8,677.9,530.5,677.9z"/>
	<g>
		<path d="M216.3,570.2h-4.9v-23.8h4.9V570.2z"/>
		<path d="M224.9,552.5l0.1,2c1.3-1.6,3-2.4,5.1-2.4c1.9,0,3.3,0.6,4.2,1.7c0.9,1.1,1.4,2.7,1.4,4.9v11.4H231v-11.3
			c0-1-0.2-1.7-0.7-2.2c-0.4-0.5-1.2-0.7-2.2-0.7c-1.3,0-2.3,0.6-3,1.7v12.5h-4.7v-17.7H224.9z"/>
		<path d="M245.9,564.4l3.3-11.9h4.9l-6,17.7h-4.5l-6-17.7h4.9L245.9,564.4z"/>
		<path d="M255.2,561.2c0-1.8,0.3-3.3,1-4.7c0.7-1.4,1.6-2.4,2.9-3.2s2.7-1.1,4.4-1.1c2.4,0,4.3,0.7,5.8,2.2c1.5,1.5,2.4,3.4,2.5,6
			l0,1.2c0,2.7-0.8,4.9-2.3,6.5s-3.5,2.5-6.1,2.5s-4.6-0.8-6.1-2.5s-2.3-3.9-2.3-6.7V561.2z M260,561.5c0,1.7,0.3,3,0.9,3.9
			s1.5,1.3,2.7,1.3c1.1,0,2-0.4,2.7-1.3c0.6-0.9,1-2.3,1-4.2c0-1.6-0.3-2.9-1-3.8c-0.6-0.9-1.5-1.4-2.7-1.4c-1.2,0-2,0.5-2.7,1.4
			S260,559.6,260,561.5z"/>
		<path d="M274.9,547.9c0-0.7,0.2-1.3,0.7-1.7c0.5-0.5,1.1-0.7,1.9-0.7c0.8,0,1.4,0.2,1.9,0.7c0.5,0.5,0.7,1,0.7,1.7
			c0,0.7-0.2,1.3-0.7,1.8c-0.5,0.5-1.1,0.7-1.9,0.7c-0.8,0-1.4-0.2-1.9-0.7C275.1,549.2,274.9,548.6,274.9,547.9z M279.9,570.2h-4.7
			v-17.7h4.7V570.2z"/>
		<path d="M291.1,566.7c0.9,0,1.6-0.2,2.1-0.7c0.5-0.5,0.8-1.1,0.9-1.9h4.4c0,1.2-0.3,2.3-1,3.3c-0.6,1-1.5,1.8-2.6,2.3
			c-1.1,0.5-2.4,0.8-3.7,0.8c-2.5,0-4.5-0.8-6-2.4c-1.5-1.6-2.2-3.8-2.2-6.7v-0.3c0-2.7,0.7-4.9,2.2-6.5c1.4-1.6,3.4-2.4,6-2.4
			c2.2,0,4,0.6,5.3,1.9c1.3,1.3,2,2.9,2,5h-4.4c0-0.9-0.3-1.7-0.9-2.2s-1.3-0.9-2.2-0.9c-1.1,0-1.9,0.4-2.5,1.2
			c-0.6,0.8-0.8,2.1-0.8,3.9v0.5c0,1.8,0.3,3.1,0.8,3.9C289.2,566.3,290,566.7,291.1,566.7z"/>
		<path d="M309.4,570.5c-2.6,0-4.7-0.8-6.3-2.4c-1.6-1.6-2.4-3.7-2.4-6.4v-0.5c0-1.8,0.3-3.4,1-4.8s1.7-2.5,2.9-3.2
			c1.3-0.8,2.7-1.1,4.3-1.1c2.4,0,4.3,0.8,5.7,2.3c1.4,1.5,2.1,3.7,2.1,6.5v1.9h-11.3c0.2,1.2,0.6,2.1,1.4,2.8s1.7,1,2.9,1
			c1.8,0,3.2-0.7,4.3-2l2.3,2.6c-0.7,1-1.7,1.8-2.9,2.3C312.2,570.2,310.9,570.5,309.4,570.5z M308.8,556c-0.9,0-1.7,0.3-2.3,1
			c-0.6,0.6-1,1.5-1.1,2.7h6.6v-0.4c0-1.1-0.3-1.9-0.9-2.4C310.6,556.2,309.8,556,308.8,556z"/>
		<path d="M336.8,563.5h-3.2l-1.2,6.7h-3l1.2-6.7h-3.7v-2.8h4.2l0.8-4.6h-3.8v-2.8h4.3l1.2-6.8h3l-1.2,6.8h3.2l1.2-6.8h3l-1.2,6.8
			h3.6v2.8h-4.1l-0.8,4.6h3.7v2.8h-4.2l-1.2,6.7h-3L336.8,563.5z M334.1,560.6h3.2l0.8-4.6h-3.2L334.1,560.6z"/>
		<path d="M363.7,570.2h-16.3v-3.2l7.7-8.2c1.1-1.2,1.8-2.2,2.3-3c0.5-0.9,0.8-1.7,0.8-2.5c0-1.1-0.3-1.9-0.8-2.5
			c-0.5-0.6-1.3-0.9-2.3-0.9c-1.1,0-1.9,0.4-2.5,1.1s-0.9,1.7-0.9,2.9h-4.7c0-1.4,0.3-2.8,1-4c0.7-1.2,1.7-2.1,2.9-2.8
			c1.3-0.7,2.7-1,4.3-1c2.5,0,4.4,0.6,5.7,1.8c1.4,1.2,2,2.8,2,5c0,1.2-0.3,2.4-0.9,3.6c-0.6,1.2-1.7,2.6-3.1,4.3l-5.4,5.7h10.2
			V570.2z"/>
		<path d="M382.6,560.3c0,3.3-0.7,5.8-2,7.6c-1.4,1.7-3.4,2.6-6,2.6c-2.6,0-4.6-0.9-5.9-2.6s-2.1-4.2-2.1-7.4v-4.4
			c0-3.3,0.7-5.8,2.1-7.6c1.4-1.7,3.4-2.6,6-2.6s4.6,0.9,5.9,2.6s2.1,4.2,2.1,7.3V560.3z M377.9,555.5c0-2-0.3-3.4-0.8-4.3
			c-0.5-0.9-1.4-1.4-2.5-1.4c-1.1,0-1.9,0.4-2.5,1.3s-0.8,2.2-0.8,4v5.8c0,1.9,0.3,3.4,0.8,4.3c0.5,0.9,1.4,1.4,2.5,1.4
			c1.2,0,2-0.5,2.5-1.4c0.5-0.9,0.8-2.3,0.8-4.2V555.5z"/>
		<path d="M398.6,546.1v3.9h-0.5c-2.1,0-3.9,0.6-5.2,1.7c-1.3,1.1-2.1,2.6-2.3,4.5c1.3-1.3,2.9-1.9,4.8-1.9c2.1,0,3.7,0.7,4.9,2.2
			c1.2,1.5,1.8,3.4,1.8,5.9c0,1.5-0.3,2.9-1,4.2c-0.7,1.3-1.6,2.2-2.8,2.9c-1.2,0.7-2.6,1-4.2,1c-2.5,0-4.5-0.9-6.1-2.6
			s-2.3-4.1-2.3-7v-1.7c0-2.6,0.5-4.9,1.5-6.8c1-2,2.4-3.5,4.2-4.6c1.8-1.1,3.9-1.6,6.4-1.6H398.6z M394,558c-0.8,0-1.5,0.2-2.1,0.6
			c-0.6,0.4-1.1,0.9-1.4,1.6v1.4c0,1.6,0.3,2.8,0.9,3.7c0.6,0.9,1.5,1.3,2.6,1.3c1,0,1.8-0.4,2.5-1.2c0.6-0.8,0.9-1.8,0.9-3.1
			c0-1.3-0.3-2.3-0.9-3.1S395.1,558,394,558z"/>
	</g>
	<circle class="st23" cx="132.1" cy="597.2" r="55"/>
	<g>
		<g>
			<g>
				<path class="st24" d="M118,582.6c0.7,0.5,1.5,0.7,2.3,0.6c2.4,5.9,6.5,11.8,11.8,11.8c5.2,0,9.4-5.9,11.8-11.8
					c0.8,0.1,1.5-0.1,2.3-0.6c1.3-0.8,2.3-2.4,2.6-4.2c0.4-1.9,0-3.9-1-5.2c-0.5-0.6-1.1-1-1.7-1.3c-0.6-7.5-6.7-13.5-14-13.5
					c-6.3,0-11.8,4.4-13.5,10.7c-0.2,0.8-0.4,1.6-0.4,2.3l0,0c-1.9,1.2-3.3,4.3-2.8,6.8C115.7,580.2,116.7,581.8,118,582.6
					L118,582.6z M146,577.8c-0.3,1.3-0.9,2.1-1.4,2.4c-0.1,0.1-0.4,0.2-0.5,0.1c0,0-0.1,0-0.2-0.1c-0.4-0.3-0.8-0.4-1.3-0.2
					c-0.4,0.1-0.8,0.5-0.9,0.9c-2,5.6-5.7,11.3-9.6,11.3c-3.9,0-7.6-5.7-9.6-11.3c-0.1-0.4-0.5-0.8-0.9-0.9c-0.1,0-0.3-0.1-0.4-0.1
					c-0.3,0-0.6,0.1-0.9,0.3c-0.1,0.1-0.2,0.1-0.2,0.1c-0.2,0-0.4-0.1-0.5-0.1c-0.5-0.3-1.1-1.1-1.4-2.4c-0.4-1.7,1-3.8,1.6-3.9
					c0.1,0,0.1,0,0.2-0.1c0,0,0.1,0,0.1,0c0.1-0.1,0.2-0.1,0.3-0.2l5.6-4.9l2.3,2.7c0.5,0.5,1.2,0.6,1.8,0.3l1.9-1.2
					c0.4,0.6,0.9,1.2,1.7,1.6c0.8,0.4,2,0.8,3.8,0.3c1.7-0.1,5.1,0.2,6.1,1.6c0.1,0.2,0.3,0.3,0.5,0.4c0,0,0,0,0,0
					c0.2,0.1,0.4,0.1,0.6,0.2c0,0,0,0,0,0c0.4,0,0.6,0.2,0.9,0.5C146,575.6,146.2,576.7,146,577.8L146,577.8z M132,561.3
					c5.2,0,9.6,3.8,10.9,8.9c0,0-0.1,0-0.1,0c-0.4-0.1-0.7-0.2-1.1-0.3c-0.1,0-0.1,0-0.2,0c-0.4-0.1-0.7-0.1-1.1-0.2
					c-0.1,0-0.2,0-0.3,0c-0.3,0-0.6-0.1-0.9-0.1c-0.1,0-0.2,0-0.3,0c-0.3,0-0.5,0-0.7,0c0,0-0.1,0-0.1,0c-0.5,0-0.9,0-1,0
					c-0.1,0-0.2,0-0.3,0.1c-0.7,0.2-1.3,0.2-1.7,0c-0.7-0.4-1-1.2-1.1-1.5c-0.1-0.4-0.4-0.8-0.8-1c-0.4-0.2-0.9-0.1-1.3,0.1
					l-2.2,1.4l-2.4-2.8c-0.2-0.3-0.6-0.5-1-0.5c-0.4,0-0.7,0.1-1,0.3l-3.5,3C123.4,564.3,127.5,561.3,132,561.3L132,561.3z"/>
				<path class="st24" d="M140.9,599.4L140.9,599.4l-1.6-0.1c-0.2,0-0.4,0-0.5,0h-13.3c-0.2,0-0.4,0-0.5,0l-1.6,0.1l0,0.1
					c-10.7,1.1-19.3,10.4-19.3,21.4v3.7c0,0.8,0.6,1.4,1.4,1.4h53.4c0.8,0,1.4-0.6,1.4-1.4v-3.7
					C160.1,609.8,151.6,600.5,140.9,599.4L140.9,599.4z M137.6,603c-0.1,0.3-0.3,0.7-0.5,1c-0.1,0.1-0.1,0.2-0.2,0.3
					c-0.1,0.2-0.3,0.4-0.5,0.6c-0.1,0.1-0.2,0.2-0.3,0.3c-0.2,0.2-0.3,0.3-0.5,0.4c-0.1,0.1-0.2,0.2-0.3,0.2
					c-0.2,0.1-0.4,0.2-0.6,0.3c-0.1,0.1-0.2,0.1-0.4,0.2c-0.2,0.1-0.5,0.2-0.7,0.2c-0.1,0-0.2,0.1-0.3,0.1c-0.4,0.1-0.7,0.1-1.1,0.1
					c-0.4,0-0.8,0-1.1-0.1c-0.1,0-0.2-0.1-0.3-0.1c-0.2-0.1-0.5-0.1-0.7-0.2c-0.1-0.1-0.2-0.1-0.4-0.2c-0.2-0.1-0.4-0.2-0.6-0.3
					c-0.1-0.1-0.2-0.2-0.3-0.2c-0.2-0.1-0.4-0.3-0.5-0.4c-0.1-0.1-0.2-0.2-0.3-0.3c-0.2-0.2-0.3-0.4-0.5-0.6
					c-0.1-0.1-0.1-0.2-0.2-0.3c-0.2-0.3-0.4-0.6-0.5-0.9c0,0,0,0,0,0c-0.1-0.3-0.2-0.6-0.3-0.9h11.6
					C137.8,602.3,137.7,602.7,137.6,603C137.6,603,137.6,603,137.6,603L137.6,603z M157.3,623.1h-50.6v-2.3
					c0-9.5,7.3-17.6,16.6-18.6c0,0,0,0.1,0,0.1c0.1,0.4,0.2,0.9,0.4,1.3c0,0.1,0.1,0.2,0.1,0.2c0.2,0.4,0.3,0.8,0.6,1.2
					c0,0.1,0.1,0.1,0.1,0.2c0.2,0.4,0.5,0.8,0.8,1.1c0,0,0,0,0.1,0.1c0.3,0.3,0.6,0.7,0.9,1c0,0,0.1,0.1,0.1,0.1
					c0.3,0.3,0.7,0.5,1.1,0.8c0.1,0,0.1,0.1,0.2,0.1c0.4,0.2,0.8,0.4,1.2,0.6c0.1,0,0.1,0.1,0.2,0.1c0.4,0.2,0.9,0.3,1.3,0.4
					c0.1,0,0.1,0,0.2,0c0.5,0.1,1,0.1,1.5,0.1c0.5,0,1-0.1,1.5-0.1c0.1,0,0.1,0,0.2,0c0.4-0.1,0.9-0.2,1.3-0.4
					c0.1,0,0.1-0.1,0.2-0.1c0.4-0.2,0.8-0.3,1.2-0.6c0.1,0,0.1-0.1,0.2-0.1c0.4-0.2,0.7-0.5,1.1-0.8c0,0,0.1-0.1,0.1-0.1
					c0.3-0.3,0.7-0.6,1-1c0,0,0,0,0-0.1c0.3-0.3,0.5-0.7,0.8-1.1c0-0.1,0.1-0.1,0.1-0.2c0.2-0.4,0.4-0.8,0.6-1.2
					c0-0.1,0.1-0.2,0.1-0.2c0.1-0.4,0.3-0.8,0.4-1.3c0,0,0-0.1,0-0.1c9.3,1,16.6,9.1,16.6,18.6L157.3,623.1z"/>
			</g>
		</g>
	</g>
	<path class="st23" d="M338,609.2H218.1c-4.9,0-8.9-4-8.9-8.9v-2.5c0-4.9,4-8.9,8.9-8.9H338c4.9,0,8.9,4,8.9,8.9v2.5
		C346.9,605.2,342.9,609.2,338,609.2z"/>
	<path class="st23" d="M492.4,609.2H378c-4.9,0-8.9-4-8.9-8.9v-2.5c0-4.9,4-8.9,8.9-8.9h114.5c4.9,0,8.9,4,8.9,8.9v2.5
		C501.3,605.2,497.4,609.2,492.4,609.2z"/>
	<path class="st23" d="M281.6,650.5h-63.5c-4.9,0-8.9-4-8.9-8.9v-2.5c0-4.9,4-8.9,8.9-8.9h63.5c4.9,0,8.9,4,8.9,8.9v2.5
		C290.5,646.5,286.5,650.5,281.6,650.5z"/>
</g>
<g id="invoice_card_2_">
	<path class="st22" d="M1552.9,790.3h-492.3c-9.3,0-16.8-7.5-16.8-16.8V631.3c0-9.3,7.5-16.8,16.8-16.8h492.3
		c9.3,0,16.8,7.5,16.8,16.8v142.3C1569.6,782.8,1562.1,790.3,1552.9,790.3z"/>
	<g>
		<path d="M1210.2,673.3h-5.3v-25.8h5.3V673.3z"/>
		<path d="M1219.5,654.1l0.2,2.2c1.4-1.7,3.2-2.6,5.5-2.6c2,0,3.6,0.6,4.5,1.8s1.5,3,1.5,5.4v12.4h-5.1V661c0-1.1-0.2-1.9-0.7-2.4
			c-0.5-0.5-1.3-0.7-2.4-0.7c-1.4,0-2.5,0.6-3.2,1.8v13.5h-5.1v-19.2H1219.5z"/>
		<path d="M1242.3,667.1l3.6-12.9h5.4l-6.5,19.2h-4.9l-6.5-19.2h5.4L1242.3,667.1z"/>
		<path d="M1252.4,663.5c0-1.9,0.4-3.6,1.1-5.1c0.7-1.5,1.8-2.6,3.2-3.5c1.4-0.8,3-1.2,4.8-1.2c2.6,0,4.7,0.8,6.3,2.4
			c1.6,1.6,2.6,3.7,2.7,6.5l0,1.3c0,2.9-0.8,5.3-2.5,7.1s-3.9,2.7-6.6,2.7s-5-0.9-6.6-2.7s-2.5-4.2-2.5-7.2V663.5z M1257.6,663.9
			c0,1.8,0.3,3.2,1,4.2s1.7,1.4,2.9,1.4c1.2,0,2.2-0.5,2.9-1.4c0.7-1,1-2.5,1-4.6c0-1.8-0.3-3.2-1-4.2c-0.7-1-1.7-1.5-2.9-1.5
			c-1.3,0-2.2,0.5-2.9,1.5C1257.9,660.3,1257.6,661.9,1257.6,663.9z"/>
		<path d="M1273.8,649.1c0-0.8,0.3-1.4,0.8-1.9c0.5-0.5,1.2-0.7,2.1-0.7c0.9,0,1.6,0.2,2.1,0.7c0.5,0.5,0.8,1.1,0.8,1.9
			c0,0.8-0.3,1.4-0.8,1.9c-0.5,0.5-1.2,0.7-2.1,0.7c-0.9,0-1.6-0.2-2.1-0.7C1274,650.6,1273.8,649.9,1273.8,649.1z M1279.2,673.3
			h-5.1v-19.2h5.1V673.3z"/>
		<path d="M1291.4,669.5c0.9,0,1.7-0.3,2.3-0.8s0.9-1.2,0.9-2.1h4.8c0,1.3-0.4,2.5-1.1,3.6s-1.7,1.9-2.9,2.5c-1.2,0.6-2.6,0.9-4,0.9
			c-2.7,0-4.9-0.9-6.5-2.6c-1.6-1.7-2.4-4.2-2.4-7.2v-0.3c0-3,0.8-5.3,2.4-7.1s3.7-2.6,6.5-2.6c2.4,0,4.3,0.7,5.8,2.1
			c1.4,1.4,2.2,3.2,2.2,5.5h-4.8c0-1-0.3-1.8-0.9-2.4c-0.6-0.6-1.4-0.9-2.3-0.9c-1.2,0-2.1,0.4-2.7,1.3s-0.9,2.3-0.9,4.2v0.5
			c0,2,0.3,3.4,0.9,4.3S1290.2,669.5,1291.4,669.5z"/>
		<path d="M1311.2,673.7c-2.8,0-5.1-0.9-6.9-2.6c-1.8-1.7-2.7-4-2.7-6.9v-0.5c0-1.9,0.4-3.7,1.1-5.2c0.7-1.5,1.8-2.7,3.2-3.5
			c1.4-0.8,2.9-1.2,4.7-1.2c2.6,0,4.7,0.8,6.2,2.5c1.5,1.7,2.3,4,2.3,7v2.1h-12.2c0.2,1.3,0.7,2.3,1.5,3c0.8,0.8,1.9,1.1,3.2,1.1
			c2,0,3.5-0.7,4.6-2.1l2.5,2.8c-0.8,1.1-1.8,1.9-3.1,2.5C1314.3,673.4,1312.8,673.7,1311.2,673.7z M1310.7,657.9
			c-1,0-1.8,0.3-2.5,1c-0.6,0.7-1,1.7-1.2,3h7.1v-0.4c0-1.1-0.3-2-0.9-2.6C1312.6,658.2,1311.7,657.9,1310.7,657.9z"/>
		<path d="M1341,666h-3.4l-1.3,7.3h-3.2l1.3-7.3h-4V663h4.6l0.9-5h-4.1v-3.1h4.7l1.3-7.4h3.2l-1.3,7.4h3.4l1.3-7.4h3.2l-1.3,7.4h3.9
			v3.1h-4.4l-0.9,5h4v3.1h-4.5l-1.3,7.3h-3.2L1341,666z M1338.1,663h3.4l0.9-5h-3.4L1338.1,663z"/>
		<path d="M1353.3,660.6l1.5-13.1h14.5v4.3H1359l-0.6,5.6c1.2-0.7,2.5-1,3.9-1c2.5,0,4.4,0.8,5.8,2.3c1.4,1.5,2.1,3.7,2.1,6.4
			c0,1.7-0.4,3.2-1.1,4.5c-0.7,1.3-1.7,2.3-3,3.1c-1.3,0.7-2.9,1.1-4.7,1.1c-1.6,0-3-0.3-4.3-1c-1.3-0.6-2.4-1.5-3.2-2.7
			c-0.8-1.1-1.2-2.5-1.2-3.9h5.1c0.1,1.1,0.5,1.9,1.1,2.5c0.6,0.6,1.5,0.9,2.5,0.9c1.2,0,2.1-0.4,2.7-1.3c0.6-0.8,0.9-2,0.9-3.5
			c0-1.5-0.4-2.6-1.1-3.4s-1.7-1.2-3.1-1.2c-1.2,0-2.2,0.3-3,1l-0.5,0.5L1353.3,660.6z"/>
		<path d="M1387.3,647.2v4.2h-0.5c-2.3,0-4.2,0.6-5.6,1.8s-2.3,2.8-2.5,4.9c1.4-1.4,3.1-2.1,5.2-2.1c2.2,0,4,0.8,5.4,2.4
			c1.3,1.6,2,3.7,2,6.4c0,1.7-0.4,3.2-1.1,4.6c-0.7,1.4-1.8,2.4-3.1,3.2c-1.3,0.8-2.8,1.1-4.5,1.1c-2.7,0-4.9-0.9-6.6-2.8
			s-2.5-4.4-2.5-7.6v-1.8c0-2.8,0.5-5.3,1.6-7.4s2.6-3.8,4.6-5s4.3-1.8,6.9-1.8H1387.3z M1382.3,660.2c-0.8,0-1.6,0.2-2.3,0.6
			c-0.7,0.4-1.2,1-1.5,1.7v1.6c0,1.7,0.3,3.1,1,4s1.6,1.4,2.8,1.4c1.1,0,2-0.4,2.7-1.3s1-2,1-3.4c0-1.4-0.3-2.5-1-3.4
			C1384.4,660.6,1383.5,660.2,1382.3,660.2z"/>
		<path d="M1411.9,650.3l-10,23h-5.4l10-21.7h-12.9v-4.1h18.3V650.3z"/>
	</g>
	<circle class="st23" cx="1118.6" cy="702.7" r="59.7"/>
	<g>
		<g>
			<g>
				<path class="st24" d="M1103.4,686.8c0.8,0.5,1.6,0.7,2.5,0.6c2.6,6.4,7.1,12.8,12.8,12.8c5.7,0,10.2-6.4,12.8-12.8
					c0.8,0.1,1.7-0.1,2.5-0.6c1.4-0.9,2.5-2.6,2.9-4.6c0.4-2.1,0-4.2-1.1-5.6c-0.5-0.6-1.1-1.1-1.9-1.4c-0.6-8.1-7.3-14.6-15.2-14.6
					c-6.8,0-12.8,4.8-14.6,11.6c-0.2,0.9-0.4,1.8-0.5,2.6l0,0.1c-2.1,1.3-3.6,4.6-3,7.4C1100.9,684.3,1102,686,1103.4,686.8
					L1103.4,686.8z M1133.7,681.6c-0.3,1.4-1,2.3-1.5,2.6c-0.2,0.1-0.4,0.2-0.6,0.2c0,0-0.1,0-0.2-0.1c-0.4-0.3-0.9-0.4-1.4-0.3
					c-0.5,0.1-0.8,0.5-1,1c-2.1,6.1-6.2,12.2-10.4,12.2c-4.2,0-8.3-6.1-10.4-12.2c-0.2-0.5-0.5-0.8-1-1c-0.1,0-0.3-0.1-0.4-0.1
					c-0.3,0-0.7,0.1-0.9,0.3c-0.1,0.1-0.2,0.1-0.2,0.1c-0.2,0-0.4-0.1-0.6-0.2c-0.5-0.3-1.2-1.2-1.5-2.6c-0.4-1.9,1.1-4.1,1.7-4.3
					c0.1,0,0.1,0,0.2-0.1c0,0,0.1,0,0.1,0c0.1-0.1,0.3-0.1,0.4-0.2l6.1-5.3l2.5,2.9c0.5,0.6,1.3,0.7,2,0.3l2-1.3
					c0.4,0.6,1,1.3,1.9,1.7c0.8,0.5,2.2,0.9,4.1,0.3c1.8-0.1,5.5,0.2,6.6,1.7c0.1,0.2,0.3,0.3,0.5,0.5c0,0,0,0,0,0
					c0.2,0.1,0.4,0.2,0.6,0.2c0,0,0,0,0,0c0.4,0,0.7,0.2,1,0.5C1133.8,679.2,1134,680.5,1133.7,681.6L1133.7,681.6z M1118.6,663.7
					c5.6,0,10.5,4.1,11.8,9.7c0,0-0.1,0-0.1,0c-0.4-0.1-0.8-0.2-1.2-0.3c-0.1,0-0.2,0-0.2-0.1c-0.4-0.1-0.8-0.1-1.1-0.2
					c-0.1,0-0.2,0-0.3,0c-0.4,0-0.7-0.1-1-0.1c-0.1,0-0.2,0-0.3,0c-0.3,0-0.6,0-0.8,0c0,0-0.1,0-0.1,0c-0.6,0-1,0-1.1,0
					c-0.1,0-0.3,0-0.4,0.1c-0.8,0.3-1.4,0.3-1.9,0c-0.7-0.4-1.1-1.3-1.2-1.7c-0.1-0.5-0.5-0.9-0.9-1c-0.4-0.2-1-0.1-1.4,0.1
					l-2.4,1.5l-2.6-3.1c-0.3-0.3-0.6-0.5-1-0.5c-0.4,0-0.8,0.1-1.1,0.4l-3.8,3.3C1109.2,666.9,1113.6,663.7,1118.6,663.7
					L1118.6,663.7z"/>
				<path class="st24" d="M1128.2,705L1128.2,705l-1.8-0.1c-0.2,0-0.4,0-0.6,0h-14.5c-0.2,0-0.4,0-0.6,0l-1.8,0.1l0,0.1
					c-11.7,1.2-20.9,11.3-20.9,23.3v4c0,0.8,0.7,1.5,1.5,1.5h58c0.8,0,1.5-0.7,1.5-1.5v-4C1149.1,716.4,1139.9,706.2,1128.2,705
					L1128.2,705z M1124.6,709c-0.2,0.4-0.3,0.7-0.6,1c-0.1,0.1-0.1,0.2-0.2,0.3c-0.2,0.2-0.3,0.4-0.5,0.6c-0.1,0.1-0.2,0.2-0.3,0.3
					c-0.2,0.2-0.4,0.3-0.6,0.5c-0.1,0.1-0.2,0.2-0.4,0.3c-0.2,0.1-0.4,0.2-0.7,0.4c-0.1,0.1-0.3,0.1-0.4,0.2
					c-0.2,0.1-0.5,0.2-0.8,0.2c-0.1,0-0.2,0.1-0.4,0.1c-0.4,0.1-0.8,0.1-1.2,0.1c-0.4,0-0.8,0-1.2-0.1c-0.1,0-0.3-0.1-0.4-0.1
					c-0.3-0.1-0.5-0.1-0.8-0.2c-0.1-0.1-0.3-0.1-0.4-0.2c-0.2-0.1-0.4-0.2-0.7-0.4c-0.1-0.1-0.3-0.2-0.4-0.3
					c-0.2-0.1-0.4-0.3-0.6-0.5c-0.1-0.1-0.2-0.2-0.3-0.3c-0.2-0.2-0.3-0.4-0.5-0.6c-0.1-0.1-0.2-0.2-0.2-0.3c-0.2-0.3-0.4-0.7-0.6-1
					c0,0,0,0,0,0c-0.1-0.3-0.2-0.7-0.3-1h12.6C1124.9,708.3,1124.8,708.6,1124.6,709C1124.6,708.9,1124.6,708.9,1124.6,709
					L1124.6,709z M1146.1,730.8h-54.9v-2.5c0-10.3,8-19.1,18-20.2c0,0,0,0.1,0,0.1c0.1,0.5,0.2,1,0.4,1.4c0,0.1,0.1,0.2,0.1,0.3
					c0.2,0.4,0.4,0.9,0.6,1.3c0,0.1,0.1,0.1,0.1,0.2c0.3,0.4,0.5,0.8,0.8,1.2c0,0,0,0,0.1,0.1c0.3,0.4,0.7,0.7,1,1
					c0,0,0.1,0.1,0.1,0.1c0.4,0.3,0.8,0.6,1.2,0.8c0.1,0,0.1,0.1,0.2,0.1c0.4,0.2,0.8,0.4,1.3,0.6c0.1,0,0.2,0.1,0.2,0.1
					c0.5,0.2,0.9,0.3,1.4,0.4c0.1,0,0.1,0,0.2,0c0.5,0.1,1,0.1,1.6,0.1s1.1-0.1,1.6-0.1c0.1,0,0.1,0,0.2,0c0.5-0.1,1-0.2,1.4-0.4
					c0.1,0,0.2-0.1,0.2-0.1c0.4-0.2,0.9-0.4,1.3-0.6c0.1,0,0.1-0.1,0.2-0.1c0.4-0.3,0.8-0.5,1.2-0.8c0,0,0.1-0.1,0.1-0.1
					c0.4-0.3,0.7-0.7,1-1c0,0,0,0,0.1-0.1c0.3-0.4,0.6-0.8,0.9-1.2c0-0.1,0.1-0.1,0.1-0.2c0.2-0.4,0.4-0.9,0.6-1.3
					c0-0.1,0.1-0.2,0.1-0.2c0.2-0.5,0.3-0.9,0.4-1.4c0,0,0-0.1,0-0.1c10.1,1.1,18,9.9,18,20.2L1146.1,730.8z"/>
			</g>
		</g>
	</g>
	<path class="st23" d="M1343.1,715.7h-131.8c-4.9,0-8.9-4-8.9-8.9v-4.2c0-4.9,4-8.9,8.9-8.9h131.8c4.9,0,8.9,4,8.9,8.9v4.2
		C1352,711.7,1348,715.7,1343.1,715.7z"/>
	<path class="st23" d="M1510.8,715.7H1385c-4.9,0-8.9-4-8.9-8.9v-4.2c0-4.9,4-8.9,8.9-8.9h125.9c4.9,0,8.9,4,8.9,8.9v4.2
		C1519.7,711.7,1515.8,715.7,1510.8,715.7z"/>
	<path class="st23" d="M1281.8,760.6h-70.5c-4.9,0-8.9-4-8.9-8.9v-4.2c0-4.9,4-8.9,8.9-8.9h70.5c4.9,0,8.9,4,8.9,8.9v4.2
		C1290.7,756.6,1286.7,760.6,1281.8,760.6z"/>
</g>
<g id="invoice_card_3_">
	<path class="st22" d="M1669.7,307h-408.8c-9.3,0-16.8-7.5-16.8-16.8V175.9c0-9.3,7.5-16.8,16.8-16.8h408.8
		c9.3,0,16.8,7.5,16.8,16.8v114.4C1686.5,299.5,1679,307,1669.7,307z"/>
	<g>
		<path d="M1384,208.6h-4.5v-21.7h4.5V208.6z"/>
		<path d="M1391.9,192.4l0.1,1.9c1.2-1.4,2.7-2.2,4.6-2.2c1.7,0,3,0.5,3.8,1.5c0.8,1,1.3,2.5,1.3,4.5v10.4h-4.3v-10.3
			c0-0.9-0.2-1.6-0.6-2s-1.1-0.6-2-0.6c-1.2,0-2.1,0.5-2.7,1.6v11.4h-4.3v-16.2H1391.9z"/>
		<path d="M1411.1,203.3l3-10.9h4.5l-5.5,16.2h-4.1l-5.5-16.2h4.5L1411.1,203.3z"/>
		<path d="M1419.6,200.3c0-1.6,0.3-3,0.9-4.3c0.6-1.3,1.5-2.2,2.7-2.9c1.2-0.7,2.5-1,4-1c2.2,0,4,0.7,5.3,2c1.4,1.3,2.1,3.1,2.3,5.4
			l0,1.1c0,2.5-0.7,4.5-2.1,6c-1.4,1.5-3.2,2.2-5.6,2.2s-4.2-0.7-5.6-2.2s-2.1-3.5-2.1-6.1V200.3z M1423.9,200.6
			c0,1.5,0.3,2.7,0.9,3.5c0.6,0.8,1.4,1.2,2.5,1.2c1,0,1.9-0.4,2.4-1.2c0.6-0.8,0.9-2.1,0.9-3.9c0-1.5-0.3-2.7-0.9-3.5
			c-0.6-0.8-1.4-1.2-2.5-1.2c-1.1,0-1.9,0.4-2.4,1.2C1424.2,197.6,1423.9,198.9,1423.9,200.6z"/>
		<path d="M1437.5,188.2c0-0.6,0.2-1.2,0.6-1.6c0.4-0.4,1-0.6,1.8-0.6c0.7,0,1.3,0.2,1.8,0.6c0.4,0.4,0.7,1,0.7,1.6
			c0,0.7-0.2,1.2-0.7,1.6c-0.4,0.4-1,0.6-1.8,0.6c-0.7,0-1.3-0.2-1.8-0.6C1437.8,189.4,1437.5,188.9,1437.5,188.2z M1442.1,208.6
			h-4.3v-16.2h4.3V208.6z"/>
		<path d="M1452.4,205.4c0.8,0,1.4-0.2,1.9-0.7c0.5-0.4,0.8-1,0.8-1.7h4c0,1.1-0.3,2.1-0.9,3s-1.4,1.6-2.4,2.1
			c-1,0.5-2.1,0.8-3.4,0.8c-2.3,0-4.1-0.7-5.5-2.2c-1.3-1.5-2-3.5-2-6.1v-0.3c0-2.5,0.7-4.5,2-6c1.3-1.5,3.1-2.2,5.5-2.2
			c2,0,3.6,0.6,4.9,1.7c1.2,1.1,1.8,2.7,1.9,4.6h-4c0-0.8-0.3-1.5-0.8-2c-0.5-0.5-1.2-0.8-2-0.8c-1,0-1.8,0.4-2.3,1.1
			s-0.8,1.9-0.8,3.6v0.4c0,1.7,0.3,2.9,0.8,3.6S1451.4,205.4,1452.4,205.4z"/>
		<path d="M1469.1,208.9c-2.4,0-4.3-0.7-5.8-2.2c-1.5-1.5-2.2-3.4-2.2-5.8v-0.4c0-1.6,0.3-3.1,0.9-4.4c0.6-1.3,1.5-2.3,2.7-3
			s2.5-1,3.9-1c2.2,0,4,0.7,5.2,2.1c1.3,1.4,1.9,3.4,1.9,5.9v1.8h-10.3c0.1,1.1,0.6,1.9,1.3,2.5s1.6,1,2.7,1c1.7,0,3-0.6,3.9-1.8
			l2.1,2.4c-0.6,0.9-1.5,1.6-2.6,2.1C1471.6,208.6,1470.4,208.9,1469.1,208.9z M1468.6,195.6c-0.9,0-1.6,0.3-2.1,0.9
			c-0.5,0.6-0.9,1.4-1,2.5h6v-0.3c0-1-0.3-1.7-0.8-2.2C1470.2,195.8,1469.5,195.6,1468.6,195.6z"/>
		<path d="M1494.1,202.4h-2.9l-1.1,6.1h-2.7l1.1-6.1h-3.4v-2.6h3.8l0.7-4.2h-3.5V193h3.9l1.1-6.2h2.7l-1.1,6.2h2.9l1.1-6.2h2.7
			l-1.1,6.2h3.3v2.6h-3.7l-0.7,4.2h3.3v2.6h-3.8l-1.1,6.1h-2.7L1494.1,202.4z M1491.7,199.9h2.9l0.7-4.2h-2.9L1491.7,199.9z"/>
		<path d="M1518.7,208.6h-14.9v-3l7-7.5c1-1.1,1.7-2,2.1-2.8s0.7-1.5,0.7-2.2c0-1-0.2-1.7-0.7-2.3c-0.5-0.6-1.2-0.8-2.1-0.8
			c-1,0-1.7,0.3-2.3,1c-0.6,0.7-0.8,1.6-0.8,2.7h-4.3c0-1.3,0.3-2.5,0.9-3.6c0.6-1.1,1.5-2,2.7-2.6c1.2-0.6,2.5-0.9,3.9-0.9
			c2.2,0,4,0.5,5.2,1.6c1.2,1.1,1.9,2.6,1.9,4.6c0,1.1-0.3,2.2-0.8,3.3c-0.6,1.1-1.5,2.4-2.9,3.9l-4.9,5.2h9.3V208.6z"/>
		<path d="M1536.3,208.6h-14.9v-3l7-7.5c1-1.1,1.7-2,2.1-2.8s0.7-1.5,0.7-2.2c0-1-0.2-1.7-0.7-2.3c-0.5-0.6-1.2-0.8-2.1-0.8
			c-1,0-1.7,0.3-2.3,1c-0.6,0.7-0.8,1.6-0.8,2.7h-4.3c0-1.3,0.3-2.5,0.9-3.6c0.6-1.1,1.5-2,2.7-2.6c1.2-0.6,2.5-0.9,3.9-0.9
			c2.2,0,4,0.5,5.2,1.6c1.2,1.1,1.9,2.6,1.9,4.6c0,1.1-0.3,2.2-0.8,3.3c-0.6,1.1-1.5,2.4-2.9,3.9l-4.9,5.2h9.3V208.6z"/>
		<path d="M1543.3,195.8h2.3c1.1,0,1.9-0.3,2.4-0.8c0.5-0.5,0.8-1.3,0.8-2.2c0-0.9-0.3-1.6-0.8-2c-0.5-0.5-1.2-0.7-2.2-0.7
			c-0.8,0-1.5,0.2-2.1,0.7c-0.6,0.5-0.8,1-0.8,1.8h-4.3c0-1.1,0.3-2.2,0.9-3.1s1.5-1.6,2.6-2.1c1.1-0.5,2.3-0.8,3.6-0.8
			c2.3,0,4.1,0.6,5.4,1.7c1.3,1.1,2,2.6,2,4.5c0,1-0.3,1.9-0.9,2.7s-1.4,1.5-2.4,1.9c1.2,0.4,2.1,1.1,2.7,2c0.6,0.9,0.9,1.9,0.9,3.1
			c0,1.9-0.7,3.5-2.1,4.6c-1.4,1.2-3.3,1.7-5.6,1.7c-2.2,0-3.9-0.6-5.3-1.7s-2.1-2.7-2.1-4.5h4.3c0,0.8,0.3,1.5,0.9,2
			s1.4,0.8,2.3,0.8c1,0,1.8-0.3,2.4-0.8c0.6-0.5,0.9-1.3,0.9-2.2c0-2.2-1.2-3.3-3.6-3.3h-2.3V195.8z"/>
	</g>
	<circle class="st23" cx="1307" cy="233.3" r="50.2"/>
	<g>
		<g>
			<g>
				<path class="st24" d="M1294.2,219.9c0.7,0.4,1.4,0.6,2.1,0.5c2.1,5.4,6,10.8,10.7,10.8c4.8,0,8.6-5.4,10.7-10.8
					c0.7,0.1,1.4-0.1,2.1-0.5c1.2-0.7,2.1-2.2,2.4-3.9c0.4-1.7,0-3.5-0.9-4.7c-0.4-0.5-1-0.9-1.6-1.2c-0.5-6.8-6.1-12.3-12.8-12.3
					c-5.7,0-10.8,4-12.3,9.8c-0.2,0.7-0.3,1.5-0.4,2.1l0,0c-1.8,1.1-3,3.9-2.5,6.2C1292.1,217.8,1293,219.2,1294.2,219.9
					L1294.2,219.9z M1319.7,215.6c-0.3,1.2-0.8,1.9-1.3,2.2c-0.1,0.1-0.3,0.2-0.5,0.1c0,0-0.1,0-0.2-0.1c-0.3-0.3-0.8-0.3-1.2-0.2
					c-0.4,0.1-0.7,0.4-0.8,0.8c-1.8,5.1-5.2,10.3-8.8,10.3c-3.6,0-7-5.2-8.8-10.3c-0.1-0.4-0.5-0.7-0.8-0.8c-0.1,0-0.2-0.1-0.4-0.1
					c-0.3,0-0.6,0.1-0.8,0.3c-0.1,0.1-0.2,0.1-0.2,0.1c-0.2,0-0.4-0.1-0.5-0.1c-0.4-0.3-1-1-1.3-2.2c-0.3-1.6,0.9-3.4,1.5-3.6
					c0.1,0,0.1,0,0.1-0.1c0,0,0.1,0,0.1,0c0.1-0.1,0.2-0.1,0.3-0.2l5.1-4.5l2.1,2.5c0.4,0.5,1.1,0.6,1.7,0.2l1.7-1.1
					c0.4,0.5,0.9,1.1,1.6,1.5c0.7,0.4,1.9,0.7,3.5,0.2c1.5-0.1,4.7,0.2,5.5,1.4c0.1,0.2,0.3,0.3,0.4,0.4c0,0,0,0,0,0
					c0.2,0.1,0.3,0.1,0.5,0.1c0,0,0,0,0,0c0.3,0,0.6,0.2,0.8,0.4C1319.8,213.5,1320,214.6,1319.7,215.6L1319.7,215.6z M1307,200.5
					c4.7,0,8.8,3.5,9.9,8.2c0,0-0.1,0-0.1,0c-0.3-0.1-0.7-0.2-1-0.3c-0.1,0-0.1,0-0.2,0c-0.3-0.1-0.7-0.1-1-0.2c-0.1,0-0.2,0-0.2,0
					c-0.3,0-0.6-0.1-0.8-0.1c-0.1,0-0.2,0-0.2,0c-0.2,0-0.5,0-0.7,0c0,0-0.1,0-0.1,0c-0.5,0-0.8,0-0.9,0c-0.1,0-0.2,0-0.3,0.1
					c-0.7,0.2-1.2,0.2-1.6,0c-0.6-0.3-1-1.1-1-1.4c-0.1-0.4-0.4-0.7-0.8-0.9c-0.4-0.1-0.8-0.1-1.2,0.1l-2,1.3l-2.2-2.6
					c-0.2-0.3-0.5-0.4-0.9-0.4c-0.3,0-0.7,0.1-0.9,0.3l-3.2,2.8C1299.1,203.2,1302.8,200.5,1307,200.5L1307,200.5z"/>
				<path class="st24" d="M1315.1,235.2L1315.1,235.2l-1.5-0.1c-0.2,0-0.3,0-0.5,0h-12.2c-0.2,0-0.3,0-0.5,0l-1.5,0.1l0,0.1
					c-9.8,1-17.6,9.5-17.6,19.6v3.4c0,0.7,0.6,1.3,1.3,1.3h48.8c0.7,0,1.3-0.6,1.3-1.3v-3.4C1332.7,244.8,1324.9,236.3,1315.1,235.2
					L1315.1,235.2z M1312.1,238.5c-0.1,0.3-0.3,0.6-0.5,0.9c-0.1,0.1-0.1,0.2-0.2,0.2c-0.1,0.2-0.3,0.4-0.4,0.5
					c-0.1,0.1-0.2,0.2-0.3,0.3c-0.2,0.1-0.3,0.3-0.5,0.4c-0.1,0.1-0.2,0.1-0.3,0.2c-0.2,0.1-0.4,0.2-0.5,0.3
					c-0.1,0.1-0.2,0.1-0.3,0.2c-0.2,0.1-0.4,0.1-0.7,0.2c-0.1,0-0.2,0.1-0.3,0.1c-0.3,0.1-0.7,0.1-1,0.1c-0.4,0-0.7,0-1-0.1
					c-0.1,0-0.2-0.1-0.3-0.1c-0.2-0.1-0.4-0.1-0.7-0.2c-0.1,0-0.2-0.1-0.3-0.2c-0.2-0.1-0.4-0.2-0.5-0.3c-0.1-0.1-0.2-0.1-0.3-0.2
					c-0.2-0.1-0.3-0.3-0.5-0.4c-0.1-0.1-0.2-0.2-0.3-0.3c-0.2-0.2-0.3-0.3-0.4-0.5c-0.1-0.1-0.1-0.2-0.2-0.2
					c-0.2-0.3-0.3-0.6-0.5-0.9c0,0,0,0,0,0c-0.1-0.3-0.2-0.5-0.3-0.8h10.6C1312.3,238,1312.2,238.3,1312.1,238.5
					C1312.1,238.5,1312.1,238.5,1312.1,238.5L1312.1,238.5z M1330.1,256.9h-46.2v-2.1c0-8.7,6.7-16.1,15.2-17c0,0,0,0.1,0,0.1
					c0.1,0.4,0.2,0.8,0.3,1.2c0,0.1,0.1,0.1,0.1,0.2c0.1,0.4,0.3,0.7,0.5,1.1c0,0.1,0.1,0.1,0.1,0.2c0.2,0.4,0.4,0.7,0.7,1
					c0,0,0,0,0,0.1c0.3,0.3,0.6,0.6,0.9,0.9c0,0,0.1,0.1,0.1,0.1c0.3,0.3,0.6,0.5,1,0.7c0.1,0,0.1,0.1,0.2,0.1
					c0.3,0.2,0.7,0.4,1.1,0.5c0.1,0,0.1,0.1,0.2,0.1c0.4,0.1,0.8,0.3,1.2,0.3c0.1,0,0.1,0,0.2,0c0.4,0.1,0.9,0.1,1.3,0.1
					s0.9,0,1.3-0.1c0.1,0,0.1,0,0.2,0c0.4-0.1,0.8-0.2,1.2-0.3c0.1,0,0.1,0,0.2-0.1c0.4-0.1,0.7-0.3,1.1-0.5c0.1,0,0.1-0.1,0.2-0.1
					c0.3-0.2,0.7-0.4,1-0.7c0,0,0.1-0.1,0.1-0.1c0.3-0.3,0.6-0.6,0.9-0.9c0,0,0,0,0,0c0.3-0.3,0.5-0.7,0.7-1c0-0.1,0.1-0.1,0.1-0.2
					c0.2-0.3,0.4-0.7,0.5-1.1c0-0.1,0.1-0.1,0.1-0.2c0.1-0.4,0.2-0.8,0.3-1.2c0,0,0-0.1,0-0.1c8.5,0.9,15.2,8.3,15.2,17
					L1330.1,256.9z"/>
			</g>
		</g>
	</g>
	<path class="st23" d="M1494.5,244.2h-108.1c-4.9,0-8.9-4-8.9-8.9v-0.7c0-4.9,4-8.9,8.9-8.9h108.1c4.9,0,8.9,4,8.9,8.9v0.7
		C1503.4,240.3,1499.4,244.2,1494.5,244.2z"/>
	<path class="st23" d="M1635.6,244.2h-103.1c-4.9,0-8.9-4-8.9-8.9v-0.7c0-4.9,4-8.9,8.9-8.9h103.1c4.9,0,8.9,4,8.9,8.9v0.7
		C1644.5,240.3,1640.5,244.2,1635.6,244.2z"/>
	<path class="st23" d="M1442.9,282h-56.5c-4.9,0-8.9-4-8.9-8.9v-0.7c0-4.9,4-8.9,8.9-8.9h56.5c4.9,0,8.9,4,8.9,8.9v0.7
		C1451.8,278,1447.8,282,1442.9,282z"/>
	<path class="st24" d="M1538.7,282h-56.5c-4.9,0-8.9-4-8.9-8.9v-0.7c0-4.9,4-8.9,8.9-8.9h56.5c4.9,0,8.9,4,8.9,8.9v0.7
		C1547.6,278,1543.6,282,1538.7,282z"/>
</g>
<path class="st24" d="M364.6,288h-56.5c-4.9,0-8.9-4-8.9-8.9v-0.7c0-4.9,4-8.9,8.9-8.9h56.5c4.9,0,8.9,4,8.9,8.9v0.7
	C373.5,284,369.5,288,364.6,288z"/>
<path class="st24" d="M375.2,649.6h-56.5c-4.9,0-8.9-4-8.9-8.9V640c0-4.9,4-8.9,8.9-8.9h56.5c4.9,0,8.9,4,8.9,8.9v0.7
	C384.1,645.6,380.1,649.6,375.2,649.6z"/>
<path class="st24" d="M1380.3,758.8h-56.5c-4.9,0-8.9-4-8.9-8.9v-0.7c0-4.9,4-8.9,8.9-8.9h56.5c4.9,0,8.9,4,8.9,8.9v0.7
	C1389.2,754.8,1385.2,758.8,1380.3,758.8z"/>
</svg>
