<?xml version="1.0" encoding="utf-8"?>
<!-- Generator: Adobe Illustrator 24.1.1, SVG Export Plug-In . SVG Version: 6.00 Build 0)  -->
<svg version="1.1" id="Layer_1" xmlns="http://www.w3.org/2000/svg" xmlns:xlink="http://www.w3.org/1999/xlink" x="0px" y="0px"
	 viewBox="0 0 50 50" style="enable-background:new 0 0 50 50;" xml:space="preserve">
<style type="text/css">
	.st0{fill:#FFFFFF;}
</style>
<g>
	<path class="st0" d="M45.5,16.9c-0.4,0.1-0.6,0.6-0.5,0.9c0.7,2.2,1.1,4.5,1.1,6.8c0,5.8-2.3,11.3-6.4,15.4s-9.6,6.4-15.4,6.4
		S13,44.2,8.9,40.1s-6.4-9.6-6.4-15.4S4.7,13.3,8.9,9.2s9.6-6.4,15.4-6.4c3.1,0,6.1,0.6,8.9,1.9c2.7,1.2,5.1,2.9,7.1,5.1
		c0.3,0.3,0.8,0.3,1.1,0c0.3-0.3,0.3-0.8,0-1.1c-2.2-2.3-4.7-4.2-7.6-5.5c-3-1.3-6.2-2-9.5-2c-6.2,0-12.1,2.4-16.5,6.8
		C3.4,12.6,1,18.4,1,24.6c0,6.2,2.4,12.1,6.8,16.5c4.4,4.4,10.3,6.8,16.5,6.8s12.1-2.4,16.5-6.8c4.4-4.4,6.8-10.3,6.8-16.5
		c0-2.5-0.4-4.9-1.1-7.2C46.3,17,45.9,16.8,45.5,16.9z"/>
	<path class="st0" d="M48.4,8.4c-0.4-0.4-1-0.7-1.6-0.7c-0.6,0-1.2,0.2-1.6,0.7l-0.7,0.7c-0.3,0.3-0.3,0.8,0,1.1
		c0.3,0.3,0.8,0.3,1.1,0l0.7-0.7c0.1-0.1,0.3-0.2,0.5-0.2c0.2,0,0.4,0.1,0.5,0.2c0.1,0.1,0.2,0.3,0.2,0.5c0,0.2-0.1,0.4-0.2,0.5
		L21.4,36.5c-0.1,0.1-0.3,0.2-0.5,0.2s-0.4-0.1-0.5-0.2L10.2,26.3C10.1,26.2,10,26,10,25.8c0-0.2,0.1-0.4,0.2-0.5
		c0.1-0.1,0.3-0.2,0.5-0.2c0.2,0,0.4,0.1,0.5,0.2l9.1,9.1c0.1,0.1,0.3,0.2,0.5,0.2s0.4-0.1,0.5-0.2l22.1-22.1c0.3-0.3,0.3-0.8,0-1.1
		c-0.3-0.3-0.8-0.3-1.1,0L20.9,32.7l-8.5-8.5c-0.4-0.4-1-0.7-1.6-0.7c-0.6,0-1.2,0.2-1.6,0.7c-0.4,0.4-0.7,1-0.7,1.6
		c0,0.6,0.2,1.2,0.7,1.6l10.1,10.1c0.4,0.4,1,0.7,1.6,0.7c0.6,0,1.2-0.2,1.6-0.7l25.9-25.9c0.4-0.4,0.7-1,0.7-1.6
		C49.1,9.4,48.8,8.8,48.4,8.4z"/>
</g>
</svg>
