<?xml version="1.0" encoding="utf-8"?>
<!-- Generator: Adobe Illustrator 24.1.1, SVG Export Plug-In . SVG Version: 6.00 Build 0)  -->
<svg version="1.1" id="Layer_1" xmlns="http://www.w3.org/2000/svg" xmlns:xlink="http://www.w3.org/1999/xlink" x="0px" y="0px"
	 viewBox="0 0 500 500" style="enable-background:new 0 0 500 500;" xml:space="preserve">
<style type="text/css">
	.st0{fill:#F05A29;}
	.st1{clip-path:url(#SVGID_2_);}
	.st2{fill:#29266E;}
</style>
<g>
	<path class="st0" d="M97,142.4h176.5c3.7,0,6.1-2.4,6.1-6.1c0-3.7-2.4-6.1-6.1-6.1H97c-3.7,0-6.1,2.4-6.1,6.1
		C89.7,141.2,93.3,142.4,97,142.4L97,142.4z"/>
	<path class="st0" d="M97,266.6h176.5c3.7,0,6.1-2.4,6.1-6.1c0-3.7-2.4-6.1-6.1-6.1H97c-3.7,0-6.1,2.4-6.1,6.1
		C89.7,264.2,93.3,266.6,97,266.6L97,266.6z"/>
	<path class="st0" d="M97,204.5h203.3c3.7,0,6.1-2.4,6.1-6.1s-2.4-4.9-6.1-4.9H97c-3.7,0-6.1,2.4-6.1,6.1
		C89.7,202.1,93.3,204.5,97,204.5L97,204.5z"/>
	<g>
		<g>
			<g>
				<defs>
					<rect id="SVGID_1_" x="28.8" y="17" width="443.2" height="463.9"/>
				</defs>
				<clipPath id="SVGID_2_">
					<use xlink:href="#SVGID_1_"  style="overflow:visible;"/>
				</clipPath>
				<g class="st1">
					<path class="st2" d="M470.8,160.7c0-2.4-2.4-3.7-3.7-4.9l-17-9.7l3.7-6.1c3.7-4.9,3.7-9.7,2.4-15.8c-1.2-6.1-4.9-9.7-9.7-12.2
						l-15.8-8.5c-9.7-6.1-23.1-2.4-29.2,7.3L388,133.9V97.4c0-2.4-1.2-4.9-2.4-6.1l-70.6-70.6c-1.2-1.2-3.7-2.4-6.1-2.4H36.1
						c-3.7-1.2-7.3,2.4-7.3,7.3v448c0,4.9,3.7,7.3,7.3,7.3h344.6c4.9,0,7.3-3.7,7.3-7.3V253.2l54.8-92.5l9.7,6.1l-46.3,80.4
						c-2.4,3.7-1.2,8.5,3.7,11c1.2,1.2,2.4,1.2,4.9,1.2s6.1-1.2,6.1-4.9l49.9-86.4C472,165.5,472,163.1,470.8,160.7L470.8,160.7z
						 M417.2,119.3c1.2-2.4,4.9-3.7,6.1-2.4l15.8,8.5c1.2,1.2,2.4,2.4,2.4,3.7c0,1.2,0,2.4,0,3.7l-40.2,68.2L377,186.2L417.2,119.3z
						 M301.5,375l-24.4-14.6l93.7-163.1l24.4,14.6L301.5,375z M267.5,409c-1.2,0-2.4-1.2-3.7-2.4l6.1-30.4l18.3,11L267.5,409z
						 M366.1,92.5h-52.4V41.4L366.1,92.5z M373.4,466.3H44.6V32.8h253.2V101c0,4.9,3.7,7.3,7.3,7.3h68.2v53.6L258.9,360.3v1.2v1.2
						l-9.7,42.6c-1.2,3.7-1.2,7.3,3.7,12.2l-6.1,12.2l0,0c-4.9,0-7.3,0-12.2-1.2c0,0-1.2,0-3.7-1.2c2.4-2.4,3.7-4.9,4.9-6.1
						c2.4-6.1,0-15.8-6.1-21.9c-4.9-4.9-9.7-6.1-15.8-6.1c-6.1,1.2-11,8.5-12.2,13.4c-1.2,6.1,0,12.2,4.9,18.3
						c-6.1,0-14.6-1.2-18.3-2.4c0,0,0,0-1.2,0c3.7-3.7,6.1-6.1,7.3-11c2.4-6.1,2.4-11-1.2-17c-3.7-4.9-7.3-7.3-13.4-7.3
						s-11,2.4-13.4,6.1c-4.9,6.1-4.9,17-2.4,23.1c1.2,1.2,1.2,3.7,2.4,4.9c-1.2,0-2.4,1.2-3.7,1.2c-7.3,2.4-14.6,2.4-19.5-1.2
						c-4.9-3.7-12.2-9.7-15.8-17V403c14.6-4.9,30.4-15.8,40.2-30.4c6.1-9.7,7.3-19.5,4.9-30.4c-2.4-6.1-6.1-9.7-11-13.4
						c-6.1-3.7-13.4-3.7-19.5,0c-19.5,8.5-29.2,35.3-28,56c0,1.2,0,4.9,1.2,6.1c-19.5,4.9-24.4,2.4-25.6,1.2
						c-1.2-3.7-4.9-4.9-7.3-3.7c-3.7,1.2-4.9,4.9-3.7,7.3c4.9,13.4,26.8,8.5,40.2,6.1c0,1.2,1.2,2.4,1.2,3.7
						c4.9,8.5,12.2,17,19.5,20.7c7.3,3.7,18.3,4.9,29.2,1.2c3.7-1.2,6.1-2.4,7.3-3.7c2.4,2.4,4.9,3.7,7.3,4.9
						c7.3,2.4,23.1,4.9,35.3,1.2c4.9,2.4,8.5,4.9,14.6,6.1c4.9,1.2,9.7,2.4,17,2.4c1.2,0,2.4,0,3.7-1.2c1.2,0,1.2,0,2.4,0
						c2.4,0,6.1-1.2,6.1-4.9l6.1-12.2c1.2,0,2.4,1.2,3.7,1.2c3.7,0,6.1-1.2,8.5-3.7l31.7-30.4l1.2-1.2l0,0L377,277.6L373.4,466.3
						L373.4,466.3z M222.4,416.3c-1.2,2.4-2.4,3.7-4.9,4.9c-4.9-3.7-7.3-6.1-6.1-12.2c0-1.2,3.7-4.9,4.9-4.9c0,0,0,0,1.2,0
						s2.4,1.2,3.7,2.4C221.2,409,222.4,413.9,222.4,416.3L222.4,416.3z M181,405.4c-1.2,3.7-3.7,6.1-6.1,8.5c0-1.2-1.2-2.4-1.2-3.7
						c-1.2-3.7-1.2-8.5,1.2-12.2c1.2-1.2,2.4-1.2,3.7-1.2l0,0c2.4,0,3.7,1.2,4.9,2.4C182.2,401.7,182.2,403,181,405.4L181,405.4z
						 M122.6,392c0-1.2,0-3.7,0-4.9c-1.2-18.3,6.1-39,20.7-45c1.2-1.2,3.7-1.2,4.9-1.2c2.4,0,3.7,0,6.1,1.2c2.4,1.2,4.9,2.4,6.1,6.1
						c2.4,6.1,1.2,13.4-3.7,19.5C148.1,378.6,134.7,387.1,122.6,392L122.6,392z"/>
				</g>
			</g>
		</g>
	</g>
</g>
</svg>
