<?xml version="1.0" encoding="utf-8"?>
<!-- Generator: Adobe Illustrator 24.1.1, SVG Export Plug-In . SVG Version: 6.00 Build 0)  -->
<svg version="1.1" id="Layer_1" xmlns="http://www.w3.org/2000/svg" xmlns:xlink="http://www.w3.org/1999/xlink" x="0px" y="0px"
	 viewBox="0 0 500 500" style="enable-background:new 0 0 500 500;" xml:space="preserve">
<style type="text/css">
	.st0{fill-rule:evenodd;clip-rule:evenodd;fill:#29266E;}
	.st1{fill-rule:evenodd;clip-rule:evenodd;fill:#F05A29;}
	.st2{fill-rule:evenodd;clip-rule:evenodd;fill:#CCCCCC;}
	.st3{fill-rule:evenodd;clip-rule:evenodd;fill:#194BED;}
</style>
<g>
	<path class="st0" d="M335.9,13.3H109.6c-24,0-43.5,19.5-43.5,43.5v382.9c0,24,19.5,43.5,43.5,43.5h226.3c24,0,43.5-19.5,43.5-43.5
		v-90.5l38.4,27.9c2.6,1.9,6.2,2.2,9.1,0.7c2.9-1.5,4.8-4.5,4.8-7.8V126.5c0-14.4-11.7-26.1-26.1-26.1h-26.1V56.8
		C379.4,32.8,359.9,13.4,335.9,13.3z M121.6,30.7h-12c-14.4,0-26.1,11.7-26.1,26.1v339.4H362v-40.7l-29.7,21.6
		c-3.1,2.2-7.2,2.2-10.2,0l-42.7-31.1l-42.7,31.1c-2.6,1.9-6.2,2.2-9.1,0.7c-2.9-1.5-4.8-4.5-4.8-7.8V126.5
		c0-14.4,11.7-26.1,26.1-26.1H362V56.8c0-14.4-11.7-26.1-26.1-26.1h-12l-13.2,26.5c-6,14.7-19.9,24.7-35.7,25.7H170.5
		c-15.8-1.1-29.6-11-35.6-25.7L121.6,30.7z M304.4,30.7L295,49.5c-3.2,8.7-10.9,14.9-20.1,16.1H170.5c-9.2-1.2-16.9-7.4-20.1-16.1
		l-9.4-18.7H304.4z M414.2,353V126.5c0-4.8-3.9-8.7-8.7-8.7H248.8c-4.8,0-8.7,3.9-8.7,8.7V353l34-24.8c3.1-2.2,7.2-2.2,10.2,0
		l42.7,31.1l42.7-31.1c3.1-2.2,7.2-2.2,10.2,0L414.2,353z M109.6,465.9c-14.4,0-26.1-11.7-26.1-26.1v-26.1H362v26.1
		c0,14.4-11.7,26.1-26.1,26.1H109.6z"/>
	<path class="st1" d="M240.1,431h-34.8c-4.8,0-8.7,3.9-8.7,8.7s3.9,8.7,8.7,8.7h34.8c4.8,0,8.7-3.9,8.7-8.7S244.9,431,240.1,431z"/>
	<path class="st2" d="M118.3,152.6h87c4.8,0,8.7-3.9,8.7-8.7s-3.9-8.7-8.7-8.7h-87c-4.8,0-8.7,3.9-8.7,8.7S113.5,152.6,118.3,152.6z
		"/>
	<path class="st3" d="M205.3,178.7h-60.9c-4.8,0-8.7,3.9-8.7,8.7c0,4.8,3.9,8.7,8.7,8.7h60.9c4.8,0,8.7-3.9,8.7-8.7
		C214,182.6,210.1,178.7,205.3,178.7z"/>
	<path class="st2" d="M205.3,222.2H127c-4.8,0-8.7,3.9-8.7,8.7c0,4.8,3.9,8.7,8.7,8.7h78.3c4.8,0,8.7-3.9,8.7-8.7
		C214,226.1,210.1,222.2,205.3,222.2z"/>
	<path class="st1" d="M205.3,265.7h-52.2c-4.8,0-8.7,3.9-8.7,8.7s3.9,8.7,8.7,8.7h52.2c4.8,0,8.7-3.9,8.7-8.7
		S210.1,265.7,205.3,265.7z"/>
	<path class="st2" d="M205.3,309.2h-26.1c-4.8,0-8.7,3.9-8.7,8.7c0,4.8,3.9,8.7,8.7,8.7h26.1c4.8,0,8.7-3.9,8.7-8.7
		C214,313.1,210.1,309.2,205.3,309.2z"/>
	<path class="st1" d="M292.4,213.5c-4.8,0-8.7-3.9-8.7-8.7c0-4.8-3.9-8.7-8.7-8.7c-4.8,0-8.7,3.9-8.7,8.7c0,11,7,20.8,17.4,24.5v1.6
		c0,4.8,3.9,8.7,8.7,8.7s8.7-3.9,8.7-8.7v-1.6c12-4.2,19.2-16.5,17-29c-2.2-12.5-13-21.7-25.7-21.6c-4.8,0-8.7-3.9-8.7-8.7
		c0-4.8,3.9-8.7,8.7-8.7s8.7,3.9,8.7,8.7c0,4.8,3.9,8.7,8.7,8.7c4.8,0,8.7-3.9,8.7-8.7c0-11-7-20.8-17.4-24.5v-1.6
		c0-4.8-3.9-8.7-8.7-8.7s-8.7,3.9-8.7,8.7v1.6c-12,4.2-19.2,16.5-17,29c2.2,12.5,13,21.7,25.7,21.6c4.8,0,8.7,3.9,8.7,8.7
		C301.1,209.6,297.2,213.5,292.4,213.5z"/>
	<path class="st0" d="M379.4,248.3H274.9c-4.8,0-8.7,3.9-8.7,8.7c0,4.8,3.9,8.7,8.7,8.7h104.4c4.8,0,8.7-3.9,8.7-8.7
		C388.1,252.2,384.2,248.3,379.4,248.3z"/>
	<path class="st0" d="M379.4,283.1H274.9c-4.8,0-8.7,3.9-8.7,8.7c0,4.8,3.9,8.7,8.7,8.7h104.4c4.8,0,8.7-3.9,8.7-8.7
		C388.1,287,384.2,283.1,379.4,283.1z"/>
	<path class="st2" d="M379.4,178.7h-43.5c-4.8,0-8.7,3.9-8.7,8.7c0,4.8,3.9,8.7,8.7,8.7h43.5c4.8,0,8.7-3.9,8.7-8.7
		C388.1,182.6,384.2,178.7,379.4,178.7z"/>
	<path class="st3" d="M327.2,152.6c0,4.8,3.9,8.7,8.7,8.7h43.5c4.8,0,8.7-3.9,8.7-8.7c0-4.8-3.9-8.7-8.7-8.7h-43.5
		C331.1,143.9,327.2,147.8,327.2,152.6z"/>
	<path class="st3" d="M379.4,213.5h-43.5c-4.8,0-8.7,3.9-8.7,8.7c0,4.8,3.9,8.7,8.7,8.7h43.5c4.8,0,8.7-3.9,8.7-8.7
		C388.1,217.4,384.2,213.5,379.4,213.5z"/>
</g>
</svg>
