<?xml version="1.0" encoding="utf-8"?>
<!-- Generator: Adobe Illustrator 24.1.1, SVG Export Plug-In . SVG Version: 6.00 Build 0)  -->
<svg version="1.1" id="Layer_1" xmlns="http://www.w3.org/2000/svg" xmlns:xlink="http://www.w3.org/1999/xlink" x="0px" y="0px"
	 viewBox="0 0 500 500" style="enable-background:new 0 0 500 500;" xml:space="preserve">
<style type="text/css">
	.st0{fill-rule:evenodd;clip-rule:evenodd;fill:#F05A29;}
	.st1{fill-rule:evenodd;clip-rule:evenodd;fill:#194BED;}
	.st2{fill-rule:evenodd;clip-rule:evenodd;fill:#29266E;}
</style>
<g>
	<path class="st0" d="M75.5,348.5l-14,2.6c0.4,2,9.4,50.2,60.6,67.7l4.6-13.7C83.6,390.5,75.8,350.3,75.5,348.5z"/>
	<path class="st1" d="M105.3,306.3c0-32.3,26-58.6,58-58.6s58,26.3,58,58.6s-26,58.6-58,58.6S105.3,338.6,105.3,306.3z M119.5,306.3
		c0,24.3,19.6,44.2,43.7,44.2c24.1,0,43.7-19.8,43.7-44.2c0-24.3-19.6-44.2-43.7-44.2C139.1,262.1,119.5,281.9,119.5,306.3z"/>
	<path class="st0" d="M166.5,301.1v-14.8c4,0.6,7.7,2.1,11.1,4.6l5.1-7.2c-5.1-3.5-10.5-5.5-16.2-5.9v-4h-5v3.9
		c-9.5,0.5-17,6.3-17,15.8c0,9.9,6.7,13.4,17,15.8v15.3c-4.6-0.7-9.1-3-13.5-6.8l-5.7,6.8c5.7,5,12,7.8,19.1,8.6v5.7h5v-5.7
		c9.9-0.5,17.6-6.1,17.6-15.9C184.1,306.2,176.8,304.3,166.5,301.1z M161.5,299.6c-4.3-1.4-7.5-2.8-7.5-7.1c0-4,3.5-6.1,7.5-6.5
		V299.6z M166.5,310.7v14.2c4.2-0.4,8.1-2.5,8.1-6.8C174.6,313.5,171.1,312,166.5,310.7z"/>
	<path class="st2" d="M440.6,275.4l19.7-22l-33.9-34.2l-21.8,19.9c-6.9-4-14.3-7.1-22-9.3l-1.9-29.7H333l-1.9,29.7
		c-7.6,2.1-14.8,5.1-21.7,9.1l-22.2-19.7l-12.2,12.3c-11.8-17.7-26.9-35.7-45.2-53.8c4-2.5,6.7-6.9,6.7-12V149
		c0-7.8-6.3-14.2-14-14.2h-10.9l30.1-71.2c-1.6-0.1-3.7-0.5-6.4-1c-11.5-2.3-33-6.6-67.7,6.6c-21.2,8.1-34.2,10.8-66.3-6.4
		l-17.8-9.5l34.3,81.5h-10.9c-7.7,0-14,6.3-14,14.2v16.7c0,5,2.6,9.4,6.4,11.9c-56.7,56-82.2,110.1-76,160.9
		c8.6,69.8,74.1,106.4,76.9,107.9l1.6,0.9h125.2l1.6-0.9c1-0.5,22.1-12.2,42.2-34.7l16.3,16.5l22.2-19.7c7,4,14.3,7,21.9,9.1
		l1.5,29.7h47.9l1.5-29.7c7.8-2.1,15.3-5.2,22.3-9.3l21.8,19.9l33.9-34.2l-19.7-22c4-7,7.1-14.6,9.2-22.5l29.3-1.5v-48.5l-29.3-1.5
		C447.6,289.9,444.5,282.4,440.6,275.4z M111.9,83.6c24.7,9.8,39.1,7.3,60.8-0.9c16-6.1,28.2-9.7,48.7-7.6l-25.2,59.7h-62.7
		L111.9,83.6z M222.3,165.4V149c-58.9,0.2-112,0.3-115.3,0.3l0.3,16.4C113.4,165.6,207,165.4,222.3,165.4z M223.5,432.8H105.8
		c-9.5-5.7-61.1-39.3-68.1-96.3c-5.9-48.3,21-101,80-156.6h21.8L127,191.5l9.7,10.6l23.8-22.2h11.4l18.5,36.4l12.7-6.6l-15.1-29.9
		h23.7c22.2,21,40.1,41.8,53.2,62l-11.3,11.5l19.5,22.3c-3.9,6.9-7,14.3-9,21.9l-29.4,1.8v48.4l29.5,1.8c2.1,7.7,5.1,15.1,9,21.9
		L253.5,394l7.4,7.4C245.3,419.1,228.5,429.8,223.5,432.8z M425.7,368.8c10.3-16,11.7-30.1,12.6-33.2l26.5-1.4v-21.1l-26.5-1.4
		l-1.2-5.4c-4.1-19.1-12.9-29.7-14.5-32.4l17.9-20L425.9,239l-19.8,18.1l-4.6-3.1c-15.8-10.5-29.5-11.7-32.4-12.6l-1.7-26.9h-21
		l-1.7,27c-2.7,0.8-16.5,2.1-32.1,12.3l-4.5,3L287.9,239l-14.8,15l17.7,20.3l-3,4.6c-5.4,8.4-9.1,17.5-11.1,27.2l-1.1,5.4l-26.7,1.7
		v21.2l26.7,1.7l1.1,5.3c2.1,9.8,5.8,18.9,11.2,27.2l3,4.6l-17.7,20.3l14.8,15l20.1-17.8l4.5,2.9c8.4,5.4,17.6,9.2,27.2,11.3
		l5.4,1.2l1.4,26.9h20.8l1.4-26.9l5.4-1.1c9.9-2.1,19.1-6,27.5-11.5l4.6-3l19.8,18l14.7-14.9l-17.9-20L425.7,368.8z"/>
	<path class="st0" d="M309.1,323.6c0-26.6,21.4-48.3,47.7-48.3c26.4,0,47.8,21.7,47.8,48.3c0,26.6-21.4,48.2-47.8,48.2
		C330.5,371.9,309.1,350.2,309.1,323.6z M323.4,323.6c0,18.7,15,33.8,33.5,33.8c18.5,0,33.5-15.2,33.5-33.8
		c0-18.7-15-33.9-33.5-33.9C338.4,289.8,323.4,305,323.4,323.6z"/>
</g>
</svg>
