<?xml version="1.0" encoding="utf-8"?>
<!-- Generator: Adobe Illustrator 24.1.1, SVG Export Plug-In . SVG Version: 6.00 Build 0)  -->
<svg version="1.1" id="Layer_1" xmlns="http://www.w3.org/2000/svg" xmlns:xlink="http://www.w3.org/1999/xlink" x="0px" y="0px"
	 viewBox="0 0 500 500" style="enable-background:new 0 0 500 500;" xml:space="preserve">
<style type="text/css">
	.st0{fill-rule:evenodd;clip-rule:evenodd;fill:#29266E;}
	.st1{fill-rule:evenodd;clip-rule:evenodd;fill:#F05A29;}
	.st2{fill-rule:evenodd;clip-rule:evenodd;fill:#194BED;}
	.st3{fill:#29266E;}
</style>
<g>
	<path class="st0" d="M46.8,215.8c2.7,0,5.2-0.5,7.6-1.4v84.4c0,14.6,11.9,26.4,26.4,26.4c7.4,0,14.1-3.1,18.9-8
		c4.8,4.9,11.5,8,18.9,8c14.6,0,26.4-11.9,26.4-26.4v-84.4c2.4,0.8,4.9,1.4,7.6,1.4c12.5,0,22.7-10.2,22.7-22.7v-45.3
		c0-28.6-20-52.6-46.8-58.8c5.6-6.6,9.1-15,9.1-24.3C137.4,44,120.5,27,99.7,27C78.9,27,61.9,44,61.9,64.8c0,9.3,3.5,17.7,9.1,24.3
		c-26.8,6.2-46.8,30.2-46.8,58.8v45.3C24.2,205.6,34.3,215.8,46.8,215.8z M99.7,42.1c12.5,0,22.7,10.2,22.7,22.7
		c0,12.5-10.2,22.7-22.7,22.7S77,77.3,77,64.8C77,52.3,87.2,42.1,99.7,42.1z M84.6,102.5c-25,0-45.3,20.3-45.3,45.3v45.3
		c0,4.2,3.4,7.5,7.6,7.5c4.2,0,7.6-3.4,7.6-7.5v-52.9h15.1v158.6c0,6.2,5.1,11.3,11.3,11.3c6.2,0,11.3-5.1,11.3-11.3v-98.2h15.1
		v98.2c0,6.2,5.1,11.3,11.3,11.3c6.2,0,11.3-5.1,11.3-11.3V140.3H145v52.9c0,4.2,3.4,7.5,7.6,7.5c4.2,0,7.6-3.4,7.6-7.5v-45.3
		c0-25-20.3-45.3-45.3-45.3H84.6z"/>
	<path class="st1" d="M160.1,261.1v64.2c0,14.6,11.9,26.4,26.4,26.4c4.1,0,7.9-1,11.3-2.7v100.8c0,16.7,13.5,30.2,30.2,30.2
		c9.1,0,17.1-4.1,22.7-10.4c5.5,6.3,13.6,10.4,22.7,10.4c16.7,0,30.2-13.5,30.2-30.2V349c3.4,1.6,7.3,2.7,11.3,2.7
		c14.6,0,26.4-11.9,26.4-26.4v-64.2c0-34-25.1-62.1-57.7-67.1c7.7-8.1,12.4-19,12.4-31.1c0-25-20.3-45.3-45.3-45.3
		c-25,0-45.3,20.3-45.3,45.3c0,12,4.7,22.9,12.4,31.1C185.2,198.9,160.1,227.1,160.1,261.1z M250.7,132.7
		c16.7,0,30.2,13.5,30.2,30.2s-13.5,30.2-30.2,30.2s-30.2-13.5-30.2-30.2S234.1,132.7,250.7,132.7z M326.3,261.1
		c0-29.1-23.7-52.9-52.9-52.9h-45.3c-29.2,0-52.9,23.7-52.9,52.9v64.2c0,6.2,5.1,11.3,11.3,11.3c6.2,0,11.3-5.1,11.3-11.3v-71.7H213
		v196.3c0,8.3,6.8,15.1,15.1,15.1c8.3,0,15.1-6.8,15.1-15.1V336.6h15.1v113.3c0,8.3,6.8,15.1,15.1,15.1c8.3,0,15.1-6.8,15.1-15.1
		V253.5h15.1v71.7c0,6.2,5.1,11.3,11.3,11.3c6.2,0,11.3-5.1,11.3-11.3V261.1z"/>
	<path class="st0" d="M430.5,89c5.6-6.6,9.1-15,9.1-24.3c0-20.8-16.9-37.8-37.8-37.8C381,27,364,44,364,64.8
		c0,9.3,3.5,17.7,9.1,24.3c-26.8,6.2-46.8,30.2-46.8,58.8v45.3c0,12.5,10.2,22.7,22.7,22.7c2.7,0,5.2-0.5,7.6-1.4v84.4
		c0,14.6,11.9,26.4,26.4,26.4c7.4,0,14.1-3.1,18.9-8c4.8,4.9,11.5,8,18.9,8c14.6,0,26.4-11.9,26.4-26.4v-84.4
		c2.4,0.8,4.9,1.4,7.6,1.4c12.5,0,22.7-10.2,22.7-22.7v-45.3C477.3,119.2,457.3,95.2,430.5,89z M401.8,42.1
		c12.5,0,22.7,10.2,22.7,22.7c0,12.5-10.2,22.7-22.7,22.7s-22.7-10.2-22.7-22.7C379.1,52.3,389.3,42.1,401.8,42.1z M454.6,200.7
		c4.2,0,7.6-3.4,7.6-7.5v-45.3c0-25-20.3-45.3-45.3-45.3h-30.2c-25,0-45.3,20.3-45.3,45.3v45.3c0,4.2,3.4,7.5,7.6,7.5
		c4.2,0,7.6-3.4,7.6-7.5v-52.9h15.1v158.6c0,6.2,5.1,11.3,11.3,11.3c6.2,0,11.3-5.1,11.3-11.3v-98.2h15.1v98.2
		c0,6.2,5.1,11.3,11.3,11.3c6.2,0,11.3-5.1,11.3-11.3V140.3h15.1v52.9C447.1,197.3,450.5,200.7,454.6,200.7z"/>
	<path class="st2" d="M242.8,52.9l0.3,49.7l15.1-0.1l-0.3-49.8l17.7,17.4l10.6-10.8l-30.7-30.2c-1.4-1.4-3.7-2.3-5.4-2.2
		c-2,0-3.9,0.8-5.3,2.3l-29.7,30.2l10.8,10.6L242.8,52.9z"/>
	
		<rect x="323.1" y="404.5" transform="matrix(0.7071 -0.7071 0.7071 0.7071 -193.6216 356.7361)" class="st3" width="21.4" height="15.1"/>
	
		<rect x="353.3" y="374.3" transform="matrix(0.7071 -0.7071 0.7071 0.7071 -163.4151 369.2511)" class="st3" width="21.4" height="15.1"/>
	
		<rect x="383.5" y="344.1" transform="matrix(0.7071 -0.7071 0.7071 0.7071 -133.215 381.7637)" class="st3" width="21.4" height="15.1"/>
	
		<rect x="160.1" y="401.4" transform="matrix(0.7071 -0.7071 0.7071 0.7071 -242.2856 239.2503)" class="st3" width="15.1" height="21.4"/>
	
		<rect x="129.9" y="371.2" transform="matrix(0.7071 -0.7071 0.7071 0.7071 -229.7798 209.0415)" class="st3" width="15.1" height="21.4"/>
	
		<rect x="99.7" y="341" transform="matrix(0.7071 -0.7071 0.7071 0.7071 -217.2738 178.8324)" class="st3" width="15.1" height="21.4"/>
</g>
</svg>
