<?xml version="1.0" encoding="utf-8"?>
<!-- Generator: Adobe Illustrator 24.1.1, SVG Export Plug-In . SVG Version: 6.00 Build 0)  -->
<svg version="1.1" id="Layer_1" xmlns="http://www.w3.org/2000/svg" xmlns:xlink="http://www.w3.org/1999/xlink" x="0px" y="0px"
	 viewBox="0 0 500 500" style="enable-background:new 0 0 500 500;" xml:space="preserve">
<style type="text/css">
	.st0{fill-rule:evenodd;clip-rule:evenodd;fill:#29266E;}
	.st1{fill-rule:evenodd;clip-rule:evenodd;fill:#F05A29;}
	.st2{fill-rule:evenodd;clip-rule:evenodd;fill:#194BED;}
</style>
<g>
	<path class="st0" d="M413.5,206.8c6.3,0,12.3,2.7,16.5,7.3l47.2,52.9c3.5,3.9,5.5,9,5.5,14.2v116.3c0,8.4-7.1,15.3-15.8,15.3h-18
		c-1.8,24.9-23.3,44.7-49.6,44.7c-26.3,0-47.8-19.8-49.6-44.7H186.5c-1.8,24.9-23.3,44.7-49.6,44.7c-26.3,0-47.8-19.8-49.6-44.7
		H46.8c-12.8,0-23.3-10.1-23.3-22.5V236.3c0-1.9,1.6-3.4,3.5-3.4s3.5,1.5,3.5,3.4V335h285.3V163.4c0-1.9,1.6-3.4,3.5-3.4
		c2,0,3.5,1.5,3.5,3.4v43.4H413.5z M475.5,397.4c0,4.7-3.9,8.5-8.8,8.5h-18c-1.8-24.9-23.3-44.7-49.6-44.7s-47.8,19.8-49.6,44.7
		h-33.4c4.1-4.1,6.6-9.6,6.6-15.7V213.6h90.6c4.3,0,8.3,1.8,11.2,4.9l15.3,17.1H370c-6.2,0-11.2,4.9-11.2,10.9v55.8
		c0,6,5,10.9,11.2,10.9h105.5V397.4z M370,306.3h105.5v-25.2c0-3.6-1.3-7-3.7-9.7L446,242.5h-76c-2.3,0-4.2,1.8-4.2,4v55.8
		C365.8,304.5,367.7,306.3,370,306.3z M315.8,390.2c0,8.7-7.3,15.7-16.3,15.7h-113c-1.8-24.9-23.3-44.7-49.6-44.7
		c-26.2,0-47.8,19.8-49.6,44.7H46.8c-9,0-16.2-7-16.2-15.7v-48.3h285.3V390.2z M94.3,409.3c0,22.8,19.2,41.3,42.7,41.3
		c23.5,0,42.7-18.5,42.7-41.3c0-22.8-19.2-41.3-42.7-41.3C113.4,368,94.3,386.5,94.3,409.3z M356.5,409.3
		c0,22.7,19.2,41.2,42.7,41.2c23.5,0,42.7-18.5,42.7-41.3l0,0c0-22.8-19.2-41.3-42.7-41.3c-23.5,0-42.7,18.5-42.7,41.2
		C356.5,409.2,356.5,409.3,356.5,409.3C356.5,409.3,356.5,409.3,356.5,409.3z"/>
	<path class="st1" d="M378,409.3c0-11.3,9.5-20.5,21.2-20.5c11.7,0,21.2,9.2,21.2,20.5c0,11.3-9.5,20.5-21.2,20.5
		C387.5,429.8,378,420.6,378,409.3z M385.1,409.3c0,7.5,6.3,13.7,14.1,13.7c7.8,0,14.1-6.1,14.1-13.7c0-7.5-6.3-13.7-14.1-13.7
		C391.4,395.6,385.1,401.7,385.1,409.3z"/>
	<path class="st1" d="M115.8,409.3c0-11.3,9.5-20.5,21.2-20.5c11.7,0,21.2,9.2,21.2,20.5c0,11.3-9.5,20.5-21.2,20.5
		C125.3,429.8,115.8,420.6,115.8,409.3z M122.8,409.3c0,7.5,6.3,13.7,14.1,13.7c7.8,0,14.1-6.1,14.1-13.7c0-7.5-6.3-13.7-14.1-13.7
		C129.2,395.6,122.8,401.7,122.8,409.3z"/>
	<path class="st1" d="M228.4,321.9c-2,0-3.5-1.5-3.5-3.4v-65.1c0-1.9,1.6-3.4,3.5-3.4h67.3c2,0,3.5,1.5,3.5,3.4v65.1
		c0,1.9-1.6,3.4-3.5,3.4H228.4z M292.2,256.8h-60.3V315h60.3V256.8z"/>
	<path class="st1" d="M139.5,321.9c-2,0-3.5-1.5-3.5-3.4v-65.1c0-1.9,1.6-3.4,3.5-3.4h67.3c2,0,3.5,1.5,3.5,3.4v65.1
		c0,1.9-1.6,3.4-3.5,3.4H139.5z M203.3,256.8h-60.3V315h60.3V256.8z"/>
	<path class="st1" d="M50.7,321.9c-2,0-3.5-1.5-3.5-3.4v-65.1c0-1.9,1.6-3.4,3.5-3.4H118c2,0,3.5,1.5,3.5,3.4v65.1
		c0,1.9-1.6,3.4-3.5,3.4H50.7z M114.5,256.8H54.2V315h60.3V256.8z"/>
	<path class="st1" d="M224.8,236.3v-65.1c0-1.9,1.6-3.4,3.5-3.4h67.3c2,0,3.5,1.5,3.5,3.4v65.1c0,1.9-1.6,3.4-3.5,3.4h-67.3
		C226.4,239.7,224.8,238.1,224.8,236.3z M292.2,174.6h-60.3v58.2h60.3V174.6z"/>
	<path class="st1" d="M136,236.3v-65.1c0-1.9,1.6-3.4,3.5-3.4h67.3c2,0,3.5,1.5,3.5,3.4v65.1c0,1.9-1.6,3.4-3.5,3.4h-67.3
		C137.6,239.7,136,238.1,136,236.3z M203.3,174.6h-60.3v58.2h60.3V174.6z"/>
	<path class="st1" d="M47.2,236.3v-65.1c0-1.9,1.6-3.4,3.5-3.4H118c2,0,3.5,1.5,3.5,3.4v65.1c0,1.9-1.6,3.4-3.5,3.4H50.7
		C48.7,239.7,47.2,238.1,47.2,236.3z M114.5,174.6H54.2v58.2h60.3V174.6z"/>
	<path class="st2" d="M267.5,36.6c-2,0-3.5,1.5-3.5,3.4v71.4l-14-13.5c-1.4-1.3-3.6-1.3-5,0c-1.4,1.3-1.4,3.5,0,4.8l20,19.3
		c0.3,0.3,0.7,0.6,1.2,0.7c0.4,0.2,0.9,0.3,1.3,0.3c0.5,0,0.9-0.1,1.3-0.3c0.4-0.2,0.8-0.4,1.2-0.7l20-19.3c1.4-1.3,1.4-3.5,0-4.8
		c-1.4-1.3-3.6-1.3-5,0l-14,13.5V40C271,38.1,269.4,36.6,267.5,36.6z"/>
	<path class="st2" d="M173.2,36.6c-2,0-3.5,1.5-3.5,3.4v71.4l-14-13.5c-1.4-1.3-3.6-1.3-5,0c-1.4,1.3-1.4,3.5,0,4.8l20,19.3
		c0.3,0.3,0.7,0.6,1.2,0.7c0.4,0.2,0.9,0.3,1.3,0.3s0.9-0.1,1.3-0.3c0.4-0.2,0.8-0.4,1.2-0.7l20-19.3c1.4-1.3,1.4-3.5,0-4.8
		c-1.4-1.3-3.6-1.3-5,0l-14,13.5V40C176.7,38.1,175.1,36.6,173.2,36.6z"/>
	<path class="st2" d="M78.9,36.6c-2,0-3.5,1.5-3.5,3.4v71.4l-14-13.5c-1.4-1.3-3.6-1.3-5,0c-1.4,1.3-1.4,3.5,0,4.8l20,19.3
		c0.3,0.3,0.7,0.6,1.2,0.7c0.4,0.2,0.9,0.3,1.3,0.3s0.9-0.1,1.3-0.3c0.4-0.2,0.8-0.4,1.2-0.7l20-19.3c1.4-1.3,1.4-3.5,0-4.8
		c-1.4-1.3-3.6-1.3-5,0l-14,13.5V40C82.4,38.1,80.8,36.6,78.9,36.6z"/>
</g>
</svg>
