<?xml version="1.0" encoding="utf-8"?>
<!-- Generator: Adobe Illustrator 24.1.1, SVG Export Plug-In . SVG Version: 6.00 Build 0)  -->
<svg version="1.1" id="Layer_1" xmlns="http://www.w3.org/2000/svg" xmlns:xlink="http://www.w3.org/1999/xlink" x="0px" y="0px"
	 viewBox="0 0 500 500" style="enable-background:new 0 0 500 500;" xml:space="preserve">
<style type="text/css">
	.st0{display:none;fill:#E5E5E4;}
	.st1{fill-rule:evenodd;clip-rule:evenodd;fill:#29266E;}
	.st2{fill:#29266E;}
	.st3{fill-rule:evenodd;clip-rule:evenodd;fill:#F05A29;}
	.st4{fill:#194BED;}
</style>
<path class="st0" d="M477,493.7H23c-9.4,0-17-7.6-17-17V22.8c0-9.4,7.6-17,17-17H477c9.4,0,17,7.6,17,17v453.9
	C493.9,486.1,486.3,493.7,477,493.7z"/>
<g>
	<rect x="64.8" y="80.8" width="14.5" height="14.5"/>
	<rect x="93.9" y="80.8" width="14.5" height="14.5"/>
	<rect x="123" y="80.8" width="14.5" height="14.5"/>
	<path class="st1" d="M64.8,399.1h128.3l-4,43.4h-22.5v14.5h160v-14.5h-22.5l-4-43.4h128.3c16.1,0,29.1-13,29.1-28.9V211h-14.5
		v115.7H50.3V124.2h189.1v-14.5H50.3V80.8c0-8,6.5-14.5,14.5-14.5h225.5V51.9H64.8c-16.1,0-29.1,13-29.1,28.9v289.3
		C35.8,386.1,48.8,399.1,64.8,399.1z M443.1,370.1v-28.9H50.3v28.9c0,8,6.5,14.5,14.5,14.5h363.7
		C436.6,384.6,443.1,378.1,443.1,370.1z M289.6,442.5h-85.9l4-43.4h78L289.6,442.5z"/>
	<rect x="239.4" y="355.7" class="st2" width="14.5" height="14.5"/>
	<path class="st1" d="M406.7,138.7c0,24-19.5,43.4-43.6,43.4c-24.1,0-43.6-19.4-43.6-43.4c0-24,19.5-43.4,43.6-43.4
		C387.2,95.3,406.7,114.7,406.7,138.7z M392.2,138.7c0-16-13-28.9-29.1-28.9c-16.1,0-29.1,13-29.1,28.9c0,16,13,28.9,29.1,28.9
		C379.1,167.6,392.2,154.7,392.2,138.7z"/>
	<path class="st3" d="M264.3,84.3c1.2-2.8,4-4.6,7.1-4.5l24,1.2l9.7-9.6l-1.2-23.9c-0.2-3.1,1.6-5.9,4.5-7.1l23.6-9.7
		c2.8-1.2,6.1-0.4,8.2,1.8l16.1,17.8h13.7L386,32.6c2.1-2.3,5.3-3,8.2-1.8l23.6,9.7c2.8,1.2,4.6,4,4.5,7.1l-1.2,23.9l9.7,9.6l24-1.2
		c3.1-0.2,5.9,1.6,7.1,4.5l9.8,23.5c1.2,2.8,0.4,6.1-1.8,8.1l-17.9,16v13.6l17.9,16c2.3,2.1,3,5.3,1.8,8.1l-9.8,23.5
		c-1.2,2.8-4,4.6-7.1,4.5l-24-1.2l-9.7,9.6l1.2,23.9c0.2,3.1-1.6,5.9-4.5,7.1l-23.6,9.7c-2.8,1.2-6.1,0.4-8.2-1.8L369.9,227h-13.7
		l-16.1,17.8c-2.1,2.3-5.3,3-8.2,1.8l-23.6-9.7c-2.8-1.2-4.6-4-4.5-7.1l1.2-23.9l-9.7-9.6l-24,1.2c-3.1,0.2-5.9-1.6-7.1-4.5
		l-9.8-23.5c-1.2-2.8-0.4-6.1,1.8-8.1l17.9-16v-13.6l-17.9-16c-2.3-2.1-3-5.3-1.8-8.1L264.3,84.3z M317.6,79.4l-14.2,14.1
		c-1.5,1.4-3.5,2.2-5.5,2.1l-22.1-1.1l-5.8,14l16.5,14.8c1.5,1.4,2.4,3.3,2.4,5.4v20c0,2-0.9,4-2.4,5.4l-16.5,14.8l5.8,14l22.1-1.1
		c2.1-0.1,4.1,0.7,5.5,2.1l14.2,14.1c1.5,1.4,2.2,3.4,2.1,5.5l-1.1,22l14.1,5.8l14.9-16.4c1.4-1.5,3.3-2.4,5.4-2.4h20.1
		c2.1,0,4,0.9,5.4,2.4l14.9,16.4l14.1-5.8l-1.1-22c-0.1-2,0.7-4,2.1-5.5l14.2-14.1c1.5-1.4,3.5-2.2,5.5-2.1l22.1,1.1l5.8-14
		l-16.5-14.8c-1.5-1.4-2.4-3.3-2.4-5.4v-20c0-2,0.9-4,2.4-5.4l16.5-14.8l-5.8-14l-22.1,1.1c-2.1,0.1-4.1-0.7-5.5-2.1l-14.2-14.2
		c-1.5-1.4-2.2-3.4-2.1-5.5l1.1-22l-14.1-5.8l-14.9,16.4c-1.4,1.5-3.3,2.4-5.4,2.4H353c-2.1,0-4-0.9-5.4-2.4l-14.9-16.4l-14.1,5.8
		l1.1,22C319.9,76,319.1,78,317.6,79.4z"/>
	<path class="st1" d="M108.5,145.9c4,0,7.3,3.2,7.3,7.2v28.9c0,4-3.3,7.2-7.3,7.2H79.4c-4,0-7.3-3.2-7.3-7.2v-28.9
		c0-4,3.3-7.2,7.3-7.2H108.5z M86.7,174.9h14.5v-14.5H86.7V174.9z"/>
	<path class="st1" d="M166.7,145.9c4,0,7.3,3.2,7.3,7.2v28.9c0,4-3.3,7.2-7.3,7.2h-29.1c-4,0-7.3-3.2-7.3-7.2v-28.9
		c0-4,3.3-7.2,7.3-7.2H166.7z M144.9,174.9h14.5v-14.5h-14.5V174.9z"/>
	<path class="st1" d="M224.9,145.9c4,0,7.3,3.2,7.3,7.2v28.9c0,4-3.3,7.2-7.3,7.2h-29.1c-4,0-7.3-3.2-7.3-7.2v-28.9
		c0-4,3.3-7.2,7.3-7.2H224.9z M203,174.9h14.5v-14.5H203V174.9z"/>
	<path class="st1" d="M108.5,203.8c4,0,7.3,3.2,7.3,7.2V240c0,4-3.3,7.2-7.3,7.2H79.4c-4,0-7.3-3.2-7.3-7.2V211c0-4,3.3-7.2,7.3-7.2
		H108.5z M86.7,232.7h14.5v-14.5H86.7V232.7z"/>
	<path class="st1" d="M166.7,203.8c4,0,7.3,3.2,7.3,7.2V240c0,4-3.3,7.2-7.3,7.2h-29.1c-4,0-7.3-3.2-7.3-7.2V211
		c0-4,3.3-7.2,7.3-7.2H166.7z M144.9,232.7h14.5v-14.5h-14.5V232.7z"/>
	<path class="st1" d="M224.9,203.8c4,0,7.3,3.2,7.3,7.2V240c0,4-3.3,7.2-7.3,7.2h-29.1c-4,0-7.3-3.2-7.3-7.2V211
		c0-4,3.3-7.2,7.3-7.2H224.9z M203,232.7h14.5v-14.5H203V232.7z"/>
	<path class="st1" d="M79.4,261.7h29.1c4,0,7.3,3.2,7.3,7.2v28.9c0,4-3.3,7.2-7.3,7.2H79.4c-4,0-7.3-3.2-7.3-7.2v-28.9
		C72.1,264.9,75.4,261.7,79.4,261.7z M86.7,290.6h14.5v-14.5H86.7V290.6z"/>
	<path class="st1" d="M137.6,261.7h29.1c4,0,7.3,3.2,7.3,7.2v28.9c0,4-3.3,7.2-7.3,7.2h-29.1c-4,0-7.3-3.2-7.3-7.2v-28.9
		C130.3,264.9,133.6,261.7,137.6,261.7z M144.9,290.6h14.5v-14.5h-14.5V290.6z"/>
	<path class="st1" d="M195.8,261.7h29.1c4,0,7.3,3.2,7.3,7.2v28.9c0,4-3.3,7.2-7.3,7.2h-29.1c-4,0-7.3-3.2-7.3-7.2v-28.9
		C188.5,264.9,191.8,261.7,195.8,261.7z M203,290.6h14.5v-14.5H203V290.6z"/>
	<rect x="268.5" y="261.7" class="st2" width="14.5" height="14.5"/>
	<rect x="297.6" y="261.7" class="st4" width="123.7" height="14.5"/>
	<rect x="254" y="290.6" class="st4" width="138.2" height="14.5"/>
</g>
</svg>
