<?xml version="1.0" encoding="utf-8"?>
<!-- Generator: Adobe Illustrator 24.1.1, SVG Export Plug-In . SVG Version: 6.00 Build 0)  -->
<svg version="1.1" id="Layer_1" xmlns="http://www.w3.org/2000/svg" xmlns:xlink="http://www.w3.org/1999/xlink" x="0px" y="0px"
	 viewBox="0 0 300 300" style="enable-background:new 0 0 300 300;" xml:space="preserve">
<style type="text/css">
	.st0{fill:#FFFFFF;}
</style>
<path class="st0" d="M131.1,116.2c0,1.7,1.4,3.1,3.1,3.1h27.4c1.7,0,3.1-1.4,3.1-3.1c0-1.7-1.4-3.1-3.1-3.1h-27.4
	C132.5,113.1,131.1,114.5,131.1,116.2z"/>
<path class="st0" d="M10.6,277h213.3c6.8,0,12.8-3,17-7.8c0.1-0.1,0.3-0.2,0.4-0.3l40.5-47.7c0,0,0-0.1,0.1-0.1
	c0-0.1,0.1-0.1,0.1-0.2c0.3-0.5,0.5-1,0.5-1.6c0-0.1,0.1-0.1,0.1-0.2v-103c0-1.7-1.4-3.1-3.1-3.1h-18c-1.7,0-3.1,1.4-3.1,3.1
	c0,1.7,1.4,3.1,3.1,3.1h14.9v97.5l-47.5,13c-1.1,0.3-2.1,1-2.6,2c-0.6,1-0.7,2.2-0.4,3.4c0.4,1.5,1.5,2.6,3,3
	c7.1,2.1,11.8,8.5,11.8,15.9c0,9.2-7.4,16.6-16.6,16.6H13.7V119.3c1.6-0.2,2.8-1.5,2.8-3.1c0-1.7-1.4-3.1-3.1-3.1h-2.8
	c-1.7,0-3.1,1.4-3.1,3.1v157.6C7.5,275.6,8.9,277,10.6,277z M235.5,234.5l34.9-9.5l-23.8,28C246.2,245.2,242,238.3,235.5,234.5z"/>
<path class="st0" d="M29.1,124.2c0,0.1,0,0.2,0,0.2c0,0.1,0,0.2,0.1,0.2c0.7,9.9,3.2,19.8,7.6,28.8c0,0,0,0.1,0,0.1c0,0,0,0,0.1,0.1
	c4.3,8.9,10.4,17,18.2,23.9c0.3,0.3,0.6,0.4,1,0.6c0.4,0.1,0.7,0.2,1.1,0.2c0.1,0,0.1,0,0.2,0c0.2,0,0.4-0.1,0.6-0.2
	c0.2,0,0.3,0,0.5-0.1c0.4-0.2,0.7-0.4,1-0.8L74.8,160l0,0l0,0l24.8-28.1c0,0,0,0,0,0l0,0l18.1-20.5h0c0,0,0,0,0,0l24.8-28.1
	c0,0,0,0,0,0c0,0,0,0,0,0l9.8-11.1c0,0,0,0,0.1-0.1l5.4-6.1c0.6-0.7,0.9-1.6,0.8-2.4c0,0,0,0,0,0l0,0v0c-0.1-0.7-0.4-1.5-1-2
	c-7.8-6.9-16.7-11.9-25.9-15.1c-0.1,0-0.1-0.1-0.1-0.1c0,0-0.1,0-0.1,0c-9.6-3.3-19.6-4.6-29.6-4c-0.1,0-0.2,0-0.3,0
	c-0.1,0-0.2,0-0.2,0.1c-9.9,0.7-19.8,3.2-28.9,7.6c0,0-0.1,0-0.1,0c0,0-0.1,0.1-0.1,0.1c-8.8,4.3-17,10.4-23.9,18.2
	c-6.9,7.8-11.9,16.7-15.1,26c0,0-0.1,0.1-0.1,0.1c0,0,0,0.1,0,0.1C29.9,104.2,28.5,114.2,29.1,124.2z M70.2,87.8
	c16.8-19.1,45.6-21.6,65.4-6.2l-20.8,23.5c-2.9-1.7-6.2-2.5-9.6-2.3c-4.5,0.3-8.6,2.3-11.6,5.7c-3,3.4-4.5,7.7-4.2,12.2
	c0.2,3.4,1.5,6.6,3.5,9.3l-20.8,23.5C54.5,135.6,53.4,106.9,70.2,87.8z M97.3,125c-0.9-1.4-1.5-3.1-1.6-4.8
	c-0.2-2.8,0.8-5.5,2.6-7.7c1.9-2.1,4.5-3.4,7.3-3.6c1.7-0.1,3.4,0.3,5,1L97.3,125z M72.3,57.2l2.1,4.4c0.5,1.1,1.7,1.7,2.8,1.7
	c0.5,0,0.9-0.1,1.4-0.3c1.6-0.8,2.2-2.6,1.4-4.2l-2.2-4.4c6.7-2.9,13.7-4.7,20.9-5.5l0.3,4.9c0.1,1.7,1.5,2.9,3.1,2.9
	c0.1,0,0.1,0,0.2,0c1.7-0.1,3-1.6,2.9-3.3l-0.3-4.8c0.5,0,0.9-0.1,1.4-0.1c6.7,0,13.5,1,20,2.9l-1.6,4.6c-0.6,1.6,0.3,3.4,1.9,4
	c0.3,0.1,0.7,0.2,1,0.2c1.3,0,2.5-0.8,3-2.1l1.6-4.6c6.6,2.6,12.9,6.1,18.7,10.8l-11.1,12.6C117.3,59.2,84.7,62,65.5,83.6
	c-19.1,21.7-17.7,54.4,2.6,74.5l-7.9,9l0,0l-2.3,2.6l-0.9,1.1c-5.3-5.1-9.7-11-13.1-17.2l4.4-2.1c1.6-0.8,2.2-2.6,1.4-4.2
	c-0.8-1.6-2.6-2.2-4.2-1.4l-4.4,2.2c-2.9-6.7-4.7-13.7-5.5-20.9l4.8-0.3c1.7-0.1,3-1.6,2.9-3.3c-0.1-1.7-1.5-3-3.3-2.9l-4.8,0.3
	c-0.1-7.2,0.8-14.4,2.9-21.4l4.6,1.6c0.3,0.1,0.7,0.2,1,0.2c1.3,0,2.5-0.8,3-2.1c0.6-1.6-0.3-3.4-1.9-4l-4.6-1.6
	C42.8,87,46.4,80.7,51,75l3.6,3.2c0.6,0.5,1.3,0.8,2.1,0.8c0.9,0,1.7-0.4,2.3-1.1c1.1-1.3,1-3.3-0.3-4.4l-3.6-3.2
	C60.3,65,66.1,60.6,72.3,57.2z"/>
<path class="st0" d="M271.4,38.9l-71.7,82.8c-1.1,1.3-1,3.3,0.3,4.4c0.6,0.5,1.3,0.8,2,0.8c0.9,0,1.7-0.4,2.4-1.1L276.1,43
	c1.1-1.3,1-3.3-0.3-4.4S272.5,37.6,271.4,38.9z"/>
<path class="st0" d="M266.5,23.1c-6.5,0.5-12.4,3.4-16.6,8.3l-71.7,82.8c0,0,0,0,0,0c0,0-0.1,0.1-0.1,0.1c-0.3,0.4-0.5,0.8-0.6,1.2
	c0,0.1-0.1,0.1-0.1,0.2l-6.4,39.7c-0.2,1.1,0.2,2.2,1,2.9c0.6,0.5,1.3,0.8,2,0.8c0.3,0,0.6,0,0.9-0.1l38.3-12c0,0,0.1-0.1,0.1-0.1
	c0.4-0.1,0.8-0.4,1.1-0.7c0.1-0.1,0.1-0.1,0.2-0.1c0,0,0,0,0,0l71.7-82.8c4.2-4.9,6.3-11.2,5.9-17.6c-0.5-6.5-3.4-12.4-8.3-16.6
	S273.1,22.6,266.5,23.1z M178.1,151.4l4.7-29.1l23.5,20.3L178.1,151.4z M281.9,59.1l-69.7,80.4L185,115.9l69.7-80.4
	c3.1-3.6,7.5-5.8,12.3-6.2c4.8-0.4,9.5,1.2,13.1,4.3c3.6,3.2,5.8,7.5,6.2,12.3C286.6,50.8,285,55.4,281.9,59.1z"/>
<path class="st0" d="M154.9,239.3c19.2,0,34.9-15.6,34.9-34.9s-15.6-34.9-34.9-34.9c-5.5,0-10.7,1.3-15.3,3.6l-0.9-29.2
	c0-1.1-0.7-2.1-1.7-2.6c-1-0.5-2.2-0.5-3.1,0.1l-53.3,33.1c-1,0.6-1.5,1.6-1.5,2.8c0,1.1,0.7,2.1,1.7,2.7l39.4,21.1
	c-0.1,1.1-0.2,2.2-0.2,3.4C120,223.7,135.7,239.3,154.9,239.3z M154.9,175.8c15.8,0,28.6,12.8,28.6,28.6s-12.8,28.6-28.6,28.6
	c-15.8,0-28.6-12.8-28.6-28.6c0,0,0-0.1,0-0.1l9.8,5.2c0.5,0.3,1,0.4,1.5,0.4c0.6,0,1.2-0.2,1.7-0.5c0.9-0.6,1.5-1.6,1.5-2.8
	l-0.9-26.5C144.2,177.5,149.4,175.8,154.9,175.8z M134.3,201.5l-7.1-3.8c1.1-4.7,3.4-8.9,6.6-12.3L134.3,201.5z M88.5,177l44.1-27.4
	l0.9,27.4c-5.7,4.4-9.9,10.6-12,17.6L88.5,177z"/>
</svg>
