<?xml version="1.0" encoding="utf-8"?>
<!-- Generator: Adobe Illustrator 24.1.1, SVG Export Plug-In . SVG Version: 6.00 Build 0)  -->
<svg version="1.1" id="Layer_1" xmlns="http://www.w3.org/2000/svg" xmlns:xlink="http://www.w3.org/1999/xlink" x="0px" y="0px"
	 viewBox="0 0 300 300" style="enable-background:new 0 0 300 300;" xml:space="preserve">
<style type="text/css">
	.st0{fill:#FFFFFF;}
</style>
<path class="st0" d="M91,117.3h19.2c1.7,0,3-1.3,3-3s-1.3-3-3-3H91c-1.7,0-3,1.3-3,3S89.4,117.3,91,117.3z"/>
<path class="st0" d="M140.4,117.3h19.2c1.7,0,3-1.3,3-3s-1.3-3-3-3h-19.2c-1.7,0-3,1.3-3,3S138.7,117.3,140.4,117.3z"/>
<path class="st0" d="M189.8,117.3H209c1.7,0,3-1.3,3-3s-1.3-3-3-3h-19.2c-1.7,0-3,1.3-3,3S188.1,117.3,189.8,117.3z"/>
<path class="st0" d="M91,153h19.2c1.7,0,3-1.3,3-3s-1.3-3-3-3H91c-1.7,0-3,1.3-3,3S89.4,153,91,153z"/>
<path class="st0" d="M140.4,153h19.2c1.7,0,3-1.3,3-3s-1.3-3-3-3h-19.2c-1.7,0-3,1.3-3,3S138.7,153,140.4,153z"/>
<path class="st0" d="M189.8,153H209c1.7,0,3-1.3,3-3s-1.3-3-3-3h-19.2c-1.7,0-3,1.3-3,3S188.1,153,189.8,153z"/>
<path class="st0" d="M91,188.7h19.2c1.7,0,3-1.3,3-3s-1.3-3-3-3H91c-1.7,0-3,1.3-3,3S89.4,188.7,91,188.7z"/>
<path class="st0" d="M140.4,188.7h19.2c1.7,0,3-1.3,3-3s-1.3-3-3-3h-19.2c-1.7,0-3,1.3-3,3S138.7,188.7,140.4,188.7z"/>
<path class="st0" d="M91,224.3h19.2c1.7,0,3-1.3,3-3s-1.3-3-3-3H91c-1.7,0-3,1.3-3,3S89.4,224.3,91,224.3z"/>
<path class="st0" d="M140.4,224.3h19.2c1.7,0,3-1.3,3-3s-1.3-3-3-3h-19.2c-1.7,0-3,1.3-3,3S138.7,224.3,140.4,224.3z"/>
<path class="st0" d="M80.2,30c-1.7,0-3,1.3-3,3v17.2h-30c-1.7,0-3,1.3-3,3V267c0,1.7,1.3,3,3,3h206.5c1.7,0,3-1.3,3-3V53.2
	c0-1.7-1.3-3-3-3h-30.8V33c0-1.7-1.3-3-3-3s-3,1.3-3,3v17.2h-40.5V33c0-1.7-1.3-3-3-3s-3,1.3-3,3v17.2h-40.5V33c0-1.7-1.3-3-3-3
	s-3,1.3-3,3v17.2H83.2V33C83.2,31.3,81.8,30,80.2,30z M192.3,264l58.4-58.4V264H192.3z M189.2,258.6v-56.1h56.1L189.2,258.6z
	 M123.7,56.2v17.2c0,1.7,1.3,3,3,3s3-1.3,3-3V56.2h40.5v17.2c0,1.7,1.3,3,3,3s3-1.3,3-3V56.2h40.5v17.2c0,1.7,1.3,3,3,3s3-1.3,3-3
	V56.2h27.8v140.3h-64.5c-1.7,0-3,1.3-3,3V264h-133V56.2h27v17.2c0,1.7,1.3,3,3,3s3-1.3,3-3V56.2H123.7z"/>
</svg>
