<svg height='300px' width='300px'  fill="#FFFFFF" xmlns="http://www.w3.org/2000/svg" viewBox="0 0 64 64" x="0px" y="0px"><title>customer, care, service, hand, support, </title><g><path d="M61,37H45a1,1,0,0,0-1,1v1c-.75,0-1.79.09-2.88.24a15,15,0,0,0-2.47.52,7.22,7.22,0,0,0-1,.4,9.53,9.53,0,0,0-3.08,2.31A4.7,4.7,0,0,1,31,44H24a4,4,0,0,0-3.46,6h-.27L8.71,43.2a5.39,5.39,0,0,0-.84-.39,4.7,4.7,0,0,0-.6-.14A4.45,4.45,0,0,0,2,47.22a4.61,4.61,0,0,0,2.31,3.71l15.18,8.93A1,1,0,0,0,20,60H44v1a1,1,0,0,0,1,1H61a1,1,0,0,0,1-1V57H60v3H46V39H60V51h2V38A1,1,0,0,0,61,37ZM20.27,58,5.33,49.21A2.59,2.59,0,0,1,4,47.14a2.39,2.39,0,0,1,.84-2,2.5,2.5,0,0,1,2.06-.56l.35.09a2.48,2.48,0,0,1,.44.2l11.8,6.94A1,1,0,0,0,20,52h4.16a3.76,3.76,0,0,1,.75,0,5.51,5.51,0,0,1,3.38,1.71,1,1,0,0,0,1.42,0,1,1,0,0,0,0-1.42A7.59,7.59,0,0,0,25.09,50c-.3,0-.62,0-.93,0h0A2.12,2.12,0,0,1,22,48.42,2,2,0,0,1,24,46h7a6.7,6.7,0,0,0,5-2.19A7.5,7.5,0,0,1,38.46,42a6,6,0,0,1,.78-.3,12.51,12.51,0,0,1,2.15-.45c1-.14,1.93-.19,2.61-.22V58Z"></path><rect x="60" y="53" width="2" height="2"></rect><path d="M3,34h7v2a1,1,0,0,0,1,1H37a1,1,0,0,0,1-1V34h7a1,1,0,0,0,1-1V30a14,14,0,0,0-4.1-9.9,14.1,14.1,0,0,0-5.55-3.41,7.92,7.92,0,0,0,3.55-5.44c0-.06,0-.11,0-.2A7.22,7.22,0,0,0,40,10a7.94,7.94,0,0,0-6.76-7.9,7.52,7.52,0,0,0-2.46,0,7.92,7.92,0,0,0-5.16,3.08l-.38-.08a7.52,7.52,0,0,0-2.46,0l-.4.08A7.92,7.92,0,0,0,17.24,2.1a7.52,7.52,0,0,0-2.46,0A7.94,7.94,0,0,0,8,10a6.45,6.45,0,0,0,.07,1,.75.75,0,0,0,0,.17,7.94,7.94,0,0,0,3.54,5.5A14,14,0,0,0,2,30v3A1,1,0,0,0,3,34Zm33,1H32V31a1,1,0,0,0-2,0v4H18V31a1,1,0,0,0-2,0v4H12V33a12.2,12.2,0,0,1,.32-2.77,11.77,11.77,0,0,1,.5-1.59,11.91,11.91,0,0,1,8.23-7.28,13.05,13.05,0,0,1,1.39-.25c.24,0,.5,0,.76-.06s.53-.05.8-.05h.28a12,12,0,0,1,11.4,9.22A12.2,12.2,0,0,1,36,33Zm7.68-7.77A12.2,12.2,0,0,1,44,30v2H40V28a1,1,0,0,0-2,0v4h0c0-.14,0-.28,0-.42s0-.26-.05-.39a13.16,13.16,0,0,0-.25-1.42A13.94,13.94,0,0,0,33.9,23.1c-.36-.35-.74-.68-1.13-1L32.6,22q-.57-.43-1.17-.81L31.21,21A12.78,12.78,0,0,0,30,20.33l-.19-.08c-.44-.2-.9-.38-1.36-.54h0l.22-.16c.17-.13.34-.25.5-.39s.25-.21.37-.32.31-.31.45-.47a2.18,2.18,0,0,0,.21-.22,12,12,0,0,1,4.83.23,12.05,12.05,0,0,1,8.73,8.86ZM31.1,4.08a5.06,5.06,0,0,1,1.82,0A6,6,0,0,1,38,10c0,.26,0,.53,0,.72s0,.1,0,.18a6,6,0,0,1-3.7,4.66,5.81,5.81,0,0,1-2.8.41l0-.09c.07-.18.13-.37.19-.55s.06-.17.08-.26a8,8,0,0,0,.17-.82c0-.06,0-.11,0-.2A7.22,7.22,0,0,0,32,13a8.28,8.28,0,0,0-.1-1.23c0-.13,0-.26-.08-.39s-.11-.52-.19-.77-.11-.31-.17-.46a5.93,5.93,0,0,0-.26-.63c-.08-.16-.16-.32-.25-.47a5.84,5.84,0,0,0-.33-.53c-.11-.16-.21-.31-.33-.46s-.25-.29-.37-.43l-.42-.45-.4-.33c-.17-.14-.33-.28-.52-.41l-.3-.17a5.32,5.32,0,0,0-.65-.39A6,6,0,0,1,31.1,4.08Zm-6.18,3a4.81,4.81,0,0,1,.83.2A5.93,5.93,0,0,1,30,13c0,.26,0,.53,0,.72s0,.1,0,.19a5.15,5.15,0,0,1-.15.68,5.64,5.64,0,0,1-.38,1,5.54,5.54,0,0,1-.3.53h0c-.1.15-.2.3-.32.45a6,6,0,0,1-2.55,1.95,6.14,6.14,0,0,1-2.06.43H24a4.9,4.9,0,0,1-.77-.08l-.39,0a5.63,5.63,0,0,1-1-.31h0a5.81,5.81,0,0,1-2.54-1.94l-.08-.09c-.09-.12-.17-.25-.25-.38a6,6,0,0,1-.83-2.31s0-.07,0-.11A4,4,0,0,1,18,13a6,6,0,0,1,4.3-5.74,4.84,4.84,0,0,1,.8-.18A5.06,5.06,0,0,1,24.92,7.08ZM10.07,10.85s0-.07,0-.11A4,4,0,0,1,10,10a6,6,0,0,1,5.1-5.92,5.06,5.06,0,0,1,1.82,0,6,6,0,0,1,3.45,1.8,6.88,6.88,0,0,0-1,.59,2,2,0,0,0-.23.18,7.45,7.45,0,0,0-.69.57l-.3.31a6.44,6.44,0,0,0-.48.56c-.1.12-.19.25-.28.38s-.26.4-.38.61-.15.27-.22.42-.2.44-.28.67-.11.28-.16.43a7.38,7.38,0,0,0-.19.78c0,.13-.06.26-.08.39A8.28,8.28,0,0,0,16,13a6.45,6.45,0,0,0,.07,1,.75.75,0,0,0,0,.17,6,6,0,0,0,.18.86,2.29,2.29,0,0,0,.08.28c.06.18.11.37.18.54l0,.1a5.85,5.85,0,0,1-2.8-.4A6,6,0,0,1,10.07,10.85ZM4,30a12.2,12.2,0,0,1,.32-2.77,12,12,0,0,1,8.73-8.87,12.11,12.11,0,0,1,4.83-.21l.22.23c.15.16.3.33.47.48l.34.3c.17.14.34.27.53.4l.17.14h0a14.82,14.82,0,0,0-1.6.64l-.1,0a14,14,0,0,0-1.42.8l-.16.1a12.79,12.79,0,0,0-1.26.93l-.18.15a13.9,13.9,0,0,0-1.11,1.06l-.17.18a14.12,14.12,0,0,0-1,1.2l-.13.2a11.31,11.31,0,0,0-.82,1.33,1.62,1.62,0,0,0-.1.18A13.07,13.07,0,0,0,10.93,28l0,.12a13.43,13.43,0,0,0-.75,3.08c0,.13,0,.26-.05.39s0,.28,0,.42h0V28a1,1,0,0,0-2,0v4H4Z"></path><rect x="49" y="55" width="2" height="2"></rect></g></svg>