<?xml version="1.0" encoding="utf-8"?>
<!-- Generator: Adobe Illustrator 24.1.1, SVG Export Plug-In . SVG Version: 6.00 Build 0)  -->
<svg version="1.1" id="Layer_1" xmlns="http://www.w3.org/2000/svg" xmlns:xlink="http://www.w3.org/1999/xlink" x="0px" y="0px"
	 viewBox="0 0 300 300" style="enable-background:new 0 0 300 300;" xml:space="preserve">
<style type="text/css">
	.st0{fill:#FFFFFF;}
</style>
<path class="st0" d="M256.8,157.5V63c0-3.3-1.5-6.3-4.2-8.7c-2.4-2.1-5.1-3-8.1-3h-1.2c-4.5,0.6-9.6,0.9-14.1,0.9
	c-42.9,0-70.8-26.7-71.1-27c-2.1-2.1-5.1-3.3-8.1-3.3s-6,1.2-8.1,3.3c0,0.3-27.6,27-71.1,27c-4.5,0-9.6-0.3-14.1-0.9h-1.2
	c-3,0-5.7,0.9-8.1,3c-2.7,2.4-4.2,5.1-4.2,8.7v94.5c-0.3,5.4-0.6,39.6,31.8,74.1c15.3,16.2,37.8,32.4,70.8,45.9
	c1.5,0.6,3,0.9,4.5,0.9s3-0.3,4.5-0.9c39-15.9,63-35.7,78-54.6C257.7,191.4,257.1,162.3,256.8,157.5z M232.8,195.3
	c-10.5,21.3-33.6,47.7-82.5,67.8C115.8,249,90.6,230.4,75,207.9c-2.4-3.3-4.5-6.6-6.3-10.2c-10.5-19.5-10.8-35.1-10.5-39.6V66.6
	c4.2,0.3,8.4,0.6,12.6,0.6c25.8,0,46.2-8.4,59.1-15.3c7.2-3.9,12.9-8.1,16.2-10.5c1.5-1.2,2.7-2.1,3.9-3.3
	c8.4,7.2,37.5,29.1,79.2,29.1c4.2,0,8.4-0.3,12.6-0.6v92.1C241.8,159.9,243,175.5,232.8,195.3z"/>
<path class="st0" d="M189.9,127.8V98.4c0-22.2-17.7-39.9-39.9-39.9s-39.9,17.7-39.9,39.9v29.4c-13.8,11.4-22.5,28.8-22.5,48
	c0,34.5,27.9,62.4,62.4,62.4s62.4-27.9,62.4-62.4C212.4,156.9,203.7,139.5,189.9,127.8z M161.4,172.8v27.9c0,6.3-5.1,11.4-11.4,11.4
	s-11.4-5.1-11.4-11.4v-27.9c-4.2-3.6-6.9-8.4-6.9-14.4c0-10.2,8.1-18.3,18.3-18.3c10.2,0,18.3,8.1,18.3,18.3
	C168.3,164.4,165.3,169.2,161.4,172.8z M177.6,120c-8.1-4.2-17.7-6.3-27.6-6.3s-19.5,2.4-27.6,6.3V98.4c0-15,12.6-27.6,27.6-27.6
	s27.6,12.6,27.6,27.6V120z"/>
</svg>
