<?xml version="1.0" encoding="utf-8"?>
<!-- Generator: Adobe Illustrator 24.1.1, SVG Export Plug-In . SVG Version: 6.00 Build 0)  -->
<svg version="1.1" id="Layer_1" xmlns="http://www.w3.org/2000/svg" xmlns:xlink="http://www.w3.org/1999/xlink" x="0px" y="0px"
	 viewBox="0 0 300 300" style="enable-background:new 0 0 300 300;" xml:space="preserve">
<style type="text/css">
	.st0{fill:#FFFFFF;}
</style>
<path class="st0" d="M257.3,126.9c-0.1-0.2-0.2-0.5-0.4-0.7c-0.1-0.2-0.2-0.4-0.3-0.5c-0.1-0.1-0.2-0.2-0.4-0.3
	c-0.1-0.1-0.1-0.2-0.2-0.3l-27.2-21.6V70.7c0-2.4-1.9-4.3-4.3-4.3h-42.6l-29.2-23.1c-1.6-1.2-3.8-1.2-5.4,0l-29.2,23.1H75.5
	c-2.4,0-4.3,1.9-4.3,4.3v32.9l-27.2,21.6c-0.1,0.1-0.1,0.2-0.2,0.3c-0.1,0.1-0.3,0.2-0.4,0.3c-0.1,0.2-0.2,0.4-0.3,0.6
	c-0.1,0.2-0.3,0.4-0.4,0.6c-0.2,0.4-0.2,0.8-0.3,1.1c0,0.2-0.1,0.3-0.1,0.5v124.9c0,0.2,0.1,0.4,0.1,0.6c0,0.3,0.1,0.6,0.2,0.9
	c0.1,0.3,0.3,0.5,0.4,0.8c0.1,0.2,0.2,0.4,0.3,0.5c0,0,0.1,0.1,0.1,0.1c0.3,0.3,0.7,0.6,1.1,0.8c0.1,0.1,0.2,0.2,0.3,0.2
	c0.5,0.2,1.1,0.4,1.7,0.4h206.8c0.6,0,1.2-0.1,1.7-0.4c0.1,0,0.2-0.1,0.3-0.2c0.4-0.2,0.8-0.5,1.1-0.9c0,0,0.1-0.1,0.1-0.1
	c0.1-0.1,0.2-0.3,0.3-0.5c0.2-0.3,0.4-0.5,0.5-0.8c0.1-0.3,0.1-0.5,0.2-0.8c0-0.2,0.1-0.4,0.1-0.6V128.5c0-0.2-0.1-0.3-0.1-0.5
	C257.5,127.6,257.5,127.2,257.3,126.9z M50.9,137.8l62.5,53.1l-62.5,53.1V137.8z M120,196.6l27.2,23.1c0.8,0.7,1.8,1,2.8,1
	c1,0,2-0.3,2.8-1l27.2-23.1l61.7,52.5H58.3L120,196.6z M186.6,190.9l62.5-53.1v106.3L186.6,190.9z M246.6,128.6l-17.8,15.1v-29.2
	L246.6,128.6z M150,52.1l18,14.2h-36L150,52.1z M220.2,75V151L150,210.8L79.8,151V75H220.2z M71.2,143.7l-17.8-15.1l17.8-14.1V143.7
	z"/>
<path class="st0" d="M106.1,104h87.8c2.4,0,4.3-1.9,4.3-4.3s-1.9-4.3-4.3-4.3h-87.8c-2.4,0-4.3,1.9-4.3,4.3S103.7,104,106.1,104z"/>
<path class="st0" d="M106.1,132.8h87.8c2.4,0,4.3-1.9,4.3-4.3s-1.9-4.3-4.3-4.3h-87.8c-2.4,0-4.3,1.9-4.3,4.3
	S103.7,132.8,106.1,132.8z"/>
<path class="st0" d="M173.5,153h-46.9c-2.4,0-4.3,1.9-4.3,4.3c0,2.4,1.9,4.3,4.3,4.3h46.9c2.4,0,4.3-1.9,4.3-4.3
	C177.8,154.9,175.9,153,173.5,153z"/>
</svg>
