<svg xmlns="http://www.w3.org/2000/svg" width="74.01" height="74.01" viewBox="0 0 74.01 74.01">
  <g>
    <path fill="rgb(41,37,111)" fill-rule="evenodd" d="M73.75744629 28.82775879c.04821777.07632446.09423828.1473236.12780762.23109436.04907226.12257385.07086181.24620056.0857544.37496948.00701903.05839539.03887939.11019898.03887939.16975403v42.9260559c0 .07855225-.03277588.1460724-.04455567.22125245-.01446533.09573364-.0232544.1890564-.05670166.2813263-.03869629.10621642-.09906006.19577026-.15979004.2889862-.03521728.05473328-.04980469.11734009-.09313965.16828918-.01171875.01373291-.02923584.01782227-.0413208.03103638-.11047363.12110901-.24377441.21369934-.38885498.29275513-.03607177.01960754-.06451416.05232239-.10186767.0686798-.18231202.08021546-.38183594.1279297-.59399414.1279297H1.4802246c-.211792 0-.41113281-.04751587-.59326172-.12750245-.04278564-.01867675-.07550049-.05569458-.11657715-.07855224-.13830566-.07737732-.26708984-.16503906-.37341308-.28100586-.0130005-.01416016-.03167725-.0186615-.0442505-.03334046-.04632568-.05451965-.0625-.12132263-.09960937-.18013-.05664062-.0887146-.11419677-.1729126-.151062-.2732544-.03619386-.09867858-.04626466-.1986084-.06072999-.30125427C.03112793 72.664917 0 72.60250854 0 72.52963257V29.60357666c0-.05505371.02990723-.10275269.03588867-.15675354.01434326-.13494873.0380249-.26455688.08996582-.39279175.03216553-.0797882.07611084-.14710998.1217041-.22019958.03857422-.06227112.05633545-.13253784.10516358-.190094.03649902-.04289245.08721924-.06239319.12731933-.10003662.03173829-.03019714.04614258-.07350159.08081055-.1009674l9.35821533-7.40937806V9.74351501c0-.81817626.66204834-1.48023986 1.48022461-1.48023986h14.65039063L36.08557129.31872559c.54064941-.42497254 1.2980957-.42497254 1.83874512 0l10.03442382 7.94454956h14.6505127c.8180542 0 1.48010254.6620636 1.48010254 1.48023986v11.2897339l9.35968017 7.40948485c.03564454.02830506.05065918.07287598.08325196.10401917.03881836.03669739.0880127.05535889.12341308.09698486.04730225.05567932.06408692.12384034.1017456.184021zM43.18823242 8.26327515l-6.18322754-4.89588929-6.1842041 4.89588929h12.36743164zm17.9407959 2.96047973v26.13363648L37.003479 57.88223266 12.87939453 37.3578186V11.22375488h48.24963379zm9.0670166 18.4198761l-6.10668945 5.19525147V24.81002808l6.10668945 4.8336029zm-66.38305664.00053406l6.1060791 5.19493103V24.8103485l-6.1060791 4.83381653zm67.2364502 3.16148376L49.58447266 51.06614685l21.46496582 18.26133728V32.8056488zM24.4241333 51.06718445L2.96044922 32.80700684v36.51942443L24.4241333 51.06718445zm2.28509522 1.94412231l9.33441162 7.94119263c.27758789.23561096.61877441.35272217.95983886.35272217.34124756 0 .68231202-.1171112.95983887-.35272217l9.33599854-7.94224548L68.5032959 71.04951477H5.5053711l21.20385742-18.038208z"/>
    <path fill="rgb(26,75,238)" fill-rule="evenodd" d="M21.9182538 21.18477341H52.0916605c.81817546 0 1.48022345-.66194955 1.48022345-1.48013326 0-.81818371-.66204799-1.48023806-1.48022345-1.48023806H21.9182538c-.81817546 0-1.48022345.66205452-1.48022345 1.48023806 0 .81818353.66204799 1.48013326 1.48022345 1.48013326z"/>
    <path fill="rgb(41,37,111)" fill-rule="evenodd" d="M21.9182538 31.09388568H52.0916605c.81817546 0 1.48022345-.66205452 1.48022345-1.48023806 0-.81818353-.66204799-1.48023805-1.48022345-1.48023805H21.9182538c-.81817546 0-1.48022345.66205452-1.48022345 1.48023805 0 .81818354.66204799 1.48023806 1.48022345 1.48023806z"/>
    <path fill="rgb(26,75,238)" fill-rule="evenodd" d="M45.06938059 38.04252184H28.93906573c-.81817546 0-1.48022345.66205452-1.48022345 1.48013326 0 .81818354.66204799 1.48023806 1.48022345 1.48023806H45.0693806c.81817546 0 1.48022345-.66205452 1.48022345-1.48023806 0-.81807891-.66204799-1.48013326-1.48022345-1.48013326z"/>
  </g>
</svg>
