<svg height='300px' width='300px'  fill="#FFFFFF" xmlns="http://www.w3.org/2000/svg" data-name="Layer 1" viewBox="0 0 100 100" x="0px" y="0px"><title>industrial</title><path d="M53.9209,31.28027l-9.38037-9.3916-13.25293.02246-9.3877,9.3877V44.52148l7.79,7.78962v.0014l1.59912,1.59766H44.562l9.33692-9.34766ZM24.8999,32.541l7.63281-7.63184,10.76661-.01855,5.091,5.09783L29.99487,48.374l-5.095-5.09466Zm7.79,18.36914V49.9209l17.231-17.2207h.99756l-.01758,10.61816-7.583,7.5918Z"></path><path d="M94.5,48.67871,75.51123,29.7002H70.31006V24.48926L51.32129,5.5H24.47852L5.5,24.48926V51.33105L24.479,70.30957h5.21094v5.21191L48.67871,94.5H75.51123L94.5,75.52148ZM25.72119,67.30957,8.5,50.08887V25.73145L25.72168,8.5H50.0791l17.231,17.23145V50.08887l-17.231,17.2207H25.72119Zm35.158-6.5528,9.14423-9.13861L75.10889,56.71l-.01807,10.80762-7.582,7.582H56.7207l-5.09784-5.09149ZM91.5,74.2793,74.269,91.5H49.9209l-17.231-17.2207V70.30957H47.67926l7.80023,7.79H68.751l9.33789-9.33789.022-13.292-7.80078-7.81067V32.7002h3.959L91.5,49.9209Z"></path></svg>