<?xml version="1.0" encoding="utf-8"?>
<!-- Generator: Adobe Illustrator 24.1.1, SVG Export Plug-In . SVG Version: 6.00 Build 0)  -->
<svg version="1.1" id="Layer_1" xmlns="http://www.w3.org/2000/svg" xmlns:xlink="http://www.w3.org/1999/xlink" x="0px" y="0px"
	 viewBox="0 0 300 300" style="enable-background:new 0 0 300 300;" xml:space="preserve">
<style type="text/css">
	.st0{fill:#FFFFFF;}
</style>
<path class="st0" d="M265.3,99.3H34.7c-9,0-16.3,7.3-16.3,16.3v115.7c0,9,7.3,16.3,16.3,16.3h230.6c9,0,16.3-7.3,16.3-16.3V115.6
	C281.6,106.6,274.3,99.3,265.3,99.3z M269.9,115.6v22h-1.1c-12.9-0.4-23.2-11.2-22.8-24.1V111h19.3C267.8,111,269.9,113,269.9,115.6
	z M234.2,233.4v2.5H65.8v-2.5c0-19.8-15.5-35.8-34.5-35.8h-1.1v-48.1h1.1c19,0,34.5-16.1,34.5-35.8V111h168.5v2.5
	c0,19.8,15.5,35.8,34.5,35.8h1.1v48.3h-1.1C249.7,197.6,234.2,213.7,234.2,233.4z M34.7,111H54v2.7c0.3,13-9.9,23.7-22.8,24.1h-1.1
	v-22.2C30.1,113,32.2,111,34.7,111z M30.1,231.3v-22h1.1c12.9,0.4,23.2,11.2,22.8,24.1v2.5H34.7C32.2,235.9,30.1,233.8,30.1,231.3z
	 M265.3,235.9H246v-2.5c-0.3-12.9,9.9-23.7,22.8-24.1h1.1v22C269.9,233.8,267.8,235.9,265.3,235.9z"/>
<path class="st0" d="M150,113.3c-33.2,0-60.2,26.9-60.2,60.2s26.9,60.2,60.2,60.2s60.2-26.9,60.2-60.2
	C210.1,140.2,183.2,113.3,150,113.3z M150,221.9c-26.8,0-48.5-21.7-48.5-48.5c0-26.8,21.7-48.5,48.5-48.5
	c26.8,0,48.5,21.7,48.5,48.5l0,0C198.4,200.2,176.7,221.9,150,221.9L150,221.9z"/>
<path class="st0" d="M40.6,81.7c0,3.2,2.6,5.9,5.9,5.9h207.1c3.2,0,5.9-2.6,5.9-5.9c0-3.2-2.6-5.9-5.9-5.9H46.4
	C43.2,75.8,40.6,78.4,40.6,81.7z"/>
<path class="st0" d="M237.2,64.1c3.2,0,5.9-2.6,5.9-5.9s-2.6-5.9-5.9-5.9H62.8c-3.2,0-5.9,2.6-5.9,5.9s2.6,5.9,5.9,5.9H237.2z"/>
</svg>
