<?xml version="1.0" encoding="utf-8"?>
<!-- Generator: Adobe Illustrator 24.1.1, SVG Export Plug-In . SVG Version: 6.00 Build 0)  -->
<svg version="1.1" id="Layer_1" xmlns="http://www.w3.org/2000/svg" xmlns:xlink="http://www.w3.org/1999/xlink" x="0px" y="0px"
	 viewBox="0 0 300 300" style="enable-background:new 0 0 300 300;" xml:space="preserve">
<style type="text/css">
	.st0{fill:#FFFFFF;}
</style>
<g>
	<g>
		<g>
			<path class="st0" d="M152.9,115.9v122.4c0,1.3-1,2.4-2.4,2.4c-0.3,0-0.5,0-0.7-0.1L27.8,215.6l0.5-2.4l-0.5,2.4
				c-1.2-0.3-2-1.3-2-2.4v-67.2c0-1.3,1-2.4,2.4-2.4c0.3,0,0.5,0,0.7,0.1l98.5,20.1l21-48.9l2.2,0.9l-2.2-0.9c0.5-1.2,2-1.8,3.1-1.3
				C152.4,114.1,152.9,115,152.9,115.9L152.9,115.9z M148.2,235.4V127.8l-17.1,39.9c-0.4,1.2-1.6,1.8-2.8,1.6l0,0l-97.7-19.9v62.3
				L148.2,235.4L148.2,235.4z"/>
			<path class="st0" d="M28.8,88.7L151,113.6l-0.5,2.4l0.5-2.4c1.3,0.3,2.1,1.6,1.8,2.9c0,0.3-0.1,0.4-0.3,0.7l-21.6,50.6l-2.2-0.9
				l2.2,0.9c-0.5,1.2-1.7,1.7-2.9,1.3L5.9,144.2l0.5-2.4l-0.5,2.4c-1.3-0.3-2.1-1.6-1.8-2.9c0-0.3,0.1-0.4,0.3-0.7L26,90l2.2,0.9
				L26,90C26.5,88.9,27.7,88.3,28.8,88.7L28.8,88.7z M147.2,117.7l-117.5-24L9.8,140l117.5,24L147.2,117.7z"/>
			<path class="st0" d="M152.9,127.6v107.7l117.5-24V149l-97.7,19.9l0,0c-1.2,0.3-2.4-0.4-2.8-1.6L152.9,127.6L152.9,127.6z
				 M148.2,238.3V115.9c0-0.9,0.5-1.8,1.4-2.2c1.2-0.5,2.6,0,3.1,1.3l-2.2,0.9l2.2-0.9l21,48.9l98.5-20.1c0.3,0,0.4-0.1,0.7-0.1
				c1.3,0,2.4,1,2.4,2.4v67.2c0,1.2-0.8,2.1-2,2.4l-0.5-2.4l0.5,2.4l-122.1,24.9c-0.3,0-0.4,0.1-0.7,0.1
				C149.3,240.7,148.2,239.6,148.2,238.3L148.2,238.3z"/>
			<path class="st0" d="M271.5,93.7l-117.5,24l19.8,46.3l117.5-24L271.5,93.7L271.5,93.7z M150.6,115.9l-0.5-2.4l122.1-24.9
				c1.2-0.4,2.4,0.3,2.9,1.3l-2.2,0.9L275,90l21.6,50.6c0.1,0.1,0.1,0.4,0.3,0.7c0.3,1.3-0.5,2.6-1.8,2.9l-0.5-2.4l0.5,2.4
				L173,169.1c-1.2,0.4-2.4-0.3-2.9-1.3l2.2-0.9l-2.2,0.9l-21.6-50.6c-0.1-0.1-0.1-0.4-0.3-0.7c-0.3-1.3,0.5-2.6,1.8-2.9
				L150.6,115.9L150.6,115.9z"/>
			<path class="st0" d="M27.7,88.7c-1.3,0.3-2.1,1.6-1.8,2.9c0.3,1.3,1.6,2.1,2.9,1.8l122.4-24.9c1.3-0.3,2.1-1.6,1.8-2.9
				c-0.3-1.3-1.6-2.1-2.9-1.8L27.7,88.7L27.7,88.7z"/>
			<path class="st0" d="M272.4,93.3c1.3,0.3,2.6-0.5,2.9-1.8s-0.5-2.6-1.8-2.9L151.1,63.6c-1.3-0.3-2.6,0.5-2.9,1.8
				c-0.3,1.3,0.5,2.6,1.8,2.9L272.4,93.3L272.4,93.3z"/>
			<path class="st0" d="M148.2,115.9c0,1.3,1,2.4,2.4,2.4c1.3,0,2.4-1,2.4-2.4V66c0-1.3-1-2.4-2.4-2.4c-1.3,0-2.4,1-2.4,2.4V115.9z"
				/>
			<path class="st0" d="M183.1,195l-0.3,37.3h-2.4h2.4c0,1.2-0.9,2.2-2.1,2.4l-15.3,2.8l0,0c-1.3,0.3-2.5-0.7-2.8-2
				c0-0.3,0-0.4,0-0.7l0.7-39.6h-5.1c-1.3,0-2.4-1-2.4-2.4c0-0.8,0.4-1.4,0.9-1.8l15.9-15l0,0c0.9-0.9,2.5-0.9,3.4,0.1l0.1,0.1
				l14.2,15l-1.7,1.7l1.7-1.7c0.9,0.9,0.9,2.5-0.1,3.4c-0.5,0.4-1,0.7-1.7,0.7l0,0L183.1,195L183.1,195z M178.1,230.2l0.3-37.4v-0.1
				c0-1.3,1-2.4,2.4-2.4h2l-8.8-9.3l-9.8,9.3h1.6l0,0l0,0c1.3,0,2.4,1.2,2.4,2.5l0,0l-0.7,39.4L178.1,230.2L178.1,230.2z"/>
			<path class="st0" d="M216.1,186.8v38.7c0,1.2-0.9,2.2-2.1,2.4l-15,2.6l0,0c-1.3,0.3-2.5-0.7-2.8-2c0-0.1,0-0.3,0-0.4v-41.3h-5.2
				c-1.3,0-2.4-1-2.4-2.4c0-0.8,0.4-1.4,0.9-1.8l15.9-15l0,0c0.9-0.9,2.5-0.9,3.4,0.1l0.1,0.1l14.2,15l-1.7,1.7l1.7-1.7
				c0.9,0.9,0.9,2.5-0.1,3.4c-0.5,0.4-1,0.7-1.7,0.7l0,0L216.1,186.8L216.1,186.8z M211.4,223.4v-39.1c0-1.3,1-2.4,2.4-2.4h2
				l-8.8-9.3l-9.8,9.3h1.6c1.3,0,2.4,1,2.4,2.4v40.9L211.4,223.4L211.4,223.4z"/>
		</g>
	</g>
</g>
</svg>
