<svg height='300px' width='300px'  fill="#FFFFFF" xmlns="http://www.w3.org/2000/svg" viewBox="0 0 60 60" x="0px" y="0px"><path d="M19,22a3,3,0,0,0,2.816-2H24a1,1,0,0,0,0-2H21.816A3,3,0,0,0,20,16.184V12a1,1,0,0,0-2,0v4.184A2.993,2.993,0,0,0,19,22Zm0-4a1,1,0,1,1-1,1A1,1,0,0,1,19,18Z"></path><path d="M58,34H30.619A18.992,18.992,0,1,0,18,37.949V58a2,2,0,0,0,2,2H58a2,2,0,0,0,2-2V36A2,2,0,0,0,58,34ZM2,19A17,17,0,1,1,19,36,17.019,17.019,0,0,1,2,19ZM58,58H20V37.949A18.827,18.827,0,0,0,27.434,36H58Z"></path><path d="M27.43,38a1.638,1.638,0,0,0-1.618,1.381,2.659,2.659,0,0,1-.9,1.611,2.893,2.893,0,0,1-1.494.672A1.63,1.63,0,0,0,22,43.26v7.48a1.629,1.629,0,0,0,1.412,1.6,2.892,2.892,0,0,1,1.717.884,2.622,2.622,0,0,1,.683,1.4A1.619,1.619,0,0,0,27.431,56H50.569a1.619,1.619,0,0,0,1.619-1.382,2.621,2.621,0,0,1,.683-1.4,2.892,2.892,0,0,1,1.719-.884A1.629,1.629,0,0,0,56,50.74V43.26a1.629,1.629,0,0,0-1.412-1.6,2.892,2.892,0,0,1-1.717-.884,2.622,2.622,0,0,1-.683-1.4A1.619,1.619,0,0,0,50.569,38ZM54,43.591v6.818a4.885,4.885,0,0,0-2.592,1.447A4.624,4.624,0,0,0,50.271,54H27.729a4.606,4.606,0,0,0-1.137-2.144A4.892,4.892,0,0,0,24,50.409V43.592a4.884,4.884,0,0,0,2.213-1.084A4.662,4.662,0,0,0,27.729,40H50.271a4.606,4.606,0,0,0,1.137,2.144A4.892,4.892,0,0,0,54,43.591Z"></path><path d="M29,43.967a3.017,3.017,0,1,0,3,3.016A3.012,3.012,0,0,0,29,43.967ZM29,48a1.017,1.017,0,1,1,1-1.017A1.009,1.009,0,0,1,29,48Z"></path><path d="M46,46.983a3,3,0,1,0,3-3.016A3.012,3.012,0,0,0,46,46.983Zm4,0a1,1,0,1,1-1-1.016A1.009,1.009,0,0,1,50,46.983Z"></path><path d="M39,42a5,5,0,1,0,5,5A5.006,5.006,0,0,0,39,42Zm0,8a3,3,0,1,1,3-3A3,3,0,0,1,39,50Z"></path><path d="M11.6,32.031a14.89,14.89,0,0,0,14.8,0,.779.779,0,0,0,.1-.041c.029-.016.045-.044.072-.063A15.087,15.087,0,0,0,31.9,26.619a.9.9,0,0,0,.092-.119c.013-.023.013-.049.024-.072a14.884,14.884,0,0,0,0-14.856C32,11.549,32,11.523,31.99,11.5s-.044-.045-.063-.071a15.083,15.083,0,0,0-5.355-5.356c-.027-.019-.043-.047-.072-.063s-.049-.013-.072-.024a14.887,14.887,0,0,0-14.856,0C11.549,6,11.523,6,11.5,6.01s-.045.044-.072.063a15.088,15.088,0,0,0-5.355,5.355c-.019.027-.047.043-.063.072s-.013.049-.024.072a14.884,14.884,0,0,0,0,14.856c.011.023.011.049.024.072a.9.9,0,0,0,.092.119,15.087,15.087,0,0,0,5.326,5.308c.027.019.043.047.072.063A.779.779,0,0,0,11.6,32.031ZM8.283,26.343l1.691-.977a1,1,0,1,0-1-1.732l-1.685.972A12.861,12.861,0,0,1,6.051,20H8a1,1,0,0,0,0-2H6.051a12.861,12.861,0,0,1,1.238-4.606l1.685.972a1,1,0,1,0,1-1.732l-1.691-.977a13.1,13.1,0,0,1,3.374-3.374l.977,1.691a1,1,0,0,0,1.732-1l-.972-1.685A12.861,12.861,0,0,1,18,6.051V8a1,1,0,0,0,2,0V6.051a12.861,12.861,0,0,1,4.606,1.238l-.972,1.685a1,1,0,1,0,1.732,1l.977-1.691a13.1,13.1,0,0,1,3.374,3.374l-1.691.977a1,1,0,1,0,1,1.732l1.685-.972A12.861,12.861,0,0,1,31.949,18H30a1,1,0,0,0,0,2h1.949a12.861,12.861,0,0,1-1.238,4.606l-1.685-.972a1,1,0,0,0-1,1.732l1.691.977a13.1,13.1,0,0,1-3.374,3.374l-.977-1.691a1,1,0,0,0-1.732,1l.972,1.685A12.861,12.861,0,0,1,20,31.949V30a1,1,0,0,0-2,0v1.949a12.861,12.861,0,0,1-4.606-1.238l.972-1.685a1,1,0,0,0-1.732-1l-.977,1.691A13.1,13.1,0,0,1,8.283,26.343Z"></path></svg>