<?xml version="1.0" encoding="utf-8"?>
<!-- Generator: Adobe Illustrator 24.1.1, SVG Export Plug-In . SVG Version: 6.00 Build 0)  -->
<svg version="1.1"
	 id="Layer_1" xmlns:cc="http://creativecommons.org/ns#" xmlns:dc="http://purl.org/dc/elements/1.1/" xmlns:inkscape="http://www.inkscape.org/namespaces/inkscape" xmlns:rdf="http://www.w3.org/1999/02/22-rdf-syntax-ns#" xmlns:sodipodi="http://sodipodi.sourceforge.net/DTD/sodipodi-0.dtd" xmlns:svg="http://www.w3.org/2000/svg"
	 xmlns="http://www.w3.org/2000/svg" xmlns:xlink="http://www.w3.org/1999/xlink" x="0px" y="0px" viewBox="0 0 300 300"
	 style="enable-background:new 0 0 300 300;" xml:space="preserve">
<style type="text/css">
	.st0{fill:#FFFFFF;}
</style>
<g transform="translate(0,-952.36218)">
	<path class="st0" d="M90,973.3c-23.2,0-42,18.8-42,42v132.1v81c0,2.2,3.1,3.7,4.9,2.3l24.8-19.2l16.1,18.8c1.1,1.3,3.4,1.3,4.5,0
		l15.8-18.6l18.8,18.8c1.2,1.2,3.3,1.1,4.4-0.2l16-18.7l21.8,19c1.7,1.5,5,0,5-2.3v-81v-87h69c1.6,0,3-1.4,3-3v-45
		c0-21.3-17-38.5-38.2-38.9C213.6,973.3,90,973.3,90,973.3z M90,979.3h103.4c-11.4,6.8-19.4,18.8-19.4,33v135.1v74.5l-19-16.7
		c-1.2-1-3.2-0.9-4.2,0.3l-15.8,18.6l-18.8-18.8c-1.2-1.2-3.3-1.1-4.4,0.2L96,1223.8l-15.8-18.4c-1-1.2-2.9-1.4-4.1-0.5L54,1222.2
		v-74.8v-132.1C54,995.3,70,979.3,90,979.3L90,979.3z M213,979.3c18.3,0,33,14.7,33,33v42h-66v-42C180,993.9,194.7,979.3,213,979.3z
		 M83.4,1009.3c-1.6,0.1-2.9,1.7-2.7,3.3c0.1,1.6,1.7,2.9,3.3,2.7h60c1.6,0,3-1.4,3-3s-1.5-3-3-3H84
		C83.8,1009.2,83.6,1009.2,83.4,1009.3z M74.4,1036.3c-1.6,0.1-2.9,1.7-2.7,3.3c0.1,1.6,1.7,2.9,3.3,2.7h78c1.6,0,3-1.4,3-3
		s-1.5-3-3-3H75C74.8,1036.3,74.6,1036.3,74.4,1036.3z M116.4,1096.3c-1.6,0.1-2.9,1.7-2.7,3.3c0.1,1.6,1.7,2.9,3.3,2.7h36
		c1.6,0,3-1.4,3-3c0-1.6-1.5-3-3-3h-36C116.8,1096.3,116.6,1096.3,116.4,1096.3z M74.4,1123.3c-1.6,0.1-2.9,1.7-2.7,3.3
		c0.1,1.6,1.7,2.9,3.3,2.7h78c1.6,0,3-1.4,3-3c0-1.6-1.5-3-3-3H75C74.8,1123.3,74.6,1123.3,74.4,1123.3L74.4,1123.3z M74.4,1150.3
		c-1.6,0.1-2.9,1.7-2.7,3.3c0.1,1.6,1.7,2.9,3.3,2.7h78c1.6,0,3-1.4,3-3c0-1.6-1.5-3-3-3H75C74.8,1150.3,74.6,1150.3,74.4,1150.3
		L74.4,1150.3z"/>
</g>
</svg>
