<svg height='300px' width='300px'  fill="#FFFFFF" xmlns="http://www.w3.org/2000/svg" xmlns:xlink="http://www.w3.org/1999/xlink" version="1.1" x="0px" y="0px" viewBox="0 0 64 64" style="enable-background:new 0 0 64 64;" xml:space="preserve"><path d="M44,15c-0.551,0-1-0.449-1-1h-2c0,1.302,0.839,2.402,2,2.816V18h2v-1.184c1.161-0.414,2-1.514,2-2.816  c0-0.265-0.105-0.52-0.293-0.707l-3.644-3.644C43.206,9.271,43.572,9,44,9c0.551,0,1,0.449,1,1h2c0-1.302-0.839-2.402-2-2.816V6h-2  v1.184C41.839,7.598,41,8.698,41,10c0,0.265,0.105,0.52,0.293,0.707l3.644,3.644C44.794,14.729,44.428,15,44,15z"></path><rect x="31" y="22" width="24" height="2"></rect><rect x="35" y="28" width="18" height="2"></rect><rect x="37" y="34" width="15" height="2"></rect><rect x="31" y="40" width="20" height="2"></rect><path d="M61.752,2.341C61.562,2.125,61.288,2,61,2H29c-0.501,0-0.925,0.371-0.991,0.868L23.832,34.19l-3.336,1.946  C20.189,36.315,20,36.645,20,37v10.586l-4.707,4.707c-0.195,0.195-0.301,0.461-0.292,0.736c0.008,0.275,0.129,0.535,0.335,0.718l9,8  C24.525,61.917,24.763,62,25,62c0.256,0,0.513-0.098,0.707-0.293l4.975-4.975L39.381,49H55c0.501,0,0.925-0.371,0.991-0.868l6-45  C62.029,2.846,61.942,2.558,61.752,2.341z M24.959,59.626l-7.502-6.669l3.583-3.583l7.503,6.669L24.959,59.626z M30,54.662l-8-7.111  v-9.977l9.043-5.275c0.222-0.129,0.46-0.208,0.701-0.239c0.723-0.094,1.469,0.237,1.865,0.897c0.199,0.331,0.289,0.705,0.266,1.082  c-0.008,0.125-0.028,0.251-0.062,0.375c-0.133,0.498-0.455,0.909-0.905,1.16l-6.393,3.552C26.197,39.302,26,39.637,26,40v8  c0,0.552,0.448,1,1,1h9.37L30,54.662z M54.125,47H39H28v-6.412l5.878-3.266c0.929-0.516,1.591-1.365,1.866-2.39  c0.275-1.026,0.125-2.093-0.421-3.004c-0.681-1.134-1.862-1.797-3.099-1.874c-0.742-0.046-1.504,0.118-2.189,0.517l-4.015,2.342  L29.875,4h29.982L54.125,47z"></path><rect x="11" y="7" width="14" height="2"></rect><rect x="9" y="19" width="14" height="2"></rect><rect x="6" y="31" width="14" height="2"></rect><rect x="7" y="7" width="2" height="2"></rect><rect x="5" y="19" width="2" height="2"></rect><rect x="2" y="31" width="2" height="2"></rect></svg>