<?xml version="1.0" encoding="utf-8"?>
<!-- Generator: Adobe Illustrator 24.1.1, SVG Export Plug-In . SVG Version: 6.00 Build 0)  -->
<svg version="1.1" id="Layer_1" xmlns="http://www.w3.org/2000/svg" xmlns:xlink="http://www.w3.org/1999/xlink" x="0px" y="0px"
	 viewBox="0 0 300 300" style="enable-background:new 0 0 300 300;" xml:space="preserve">
<style type="text/css">
	.st0{fill:#FFFFFF;}
</style>
<g>
	<path class="st0" d="M150,46.5C93,46.5,46.5,93,46.5,150S93,253.5,150,253.5S253.5,207,253.5,150S207,46.5,150,46.5z M150,244.5
		c-26.1,0-49.8-10.5-66.9-27.9c18.3-24.6,42-38.1,66.9-38.1s48.6,13.5,66.9,38.1C199.8,234,176.1,244.5,150,244.5z M150,166.5
		c-18.9,0-34.2-15.3-34.2-34.2c0-18.9,15.3-34.2,34.2-34.2s34.2,15.3,34.2,34.2S168.9,166.5,150,166.5z M222.9,210
		c-15.3-20.4-34.2-33.6-54.9-38.4c15-6.9,25.2-21.9,25.2-39.3c0-24-19.5-43.2-43.2-43.2c-24,0-43.2,19.5-43.2,43.2
		c0,17.4,10.5,32.4,25.2,39.3c-20.7,4.8-39.6,18-54.9,38.1c-13.5-16.2-21.6-37.2-21.6-60c0-52.2,42.3-94.5,94.5-94.5
		s94.5,42.6,94.5,94.8C244.5,172.8,236.4,193.5,222.9,210z"/>
</g>
</svg>
