<?xml version="1.0" encoding="utf-8"?>
<!-- Generator: Adobe Illustrator 24.1.1, SVG Export Plug-In . SVG Version: 6.00 Build 0)  -->
<svg version="1.1" id="Layer_1" xmlns="http://www.w3.org/2000/svg" xmlns:xlink="http://www.w3.org/1999/xlink" x="0px" y="0px"
	 viewBox="0 0 300 300" style="enable-background:new 0 0 300 300;" xml:space="preserve">
<style type="text/css">
	.st0{fill:#FFFFFF;}
</style>
<path class="st0" d="M68.5,155.5c27.8,15.8,54.5,30.8,78,43.7h0.2c2,1.2,4.5,1.2,6.5,0c31.5-18.9,57.2-35.3,75-46.9
	c1.6-1,1.1-2.8-1-3.9c-1.9-1-4-1.1-6-0.4c-17,8.6-39.3,20.1-65,34.1c3-20.3,2.7-54.3-0.7-72C181,95.6,205.7,80.1,221.1,69
	c0.7,31.7,1.9,56.1,3,74.6c0.4,2.2,1.8,4.2,3.8,5.2c1.7,0.9,3,0.3,3.2-1.3c1.1-20.1,2.4-48.9,3-88.3c0.1-2.3-1.1-4.4-3-5.6h-0.2
	c-22.6-13.7-48.2-29-77-46c-2.4-1.4-5.3-1.4-7.7,0l0,0C121.3,21.7,95,36.7,68.5,52c-2.5,1.5-4.1,4.2-4.1,7.1c0,30.2,0,60.6,0.3,89.5
	l0,0C64.6,151.5,66.1,154.1,68.5,155.5z M115.2,43.9c12.6,11.4,41.6,28.6,60.5,36c-8.3,4.5-17,9.4-25.7,14.3
	C126.4,81,102.8,68.4,86.2,60.8L115.2,43.9z M144.5,110.3c-3.5,17.6-3.5,51.1-0.8,71.5c-19.5-11.7-40.9-24.4-63.2-37.6
	c0.2-24,0.3-49,0.3-74C96.1,81.2,120,96,144.5,110.3L144.5,110.3z M150,23.5C173.8,37,195.6,49.1,215.3,60
	c-7.9,3.5-17.4,8.3-27.9,13.8c-12.1-11.4-41.5-28.8-60.7-36.6L150,23.5z"/>
<path class="st0" d="M267.7,101.1c-9.2,2.8-15.6,11.2-15.9,20.8c0,1.3,0,1.9,0,2.6v2.3v4.4l0.3,8.6l0.7,16c0.2,4.7,0.5,9.1,0.8,13.2
	c-3.5-1.8-7.5-2.6-11.4-2.3c-4.3,0.2-8.5,1.7-12,4.2c-0.9,0.6-1.7,1.3-2.5,2.1c-0.8,0.7-1.1,1.1-1.6,1.6l-3,3l-12.3,12.1
	c-8.2,8.2-16.3,16.4-24,24.4l-11.4,12l-2.8,3c-1.1,1.1-2.1,2.3-3,3.6c-1.9,2.5-3.5,5.2-4.8,8c-2.4,5.3-3.6,11.2-3.5,17
	c0.2,5,0.5,9,0.7,13.3c0.5,8.3,1.1,15.5,1.8,21.2c0,0.8,2.1,1.4,4.4,1.4c2.3-0.1,3.8-0.7,3.8-1.4c0.7-5.8,1.3-13,1.8-21.2l0.7-13
	c0.5-5.9,2.8-11.5,6.7-16c0.7-0.8,1.3-1.4,2.2-2.3l3-2.8l12-11.4c8-7.8,16.3-15.9,24.4-24l11.9-12.6l3-3c0.5-0.5,1.1-1.1,1.4-1.4
	c0.2-0.2,0.5-0.5,0.8-0.7c1-0.8,2.3-1.3,3.6-1.4c2.7-0.3,5.4,1,7,3.2c1.9,2.8,1.8,6.6-0.2,9.3l-0.3,0.4l-0.6,0.6l-1.2,1.3l-4.8,5.3
	l-8.8,9.8c-5.5,6.2-10.1,11.8-13.7,16.3c-0.5,0.6,0.4,2.5,2.1,4s3,2.1,3.6,1.7c4.6-3.5,10.1-8.2,16.3-13.6l9.8-8.8l5.3-4.8l1.3-1.2
	l0.7-0.7l0.9-1c1.3-1.4,2.3-2.9,3.2-4.5c3.7-7,3.5-15.4-0.6-22.2l-0.2-0.3c0.5-6.2,1-13.4,1.4-21.6l0.7-16l0.6-17.2
	c0.3-3.4,2.7-6.2,6-7c3.3-0.8,6.7,0.6,8.5,3.5c0.4,0.7,0.7,1.5,0.9,2.3c0.1,1.1,0.1,2.2,0,3.3v10.3v21c0,14,0,28.2,0,42V208
	c0,2.7-0.3,5.4-1,8c-1.4,5.1-4,9.7-7.5,13.6c-17.4,18.1-32.6,34.4-43,46.6l-0.4,0.5c-0.7,0.8-1.1,1.9-1.1,3c0.2,6,0.5,9,0.8,12
	c0,1,2.1,1.9,4.4,1.8c2.3-0.1,3.8-0.8,3.8-1.8c0.2-2.4,0.4-5.1,0.7-9.7c12-10.4,27.8-25,45.5-42c8.5-8.4,13.5-19.7,13.9-31.6v-10.4
	c0-13.8,0.2-27.9,0-42v-21v-10.4c0-2.3-0.2-4.6-0.7-6.9c-0.6-2.5-1.6-4.9-3-7.1c-2.8-4.3-6.9-7.5-11.8-9.2
	C277.4,99.8,272.4,99.6,267.7,101.1z"/>
<path class="st0" d="M2.6,208.4C3,220.3,8,231.6,16.5,240C34.2,257,50,271.6,62,282c0.2,4.6,0.4,7.2,0.7,9.7c0,1,2.1,1.9,4.4,1.8
	c2.3-0.1,3.8-0.8,3.8-1.8c0.3-2.8,0.5-6,0.8-12c0-1.1-0.3-2.2-1.1-3l-0.4-0.5c-10.4-12-25.6-28.6-43-46.7c-3.6-3.8-6.1-8.4-7.5-13.5
	c-0.7-2.6-1.1-5.3-1.1-8v-10c0-13.8,0.2-27.9,0-42v-21v-10.4c-0.1-1.1-0.1-2.2,0-3.3c0.2-0.8,0.5-1.5,0.9-2.3
	c1.7-2.9,5.2-4.3,8.5-3.5c3.3,0.9,5.7,3.7,6,7l0.6,17.2l0.7,16c0.4,8.1,0.9,15.4,1.4,21.6l-0.2,0.3c-4,6.8-4.2,15.2-0.5,22.2
	c0.9,1.6,1.9,3.1,3.2,4.5l0.9,1l0.7,0.7l1.4,1.2l5.3,4.8l9.8,8.8c6.3,5.5,11.7,10.2,16.4,13.7c0.6,0.5,2.5-0.5,4-2.1
	c1.6-1.6,2.1-3,1.7-3.6c-3.6-4.6-8.2-10.1-13.7-16.3l-8.8-9.8l-4.8-5.3l-1.2-1.3l-0.6-0.6l-0.3-0.4c-2.1-2.8-2.2-6.5-0.2-9.4
	c1.6-2.3,4.2-3.5,7-3.2c1.3,0.1,2.6,0.6,3.6,1.4c0.3,0.2,0.5,0.4,0.8,0.7c0.3,0.2,0.9,0.9,1.4,1.4l3,3l12.2,12.3
	c8.2,8.2,16.4,16.3,24.4,24l12,11.4l3,2.8c0.9,0.8,1.5,1.5,2.2,2.3c3.9,4.5,6.2,10.1,6.7,16l0.7,13c0.5,8.3,1.1,15.5,1.8,21.2
	c0,0.8,2.1,1.4,4.4,1.4c2.3-0.1,3.8-0.7,3.8-1.4c0.7-5.8,1.3-13,1.8-21.2c0.2-4.2,0.5-8.4,0.7-13.4c0.1-5.9-1.1-11.7-3.5-17
	c-1.3-2.8-2.9-5.5-4.8-8c-0.9-1.2-1.9-2.4-3-3.6l-2.8-3l-11.4-12c-7.8-8-15.9-16.3-24-24.4l-12.3-12.2l-3-3
	c-0.6-0.5-0.9-0.9-1.7-1.6c-0.8-0.8-1.6-1.4-2.5-2.1c-3.5-2.5-7.7-4-12-4.2c-3.9-0.3-7.9,0.5-11.4,2.3c0.3-4,0.5-8.4,0.8-13.2
	l0.7-16l0.3-8.6v-4.4v-2.3c0-0.8,0-1.4,0-2.6c-0.3-9.6-6.7-17.9-15.9-20.8c-4.8-1.4-9.9-1.1-14.6,0.7c-4.8,1.7-8.9,5-11.6,9.3
	c-1.4,2.2-2.4,4.6-3,7.1c-0.5,2.3-0.7,4.6-0.7,6.9L2.5,135v21c0,14,0,28.2,0,42L2.6,208.4z"/>
</svg>
