<svg height='300px' width='300px'  fill="#FFFFFF" xmlns="http://www.w3.org/2000/svg" xmlns:xlink="http://www.w3.org/1999/xlink" xmlns:xodm="http://www.corel.com/coreldraw/odm/2003" xml:space="preserve" version="1.1" style="shape-rendering:geometricPrecision;text-rendering:geometricPrecision;image-rendering:optimizeQuality;" viewBox="0 0 60000 60000" x="0px" y="0px" fill-rule="evenodd" clip-rule="evenodd"><defs><style type="text/css">
   
    .fil0 {fill:#FFFFFF;fill-rule:nonzero}
   
  </style></defs><g><path class="fil0" d="M5029.78 28452.27l5984.81 0c267.73,0 525.28,45.47 765.37,128.99 -200.61,-189.77 -424.49,-364.22 -658.56,-521.02 -839.68,-562.5 -1792.8,-892.49 -2294.62,-901.11 -6.41,0.5 -12.89,0.75 -19.43,0.75l-5984.83 0c-14.01,0 -27.98,0.18 -41.9,0.53l1832.77 1329.13c135.21,-24.48 274.37,-37.27 416.39,-37.27zm51586.29 -11139.74l592.44 537.6 -537.59 592.44 -592.44 -537.6 537.59 -592.44zm2150.36 -2369.8l592.44 537.6 -537.59 592.45 -592.44 -537.6 537.59 -592.45zm-14548.52 13006.76c728.46,140.05 1379.76,497.11 1883.94,1001.29 91.95,91.95 179.01,188.8 260.74,290.13l1483.83 -1211.02c23.12,-18.87 -29.13,-54.81 -34.97,-126.74 -25.12,-309.23 -49.59,-610.61 333.79,-831.96l0.87 -0.49c256.77,-147.93 549.61,-177.83 814.64,-106.83 265.65,71.19 504.57,243.55 652.58,499.89l486.39 842.44c5.37,9.27 10.31,18.67 14.86,28.17 135.24,250.14 160.93,531.77 92.46,787.34 -70.9,264.61 -243.37,503.15 -500.29,651.89l0.39 0.68c-384.24,221.86 -635.32,45.58 -890.63,-133.7 -54.37,-38.17 -29.64,-112.59 -69.64,-94.79l-1776.96 790.81c128.81,372.87 198.84,773.15 198.84,1189.79 0,463.16 -86.51,906.11 -244.17,1313.64l1831.27 787.75c19.64,7.45 389.24,-644.83 937.6,-328.27l1.17 0.69 0.4 -0.68c256.34,148 428.69,386.92 499.88,652.57 70.91,264.68 40.83,557.31 -107.33,813.95l-487.09 843.63 0.69 0.4c-4.2,7.28 -8.48,14.48 -12.83,21.62l0.35 0.23 -4.87 7.11c-148.93,240.36 -379.69,402.46 -635.2,470.91 -264.66,70.91 -557.29,40.83 -813.91,-107.31l-22.73 -13.57 -0.71 1.07c-6.44,-4.29 -12.66,-8.73 -18.74,-13.3 -468.3,-302.2 -240.85,-918.7 -241.06,-918.85l-1574.24 -1144.16c-56.26,64.77 -114.75,127.55 -175.38,188.18 -534.06,534.06 -1233.18,903.04 -2014.26,1023.87l306.66 1889.27c2.2,13.57 681.76,103.81 681.76,739.57 0,296.18 -120.9,565.16 -315.62,759.9 -194.74,194.72 -463.72,315.62 -759.9,315.62l-972.78 0c-296.17,0 -565.16,-120.88 -759.88,-315.62 -194.75,-194.75 -315.62,-463.71 -315.62,-759.89 0,-605.39 678.59,-715.83 678.62,-716.15l203.73 -1935.28c-728.46,-140.05 -1379.75,-497.11 -1883.93,-1001.29 -91.95,-91.95 -179.01,-188.8 -260.74,-290.12l-1483.82 1211.01c-15.1,12.32 252.62,638.5 -299.22,958.02l0.39 0.68c-256.98,148.37 -550.17,178.41 -815.52,107.33 -264.99,-71.01 -503.87,-243.88 -652.57,-501.45l-486.38 -842.44c-148.17,-256.64 -178.24,-549.27 -107.32,-813.95 70.9,-264.6 243.37,-503.14 500.29,-651.89l-0.39 -0.68c525.99,-303.72 959.29,228.92 960.26,228.49l1776.97 -790.81c-128.82,-372.87 -198.85,-773.15 -198.85,-1189.8 0,-463.15 86.51,-906.1 244.17,-1313.62l-1788.28 -678.62c-19.65,-7.45 -432.21,535.7 -980.58,219.12l-0.71 -0.42c-257.17,-148.73 -429.8,-387.39 -500.75,-652.15 -70.92,-264.67 -40.86,-557.29 107.31,-813.96l0.69 -1.16 -0.69 -0.4 486.39 -842.44c148.01,-256.34 386.93,-428.7 652.58,-499.89 264.68,-70.91 557.31,-40.83 813.95,107.33l1.17 0.69 0.4 -0.68c549.14,317.06 278.54,942.38 281.64,944.63l1574.23 1144.14c56.26,-64.77 114.75,-127.55 175.38,-188.18 534.06,-534.06 1233.19,-903.04 2014.25,-1023.87l-306.65 -1889.25c-4.51,-27.79 -61.21,-3.35 -125.36,-33.74 -281.8,-133.53 -556.4,-263.68 -556.4,-705.85 0,-296.18 120.88,-565.17 315.62,-759.89 194.75,-194.75 463.71,-315.62 759.89,-315.62l972.78 0c296.18,0 565.17,120.88 759.89,315.62 194.74,194.72 315.62,463.69 315.62,759.88 0,442.63 -279.05,572.34 -562.83,704.22 -59.72,27.75 -111.17,-32.06 -115.8,11.95l-203.73 1935.26zm1318.32 1566.91c-478.88,-478.88 -1127.9,-787.62 -1848.61,-827.96l-237.28 12.71c-39.81,2.03 -78.54,-1.88 -115.36,-10.9 -708.77,47.09 -1346.48,353.9 -1818.73,826.15 -136.39,136.39 -258.99,286.59 -365.51,448.32l-108.14 212.85c-18.62,36.92 -42.2,69.7 -69.52,97.93 -185.27,377.46 -289.35,802.01 -289.35,1250.89 0,459.17 108.9,892.87 302.21,1276.77l130.99 201.21c21.82,33.59 37.9,69.24 48.55,105.81 103.04,153.32 220.62,296.05 350.77,426.2 478.88,478.88 1127.89,787.62 1848.61,827.96l237.28 -12.71c39.81,-2.03 78.54,1.88 115.36,10.9 708.77,-47.09 1346.48,-353.9 1818.73,-826.15 136.4,-136.4 259.01,-286.62 365.54,-448.35l108.12 -212.8c18.62,-36.91 42.18,-69.67 69.49,-97.89 185.28,-377.48 289.37,-802.05 289.37,-1250.95 0,-459.13 -108.89,-892.8 -302.17,-1276.68l-131.05 -201.28c-21.83,-33.61 -37.93,-69.3 -48.58,-105.9 -103.02,-153.29 -220.59,-296 -350.72,-426.13zm9026.73 -9482.21c150.15,-160.51 402,-168.9 562.51,-18.75 160.51,150.15 168.9,402 18.75,562.51l-3616.49 3864.7c-150.15,160.51 -402,168.9 -562.51,18.75 -160.51,-150.15 -168.9,-402 -18.75,-562.51l3616.49 -3864.7zm3453.15 -7731.22c148.42,-162.23 400.27,-173.42 562.5,-25 162.23,148.42 173.42,400.27 25,562.5l-9970.25 10878.14c-148.42,162.23 -400.27,173.42 -562.5,25 -162.23,-148.42 -173.42,-400.27 -25,-562.5l9970.25 -10878.14zm-29574.89 -5996.59l1692.48 1305.95c82.64,-404.3 283.99,-766.5 565.66,-1048.17 125.49,-125.49 266.98,-235.02 421.05,-325.23l-1769.69 -1283.38c-186.11,72.22 -353.59,182.72 -492.62,321.75 -257.22,257.21 -416.88,611.79 -416.88,1001.61l0 27.47zm1650.83 1863.03c-41.07,-5.94 -81.22,-22.23 -116.41,-49.4l-1534.42 -1183.99 0 44900.41c0,182.43 34.82,356.89 98.09,517.02 66.22,167.61 163,319.48 283.18,448.46 142.32,152.74 693.38,705.11 1316.95,1221.13 -31.02,-141.95 -47.39,-289.25 -47.39,-440.2l0 -45413.43zm-22.04 -3308.99l1595.04 1156.73c158.86,-39.37 324.83,-60.3 495.48,-60.3l6228.98 0c-618.88,-435.19 -1283.77,-800.74 -1663.65,-972.26 -89.9,-40.6 -184.38,-72.03 -282.17,-93.05 -94.79,-20.38 -194.23,-31.12 -297.27,-31.12l-6076.41 0zm677.95 50230.62c-76.21,-47.67 -153.06,-98.47 -230.14,-151.79 -891.5,-616.78 -1861.58,-1583.93 -2060.57,-1797.5 -163.12,-175.08 -293.95,-379.88 -382.78,-604.7 -85.95,-217.53 -133.25,-453.96 -133.25,-700.62l0 -45557.52c0,-527.85 215.76,-1007.54 563.36,-1355.13 347.59,-347.6 827.28,-563.36 1355.13,-563.36l6286.71 0c136.15,0 270.3,14.79 400.79,42.84 133.81,28.77 262.28,71.4 383.73,126.25 539.56,243.61 1626.73,860.11 2403.43,1527.28 105.54,90.66 205.7,182.79 298.65,275.79 98.39,69.22 190.55,146.74 275.39,231.58 374.72,374.71 607.31,891.93 607.31,1461.17l0 14723.21c0,115.79 -49.22,220.07 -127.86,293.12l-2124.07 2260.24c-95.1,101.08 -230.46,141.53 -357.76,119.93l-0.06 0.38 -3305.83 -563.31 508.21 3583.98c17.48,126.37 -26.26,247.1 -108.54,332.23l-2010.91 2139.82 2279.01 2539.09c78.54,87.78 111,200.74 99.07,309.28l0.93 0.1 -387.41 3515.05 2852.99 -32.75c106.78,-0.83 204.08,40.42 276.16,108.25l0.41 -0.44 2296.64 2164.3c89.21,83.93 131.19,199.23 124.97,312.66l-17.51 13752.37c-0.72,570.51 -232.8,1087.79 -606.47,1461.46 -374.55,374.55 -891.33,607.03 -1460.45,607.03l-6286.71 0c-545.03,0 -1042.35,-213.25 -1412.57,-560.29zm-16287.35 -39371.33l1677.78 1294.61c105.34,-350.48 296.77,-664.5 549.42,-917.15 154.98,-154.98 333.05,-286.92 528.46,-390.09l-1878.64 -1362.39c-158.96,75.97 -303.07,178.57 -426.45,301.94 -275.91,275.91 -447.94,655.48 -450.57,1073.08zm1587.61 1840.08c-23.39,-8.57 -45.88,-20.8 -66.64,-36.83l-1521.03 -1173.66 0 34863.4c0,171.21 27.94,335.09 79.41,487.3 53.89,159.38 133.2,307.04 232.93,438.01 160.74,211.09 653.19,846.84 1244.28,1435.1 32.93,32.77 66.15,65.39 99.61,97.78 -45.67,-175.27 -70.03,-358.97 -70.03,-548.1l0 -35483.28c0,-26.68 0.51,-53.26 1.47,-79.72zm-65.06 -3363.72l1801.01 1306.1c144.07,-30.17 293.25,-46.06 445.98,-46.06l6247.85 0c73.23,0 145.64,3.67 217.06,10.79 -100.61,-80.08 -203.07,-158.64 -305.99,-234.89 -425.57,-315.25 -857.13,-589.29 -1197.71,-765.09 -258.71,-133.54 -427.33,-202.25 -564.4,-236.46 -127.46,-31.81 -240.65,-34.46 -385.16,-34.46l-6247.84 0 -10.8 0.07zm1331.23 40907.83c-548.32,-189.39 -1137.19,-668.12 -1648.78,-1177.27 -615.48,-612.54 -1123.49,-1268.27 -1289.2,-1485.88 -132.63,-174.16 -237.87,-369.9 -309.11,-580.59 -69.2,-204.62 -106.75,-422.47 -106.75,-647.46l0 -35483.3c0,-559.45 228.69,-1067.87 597.11,-1436.29 368.43,-368.42 876.85,-597.11 1436.3,-597.11l6247.84 0c177.58,0 319.05,3.84 504.3,50.08 175.65,43.84 377.93,124.77 673.78,277.48 361.98,186.85 818.26,476.32 1266.07,808.05 403.61,298.99 802.06,633.63 1120.56,960.06 215.62,220.99 371.01,421.42 480.96,629.03 235.86,348.55 373.92,768.25 373.92,1218.81l0 35483.28c0,600.85 -245.52,1146.8 -641.06,1542.34 -395.54,395.55 -941.49,641.07 -1542.33,641.07l-6247.85 0c-326.59,0 -636.94,-72.56 -915.76,-202.3zm-16166.12 -26502.68l1708.86 1318.6c119.26,-293.93 296.55,-558.62 517.5,-779.56 188.12,-188.12 407.94,-344.6 650.54,-460.55l-1891.99 -1372.07c-189.55,85.27 -360.92,204.48 -506.23,349.79 -250.58,250.59 -423.56,578.63 -478.68,943.79zm1565.59 1837.69l-1584.46 -1222.61 0 22061.42 -0.98 0c-0.04,213.26 -0.09,524.77 213.03,858.68 294.66,461.68 760.19,985.65 1244.84,1446.37 52.91,50.3 105.95,99.75 158.96,148.24 -38.33,-167.52 -58.61,-341.75 -58.61,-520.52l0 -22415.09c0,-121.13 9.3,-240.19 27.22,-356.49zm10333.64 -805.68c197.22,342.95 310.23,739.93 310.23,1162.17l0 22415.09c0,644.77 -263.49,1230.66 -687.98,1655.15 -424.5,424.49 -1010.38,687.98 -1655.16,687.98l-5984.81 0c-628.23,0 -1200.53,-250.17 -1622.13,-655.67 -351.3,-234.72 -765.19,-573.66 -1165.12,-953.86 -509.25,-484.11 -1002.43,-1040.96 -1321,-1540.11 -291.26,-456.33 -291.2,-854.01 -291.15,-1126.26l-0.98 0 0 -22424.72c0,-603.35 246.66,-1151.71 644.03,-1549.09 397.37,-397.37 945.72,-644.03 1549.09,-644.03l5984.83 0c8.45,0 16.81,0.42 25.04,1.24 579.36,9.99 1649.35,370.76 2566.35,985.06 752.02,503.79 1412.51,1181.48 1648.76,1987.05zm11430.5 -13377.12l-6247.85 0c-380.02,0 -725.79,155.75 -976.72,406.68 -250.93,250.93 -406.68,596.7 -406.68,976.72l0 35483.28c0,380.02 155.75,725.79 406.68,976.72 250.92,250.93 596.7,406.69 976.72,406.69l6247.85 0c380.01,0 725.79,-155.76 976.71,-406.69 250.93,-250.93 406.68,-596.7 406.68,-976.72l0 -35483.28c0,-380.01 -155.76,-725.79 -406.68,-976.72 -250.93,-250.93 -596.7,-406.68 -976.71,-406.68zm13969.24 -9499.26l-6286.71 0c-348.41,0 -665.46,142.83 -895.55,372.93 -230.09,230.09 -372.93,547.14 -372.93,895.55l0 45557.51c0,348.41 142.83,665.47 372.93,895.56 230.09,230.09 547.14,372.93 895.55,372.93l6286.71 0c348.23,0 664.9,-142.72 894.83,-372.65 231.18,-231.18 374.78,-548.45 375.21,-895.84l17.32 -13601.77 -2055.07 -1936.65 -3114.2 35.75c-24.48,1.88 -49.48,1.55 -74.77,-1.24 -219.19,-24.16 -377.29,-221.44 -353.13,-440.63l417.29 -3786.08 -2388.08 -2660.6c-153.2,-151.73 -158.3,-398.85 -9.68,-556.82l2134.07 -2270.86 -555.27 -3915.85c-8.7,-45.61 -9.56,-93.52 -1.29,-141.99 37.1,-217.46 243.48,-363.66 460.94,-326.56l3633.97 619.22 1886.34 -2007.28 0 -14566.15c0,-348.41 -142.83,-665.46 -372.93,-895.55 -230.09,-230.1 -547.14,-372.93 -895.55,-372.93zm-27432.65 22495.42l-5984.81 0c-423.94,0 -809.66,173.73 -1089.53,453.61 -279.88,279.87 -453.61,665.58 -453.61,1089.52l0 22415.09c0,423.94 173.73,809.65 453.61,1089.52 279.87,279.88 665.59,453.61 1089.53,453.61l5984.81 0c423.95,0 809.66,-173.73 1089.54,-453.6 279.87,-279.87 453.6,-665.59 453.6,-1089.53l0 -22415.09c0,-423.94 -173.73,-809.65 -453.61,-1089.53 -279.87,-279.87 -665.59,-453.6 -1089.53,-453.6z"></path></g></svg>