<svg height='300px' width='300px'  fill="#FFFFFF" xmlns="http://www.w3.org/2000/svg" viewBox="0 0 64 64" x="0px" y="0px"><title>Artboard 20</title><g data-name="Layer 22"><path d="M29.68,27.39a4,4,0,0,1-.63-1.83l-1.55.29a4.3,4.3,0,0,0,.61,2,3.32,3.32,0,0,0,1.25,1.2,5.71,5.71,0,0,0,1.88.52v1.54h.91V29.59a3.72,3.72,0,0,0,3.67-3.82,3.78,3.78,0,0,0-.25-1.36,3.05,3.05,0,0,0-.7-1.08,3.78,3.78,0,0,0-1.17-.77,12.69,12.69,0,0,0-1.55-.46V17.65a2.15,2.15,0,0,1,1.19.64,2.65,2.65,0,0,1,.57,1.4l1.6-.24a3.54,3.54,0,0,0-1.22-2.31,3.87,3.87,0,0,0-2.14-.79v-.74h-.91v.74a4,4,0,0,0-2.31.84,3.37,3.37,0,0,0-1.17,2.67,3.3,3.3,0,0,0,.4,1.65,2.78,2.78,0,0,0,1.14,1.14,6.22,6.22,0,0,0,1.94.74v4.92A2.3,2.3,0,0,1,29.68,27.39Zm2.47-3.78a3.47,3.47,0,0,1,1.66.91,2.06,2.06,0,0,1,.42,1.35,2.44,2.44,0,0,1-.59,1.66,2.34,2.34,0,0,1-1.49.78Zm-2.4-2.55a2,2,0,0,1-.44-1.32,2,2,0,0,1,.51-1.38,2.29,2.29,0,0,1,1.42-.72v4.27A3,3,0,0,1,29.75,21.06Z"></path><path d="M60.51,2.93a.91.91,0,0,0-1,.31L50.83,14.51,46.92,13a.9.9,0,0,0-.84.09l-4.45,3A11.81,11.81,0,0,0,21.55,28.32l-4.07,3.39-4-3.17-.09-.05-.18-.09-.17,0-.12,0h-.14l-.1,0-.19.07a.51.51,0,0,0-.13.09.86.86,0,0,0-.14.13.34.34,0,0,1-.06.06L4.76,39.84V33.79H7.49a.91.91,0,1,0,0-1.81H4.76V30.16H7.49a.91.91,0,1,0,0-1.82H4.76V26.52H7.49a.91.91,0,1,0,0-1.82H4.76V22.88H7.49a.91.91,0,1,0,0-1.81H4.76V19.25H7.49a.91.91,0,0,0,0-1.82H4.76V15.61H7.49a.91.91,0,0,0,0-1.82H4.76V6l3,3A.91.91,0,0,0,9,7.7L4.5,3.15A.91.91,0,0,0,3,3.79V42.63a.83.83,0,0,0,0,.62V60.16a.9.9,0,0,0,.9.91h28a.85.85,0,0,0,.24,0,1,1,0,0,0,.24,0H60.22a.91.91,0,0,0,.91-.91V3.79A.91.91,0,0,0,60.51,2.93Zm-1.2,56.32H52V16.52a.9.9,0,0,0-.13-.43l7.4-9.62ZM46.69,14.82l3.58,1.43a.81.81,0,0,0-.05.27V59.25H43V27.43h0a11.76,11.76,0,0,0-.37-9.87ZM31.13,59.25H23.85V31.39a11.79,11.79,0,0,0,7.28,3.27ZM33,34.66a11.8,11.8,0,0,0,8.18-4.23V59.25H33ZM32,12.88a10,10,0,0,1,8.22,4.32.86.86,0,0,0,.11.73.89.89,0,0,0,.55.38A10,10,0,0,1,23.85,28.62v-.28a.9.9,0,0,0-.52-.82l-.17-.06A9.82,9.82,0,0,1,22,22.88,10,10,0,0,1,32,12.88Zm-14,20.7,4-3.3v29H13.85V31.14l3.07,2.45A.9.9,0,0,0,18.07,33.58ZM4.76,43.1,12,32.24v27H4.76Z"></path></g></svg>