<?xml version="1.0" encoding="utf-8"?>
<!-- Generator: Adobe Illustrator 24.1.1, SVG Export Plug-In . SVG Version: 6.00 Build 0)  -->
<svg version="1.1" id="Layer_1" xmlns="http://www.w3.org/2000/svg" xmlns:xlink="http://www.w3.org/1999/xlink" x="0px" y="0px"
	 viewBox="0 0 300 300" style="enable-background:new 0 0 300 300;" xml:space="preserve">
<style type="text/css">
	.st0{fill:#FFFFFF;}
</style>
<g>
	<path class="st0" d="M288.3,199.5h-20.9v-58.8c0-3.2-2.6-5.7-5.7-5.7h-25.8H212h-20.1v-8c0-3.2-2.6-5.7-5.7-5.7h-19.8V62.1
		c0-3.2-2.6-5.7-5.7-5.7h-25.8H111H85.2c-3.2,0-5.7,2.6-5.7,5.7v59.1H65.4V53.7c0-3.2-2.6-5.7-5.7-5.7H37.5H12.9
		c-3.2,0-5.7,2.6-5.7,5.7v19.5c0,3.2,2.6,5.7,5.7,5.7h19.8v148.3c0,3.2,2.6,5.7,5.7,5.7h25.8c4.3,11.5,15.2,19.8,28.1,19.8
		s24.1-8.3,28.4-19.8h74.6c4.3,11.5,15.2,19.8,28.4,19.8c12.9,0,24.1-8.3,28.1-19.8h36.4c3.2,0,5.7-2.6,5.7-5.7v-22.1
		C294,202,291.4,199.5,288.3,199.5z M282.5,221.5h-29c0-3.7-0.9-7.2-2.3-10.6h31.3V221.5z M223.4,241.3c-10.3,0-18.6-8.3-18.6-18.6
		c0-10.3,8.3-18.6,18.6-18.6c10.3,0,18.6,8.3,18.6,18.6C242.1,232.7,233.8,241.3,223.4,241.3z M122.5,221.5c0-3.7-0.9-7.2-2.3-10.6
		h66.3h9.2c-1.4,3.2-2,6.9-2.3,10.6H122.5z M73.7,222.4c0-10.3,8.3-18.6,18.6-18.6s18.6,8.3,18.6,18.6c0,10.3-8.3,18.6-18.6,18.6
		C82.3,241.3,73.7,232.7,73.7,222.4z M44.1,221.5V59.5h10.6v67.4v78.3c0,3.2,2.6,5.7,5.7,5.7h4.3c-1.4,3.2-2,6.9-2.3,10.6
		L44.1,221.5L44.1,221.5z M230.3,146.4v12.3H218v-12.3H230.3z M206.5,146.4v18.1c0,3.2,2.6,5.7,5.7,5.7h23.8c3.2,0,5.7-2.6,5.7-5.7
		v-18.1h14.3v53.4h-12.9c-5.2-4.3-12-7.2-19.5-7.2c-7.5,0-14.1,2.6-19.5,7.2h-11.8v-53.4H206.5z M129.6,67.8v12.3h-12.3V67.8H129.6z
		 M91.5,67.8h14.3v18.1c0,3.2,2.6,5.7,5.7,5.7h23.8c3.2,0,5.7-2.6,5.7-5.7V67.8h14.3v53.4h-20.1h-23.8H91.5V67.8z M117.3,132.6h12.3
		V145h-12.3V132.6z M85.7,132.6h20.1v18.1c0,3.2,2.6,5.7,5.7,5.7h23.8c3.2,0,5.7-2.6,5.7-5.7v-18.1h20.1H181v8v59.1h-69.1
		c-5.2-4.3-12-7.2-19.5-7.2s-14.1,2.6-19.5,7.2h-7.2v-67.1H85.7z M18.6,67.5v-8h14.1v8H18.6z"/>
	<circle class="st0" cx="92.3" cy="222.4" r="9.2"/>
	<circle class="st0" cx="223.4" cy="222.4" r="9.2"/>
</g>
</svg>
