<?xml version="1.0" encoding="utf-8"?>
<!-- Generator: Adobe Illustrator 24.1.1, SVG Export Plug-In . SVG Version: 6.00 Build 0)  -->
<svg version="1.1" id="Layer_1" xmlns="http://www.w3.org/2000/svg" xmlns:xlink="http://www.w3.org/1999/xlink" x="0px" y="0px"
	 viewBox="0 0 300 300" style="enable-background:new 0 0 300 300;" xml:space="preserve">
<style type="text/css">
	.st0{fill:#FFFFFF;}
</style>
<path class="st0" d="M14.1,56.3v173.4c0,2.6,2.1,4.7,4.7,4.7h75v51.6c0,2.6,2.1,4.7,4.7,4.7c0.8,0,1.6-0.2,2.2-0.6l49.3-26.9
	l49.3,26.9c2.3,1.2,5.1,0.4,6.4-1.9c0.4-0.7,0.6-1.5,0.6-2.2v-51.6h75c2.6,0,4.7-2.1,4.7-4.7V56.3c2.6,0,4.7-2.1,4.7-4.7
	c0-1.2-0.5-2.4-1.4-3.3l-37.5-37.5c-0.9-0.9-2.1-1.4-3.3-1.4H51.6c-1.2,0-2.4,0.5-3.3,1.4L10.7,48.2c-1.8,1.8-1.8,4.8,0,6.6
	C11.6,55.8,12.8,56.2,14.1,56.3z M196.9,278l-44.6-24.3c-1.4-0.8-3.1-0.8-4.5,0L103.1,278V168.8c0-5.2,4.2-9.4,9.4-9.4h74.9
	c5.2,0,9.4,4.2,9.4,9.4V278z M187.4,150h-74.9c-10.4,0-18.8,8.4-18.8,18.8v4.6H75v-37.5h150v37.5h-18.8v-4.6
	C206.2,158.4,197.8,150,187.4,150z M276.6,79.7c0,7.8-6.3,14.1-14.1,14.1c-7.8,0-14.1-6.3-14.1-14.1V56.3h28.1V79.7z M53.5,18.8h193
	l28.1,28.1H25.4L53.5,18.8z M239.1,56.3v23.4c0,7.8-6.3,14.1-14.1,14.1s-14.1-6.3-14.1-14.1V56.3H239.1z M201.6,56.3v23.4
	c0,7.8-6.3,14.1-14.1,14.1s-14.1-6.3-14.1-14.1V56.3H201.6z M164.1,56.3v23.4c0,7.8-6.3,14.1-14.1,14.1c-7.8,0-14.1-6.3-14.1-14.1
	V56.3H164.1z M126.6,56.3v23.4c0,7.8-6.3,14.1-14.1,14.1s-14.1-6.3-14.1-14.1V56.3H126.6z M89.1,56.3v23.4c0,7.8-6.3,14.1-14.1,14.1
	s-14.1-6.3-14.1-14.1V56.3H89.1z M23.4,56.3h28.1v23.4c0,7.8-6.3,14.1-14.1,14.1s-14.1-6.3-14.1-14.1V56.3z M23.4,98.3
	c10.1,7.8,24.6,5.9,32.4-4.2c0.1-0.2,0.3-0.3,0.4-0.5c7.6,10.4,22.1,12.6,32.5,5c1.9-1.4,3.6-3.1,5-5c7.6,10.4,22.1,12.6,32.5,5
	c1.9-1.4,3.6-3.1,5-5c7.6,10.4,22.1,12.6,32.5,5c1.9-1.4,3.6-3.1,5-5c7.6,10.4,22.1,12.6,32.5,5c1.9-1.4,3.6-3.1,5-5
	c7.6,10.4,22.1,12.6,32.5,5c1.9-1.4,3.6-3.1,5-5c7.5,10.3,22,12.6,32.3,5.1c0.2-0.1,0.3-0.3,0.5-0.4V225h-70.3v-42.2h23.4
	c2.6,0,4.7-2.1,4.7-4.7v-46.9c0-2.6-2.1-4.7-4.7-4.7H70.3c-2.6,0-4.7,2.1-4.7,4.7v46.9c0,2.6,2.1,4.7,4.7,4.7h23.4V225H23.4V98.3z"
	/>
<rect x="117.2" y="206" transform="matrix(0.7071 -0.7071 0.7071 0.7071 -105.0543 167.7798)" class="st0" width="65.6" height="9.4"/>
<path class="st0" d="M140.1,201.6c3.7,0,7.3-1.5,9.9-4.1l0,0c5.5-5.5,5.5-14.4,0-19.9c-5.6-5.3-14.3-5.3-19.9,0
	c-5.5,5.5-5.5,14.4,0,19.9C132.8,200.1,136.3,201.6,140.1,201.6z M136.7,184.2c1.9-1.8,4.8-1.7,6.6,0.1c1.8,1.8,1.8,4.7,0,6.5l0,0
	c-1.9,1.8-4.8,1.8-6.6,0C134.9,189,134.9,186,136.7,184.2C136.7,184.2,136.7,184.2,136.7,184.2L136.7,184.2z"/>
<path class="st0" d="M150,224c-5.4,5.5-5.4,14.4,0.2,19.9c5.5,5.4,14.3,5.4,19.7,0l0,0c5.5-5.5,5.5-14.4,0-19.9
	C164.3,218.7,155.6,218.7,150,224z M163.3,237.2L163.3,237.2c-1.9,1.8-4.8,1.8-6.6,0c-1.8-1.8-1.8-4.8,0-6.6c1.8-1.8,4.8-1.8,6.6,0
	C165.1,232.4,165.1,235.4,163.3,237.2C163.3,237.2,163.3,237.2,163.3,237.2L163.3,237.2z"/>
</svg>
