<svg height='300px' width='300px'  fill="#FFFFFF" xmlns="http://www.w3.org/2000/svg" xmlns:xlink="http://www.w3.org/1999/xlink" xmlns:sketch="http://www.bohemiancoding.com/sketch/ns" viewBox="0 0 60 56" version="1.1" x="0px" y="0px"><title>78 - Cashier (Solid)</title><desc>Created with Sketch.</desc><g stroke="none" stroke-width="1" fill="none" fill-rule="evenodd" sketch:type="MSPage"><g sketch:type="MSLayerGroup" transform="translate(-1.000000, 0.000000)" fill="#FFFFFF"><path d="M2.143,45 L59.857,45 C60.321,45 60.735,44.724 60.913,44.295 C61.09,43.866 60.993,43.378 60.665,43.05 L55,37.384 L55,10.958 C55,6.57 51.43,3 47.042,3 L46,3 L46,0 L37,0 L37,3 L14.958,3 C10.57,3 7,6.57 7,10.958 L7,37.384 L1.335,43.05 C1.007,43.378 0.91,43.866 1.087,44.295 C1.265,44.724 1.679,45 2.143,45 L2.143,45 Z M46,9 L46.072,9 C47.686,9 49,10.313 49,11.928 L49,15 L46,15 L46,9 L46,9 Z M41,4 L42,4 C42.552,4 43,4.447 43,5 C43,5.553 42.552,6 42,6 L41,6 C40.448,6 40,5.553 40,5 C40,4.447 40.448,4 41,4 L41,4 Z M41,8 L42,8 C42.552,8 43,8.447 43,9 C43,9.553 42.552,10 42,10 L41,10 C40.448,10 40,9.553 40,9 C40,8.447 40.448,8 41,8 L41,8 Z M41,12 L42,12 C42.552,12 43,12.447 43,13 C43,13.553 42.552,14 42,14 L41,14 C40.448,14 40,13.553 40,13 C40,12.447 40.448,12 41,12 L41,12 Z M9,10.958 C9,7.673 11.673,5 14.958,5 L37,5 L37,7 L15.928,7 C13.21,7 11,9.211 11,11.928 L11,17 L51,17 L51,11.928 C51,9.211 48.79,7 46.072,7 L46,7 L46,5 L47.042,5 C50.327,5 53,7.673 53,10.958 L53,37 L9,37 L9,10.958 L9,10.958 Z M37,9 L37,15 L13,15 L13,11.928 C13,10.313 14.313,9 15.928,9 L37,9 L37,9 Z" sketch:type="MSShapeGroup"></path><path d="M12,20 C11.448,20 11,20.448 11,21 C11,21.552 11.448,22 12,22 C12.552,22 13,21.552 13,21 C13,20.448 12.552,20 12,20" sketch:type="MSShapeGroup"></path><path d="M16,20 C15.448,20 15,20.448 15,21 C15,21.552 15.448,22 16,22 C16.552,22 17,21.552 17,21 C17,20.448 16.552,20 16,20" sketch:type="MSShapeGroup"></path><path d="M16,24 C15.448,24 15,24.448 15,25 C15,25.552 15.448,26 16,26 C16.552,26 17,25.552 17,25 C17,24.448 16.552,24 16,24" sketch:type="MSShapeGroup"></path><path d="M12,24 C11.448,24 11,24.448 11,25 C11,25.552 11.448,26 12,26 C12.552,26 13,25.552 13,25 C13,24.448 12.552,24 12,24" sketch:type="MSShapeGroup"></path><path d="M12,28 C11.448,28 11,28.448 11,29 C11,29.552 11.448,30 12,30 C12.552,30 13,29.552 13,29 C13,28.448 12.552,28 12,28" sketch:type="MSShapeGroup"></path><path d="M16,28 C15.448,28 15,28.448 15,29 C15,29.552 15.448,30 16,30 C16.552,30 17,29.552 17,29 C17,28.448 16.552,28 16,28" sketch:type="MSShapeGroup"></path><path d="M16,32 C15.448,32 15,32.448 15,33 C15,33.552 15.448,34 16,34 C16.552,34 17,33.552 17,33 C17,32.448 16.552,32 16,32" sketch:type="MSShapeGroup"></path><path d="M12,32 C11.448,32 11,32.448 11,33 C11,33.552 11.448,34 12,34 C12.552,34 13,33.552 13,33 C13,32.448 12.552,32 12,32" sketch:type="MSShapeGroup"></path><path d="M20,20 C19.448,20 19,20.448 19,21 C19,21.552 19.448,22 20,22 C20.552,22 21,21.552 21,21 C21,20.448 20.552,20 20,20" sketch:type="MSShapeGroup"></path><path d="M24,20 C23.448,20 23,20.448 23,21 C23,21.552 23.448,22 24,22 C24.552,22 25,21.552 25,21 C25,20.448 24.552,20 24,20" sketch:type="MSShapeGroup"></path><path d="M24,24 C23.448,24 23,24.448 23,25 C23,25.552 23.448,26 24,26 C24.552,26 25,25.552 25,25 C25,24.448 24.552,24 24,24" sketch:type="MSShapeGroup"></path><path d="M20,24 C19.448,24 19,24.448 19,25 C19,25.552 19.448,26 20,26 C20.552,26 21,25.552 21,25 C21,24.448 20.552,24 20,24" sketch:type="MSShapeGroup"></path><path d="M20,28 C19.448,28 19,28.448 19,29 C19,29.552 19.448,30 20,30 C20.552,30 21,29.552 21,29 C21,28.448 20.552,28 20,28" sketch:type="MSShapeGroup"></path><path d="M24,28 C23.448,28 23,28.448 23,29 C23,29.552 23.448,30 24,30 C24.552,30 25,29.552 25,29 C25,28.448 24.552,28 24,28" sketch:type="MSShapeGroup"></path><path d="M24,32 C23.448,32 23,32.448 23,33 C23,33.552 23.448,34 24,34 C24.552,34 25,33.552 25,33 C25,32.448 24.552,32 24,32" sketch:type="MSShapeGroup"></path><path d="M20,32 C19.448,32 19,32.448 19,33 C19,33.552 19.448,34 20,34 C20.552,34 21,33.552 21,33 C21,32.448 20.552,32 20,32" sketch:type="MSShapeGroup"></path><path d="M38,20 C37.448,20 37,20.448 37,21 C37,21.552 37.448,22 38,22 C38.552,22 39,21.552 39,21 C39,20.448 38.552,20 38,20" sketch:type="MSShapeGroup"></path><path d="M42,20 C41.448,20 41,20.448 41,21 C41,21.552 41.448,22 42,22 C42.552,22 43,21.552 43,21 C43,20.448 42.552,20 42,20" sketch:type="MSShapeGroup"></path><path d="M42,24 C41.448,24 41,24.448 41,25 C41,25.552 41.448,26 42,26 C42.552,26 43,25.552 43,25 C43,24.448 42.552,24 42,24" sketch:type="MSShapeGroup"></path><path d="M38,24 C37.448,24 37,24.448 37,25 C37,25.552 37.448,26 38,26 C38.552,26 39,25.552 39,25 C39,24.448 38.552,24 38,24" sketch:type="MSShapeGroup"></path><path d="M38,28 C37.448,28 37,28.448 37,29 C37,29.552 37.448,30 38,30 C38.552,30 39,29.552 39,29 C39,28.448 38.552,28 38,28" sketch:type="MSShapeGroup"></path><path d="M42,28 C41.448,28 41,28.448 41,29 C41,29.552 41.448,30 42,30 C42.552,30 43,29.552 43,29 C43,28.448 42.552,28 42,28" sketch:type="MSShapeGroup"></path><path d="M42,32 C41.448,32 41,32.448 41,33 C41,33.552 41.448,34 42,34 C42.552,34 43,33.552 43,33 C43,32.448 42.552,32 42,32" sketch:type="MSShapeGroup"></path><path d="M38,32 C37.448,32 37,32.448 37,33 C37,33.552 37.448,34 38,34 C38.552,34 39,33.552 39,33 C39,32.448 38.552,32 38,32" sketch:type="MSShapeGroup"></path><path d="M46,20 C45.448,20 45,20.448 45,21 C45,21.552 45.448,22 46,22 C46.552,22 47,21.552 47,21 C47,20.448 46.552,20 46,20" sketch:type="MSShapeGroup"></path><path d="M50,20 C49.448,20 49,20.448 49,21 C49,21.552 49.448,22 50,22 C50.552,22 51,21.552 51,21 C51,20.448 50.552,20 50,20" sketch:type="MSShapeGroup"></path><path d="M50,24 C49.448,24 49,24.448 49,25 C49,25.552 49.448,26 50,26 C50.552,26 51,25.552 51,25 C51,24.448 50.552,24 50,24" sketch:type="MSShapeGroup"></path><path d="M46,24 C45.448,24 45,24.448 45,25 C45,25.552 45.448,26 46,26 C46.552,26 47,25.552 47,25 C47,24.448 46.552,24 46,24" sketch:type="MSShapeGroup"></path><path d="M46,28 C45.448,28 45,28.448 45,29 C45,29.552 45.448,30 46,30 C46.552,30 47,29.552 47,29 C47,28.448 46.552,28 46,28" sketch:type="MSShapeGroup"></path><path d="M50,28 C49.448,28 49,28.448 49,29 C49,29.552 49.448,30 50,30 C50.552,30 51,29.552 51,29 C51,28.448 50.552,28 50,28" sketch:type="MSShapeGroup"></path><path d="M50,32 C49.448,32 49,32.448 49,33 C49,33.552 49.448,34 50,34 C50.552,34 51,33.552 51,33 C51,32.448 50.552,32 50,32" sketch:type="MSShapeGroup"></path><path d="M46,32 C45.448,32 45,32.448 45,33 C45,33.552 45.448,34 46,34 C46.552,34 47,33.552 47,33 C47,32.448 46.552,32 46,32" sketch:type="MSShapeGroup"></path><path d="M34,20 L28,20 C27.448,20 27,20.447 27,21 C27,21.553 27.448,22 28,22 L34,22 C34.552,22 35,21.553 35,21 C35,20.447 34.552,20 34,20" sketch:type="MSShapeGroup"></path><path d="M34,24 L28,24 C27.448,24 27,24.447 27,25 C27,25.553 27.448,26 28,26 L34,26 C34.552,26 35,25.553 35,25 C35,24.447 34.552,24 34,24" sketch:type="MSShapeGroup"></path><path d="M34,28 L28,28 C27.448,28 27,28.447 27,29 C27,29.553 27.448,30 28,30 L34,30 C34.552,30 35,29.553 35,29 C35,28.447 34.552,28 34,28" sketch:type="MSShapeGroup"></path><path d="M34,32 L28,32 C27.448,32 27,32.447 27,33 C27,33.553 27.448,34 28,34 L34,34 C34.552,34 35,33.553 35,33 C35,32.447 34.552,32 34,32" sketch:type="MSShapeGroup"></path><path d="M59.682,46 L2.318,46 C1.591,46 1,46.592 1,47.318 L1,54.682 C1,55.408 1.591,56 2.318,56 L59.682,56 C60.409,56 61,55.408 61,54.682 L61,47.318 C61,46.592 60.409,46 59.682,46 L59.682,46 Z M35,53 L27,53 C25.346,53 24,51.654 24,50 C24,49.447 24.448,49 25,49 C25.552,49 26,49.447 26,50 C26,50.552 26.449,51 27,51 L35,51 C35.551,51 36,50.552 36,50 C36,49.447 36.448,49 37,49 C37.552,49 38,49.447 38,50 C38,51.654 36.654,53 35,53 L35,53 Z" sketch:type="MSShapeGroup"></path></g></g></svg>