<svg height='300px' width='300px'  fill="#FFFFFF" xmlns="http://www.w3.org/2000/svg" xmlns:xlink="http://www.w3.org/1999/xlink" version="1.1" x="0px" y="0px" viewBox="0 0 100 100" enable-background="new 0 0 100 100" xml:space="preserve"><g><path d="M7.75,6.75v87.099l7.076-3.833l3.768,3.339l5.309-3.897l4.163,3.912l5.283-3.835l5.483,3.825l4.386-4.18l4.946,4.191   l5.468-4.402l4.902,4.33l5.954-3.646l5.387,3.631l4.973-3.729l5.194,3.779l4.564-3.794l7.146,4.466V6.75H7.75z M89.25,89.495   l-4.854-3.034l-4.457,3.706l-5.116-3.721l-5.027,3.771l-5.244-3.535l-5.749,3.52l-5.098-4.502l-5.501,4.43l-5.085-4.309   l-4.532,4.32l-5.266-3.675l-5.05,3.665l-4.171-3.92l-5.357,3.935l-3.566-3.161l-4.924,2.667V9.25h79V89.495z"></path><path d="M85.75,12.75h-72V28h72V12.75z M83.25,25.5h-67V15.25h67V25.5z"></path><rect x="15" y="31.5" width="34.536" height="2.5"></rect><rect x="15" y="36.5" width="34.536" height="2.5"></rect><rect x="15" y="41.5" width="34.536" height="2.5"></rect><rect x="15" y="46.5" width="34.536" height="2.5"></rect><rect x="15" y="51.5" width="34.536" height="2.5"></rect><rect x="15" y="66.5" width="34.536" height="2.5"></rect><rect x="15" y="71.5" width="34.536" height="2.5"></rect><rect x="15" y="76.5" width="34.536" height="2.5"></rect><path d="M70.154,57.975c-6.906,0-12.525,5.62-12.525,12.527c0,6.905,5.619,12.523,12.525,12.523S82.68,77.407,82.68,70.502   C82.68,63.595,77.061,57.975,70.154,57.975z M70.154,80.525c-5.528,0-10.025-4.496-10.025-10.023   c0-5.529,4.497-10.027,10.025-10.027S80.18,64.973,80.18,70.502C80.18,76.029,75.683,80.525,70.154,80.525z"></path><path d="M71.907,69.488h-3.813c-0.249,0-0.451-0.202-0.451-0.451v-0.283c0-0.248,0.202-0.449,0.451-0.449h5.947v-2.5h-2.573v-2.338   h-2.5v2.338h-0.874c-1.627,0-2.951,1.323-2.951,2.949v0.283c0,1.627,1.324,2.951,2.951,2.951h3.813   c0.249,0,0.451,0.201,0.451,0.449v0.283c0,0.248-0.202,0.449-0.451,0.449h-5.948v2.5h3.009v2.338h2.5V75.67h0.439   c1.627,0,2.951-1.323,2.951-2.949v-0.283C74.858,70.812,73.534,69.488,71.907,69.488z"></path><rect x="56.379" y="31.5" width="2.5" height="22.5"></rect><rect x="61.379" y="31.5" width="2.5" height="22.5"></rect><rect x="66.379" y="31.5" width="2.5" height="22.5"></rect><rect x="71.379" y="31.5" width="2.5" height="22.5"></rect><rect x="76.379" y="31.5" width="2.5" height="22.5"></rect><rect x="81.379" y="31.5" width="2.5" height="22.5"></rect><path d="M15.25,55.75v8.5h34.183v-8.5H15.25z M46.933,61.75H17.75v-3.5h29.183V61.75z"></path></g></svg>