<svg height='300px' width='300px'  fill="#FFFFFF" xmlns="http://www.w3.org/2000/svg" viewBox="0 0 64 64" x="0px" y="0px"><title>12-Goods</title><g data-name="12-Goods"><rect x="18" y="47" width="2" height="4"></rect><path d="M33,60H1a1,1,0,0,1-1-1V30a1,1,0,0,1,1-1H33a1,1,0,0,1,1,1V59A1,1,0,0,1,33,60ZM2,58H32V31H2Z"></path><path d="M23,52H11a1,1,0,0,1-1-1V47a1,1,0,0,1,1-1H23a1,1,0,0,1,1,1v4A1,1,0,0,1,23,52ZM12,50H22V48H12Z"></path><rect x="10" y="54" width="14" height="2"></rect><path d="M21,43a1,1,0,0,1-.707-.293L17,39.414l-3.293,3.293A1,1,0,0,1,12,42V30a1,1,0,0,1,1-1h8a1,1,0,0,1,1,1V42a1,1,0,0,1-.617.924A.987.987,0,0,1,21,43Zm-4-6a1,1,0,0,1,.707.293L20,39.586V31H14v8.586l2.293-2.293A1,1,0,0,1,17,37Z"></path><rect x="13" y="33" width="8" height="2"></rect><path d="M63,60H33a1,1,0,0,1-1-1V39a1,1,0,0,1,1-1H63a1,1,0,0,1,1,1V59A1,1,0,0,1,63,60ZM34,58H62V40H34Z"></path><path d="M52,52a1,1,0,0,1-.707-.293L48,48.414l-3.293,3.293A1,1,0,0,1,43,51V39a1,1,0,0,1,1-1h8a1,1,0,0,1,1,1V51a1,1,0,0,1-.617.924A.987.987,0,0,1,52,52Zm-4-6a1,1,0,0,1,.707.293L51,48.586V40H45v8.586l2.293-2.293A1,1,0,0,1,48,46Z"></path><rect x="44" y="42" width="8" height="2"></rect><path d="M33,31H9a1,1,0,0,1-1-1V10A1,1,0,0,1,9,9H33a1,1,0,0,1,1,1V30A1,1,0,0,1,33,31ZM10,29H32V11H10Z"></path><path d="M25,23a1,1,0,0,1-.707-.293L21,19.414l-3.293,3.293A1,1,0,0,1,16,22V10a1,1,0,0,1,1-1h8a1,1,0,0,1,1,1V22a1,1,0,0,1-1,1Zm-4-6a1,1,0,0,1,.707.293L24,19.586V11H18v8.586l2.293-2.293A1,1,0,0,1,21,17Z"></path><rect x="17" y="13" width="8" height="2"></rect><path d="M47,18a1,1,0,0,1-.707-.293L43,14.414l-3.293,3.293A1,1,0,0,1,38,17V5a1,1,0,0,1,1-1h8a1,1,0,0,1,1,1V17a1,1,0,0,1-1,1Zm-4-6a1,1,0,0,1,.707.293L46,14.586V6H40v8.586l2.293-2.293A1,1,0,0,1,43,12Z"></path><rect x="39" y="8" width="8" height="2"></rect><path d="M53,40H33a1,1,0,0,1-1-1V5a1,1,0,0,1,1-1H53a1,1,0,0,1,1,1V39A1,1,0,0,1,53,40ZM34,38H52V6H34Z"></path><path d="M45.293,26.707,43,24.414l-2.293,2.293-1.414-1.414,3-3a1,1,0,0,1,1.414,0l3,3Z"></path><rect x="42" y="23" width="2" height="12"></rect><rect x="16" y="25" width="10" height="2"></rect><rect x="58" y="54" width="2" height="2"></rect><rect x="58" y="50" width="2" height="2"></rect><rect x="44" y="54" width="9" height="2"></rect></g></svg>