<?xml version="1.0" encoding="utf-8"?>
<!-- Generator: Adobe Illustrator 24.1.1, SVG Export Plug-In . SVG Version: 6.00 Build 0)  -->
<svg version="1.1" id="Layer_1" xmlns="http://www.w3.org/2000/svg" xmlns:xlink="http://www.w3.org/1999/xlink" x="0px" y="0px"
	 viewBox="0 0 300 300" style="enable-background:new 0 0 300 300;" xml:space="preserve">
<style type="text/css">
	.st0{fill:#FFFFFF;}
</style>
<g>
	<path class="st0" d="M202.8,245.1h68.4c-0.3-33-3.3-66.3-35.1-68.4c-14.1,10.8-26.7,17.4-39,19.8c-2.4-7.5-6.3-14.4-11.4-20.1
		c12.6,0.6,24.9-6.6,43.2-21c68.7,0,63.6,59.7,63.6,110.7h-89.7c0-6.9,0-8.1,0-9.3C202.8,252.9,202.8,249,202.8,245.1z"/>
	<path class="st0" d="M186.9,33.9c34.8,0,63.3,28.5,63.3,63.3s-28.5,63.3-63.3,63.3c-12,0-23.4-3.3-32.7-9.3
		c3.9-5.7,6.9-12.3,9-19.5c6.9,4.8,15,7.5,24,7.5c23.4,0,42.3-18.9,42.3-42.3s-18.9-42.3-42.3-42.3c-15.3,0-28.8,8.1-36.3,20.4
		c-1.5-1.8-2.7-3.3-4.5-4.8c-3.6-3.6-7.5-6.6-11.7-9.3C146.1,44.7,165.3,33.9,186.9,33.9z"/>
	<path class="st0" d="M26.4,247.2h150.3c-0.3-29.4-3-59.1-31.5-60.9c-32.4,24.9-55.2,24.9-87.6,0C29.1,188.1,26.7,217.8,26.4,247.2z
		 M7.5,266.1c0-45.3-5.1-98.7,56.4-98.7c31.8,25.2,43.2,25.2,75,0c61.5,0,56.7,53.1,56.7,98.7C132.9,266.1,70.2,266.1,7.5,266.1z"/>
	<path class="st0" d="M101.4,59.1c31.2,0,56.4,25.2,56.4,56.4s-25.2,56.4-56.4,56.4S45,146.7,45,115.5C45,84.6,70.2,59.1,101.4,59.1
		z M101.4,78c-20.7,0-37.5,16.8-37.5,37.5S80.7,153,101.4,153s37.5-16.8,37.5-37.5S122.1,78,101.4,78z"/>
</g>
</svg>
