<svg xmlns="http://www.w3.org/2000/svg" width="42" height="54" viewBox="0 0 42 54">
  <g>
    <path fill="rgb(0,0,0)" fill-rule="evenodd" d="M31 0H5C2.2399292.0032959.0032959 2.23999023 0 5v44c.0032959 2.76000977 2.2399292 4.9967041 5 5h26c2.7600708-.0032959 4.9967041-2.23999023 5-5V38.59997559l4.4119873 3.20898437c.30426026.2211914.70678711.25292969 1.04193116.08215332C41.7890625 41.72045898 42.00006104 41.37609863 42 41V13c0-1.65686035-1.34313965-3-3-3h-3V5c-.0032959-2.76000977-2.2399292-4.9967041-5-5zM6.38201904 2H5C3.34313965 2 2 3.34313965 2 5v39h32v-4.67297363l-3.4119873 2.4819336c-.35058594.2548828-.82543946.2548828-1.1760254 0L24.5 38.2359619l-4.9119873 3.57299805c-.30426026.2211914-.70678711.25292969-1.04193116.08215332C18.2109375 41.72045898 17.99993896 41.37609863 18 41V13c0-1.65686035 1.34313965-3 3-3h13V5c0-1.65686035-1.34313965-3-3-3h-1.38201904l-1.51800537 3.04699707C27.4099121 6.73388672 25.81866455 7.88000488 24 8H12c-1.8168335-.12182617-3.40570068-1.26757813-4.0949707-2.95300293L6.38201904 2zm20.99993897 0l-1.07598877 2.1529541C25.9407959 5.14978027 25.05236816 5.86132813 24 6H12c-1.0524292-.13867188-1.9407959-.85021973-2.30603027-1.8470459L8.61798096 2H27.381958zM40 39.03601074V13c0-.5522461-.44769287-1-1-1H21c-.55230713 0-1 .4477539-1 1v26.03601074l3.9119873-2.8449707c.35058594-.25488281.82543946-.25488281 1.1760254 0L30 39.76403809l4.9119873-3.57299805c.35058594-.25488281.82543946-.25488281 1.1760254 0L40 39.03601074zM5 52c-1.65686035 0-3-1.34313965-3-3v-3h32v3c0 1.65686035-1.34313965 3-3 3H5z"/>
    <path fill="rgb(0,0,0)" fill-rule="evenodd" d="M20 48h-4c-.55228475 0-1 .44771525-1 1s.44771525 1 1 1h4c.55228475 0 1-.44771525 1-1s-.44771525-1-1-1z"/>
    <path fill="rgb(0,0,0)" fill-rule="evenodd" d="M6 16h10c.55228475 0 1-.44771525 1-1s-.44771525-1-1-1H6c-.55228475 0-1 .44771525-1 1s.44771525 1 1 1z"/>
    <path fill="rgb(0,0,0)" fill-rule="evenodd" d="M16 19H9c-.55228475 0-1 .44771525-1 1s.44771525 1 1 1h7c.55228475 0 1-.44771525 1-1s-.44771525-1-1-1z"/>
    <path fill="rgb(0,0,0)" fill-rule="evenodd" d="M16 24H7c-.55228475 0-1 .44771525-1 1s.44771525 1 1 1h9c.55228475 0 1-.44771525 1-1s-.44771525-1-1-1z"/>
    <path fill="rgb(0,0,0)" fill-rule="evenodd" d="M16 29h-6c-.55228475 0-1 .44771525-1 1s.44771525 1 1 1h6c.55228475 0 1-.44771525 1-1s-.44771525-1-1-1z"/>
    <path fill="rgb(0,0,0)" fill-rule="evenodd" d="M16 34h-3c-.55228475 0-1 .44771525-1 1s.44771525 1 1 1h3c.55228475 0 1-.44771525 1-1s-.44771525-1-1-1z"/>
    <path fill="rgb(0,0,0)" fill-rule="evenodd" d="M26 23c-.55228475 0-1-.44771525-1-1s-.44771525-1-1-1-1 .44771525-1 1c.0052514 1.26678543.80564913 2.39374545 2 2.816V25c0 .55228475.44771525 1 1 1s1-.44771525 1-1v-.184c1.37654748-.48485233 2.2026937-1.89184415 1.95538732-3.33017801C28.70808095 20.04748812 27.45943726 18.99723459 26 19c-.55228475 0-1-.44771525-1-1s.44771525-1 1-1 1 .44771525 1 1 .44771525 1 1 1 1-.44771525 1-1c-.0052514-1.26678543-.80564913-2.39374545-2-2.816V15c0-.55228475-.44771525-1-1-1s-1 .44771525-1 1v.184c-1.37654748.48485233-2.2026937 1.89184415-1.95538732 3.33017801C23.29191905 19.95251188 24.54056274 21.00276541 26 21c.55228475 0 1 .44771525 1 1s-.44771525 1-1 1z"/>
    <path fill="rgb(0,0,0)" fill-rule="evenodd" d="M36 27H24c-.55228475 0-1 .44771525-1 1s.44771525 1 1 1h12c.55228475 0 1-.44771525 1-1s-.44771525-1-1-1z"/>
    <path fill="rgb(0,0,0)" fill-rule="evenodd" d="M36 31H24c-.55228475 0-1 .44771525-1 1s.44771525 1 1 1h12c.55228475 0 1-.44771525 1-1s-.44771525-1-1-1z"/>
    <path fill="rgb(0,0,0)" fill-rule="evenodd" d="M36 19h-5c-.55228475 0-1 .44771525-1 1s.44771525 1 1 1h5c.55228475 0 1-.44771525 1-1s-.44771525-1-1-1z"/>
    <path fill="rgb(0,0,0)" fill-rule="evenodd" d="M30 16c0 .55228475.44771525 1 1 1h5c.55228475 0 1-.44771525 1-1s-.44771525-1-1-1h-5c-.55228475 0-1 .44771525-1 1z"/>
    <path fill="rgb(0,0,0)" fill-rule="evenodd" d="M36 23h-5c-.55228475 0-1 .44771525-1 1s.44771525 1 1 1h5c.55228475 0 1-.44771525 1-1s-.44771525-1-1-1z"/>
  </g>
</svg>
