<?xml version="1.0" encoding="utf-8"?>
<!-- Generator: Adobe Illustrator 24.1.1, SVG Export Plug-In . SVG Version: 6.00 Build 0)  -->
<svg version="1.1" id="Layer_1" xmlns="http://www.w3.org/2000/svg" xmlns:xlink="http://www.w3.org/1999/xlink" x="0px" y="0px"
	 viewBox="0 0 45 41.2" style="enable-background:new 0 0 45 41.2;" xml:space="preserve">
<style type="text/css">
	.st0{clip-path:url(#SVGID_2_);}
</style>
<g>
	<path d="M11.1,11.8h14.5c0.3,0,0.5-0.2,0.5-0.5c0-0.3-0.2-0.5-0.5-0.5H11.1c-0.3,0-0.5,0.2-0.5,0.5C10.5,11.7,10.8,11.8,11.1,11.8
		L11.1,11.8z"/>
	<path d="M11.1,22h14.5c0.3,0,0.5-0.2,0.5-0.5c0-0.3-0.2-0.5-0.5-0.5H11.1c-0.3,0-0.5,0.2-0.5,0.5C10.5,21.8,10.8,22,11.1,22
		L11.1,22z"/>
	<path d="M11.1,16.9h16.7c0.3,0,0.5-0.2,0.5-0.5S28.1,16,27.8,16H11.1c-0.3,0-0.5,0.2-0.5,0.5C10.5,16.7,10.8,16.9,11.1,16.9
		L11.1,16.9z"/>
	<g>
		<g>
			<defs>
				<rect id="SVGID_1_" x="5.5" y="1.5" width="36.4" height="38.1"/>
			</defs>
			<clipPath id="SVGID_2_">
				<use xlink:href="#SVGID_1_"  style="overflow:visible;"/>
			</clipPath>
			<g class="st0">
				<path d="M41.8,13.3c0-0.2-0.2-0.3-0.3-0.4l-1.4-0.8l0.3-0.5c0.3-0.4,0.3-0.8,0.2-1.3s-0.4-0.8-0.8-1l-1.3-0.7
					c-0.8-0.5-1.9-0.2-2.4,0.6l-1.1,1.9V8.1c0-0.2-0.1-0.4-0.2-0.5l-5.8-5.8c-0.1-0.1-0.3-0.2-0.5-0.2H6.1C5.8,1.5,5.5,1.8,5.5,2.2
					V39c0,0.4,0.3,0.6,0.6,0.6h28.3c0.4,0,0.6-0.3,0.6-0.6V20.9l4.5-7.6l0.8,0.5l-3.8,6.6c-0.2,0.3-0.1,0.7,0.3,0.9
					c0.1,0.1,0.2,0.1,0.4,0.1s0.5-0.1,0.5-0.4l4.1-7.1C41.9,13.7,41.9,13.5,41.8,13.3L41.8,13.3z M37.4,9.9c0.1-0.2,0.4-0.3,0.5-0.2
					l1.3,0.7c0.1,0.1,0.2,0.2,0.2,0.3c0,0.1,0,0.2,0,0.3l-3.3,5.6l-2-1.2L37.4,9.9z M27.9,30.9l-2-1.2l7.7-13.4l2,1.2L27.9,30.9z
					 M25.1,33.7c-0.1,0-0.2-0.1-0.3-0.2l0.5-2.5l1.5,0.9L25.1,33.7z M33.2,7.7h-4.3V3.5L33.2,7.7z M33.8,38.4h-27V2.8h20.8v5.6
					c0,0.4,0.3,0.6,0.6,0.6h5.6v4.4l-9.4,16.3v0.1v0.1l-0.8,3.5c-0.1,0.3-0.1,0.6,0.3,1l-0.5,1l0,0c-0.4,0-0.6,0-1-0.1
					c0,0-0.1,0-0.3-0.1c0.2-0.2,0.3-0.4,0.4-0.5c0.2-0.5,0-1.3-0.5-1.8c-0.4-0.4-0.8-0.5-1.3-0.5c-0.5,0.1-0.9,0.7-1,1.1
					c-0.1,0.5,0,1,0.4,1.5c-0.5,0-1.2-0.1-1.5-0.2c0,0,0,0-0.1,0c0.3-0.3,0.5-0.5,0.6-0.9c0.2-0.5,0.2-0.9-0.1-1.4
					c-0.3-0.4-0.6-0.6-1.1-0.6s-0.9,0.2-1.1,0.5c-0.4,0.5-0.4,1.4-0.2,1.9c0.1,0.1,0.1,0.3,0.2,0.4c-0.1,0-0.2,0.1-0.3,0.1
					c-0.6,0.2-1.2,0.2-1.6-0.1s-1-0.8-1.3-1.4v-0.1c1.2-0.4,2.5-1.3,3.3-2.5c0.5-0.8,0.6-1.6,0.4-2.5c-0.2-0.5-0.5-0.8-0.9-1.1
					c-0.5-0.3-1.1-0.3-1.6,0c-1.6,0.7-2.4,2.9-2.3,4.6c0,0.1,0,0.4,0.1,0.5c-1.6,0.4-2,0.2-2.1,0.1c-0.1-0.3-0.4-0.4-0.6-0.3
					c-0.3,0.1-0.4,0.4-0.3,0.6c0.4,1.1,2.2,0.7,3.3,0.5c0,0.1,0.1,0.2,0.1,0.3c0.4,0.7,1,1.4,1.6,1.7s1.5,0.4,2.4,0.1
					c0.3-0.1,0.5-0.2,0.6-0.3c0.2,0.2,0.4,0.3,0.6,0.4c0.6,0.2,1.9,0.4,2.9,0.1c0.4,0.2,0.7,0.4,1.2,0.5c0.4,0.1,0.8,0.2,1.4,0.2
					c0.1,0,0.2,0,0.3-0.1c0.1,0,0.1,0,0.2,0c0.2,0,0.5-0.1,0.5-0.4l0.5-1c0.1,0,0.2,0.1,0.3,0.1c0.3,0,0.5-0.1,0.7-0.3l2.6-2.5
					l0.1-0.1l0,0l5.2-8.9L33.8,38.4L33.8,38.4z M21.4,34.3c-0.1,0.2-0.2,0.3-0.4,0.4c-0.4-0.3-0.6-0.5-0.5-1c0-0.1,0.3-0.4,0.4-0.4
					c0,0,0,0,0.1,0c0.1,0,0.2,0.1,0.3,0.2C21.3,33.7,21.4,34.1,21.4,34.3L21.4,34.3z M18,33.4c-0.1,0.3-0.3,0.5-0.5,0.7
					c0-0.1-0.1-0.2-0.1-0.3c-0.1-0.3-0.1-0.7,0.1-1c0.1-0.1,0.2-0.1,0.3-0.1l0,0c0.2,0,0.3,0.1,0.4,0.2C18.1,33.1,18.1,33.2,18,33.4
					L18,33.4z M13.2,32.3c0-0.1,0-0.3,0-0.4c-0.1-1.5,0.5-3.2,1.7-3.7c0.1-0.1,0.3-0.1,0.4-0.1c0.2,0,0.3,0,0.5,0.1
					c0.2,0.1,0.4,0.2,0.5,0.5c0.2,0.5,0.1,1.1-0.3,1.6C15.3,31.2,14.2,31.9,13.2,32.3L13.2,32.3z"/>
			</g>
		</g>
	</g>
</g>
</svg>
