<svg xmlns="http://www.w3.org/2000/svg" width="51" height="44" viewBox="0 0 51 44">
  <g>
    <path fill="rgb(0,0,0)" fill-rule="evenodd" d="M5.90739916 32.97845588l-1.56803952.28546663c.04046557.22805871 1.0536603 5.60945835 6.7694174 7.568011l.51204545-1.52563431c-4.8037269-1.6455616-5.67840509-6.13753218-5.71342333-6.32784332z"/>
    <path fill="rgb(0,0,0)" fill-rule="evenodd" d="M9.23254395 28.25756836c0-3.60803223 2.90490722-6.54370117 6.47521972-6.54370117s6.4753418 2.93566894 6.4753418 6.54370117c0 3.60803223-2.9050293 6.54333496-6.4753418 6.54333496s-6.47521972-2.93530273-6.47521972-6.54333496zm1.59375 0c0 2.71984863 2.18981933 4.93273926 4.8815918 4.93273926 2.69165038 0 4.88146972-2.21289063 4.88146972-4.93273926 0-2.72009277-2.18981934-4.93310547-4.88146973-4.93310547-2.69177246 0-4.8815918 2.2130127-4.8815918 4.93310547z"/>
    <path fill="rgb(0,0,0)" fill-rule="evenodd" d="M16.07299805 27.67346191V26.0222168c.44604492.06469726.86047363.23449707 1.24279785.50964355l.56518555-.80810547c-.56799317-.39245605-1.1706543-.6118164-1.8079834-.65905761v-.44775391h-.55627442v.43920898c-1.06652832.05566407-1.89489746.70056153-1.89489746 1.76989746 0 1.1102295.7446289 1.49243165 1.89489746 1.7697754v1.70410156c-.515625-.08215332-1.01672363-.33666992-1.5036621-.76403809l-.6345215.76403809c.6315918.55615234 1.34423829.87524414 2.1381836.95715332v.64123535h.55627442v-.63232422c1.10375976-.0546875 1.96435547-.68457031 1.96435547-1.7788086 0-1.23876952-.81506348-1.45202636-1.96435547-1.8137207zm-.55627442-.15808105c-.48486328-.1574707-.83422851-.30944824-.83422851-.7947998 0-.44763184.3873291-.68444825.83422851-.72485352v1.51965332zm.55639649 1.2298584v1.58081054c.46435547-.04833984.90405273-.28271484.90405273-.75524902 0-.5111084-.39379883-.67077637-.90405273-.82556152z"/>
    <path fill="rgb(0,0,0)" fill-rule="evenodd" d="M46.6920166 24.8088379l2.19921875-2.45959474-3.78430176-3.82543945-2.43347168 2.22241211c-.77429199-.4506836-1.59680175-.79748535-2.45507812-1.0357666l-.2109375-3.3170166h-5.33361816l-.2093506 3.32336426c-.84362792.23156738-1.65368651.57055664-2.420166 1.01171874l-2.47692872-2.1968994-1.35742187 1.3720703c-1.3145752-1.9736328-3.00695801-3.9892578-5.0510254-6.015625.44506837-.27905273.74475098-.77331543.74475098-1.34057617V10.6817627c0-.8717041-.7019043-1.5810547-1.56408691-1.5810547h-1.21618652l3.3585205-7.951416c-.17980957-.00793458-.41577148-.05480958-.71191406-.11376954-1.28027344-.2545166-3.68725586-.73291016-7.56176758.74047852-2.37329101.90197754-3.81542968 1.20495605-7.4074707-.71435547L6.81408691 0l3.83666993 9.100708H9.4342041c-.8630371 0-1.5649414.7093506-1.5649414 1.5810547v1.86572265c0 .55688477.28796386 1.04492188.71972656 1.32666016-6.33044434 6.2611084-9.1862793 12.30163574-8.4852295 17.97143554.96496583 7.80114747 8.28137208 11.8869629 8.59265137 12.05725098L8.87390137 44H22.8609619l.17663575-.09680176c.10754394-.05822754 2.46630859-1.3638916 4.7088623-3.88183594l1.82092285 1.84033204 2.47924805-2.19958496c.77661133.4420166 1.59680176.7828369 2.44970703 1.01879882L34.66442871 44h5.35314941l.16809083-3.31713867c.87231445-.23901367 1.70495605-.58581543 2.48632812-1.03686524l2.43493652 2.22363282 3.78430176-3.82470704-2.19995117-2.46154785c.44433594-.78637695.78979492-1.6274414 1.03112793-2.51220703L51 32.9017334v-5.41796874l-3.27844238-.1697998c-.24194336-.88708497-.586792-1.7261963-1.02954102-2.50512696zM9.97338867 3.38427733c2.76367188 1.08959961 4.37109375.8203125 6.79589844-.10107422 1.78442383-.6776123 3.15368652-1.0863037 5.43945312-.85449218L19.39099121 9.100708h-7.00756836L9.97338867 3.38427734zm12.33654785 9.13378907V10.6817627c-6.58276367.0177002-12.50866699.02966308-12.87585449.02966308l.0288086 1.83532715c.68041992-.00476074 11.13964843-.02697754 12.8470459-.02868652zm.1369629 29.87133789H9.28942871C8.22949218 41.75 2.46313476 37.99523926 1.68347167 31.6328125c-.66149902-5.39990234 2.34301758-11.2833252 8.93347168-17.49206543h2.43701172l-1.38793945 1.2932129 1.08007812 1.18432616 2.65893555-2.47753906h1.27526855l2.0616455 4.06970215 1.41784669-.73376465-1.6899414-3.3359375h2.64794921c2.48474121 2.34423828 4.48156738 4.66931152 5.94458008 6.9227295l-1.26611328 1.27990722 2.18200683 2.49291992c-.43969726.77624512-.77661132 1.59716797-1.006958 2.45166016l-3.28857422.20324707v5.40307617l3.29089355.20324707c.23339844.86108398.57043457 1.6821289 1.0053711 2.45202637l-2.18200684 2.50158691.82250977.83129883c-1.74621582 1.977417-3.6138916 3.17224121-4.17260743 3.506958zm22.58679199-7.15124512c1.14807129-1.78417969 1.30517578-3.35864258 1.40771484-3.7130127l2.96484375-.15368652v-2.3572998l-2.96411133-.15368653-.12988281-.60046386c-.46264649-2.13342286-1.44458008-3.3125-1.6147461-3.62219239l1.99597169-2.23266601-1.6427002-1.65966797-2.2084961 2.01708984-.51513671-.3413086c-1.76269532-1.16845702-3.29052735-1.31066894-3.62316895-1.40844726l-.19067383-3.00878906H36.1694336l-.19067382 3.01904297c-.30664063.08935547-1.8479004.23718262-3.58740235 1.37658691l-.5065918.3310547-2.2458496-1.99316407-1.65600586 1.67346191 1.98046875 2.26293946-.33068848.5135498c-.60314941.9366455-1.02185059 1.95690918-1.24511719 3.03320313l-.12451172.60119628-2.98669433.18481446v2.37219238l2.9835205.18481445.12683106.59729004c.2319336 1.09069824.65136719 2.1126709 1.24597168 3.03710938l.33068848.51269531-1.98132325 2.27111816 1.65686036 1.6739502 2.24267578-1.9901123.50427246.3248291c.9407959.60559082 1.96411133 1.03063964 3.04187012 1.26257324l.59924316.12902832.1517334 3.00720215h2.32446289l.15246582-3.00878907.59997558-.12780761c1.10351563-.23474121 2.13769532-.6661377 3.07385254-1.28186035l.5144043-.33813477 2.20690918 2.01513672 1.6427002-1.65966797-1.99438477-2.2307129.33459473-.51940917z"/>
    <path fill="rgb(0,0,0)" fill-rule="evenodd" d="M32.0045166 30.19604492c0-2.97497558 2.39294434-5.39550781 5.33361817-5.39550781 2.94396972 0 5.33911132 2.42053223 5.33911132 5.39550781 0 2.97192383-2.3951416 5.38964844-5.33911132 5.38964844-2.94067383 0-5.33361817-2.41772461-5.33361817-5.38964844zm1.59375.00012207c0 2.08398438 1.67773438 3.77905274 3.73999024 3.77905274 2.06530761 0 3.74536132-1.69506836 3.74536132-3.77905274 0-2.0871582-1.6800537-3.78503418-3.74536132-3.78503418-2.06225586 0-3.73999024 1.69787598-3.73999024 3.78503418z"/>
  </g>
</svg>
