<svg xmlns="http://www.w3.org/2000/svg" width="49" height="49.003" viewBox="0 0 49 49.003">
  <g>
    <path fill="rgb(0,0,0)" fill-rule="evenodd" d="M2.4500122 20.42712402c.2874756 0 .5602417-.05883789.8166504-.15026855v9.13134765c0 1.57580567 1.28216552 2.85754395 2.8583374 2.85754395.800354 0 1.52227783-.33227539 2.04168701-.86376953.51940918.53149414 1.24133301.86376953 2.04162598.86376953 1.57617187 0 2.8583374-1.28173828 2.8583374-2.85754395v-9.13134765c.25646973.09143066.52923584.15026855.81671143.15026855 1.35076904 0 2.44995117-1.09899902 2.44995117-2.44946289v-4.8988037c0-3.09594727-2.16741944-5.68981934-5.06329346-6.35852052C11.87268066 6.00830078 12.25 5.10046387 12.25 4.09777832c0-2.25097656-1.8317871-4.08227539-4.08331299-4.08227539-2.25158691 0-4.08337402 1.83129883-4.08337402 4.08227539 0 1.00268555.37731933 1.91052246.9800415 2.6225586C2.16741943 7.38903808 0 9.98291015 0 13.07885741v4.89880371c0 1.35046387 1.09924316 2.4494629 2.4500122 2.4494629zM8.16668702 1.6484375c1.35076904 0 2.4500122 1.09899902 2.4500122 2.44934082 0 1.35046387-1.09924316 2.4494629-2.4500122 2.4494629s-2.4500122-1.09899903-2.4500122-2.4494629c0-1.3503418 1.09924316-2.44934082 2.4500122-2.44934082zM6.53338623 8.18017578c-2.70239258 0-4.90002441 2.19714356-4.90002441 4.89880371v4.89880371c0 .4498291.36669922.81640625.81665039.81640625.4500122 0 .81671142-.36657715.81671142-.81640625v-5.71533203h1.63330078v17.14575196c0 .67529296.54962159 1.22473144 1.22497559 1.22473144.67541504 0 1.22503662-.54943848 1.22503662-1.22473144V18.79418945H8.9833374v10.61401367c0 .67529297.54962158 1.22473145 1.22503662 1.22473145.675354 0 1.22497559-.54943848 1.22497559-1.22473144V12.26245117h1.63336182v5.71533203c0 .4498291.36663818.81640625.81665039.81640625.4500122 0 .81665039-.36657715.81665039-.81640625v-4.8988037c0-2.70166016-2.19763184-4.89880372-4.89996338-4.89880372h-3.2666626z"/>
    <path fill="rgb(0,0,0)" fill-rule="evenodd" d="M14.7000122 25.32592773v6.93994141c0 1.57580566 1.28216553 2.85766602 2.8583374 2.85766602.44018556 0 .8526001-.10864258 1.2249756-.2866211v10.90063477c0 1.80102539 1.46514892 3.26574707 3.2666626 3.26574707.9800415 0 1.85058593-.44250488 2.4500122-1.1282959.59942627.68579102 1.47003174 1.1282959 2.4500122 1.1282959 1.80157471 0 3.2666626-1.46472168 3.2666626-3.26574707V34.83691406c.3723755.17797852.78479004.2866211 1.2249756.2866211 1.57617187 0 2.8583374-1.28186036 2.8583374-2.85766602v-6.9399414c0-3.67407227-2.71459962-6.71875-6.24255372-7.25512696.82971192-.87854004 1.34259033-2.05822754 1.34259033-3.35888672 0-2.70166015-2.19763183-4.8988037-4.90002441-4.8988037-2.70233154 0-4.89996338 2.19714355-4.89996338 4.8988037 0 1.30065918.51281738 2.48034668 1.34259033 3.35888672-3.52801513.53637695-6.24261474 3.58105469-6.24261474 7.25512695zM24.5 11.44604493c1.8015747 0 3.2666626 1.46472167 3.2666626 3.26586913S26.3015747 17.9777832 24.5 17.9777832s-3.2666626-1.46472168-3.2666626-3.26586914S22.6984253 11.44604492 24.5 11.44604492zm8.16662598 13.87976073c0-3.15148925-2.56433106-5.71520996-5.7166748-5.71520996h-4.89996339c-3.15234375 0-5.7166748 2.5637207-5.7166748 5.71520996v6.93994141c0 .67529297.54962158 1.22473145 1.22497558 1.22473145.67541504 0 1.22503663-.54943848 1.22503663-1.22473145v-7.75634766h1.63330078v21.22802735c0 .9005127.73254394 1.63293457 1.63336181 1.63293457.90075684 0 1.63330078-.73242188 1.63330078-1.63293457V33.49047852h1.63336182v12.24694824c0 .9005127.73254395 1.63293457 1.63330078 1.63293457.90081787 0 1.63336182-.73242188 1.63336182-1.63293457V24.5093994h1.63336181v7.75634766c0 .67529297.54956055 1.22473145 1.2249756 1.22473145.675354 0 1.22497558-.54943848 1.22497558-1.22473145v-6.9399414z"/>
    <path fill="rgb(0,0,0)" fill-rule="evenodd" d="M43.93670654 6.72033691c.60266114-.71203613.97998047-1.61987304.97998047-2.62255859 0-2.25097656-1.8317871-4.08227539-4.08331299-4.08227539C38.58178711.01550293 36.75 1.84680176 36.75 4.09777832c0 1.00268555.37731934 1.91052246.9800415 2.6225586-2.89593505.66870117-5.06335449 3.26257324-5.06335449 6.3585205v4.89880371c0 1.35046387 1.09924317 2.4494629 2.4500122 2.4494629.2874756 0 .5602417-.0588379.8166504-.15026856v9.13134765c0 1.57580567 1.28216553 2.85754395 2.8583374 2.85754395.800354 0 1.52227783-.33227539 2.04168701-.86376953.51940918.53149414 1.24133301.86376953 2.04162598.86376953 1.57617188 0 2.8583374-1.28173828 2.8583374-2.85754395v-9.13134765c.25646973.09143066.52923584.15026855.81671143.15026855C47.90075683 20.42712402 49 19.328125 49 17.97766113v-4.8988037c0-3.09594727-2.16741943-5.68981934-5.06329346-6.35852052zM40.83337402 1.6484375c1.35076905 0 2.45001221 1.09899902 2.45001221 2.44934082 0 1.35046387-1.09924316 2.4494629-2.4500122 2.4494629-1.35076905 0-2.45001221-1.09899903-2.45001221-2.4494629 0-1.3503418 1.09924316-2.44934082 2.4500122-2.44934082zm5.71661377 17.14575195c.45001221 0 .8166504-.36657715.8166504-.81640625v-4.8988037c0-2.70166016-2.19763184-4.89880372-4.89996339-4.89880372h-3.2666626c-2.70239257 0-4.9000244 2.19714356-4.9000244 4.89880371v4.89880371c0 .4498291.36669921.81640625.81665038.81640625.45001221 0 .81671143-.36657715.81671143-.81640625v-5.71533203h1.63330078v17.14575196c0 .67529296.54962158 1.22473144 1.22497559 1.22473144.67541504 0 1.22503662-.54943848 1.22503662-1.22473144V18.79418945h1.63330078v10.61401367c0 .67529297.54962158 1.22473145 1.22503662 1.22473145.675354 0 1.22497559-.54943848 1.22497559-1.22473144V12.26245117h1.63336181v5.71533203c0 .4498291.36663819.81640625.8166504.81640625z"/>
    <path fill="rgb(0,0,0)" fill-rule="evenodd" d="M23.64576667 2.81108332l.03756666 5.37477825 1.63333334-.01143049L25.2791 2.79475405l1.91426667 1.88439742L28.33915 3.51569119 25.02185.2498378C24.8675.0979756 24.62331667 0 24.44283333.0155128c-.21641666.00163293-.42385.0889945-.57575.24330608L20.65105 3.5246723l1.16456667 1.14549808 1.83015-1.85908705z"/>
    <rect width="2.31" height="1.633" x="32.328" y="40.839" fill="rgb(0,0,0)" rx="0" ry="0" transform="rotate(-45.000016 33.48276167 41.6550621)"/>
    <rect width="2.31" height="1.633" x="35.595" y="37.573" fill="rgb(0,0,0)" rx="0" ry="0" transform="rotate(-45.000016 36.74942833 38.38929034)"/>
    <rect width="2.31" height="1.633" x="38.861" y="34.307" fill="rgb(0,0,0)" rx="0" ry="0" transform="rotate(-45.000016 40.016095 35.12343693)"/>
    <rect width="1.633" height="2.309" x="14.7" y="40.501" fill="rgb(0,0,0)" rx="0" ry="0" transform="rotate(-45.000016 15.51625833 41.65498046)"/>
    <rect width="1.633" height="2.309" x="11.433" y="37.235" fill="rgb(0,0,0)" rx="0" ry="0" transform="rotate(-45.000016 12.24967333 38.38912705)"/>
    <rect width="1.633" height="2.309" x="8.166" y="33.969" fill="rgb(0,0,0)" rx="0" ry="0" transform="rotate(-45.000016 8.98300667 35.12327364)"/>
  </g>
</svg>
