<svg xmlns="http://www.w3.org/2000/svg" width="45" height="45" viewBox="0 0 45 45">
  <g>
    <path fill="rgb(0,0,0)" fill-rule="evenodd" d="M19.86328125 18.28125h-4.921875c-.38830566 0-.703125-.31481934-.703125-.703125v-2.33789063c0-.38830566.31481934-.703125.703125-.703125h4.921875c.38830566 0 .703125.31481934.703125.703125V17.578125c0 .38830566-.31481934.703125-.703125.703125zm-.703125-2.33789063h-3.515625V16.875h3.515625v-.93164063z"/>
    <path fill="rgb(0,0,0)" fill-rule="evenodd" d="M33.92578125 15.24023438c0-.38830567.31481934-.703125.703125-.703125h4.921875c.38830566 0 .703125.31481933.703125.703125V17.578125c0 .38830566-.31481934.703125-.703125.703125h-4.921875c-.38830566 0-.703125-.31481934-.703125-.703125v-2.33789063zm1.40625 1.63476562h3.515625v-.93164063h-3.515625V16.875z"/>
    <path fill="rgb(0,0,0)" fill-rule="evenodd" d="M14.94140625 34.22460938h4.921875c.38830566 0 .703125.31481933.703125.703125V37.265625c0 .38830566-.31481934.703125-.703125.703125h-4.921875c-.38830566 0-.703125-.31481934-.703125-.703125v-2.33789063c0-.38830566.31481934-.703125.703125-.703125zm.703125 2.33789062h3.515625v-.93164063h-3.515625V36.5625z"/>
    <path fill="rgb(0,0,0)" fill-rule="evenodd" d="M34.62890625 34.22460938h4.921875c.38830566 0 .703125.31481933.703125.703125V37.265625c0 .38830566-.31481934.703125-.703125.703125h-4.921875c-.38830566 0-.703125-.31481934-.703125-.703125v-2.33789063c0-.38830566.31481934-.703125.703125-.703125zm.703125 2.33789062h3.515625v-.93164063h-3.515625V36.5625z"/>
    <path fill="rgb(0,0,0)" fill-rule="evenodd" d="M43.06640625 39.375H44.296875c.38830566 0 .703125.31481934.703125.703125v2.8125c0 .38830566-.31481934.703125-.703125.703125h-1.58203125v.703125c0 .38830566-.31481934.703125-.703125.703125h-4.21875c-.38830566 0-.703125-.31481934-.703125-.703125v-.703125h-11.6015625v.703125c0 .38830566-.31481934.703125-.703125.703125h-4.21875c-.38830566 0-.703125-.31481934-.703125-.703125v-.703125h-11.953125v.703125c0 .38830566-.31481934.703125-.703125.703125h-4.21875c-.38830566 0-.703125-.31481934-.703125-.703125v-.703125H.703125C.31481934 43.59375 0 43.27893066 0 42.890625v-2.8125c0-.38830566.31481934-.703125.703125-.703125h1.58203125V.703125c0-.38830566.31481934-.703125.703125-.703125h39.375c.38830566 0 .703125.31481934.703125.703125V39.375zm-39.375-37.96875h5.625V11.25c.00012207.26965332.15441895.51550293.3972168.6328125.24328613.11877441.53320312.08728027.74536132-.08081055l2.37304688-1.89147949 2.37304688 1.8914795c.12609863.09680175.2803955.14990234.43945312.15112304.10595703-.00012207.21044922-.02416992.3059082-.0703125.24279785-.11730957.39709473-.36315918.3972168-.6328125V1.40625h5.625V19.6875h-18.28125V1.40625zm11.25 0h-4.21875v8.38476563l1.66992188-1.32885743c.25683593-.20568847.6220703-.20568847.87890624 0l1.66992188 1.32885743V1.40625zm8.4375 0V19.6875h18.28125V1.40625h-5.625V11.25c-.00012207.26965332-.15441895.51550293-.3972168.6328125-.09545898.04614258-.19995117.07019043-.3059082.0703125-.15905762-.0012207-.3133545-.05432129-.43945313-.15112305l-2.37304687-1.89147949-2.37304688 1.8914795c-.2121582.16809081-.50207519.19958495-.74536132.08081054-.24279785-.11730957-.39709473-.36315918-.3972168-.6328125V1.40625h-5.625zm7.03125 0h4.21875v8.38476563L32.95898437 8.4621582c-.25683593-.20568847-.6220703-.20568847-.87890625 0l-1.66992187 1.32885743V1.40625zm-26.71875 19.6875h5.625v9.84375c.00012207.26965332.15441895.51550293.3972168.6328125.24328613.11877441.53320312.08728027.74536132-.08081055l2.37304688-1.89147949 2.37304688 1.8914795c.12609863.09680175.2803955.14990234.43945312.15112304.10595703-.00012207.21044922-.02416992.3059082-.0703125.24279785-.11730957.39709473-.36315918.3972168-.6328125v-9.84375h5.625V39.375h-18.28125V21.09375zm11.25 8.38476563V21.09375h-4.21875v8.38476563l1.66992188-1.32885743c.25683593-.20568847.6220703-.20568847.87890624 0l1.66992188 1.32885742zm14.0625-8.38476563h-5.625V39.375h18.28125V21.09375h-5.625v9.84375c-.00012207.26965332-.15441895.51550293-.3972168.6328125-.09545898.04614258-.19995117.07019043-.3059082.0703125-.15905762-.0012207-.3133545-.05432129-.43945313-.15112305l-2.37304687-1.89147949-2.37304688 1.8914795c-.2121582.16809081-.50207519.19958495-.74536132.08081054-.24279785-.11730957-.39709473-.36315918-.3972168-.6328125v-9.84375zm1.40625 8.38476563V21.09375h4.21875v8.38476563l-1.66992188-1.32885743c-.25683593-.20568847-.6220703-.20568847-.87890625 0l-1.66992187 1.32885742zM42.01171875 42.1875H43.59375v-1.40625H1.40625v1.40625h1.58203125c.38830566 0 .703125.31481934.703125.703125v.703125h2.8125v-.703125c0-.38830566.31481934-.703125.703125-.703125h13.359375c.38830566 0 .703125.31481934.703125.703125v.703125h2.8125v-.703125c0-.38830566.31481934-.703125.703125-.703125h13.0078125c.38830566 0 .703125.31481934.703125.703125v.703125h2.8125v-.703125c0-.38830566.31481934-.703125.703125-.703125z"/>
  </g>
</svg>
