<svg xmlns="http://www.w3.org/2000/svg" width="45" height="41.244" viewBox="0 0 45 41.244">
  <g>
    <path fill="rgb(0,0,0)" fill-rule="evenodd" d="M38.22177124 16.68103027c.6204834 0 1.20983887.26049805 1.61703491.71447754l4.62640381 5.1809082C44.81002808 22.96166993 45 23.45458985 45 23.96398927v11.39855957c0 .82714844-.6960144 1.5-1.55145264 1.5H41.6860962c-.17834473 2.444458-2.28695679 4.3815918-4.85992432 4.3815918-2.57296752 0-4.68157958-1.9371338-4.85992431-4.3815918H15.9828186c-.17832946 2.444458-2.28697204 4.3815918-4.85975647 4.3815918-2.57295227 0-4.68159484-1.9371338-4.85992431-4.3815918H2.28363037C1.02442932 36.86254883 0 35.8720703 0 34.65466309V19.56970215c0-.18493653.15499878-.33459473.34616089-.33459473.1911621 0 .34614563.1496582.34614563.33459473v9.67956543h27.96122742V12.43115234c0-.18493652.15498352-.33459472.34614563-.33459472.19117736 0 .34614563.1496582.34614563.33459472v4.24987793h8.87594604zm6.08590698 18.68151856c0 .45812988-.38534546.83068847-.85913086.83068847h-1.76254272c-.17926026-2.44335937-2.28756714-4.3798828-4.85983277-4.3798828-2.57226562 0-4.6805725 1.93652343-4.85986328 4.3798828h-3.27061462c.40153503-.39807128.65013123-.94055175.65013123-1.53857421v-17.3043213h8.87594604c.41967773 0 .8183899.17614747 1.0935669.48303223l1.50057983 1.68041993h-6.853302c-.6071167 0-1.10116577.47753906-1.10116577 1.06445312v5.46459961c0 .58691406.49404907 1.06445312 1.10116577 1.06445312h10.34506225v8.25524903zm-10.34503174-8.92456055h10.34506226v-2.47399902c0-.34875489-.13015747-.68603516-.36627197-.95007324l-2.52783203-2.83081055h-7.45095826c-.22549438 0-.4088745.17712402-.4088745.3951416v5.46459961c0 .2178955.18338012.3951416.4088745.3951416zm-5.30911254 8.2166748c0 .84851075-.71546936 1.5386963-1.59506226 1.5386963H15.98274231C15.8034668 33.75 13.69517517 31.81347656 11.12306213 31.81347656c-2.57225036 0-4.6805725 1.93652344-4.85984802 4.37988281H2.28363037c-.87738037 0-1.59132385-.69018554-1.59132385-1.53869628V29.9185791h27.96122742v4.73608399zM6.93795776 36.52893067c0 2.23083496 1.87747193 4.04589844 4.18511963 4.04589844 2.30763245 0 4.18493653-1.81506348 4.18493653-4.04589844 0-2.23120117-1.87730408-4.04626464-4.18493653-4.04626464-2.3076477 0-4.18511963 1.81506347-4.18511963 4.04626464zm25.70336914.00500489c.00286866 2.22851562 1.87896729 4.04089355 4.18484497 4.04089355 2.3074646 0 4.18478394-1.81481933 4.18508912-4.04541015l-.00009156-.00268555c-.00119018-2.23010254-1.87808227-4.04406738-4.18499756-4.04406738-2.30532836 0-4.18103027 1.81152343-4.18478393 4.03967285.00003052.00195312.00119018.0036621.00119018.00561523 0 .0020752-.0012207.00390625-.00125122.00598145z"/>
    <path fill="rgb(0,0,0)" fill-rule="evenodd" d="M34.7472229 36.52893066c0-1.10827636.9326477-2.0098877 2.07894898-2.0098877 1.14630126 0 2.07894897.90161134 2.07894897 2.0098877 0 1.1081543-.9326477 2.00952149-2.07894898 2.00952149-1.14630126 0-2.07894897-.90136719-2.07894897-2.00952149zm.69229126 0c0 .7388916.62200928 1.34020996 1.38665771 1.34020996.76464844 0 1.3866272-.60131835 1.3866272-1.34020996 0-.7392578-.62197876-1.34057617-1.3866272-1.34057617-.76464843 0-1.38665771.60131836-1.38665771 1.34057617z"/>
    <path fill="rgb(0,0,0)" fill-rule="evenodd" d="M9.04411316 36.52893066c0-1.10827636.9326477-2.0098877 2.07894897-2.0098877s2.07878113.90161134 2.07878113 2.0098877c0 1.1081543-.93247986 2.00952149-2.07878113 2.00952149s-2.07894897-.90136719-2.07894897-2.00952149zm.69230652 0c0 .7388916.62199402 1.34020996 1.38664245 1.34020996.7644806 0 1.38647461-.60131835 1.38647461-1.34020996 0-.7392578-.62199402-1.34057617-1.3864746-1.34057617-.76464844 0-1.38664246.60131836-1.38664246 1.34057617z"/>
    <path fill="rgb(0,0,0)" fill-rule="evenodd" d="M20.08166504 27.95898438c-.19116211 0-.34616089-.14978028-.34616089-.3347168V21.2458496c0-.18493652.15499878-.33459473.34616089-.33459473h6.59770203c.1911621 0 .34616088.1496582.34616088.33459473v6.37841797c0 .18493652-.15499878.3347168-.34616088.3347168h-6.59770203zm6.2515564-6.37841797h-5.90541077v5.70910644h5.90541077v-5.70910644z"/>
    <path fill="rgb(0,0,0)" fill-rule="evenodd" d="M11.37406921 27.95898438c-.1911621 0-.34616088-.14978028-.34616088-.3347168V21.2458496c0-.18493652.15499877-.33459473.34616088-.33459473h6.59770203c.19116211 0 .34616089.1496582.34616089.33459473v6.37841797c0 .18493652-.15499878.3347168-.34616089.3347168h-6.59770203zm6.2515564-6.37841797h-5.90541077v5.70910644h5.90541077v-5.70910644z"/>
    <path fill="rgb(0,0,0)" fill-rule="evenodd" d="M2.66647339 27.95898438c-.19116211 0-.34616089-.14978028-.34616089-.3347168V21.2458496c0-.18493652.15499878-.33459473.34616089-.33459473h6.59770203c.1911621 0 .34616088.1496582.34616088.33459473v6.37841797c0 .18493652-.15499878.3347168-.34616088.3347168H2.66647339zm6.2515564-6.37841797H3.01261902v5.70910644h5.90541077v-5.70910644z"/>
    <path fill="rgb(0,0,0)" fill-rule="evenodd" d="M19.73550415 19.56970215v-6.37841797c0-.18493652.15499878-.33459473.34616089-.33459473h6.59770203c.1911621 0 .34616088.1496582.34616088.33459473v6.37841797c0 .18493652-.15499878.3347168-.34616088.3347168h-6.59770203c-.19116211 0-.34616089-.14978028-.34616089-.3347168zm6.59771729-6.04370117h-5.90541077v5.70910644h5.90541077v-5.70910644z"/>
    <path fill="rgb(0,0,0)" fill-rule="evenodd" d="M11.02790833 19.56970215v-6.37841797c0-.18493652.15499877-.33459473.34616088-.33459473h6.59770203c.19116211 0 .34616089.1496582.34616089.33459473v6.37841797c0 .18493652-.15499878.3347168-.34616089.3347168h-6.59770203c-.1911621 0-.34616088-.14978028-.34616088-.3347168zm6.59771728-6.04370117h-5.90541077v5.70910644h5.90541077v-5.70910644z"/>
    <path fill="rgb(0,0,0)" fill-rule="evenodd" d="M2.3203125 19.56970215v-6.37841797c0-.18493652.15499878-.33459473.34616089-.33459473h6.59770203c.1911621 0 .34616088.1496582.34616088.33459473v6.37841797c0 .18493652-.15499878.3347168-.34616088.3347168H2.66647339c-.19116211 0-.34616089-.14978028-.34616089-.3347168zm6.59771729-6.04370117H3.01261902v5.70910644h5.90541077v-5.70910644z"/>
    <path fill="rgb(0,0,0)" fill-rule="evenodd" d="M23.91487003 0c-.19116211 0-.34615385.1496792-.34615385.33465397v6.9963595l-1.3705867-1.32488983c-.13521635-.1307242-.35426683-.1307242-.48948318 0-.13521634.1307242-.13521634.34249742 0 .47322162l1.96124972 1.8959095c.03196599.0309653.07029138.0554761.11273663.07247022.04229737.01691244.0871723.02581802.13223734.02581802.04506504 0 .08994001-.00890558.13223735-.02581802.04244524-.01699413.08077064-.04150492.11273663-.07247022l1.96124971-1.8959095c.13521635-.1307242.13521635-.34249742 0-.47322162s-.35426683-.1307242-.48948317 0l-1.3705867 1.32488983V.33465397C24.26102386.1496792 24.10603213 0 23.91487002 0z"/>
    <path fill="rgb(0,0,0)" fill-rule="evenodd" d="M14.67300181 0c-.19116211 0-.34615384.1496792-.34615384.33465397v6.9964412l-1.3707557-1.32497153c-.13521635-.1307242-.35426683-.1307242-.48948317 0-.13521635.1307242-.13521635.34249742 0 .47322162l1.96141873 1.8959095c.031966.0309653.07029139.0554761.11273664.07247022.04229736.01691244.0871723.02581802.13223734.02581802.04506504 0 .08994001-.00890558.13223735-.02581802.04244524-.01699413.08077064-.04150492.11273663-.07247022l1.96124971-1.8959095c.13521635-.1307242.13521635-.34249742 0-.47322162s-.35426683-.1307242-.48948317 0l-1.3705867 1.32488983V.33465397C15.01915565.1496792 14.86416392 0 14.6730018 0z"/>
    <path fill="rgb(0,0,0)" fill-rule="evenodd" d="M5.43096453 0c-.1911621 0-.34615384.1496792-.34615384.33465397v6.9963595l-1.3705867-1.32488983c-.13521635-.1307242-.35426683-.1307242-.48948318 0-.13521634.1307242-.13521634.34249742 0 .47322162l1.96124971 1.8959095c.031966.0309653.07029139.0554761.11273663.07247022.04229737.01691244.0871723.02581802.13223735.02581802.04506504 0 .08994001-.00890558.13223735-.02581802.04244524-.01699413.08077063-.04150492.11273663-.07247022l1.96141874-1.8959095c.13521634-.1307242.13521634-.34249742 0-.47322162-.13521635-.1307242-.35426683-.1307242-.48948318 0l-1.3707557 1.32497152V.33465396C5.77711839.14967922 5.62212665 0 5.43096455 0z"/>
  </g>
</svg>
