<svg xmlns="http://www.w3.org/2000/svg" width="45" height="44" viewBox="0 0 45 44">
  <g>
    <rect width="1.5" height="1.492" x="3" y="5.22" fill="rgb(0,0,0)" rx="0" ry="0"/>
    <rect width="1.5" height="1.492" x="6" y="5.22" fill="rgb(0,0,0)" rx="0" ry="0"/>
    <rect width="1.5" height="1.492" x="9" y="5.22" fill="rgb(0,0,0)" rx="0" ry="0"/>
    <path fill="rgb(0,0,0)" fill-rule="evenodd" d="M3 38.03430176h13.22436523l-.40917968 4.47460937h-2.31506348v1.49157715h16.5001831v-1.49157715h-2.3151245l-.40911866-4.47460937h13.2243042c1.65612793-.00183106 2.99816895-1.33630371 3.00006104-2.9831543V18.64428711H42.0003662v11.93225098H1.5V9.69494629h19.5001831V8.2034912H1.5v-2.9831543c.00097656-.82324218.67199707-1.49047851 1.5-1.49145507h23.25024414V2.23730469H3C1.3439331 2.23913574.00183105 3.57360839 0 5.2203369v29.83081055c.00183105 1.64685059 1.3439331 2.98132324 3 2.9831543zm39.00036621-2.9831543v-2.98303223H1.5v2.98303223c.00097656.82336426.67199707 1.49060059 1.5 1.49157715h37.50036621c.82800293-.00097656 1.49902344-.6682129 1.5-1.49157715zm-15.8213501 7.45776367h-8.85760498l.40911866-4.47460937h8.03930664l.40917968 4.47460937z"/>
    <rect width="1.5" height="1.492" x="21" y="33.56" fill="rgb(0,0,0)" rx="0" ry="0"/>
    <path fill="rgb(0,0,0)" fill-rule="evenodd" d="M38.25030518 11.1866455c0 2.47131348-2.01470948 4.47460938-4.5 4.47460938-2.48413086-.00280761-4.49719239-2.0045166-4.50006104-4.47460937 0-2.47131348 2.01470947-4.47460938 4.50006104-4.47460938 2.48529052 0 4.5 2.0032959 4.5 4.47460938zm-1.49993897-.00012206c0-1.64746094-1.34313965-2.98303223-3.00006103-2.98303223-1.6560669.00183106-2.99816895 1.33630371-3 2.98303223 0 1.647583 1.34313964 2.9831543 3 2.9831543 1.65692138 0 3.00006103-1.3355713 3.00006103-2.9831543z"/>
    <path fill="rgb(0,0,0)" fill-rule="evenodd" d="M23.56512451 5.57434082c.1213379-.29174805.4142456-.475708.7312622-.45947266l2.47888184.1258545.99578858-.98999024-.12652588-2.46472168c-.01623535-.31506347.1687622-.60632324.4619751-.72705078L30.53936768.0567627c.29315185-.12072754.63110351-.04492188.84375.18933105l1.66314697 1.8317871h1.40814209L36.1175537.24609376c.21264649-.23425293.55053711-.3100586.84375-.18933105l2.43322754 1.00231933c.29315186.12084961.47821045.4119873.4619751.72717285l-.12658692 2.46472168.9954834.9897461 2.47888184-.12548829c.31689453-.01611328.60980224.16784668.73120117.45947266l1.00787354 2.41906738c.12145996.29150391.04522705.62756348-.19036866.83898926l-1.84216308 1.65368653v1.40026855l1.84216308 1.65368652c.2355957.21154785.31182862.54748535.19036866.83898926l-1.00787354 2.4194336c-.12097168.29199218-.41412354.47619628-.73120117.45947265l-2.47869873-.1258545-.9956665.98999024.1265869 2.46472168c.01623536.31506348-.16882323.60632325-.46197509.72705078l-2.43322754 1.00219727c-.29321289.12072754-.63110351.04492188-.84375-.18920898l-1.66314697-1.83190918h-1.4081421l-1.66314696 1.83190918c-.21264649.23413086-.55059815.30993652-.84375.18920898l-2.43322754-1.00219727c-.2932129-.12072753-.47821045-.4119873-.4619751-.72705078l.12652588-2.46472168-.99560547-.98999023-2.47869873.1258545c-.31695557.01611327-.60980225-.16784669-.7312622-.45947266l-1.0078125-2.4194336c-.12145997-.2915039-.04522706-.6274414.1903076-.83898926l1.84222413-1.65368652V10.4864502l-1.84222412-1.65368653c-.23553467-.21142578-.31176758-.54748535-.19030762-.83898926l1.0078125-2.41943359zm5.50195313-.50305176l-1.46685791 1.45861817c-.15014649.14929199-.3569336.22851562-.56903077.21765136l-2.28295898-.1159668-.60272217 1.4470215 1.69689942 1.52319335c.15734863.14135742.24725341.34228516.24737548.55310059v2.06298828c0 .2109375-.08984375.41210937-.24737548.5534668l-1.69641114 1.52355956.60272217 1.44702149 2.28289795-.1159668c.21191406-.01062011.41845703.06835938.56860352.21740723l1.46710205 1.45898437c.15008545.149292.22955322.35473633.21875.5654297l-.11663819 2.27001952 1.4552002.59936524 1.53186035-1.68737793c.14208984-.15649414.34411621-.24584961.55615234-.24597168h2.07470704c.21221923 0 .41448974.08935547.55670166.24597168l1.53216552 1.68688965 1.4552002-.59936524-.11663819-2.27001953c-.01080322-.21069336.06866456-.4161377.21875-.56530762l1.46728516-1.4588623c.14996338-.149292.35662842-.22839356.56860352-.2175293l2.28289795.1159668.60272216-1.44689942-1.69689941-1.52331543c-.15734863-.14123535-.24725342-.34216308-.24737549-.55297851V10.1553955c0-.2109375.08990479-.41210938.24737549-.55358887l1.69647217-1.5234375-.60272217-1.44702148-2.28295898.1159668c-.21191407.01062011-.41845704-.06835938-.56860352-.21740723l-1.46710205-1.45910645c-.15008545-.14916992-.22955322-.35461426-.21868897-.56530762l.11657715-2.27001953-1.4552002-.59936523-1.53186034 1.68725586c-.14208985.15649414-.34411622.2458496-.55615235.24609375H32.7131958c-.21221924 0-.41448975-.08947754-.55670166-.24609375l-1.53216553-1.68676758-1.4552002.59924316.1166382 2.2701416c.01080321.21069336-.06866456.4161377-.21868897.56530762z"/>
    <path fill="rgb(0,0,0)" fill-rule="evenodd" d="M7.50012207 11.93237305c.41418457 0 .75.3338623.75.74572754v2.9831543c0 .41186523-.33581543.74572753-.75.74572753H4.50006104c-.41418458 0-.75-.3338623-.75-.74572754v-2.9831543c0-.41186523.33581542-.74572753.75-.74572753h3.00006103zm-2.25006103 2.9831543h1.5V13.4239502h-1.5v1.49157714z"/>
    <path fill="rgb(0,0,0)" fill-rule="evenodd" d="M13.50012207 11.93237305c.41418457 0 .75.3338623.75.74572754v2.9831543c0 .41186523-.33581543.74572753-.75.74572753h-3.00006103c-.41418458 0-.75-.3338623-.75-.74572754v-2.9831543c0-.41186523.33581542-.74572753.75-.74572753h3.00006103zm-2.25 2.9831543h1.5V13.4239502h-1.5v1.49157714z"/>
    <path fill="rgb(0,0,0)" fill-rule="evenodd" d="M19.5001831 11.93237305c.41418458 0 .75.3338623.75.74572754v2.9831543c0 .41186523-.33581542.74572753-.75.74572753h-3.00006103c-.41418457 0-.75-.3338623-.75-.74572754v-2.9831543c0-.41186523.33581543-.74572753.75-.74572753h3.00006104zm-2.25 2.9831543h1.5V13.4239502h-1.5v1.49157714z"/>
    <path fill="rgb(0,0,0)" fill-rule="evenodd" d="M7.50012207 17.89855957c.41418457 0 .75.3338623.75.74572754v2.9831543c0 .41186523-.33581543.74572754-.75.74572754H4.50006104c-.41418458 0-.75-.3338623-.75-.74572754v-2.9831543c0-.41186524.33581542-.74572754.75-.74572754h3.00006103zM5.25006104 20.8815918h1.5v-1.49157715h-1.5v1.49157715z"/>
    <path fill="rgb(0,0,0)" fill-rule="evenodd" d="M13.50012207 17.89855957c.41418457 0 .75.3338623.75.74572754v2.9831543c0 .41186523-.33581543.74572754-.75.74572754h-3.00006103c-.41418458 0-.75-.3338623-.75-.74572754v-2.9831543c0-.41186524.33581542-.74572754.75-.74572754h3.00006103zm-2.25 2.98303223h1.5v-1.49157715h-1.5v1.49157715z"/>
    <path fill="rgb(0,0,0)" fill-rule="evenodd" d="M19.5001831 17.89855957c.41418458 0 .75.3338623.75.74572754v2.9831543c0 .41186523-.33581542.74572754-.75.74572754h-3.00006103c-.41418457 0-.75-.3338623-.75-.74572754v-2.9831543c0-.41186524.33581543-.74572754.75-.74572754h3.00006104zm-2.25 2.98303223h1.5v-1.49157715h-1.5v1.49157715z"/>
    <path fill="rgb(0,0,0)" fill-rule="evenodd" d="M4.50006104 23.8647461h3.00006103c.41418457 0 .75.3338623.75.74572753v2.9831543c0 .41186523-.33581543.74572754-.75.74572754H4.50006104c-.41418458 0-.75-.3338623-.75-.74572754v-2.9831543c0-.41186523.33581542-.74572754.75-.74572754zm.75 2.98303222h1.5v-1.49157715h-1.5v1.49157715z"/>
    <path fill="rgb(0,0,0)" fill-rule="evenodd" d="M10.50006104 23.8647461h3.00006103c.41418457 0 .75.3338623.75.74572753v2.9831543c0 .41186523-.33581543.74572754-.75.74572754h-3.00006103c-.41418458 0-.75-.3338623-.75-.74572754v-2.9831543c0-.41186523.33581542-.74572754.75-.74572754zm.75006103 2.98303222h1.5v-1.49157715h-1.5v1.49157715z"/>
    <path fill="rgb(0,0,0)" fill-rule="evenodd" d="M16.50012207 23.8647461h3.00006104c.41418457 0 .75.3338623.75.74572753v2.9831543c0 .41186523-.33581543.74572754-.75.74572754h-3.00006104c-.41418457 0-.75-.3338623-.75-.74572754v-2.9831543c0-.41186523.33581543-.74572754.75-.74572754zm.75006104 2.98303222h1.5v-1.49157715h-1.5v1.49157715z"/>
    <rect width="1.5" height="1.492" x="24" y="23.865" fill="rgb(0,0,0)" rx="0" ry="0"/>
    <rect width="12.75" height="1.492" x="27" y="23.865" fill="rgb(0,0,0)" rx="0" ry="0"/>
    <rect width="14.25" height="1.492" x="22.5" y="26.848" fill="rgb(0,0,0)" rx="0" ry="0"/>
  </g>
</svg>
