<?xml version="1.0" encoding="UTF-8"?>
<svg width="752pt" height="752pt" version="1.1" viewBox="0 0 752 752" xmlns="http://www.w3.org/2000/svg">
 <defs>
  <clipPath id="e">
   <path d="m213 139.21h104v133.79h-104z"/>
  </clipPath>
  <clipPath id="d">
   <path d="m435 139.21h104v133.79h-104z"/>
  </clipPath>
  <clipPath id="c">
   <path d="m139.21 287h185.79v104h-185.79z"/>
  </clipPath>
  <clipPath id="b">
   <path d="m427 287h185.79v104h-185.79z"/>
  </clipPath>
  <clipPath id="a">
   <path d="m213 479h326v133.79h-326z"/>
  </clipPath>
 </defs>
 <path d="m376 464.8c36.789 0 66.598-59.133 66.598-101.26 0-42.18-29.809-76.332-66.598-76.332s-66.598 34.207-66.598 76.332c0 42.129 29.812 101.26 66.598 101.26zm0-162.79c28.562 0 51.797 27.605 51.797 61.531 0.003906 36.156-26.102 86.465-51.797 86.465s-51.797-50.309-51.797-86.461c0-33.93 23.234-61.535 51.797-61.535z" fill="#d2d2d2"/>
 <g clip-path="url(#e)">
  <path d="m265.01 272.41c28.609 0 51.797-44.355 51.797-75.941 0-31.645-23.188-57.254-51.797-57.254-28.613 0-51.797 25.66-51.797 57.25-0.003907 31.59 23.18 75.945 51.797 75.945zm0-118.39c20.402 0 37 19.043 37 42.453-0.003906 27.43-20.406 61.141-37 61.141-16.598 0-37-33.715-37-61.145 0-23.406 16.598-42.449 37-42.449z" fill="#d2d2d2"/>
 </g>
 <g clip-path="url(#d)">
  <path d="m487 272.41c28.605 0 51.797-44.355 51.797-75.941 0-31.645-23.188-57.254-51.797-57.254-28.613 0-51.797 25.66-51.797 57.25 0 31.59 23.184 75.945 51.797 75.945zm0-118.39c20.402 0 37 19.043 37 42.453 0 27.43-20.402 61.141-37 61.141s-37-33.715-37-61.145c0.003906-23.406 16.602-42.449 37-42.449z" fill="#d2d2d2"/>
 </g>
 <g clip-path="url(#c)">
  <path d="m295.34 376h-141c-0.11328 0-0.21094-0.011719-0.28516-0.027344 2.6367-35.887 8.8008-49.262 11.086-51.559 5.3242-4.1328 32.297-13.676 56.84-20.992l34.438 24.594c2.5742 1.8398 5.5898 2.7578 8.6016 2.7578s6.0273-0.91797 8.5977-2.7539l34.453-24.598c1.8359 0.54297 3.6836 1.1094 5.5352 1.6758 3.293-4.3945 6.9375-8.4414 10.898-12.078-10.895-3.4414-19.184-5.8164-19.184-5.8164l-40.297 28.773-40.293-28.773s-59.539 17.031-69.555 26.266c-10.59 9.7109-14.504 42.309-15.922 61.941-0.61719 8.4922 6.3359 15.391 15.086 15.391h143.46c-1.1055-5.0234-1.9219-9.9805-2.4609-14.801z" fill="#d2d2d2"/>
 </g>
 <g clip-path="url(#b)">
  <path d="m527.3 287.2-40.297 28.773-40.293-28.773s-8.293 2.375-19.207 5.8242c3.9609 3.6367 7.6133 7.6836 10.898 12.082 1.8594-0.57031 3.7148-1.1367 5.5586-1.6836l34.445 24.594c2.5703 1.8398 5.5859 2.7578 8.5977 2.7578 3.0156 0 6.0273-0.91797 8.5977-2.7578l34.449-24.594c24.559 7.3203 51.543 16.867 56.855 21.004 2.2383 2.2188 8.4023 15.574 11.043 51.551-0.066406 0.011719-0.16016 0.023437-0.26562 0.023437h-141.02c-0.53516 4.8164-1.3555 9.7734-2.4609 14.801h143.48c8.7578 0 15.68-6.8984 15.066-15.383-1.418-19.641-5.3047-52.234-15.898-61.945-10.027-9.2422-69.551-26.273-69.551-26.273z" fill="#d2d2d2"/>
 </g>
 <g clip-path="url(#a)">
  <path d="m518.18 513.36c-12.98-11.867-90.012-33.766-90.012-33.766l-52.152 37-52.145-37s-77.047 21.898-90.016 33.766c-13.707 12.488-18.758 54.395-20.594 79.645-0.80469 10.914 8.1875 19.785 19.516 19.785h286.48c11.332 0 20.289-8.8711 19.492-19.781-1.8359-25.254-6.8711-67.156-20.57-79.648zm4.957 83.109c-0.89453 0.96875-2.3125 1.5195-3.8828 1.5195h-286.48c-1.5781 0-3.0039-0.55859-3.9102-1.5352-0.94531-1.0156-0.875-2.0352-0.84766-2.3789 3.4023-46.816 11.531-65.891 15.809-69.777 6.2891-5.4648 43.68-18.637 77.301-28.504l46.324 32.875c2.5625 1.8164 5.5664 2.7266 8.5625 2.7266 2.9961 0 5.9961-0.91016 8.5625-2.7266l46.332-32.875c33.613 9.8633 70.996 23.043 77.293 28.504 4.2617 3.8867 12.391 22.961 15.781 69.793 0.03125 0.33594 0.10547 1.3555-0.84375 2.3789z" fill="#d2d2d2"/>
 </g>
</svg>
