<?xml version="1.0" encoding="utf-8"?>
<!-- Generator: Adobe Illustrator 24.1.1, SVG Export Plug-In . SVG Version: 6.00 Build 0)  -->
<svg version="1.1" id="Layer_1" xmlns="http://www.w3.org/2000/svg" xmlns:xlink="http://www.w3.org/1999/xlink" x="0px" y="0px"
	 viewBox="0 0 752 752" style="enable-background:new 0 0 752 752;" xml:space="preserve">
<style type="text/css">
	.st0{fill:#007335;}
</style>
<path class="st0" d="M121.9,16.6v169.3H1v435.2h120.9V742h628.7l0-725.4L121.9,16.6z M121.9,306.8H186l32.6,48.4l32.6-48.4h64.1
	l-64.1,96.7l64.1,96.7h-64.1l-32.6-48.4L186,500.2h-64.1l64.1-96.7L121.9,306.8z M702.2,693.6h-532v-72.5h266V476h193.4v-48.4H436.2
	v-48.4h193.4V331l-193.4,0v-48.4h193.4v-48.4l-193.4,0v-48.4l-266,0V65h532V693.6z"/>
</svg>
