<?xml version="1.0" encoding="UTF-8"?>
<svg width="752pt" height="752pt" version="1.1" viewBox="0 0 752 752" xmlns="http://www.w3.org/2000/svg">
 <g fill="#d2d2d2">
  <path d="m196.04 153.42c-5.2305 0-9.4688 4.2422-9.4688 9.4727v426.22c0 3.7148 2.1719 7.0898 5.5547 8.625 3.3828 1.5352 7.3516 0.95312 10.148-1.4922l31.449-27.516 29.258 27.312c3.6406 3.3984 9.2891 3.3984 12.93 0l29.055-27.121 29.055 27.121h-0.003906c3.6406 3.3984 9.293 3.3984 12.934 0l29.055-27.121 29.055 27.121h-0.003906c3.6406 3.3984 9.2891 3.3984 12.93 0l29.055-27.121 29.055 27.121h-0.003906c3.6406 3.3984 9.293 3.3984 12.934 0l29.258-27.312 31.449 27.516h-0.003907c2.8008 2.4453 6.7695 3.0273 10.152 1.4922 3.3828-1.5352 5.5547-4.9102 5.5547-8.625v-426.22c0-5.2305-4.2422-9.4727-9.4727-9.4727zm9.4727 18.941 340.98 0.003906v395.88l-22.18-19.406h-0.003906c-3.6562-3.1992-9.1445-3.1133-12.699 0.20312l-29.055 27.121-29.055-27.121h0.003906c-3.6406-3.3984-9.2891-3.3984-12.93 0l-29.055 27.121-29.055-27.121h0.003906c-3.6406-3.3984-9.293-3.3984-12.934 0l-29.055 27.121-29.055-27.121h0.003907c-3.6406-3.3984-9.2891-3.3984-12.93 0l-29.055 27.121-29.055-27.121h0.003906c-3.5547-3.3164-9.043-3.4023-12.703-0.20312l-22.18 19.406z"/>
  <path d="m233.91 224.46c-5.2305 0-9.4727 4.2422-9.4727 9.4766 0 5.2305 4.2422 9.4727 9.4727 9.4727h165.78c5.2344 0 9.4766-4.2422 9.4766-9.4727 0-5.2344-4.2422-9.4766-9.4766-9.4766z"/>
  <path d="m470.73 224.46c-5.2344 0-9.4766 4.2422-9.4766 9.4766 0 5.2305 4.2422 9.4727 9.4766 9.4727h47.336-0.003906c5.2344 0 9.4766-4.2422 9.4766-9.4727 0-5.2344-4.2422-9.4766-9.4766-9.4766z"/>
  <path d="m233.91 257.61c-5.2305 0-9.4727 4.2383-9.4727 9.4727 0 5.2305 4.2422 9.4727 9.4727 9.4727h71.039c5.2305 0 9.4727-4.2422 9.4727-9.4727 0-5.2344-4.2422-9.4727-9.4727-9.4727z"/>
  <path d="m233.91 319.17c-5.2305 0-9.4727 4.2422-9.4727 9.4727 0 5.2344 4.2422 9.4727 9.4727 9.4727h165.78c5.2344 0 9.4766-4.2383 9.4766-9.4727 0-5.2305-4.2422-9.4727-9.4766-9.4727z"/>
  <path d="m470.73 319.17c-5.2344 0-9.4766 4.2422-9.4766 9.4727 0 5.2344 4.2422 9.4727 9.4766 9.4727h47.336-0.003906c5.2344 0 9.4766-4.2383 9.4766-9.4727 0-5.2305-4.2422-9.4727-9.4766-9.4727z"/>
  <path d="m233.91 352.31c-5.2305 0-9.4727 4.2422-9.4727 9.4727 0 5.2344 4.2422 9.4766 9.4727 9.4766h71.039c5.2305 0 9.4727-4.2422 9.4727-9.4766 0-5.2305-4.2422-9.4727-9.4727-9.4727z"/>
  <path d="m233.91 413.88c-5.2305 0-9.4727 4.2422-9.4727 9.4727 0 5.2344 4.2422 9.4766 9.4727 9.4766h165.78c5.2344 0 9.4766-4.2422 9.4766-9.4766 0-5.2305-4.2422-9.4727-9.4766-9.4727z"/>
  <path d="m470.73 413.88c-5.2344 0-9.4766 4.2422-9.4766 9.4727 0 5.2344 4.2422 9.4766 9.4766 9.4766h47.336-0.003906c5.2344 0 9.4766-4.2422 9.4766-9.4766 0-5.2305-4.2422-9.4727-9.4766-9.4727z"/>
  <path d="m233.91 447.05c-5.2305 0-9.4727 4.2422-9.4727 9.4766 0 5.2305 4.2422 9.4727 9.4727 9.4727h71.039c5.2305 0 9.4727-4.2422 9.4727-9.4727 0-5.2344-4.2422-9.4766-9.4727-9.4766z"/>
 </g>
</svg>
