<?xml version="1.0" encoding="utf-8"?>
<!-- Generator: Adobe Illustrator 24.1.1, SVG Export Plug-In . SVG Version: 6.00 Build 0)  -->
<svg version="1.1" id="Layer_1" xmlns="http://www.w3.org/2000/svg" xmlns:xlink="http://www.w3.org/1999/xlink" x="0px" y="0px"
	 viewBox="0 0 752 752" style="enable-background:new 0 0 752 752;" xml:space="preserve">
<style type="text/css">
	.st0{fill:#E00021;}
</style>
<path class="st0" d="M142.4,1.9c-17.3,0-31.4,14-31.4,31.2v687.7c0,17.2,14.1,31.2,31.4,31.2H611c17.3,0,31.4-14,31.4-31.2V220.7
	H439.2c-8.6,0-15.6-7-15.6-15.6V1.9L142.4,1.9z M454.8,12.8v176.6h169.9L454.8,12.8z M370.3,203.8c11.6,0.1,19.1,5.1,23.5,10
	c17.9,19.5,10.8,61-8.9,124.5c19.2,45.2,47.8,94.3,77.3,129.6c13-2.3,25.4-3.6,37.2-4c35.4-1,63.7,6.7,79.7,21.8
	c11.2,10.6,15,24.3,10,36.6c-6.7,16.7-27.1,26.3-56.1,26.3c-26.7,0-55.1-18.5-82-46.8c-23.2,5.4-50.9,14.7-83.4,29.7
	c-20.6,9.5-38.8,18.7-54.8,27.5c-19,53.1-40.3,90.4-85.4,113c-12.8,6.4-22.9,8.7-30.7,8.7c-7.8,0-13.5-2.2-17.4-4.9
	c-7.8-5.3-11.8-14.2-11-24.5c2-25.3,35.4-66.4,119-113.8c4.8-14.4,9.8-30.2,15.2-47.7c3.9-12.5,8-25.7,12.5-39.7
	c5.6-17.4,11.9-35.9,18-53.8c6.5-19,13-38.3,18.9-56.7c-11-27.7-18.3-53.4-20.8-73.6c-5.6-45.7,14.1-57.6,26.3-60.7
	C362.1,204.3,366.4,203.8,370.3,203.8L370.3,203.8z M370.1,235.1c-0.9,0-2.6,0.1-5.3,0.8c-1.9,0.5-5.2,7.8-2.9,26.6
	c0.9,7.5,2.6,15.9,4.9,24.7c10.3-43,4.6-51.3,4-52C370.9,235.1,370.6,235.1,370.1,235.1L370.1,235.1z M370.7,382.3
	c-2.6,7.9-5.4,16-8.2,24.3c-6,17.7-12.3,36.1-17.8,53.3h0c-4.5,13.9-8.6,27-12.4,39.4c-1.9,5.9-3.6,11.7-5.4,17.4
	c8.8-4.4,18-8.8,27.7-13.3c25.5-11.8,50.4-21,73.9-27.6C406.7,447.9,386.8,415,370.7,382.3L370.7,382.3z M501.8,495.3
	c-4,0.1-8.3,0.3-12.8,0.6c15.6,13.5,30.7,21.7,43.9,21.7c17.9,0,25.1-4.4,26.8-6.3c-0.7-1.3-3.2-4.5-9.9-7.9
	C545.2,501.1,529.9,494.8,501.8,495.3L501.8,495.3z M268.1,586.1c-44.9,29.9-62.4,52.4-67.2,63c2.9-0.6,7-2,12.6-4.8
	C238.8,631.6,254.8,612.9,268.1,586.1L268.1,586.1z"/>
</svg>
