<?xml version="1.0" encoding="UTF-8"?>
<svg width="752pt" height="752pt" version="1.1" viewBox="0 0 752 752" xmlns="http://www.w3.org/2000/svg">
 <defs>
  <clipPath id="b">
   <path d="m139.21 139.21h363.79v473.58h-363.79z"/>
  </clipPath>
  <clipPath id="a">
   <path d="m388 139.21h224.79v379.79h-224.79z"/>
  </clipPath>
 </defs>
 <g>
  <g clip-path="url(#b)">
   <path d="m157.04 597h327.42l-12.074-51.926c-5.375-23.102-21.832-41.922-44.012-50.336l-51.859-19.652c-0.25-0.09375-0.49609-0.20312-0.72656-0.32422-6.9141-3.4414-10.094-10.262-12.91-16.266l-0.82031-1.7539c-2.7812-5.8086-2.3477-13.613 1.0312-18.965 2.6211-4.1523 6.7812-6.5273 11.414-6.5273h64.738c8.4688-0.45312 32.535-3.5234 45.668-12.156-17.641-24.391-63.688-94.922-65.109-167.96-0.19531-3.6445-6.2578-95.371-99.109-96.137-93.027 0.77344-98.797 92.484-99.004 96.383-1.3984 72.789-47.461 143.34-65.094 167.71 13.148 8.6484 37.238 11.711 46.07 12.172l64.344-0.007813c4.6484 0 8.832 2.3906 11.461 6.5742 3.3633 5.3438 3.7578 13.141 0.97266 18.941l-0.86719 1.8242c-2.7969 5.9766-5.9688 12.738-12.852 16.172-0.23828 0.12109-0.48047 0.23047-0.72656 0.32422l-51.863 19.652c-22.172 8.4141-38.629 27.234-44.012 50.336zm337.36 15.789h-347.29c-2.3984 0-4.6875-1.0977-6.1797-2.9844-1.4922-1.8867-2.0508-4.3477-1.5-6.7031l14.328-61.602c6.5742-28.242 26.676-51.234 53.781-61.52l51.367-19.465c1.8945-1.1836 3.7422-5.1289 5.3828-8.6328l0.91797-1.9453c0.37891-0.77344 0.37891-2.0273 0.19531-2.9023h-63.137c-2.0117-0.09375-40.387-2.2031-59.031-18.273-4.5938-3.9531-5.3203-10.938-1.6406-15.895 14.734-19.852 62.938-90.203 64.32-162.05 0.070312-1.3555 6.9297-110.72 114.78-111.61 107.97 0.89062 114.82 110.26 114.89 111.36 1.4023 72.141 49.621 142.49 64.367 162.34 3.6445 4.9258 2.9258 11.863-1.6133 15.801-18.625 16.117-57.066 18.234-58.691 18.32l-63.5 0.007812c-0.1875 0.89063-0.20312 2.1641 0.15234 2.918l0.875 1.8477c1.6562 3.5312 3.5195 7.5234 5.4297 8.707l51.367 19.473c27.113 10.285 47.211 33.277 53.785 61.52l14.332 61.602c0.54688 2.3555-0.007812 4.8164-1.5078 6.7031-1.4922 1.8867-3.7734 2.9844-6.1797 2.9844z" fill="#d2d2d2" fill-rule="evenodd"/>
  </g>
  <g clip-path="url(#a)">
   <path d="m604.9 518.07h-141.55c-4.3555 0-7.8906-3.5352-7.8906-7.8906 0-4.3594 3.5352-7.8945 7.8906-7.8945h133.66v-14.184c0-17.129-9.3438-32.867-24.379-41.066l-53.332-33.418c-10.324-5.6133-17.004-16.625-17.004-28.488v-24.918c0-2.2031 0.92578-4.3086 2.543-5.8008 0.21875-0.19922 21.547-20.168 27.695-46.98 0.46484-1.9961 1.6914-3.7461 3.418-4.8594 3.6406-2.3555 5.8086-6.2852 5.8086-10.523v-27.27c0-2.8438-1.9258-6.2109-5.2969-9.2578-1.6484-1.4922-2.5938-3.625-2.5938-5.8516v-39.422c-0.13672-1.8164-4.2305-55.254-71.039-55.254-27.633 0-47.848 8.9453-60.105 26.578-2.5 3.5742-7.418 4.4414-10.988 1.9727-3.582-2.4883-4.4648-7.4062-1.9805-10.988 10.578-15.211 31.832-33.348 73.074-33.348 82 0 86.77 69.902 86.809 70.602l0.015626 36.578c5.1055 5.5703 7.8906 12.004 7.8906 18.391v27.27c0 8.5078-3.8125 16.449-10.348 21.816-6.5273 24.57-22.777 43.121-29.117 49.648v21.617c0 5.9922 3.6094 11.824 9.1875 14.871l53.336 33.418c19.699 10.727 32.195 31.777 32.195 54.684v22.078c0 4.3555-3.5273 7.8906-7.8945 7.8906" fill="#d2d2d2" fill-rule="evenodd"/>
  </g>
 </g>
</svg>
