<?xml version="1.0" encoding="utf-8"?>
<!DOCTYPE svg PUBLIC "-//W3C//DTD SVG 1.1//EN" "http://www.w3.org/Graphics/SVG/1.1/DTD/svg11.dtd">
<svg version="1.1" xmlns="http://www.w3.org/2000/svg" xmlns:xlink="http://www.w3.org/1999/xlink" x="0px" y="0px" viewBox="0 0 1000 1000" enable-background="new 0 0 1000 1000" xml:space="preserve">
<g><g transform="translate(0.000000,511.000000) scale(0.100000,-0.100000)"><path d="M164.5,4997.3l-64.5-61.9V4203c0-876.8,10.3-936.2,214-1139.9c232.1-229.5,123.8-219.2,2215.3-219.2h1825.9v-322.4v-319.8l-1307.5-7.7c-1286.9-7.7-1312.7-7.7-1413.3-64.5c-136.7-72.2-250.2-196-330.1-355.9C1198.6,1556.9,677.7-119.4,486.8-857C345-1411.4,277.9-2051,200.6-3593.2c-36.1-737.6-20.6-815,193.4-1029c237.3-237.3-162.5-219.2,4606-219.2c4647.3,0,4348.1-10.3,4559.6,170.2c61.9,51.6,141.8,152.2,180.5,227c67.1,126.4,69.6,141.9,64.5,518.4c-7.7,683.4-105.7,2081.2-177.9,2540.3c-20.7,134.1-80,402.3-128.9,593.2c-211.5,796.9-711.8,2388.1-820.1,2599.6c-77.4,154.7-260.5,319.8-397.1,361c-72.2,23.2-472,31-1369.4,31H5644.7v322.4v322.4h1825.9c2091.5,0,1983.2-10.3,2215.3,219.2c203.7,203.7,214,263.1,214,1139.9v732.4l-64.5,61.9l-61.9,64.5H5000H226.4L164.5,4997.3z M9487.4,4584.6v-64.5H5000H512.6v64.5v64.5H5000h4487.4V4584.6z M9487.4,3901.2c0-319.8-7.7-433.3-38.7-490c-85.1-165.1,229.5-154.7-4448.7-154.7c-4678.2,0-4363.6-10.3-4448.7,154.7c-31,56.7-38.7,170.2-38.7,490v412.6H5000h4487.4V3901.2z M5257.9,2521.5v-322.4H5000h-257.9v304.3c0,167.6,7.7,314.6,18.1,322.4c7.7,10.3,123.8,18.1,257.9,18.1h239.8V2521.5z M8197.9,1760.7c82.5-43.8,144.4-180.5,291.4-631.8C8899.4-132.3,9165-1063.3,9226.9-1463c51.6-324.9,183.1-2189.5,183.1-2584.1v-72.2H4997.4H584.8l15.5,330.1c67.1,1250.8,118.6,1942,172.8,2313.3c56.7,376.5,358.5,1449.4,735,2594.4c123.8,384.3,183.1,528.7,239.8,588l74.8,79.9h3164.4C7019.3,1786.5,8166.9,1776.2,8197.9,1760.7z M9268.2-4377.2c-77.4-51.6-128.9-51.6-4268.2-51.6s-4190.8,0-4268.2,51.6s-77.4,51.6,4268.2,51.6S9345.5-4325.6,9268.2-4377.2z"/><path d="M4512.6,1206.2c-515.8-116.1-933.6-348.2-1289.5-711.8C2926.5,190.1,2717.6-186.4,2599-627.4c-80-288.8-80-889.7-2.6-1176c332.7-1219.8,1395.2-1975.5,2628-1872.3c647.3,54.1,1268.8,379.1,1673.7,874.2c1016.1,1243.1,631.8,3074.1-794.3,3791.1c-353.3,177.9-595.7,234.7-1039.3,245C4791.1,1242.3,4628.6,1232,4512.6,1206.2z M4902,765.2c5.1-38.7,28.4-82.5,54.1-98c61.9-38.7,131.5,7.7,141.8,98c7.7,56.7,20.6,67.1,90.3,67.1c123.8,0,479.7-92.8,647.3-165.1c134.1-59.3,332.7-183.1,474.5-294c59.3-46.4,59.3-49,15.5-126.4c-38.7-67-41.3-85.1-12.9-121.2c43.8-51.6,126.3-54.2,185.7,0c41.3,36.1,51.6,28.4,159.9-123.8c221.8-312,366.2-683.4,384.3-987.7c7.7-121.2,5.2-128.9-67.1-141.8c-157.3-28.4-147-159.9,12.9-193.4c74.8-18.1,77.4-20.6,61.9-136.7c-49-350.8-178-680.9-392-980l-113.5-159.9l-67.1,51.6c-85.1,67-152.1,64.5-190.8-2.6c-23.2-46.4-18.1-69.6,28.4-131.5l56.7-77.4l-87.7-72.2c-239.8-203.7-688.6-394.6-1005.8-428.1l-170.2-18.1l-10.3,72.2c-18,149.6-177.9,149.6-196,0l-10.3-72.2l-170.2,18.1c-317.2,33.5-766,224.3-1005.8,428.1l-87.7,72.2l56.7,77.4c46.4,61.9,51.6,85.1,28.4,131.5c-38.7,67.1-105.7,69.6-190.8,2.6l-67.1-51.6l-113.5,159.9c-214.1,299.1-343,629.2-392,980c-15.5,116.1-12.9,118.6,61.9,136.7c159.9,33.5,170.2,165.1,12.9,193.4c-72.2,12.9-74.8,18.1-67.1,141.8c18.1,299.2,183.1,722.1,392,998.1l108.3,147L3530,105c59.3-41.2,82.5-46.4,126.4-23.2c64.5,36.1,69.6,98,12.9,180.5c-49,69.6-46.4,72.2,211.5,245c245,167.6,675.7,317.2,918.1,322.4C4881.4,832.3,4894.3,824.5,4902,765.2z"/><path d="M4886.5,422.2c-61.9-67.1-180.5-1751.1-131.5-1874.9c43.8-105.7,131.5-165.1,245-165.1c113.5,0,201.2,59.3,245,165.1c49,121.2-69.6,1807.8-131.5,1877.5C5056.7,484.1,4943.3,484.1,4886.5,422.2z"/></g></g>
</svg>