<?xml version="1.0" encoding="UTF-8"?>
<svg width="752pt" height="752pt" version="1.1" viewBox="0 0 752 752" xmlns="http://www.w3.org/2000/svg">
 <path d="m221.5 439.79c4.9688-0.007812 9.918-0.57031 14.762-1.6836-14.617 61.984 60.504 106.83 108.3 65.051 34.055 49.496 108.48 60.66 155.98 23.852 42.699 22.754 97.629-10.977 96.531-59.438 0.042969-13.844-4.2539-27.355-12.285-38.633-8.0312-11.281-19.395-19.758-32.492-24.246 2.0781-22.117-5.4023-44.066-20.547-60.316-15.148-16.246-36.523-25.242-58.73-24.719 0.5-25.102-11.121-48.902-31.215-63.949-20.098-15.047-46.211-19.492-70.152-11.945-7.7617-18.141-23.152-31.914-42.043-37.613-18.887-5.7031-39.328-2.7461-55.828 8.0703s-27.363 28.387-29.668 47.98c-13.734-0.09375-26.945 5.2656-36.73 14.902-9.7891 9.6328-15.352 22.758-15.477 36.492-62.504 31.352-40.41 125.66 29.598 126.2zm316.38-42.512c0.71094 6.4336-4.9141 17.516 4.5 19.934 59.266 14.902 49.23 101.08-11.898 102.16h-0.003906c-9.4492-0.015625-18.715-2.6211-26.785-7.5391-2.6836-1.6289-6.1016-1.3867-8.5273 0.60156-21.562 17.656-49.73 25.078-77.195 20.336-27.461-4.7422-51.512-21.184-65.898-45.051-1.2422-2.0039-3.3555-3.3008-5.7031-3.5039-2.3477-0.19922-4.6484 0.72266-6.2109 2.4844-10.406 11.996-25.738 18.551-41.598 17.785s-30.492-8.7656-39.691-21.707c-9.2031-12.941-11.953-29.387-7.4688-44.621 4.4844-15.23 15.715-27.559 30.461-33.449 4.8203-1.7383 4.875-6.8359 4.4297-11.133 0.027344-10.879 4.8398-21.199 13.156-28.215s19.301-10.02 30.031-8.2148c2.2266 0.19531 4.4297-0.55859 6.0703-2.0742 1.6406-1.5195 2.5625-3.6602 2.5391-5.8945-0.007813-16.793 8.1328-32.551 21.84-42.262 13.703-9.7148 31.266-12.176 47.109-6.6016 15.848 5.5703 28.004 18.48 32.617 34.633 0.59766 2.0469 2.0469 3.7383 3.9727 4.6445 1.9297 0.90625 4.1562 0.94141 6.1133 0.097656 19.449-8.3477 41.789-6.4062 59.508 5.168 17.719 11.578 28.465 31.254 28.633 52.422zm-335.6-72.125c3.418-1.4648 5.3203-5.1445 4.5391-8.7812-0.65625-10.199 2.9375-20.211 9.9219-27.668s16.742-11.695 26.961-11.707c3.6875-0.21875 8.9023 2.1602 12.211-0.98047 1.8789-1.5742 2.8516-3.9844 2.5898-6.4219 1.0117-59.816 84.281-71.324 101.58-14.184 0.59766 2.0547 2.0508 3.7539 3.9883 4.6602 1.9414 0.90625 4.1758 0.9375 6.1367 0.078126 20.043-8.6094 43.113-6.2578 61.008 6.2188 17.895 12.477 28.078 33.309 26.93 55.094-2.332 0.51953-4.6523 1.1133-6.9375 1.8555-7.7461-18.137-23.133-31.91-42.016-37.605-18.879-5.6992-39.316-2.7383-55.801 8.0859-16.488 10.824-27.332 28.395-29.613 47.984-13.762-0.17188-27.02 5.1562-36.836 14.797s-15.383 22.805-15.457 36.562c-11.949 5.9336-21.832 15.336-28.344 26.98-64.883 27.109-105.22-66.273-40.863-94.969z" fill="#fff"/>
</svg>
