<?xml version="1.0" encoding="UTF-8"?>
<svg width="752pt" height="752pt" version="1.1" viewBox="0 0 752 752" xmlns="http://www.w3.org/2000/svg">
 <g fill="#fff">
  <path d="m149.2 511.59c-5.418-9.0156-6.6094-19.953-3.2656-29.93 11.359-33.828 20.082-68.488 26.094-103.66 1.793-10.355 8.0117-19.41 17.027-24.805s19.934-6.5938 29.902-3.2812l12.359 3.9766 0.003907 0.003907c-1.8086-7.1836-1.8086-14.699 0-21.883 3.6406-14.547 14.176-26.387 28.203-31.699 14.023-5.3086 29.758-3.418 42.125 5.0664 12.367 8.4844 19.793 22.484 19.887 37.48 0.10156 11.406-4.1328 22.422-11.84 30.828 14.207 2.6992 27.75 4.7344 40.965 6.582 6.4609 0.85156 11.008 6.7773 10.16 13.238-0.85156 6.4609-6.7773 11.008-13.238 10.16-17.098-2.1797-34.949-5.2109-53.137-8.9492v-0.003907c-1.543-0.32031-3.0078-0.94922-4.3086-1.8477-3.2109-2.2344-5.668-5.3906-7.0469-9.0508-1.3789-3.6641-1.6133-7.6562-0.67188-11.453l0.37891-1.5625c1.0586-4.1211 3.4375-7.7812 6.7734-10.418 5.4219-4.1797 8.5469-10.68 8.4297-17.523-0.027344-7.3047-3.6445-14.133-9.6719-18.254-6.0312-4.125-13.703-5.0195-20.52-2.3984-6.8164 2.625-11.91 8.4336-13.617 15.535-1.1367 4.6133-0.73828 9.4688 1.1367 13.832 1.6953 3.9102 2.0586 8.2656 1.043 12.406l-0.37891 1.5625c-1.0039 3.7578-3.1211 7.1211-6.0703 9.6562s-6.5938 4.1211-10.457 4.5508c-1.5938 0.17969-3.2031 0.035156-4.7383-0.42578-7.9102-2.3672-15.723-4.7344-23.254-7.3398h0.003907c-3.4727-1.1641-7.2812-0.75-10.418 1.1367-3.125 1.832-5.2773 4.9531-5.875 8.5234-6.2188 36.367-15.246 72.199-26.992 107.17-1.1445 3.4141-0.76172 7.1562 1.0547 10.27 1.8125 3.1094 4.8789 5.2891 8.4141 5.9727 46.059 7.8711 91.234 20.246 134.88 36.941 2.9766 1.0742 5.4023 3.3008 6.7188 6.1797 1.3203 2.8828 1.4258 6.1719 0.29297 9.1289-1.1328 2.957-3.4062 5.3359-6.3125 6.5977-2.9023 1.2656-6.1953 1.3047-9.1289 0.11328-42.105-16.023-85.68-27.887-130.09-35.422-10.359-1.7695-19.426-7.9805-24.816-17.004z"/>
  <path d="m419.9 231.37c14.48 3.6875 26.25 14.207 31.531 28.188 5.2852 13.977 3.4141 29.652-5.0039 41.996-8.4219 12.344-22.336 19.805-37.277 19.984-11.406 0.10156-22.422-4.1328-30.832-11.84-2.6992 14.207-4.7344 27.75-6.582 40.965-0.75781 5.8633-5.7383 10.254-11.648 10.277h-1.5156c-3.1406-0.38672-5.9922-2.0195-7.9141-4.5312-1.9258-2.5117-2.7578-5.6914-2.3164-8.8242 2.1797-17.098 5.2109-34.949 8.9492-53.137h0.003906c0.32031-1.543 0.94531-3.0078 1.8438-4.3086 2.2344-3.2109 5.3945-5.668 9.0547-7.0469 3.6602-1.3789 7.6562-1.6133 11.453-0.67188l1.5625 0.37891c4.1211 1.0586 7.7773 3.4375 10.418 6.7734 4.1797 5.4219 10.68 8.5469 17.523 8.4297 7.3047-0.027344 14.129-3.6445 18.254-9.6719 4.125-6.0312 5.0195-13.703 2.3945-20.52-2.6211-6.8164-8.4297-11.91-15.535-13.617-4.6094-1.1367-9.4648-0.73828-13.828 1.1367-3.9102 1.6953-8.2695 2.0586-12.406 1.043l-1.5625-0.37891c-3.7578-1.0039-7.1211-3.1211-9.6562-6.0703s-4.1211-6.5938-4.5508-10.457c-0.18359-1.5938-0.039063-3.2031 0.42578-4.7383 2.3672-7.9102 4.7344-15.723 7.3398-23.254v0.003907c1.1641-3.4727 0.75-7.2812-1.1367-10.418-1.832-3.125-4.9531-5.2773-8.5234-5.875-36.367-6.2188-72.199-15.246-107.17-26.992-3.4141-1.1445-7.1562-0.76172-10.27 1.0547-3.1094 1.8125-5.2891 4.8789-5.9766 8.4141-7.8672 46.062-20.242 91.234-36.938 134.88-2.4141 5.9492-9.1445 8.8789-15.145 6.582s-9.0547-8.9727-6.8789-15.012c16.023-42.105 27.891-85.68 35.426-130.09 1.7773-10.371 7.9961-19.449 17.031-24.848 9.0312-5.3984 19.973-6.582 29.949-3.2344 33.812 11.355 68.457 20.082 103.62 26.094 10.352 1.793 19.41 8.0117 24.805 17.027 5.3945 9.0156 6.5898 19.934 3.2812 29.902-1.3242 4.0273-2.6992 8.1914-3.9766 12.359l-0.003906 0.003907c7.1562-1.7773 14.637-1.7617 21.785 0.046875z"/>
  <path d="m447.56 187.66c42.203 16.141 85.887 28.098 130.43 35.707 10.371 1.7773 19.449 7.9961 24.848 17.027 5.3984 9.0352 6.582 19.973 3.2344 29.949-11.355 33.816-20.082 68.461-26.094 103.62-1.793 10.352-8.0117 19.406-17.027 24.801-9.0156 5.3984-19.934 6.5938-29.906 3.2812l-12.359-3.9766c1.8086 7.1797 1.8086 14.699 0 21.879-2.4883 9.875-8.1992 18.637-16.227 24.898-8.0273 6.2617-17.918 9.6641-28.102 9.6719-6.8594-0.003906-13.637-1.5234-19.84-4.4492-7.7617-3.668-14.328-9.4531-18.938-16.695s-7.0742-15.641-7.1094-24.223c-0.10156-11.406 4.1289-22.422 11.84-30.832-14.207-2.6992-27.75-4.7344-40.965-6.582-6.4609-0.84766-11.012-6.7734-10.16-13.234 0.85156-6.4609 6.7773-11.008 13.238-10.16 17.098 2.1797 34.949 5.2109 53.137 8.9492l-0.003907 0.003906c1.5469 0.32031 3.0117 0.94531 4.3125 1.8438 3.2109 2.2344 5.668 5.3945 7.0469 9.0547 1.3789 3.6602 1.6133 7.6562 0.67188 11.453l-0.37891 1.5625c-1.0586 4.1211-3.4375 7.7773-6.7734 10.418-5.4219 4.1797-8.5508 10.68-8.4297 17.523 0.027344 7.3047 3.6406 14.129 9.6719 18.254 6.0273 4.125 13.699 5.0195 20.52 2.3945 6.8164-2.6211 11.906-8.4297 13.613-15.535 1.1406-4.6094 0.74219-9.4648-1.1367-13.828-1.6914-3.9102-2.0586-8.2695-1.0391-12.406l0.37891-1.5625c1.0039-3.7578 3.1211-7.1211 6.0703-9.6562 2.9453-2.5352 6.5938-4.1211 10.457-4.5508 1.5898-0.18359 3.2031-0.039063 4.7344 0.42578 7.9102 2.3672 15.723 4.7344 23.254 7.3398 3.4727 1.1641 7.2812 0.75 10.418-1.1367 3.125-1.832 5.2773-4.9531 5.875-8.5234 6.2188-36.367 15.242-72.199 26.992-107.17 1.1445-3.4141 0.75781-7.1562-1.0547-10.27-1.8125-3.1094-4.8828-5.2891-8.418-5.9766-46.059-7.8711-91.234-20.242-134.88-36.938-5.9531-2.4141-8.8789-9.1445-6.582-15.145s8.9688-9.0547 15.012-6.8789z"/>
  <path d="m381.97 556.77c36.367 6.2227 72.195 15.246 107.17 26.996 3.4141 1.1445 7.1562 0.75781 10.27-1.0547 3.1094-1.8125 5.2852-4.8828 5.9727-8.418 7.8711-46.059 20.242-91.234 36.941-134.88 1.0742-2.9805 3.3008-5.4023 6.1797-6.7227 2.8789-1.3164 6.1719-1.4219 9.1289-0.29297 2.957 1.1328 5.3359 3.4102 6.5977 6.3125 1.2617 2.9062 1.3047 6.1992 0.11328 9.1328-16.141 42.203-28.102 85.887-35.707 130.43-1.7773 10.371-8 19.445-17.031 24.848-9.0312 5.3984-19.973 6.5781-29.949 3.2344-33.812-11.359-68.457-20.082-103.62-26.094-10.352-1.7969-19.41-8.0117-24.805-17.027s-6.5898-19.934-3.2812-29.906c1.3242-4.0273 2.6992-8.1914 3.9766-12.359h0.003906c-7.1836 1.8047-14.699 1.8047-21.879 0-14.93-3.3008-27.223-13.832-32.777-28.074-5.5547-14.242-3.6367-30.316 5.1133-42.852 8.75-12.535 23.176-19.879 38.461-19.574 11.406-0.10156 22.422 4.1289 30.828 11.84 2.6992-14.207 4.7344-27.75 6.582-40.965 1.1797-6.1133 6.9023-10.258 13.078-9.4688 6.1719 0.78906 10.668 6.2383 10.27 12.449-2.1797 17.098-5.2109 34.949-8.9492 53.137-0.32031 1.5469-0.94922 3.0117-1.8477 4.3086-2.2344 3.2109-5.3906 5.6719-9.0508 7.0469-3.6641 1.3789-7.6562 1.6133-11.453 0.67188l-1.5625-0.37891v0.003906c-4.1211-1.0586-7.7812-3.4375-10.422-6.7734-4.1875-5.375-10.66-8.4648-17.473-8.3359-7.3047 0.027344-14.133 3.6406-18.254 9.6719-4.125 6.0273-5.0195 13.699-2.3984 20.52 2.625 6.8164 8.4336 11.906 15.535 13.613 4.6133 1.1406 9.4688 0.74219 13.832-1.1367 3.9102-1.6914 8.2656-2.0586 12.406-1.0391l1.5625 0.37891c3.7578 1.0039 7.1211 3.1211 9.6562 6.0703 2.5352 2.9453 4.1211 6.5938 4.5508 10.457 0.18359 1.5898 0.039062 3.2031-0.42578 4.7344-2.3672 7.9102-4.7344 15.723-7.3398 23.254-1.1641 3.4727-0.75 7.2812 1.1367 10.418 1.9102 3.1875 5.1719 5.332 8.8555 5.8242z"/>
 </g>
</svg>
