<?xml version="1.0" encoding="UTF-8"?>
<svg width="752pt" height="752pt" version="1.1" viewBox="0 0 752 752" xmlns="http://www.w3.org/2000/svg">
 <path d="m376 294.61c-21.586 0-42.289 8.5742-57.555 23.84-15.266 15.266-23.84 35.969-23.84 57.555 4.4414 107.96 158.36 107.96 162.79 0 0-21.586-8.5742-42.289-23.84-57.555-15.266-15.266-35.969-23.84-57.559-23.84zm0 147.99c-17.66 0-34.602-7.0156-47.09-19.504-12.488-12.492-19.508-29.43-19.508-47.094 3.625-88.352 129.57-88.352 133.2 0 0 17.664-7.0156 34.602-19.504 47.094-12.492 12.488-29.43 19.504-47.094 19.504zm7.3984-83.469v55.496l0.003906 0.003906c0 4.0859-3.3125 7.3984-7.4023 7.3984-4.0859 0-7.3984-3.3125-7.3984-7.3984v-55.5c0-4.0859 3.3125-7.3984 7.3984-7.3984 4.0898 0 7.4023 3.3125 7.4023 7.3984zm-7.3984-14.801v0.003906c-4.0859 0-7.3984-3.3125-7.3984-7.4023 0-4.0859 3.3125-7.3984 7.3984-7.3984 3.7812 0.37891 6.6602 3.5625 6.6602 7.3633s-2.8789 6.9844-6.6602 7.3633zm150.07-34.926h-3.1836c-25.305-173.23-266.76-174.34-293.39 0-15.727-0.91406-31.137 4.6836-42.613 15.473s-18.012 25.828-18.066 41.582v26.344-0.003906c0.011718 15.52 6.3203 30.367 17.477 41.148 11.16 10.781 26.215 16.574 41.723 16.055-0.375 3.043 0.058594 6.1289 1.2578 8.9531 4.0039 26.023 17.168 49.762 37.125 66.938s45.395 26.66 71.723 26.742c2.4102 8.7812 8.9453 15.84 17.512 18.922 8.5703 3.082 18.105 1.7969 25.555-3.4414 7.4492-5.2383 11.879-13.773 11.879-22.879 0-9.1094-4.4297-17.645-11.879-22.883-7.4492-5.2383-16.984-6.5195-25.555-3.4414-8.5664 3.082-15.102 10.141-17.512 18.922-23.965-0.035156-47.039-9.0938-64.629-25.367-17.59-16.273-28.41-38.578-30.309-62.465 7.6445 0.28125 15.07-2.5547 20.582-7.8594 5.5117-5.3008 8.6328-12.613 8.6484-20.262v-84.504c-0.019531-7.4141-2.9727-14.516-8.2148-19.758-5.2422-5.2422-12.344-8.1953-19.758-8.2148 25.309-154.65 239.53-153.47 263.5 0-7.4766-0.078125-14.676 2.832-19.996 8.0859-5.3203 5.25-8.3242 12.41-8.3438 19.887v84.504c-0.019531 7.4531 2.9258 14.605 8.1875 19.879 5.2617 5.2773 12.406 8.2422 19.855 8.2422h18.426c15.164 0 29.707-6.0312 40.422-16.758 10.715-10.73 16.723-25.281 16.703-40.445v-26.34c-0.019531-15.141-6.0469-29.648-16.758-40.348-10.711-10.695-25.227-16.707-40.367-16.707zm-161.02 222.66c7.2734 0 13.172 5.8945 13.172 13.172 0 7.2734-5.8984 13.168-13.172 13.168-7.2734 0-13.172-5.8945-13.172-13.168 0-7.2773 5.8984-13.172 13.172-13.172zm-181.44-139.27v-26.34c0.027344-11.574 4.7852-22.637 13.168-30.613 8.3867-7.9805 19.668-12.188 31.23-11.641v5.6992 105.3c-11.578 0.50391-22.855-3.7344-31.238-11.738-8.3789-8-13.133-19.074-13.16-30.664zm60.75-68.594c7.2891 0 13.207 5.8867 13.246 13.172v84.504c-0.023438 3.7891-1.6406 7.3945-4.457 9.9297-2.8164 2.5352-6.5703 3.7656-10.34 3.3906v-105.37-5.6992zm263.28 111c-3.5234 0-6.9062-1.4062-9.3906-3.9062s-3.8711-5.8867-3.8516-9.4141v-84.504c0.039062-3.7695 1.668-7.3516 4.4883-9.8555 2.8164-2.5078 6.5586-3.7109 10.309-3.3164v2.4414 108.55zm60.754-42.402c-0.03125 11.59-4.7852 22.664-13.164 30.664-8.3789 8.0039-19.66 12.242-31.234 11.738v-108.63-2.4414c11.574-0.54688 22.867 3.668 31.254 11.664 8.3867 7.9961 13.137 19.074 13.145 30.664z" fill="#fff"/>
</svg>
